<?xml version="1.0"?>
<!DOCTYPE svg PUBLIC "-//W3C//DTD SVG 1.1//EN" "http://www.w3.org/Graphics/SVG/1.1/DTD/svg11.dtd">
<svg width="306.0mm" height="352.0mm" viewBox="0 0 306.0 352.0" xmlns="http://www.w3.org/2000/svg" version="1.1">
<g id="Body049" transform="translate(153.000000,153.000000) scale(1,-1)">
<path id="Body049_f0000"  d="M 150.0 -100.0 L 150.0 -100.0 L 125.0 -100.0 L 125.0 -100.0 L 150.0 -100.0 Z " stroke="#191919" stroke-width="0.7 px" style="stroke-width:0.7;stroke-miterlimit:4;stroke-dasharray:none;stroke-linecap:square;fill:#727980;fill-opacity:0.5;fill-rule: evenodd"/>
<path id="Body049_f0001"  d="M 150.0 100.0 L 150.0 -100.0 L 150.0 -100.0 L 150.0 100.0 L 150.0 100.0 Z " stroke="#191919" stroke-width="0.7 px" style="stroke-width:0.7;stroke-miterlimit:4;stroke-dasharray:none;stroke-linecap:square;fill:#727980;fill-opacity:0.5;fill-rule: evenodd"/>
<path id="Body049_f0002"  d="M 125.0 -100.0 L 125.0 -100.0 L 95.0 -130.0 L 95.0 -130.0 L 125.0 -100.0 Z " stroke="#191919" stroke-width="0.7 px" style="stroke-width:0.7;stroke-miterlimit:4;stroke-dasharray:none;stroke-linecap:square;fill:#727980;fill-opacity:0.5;fill-rule: evenodd"/>
<path id="Body049_f0003"  d="M 125.0 100.0 L 125.0 100.0 L 150.0 100.0 L 150.0 100.0 L 125.0 100.0 Z " stroke="#191919" stroke-width="0.7 px" style="stroke-width:0.7;stroke-miterlimit:4;stroke-dasharray:none;stroke-linecap:square;fill:#727980;fill-opacity:0.5;fill-rule: evenodd"/>
<path id="Body049_f0004"  d="M 95.0 -130.0 L 95.0 -130.0 L 95.0 -155.0 L 95.0 -155.0 L 95.0 -130.0 Z " stroke="#191919" stroke-width="0.7 px" style="stroke-width:0.7;stroke-miterlimit:4;stroke-dasharray:none;stroke-linecap:square;fill:#727980;fill-opacity:0.5;fill-rule: evenodd"/>
<path id="Body049_f0005"  d="M 95.0 130.0 L 95.0 130.0 L 125.0 100.0 L 125.0 100.0 L 95.0 130.0 Z " stroke="#191919" stroke-width="0.7 px" style="stroke-width:0.7;stroke-miterlimit:4;stroke-dasharray:none;stroke-linecap:square;fill:#727980;fill-opacity:0.5;fill-rule: evenodd"/>
<path id="Body049_f0006"  d="M 95.0 150.0 L 95.0 150.0 L 95.0 130.0 L 95.0 130.0 L 95.0 150.0 Z " stroke="#191919" stroke-width="0.7 px" style="stroke-width:0.7;stroke-miterlimit:4;stroke-dasharray:none;stroke-linecap:square;fill:#727980;fill-opacity:0.5;fill-rule: evenodd"/>
<path id="Body049_f0007"  d="M 95.0 -155.0 L 60.59691512173152 -196.0 L 60.59691512173152 -196.0 L 95.0 -155.0 L 95.0 -155.0 Z " stroke="#191919" stroke-width="0.7 px" style="stroke-width:0.7;stroke-miterlimit:4;stroke-dasharray:none;stroke-linecap:square;fill:#727980;fill-opacity:0.5;fill-rule: evenodd"/>
<circle cx="65.0" cy="-140.446245" r="1.7" stroke="#191919" stroke-width="0.7 px" style="stroke-width:0.7;stroke-miterlimit:4;stroke-dasharray:none;stroke-linecap:square;fill:#727980"/>
<path id="Body049_f0009"  d="M -125.0 -100.0 L -150.0 -100.0 L -150.0 -100.0 L -125.0 -100.0 L -125.0 -100.0 Z " stroke="#191919" stroke-width="0.7 px" style="stroke-width:0.7;stroke-miterlimit:4;stroke-dasharray:none;stroke-linecap:square;fill:#727980;fill-opacity:0.5;fill-rule: evenodd"/>
<path id="Body049_f0010"  d="M -150.0 -100.0 L -150.0 -100.0 L -150.0 100.0 L -150.0 100.0 L -150.0 -100.0 Z " stroke="#191919" stroke-width="0.7 px" style="stroke-width:0.7;stroke-miterlimit:4;stroke-dasharray:none;stroke-linecap:square;fill:#727980;fill-opacity:0.5;fill-rule: evenodd"/>
<path id="Body049_f0011"  d="M -150.0 100.0 L -125.0 100.0 L -125.0 100.0 L -150.0 100.0 L -150.0 100.0 Z " stroke="#191919" stroke-width="0.7 px" style="stroke-width:0.7;stroke-miterlimit:4;stroke-dasharray:none;stroke-linecap:square;fill:#727980;fill-opacity:0.5;fill-rule: evenodd"/>
<path id="Body049_f0012"  d="M -125.0 100.0 L -95.0 130.0 L -95.0 130.0 L -125.0 100.0 L -125.0 100.0 Z " stroke="#191919" stroke-width="0.7 px" style="stroke-width:0.7;stroke-miterlimit:4;stroke-dasharray:none;stroke-linecap:square;fill:#727980;fill-opacity:0.5;fill-rule: evenodd"/>
<path id="Body049_f0013"  d="M -95.0 130.0 L -95.0 150.0 L -95.0 150.0 L -95.0 130.0 L -95.0 130.0 Z " stroke="#191919" stroke-width="0.7 px" style="stroke-width:0.7;stroke-miterlimit:4;stroke-dasharray:none;stroke-linecap:square;fill:#727980;fill-opacity:0.5;fill-rule: evenodd"/>
<path id="Body049_f0014"  d="M -95.0 -130.0 L -125.0 -100.0 L -125.0 -100.0 L -95.0 -130.0 L -95.0 -130.0 Z " stroke="#191919" stroke-width="0.7 px" style="stroke-width:0.7;stroke-miterlimit:4;stroke-dasharray:none;stroke-linecap:square;fill:#727980;fill-opacity:0.5;fill-rule: evenodd"/>
<path id="Body049_f0015"  d="M -60.59691512173152 -196.0 L -60.59691512173152 -196.0 L -95.0 -155.0 L -95.0 -155.0 L -60.59691512173152 -196.0 Z " stroke="#191919" stroke-width="0.7 px" style="stroke-width:0.7;stroke-miterlimit:4;stroke-dasharray:none;stroke-linecap:square;fill:#727980;fill-opacity:0.5;fill-rule: evenodd"/>
<path id="Body049_f0016"  d="M -95.0 -155.0 L -95.0 -130.0 L -95.0 -130.0 L -95.0 -155.0 L -95.0 -155.0 Z " stroke="#191919" stroke-width="0.7 px" style="stroke-width:0.7;stroke-miterlimit:4;stroke-dasharray:none;stroke-linecap:square;fill:#727980;fill-opacity:0.5;fill-rule: evenodd"/>
<circle cx="65.0" cy="-140.446245" r="1.7" stroke="#191919" stroke-width="0.7 px" style="stroke-width:0.7;stroke-miterlimit:4;stroke-dasharray:none;stroke-linecap:square;fill:#727980"/>
<circle cx="35.0" cy="-140.446245" r="1.7" stroke="#191919" stroke-width="0.7 px" style="stroke-width:0.7;stroke-miterlimit:4;stroke-dasharray:none;stroke-linecap:square;fill:#727980"/>
<circle cx="65.0" cy="140.0" r="1.7" stroke="#191919" stroke-width="0.7 px" style="stroke-width:0.7;stroke-miterlimit:4;stroke-dasharray:none;stroke-linecap:square;fill:#727980"/>
<circle cx="35.0" cy="140.0" r="1.7" stroke="#191919" stroke-width="0.7 px" style="stroke-width:0.7;stroke-miterlimit:4;stroke-dasharray:none;stroke-linecap:square;fill:#727980"/>
<circle cx="140.0" cy="60.0" r="1.7" stroke="#191919" stroke-width="0.7 px" style="stroke-width:0.7;stroke-miterlimit:4;stroke-dasharray:none;stroke-linecap:square;fill:#727980"/>
<circle cx="140.0" cy="20.0" r="1.7" stroke="#191919" stroke-width="0.7 px" style="stroke-width:0.7;stroke-miterlimit:4;stroke-dasharray:none;stroke-linecap:square;fill:#727980"/>
<circle cx="140.0" cy="-20.0" r="1.7" stroke="#191919" stroke-width="0.7 px" style="stroke-width:0.7;stroke-miterlimit:4;stroke-dasharray:none;stroke-linecap:square;fill:#727980"/>
<circle cx="140.0" cy="-60.0" r="1.7" stroke="#191919" stroke-width="0.7 px" style="stroke-width:0.7;stroke-miterlimit:4;stroke-dasharray:none;stroke-linecap:square;fill:#727980"/>
<circle cx="-65.0" cy="-140.446245" r="1.7" stroke="#191919" stroke-width="0.7 px" style="stroke-width:0.7;stroke-miterlimit:4;stroke-dasharray:none;stroke-linecap:square;fill:#727980"/>
<circle cx="-35.0" cy="-140.446245" r="1.7" stroke="#191919" stroke-width="0.7 px" style="stroke-width:0.7;stroke-miterlimit:4;stroke-dasharray:none;stroke-linecap:square;fill:#727980"/>
<circle cx="-65.0" cy="140.0" r="1.7" stroke="#191919" stroke-width="0.7 px" style="stroke-width:0.7;stroke-miterlimit:4;stroke-dasharray:none;stroke-linecap:square;fill:#727980"/>
<circle cx="-35.0" cy="140.0" r="1.7" stroke="#191919" stroke-width="0.7 px" style="stroke-width:0.7;stroke-miterlimit:4;stroke-dasharray:none;stroke-linecap:square;fill:#727980"/>
<circle cx="-140.0" cy="-60.0" r="1.7" stroke="#191919" stroke-width="0.7 px" style="stroke-width:0.7;stroke-miterlimit:4;stroke-dasharray:none;stroke-linecap:square;fill:#727980"/>
<circle cx="-140.0" cy="-20.0" r="1.7" stroke="#191919" stroke-width="0.7 px" style="stroke-width:0.7;stroke-miterlimit:4;stroke-dasharray:none;stroke-linecap:square;fill:#727980"/>
<circle cx="-140.0" cy="20.0" r="1.7" stroke="#191919" stroke-width="0.7 px" style="stroke-width:0.7;stroke-miterlimit:4;stroke-dasharray:none;stroke-linecap:square;fill:#727980"/>
<circle cx="-140.0" cy="60.0" r="1.7" stroke="#191919" stroke-width="0.7 px" style="stroke-width:0.7;stroke-miterlimit:4;stroke-dasharray:none;stroke-linecap:square;fill:#727980"/>
<circle cx="65.0" cy="-140.446245" r="1.7" stroke="#191919" stroke-width="0.7 px" style="stroke-width:0.7;stroke-miterlimit:4;stroke-dasharray:none;stroke-linecap:square;fill:#727980"/>
<path id="Body049_f0034"  d="M -95.0 150.0 L -95.0 150.0 L 95.0 150.0 L 95.0 150.0 L -95.0 150.0 Z " stroke="#191919" stroke-width="0.7 px" style="stroke-width:0.7;stroke-miterlimit:4;stroke-dasharray:none;stroke-linecap:square;fill:#727980;fill-opacity:0.5;fill-rule: evenodd"/>
<path id="Body049_f0035"  d="M 60.59691512173152 -196.0 L 60.59691512173152 -196.0 L -60.59691512173152 -196.0 L -60.59691512173152 -196.0 L 60.59691512173152 -196.0 Z " stroke="#191919" stroke-width="0.7 px" style="stroke-width:0.7;stroke-miterlimit:4;stroke-dasharray:none;stroke-linecap:square;fill:#727980;fill-opacity:0.5;fill-rule: evenodd"/>
<title>b'panel000'</title>
</g>
</svg>