ISO-10303-21;
HEADER;
FILE_DESCRIPTION(('FreeCAD Model'),'2;1');
FILE_NAME('Open CASCADE Shape Model','2025-09-19T10:16:17',(''),(''),
  'Open CASCADE STEP processor 7.9','FreeCAD','Unknown');
FILE_SCHEMA(('AUTOMOTIVE_DESIGN { 1 0 10303 214 1 1 1 1 }'));
ENDSEC;
DATA;
#1 = APPLICATION_PROTOCOL_DEFINITION('international standard',
  'automotive_design',2000,#2);
#2 = APPLICATION_CONTEXT(
  'core data for automotive mechanical design processes');
#3 = SHAPE_DEFINITION_REPRESENTATION(#4,#10);
#4 = PRODUCT_DEFINITION_SHAPE('','',#5);
#5 = PRODUCT_DEFINITION('design','',#6,#9);
#6 = PRODUCT_DEFINITION_FORMATION('','',#7);
#7 = PRODUCT('150_middle','150_middle','',(#8));
#8 = PRODUCT_CONTEXT('',#2,'mechanical');
#9 = PRODUCT_DEFINITION_CONTEXT('part definition',#2,'design');
#10 = ADVANCED_BREP_SHAPE_REPRESENTATION('',(#11,#15),#671);
#11 = AXIS2_PLACEMENT_3D('',#12,#13,#14);
#12 = CARTESIAN_POINT('',(0.,0.,0.));
#13 = DIRECTION('',(0.,0.,1.));
#14 = DIRECTION('',(1.,0.,-0.));
#15 = MANIFOLD_SOLID_BREP('',#16);
#16 = CLOSED_SHELL('',(#17,#84,#109,#162,#186,#210,#245,#280,#297,#322,
    #386,#411,#436,#461,#486,#545,#567,#584,#601,#618,#635,#647,#659));
#17 = ADVANCED_FACE('',(#18,#29),#79,.T.);
#18 = FACE_BOUND('',#19,.T.);
#19 = EDGE_LOOP('',(#20));
#20 = ORIENTED_EDGE('',*,*,#21,.F.);
#21 = EDGE_CURVE('',#22,#22,#24,.T.);
#22 = VERTEX_POINT('',#23);
#23 = CARTESIAN_POINT('',(2.7,5.,20.));
#24 = CIRCLE('',#25,2.7);
#25 = AXIS2_PLACEMENT_3D('',#26,#27,#28);
#26 = CARTESIAN_POINT('',(0.,5.,20.));
#27 = DIRECTION('',(0.,0.,1.));
#28 = DIRECTION('',(1.,0.,0.));
#29 = FACE_BOUND('',#30,.T.);
#30 = EDGE_LOOP('',(#31,#41,#49,#57,#65,#73));
#31 = ORIENTED_EDGE('',*,*,#32,.T.);
#32 = EDGE_CURVE('',#33,#35,#37,.T.);
#33 = VERTEX_POINT('',#34);
#34 = CARTESIAN_POINT('',(-20.,0.,20.));
#35 = VERTEX_POINT('',#36);
#36 = CARTESIAN_POINT('',(20.,0.,20.));
#37 = LINE('',#38,#39);
#38 = CARTESIAN_POINT('',(0.,0.,20.));
#39 = VECTOR('',#40,1.);
#40 = DIRECTION('',(1.,0.,0.));
#41 = ORIENTED_EDGE('',*,*,#42,.T.);
#42 = EDGE_CURVE('',#35,#43,#45,.T.);
#43 = VERTEX_POINT('',#44);
#44 = CARTESIAN_POINT('',(20.,5.,20.));
#45 = LINE('',#46,#47);
#46 = CARTESIAN_POINT('',(20.,0.,20.));
#47 = VECTOR('',#48,1.);
#48 = DIRECTION('',(0.,1.,0.));
#49 = ORIENTED_EDGE('',*,*,#50,.T.);
#50 = EDGE_CURVE('',#43,#51,#53,.T.);
#51 = VERTEX_POINT('',#52);
#52 = CARTESIAN_POINT('',(5.,15.,20.));
#53 = LINE('',#54,#55);
#54 = CARTESIAN_POINT('',(20.,5.,20.));
#55 = VECTOR('',#56,1.);
#56 = DIRECTION('',(-0.832050294338,0.554700196225,0.));
#57 = ORIENTED_EDGE('',*,*,#58,.T.);
#58 = EDGE_CURVE('',#51,#59,#61,.T.);
#59 = VERTEX_POINT('',#60);
#60 = CARTESIAN_POINT('',(-5.,15.,20.));
#61 = LINE('',#62,#63);
#62 = CARTESIAN_POINT('',(5.,15.,20.));
#63 = VECTOR('',#64,1.);
#64 = DIRECTION('',(-1.,0.,0.));
#65 = ORIENTED_EDGE('',*,*,#66,.F.);
#66 = EDGE_CURVE('',#67,#59,#69,.T.);
#67 = VERTEX_POINT('',#68);
#68 = CARTESIAN_POINT('',(-20.,5.,20.));
#69 = LINE('',#70,#71);
#70 = CARTESIAN_POINT('',(-20.,5.,20.));
#71 = VECTOR('',#72,1.);
#72 = DIRECTION('',(0.832050294338,0.554700196225,0.));
#73 = ORIENTED_EDGE('',*,*,#74,.F.);
#74 = EDGE_CURVE('',#33,#67,#75,.T.);
#75 = LINE('',#76,#77);
#76 = CARTESIAN_POINT('',(-20.,0.,20.));
#77 = VECTOR('',#78,1.);
#78 = DIRECTION('',(0.,1.,0.));
#79 = PLANE('',#80);
#80 = AXIS2_PLACEMENT_3D('',#81,#82,#83);
#81 = CARTESIAN_POINT('',(0.,5.575475182923,20.));
#82 = DIRECTION('',(0.,0.,1.));
#83 = DIRECTION('',(1.,0.,0.));
#84 = ADVANCED_FACE('',(#85),#104,.F.);
#85 = FACE_BOUND('',#86,.T.);
#86 = EDGE_LOOP('',(#87,#95,#96,#97));
#87 = ORIENTED_EDGE('',*,*,#88,.F.);
#88 = EDGE_CURVE('',#22,#89,#91,.T.);
#89 = VERTEX_POINT('',#90);
#90 = CARTESIAN_POINT('',(1.7,5.,19.));
#91 = LINE('',#92,#93);
#92 = CARTESIAN_POINT('',(1.7,5.,19.));
#93 = VECTOR('',#94,1.);
#94 = DIRECTION('',(-0.707106781187,-0.,-0.707106781187));
#95 = ORIENTED_EDGE('',*,*,#21,.T.);
#96 = ORIENTED_EDGE('',*,*,#88,.T.);
#97 = ORIENTED_EDGE('',*,*,#98,.F.);
#98 = EDGE_CURVE('',#89,#89,#99,.T.);
#99 = CIRCLE('',#100,1.7);
#100 = AXIS2_PLACEMENT_3D('',#101,#102,#103);
#101 = CARTESIAN_POINT('',(0.,5.,19.));
#102 = DIRECTION('',(0.,0.,1.));
#103 = DIRECTION('',(1.,0.,0.));
#104 = CONICAL_SURFACE('',#105,1.7,0.785398163397);
#105 = AXIS2_PLACEMENT_3D('',#106,#107,#108);
#106 = CARTESIAN_POINT('',(0.,5.,19.));
#107 = DIRECTION('',(0.,0.,1.));
#108 = DIRECTION('',(1.,0.,0.));
#109 = ADVANCED_FACE('',(#110,#135,#146),#157,.T.);
#110 = FACE_BOUND('',#111,.T.);
#111 = EDGE_LOOP('',(#112,#120,#121,#129));
#112 = ORIENTED_EDGE('',*,*,#113,.T.);
#113 = EDGE_CURVE('',#114,#35,#116,.T.);
#114 = VERTEX_POINT('',#115);
#115 = CARTESIAN_POINT('',(20.,0.,0.));
#116 = LINE('',#117,#118);
#117 = CARTESIAN_POINT('',(20.,0.,0.));
#118 = VECTOR('',#119,1.);
#119 = DIRECTION('',(0.,0.,1.));
#120 = ORIENTED_EDGE('',*,*,#32,.F.);
#121 = ORIENTED_EDGE('',*,*,#122,.F.);
#122 = EDGE_CURVE('',#123,#33,#125,.T.);
#123 = VERTEX_POINT('',#124);
#124 = CARTESIAN_POINT('',(-20.,0.,0.));
#125 = LINE('',#126,#127);
#126 = CARTESIAN_POINT('',(-20.,0.,0.));
#127 = VECTOR('',#128,1.);
#128 = DIRECTION('',(0.,0.,1.));
#129 = ORIENTED_EDGE('',*,*,#130,.F.);
#130 = EDGE_CURVE('',#114,#123,#131,.T.);
#131 = LINE('',#132,#133);
#132 = CARTESIAN_POINT('',(0.,0.,0.));
#133 = VECTOR('',#134,1.);
#134 = DIRECTION('',(-1.,-0.,-0.));
#135 = FACE_BOUND('',#136,.T.);
#136 = EDGE_LOOP('',(#137));
#137 = ORIENTED_EDGE('',*,*,#138,.F.);
#138 = EDGE_CURVE('',#139,#139,#141,.T.);
#139 = VERTEX_POINT('',#140);
#140 = CARTESIAN_POINT('',(16.6,0.,10.));
#141 = CIRCLE('',#142,1.6);
#142 = AXIS2_PLACEMENT_3D('',#143,#144,#145);
#143 = CARTESIAN_POINT('',(15.,0.,10.));
#144 = DIRECTION('',(0.,-1.,2.22044604925E-16));
#145 = DIRECTION('',(1.,0.,0.));
#146 = FACE_BOUND('',#147,.T.);
#147 = EDGE_LOOP('',(#148));
#148 = ORIENTED_EDGE('',*,*,#149,.F.);
#149 = EDGE_CURVE('',#150,#150,#152,.T.);
#150 = VERTEX_POINT('',#151);
#151 = CARTESIAN_POINT('',(-16.6,0.,10.));
#152 = CIRCLE('',#153,1.6);
#153 = AXIS2_PLACEMENT_3D('',#154,#155,#156);
#154 = CARTESIAN_POINT('',(-15.,0.,10.));
#155 = DIRECTION('',(0.,-1.,2.22044604925E-16));
#156 = DIRECTION('',(-1.,0.,0.));
#157 = PLANE('',#158);
#158 = AXIS2_PLACEMENT_3D('',#159,#160,#161);
#159 = CARTESIAN_POINT('',(0.,0.,10.));
#160 = DIRECTION('',(-0.,-1.,-0.));
#161 = DIRECTION('',(0.,0.,-1.));
#162 = ADVANCED_FACE('',(#163),#181,.F.);
#163 = FACE_BOUND('',#164,.T.);
#164 = EDGE_LOOP('',(#165,#166,#167,#175));
#165 = ORIENTED_EDGE('',*,*,#122,.T.);
#166 = ORIENTED_EDGE('',*,*,#74,.T.);
#167 = ORIENTED_EDGE('',*,*,#168,.F.);
#168 = EDGE_CURVE('',#169,#67,#171,.T.);
#169 = VERTEX_POINT('',#170);
#170 = CARTESIAN_POINT('',(-20.,5.,0.));
#171 = LINE('',#172,#173);
#172 = CARTESIAN_POINT('',(-20.,5.,0.));
#173 = VECTOR('',#174,1.);
#174 = DIRECTION('',(0.,0.,1.));
#175 = ORIENTED_EDGE('',*,*,#176,.F.);
#176 = EDGE_CURVE('',#123,#169,#177,.T.);
#177 = LINE('',#178,#179);
#178 = CARTESIAN_POINT('',(-20.,0.,0.));
#179 = VECTOR('',#180,1.);
#180 = DIRECTION('',(0.,1.,0.));
#181 = PLANE('',#182);
#182 = AXIS2_PLACEMENT_3D('',#183,#184,#185);
#183 = CARTESIAN_POINT('',(-20.,0.,0.));
#184 = DIRECTION('',(1.,0.,0.));
#185 = DIRECTION('',(-0.,-1.,-0.));
#186 = ADVANCED_FACE('',(#187),#205,.F.);
#187 = FACE_BOUND('',#188,.F.);
#188 = EDGE_LOOP('',(#189,#190,#191,#199));
#189 = ORIENTED_EDGE('',*,*,#113,.T.);
#190 = ORIENTED_EDGE('',*,*,#42,.T.);
#191 = ORIENTED_EDGE('',*,*,#192,.F.);
#192 = EDGE_CURVE('',#193,#43,#195,.T.);
#193 = VERTEX_POINT('',#194);
#194 = CARTESIAN_POINT('',(20.,5.,0.));
#195 = LINE('',#196,#197);
#196 = CARTESIAN_POINT('',(20.,5.,0.));
#197 = VECTOR('',#198,1.);
#198 = DIRECTION('',(0.,0.,1.));
#199 = ORIENTED_EDGE('',*,*,#200,.F.);
#200 = EDGE_CURVE('',#114,#193,#201,.T.);
#201 = LINE('',#202,#203);
#202 = CARTESIAN_POINT('',(20.,0.,0.));
#203 = VECTOR('',#204,1.);
#204 = DIRECTION('',(0.,1.,0.));
#205 = PLANE('',#206);
#206 = AXIS2_PLACEMENT_3D('',#207,#208,#209);
#207 = CARTESIAN_POINT('',(20.,0.,0.));
#208 = DIRECTION('',(-1.,0.,0.));
#209 = DIRECTION('',(0.,1.,0.));
#210 = ADVANCED_FACE('',(#211,#229),#240,.F.);
#211 = FACE_BOUND('',#212,.T.);
#212 = EDGE_LOOP('',(#213,#214,#215,#223));
#213 = ORIENTED_EDGE('',*,*,#168,.T.);
#214 = ORIENTED_EDGE('',*,*,#66,.T.);
#215 = ORIENTED_EDGE('',*,*,#216,.F.);
#216 = EDGE_CURVE('',#217,#59,#219,.T.);
#217 = VERTEX_POINT('',#218);
#218 = CARTESIAN_POINT('',(-5.,15.,0.));
#219 = LINE('',#220,#221);
#220 = CARTESIAN_POINT('',(-5.,15.,0.));
#221 = VECTOR('',#222,1.);
#222 = DIRECTION('',(0.,0.,1.));
#223 = ORIENTED_EDGE('',*,*,#224,.F.);
#224 = EDGE_CURVE('',#169,#217,#225,.T.);
#225 = LINE('',#226,#227);
#226 = CARTESIAN_POINT('',(-20.,5.,0.));
#227 = VECTOR('',#228,1.);
#228 = DIRECTION('',(0.832050294338,0.554700196225,0.));
#229 = FACE_BOUND('',#230,.T.);
#230 = EDGE_LOOP('',(#231));
#231 = ORIENTED_EDGE('',*,*,#232,.T.);
#232 = EDGE_CURVE('',#233,#233,#235,.T.);
#233 = VERTEX_POINT('',#234);
#234 = CARTESIAN_POINT('',(-18.05,6.3,10.));
#235 = ELLIPSE('',#236,3.665643796722,3.05);
#236 = AXIS2_PLACEMENT_3D('',#237,#238,#239);
#237 = CARTESIAN_POINT('',(-15.,8.333333333333,10.));
#238 = DIRECTION('',(0.554700196225,-0.832050294338,2.465190328816E-32)
  );
#239 = DIRECTION('',(-0.832050294338,-0.554700196225,4.002966042487E-16)
  );
#240 = PLANE('',#241);
#241 = AXIS2_PLACEMENT_3D('',#242,#243,#244);
#242 = CARTESIAN_POINT('',(-20.,5.,0.));
#243 = DIRECTION('',(0.554700196225,-0.832050294338,0.));
#244 = DIRECTION('',(-0.832050294338,-0.554700196225,-0.));
#245 = ADVANCED_FACE('',(#246,#264),#275,.F.);
#246 = FACE_BOUND('',#247,.F.);
#247 = EDGE_LOOP('',(#248,#249,#250,#258));
#248 = ORIENTED_EDGE('',*,*,#192,.T.);
#249 = ORIENTED_EDGE('',*,*,#50,.T.);
#250 = ORIENTED_EDGE('',*,*,#251,.F.);
#251 = EDGE_CURVE('',#252,#51,#254,.T.);
#252 = VERTEX_POINT('',#253);
#253 = CARTESIAN_POINT('',(5.,15.,0.));
#254 = LINE('',#255,#256);
#255 = CARTESIAN_POINT('',(5.,15.,0.));
#256 = VECTOR('',#257,1.);
#257 = DIRECTION('',(0.,0.,1.));
#258 = ORIENTED_EDGE('',*,*,#259,.F.);
#259 = EDGE_CURVE('',#193,#252,#260,.T.);
#260 = LINE('',#261,#262);
#261 = CARTESIAN_POINT('',(20.,5.,0.));
#262 = VECTOR('',#263,1.);
#263 = DIRECTION('',(-0.832050294338,0.554700196225,0.));
#264 = FACE_BOUND('',#265,.F.);
#265 = EDGE_LOOP('',(#266));
#266 = ORIENTED_EDGE('',*,*,#267,.F.);
#267 = EDGE_CURVE('',#268,#268,#270,.T.);
#268 = VERTEX_POINT('',#269);
#269 = CARTESIAN_POINT('',(18.05,6.3,10.));
#270 = ELLIPSE('',#271,3.665643796722,3.05);
#271 = AXIS2_PLACEMENT_3D('',#272,#273,#274);
#272 = CARTESIAN_POINT('',(15.,8.333333333333,10.));
#273 = DIRECTION('',(-0.554700196225,-0.832050294338,2.465190328816E-32)
  );
#274 = DIRECTION('',(0.832050294338,-0.554700196225,4.002966042487E-16)
  );
#275 = PLANE('',#276);
#276 = AXIS2_PLACEMENT_3D('',#277,#278,#279);
#277 = CARTESIAN_POINT('',(20.,5.,0.));
#278 = DIRECTION('',(-0.554700196225,-0.832050294338,0.));
#279 = DIRECTION('',(-0.832050294338,0.554700196225,0.));
#280 = ADVANCED_FACE('',(#281),#292,.T.);
#281 = FACE_BOUND('',#282,.T.);
#282 = EDGE_LOOP('',(#283,#284,#290,#291));
#283 = ORIENTED_EDGE('',*,*,#251,.F.);
#284 = ORIENTED_EDGE('',*,*,#285,.F.);
#285 = EDGE_CURVE('',#217,#252,#286,.T.);
#286 = LINE('',#287,#288);
#287 = CARTESIAN_POINT('',(-5.,15.,0.));
#288 = VECTOR('',#289,1.);
#289 = DIRECTION('',(1.,0.,0.));
#290 = ORIENTED_EDGE('',*,*,#216,.T.);
#291 = ORIENTED_EDGE('',*,*,#58,.F.);
#292 = PLANE('',#293);
#293 = AXIS2_PLACEMENT_3D('',#294,#295,#296);
#294 = CARTESIAN_POINT('',(0.,15.,10.));
#295 = DIRECTION('',(0.,1.,0.));
#296 = DIRECTION('',(0.,0.,1.));
#297 = ADVANCED_FACE('',(#298),#317,.F.);
#298 = FACE_BOUND('',#299,.F.);
#299 = EDGE_LOOP('',(#300,#308,#309,#310));
#300 = ORIENTED_EDGE('',*,*,#301,.F.);
#301 = EDGE_CURVE('',#89,#302,#304,.T.);
#302 = VERTEX_POINT('',#303);
#303 = CARTESIAN_POINT('',(1.7,5.,3.));
#304 = LINE('',#305,#306);
#305 = CARTESIAN_POINT('',(1.7,5.,20.));
#306 = VECTOR('',#307,1.);
#307 = DIRECTION('',(-0.,-0.,-1.));
#308 = ORIENTED_EDGE('',*,*,#98,.F.);
#309 = ORIENTED_EDGE('',*,*,#301,.T.);
#310 = ORIENTED_EDGE('',*,*,#311,.T.);
#311 = EDGE_CURVE('',#302,#302,#312,.T.);
#312 = CIRCLE('',#313,1.7);
#313 = AXIS2_PLACEMENT_3D('',#314,#315,#316);
#314 = CARTESIAN_POINT('',(0.,5.,3.));
#315 = DIRECTION('',(0.,0.,1.));
#316 = DIRECTION('',(1.,0.,0.));
#317 = CYLINDRICAL_SURFACE('',#318,1.7);
#318 = AXIS2_PLACEMENT_3D('',#319,#320,#321);
#319 = CARTESIAN_POINT('',(0.,5.,20.));
#320 = DIRECTION('',(0.,0.,1.));
#321 = DIRECTION('',(1.,0.,0.));
#322 = ADVANCED_FACE('',(#323,#331),#381,.T.);
#323 = FACE_BOUND('',#324,.T.);
#324 = EDGE_LOOP('',(#325,#326,#327,#328,#329,#330));
#325 = ORIENTED_EDGE('',*,*,#130,.T.);
#326 = ORIENTED_EDGE('',*,*,#176,.T.);
#327 = ORIENTED_EDGE('',*,*,#224,.T.);
#328 = ORIENTED_EDGE('',*,*,#285,.T.);
#329 = ORIENTED_EDGE('',*,*,#259,.F.);
#330 = ORIENTED_EDGE('',*,*,#200,.F.);
#331 = FACE_BOUND('',#332,.T.);
#332 = EDGE_LOOP('',(#333,#343,#351,#359,#367,#375));
#333 = ORIENTED_EDGE('',*,*,#334,.F.);
#334 = EDGE_CURVE('',#335,#337,#339,.T.);
#335 = VERTEX_POINT('',#336);
#336 = CARTESIAN_POINT('',(3.175426480543,5.,0.));
#337 = VERTEX_POINT('',#338);
#338 = CARTESIAN_POINT('',(1.587713240271,2.25,0.));
#339 = LINE('',#340,#341);
#340 = CARTESIAN_POINT('',(3.175426480543,5.,0.));
#341 = VECTOR('',#342,1.);
#342 = DIRECTION('',(-0.5,-0.866025403784,0.));
#343 = ORIENTED_EDGE('',*,*,#344,.F.);
#344 = EDGE_CURVE('',#345,#335,#347,.T.);
#345 = VERTEX_POINT('',#346);
#346 = CARTESIAN_POINT('',(1.587713240271,7.75,0.));
#347 = LINE('',#348,#349);
#348 = CARTESIAN_POINT('',(1.587713240271,7.75,0.));
#349 = VECTOR('',#350,1.);
#350 = DIRECTION('',(0.5,-0.866025403784,0.));
#351 = ORIENTED_EDGE('',*,*,#352,.F.);
#352 = EDGE_CURVE('',#353,#345,#355,.T.);
#353 = VERTEX_POINT('',#354);
#354 = CARTESIAN_POINT('',(-1.587713240271,7.75,0.));
#355 = LINE('',#356,#357);
#356 = CARTESIAN_POINT('',(-1.587713240271,7.75,0.));
#357 = VECTOR('',#358,1.);
#358 = DIRECTION('',(1.,0.,0.));
#359 = ORIENTED_EDGE('',*,*,#360,.F.);
#360 = EDGE_CURVE('',#361,#353,#363,.T.);
#361 = VERTEX_POINT('',#362);
#362 = CARTESIAN_POINT('',(-3.175426480543,5.,0.));
#363 = LINE('',#364,#365);
#364 = CARTESIAN_POINT('',(-3.175426480543,5.,0.));
#365 = VECTOR('',#366,1.);
#366 = DIRECTION('',(0.5,0.866025403784,0.));
#367 = ORIENTED_EDGE('',*,*,#368,.F.);
#368 = EDGE_CURVE('',#369,#361,#371,.T.);
#369 = VERTEX_POINT('',#370);
#370 = CARTESIAN_POINT('',(-1.587713240272,2.25,0.));
#371 = LINE('',#372,#373);
#372 = CARTESIAN_POINT('',(-1.587713240272,2.25,0.));
#373 = VECTOR('',#374,1.);
#374 = DIRECTION('',(-0.5,0.866025403784,-0.));
#375 = ORIENTED_EDGE('',*,*,#376,.F.);
#376 = EDGE_CURVE('',#337,#369,#377,.T.);
#377 = LINE('',#378,#379);
#378 = CARTESIAN_POINT('',(1.587713240271,2.25,0.));
#379 = VECTOR('',#380,1.);
#380 = DIRECTION('',(-1.,1.160770203417E-14,-0.));
#381 = PLANE('',#382);
#382 = AXIS2_PLACEMENT_3D('',#383,#384,#385);
#383 = CARTESIAN_POINT('',(-1.479441867277E-16,5.575475182923,0.));
#384 = DIRECTION('',(-0.,-0.,-1.));
#385 = DIRECTION('',(-1.,0.,0.));
#386 = ADVANCED_FACE('',(#387),#406,.F.);
#387 = FACE_BOUND('',#388,.T.);
#388 = EDGE_LOOP('',(#389,#397,#404,#405));
#389 = ORIENTED_EDGE('',*,*,#390,.F.);
#390 = EDGE_CURVE('',#391,#139,#393,.T.);
#391 = VERTEX_POINT('',#392);
#392 = CARTESIAN_POINT('',(16.6,3.,10.));
#393 = LINE('',#394,#395);
#394 = CARTESIAN_POINT('',(16.6,3.,10.));
#395 = VECTOR('',#396,1.);
#396 = DIRECTION('',(-6.32346830589E-17,-1.,2.22044604925E-16));
#397 = ORIENTED_EDGE('',*,*,#398,.T.);
#398 = EDGE_CURVE('',#391,#391,#399,.T.);
#399 = CIRCLE('',#400,1.6);
#400 = AXIS2_PLACEMENT_3D('',#401,#402,#403);
#401 = CARTESIAN_POINT('',(15.,3.,10.));
#402 = DIRECTION('',(0.,1.,-2.22044604925E-16));
#403 = DIRECTION('',(1.,0.,0.));
#404 = ORIENTED_EDGE('',*,*,#390,.T.);
#405 = ORIENTED_EDGE('',*,*,#138,.T.);
#406 = CYLINDRICAL_SURFACE('',#407,1.6);
#407 = AXIS2_PLACEMENT_3D('',#408,#409,#410);
#408 = CARTESIAN_POINT('',(15.,3.,10.));
#409 = DIRECTION('',(0.,-1.,2.22044604925E-16));
#410 = DIRECTION('',(1.,0.,0.));
#411 = ADVANCED_FACE('',(#412),#431,.F.);
#412 = FACE_BOUND('',#413,.F.);
#413 = EDGE_LOOP('',(#414,#422,#429,#430));
#414 = ORIENTED_EDGE('',*,*,#415,.F.);
#415 = EDGE_CURVE('',#416,#150,#418,.T.);
#416 = VERTEX_POINT('',#417);
#417 = CARTESIAN_POINT('',(-16.6,3.,10.));
#418 = LINE('',#419,#420);
#419 = CARTESIAN_POINT('',(-16.6,3.,10.));
#420 = VECTOR('',#421,1.);
#421 = DIRECTION('',(6.32346830589E-17,-1.,2.22044604925E-16));
#422 = ORIENTED_EDGE('',*,*,#423,.T.);
#423 = EDGE_CURVE('',#416,#416,#424,.T.);
#424 = CIRCLE('',#425,1.6);
#425 = AXIS2_PLACEMENT_3D('',#426,#427,#428);
#426 = CARTESIAN_POINT('',(-15.,3.,10.));
#427 = DIRECTION('',(0.,-1.,2.22044604925E-16));
#428 = DIRECTION('',(-1.,-0.,-0.));
#429 = ORIENTED_EDGE('',*,*,#415,.T.);
#430 = ORIENTED_EDGE('',*,*,#149,.F.);
#431 = CYLINDRICAL_SURFACE('',#432,1.6);
#432 = AXIS2_PLACEMENT_3D('',#433,#434,#435);
#433 = CARTESIAN_POINT('',(-15.,3.,10.));
#434 = DIRECTION('',(0.,-1.,2.22044604925E-16));
#435 = DIRECTION('',(-1.,-0.,-0.));
#436 = ADVANCED_FACE('',(#437),#456,.F.);
#437 = FACE_BOUND('',#438,.F.);
#438 = EDGE_LOOP('',(#439,#440,#448,#455));
#439 = ORIENTED_EDGE('',*,*,#232,.T.);
#440 = ORIENTED_EDGE('',*,*,#441,.T.);
#441 = EDGE_CURVE('',#233,#442,#444,.T.);
#442 = VERTEX_POINT('',#443);
#443 = CARTESIAN_POINT('',(-18.05,3.,10.));
#444 = LINE('',#445,#446);
#445 = CARTESIAN_POINT('',(-18.05,15.,10.));
#446 = VECTOR('',#447,1.);
#447 = DIRECTION('',(0.,-1.,2.22044604925E-16));
#448 = ORIENTED_EDGE('',*,*,#449,.F.);
#449 = EDGE_CURVE('',#442,#442,#450,.T.);
#450 = CIRCLE('',#451,3.05);
#451 = AXIS2_PLACEMENT_3D('',#452,#453,#454);
#452 = CARTESIAN_POINT('',(-15.,3.,10.));
#453 = DIRECTION('',(0.,-1.,2.22044604925E-16));
#454 = DIRECTION('',(-1.,-0.,-0.));
#455 = ORIENTED_EDGE('',*,*,#441,.F.);
#456 = CYLINDRICAL_SURFACE('',#457,3.05);
#457 = AXIS2_PLACEMENT_3D('',#458,#459,#460);
#458 = CARTESIAN_POINT('',(-15.,15.,10.));
#459 = DIRECTION('',(0.,-1.,2.22044604925E-16));
#460 = DIRECTION('',(-1.,-0.,-0.));
#461 = ADVANCED_FACE('',(#462),#481,.F.);
#462 = FACE_BOUND('',#463,.T.);
#463 = EDGE_LOOP('',(#464,#465,#473,#480));
#464 = ORIENTED_EDGE('',*,*,#267,.F.);
#465 = ORIENTED_EDGE('',*,*,#466,.T.);
#466 = EDGE_CURVE('',#268,#467,#469,.T.);
#467 = VERTEX_POINT('',#468);
#468 = CARTESIAN_POINT('',(18.05,3.,10.));
#469 = LINE('',#470,#471);
#470 = CARTESIAN_POINT('',(18.05,15.,10.));
#471 = VECTOR('',#472,1.);
#472 = DIRECTION('',(0.,-1.,2.22044604925E-16));
#473 = ORIENTED_EDGE('',*,*,#474,.F.);
#474 = EDGE_CURVE('',#467,#467,#475,.T.);
#475 = CIRCLE('',#476,3.05);
#476 = AXIS2_PLACEMENT_3D('',#477,#478,#479);
#477 = CARTESIAN_POINT('',(15.,3.,10.));
#478 = DIRECTION('',(0.,1.,-2.22044604925E-16));
#479 = DIRECTION('',(1.,0.,0.));
#480 = ORIENTED_EDGE('',*,*,#466,.F.);
#481 = CYLINDRICAL_SURFACE('',#482,3.05);
#482 = AXIS2_PLACEMENT_3D('',#483,#484,#485);
#483 = CARTESIAN_POINT('',(15.,15.,10.));
#484 = DIRECTION('',(0.,-1.,2.22044604925E-16));
#485 = DIRECTION('',(1.,0.,0.));
#486 = ADVANCED_FACE('',(#487,#537),#540,.F.);
#487 = FACE_BOUND('',#488,.F.);
#488 = EDGE_LOOP('',(#489,#499,#507,#515,#523,#531));
#489 = ORIENTED_EDGE('',*,*,#490,.F.);
#490 = EDGE_CURVE('',#491,#493,#495,.T.);
#491 = VERTEX_POINT('',#492);
#492 = CARTESIAN_POINT('',(3.175426480543,5.,3.));
#493 = VERTEX_POINT('',#494);
#494 = CARTESIAN_POINT('',(1.587713240271,2.25,3.));
#495 = LINE('',#496,#497);
#496 = CARTESIAN_POINT('',(3.175426480543,5.,3.));
#497 = VECTOR('',#498,1.);
#498 = DIRECTION('',(-0.5,-0.866025403784,0.));
#499 = ORIENTED_EDGE('',*,*,#500,.F.);
#500 = EDGE_CURVE('',#501,#491,#503,.T.);
#501 = VERTEX_POINT('',#502);
#502 = CARTESIAN_POINT('',(1.587713240271,7.75,3.));
#503 = LINE('',#504,#505);
#504 = CARTESIAN_POINT('',(1.587713240271,7.75,3.));
#505 = VECTOR('',#506,1.);
#506 = DIRECTION('',(0.5,-0.866025403784,0.));
#507 = ORIENTED_EDGE('',*,*,#508,.F.);
#508 = EDGE_CURVE('',#509,#501,#511,.T.);
#509 = VERTEX_POINT('',#510);
#510 = CARTESIAN_POINT('',(-1.587713240271,7.75,3.));
#511 = LINE('',#512,#513);
#512 = CARTESIAN_POINT('',(-1.587713240271,7.75,3.));
#513 = VECTOR('',#514,1.);
#514 = DIRECTION('',(1.,0.,0.));
#515 = ORIENTED_EDGE('',*,*,#516,.F.);
#516 = EDGE_CURVE('',#517,#509,#519,.T.);
#517 = VERTEX_POINT('',#518);
#518 = CARTESIAN_POINT('',(-3.175426480543,5.,3.));
#519 = LINE('',#520,#521);
#520 = CARTESIAN_POINT('',(-3.175426480543,5.,3.));
#521 = VECTOR('',#522,1.);
#522 = DIRECTION('',(0.5,0.866025403784,0.));
#523 = ORIENTED_EDGE('',*,*,#524,.F.);
#524 = EDGE_CURVE('',#525,#517,#527,.T.);
#525 = VERTEX_POINT('',#526);
#526 = CARTESIAN_POINT('',(-1.587713240272,2.25,3.));
#527 = LINE('',#528,#529);
#528 = CARTESIAN_POINT('',(-1.587713240272,2.25,3.));
#529 = VECTOR('',#530,1.);
#530 = DIRECTION('',(-0.5,0.866025403784,-0.));
#531 = ORIENTED_EDGE('',*,*,#532,.F.);
#532 = EDGE_CURVE('',#493,#525,#533,.T.);
#533 = LINE('',#534,#535);
#534 = CARTESIAN_POINT('',(1.587713240271,2.25,3.));
#535 = VECTOR('',#536,1.);
#536 = DIRECTION('',(-1.,1.160770203417E-14,-0.));
#537 = FACE_BOUND('',#538,.F.);
#538 = EDGE_LOOP('',(#539));
#539 = ORIENTED_EDGE('',*,*,#311,.F.);
#540 = PLANE('',#541);
#541 = AXIS2_PLACEMENT_3D('',#542,#543,#544);
#542 = CARTESIAN_POINT('',(-4.801579556303E-15,5.,3.));
#543 = DIRECTION('',(0.,0.,1.));
#544 = DIRECTION('',(1.,0.,0.));
#545 = ADVANCED_FACE('',(#546),#562,.F.);
#546 = FACE_BOUND('',#547,.F.);
#547 = EDGE_LOOP('',(#548,#554,#555,#561));
#548 = ORIENTED_EDGE('',*,*,#549,.T.);
#549 = EDGE_CURVE('',#335,#491,#550,.T.);
#550 = LINE('',#551,#552);
#551 = CARTESIAN_POINT('',(3.175426480543,5.,0.));
#552 = VECTOR('',#553,1.);
#553 = DIRECTION('',(0.,0.,1.));
#554 = ORIENTED_EDGE('',*,*,#490,.T.);
#555 = ORIENTED_EDGE('',*,*,#556,.F.);
#556 = EDGE_CURVE('',#337,#493,#557,.T.);
#557 = LINE('',#558,#559);
#558 = CARTESIAN_POINT('',(1.587713240271,2.25,0.));
#559 = VECTOR('',#560,1.);
#560 = DIRECTION('',(0.,0.,1.));
#561 = ORIENTED_EDGE('',*,*,#334,.F.);
#562 = PLANE('',#563);
#563 = AXIS2_PLACEMENT_3D('',#564,#565,#566);
#564 = CARTESIAN_POINT('',(3.175426480543,5.,0.));
#565 = DIRECTION('',(0.866025403784,-0.5,0.));
#566 = DIRECTION('',(-0.5,-0.866025403784,0.));
#567 = ADVANCED_FACE('',(#568),#579,.F.);
#568 = FACE_BOUND('',#569,.F.);
#569 = EDGE_LOOP('',(#570,#571,#572,#578));
#570 = ORIENTED_EDGE('',*,*,#556,.T.);
#571 = ORIENTED_EDGE('',*,*,#532,.T.);
#572 = ORIENTED_EDGE('',*,*,#573,.F.);
#573 = EDGE_CURVE('',#369,#525,#574,.T.);
#574 = LINE('',#575,#576);
#575 = CARTESIAN_POINT('',(-1.587713240272,2.25,0.));
#576 = VECTOR('',#577,1.);
#577 = DIRECTION('',(0.,0.,1.));
#578 = ORIENTED_EDGE('',*,*,#376,.F.);
#579 = PLANE('',#580);
#580 = AXIS2_PLACEMENT_3D('',#581,#582,#583);
#581 = CARTESIAN_POINT('',(1.587713240271,2.25,0.));
#582 = DIRECTION('',(-1.160770203417E-14,-1.,0.));
#583 = DIRECTION('',(-1.,1.160770203417E-14,0.));
#584 = ADVANCED_FACE('',(#585),#596,.F.);
#585 = FACE_BOUND('',#586,.F.);
#586 = EDGE_LOOP('',(#587,#588,#589,#595));
#587 = ORIENTED_EDGE('',*,*,#573,.T.);
#588 = ORIENTED_EDGE('',*,*,#524,.T.);
#589 = ORIENTED_EDGE('',*,*,#590,.F.);
#590 = EDGE_CURVE('',#361,#517,#591,.T.);
#591 = LINE('',#592,#593);
#592 = CARTESIAN_POINT('',(-3.175426480543,5.,0.));
#593 = VECTOR('',#594,1.);
#594 = DIRECTION('',(0.,0.,1.));
#595 = ORIENTED_EDGE('',*,*,#368,.F.);
#596 = PLANE('',#597);
#597 = AXIS2_PLACEMENT_3D('',#598,#599,#600);
#598 = CARTESIAN_POINT('',(-1.587713240272,2.25,0.));
#599 = DIRECTION('',(-0.866025403784,-0.5,0.));
#600 = DIRECTION('',(-0.5,0.866025403784,0.));
#601 = ADVANCED_FACE('',(#602),#613,.F.);
#602 = FACE_BOUND('',#603,.F.);
#603 = EDGE_LOOP('',(#604,#605,#606,#612));
#604 = ORIENTED_EDGE('',*,*,#590,.T.);
#605 = ORIENTED_EDGE('',*,*,#516,.T.);
#606 = ORIENTED_EDGE('',*,*,#607,.F.);
#607 = EDGE_CURVE('',#353,#509,#608,.T.);
#608 = LINE('',#609,#610);
#609 = CARTESIAN_POINT('',(-1.587713240271,7.75,0.));
#610 = VECTOR('',#611,1.);
#611 = DIRECTION('',(0.,0.,1.));
#612 = ORIENTED_EDGE('',*,*,#360,.F.);
#613 = PLANE('',#614);
#614 = AXIS2_PLACEMENT_3D('',#615,#616,#617);
#615 = CARTESIAN_POINT('',(-3.175426480543,5.,0.));
#616 = DIRECTION('',(-0.866025403784,0.5,0.));
#617 = DIRECTION('',(0.5,0.866025403784,0.));
#618 = ADVANCED_FACE('',(#619),#630,.F.);
#619 = FACE_BOUND('',#620,.F.);
#620 = EDGE_LOOP('',(#621,#622,#623,#629));
#621 = ORIENTED_EDGE('',*,*,#607,.T.);
#622 = ORIENTED_EDGE('',*,*,#508,.T.);
#623 = ORIENTED_EDGE('',*,*,#624,.F.);
#624 = EDGE_CURVE('',#345,#501,#625,.T.);
#625 = LINE('',#626,#627);
#626 = CARTESIAN_POINT('',(1.587713240271,7.75,0.));
#627 = VECTOR('',#628,1.);
#628 = DIRECTION('',(0.,0.,1.));
#629 = ORIENTED_EDGE('',*,*,#352,.F.);
#630 = PLANE('',#631);
#631 = AXIS2_PLACEMENT_3D('',#632,#633,#634);
#632 = CARTESIAN_POINT('',(-1.587713240271,7.75,0.));
#633 = DIRECTION('',(0.,1.,0.));
#634 = DIRECTION('',(1.,0.,0.));
#635 = ADVANCED_FACE('',(#636),#642,.F.);
#636 = FACE_BOUND('',#637,.F.);
#637 = EDGE_LOOP('',(#638,#639,#640,#641));
#638 = ORIENTED_EDGE('',*,*,#624,.T.);
#639 = ORIENTED_EDGE('',*,*,#500,.T.);
#640 = ORIENTED_EDGE('',*,*,#549,.F.);
#641 = ORIENTED_EDGE('',*,*,#344,.F.);
#642 = PLANE('',#643);
#643 = AXIS2_PLACEMENT_3D('',#644,#645,#646);
#644 = CARTESIAN_POINT('',(1.587713240271,7.75,0.));
#645 = DIRECTION('',(0.866025403784,0.5,0.));
#646 = DIRECTION('',(0.5,-0.866025403784,0.));
#647 = ADVANCED_FACE('',(#648,#651),#654,.T.);
#648 = FACE_BOUND('',#649,.T.);
#649 = EDGE_LOOP('',(#650));
#650 = ORIENTED_EDGE('',*,*,#474,.T.);
#651 = FACE_BOUND('',#652,.T.);
#652 = EDGE_LOOP('',(#653));
#653 = ORIENTED_EDGE('',*,*,#398,.F.);
#654 = PLANE('',#655);
#655 = AXIS2_PLACEMENT_3D('',#656,#657,#658);
#656 = CARTESIAN_POINT('',(15.,3.,10.));
#657 = DIRECTION('',(0.,1.,-2.22044604925E-16));
#658 = DIRECTION('',(1.,0.,0.));
#659 = ADVANCED_FACE('',(#660,#663),#666,.T.);
#660 = FACE_BOUND('',#661,.F.);
#661 = EDGE_LOOP('',(#662));
#662 = ORIENTED_EDGE('',*,*,#449,.T.);
#663 = FACE_BOUND('',#664,.F.);
#664 = EDGE_LOOP('',(#665));
#665 = ORIENTED_EDGE('',*,*,#423,.F.);
#666 = PLANE('',#667);
#667 = AXIS2_PLACEMENT_3D('',#668,#669,#670);
#668 = CARTESIAN_POINT('',(-15.,3.,10.));
#669 = DIRECTION('',(0.,1.,-2.22044604925E-16));
#670 = DIRECTION('',(1.,0.,0.));
#671 = ( GEOMETRIC_REPRESENTATION_CONTEXT(3) 
GLOBAL_UNCERTAINTY_ASSIGNED_CONTEXT((#675)) GLOBAL_UNIT_ASSIGNED_CONTEXT
((#672,#673,#674)) REPRESENTATION_CONTEXT('Context #1',
  '3D Context with UNIT and UNCERTAINTY') );
#672 = ( LENGTH_UNIT() NAMED_UNIT(*) SI_UNIT(.MILLI.,.METRE.) );
#673 = ( NAMED_UNIT(*) PLANE_ANGLE_UNIT() SI_UNIT($,.RADIAN.) );
#674 = ( NAMED_UNIT(*) SI_UNIT($,.STERADIAN.) SOLID_ANGLE_UNIT() );
#675 = UNCERTAINTY_MEASURE_WITH_UNIT(LENGTH_MEASURE(1.E-07),#672,
  'distance_accuracy_value','confusion accuracy');
#676 = PRODUCT_RELATED_PRODUCT_CATEGORY('part',$,(#7));
#677 = MECHANICAL_DESIGN_GEOMETRIC_PRESENTATION_REPRESENTATION('',(#678)
  ,#671);
#678 = STYLED_ITEM('color',(#679),#15);
#679 = PRESENTATION_STYLE_ASSIGNMENT((#680,#686));
#680 = SURFACE_STYLE_USAGE(.BOTH.,#681);
#681 = SURFACE_SIDE_STYLE('',(#682));
#682 = SURFACE_STYLE_FILL_AREA(#683);
#683 = FILL_AREA_STYLE('',(#684));
#684 = FILL_AREA_STYLE_COLOUR('',#685);
#685 = COLOUR_RGB('',0.447059003357,0.474510015008,0.501960993452);
#686 = CURVE_STYLE('',#687,POSITIVE_LENGTH_MEASURE(0.1),#688);
#687 = DRAUGHTING_PRE_DEFINED_CURVE_FONT('continuous');
#688 = COLOUR_RGB('',9.803921802644E-02,9.803921802644E-02,
  9.803921802644E-02);
ENDSEC;
END-ISO-10303-21;
