ISO-10303-21;
HEADER;
FILE_DESCRIPTION(('FreeCAD Model'),'2;1');
FILE_NAME('Open CASCADE Shape Model','2025-10-13T20:20:03',(''),(''),
  'Open CASCADE STEP processor 7.9','FreeCAD','Unknown');
FILE_SCHEMA(('AUTOMOTIVE_DESIGN { 1 0 10303 214 1 1 1 1 }'));
ENDSEC;
DATA;
#1 = APPLICATION_PROTOCOL_DEFINITION('international standard',
  'automotive_design',2000,#2);
#2 = APPLICATION_CONTEXT(
  'core data for automotive mechanical design processes');
#3 = SHAPE_DEFINITION_REPRESENTATION(#4,#10);
#4 = PRODUCT_DEFINITION_SHAPE('','',#5);
#5 = PRODUCT_DEFINITION('design','',#6,#9);
#6 = PRODUCT_DEFINITION_FORMATION('','',#7);
#7 = PRODUCT('Foot000','Foot000','',(#8));
#8 = PRODUCT_CONTEXT('',#2,'mechanical');
#9 = PRODUCT_DEFINITION_CONTEXT('part definition',#2,'design');
#10 = ADVANCED_BREP_SHAPE_REPRESENTATION('',(#11,#15),#786);
#11 = AXIS2_PLACEMENT_3D('',#12,#13,#14);
#12 = CARTESIAN_POINT('',(0.,0.,0.));
#13 = DIRECTION('',(0.,0.,1.));
#14 = DIRECTION('',(1.,0.,-0.));
#15 = MANIFOLD_SOLID_BREP('',#16);
#16 = CLOSED_SHELL('',(#17,#91,#147,#172,#197,#229,#278,#303,#328,#353,
    #370,#403,#436,#453,#519,#531,#556,#582,#633,#645,#670,#695,#712,
    #737,#762,#774));
#17 = ADVANCED_FACE('',(#18),#86,.T.);
#18 = FACE_BOUND('',#19,.T.);
#19 = EDGE_LOOP('',(#20,#30,#39,#47,#55,#63,#72,#80));
#20 = ORIENTED_EDGE('',*,*,#21,.T.);
#21 = EDGE_CURVE('',#22,#24,#26,.T.);
#22 = VERTEX_POINT('',#23);
#23 = CARTESIAN_POINT('',(-108.1079552649,-3.507578626736E-15,-65.));
#24 = VERTEX_POINT('',#25);
#25 = CARTESIAN_POINT('',(-10.,-7.771561172376E-15,-65.));
#26 = LINE('',#27,#28);
#27 = CARTESIAN_POINT('',(-114.5414760265,-1.443289932013E-14,-65.));
#28 = VECTOR('',#29,1.);
#29 = DIRECTION('',(1.,0.,0.));
#30 = ORIENTED_EDGE('',*,*,#31,.F.);
#31 = EDGE_CURVE('',#32,#24,#34,.T.);
#32 = VERTEX_POINT('',#33);
#33 = CARTESIAN_POINT('',(-5.,5.,-65.));
#34 = CIRCLE('',#35,5.);
#35 = AXIS2_PLACEMENT_3D('',#36,#37,#38);
#36 = CARTESIAN_POINT('',(-10.,5.,-65.));
#37 = DIRECTION('',(-2.22044604925E-16,-1.972152263053E-31,-1.));
#38 = DIRECTION('',(0.,-1.,1.972152263053E-31));
#39 = ORIENTED_EDGE('',*,*,#40,.F.);
#40 = EDGE_CURVE('',#41,#32,#43,.T.);
#41 = VERTEX_POINT('',#42);
#42 = CARTESIAN_POINT('',(-5.,103.10795526497,-65.));
#43 = LINE('',#44,#45);
#44 = CARTESIAN_POINT('',(-5.,109.5414760265,-65.));
#45 = VECTOR('',#46,1.);
#46 = DIRECTION('',(0.,-1.,1.972152263053E-31));
#47 = ORIENTED_EDGE('',*,*,#48,.F.);
#48 = EDGE_CURVE('',#49,#41,#51,.T.);
#49 = VERTEX_POINT('',#50);
#50 = CARTESIAN_POINT('',(-1.252295265223E-14,103.10795526497,-65.));
#51 = LINE('',#52,#53);
#52 = CARTESIAN_POINT('',(-1.607566633103E-14,103.10795526497,-65.));
#53 = VECTOR('',#54,1.);
#54 = DIRECTION('',(-1.,4.379057701015E-47,2.22044604925E-16));
#55 = ORIENTED_EDGE('',*,*,#56,.T.);
#56 = EDGE_CURVE('',#49,#57,#59,.T.);
#57 = VERTEX_POINT('',#58);
#58 = CARTESIAN_POINT('',(-6.661338147751E-15,-2.,-65.));
#59 = LINE('',#60,#61);
#60 = CARTESIAN_POINT('',(0.,-1.443289932013E-14,-65.));
#61 = VECTOR('',#62,1.);
#62 = DIRECTION('',(0.,-1.,2.22044604925E-16));
#63 = ORIENTED_EDGE('',*,*,#64,.F.);
#64 = EDGE_CURVE('',#65,#57,#67,.T.);
#65 = VERTEX_POINT('',#66);
#66 = CARTESIAN_POINT('',(-3.,-5.,-65.));
#67 = CIRCLE('',#68,3.);
#68 = AXIS2_PLACEMENT_3D('',#69,#70,#71);
#69 = CARTESIAN_POINT('',(-3.,-2.,-65.));
#70 = DIRECTION('',(-0.,2.22044604925E-16,1.));
#71 = DIRECTION('',(0.,-1.,2.22044604925E-16));
#72 = ORIENTED_EDGE('',*,*,#73,.F.);
#73 = EDGE_CURVE('',#74,#65,#76,.T.);
#74 = VERTEX_POINT('',#75);
#75 = CARTESIAN_POINT('',(-108.1079552649,-5.,-65.));
#76 = LINE('',#77,#78);
#77 = CARTESIAN_POINT('',(-114.5414760265,-5.,-65.));
#78 = VECTOR('',#79,1.);
#79 = DIRECTION('',(1.,0.,0.));
#80 = ORIENTED_EDGE('',*,*,#81,.F.);
#81 = EDGE_CURVE('',#22,#74,#82,.T.);
#82 = LINE('',#83,#84);
#83 = CARTESIAN_POINT('',(-108.1079552649,-1.771843334194E-14,-65.));
#84 = VECTOR('',#85,1.);
#85 = DIRECTION('',(0.,-1.,2.22044604925E-16));
#86 = PLANE('',#87);
#87 = AXIS2_PLACEMENT_3D('',#88,#89,#90);
#88 = CARTESIAN_POINT('',(-31.08080361934,26.080803619335,-65.));
#89 = DIRECTION('',(0.,2.22044604925E-16,-1.));
#90 = DIRECTION('',(0.,1.,2.22044604925E-16));
#91 = ADVANCED_FACE('',(#92),#142,.T.);
#92 = FACE_BOUND('',#93,.T.);
#93 = EDGE_LOOP('',(#94,#95,#104,#112,#120,#128,#136));
#94 = ORIENTED_EDGE('',*,*,#21,.F.);
#95 = ORIENTED_EDGE('',*,*,#96,.T.);
#96 = EDGE_CURVE('',#22,#97,#99,.T.);
#97 = VERTEX_POINT('',#98);
#98 = CARTESIAN_POINT('',(-110.4060885943,-1.333858294282E-14,
    -60.07163717094));
#99 = CIRCLE('',#100,3.);
#100 = AXIS2_PLACEMENT_3D('',#101,#102,#103);
#101 = CARTESIAN_POINT('',(-108.1079552649,-8.429780024775E-15,-62.));
#102 = DIRECTION('',(0.,1.,-2.22044604925E-16));
#103 = DIRECTION('',(0.,-2.22044604925E-16,-1.));
#104 = ORIENTED_EDGE('',*,*,#105,.F.);
#105 = EDGE_CURVE('',#106,#97,#108,.T.);
#106 = VERTEX_POINT('',#107);
#107 = CARTESIAN_POINT('',(-60.,3.970956463201E-34,2.917733644552E-16));
#108 = LINE('',#109,#110);
#109 = CARTESIAN_POINT('',(-60.,0.,0.));
#110 = VECTOR('',#111,1.);
#111 = DIRECTION('',(-0.642787609687,-1.700960357274E-16,-0.766044443119
    ));
#112 = ORIENTED_EDGE('',*,*,#113,.T.);
#113 = EDGE_CURVE('',#106,#114,#116,.T.);
#114 = VERTEX_POINT('',#115);
#115 = CARTESIAN_POINT('',(-60.,-7.88860905221E-31,-5.));
#116 = LINE('',#117,#118);
#117 = CARTESIAN_POINT('',(-60.,7.941912926403E-34,5.835467289104E-16));
#118 = VECTOR('',#119,1.);
#119 = DIRECTION('',(0.,-1.479114197289E-31,-1.));
#120 = ORIENTED_EDGE('',*,*,#121,.T.);
#121 = EDGE_CURVE('',#114,#122,#124,.T.);
#122 = VERTEX_POINT('',#123);
#123 = CARTESIAN_POINT('',(-60.,-7.549516567451E-15,-10.));
#124 = LINE('',#125,#126);
#125 = CARTESIAN_POINT('',(-60.,-7.767603691188E-15,-18.98217708919));
#126 = VECTOR('',#127,1.);
#127 = DIRECTION('',(0.,-2.465190328816E-31,-1.));
#128 = ORIENTED_EDGE('',*,*,#129,.T.);
#129 = EDGE_CURVE('',#122,#130,#132,.T.);
#130 = VERTEX_POINT('',#131);
#131 = CARTESIAN_POINT('',(-10.,-7.549516567451E-15,-10.));
#132 = LINE('',#133,#134);
#133 = CARTESIAN_POINT('',(-60.,-7.549516567451E-15,-10.));
#134 = VECTOR('',#135,1.);
#135 = DIRECTION('',(1.,0.,0.));
#136 = ORIENTED_EDGE('',*,*,#137,.F.);
#137 = EDGE_CURVE('',#24,#130,#138,.T.);
#138 = LINE('',#139,#140);
#139 = CARTESIAN_POINT('',(-10.,-7.771561172376E-15,-65.));
#140 = VECTOR('',#141,1.);
#141 = DIRECTION('',(2.22044604925E-16,1.972152263053E-31,1.));
#142 = PLANE('',#143);
#143 = AXIS2_PLACEMENT_3D('',#144,#145,#146);
#144 = CARTESIAN_POINT('',(-48.59823745828,-8.429780024775E-15,
    -37.96435417839));
#145 = DIRECTION('',(0.,1.,-2.465190328816E-31));
#146 = DIRECTION('',(0.,2.465190328816E-31,1.));
#147 = ADVANCED_FACE('',(#148),#167,.T.);
#148 = FACE_BOUND('',#149,.F.);
#149 = EDGE_LOOP('',(#150,#151,#159,#166));
#150 = ORIENTED_EDGE('',*,*,#96,.T.);
#151 = ORIENTED_EDGE('',*,*,#152,.T.);
#152 = EDGE_CURVE('',#97,#153,#155,.T.);
#153 = VERTEX_POINT('',#154);
#154 = CARTESIAN_POINT('',(-110.4060885943,-5.,-60.07163717094));
#155 = LINE('',#156,#157);
#156 = CARTESIAN_POINT('',(-110.4060885943,-1.662411696463E-14,
    -60.07163717094));
#157 = VECTOR('',#158,1.);
#158 = DIRECTION('',(0.,-1.,2.22044604925E-16));
#159 = ORIENTED_EDGE('',*,*,#160,.F.);
#160 = EDGE_CURVE('',#74,#153,#161,.T.);
#161 = CIRCLE('',#162,3.);
#162 = AXIS2_PLACEMENT_3D('',#163,#164,#165);
#163 = CARTESIAN_POINT('',(-108.1079552649,-5.,-62.));
#164 = DIRECTION('',(0.,1.,-2.22044604925E-16));
#165 = DIRECTION('',(0.,-2.22044604925E-16,-1.));
#166 = ORIENTED_EDGE('',*,*,#81,.F.);
#167 = CYLINDRICAL_SURFACE('',#168,3.);
#168 = AXIS2_PLACEMENT_3D('',#169,#170,#171);
#169 = CARTESIAN_POINT('',(-108.1079552649,-1.705229952716E-14,-62.));
#170 = DIRECTION('',(0.,-1.,2.22044604925E-16));
#171 = DIRECTION('',(0.,-2.22044604925E-16,-1.));
#172 = ADVANCED_FACE('',(#173),#192,.F.);
#173 = FACE_BOUND('',#174,.T.);
#174 = EDGE_LOOP('',(#175,#176,#177,#186));
#175 = ORIENTED_EDGE('',*,*,#31,.T.);
#176 = ORIENTED_EDGE('',*,*,#137,.T.);
#177 = ORIENTED_EDGE('',*,*,#178,.F.);
#178 = EDGE_CURVE('',#179,#130,#181,.T.);
#179 = VERTEX_POINT('',#180);
#180 = CARTESIAN_POINT('',(-5.,5.,-10.));
#181 = CIRCLE('',#182,5.);
#182 = AXIS2_PLACEMENT_3D('',#183,#184,#185);
#183 = CARTESIAN_POINT('',(-10.,5.,-10.));
#184 = DIRECTION('',(0.,4.068797311648E-15,-1.));
#185 = DIRECTION('',(0.,-1.,-4.068797311648E-15));
#186 = ORIENTED_EDGE('',*,*,#187,.F.);
#187 = EDGE_CURVE('',#32,#179,#188,.T.);
#188 = LINE('',#189,#190);
#189 = CARTESIAN_POINT('',(-5.,5.,-65.));
#190 = VECTOR('',#191,1.);
#191 = DIRECTION('',(2.22044604925E-16,1.972152263053E-31,1.));
#192 = CYLINDRICAL_SURFACE('',#193,5.);
#193 = AXIS2_PLACEMENT_3D('',#194,#195,#196);
#194 = CARTESIAN_POINT('',(-10.,5.,-65.));
#195 = DIRECTION('',(2.22044604925E-16,1.972152263053E-31,1.));
#196 = DIRECTION('',(1.,-4.379057701015E-47,-2.22044604925E-16));
#197 = ADVANCED_FACE('',(#198),#224,.F.);
#198 = FACE_BOUND('',#199,.F.);
#199 = EDGE_LOOP('',(#200,#210,#216,#217,#218));
#200 = ORIENTED_EDGE('',*,*,#201,.F.);
#201 = EDGE_CURVE('',#202,#204,#206,.T.);
#202 = VERTEX_POINT('',#203);
#203 = CARTESIAN_POINT('',(-3.,-5.,-2.953193245503E-14));
#204 = VERTEX_POINT('',#205);
#205 = CARTESIAN_POINT('',(-60.,-5.,1.110223024625E-15));
#206 = LINE('',#207,#208);
#207 = CARTESIAN_POINT('',(0.,-5.,1.7763568394E-15));
#208 = VECTOR('',#209,1.);
#209 = DIRECTION('',(-1.,0.,0.));
#210 = ORIENTED_EDGE('',*,*,#211,.F.);
#211 = EDGE_CURVE('',#65,#202,#212,.T.);
#212 = LINE('',#213,#214);
#213 = CARTESIAN_POINT('',(-3.,-5.,-65.));
#214 = VECTOR('',#215,1.);
#215 = DIRECTION('',(0.,2.22044604925E-16,1.));
#216 = ORIENTED_EDGE('',*,*,#73,.F.);
#217 = ORIENTED_EDGE('',*,*,#160,.T.);
#218 = ORIENTED_EDGE('',*,*,#219,.F.);
#219 = EDGE_CURVE('',#204,#153,#220,.T.);
#220 = LINE('',#221,#222);
#221 = CARTESIAN_POINT('',(-60.,-5.,1.7763568394E-15));
#222 = VECTOR('',#223,1.);
#223 = DIRECTION('',(-0.642787609687,-1.700960357274E-16,-0.766044443119
    ));
#224 = PLANE('',#225);
#225 = AXIS2_PLACEMENT_3D('',#226,#227,#228);
#226 = CARTESIAN_POINT('',(-48.59823745828,-5.,-37.96435417839));
#227 = DIRECTION('',(0.,1.,-2.465190328816E-31));
#228 = DIRECTION('',(0.,2.465190328816E-31,1.));
#229 = ADVANCED_FACE('',(#230),#273,.F.);
#230 = FACE_BOUND('',#231,.F.);
#231 = EDGE_LOOP('',(#232,#233,#242,#250,#258,#266,#272));
#232 = ORIENTED_EDGE('',*,*,#40,.F.);
#233 = ORIENTED_EDGE('',*,*,#234,.T.);
#234 = EDGE_CURVE('',#41,#235,#237,.T.);
#235 = VERTEX_POINT('',#236);
#236 = CARTESIAN_POINT('',(-5.,105.40608859433,-60.07163717094));
#237 = CIRCLE('',#238,3.);
#238 = AXIS2_PLACEMENT_3D('',#239,#240,#241);
#239 = CARTESIAN_POINT('',(-5.,103.10795526497,-62.));
#240 = DIRECTION('',(1.,-4.379057701015E-47,-2.22044604925E-16));
#241 = DIRECTION('',(-2.22044604925E-16,2.22044604925E-16,-1.));
#242 = ORIENTED_EDGE('',*,*,#243,.F.);
#243 = EDGE_CURVE('',#244,#235,#246,.T.);
#244 = VERTEX_POINT('',#245);
#245 = CARTESIAN_POINT('',(-5.,55.,8.468848767677E-16));
#246 = LINE('',#247,#248);
#247 = CARTESIAN_POINT('',(-5.,55.,1.110223024625E-15));
#248 = VECTOR('',#249,1.);
#249 = DIRECTION('',(-1.700960357274E-16,0.642787609686,-0.766044443119)
  );
#250 = ORIENTED_EDGE('',*,*,#251,.T.);
#251 = EDGE_CURVE('',#244,#252,#254,.T.);
#252 = VERTEX_POINT('',#253);
#253 = CARTESIAN_POINT('',(-5.,55.,-5.));
#254 = LINE('',#255,#256);
#255 = CARTESIAN_POINT('',(-5.,55.,5.835467289103E-16));
#256 = VECTOR('',#257,1.);
#257 = DIRECTION('',(0.,-1.479114197289E-31,-1.));
#258 = ORIENTED_EDGE('',*,*,#259,.T.);
#259 = EDGE_CURVE('',#252,#260,#262,.T.);
#260 = VERTEX_POINT('',#261);
#261 = CARTESIAN_POINT('',(-5.,55.,-10.));
#262 = LINE('',#263,#264);
#263 = CARTESIAN_POINT('',(-5.,55.,-19.06908034484));
#264 = VECTOR('',#265,1.);
#265 = DIRECTION('',(0.,-1.479114197289E-31,-1.));
#266 = ORIENTED_EDGE('',*,*,#267,.F.);
#267 = EDGE_CURVE('',#179,#260,#268,.T.);
#268 = LINE('',#269,#270);
#269 = CARTESIAN_POINT('',(-5.,1.110223024625E-15,-10.));
#270 = VECTOR('',#271,1.);
#271 = DIRECTION('',(0.,1.,-1.479114197289E-31));
#272 = ORIENTED_EDGE('',*,*,#187,.F.);
#273 = PLANE('',#274);
#274 = AXIS2_PLACEMENT_3D('',#275,#276,#277);
#275 = CARTESIAN_POINT('',(-5.,46.098237458272,-38.13816068968));
#276 = DIRECTION('',(1.,0.,0.));
#277 = DIRECTION('',(0.,1.972152263053E-31,1.));
#278 = ADVANCED_FACE('',(#279),#298,.T.);
#279 = FACE_BOUND('',#280,.T.);
#280 = EDGE_LOOP('',(#281,#282,#290,#297));
#281 = ORIENTED_EDGE('',*,*,#64,.T.);
#282 = ORIENTED_EDGE('',*,*,#283,.T.);
#283 = EDGE_CURVE('',#57,#284,#286,.T.);
#284 = VERTEX_POINT('',#285);
#285 = CARTESIAN_POINT('',(-6.661338147751E-15,-2.,-1.465494392505E-14)
  );
#286 = LINE('',#287,#288);
#287 = CARTESIAN_POINT('',(-6.661338147751E-15,-2.,-65.));
#288 = VECTOR('',#289,1.);
#289 = DIRECTION('',(0.,2.22044604925E-16,1.));
#290 = ORIENTED_EDGE('',*,*,#291,.F.);
#291 = EDGE_CURVE('',#202,#284,#292,.T.);
#292 = CIRCLE('',#293,3.);
#293 = AXIS2_PLACEMENT_3D('',#294,#295,#296);
#294 = CARTESIAN_POINT('',(-3.,-2.,-4.440892098501E-16));
#295 = DIRECTION('',(-0.,2.22044604925E-16,1.));
#296 = DIRECTION('',(0.,-1.,2.22044604925E-16));
#297 = ORIENTED_EDGE('',*,*,#211,.F.);
#298 = CYLINDRICAL_SURFACE('',#299,3.);
#299 = AXIS2_PLACEMENT_3D('',#300,#301,#302);
#300 = CARTESIAN_POINT('',(-3.,-2.,-65.));
#301 = DIRECTION('',(0.,2.22044604925E-16,1.));
#302 = DIRECTION('',(0.,-1.,2.22044604925E-16));
#303 = ADVANCED_FACE('',(#304),#323,.T.);
#304 = FACE_BOUND('',#305,.F.);
#305 = EDGE_LOOP('',(#306,#315,#321,#322));
#306 = ORIENTED_EDGE('',*,*,#307,.T.);
#307 = EDGE_CURVE('',#49,#308,#310,.T.);
#308 = VERTEX_POINT('',#309);
#309 = CARTESIAN_POINT('',(-1.333858294282E-14,105.40608859433,
    -60.07163717094));
#310 = CIRCLE('',#311,3.);
#311 = AXIS2_PLACEMENT_3D('',#312,#313,#314);
#312 = CARTESIAN_POINT('',(-6.761329077295E-15,103.10795526497,-62.));
#313 = DIRECTION('',(1.,-4.379057701015E-47,-2.22044604925E-16));
#314 = DIRECTION('',(-2.22044604925E-16,2.22044604925E-16,-1.));
#315 = ORIENTED_EDGE('',*,*,#316,.T.);
#316 = EDGE_CURVE('',#308,#235,#317,.T.);
#317 = LINE('',#318,#319);
#318 = CARTESIAN_POINT('',(-1.498134995373E-14,105.40608859433,
    -60.07163717094));
#319 = VECTOR('',#320,1.);
#320 = DIRECTION('',(-1.,4.379057701015E-47,2.22044604925E-16));
#321 = ORIENTED_EDGE('',*,*,#234,.F.);
#322 = ORIENTED_EDGE('',*,*,#48,.F.);
#323 = CYLINDRICAL_SURFACE('',#324,3.);
#324 = AXIS2_PLACEMENT_3D('',#325,#326,#327);
#325 = CARTESIAN_POINT('',(-1.540953251626E-14,103.10795526497,-62.));
#326 = DIRECTION('',(-1.,4.379057701015E-47,2.22044604925E-16));
#327 = DIRECTION('',(-2.22044604925E-16,2.22044604925E-16,-1.));
#328 = ADVANCED_FACE('',(#329),#348,.T.);
#329 = FACE_BOUND('',#330,.T.);
#330 = EDGE_LOOP('',(#331,#332,#333,#341,#347));
#331 = ORIENTED_EDGE('',*,*,#56,.F.);
#332 = ORIENTED_EDGE('',*,*,#307,.T.);
#333 = ORIENTED_EDGE('',*,*,#334,.F.);
#334 = EDGE_CURVE('',#335,#308,#337,.T.);
#335 = VERTEX_POINT('',#336);
#336 = CARTESIAN_POINT('',(0.,55.,-1.104405267309E-29));
#337 = LINE('',#338,#339);
#338 = CARTESIAN_POINT('',(0.,55.,-1.104405267309E-29));
#339 = VECTOR('',#340,1.);
#340 = DIRECTION('',(-1.700960357274E-16,0.642787609686,-0.766044443119)
  );
#341 = ORIENTED_EDGE('',*,*,#342,.T.);
#342 = EDGE_CURVE('',#335,#284,#343,.T.);
#343 = LINE('',#344,#345);
#344 = CARTESIAN_POINT('',(0.,0.,0.));
#345 = VECTOR('',#346,1.);
#346 = DIRECTION('',(0.,-1.,2.22044604925E-16));
#347 = ORIENTED_EDGE('',*,*,#283,.F.);
#348 = PLANE('',#349);
#349 = AXIS2_PLACEMENT_3D('',#350,#351,#352);
#350 = CARTESIAN_POINT('',(-6.761329077295E-15,43.598237458272,
    -37.96435417839));
#351 = DIRECTION('',(1.,0.,0.));
#352 = DIRECTION('',(0.,-1.,-2.22044604925E-16));
#353 = ADVANCED_FACE('',(#354),#365,.F.);
#354 = FACE_BOUND('',#355,.F.);
#355 = EDGE_LOOP('',(#356,#357,#363,#364));
#356 = ORIENTED_EDGE('',*,*,#105,.F.);
#357 = ORIENTED_EDGE('',*,*,#358,.T.);
#358 = EDGE_CURVE('',#106,#204,#359,.T.);
#359 = LINE('',#360,#361);
#360 = CARTESIAN_POINT('',(-60.,0.,0.));
#361 = VECTOR('',#362,1.);
#362 = DIRECTION('',(0.,-1.,2.22044604925E-16));
#363 = ORIENTED_EDGE('',*,*,#219,.T.);
#364 = ORIENTED_EDGE('',*,*,#152,.F.);
#365 = PLANE('',#366);
#366 = AXIS2_PLACEMENT_3D('',#367,#368,#369);
#367 = CARTESIAN_POINT('',(-60.,0.,0.));
#368 = DIRECTION('',(0.766044443119,-1.427275208436E-16,-0.642787609687)
  );
#369 = DIRECTION('',(-0.642787609687,-1.700960357274E-16,-0.766044443119
    ));
#370 = ADVANCED_FACE('',(#371),#398,.F.);
#371 = FACE_BOUND('',#372,.T.);
#372 = EDGE_LOOP('',(#373,#382,#390,#397));
#373 = ORIENTED_EDGE('',*,*,#374,.T.);
#374 = EDGE_CURVE('',#122,#375,#377,.T.);
#375 = VERTEX_POINT('',#376);
#376 = CARTESIAN_POINT('',(-60.,5.,-5.));
#377 = CIRCLE('',#378,5.);
#378 = AXIS2_PLACEMENT_3D('',#379,#380,#381);
#379 = CARTESIAN_POINT('',(-60.,5.,-10.));
#380 = DIRECTION('',(-1.,-0.,0.));
#381 = DIRECTION('',(0.,-1.,-2.22044604925E-16));
#382 = ORIENTED_EDGE('',*,*,#383,.T.);
#383 = EDGE_CURVE('',#375,#384,#386,.T.);
#384 = VERTEX_POINT('',#385);
#385 = CARTESIAN_POINT('',(-10.,5.,-5.));
#386 = LINE('',#387,#388);
#387 = CARTESIAN_POINT('',(-60.,5.,-5.));
#388 = VECTOR('',#389,1.);
#389 = DIRECTION('',(1.,0.,0.));
#390 = ORIENTED_EDGE('',*,*,#391,.T.);
#391 = EDGE_CURVE('',#384,#130,#392,.T.);
#392 = CIRCLE('',#393,5.);
#393 = AXIS2_PLACEMENT_3D('',#394,#395,#396);
#394 = CARTESIAN_POINT('',(-10.,5.,-10.));
#395 = DIRECTION('',(1.,0.,0.));
#396 = DIRECTION('',(0.,-5.773159728051E-16,1.));
#397 = ORIENTED_EDGE('',*,*,#129,.F.);
#398 = CYLINDRICAL_SURFACE('',#399,5.);
#399 = AXIS2_PLACEMENT_3D('',#400,#401,#402);
#400 = CARTESIAN_POINT('',(-60.,5.,-10.));
#401 = DIRECTION('',(1.,0.,0.));
#402 = DIRECTION('',(0.,-1.,2.465190328816E-31));
#403 = ADVANCED_FACE('',(#404),#431,.T.);
#404 = FACE_BOUND('',#405,.T.);
#405 = EDGE_LOOP('',(#406,#414,#415,#416,#417,#425));
#406 = ORIENTED_EDGE('',*,*,#407,.T.);
#407 = EDGE_CURVE('',#408,#375,#410,.T.);
#408 = VERTEX_POINT('',#409);
#409 = CARTESIAN_POINT('',(-60.,20.000000000001,-5.));
#410 = LINE('',#411,#412);
#411 = CARTESIAN_POINT('',(-60.,20.000000000001,-5.));
#412 = VECTOR('',#413,1.);
#413 = DIRECTION('',(-0.,-1.,1.479114197289E-31));
#414 = ORIENTED_EDGE('',*,*,#374,.F.);
#415 = ORIENTED_EDGE('',*,*,#121,.F.);
#416 = ORIENTED_EDGE('',*,*,#113,.F.);
#417 = ORIENTED_EDGE('',*,*,#418,.F.);
#418 = EDGE_CURVE('',#419,#106,#421,.T.);
#419 = VERTEX_POINT('',#420);
#420 = CARTESIAN_POINT('',(-60.,20.000000000001,5.835467289103E-16));
#421 = LINE('',#422,#423);
#422 = CARTESIAN_POINT('',(-60.,20.000000000001,5.835467289103E-16));
#423 = VECTOR('',#424,1.);
#424 = DIRECTION('',(-0.,-1.,1.479114197289E-31));
#425 = ORIENTED_EDGE('',*,*,#426,.T.);
#426 = EDGE_CURVE('',#419,#408,#427,.T.);
#427 = LINE('',#428,#429);
#428 = CARTESIAN_POINT('',(-60.,20.000000000001,5.835467289103E-16));
#429 = VECTOR('',#430,1.);
#430 = DIRECTION('',(0.,-1.479114197289E-31,-1.));
#431 = PLANE('',#432);
#432 = AXIS2_PLACEMENT_3D('',#433,#434,#435);
#433 = CARTESIAN_POINT('',(-60.,20.000000000001,5.835467289103E-16));
#434 = DIRECTION('',(-1.,0.,0.));
#435 = DIRECTION('',(0.,-1.,1.479114197289E-31));
#436 = ADVANCED_FACE('',(#437),#448,.F.);
#437 = FACE_BOUND('',#438,.T.);
#438 = EDGE_LOOP('',(#439,#446,#447));
#439 = ORIENTED_EDGE('',*,*,#440,.F.);
#440 = EDGE_CURVE('',#179,#384,#441,.T.);
#441 = CIRCLE('',#442,5.);
#442 = AXIS2_PLACEMENT_3D('',#443,#444,#445);
#443 = CARTESIAN_POINT('',(-10.,5.,-10.));
#444 = DIRECTION('',(-0.,-1.,-5.773159728051E-16));
#445 = DIRECTION('',(0.,-5.773159728051E-16,1.));
#446 = ORIENTED_EDGE('',*,*,#178,.T.);
#447 = ORIENTED_EDGE('',*,*,#391,.F.);
#448 = SPHERICAL_SURFACE('',#449,5.);
#449 = AXIS2_PLACEMENT_3D('',#450,#451,#452);
#450 = CARTESIAN_POINT('',(-10.,5.,-10.));
#451 = DIRECTION('',(-1.,0.,0.));
#452 = DIRECTION('',(0.,-5.773159728051E-16,1.));
#453 = ADVANCED_FACE('',(#454,#481,#492,#503),#514,.T.);
#454 = FACE_BOUND('',#455,.T.);
#455 = EDGE_LOOP('',(#456,#457,#463,#471,#477,#478,#479,#480));
#456 = ORIENTED_EDGE('',*,*,#342,.F.);
#457 = ORIENTED_EDGE('',*,*,#458,.T.);
#458 = EDGE_CURVE('',#335,#244,#459,.T.);
#459 = LINE('',#460,#461);
#460 = CARTESIAN_POINT('',(0.,55.,-1.129057170598E-29));
#461 = VECTOR('',#462,1.);
#462 = DIRECTION('',(-1.,4.379057701015E-47,2.22044604925E-16));
#463 = ORIENTED_EDGE('',*,*,#464,.T.);
#464 = EDGE_CURVE('',#244,#465,#467,.T.);
#465 = VERTEX_POINT('',#466);
#466 = CARTESIAN_POINT('',(-25.,55.,5.835467289103E-16));
#467 = LINE('',#468,#469);
#468 = CARTESIAN_POINT('',(-5.,55.,5.835467289103E-16));
#469 = VECTOR('',#470,1.);
#470 = DIRECTION('',(-1.,0.,0.));
#471 = ORIENTED_EDGE('',*,*,#472,.T.);
#472 = EDGE_CURVE('',#465,#419,#473,.T.);
#473 = LINE('',#474,#475);
#474 = CARTESIAN_POINT('',(-25.,55.,5.835467289103E-16));
#475 = VECTOR('',#476,1.);
#476 = DIRECTION('',(-0.707106781187,-0.707106781187,9.860761315263E-32)
  );
#477 = ORIENTED_EDGE('',*,*,#418,.T.);
#478 = ORIENTED_EDGE('',*,*,#358,.T.);
#479 = ORIENTED_EDGE('',*,*,#201,.F.);
#480 = ORIENTED_EDGE('',*,*,#291,.T.);
#481 = FACE_BOUND('',#482,.T.);
#482 = EDGE_LOOP('',(#483));
#483 = ORIENTED_EDGE('',*,*,#484,.F.);
#484 = EDGE_CURVE('',#485,#485,#487,.T.);
#485 = VERTEX_POINT('',#486);
#486 = CARTESIAN_POINT('',(-51.6,10.,-1.183291357832E-30));
#487 = CIRCLE('',#488,1.6);
#488 = AXIS2_PLACEMENT_3D('',#489,#490,#491);
#489 = CARTESIAN_POINT('',(-50.,10.,-2.22044604925E-16));
#490 = DIRECTION('',(0.,9.860761315263E-32,1.));
#491 = DIRECTION('',(-1.,0.,0.));
#492 = FACE_BOUND('',#493,.T.);
#493 = EDGE_LOOP('',(#494));
#494 = ORIENTED_EDGE('',*,*,#495,.F.);
#495 = EDGE_CURVE('',#496,#496,#498,.T.);
#496 = VERTEX_POINT('',#497);
#497 = CARTESIAN_POINT('',(-16.6,45.,-2.886579864025E-15));
#498 = CIRCLE('',#499,1.6);
#499 = AXIS2_PLACEMENT_3D('',#500,#501,#502);
#500 = CARTESIAN_POINT('',(-15.,45.,-2.886579864025E-15));
#501 = DIRECTION('',(0.,9.860761315263E-32,1.));
#502 = DIRECTION('',(-1.,0.,0.));
#503 = FACE_BOUND('',#504,.T.);
#504 = EDGE_LOOP('',(#505));
#505 = ORIENTED_EDGE('',*,*,#506,.T.);
#506 = EDGE_CURVE('',#507,#507,#509,.T.);
#507 = VERTEX_POINT('',#508);
#508 = CARTESIAN_POINT('',(-13.,10.,-4.440892098501E-16));
#509 = CIRCLE('',#510,2.);
#510 = AXIS2_PLACEMENT_3D('',#511,#512,#513);
#511 = CARTESIAN_POINT('',(-15.,10.,4.440892098501E-16));
#512 = DIRECTION('',(0.,-4.930380657631E-32,-1.));
#513 = DIRECTION('',(1.,0.,0.));
#514 = PLANE('',#515);
#515 = AXIS2_PLACEMENT_3D('',#516,#517,#518);
#516 = CARTESIAN_POINT('',(-26.04195188251,21.041951882516,
    -9.507009248794E-16));
#517 = DIRECTION('',(0.,7.930717399049E-17,1.));
#518 = DIRECTION('',(0.,-1.,7.930717399049E-17));
#519 = ADVANCED_FACE('',(#520),#526,.F.);
#520 = FACE_BOUND('',#521,.F.);
#521 = EDGE_LOOP('',(#522,#523,#524,#525));
#522 = ORIENTED_EDGE('',*,*,#334,.F.);
#523 = ORIENTED_EDGE('',*,*,#458,.T.);
#524 = ORIENTED_EDGE('',*,*,#243,.T.);
#525 = ORIENTED_EDGE('',*,*,#316,.F.);
#526 = PLANE('',#527);
#527 = AXIS2_PLACEMENT_3D('',#528,#529,#530);
#528 = CARTESIAN_POINT('',(0.,55.,-1.129057170598E-29));
#529 = DIRECTION('',(-1.427275208435E-16,-0.766044443119,-0.642787609686
    ));
#530 = DIRECTION('',(-1.700960357274E-16,0.642787609686,-0.766044443119)
  );
#531 = ADVANCED_FACE('',(#532),#551,.F.);
#532 = FACE_BOUND('',#533,.T.);
#533 = EDGE_LOOP('',(#534,#535,#543,#550));
#534 = ORIENTED_EDGE('',*,*,#440,.T.);
#535 = ORIENTED_EDGE('',*,*,#536,.T.);
#536 = EDGE_CURVE('',#384,#537,#539,.T.);
#537 = VERTEX_POINT('',#538);
#538 = CARTESIAN_POINT('',(-10.,55.,-5.));
#539 = LINE('',#540,#541);
#540 = CARTESIAN_POINT('',(-10.,1.110223024625E-15,-5.));
#541 = VECTOR('',#542,1.);
#542 = DIRECTION('',(0.,1.,-1.479114197289E-31));
#543 = ORIENTED_EDGE('',*,*,#544,.F.);
#544 = EDGE_CURVE('',#260,#537,#545,.T.);
#545 = CIRCLE('',#546,5.);
#546 = AXIS2_PLACEMENT_3D('',#547,#548,#549);
#547 = CARTESIAN_POINT('',(-10.,55.,-10.));
#548 = DIRECTION('',(0.,-1.,1.479114197289E-31));
#549 = DIRECTION('',(0.,1.479114197289E-31,1.));
#550 = ORIENTED_EDGE('',*,*,#267,.F.);
#551 = CYLINDRICAL_SURFACE('',#552,5.);
#552 = AXIS2_PLACEMENT_3D('',#553,#554,#555);
#553 = CARTESIAN_POINT('',(-10.,1.110223024625E-15,-10.));
#554 = DIRECTION('',(0.,1.,-1.479114197289E-31));
#555 = DIRECTION('',(1.,0.,0.));
#556 = ADVANCED_FACE('',(#557),#577,.T.);
#557 = FACE_BOUND('',#558,.T.);
#558 = EDGE_LOOP('',(#559,#567,#573,#574,#575,#576));
#559 = ORIENTED_EDGE('',*,*,#560,.T.);
#560 = EDGE_CURVE('',#537,#561,#563,.T.);
#561 = VERTEX_POINT('',#562);
#562 = CARTESIAN_POINT('',(-25.,55.,-5.));
#563 = LINE('',#564,#565);
#564 = CARTESIAN_POINT('',(-5.,55.,-5.));
#565 = VECTOR('',#566,1.);
#566 = DIRECTION('',(-1.,0.,0.));
#567 = ORIENTED_EDGE('',*,*,#568,.F.);
#568 = EDGE_CURVE('',#465,#561,#569,.T.);
#569 = LINE('',#570,#571);
#570 = CARTESIAN_POINT('',(-25.,55.,5.835467289103E-16));
#571 = VECTOR('',#572,1.);
#572 = DIRECTION('',(0.,-1.479114197289E-31,-1.));
#573 = ORIENTED_EDGE('',*,*,#464,.F.);
#574 = ORIENTED_EDGE('',*,*,#251,.T.);
#575 = ORIENTED_EDGE('',*,*,#259,.T.);
#576 = ORIENTED_EDGE('',*,*,#544,.T.);
#577 = PLANE('',#578);
#578 = AXIS2_PLACEMENT_3D('',#579,#580,#581);
#579 = CARTESIAN_POINT('',(-5.,55.,5.835467289103E-16));
#580 = DIRECTION('',(0.,1.,-1.479114197289E-31));
#581 = DIRECTION('',(-1.,0.,0.));
#582 = ADVANCED_FACE('',(#583,#595,#606,#617),#628,.F.);
#583 = FACE_BOUND('',#584,.F.);
#584 = EDGE_LOOP('',(#585,#586,#592,#593,#594));
#585 = ORIENTED_EDGE('',*,*,#560,.T.);
#586 = ORIENTED_EDGE('',*,*,#587,.T.);
#587 = EDGE_CURVE('',#561,#408,#588,.T.);
#588 = LINE('',#589,#590);
#589 = CARTESIAN_POINT('',(-25.,55.,-5.));
#590 = VECTOR('',#591,1.);
#591 = DIRECTION('',(-0.707106781187,-0.707106781187,9.860761315263E-32)
  );
#592 = ORIENTED_EDGE('',*,*,#407,.T.);
#593 = ORIENTED_EDGE('',*,*,#383,.T.);
#594 = ORIENTED_EDGE('',*,*,#536,.T.);
#595 = FACE_BOUND('',#596,.F.);
#596 = EDGE_LOOP('',(#597));
#597 = ORIENTED_EDGE('',*,*,#598,.T.);
#598 = EDGE_CURVE('',#599,#599,#601,.T.);
#599 = VERTEX_POINT('',#600);
#600 = CARTESIAN_POINT('',(-53.05,10.,-5.));
#601 = CIRCLE('',#602,3.05);
#602 = AXIS2_PLACEMENT_3D('',#603,#604,#605);
#603 = CARTESIAN_POINT('',(-50.,10.,-5.));
#604 = DIRECTION('',(-0.,-9.860761315263E-32,-1.));
#605 = DIRECTION('',(-1.,0.,0.));
#606 = FACE_BOUND('',#607,.F.);
#607 = EDGE_LOOP('',(#608));
#608 = ORIENTED_EDGE('',*,*,#609,.T.);
#609 = EDGE_CURVE('',#610,#610,#612,.T.);
#610 = VERTEX_POINT('',#611);
#611 = CARTESIAN_POINT('',(-13.,10.,-5.));
#612 = CIRCLE('',#613,2.);
#613 = AXIS2_PLACEMENT_3D('',#614,#615,#616);
#614 = CARTESIAN_POINT('',(-15.,10.,-5.));
#615 = DIRECTION('',(0.,-4.930380657631E-32,-1.));
#616 = DIRECTION('',(1.,0.,0.));
#617 = FACE_BOUND('',#618,.F.);
#618 = EDGE_LOOP('',(#619));
#619 = ORIENTED_EDGE('',*,*,#620,.T.);
#620 = EDGE_CURVE('',#621,#621,#623,.T.);
#621 = VERTEX_POINT('',#622);
#622 = CARTESIAN_POINT('',(-18.05,45.,-5.));
#623 = CIRCLE('',#624,3.05);
#624 = AXIS2_PLACEMENT_3D('',#625,#626,#627);
#625 = CARTESIAN_POINT('',(-15.,45.,-5.));
#626 = DIRECTION('',(-0.,-9.860761315263E-32,-1.));
#627 = DIRECTION('',(-1.,0.,0.));
#628 = PLANE('',#629);
#629 = AXIS2_PLACEMENT_3D('',#630,#631,#632);
#630 = CARTESIAN_POINT('',(-28.40207718434,23.402077184344,-5.));
#631 = DIRECTION('',(0.,1.479114197289E-31,1.));
#632 = DIRECTION('',(1.,0.,0.));
#633 = ADVANCED_FACE('',(#634),#640,.T.);
#634 = FACE_BOUND('',#635,.T.);
#635 = EDGE_LOOP('',(#636,#637,#638,#639));
#636 = ORIENTED_EDGE('',*,*,#568,.T.);
#637 = ORIENTED_EDGE('',*,*,#587,.T.);
#638 = ORIENTED_EDGE('',*,*,#426,.F.);
#639 = ORIENTED_EDGE('',*,*,#472,.F.);
#640 = PLANE('',#641);
#641 = AXIS2_PLACEMENT_3D('',#642,#643,#644);
#642 = CARTESIAN_POINT('',(-25.,55.,5.835467289103E-16));
#643 = DIRECTION('',(-0.707106781187,0.707106781187,-9.4378015225E-32));
#644 = DIRECTION('',(-0.707106781187,-0.707106781187,9.4378015225E-32));
#645 = ADVANCED_FACE('',(#646),#665,.F.);
#646 = FACE_BOUND('',#647,.T.);
#647 = EDGE_LOOP('',(#648,#656,#663,#664));
#648 = ORIENTED_EDGE('',*,*,#649,.F.);
#649 = EDGE_CURVE('',#650,#485,#652,.T.);
#650 = VERTEX_POINT('',#651);
#651 = CARTESIAN_POINT('',(-51.6,10.,-2.));
#652 = LINE('',#653,#654);
#653 = CARTESIAN_POINT('',(-51.6,10.,-2.));
#654 = VECTOR('',#655,1.);
#655 = DIRECTION('',(6.097814948773E-17,9.860761315263E-32,1.));
#656 = ORIENTED_EDGE('',*,*,#657,.T.);
#657 = EDGE_CURVE('',#650,#650,#658,.T.);
#658 = CIRCLE('',#659,1.6);
#659 = AXIS2_PLACEMENT_3D('',#660,#661,#662);
#660 = CARTESIAN_POINT('',(-50.,10.,-2.));
#661 = DIRECTION('',(-0.,-9.860761315263E-32,-1.));
#662 = DIRECTION('',(-1.,0.,0.));
#663 = ORIENTED_EDGE('',*,*,#649,.T.);
#664 = ORIENTED_EDGE('',*,*,#484,.T.);
#665 = CYLINDRICAL_SURFACE('',#666,1.6);
#666 = AXIS2_PLACEMENT_3D('',#667,#668,#669);
#667 = CARTESIAN_POINT('',(-50.,10.,-2.));
#668 = DIRECTION('',(0.,9.860761315263E-32,1.));
#669 = DIRECTION('',(-1.,0.,0.));
#670 = ADVANCED_FACE('',(#671),#690,.F.);
#671 = FACE_BOUND('',#672,.T.);
#672 = EDGE_LOOP('',(#673,#681,#688,#689));
#673 = ORIENTED_EDGE('',*,*,#674,.F.);
#674 = EDGE_CURVE('',#675,#496,#677,.T.);
#675 = VERTEX_POINT('',#676);
#676 = CARTESIAN_POINT('',(-16.6,45.,-2.));
#677 = LINE('',#678,#679);
#678 = CARTESIAN_POINT('',(-16.6,45.,-2.));
#679 = VECTOR('',#680,1.);
#680 = DIRECTION('',(6.097814948773E-17,9.860761315263E-32,1.));
#681 = ORIENTED_EDGE('',*,*,#682,.T.);
#682 = EDGE_CURVE('',#675,#675,#683,.T.);
#683 = CIRCLE('',#684,1.6);
#684 = AXIS2_PLACEMENT_3D('',#685,#686,#687);
#685 = CARTESIAN_POINT('',(-15.,45.,-2.));
#686 = DIRECTION('',(-0.,-9.860761315263E-32,-1.));
#687 = DIRECTION('',(-1.,0.,0.));
#688 = ORIENTED_EDGE('',*,*,#674,.T.);
#689 = ORIENTED_EDGE('',*,*,#495,.T.);
#690 = CYLINDRICAL_SURFACE('',#691,1.6);
#691 = AXIS2_PLACEMENT_3D('',#692,#693,#694);
#692 = CARTESIAN_POINT('',(-15.,45.,-2.));
#693 = DIRECTION('',(0.,9.860761315263E-32,1.));
#694 = DIRECTION('',(-1.,0.,0.));
#695 = ADVANCED_FACE('',(#696),#707,.F.);
#696 = FACE_BOUND('',#697,.F.);
#697 = EDGE_LOOP('',(#698,#699,#705,#706));
#698 = ORIENTED_EDGE('',*,*,#609,.F.);
#699 = ORIENTED_EDGE('',*,*,#700,.T.);
#700 = EDGE_CURVE('',#610,#507,#701,.T.);
#701 = LINE('',#702,#703);
#702 = CARTESIAN_POINT('',(-13.,10.,-5.));
#703 = VECTOR('',#704,1.);
#704 = DIRECTION('',(0.,4.930380657631E-32,1.));
#705 = ORIENTED_EDGE('',*,*,#506,.T.);
#706 = ORIENTED_EDGE('',*,*,#700,.F.);
#707 = CYLINDRICAL_SURFACE('',#708,2.);
#708 = AXIS2_PLACEMENT_3D('',#709,#710,#711);
#709 = CARTESIAN_POINT('',(-15.,10.,-5.));
#710 = DIRECTION('',(0.,-4.930380657631E-32,-1.));
#711 = DIRECTION('',(1.,0.,0.));
#712 = ADVANCED_FACE('',(#713),#732,.F.);
#713 = FACE_BOUND('',#714,.T.);
#714 = EDGE_LOOP('',(#715,#723,#724,#725));
#715 = ORIENTED_EDGE('',*,*,#716,.F.);
#716 = EDGE_CURVE('',#599,#717,#719,.T.);
#717 = VERTEX_POINT('',#718);
#718 = CARTESIAN_POINT('',(-53.05,10.,-2.));
#719 = LINE('',#720,#721);
#720 = CARTESIAN_POINT('',(-53.05,10.,-5.));
#721 = VECTOR('',#722,1.);
#722 = DIRECTION('',(0.,9.860761315263E-32,1.));
#723 = ORIENTED_EDGE('',*,*,#598,.T.);
#724 = ORIENTED_EDGE('',*,*,#716,.T.);
#725 = ORIENTED_EDGE('',*,*,#726,.F.);
#726 = EDGE_CURVE('',#717,#717,#727,.T.);
#727 = CIRCLE('',#728,3.05);
#728 = AXIS2_PLACEMENT_3D('',#729,#730,#731);
#729 = CARTESIAN_POINT('',(-50.,10.,-2.));
#730 = DIRECTION('',(-0.,-9.860761315263E-32,-1.));
#731 = DIRECTION('',(-1.,0.,0.));
#732 = CYLINDRICAL_SURFACE('',#733,3.05);
#733 = AXIS2_PLACEMENT_3D('',#734,#735,#736);
#734 = CARTESIAN_POINT('',(-50.,10.,-5.));
#735 = DIRECTION('',(0.,9.860761315263E-32,1.));
#736 = DIRECTION('',(-1.,0.,0.));
#737 = ADVANCED_FACE('',(#738),#757,.F.);
#738 = FACE_BOUND('',#739,.T.);
#739 = EDGE_LOOP('',(#740,#748,#749,#750));
#740 = ORIENTED_EDGE('',*,*,#741,.F.);
#741 = EDGE_CURVE('',#621,#742,#744,.T.);
#742 = VERTEX_POINT('',#743);
#743 = CARTESIAN_POINT('',(-18.05,45.,-2.));
#744 = LINE('',#745,#746);
#745 = CARTESIAN_POINT('',(-18.05,45.,-5.));
#746 = VECTOR('',#747,1.);
#747 = DIRECTION('',(0.,9.860761315263E-32,1.));
#748 = ORIENTED_EDGE('',*,*,#620,.T.);
#749 = ORIENTED_EDGE('',*,*,#741,.T.);
#750 = ORIENTED_EDGE('',*,*,#751,.F.);
#751 = EDGE_CURVE('',#742,#742,#752,.T.);
#752 = CIRCLE('',#753,3.05);
#753 = AXIS2_PLACEMENT_3D('',#754,#755,#756);
#754 = CARTESIAN_POINT('',(-15.,45.,-2.));
#755 = DIRECTION('',(-0.,-9.860761315263E-32,-1.));
#756 = DIRECTION('',(-1.,0.,0.));
#757 = CYLINDRICAL_SURFACE('',#758,3.05);
#758 = AXIS2_PLACEMENT_3D('',#759,#760,#761);
#759 = CARTESIAN_POINT('',(-15.,45.,-5.));
#760 = DIRECTION('',(0.,9.860761315263E-32,1.));
#761 = DIRECTION('',(-1.,0.,0.));
#762 = ADVANCED_FACE('',(#763,#766),#769,.T.);
#763 = FACE_BOUND('',#764,.T.);
#764 = EDGE_LOOP('',(#765));
#765 = ORIENTED_EDGE('',*,*,#726,.T.);
#766 = FACE_BOUND('',#767,.T.);
#767 = EDGE_LOOP('',(#768));
#768 = ORIENTED_EDGE('',*,*,#657,.F.);
#769 = PLANE('',#770);
#770 = AXIS2_PLACEMENT_3D('',#771,#772,#773);
#771 = CARTESIAN_POINT('',(-50.,10.,-2.));
#772 = DIRECTION('',(0.,-9.860761315263E-32,-1.));
#773 = DIRECTION('',(-1.,0.,0.));
#774 = ADVANCED_FACE('',(#775,#778),#781,.T.);
#775 = FACE_BOUND('',#776,.T.);
#776 = EDGE_LOOP('',(#777));
#777 = ORIENTED_EDGE('',*,*,#751,.T.);
#778 = FACE_BOUND('',#779,.T.);
#779 = EDGE_LOOP('',(#780));
#780 = ORIENTED_EDGE('',*,*,#682,.F.);
#781 = PLANE('',#782);
#782 = AXIS2_PLACEMENT_3D('',#783,#784,#785);
#783 = CARTESIAN_POINT('',(-15.,45.,-2.));
#784 = DIRECTION('',(0.,-9.860761315263E-32,-1.));
#785 = DIRECTION('',(-1.,0.,0.));
#786 = ( GEOMETRIC_REPRESENTATION_CONTEXT(3) 
GLOBAL_UNCERTAINTY_ASSIGNED_CONTEXT((#790)) GLOBAL_UNIT_ASSIGNED_CONTEXT
((#787,#788,#789)) REPRESENTATION_CONTEXT('Context #1',
  '3D Context with UNIT and UNCERTAINTY') );
#787 = ( LENGTH_UNIT() NAMED_UNIT(*) SI_UNIT(.MILLI.,.METRE.) );
#788 = ( NAMED_UNIT(*) PLANE_ANGLE_UNIT() SI_UNIT($,.RADIAN.) );
#789 = ( NAMED_UNIT(*) SI_UNIT($,.STERADIAN.) SOLID_ANGLE_UNIT() );
#790 = UNCERTAINTY_MEASURE_WITH_UNIT(LENGTH_MEASURE(5.E-06),#787,
  'distance_accuracy_value','confusion accuracy');
#791 = PRODUCT_RELATED_PRODUCT_CATEGORY('part',$,(#7));
#792 = MECHANICAL_DESIGN_GEOMETRIC_PRESENTATION_REPRESENTATION('',(#793)
  ,#786);
#793 = STYLED_ITEM('color',(#794),#15);
#794 = PRESENTATION_STYLE_ASSIGNMENT((#795,#801));
#795 = SURFACE_STYLE_USAGE(.BOTH.,#796);
#796 = SURFACE_SIDE_STYLE('',(#797));
#797 = SURFACE_STYLE_FILL_AREA(#798);
#798 = FILL_AREA_STYLE('',(#799));
#799 = FILL_AREA_STYLE_COLOUR('',#800);
#800 = COLOUR_RGB('',0.596078458879,0.,0.584313743644);
#801 = CURVE_STYLE('',#802,POSITIVE_LENGTH_MEASURE(0.1),#803);
#802 = DRAUGHTING_PRE_DEFINED_CURVE_FONT('continuous');
#803 = COLOUR_RGB('',9.803921802644E-02,9.803921802644E-02,
  9.803921802644E-02);
ENDSEC;
END-ISO-10303-21;
