ISO-10303-21;
HEADER;
FILE_DESCRIPTION(('FreeCAD Model'),'2;1');
FILE_NAME('Open CASCADE Shape Model','2025-12-30T23:21:33',(''),(''),
  'Open CASCADE STEP processor 7.9','FreeCAD','Unknown');
FILE_SCHEMA(('AUTOMOTIVE_DESIGN { 1 0 10303 214 1 1 1 1 }'));
ENDSEC;
DATA;
#1 = APPLICATION_PROTOCOL_DEFINITION('international standard',
  'automotive_design',2000,#2);
#2 = APPLICATION_CONTEXT(
  'core data for automotive mechanical design processes');
#3 = SHAPE_DEFINITION_REPRESENTATION(#4,#10);
#4 = PRODUCT_DEFINITION_SHAPE('','',#5);
#5 = PRODUCT_DEFINITION('design','',#6,#9);
#6 = PRODUCT_DEFINITION_FORMATION('','',#7);
#7 = PRODUCT('Bed_cable_strain_relief','Bed_cable_strain_relief','',(#8)
  );
#8 = PRODUCT_CONTEXT('',#2,'mechanical');
#9 = PRODUCT_DEFINITION_CONTEXT('part definition',#2,'design');
#10 = ADVANCED_BREP_SHAPE_REPRESENTATION('',(#11,#15),#597);
#11 = AXIS2_PLACEMENT_3D('',#12,#13,#14);
#12 = CARTESIAN_POINT('',(0.,0.,0.));
#13 = DIRECTION('',(0.,0.,1.));
#14 = DIRECTION('',(1.,0.,-0.));
#15 = MANIFOLD_SOLID_BREP('',#16);
#16 = CLOSED_SHELL('',(#17,#68,#99,#130,#155,#197,#228,#248,#265,#332,
    #374,#398,#433,#457,#481,#506,#531,#543,#573,#585));
#17 = ADVANCED_FACE('',(#18,#52),#63,.F.);
#18 = FACE_BOUND('',#19,.F.);
#19 = EDGE_LOOP('',(#20,#30,#38,#46));
#20 = ORIENTED_EDGE('',*,*,#21,.T.);
#21 = EDGE_CURVE('',#22,#24,#26,.T.);
#22 = VERTEX_POINT('',#23);
#23 = CARTESIAN_POINT('',(10.,10.,-2.22044604925E-15));
#24 = VERTEX_POINT('',#25);
#25 = CARTESIAN_POINT('',(10.,-10.,2.22044604925E-15));
#26 = LINE('',#27,#28);
#27 = CARTESIAN_POINT('',(10.,10.,-2.22044604925E-15));
#28 = VECTOR('',#29,1.);
#29 = DIRECTION('',(0.,-1.,2.22044604925E-16));
#30 = ORIENTED_EDGE('',*,*,#31,.T.);
#31 = EDGE_CURVE('',#24,#32,#34,.T.);
#32 = VERTEX_POINT('',#33);
#33 = CARTESIAN_POINT('',(20.,-10.,2.22044604925E-15));
#34 = LINE('',#35,#36);
#35 = CARTESIAN_POINT('',(10.,-10.,3.552713678801E-15));
#36 = VECTOR('',#37,1.);
#37 = DIRECTION('',(1.,0.,0.));
#38 = ORIENTED_EDGE('',*,*,#39,.F.);
#39 = EDGE_CURVE('',#40,#32,#42,.T.);
#40 = VERTEX_POINT('',#41);
#41 = CARTESIAN_POINT('',(20.,10.,-2.22044604925E-15));
#42 = LINE('',#43,#44);
#43 = CARTESIAN_POINT('',(20.,10.,-2.22044604925E-15));
#44 = VECTOR('',#45,1.);
#45 = DIRECTION('',(0.,-1.,2.22044604925E-16));
#46 = ORIENTED_EDGE('',*,*,#47,.F.);
#47 = EDGE_CURVE('',#22,#40,#48,.T.);
#48 = LINE('',#49,#50);
#49 = CARTESIAN_POINT('',(10.,10.,-3.552713678801E-15));
#50 = VECTOR('',#51,1.);
#51 = DIRECTION('',(1.,0.,0.));
#52 = FACE_BOUND('',#53,.F.);
#53 = EDGE_LOOP('',(#54));
#54 = ORIENTED_EDGE('',*,*,#55,.T.);
#55 = EDGE_CURVE('',#56,#56,#58,.T.);
#56 = VERTEX_POINT('',#57);
#57 = CARTESIAN_POINT('',(16.6,1.110223024625E-15,2.465190328816E-31));
#58 = CIRCLE('',#59,1.6);
#59 = AXIS2_PLACEMENT_3D('',#60,#61,#62);
#60 = CARTESIAN_POINT('',(15.,1.110223024625E-15,2.465190328816E-31));
#61 = DIRECTION('',(0.,-4.930380657631E-32,-1.));
#62 = DIRECTION('',(1.,0.,0.));
#63 = PLANE('',#64);
#64 = AXIS2_PLACEMENT_3D('',#65,#66,#67);
#65 = CARTESIAN_POINT('',(10.,10.,-2.22044604925E-15));
#66 = DIRECTION('',(0.,2.22044604925E-16,1.));
#67 = DIRECTION('',(1.,0.,0.));
#68 = ADVANCED_FACE('',(#69),#94,.F.);
#69 = FACE_BOUND('',#70,.F.);
#70 = EDGE_LOOP('',(#71,#81,#87,#88));
#71 = ORIENTED_EDGE('',*,*,#72,.T.);
#72 = EDGE_CURVE('',#73,#75,#77,.T.);
#73 = VERTEX_POINT('',#74);
#74 = CARTESIAN_POINT('',(5.,10.,5.));
#75 = VERTEX_POINT('',#76);
#76 = CARTESIAN_POINT('',(5.,-10.,5.));
#77 = LINE('',#78,#79);
#78 = CARTESIAN_POINT('',(5.,10.,5.));
#79 = VECTOR('',#80,1.);
#80 = DIRECTION('',(0.,-1.,2.22044604925E-16));
#81 = ORIENTED_EDGE('',*,*,#82,.T.);
#82 = EDGE_CURVE('',#75,#24,#83,.T.);
#83 = LINE('',#84,#85);
#84 = CARTESIAN_POINT('',(5.,-10.,5.));
#85 = VECTOR('',#86,1.);
#86 = DIRECTION('',(0.707106781187,-1.570092458684E-16,-0.707106781187)
  );
#87 = ORIENTED_EDGE('',*,*,#21,.F.);
#88 = ORIENTED_EDGE('',*,*,#89,.F.);
#89 = EDGE_CURVE('',#73,#22,#90,.T.);
#90 = LINE('',#91,#92);
#91 = CARTESIAN_POINT('',(5.,10.,5.));
#92 = VECTOR('',#93,1.);
#93 = DIRECTION('',(0.707106781187,-1.570092458684E-16,-0.707106781187)
  );
#94 = PLANE('',#95);
#95 = AXIS2_PLACEMENT_3D('',#96,#97,#98);
#96 = CARTESIAN_POINT('',(5.,10.,5.));
#97 = DIRECTION('',(0.707106781187,1.570092458684E-16,0.707106781187));
#98 = DIRECTION('',(0.707106781187,-1.570092458684E-16,-0.707106781187)
  );
#99 = ADVANCED_FACE('',(#100),#125,.F.);
#100 = FACE_BOUND('',#101,.F.);
#101 = EDGE_LOOP('',(#102,#103,#111,#119));
#102 = ORIENTED_EDGE('',*,*,#39,.T.);
#103 = ORIENTED_EDGE('',*,*,#104,.T.);
#104 = EDGE_CURVE('',#32,#105,#107,.T.);
#105 = VERTEX_POINT('',#106);
#106 = CARTESIAN_POINT('',(20.,-10.,5.));
#107 = LINE('',#108,#109);
#108 = CARTESIAN_POINT('',(20.,-10.,3.552713678801E-15));
#109 = VECTOR('',#110,1.);
#110 = DIRECTION('',(0.,2.22044604925E-16,1.));
#111 = ORIENTED_EDGE('',*,*,#112,.F.);
#112 = EDGE_CURVE('',#113,#105,#115,.T.);
#113 = VERTEX_POINT('',#114);
#114 = CARTESIAN_POINT('',(20.,10.,5.));
#115 = LINE('',#116,#117);
#116 = CARTESIAN_POINT('',(20.,10.,5.));
#117 = VECTOR('',#118,1.);
#118 = DIRECTION('',(0.,-1.,2.22044604925E-16));
#119 = ORIENTED_EDGE('',*,*,#120,.F.);
#120 = EDGE_CURVE('',#40,#113,#121,.T.);
#121 = LINE('',#122,#123);
#122 = CARTESIAN_POINT('',(20.,10.,-3.552713678801E-15));
#123 = VECTOR('',#124,1.);
#124 = DIRECTION('',(0.,2.22044604925E-16,1.));
#125 = PLANE('',#126);
#126 = AXIS2_PLACEMENT_3D('',#127,#128,#129);
#127 = CARTESIAN_POINT('',(20.,10.,-2.22044604925E-15));
#128 = DIRECTION('',(-1.,0.,0.));
#129 = DIRECTION('',(0.,2.22044604925E-16,1.));
#130 = ADVANCED_FACE('',(#131),#150,.F.);
#131 = FACE_BOUND('',#132,.T.);
#132 = EDGE_LOOP('',(#133,#141,#148,#149));
#133 = ORIENTED_EDGE('',*,*,#134,.F.);
#134 = EDGE_CURVE('',#135,#56,#137,.T.);
#135 = VERTEX_POINT('',#136);
#136 = CARTESIAN_POINT('',(16.6,1.110223024625E-15,2.));
#137 = LINE('',#138,#139);
#138 = CARTESIAN_POINT('',(16.6,8.881784197001E-16,2.));
#139 = VECTOR('',#140,1.);
#140 = DIRECTION('',(-6.167905692362E-17,-4.930380657631E-32,-1.));
#141 = ORIENTED_EDGE('',*,*,#142,.T.);
#142 = EDGE_CURVE('',#135,#135,#143,.T.);
#143 = CIRCLE('',#144,1.6);
#144 = AXIS2_PLACEMENT_3D('',#145,#146,#147);
#145 = CARTESIAN_POINT('',(15.,8.881784197001E-16,2.));
#146 = DIRECTION('',(-0.,4.930380657631E-32,1.));
#147 = DIRECTION('',(1.,0.,0.));
#148 = ORIENTED_EDGE('',*,*,#134,.T.);
#149 = ORIENTED_EDGE('',*,*,#55,.T.);
#150 = CYLINDRICAL_SURFACE('',#151,1.6);
#151 = AXIS2_PLACEMENT_3D('',#152,#153,#154);
#152 = CARTESIAN_POINT('',(15.,8.881784197001E-16,2.));
#153 = DIRECTION('',(0.,-4.930380657631E-32,-1.));
#154 = DIRECTION('',(1.,0.,0.));
#155 = ADVANCED_FACE('',(#156,#181),#192,.F.);
#156 = FACE_BOUND('',#157,.F.);
#157 = EDGE_LOOP('',(#158,#159,#167,#175));
#158 = ORIENTED_EDGE('',*,*,#112,.T.);
#159 = ORIENTED_EDGE('',*,*,#160,.T.);
#160 = EDGE_CURVE('',#105,#161,#163,.T.);
#161 = VERTEX_POINT('',#162);
#162 = CARTESIAN_POINT('',(10.,-10.,5.));
#163 = LINE('',#164,#165);
#164 = CARTESIAN_POINT('',(20.,-10.,5.));
#165 = VECTOR('',#166,1.);
#166 = DIRECTION('',(-1.,0.,0.));
#167 = ORIENTED_EDGE('',*,*,#168,.F.);
#168 = EDGE_CURVE('',#169,#161,#171,.T.);
#169 = VERTEX_POINT('',#170);
#170 = CARTESIAN_POINT('',(10.,10.,5.));
#171 = LINE('',#172,#173);
#172 = CARTESIAN_POINT('',(10.,10.,5.));
#173 = VECTOR('',#174,1.);
#174 = DIRECTION('',(0.,-1.,2.22044604925E-16));
#175 = ORIENTED_EDGE('',*,*,#176,.F.);
#176 = EDGE_CURVE('',#113,#169,#177,.T.);
#177 = LINE('',#178,#179);
#178 = CARTESIAN_POINT('',(20.,10.,5.));
#179 = VECTOR('',#180,1.);
#180 = DIRECTION('',(-1.,0.,0.));
#181 = FACE_BOUND('',#182,.F.);
#182 = EDGE_LOOP('',(#183));
#183 = ORIENTED_EDGE('',*,*,#184,.T.);
#184 = EDGE_CURVE('',#185,#185,#187,.T.);
#185 = VERTEX_POINT('',#186);
#186 = CARTESIAN_POINT('',(18.05,1.110223024625E-15,5.));
#187 = CIRCLE('',#188,3.05);
#188 = AXIS2_PLACEMENT_3D('',#189,#190,#191);
#189 = CARTESIAN_POINT('',(15.,8.881784197001E-16,5.));
#190 = DIRECTION('',(-0.,4.930380657631E-32,1.));
#191 = DIRECTION('',(1.,0.,0.));
#192 = PLANE('',#193);
#193 = AXIS2_PLACEMENT_3D('',#194,#195,#196);
#194 = CARTESIAN_POINT('',(20.,10.,5.));
#195 = DIRECTION('',(0.,-2.22044604925E-16,-1.));
#196 = DIRECTION('',(-1.,0.,0.));
#197 = ADVANCED_FACE('',(#198),#223,.F.);
#198 = FACE_BOUND('',#199,.F.);
#199 = EDGE_LOOP('',(#200,#201,#209,#217));
#200 = ORIENTED_EDGE('',*,*,#168,.T.);
#201 = ORIENTED_EDGE('',*,*,#202,.T.);
#202 = EDGE_CURVE('',#161,#203,#205,.T.);
#203 = VERTEX_POINT('',#204);
#204 = CARTESIAN_POINT('',(5.,-10.,10.));
#205 = LINE('',#206,#207);
#206 = CARTESIAN_POINT('',(10.,-10.,5.));
#207 = VECTOR('',#208,1.);
#208 = DIRECTION('',(-0.707106781187,1.570092458684E-16,0.707106781187)
  );
#209 = ORIENTED_EDGE('',*,*,#210,.F.);
#210 = EDGE_CURVE('',#211,#203,#213,.T.);
#211 = VERTEX_POINT('',#212);
#212 = CARTESIAN_POINT('',(5.,10.,10.));
#213 = LINE('',#214,#215);
#214 = CARTESIAN_POINT('',(5.,10.,10.));
#215 = VECTOR('',#216,1.);
#216 = DIRECTION('',(0.,-1.,2.22044604925E-16));
#217 = ORIENTED_EDGE('',*,*,#218,.F.);
#218 = EDGE_CURVE('',#169,#211,#219,.T.);
#219 = LINE('',#220,#221);
#220 = CARTESIAN_POINT('',(10.,10.,5.));
#221 = VECTOR('',#222,1.);
#222 = DIRECTION('',(-0.707106781187,1.570092458684E-16,0.707106781187)
  );
#223 = PLANE('',#224);
#224 = AXIS2_PLACEMENT_3D('',#225,#226,#227);
#225 = CARTESIAN_POINT('',(10.,10.,5.));
#226 = DIRECTION('',(-0.707106781187,-1.570092458684E-16,-0.707106781187
    ));
#227 = DIRECTION('',(-0.707106781187,1.570092458684E-16,0.707106781187)
  );
#228 = ADVANCED_FACE('',(#229,#240),#243,.T.);
#229 = FACE_BOUND('',#230,.T.);
#230 = EDGE_LOOP('',(#231));
#231 = ORIENTED_EDGE('',*,*,#232,.T.);
#232 = EDGE_CURVE('',#233,#233,#235,.T.);
#233 = VERTEX_POINT('',#234);
#234 = CARTESIAN_POINT('',(18.05,1.110223024625E-15,2.));
#235 = CIRCLE('',#236,3.05);
#236 = AXIS2_PLACEMENT_3D('',#237,#238,#239);
#237 = CARTESIAN_POINT('',(15.,8.881784197001E-16,2.));
#238 = DIRECTION('',(-0.,4.930380657631E-32,1.));
#239 = DIRECTION('',(1.,0.,0.));
#240 = FACE_BOUND('',#241,.T.);
#241 = EDGE_LOOP('',(#242));
#242 = ORIENTED_EDGE('',*,*,#142,.F.);
#243 = PLANE('',#244);
#244 = AXIS2_PLACEMENT_3D('',#245,#246,#247);
#245 = CARTESIAN_POINT('',(15.,8.881784197001E-16,2.));
#246 = DIRECTION('',(0.,4.930380657631E-32,1.));
#247 = DIRECTION('',(1.,0.,0.));
#248 = ADVANCED_FACE('',(#249),#260,.F.);
#249 = FACE_BOUND('',#250,.T.);
#250 = EDGE_LOOP('',(#251,#257,#258,#259));
#251 = ORIENTED_EDGE('',*,*,#252,.F.);
#252 = EDGE_CURVE('',#185,#233,#253,.T.);
#253 = LINE('',#254,#255);
#254 = CARTESIAN_POINT('',(18.05,8.881784197001E-16,5.));
#255 = VECTOR('',#256,1.);
#256 = DIRECTION('',(0.,-4.930380657631E-32,-1.));
#257 = ORIENTED_EDGE('',*,*,#184,.T.);
#258 = ORIENTED_EDGE('',*,*,#252,.T.);
#259 = ORIENTED_EDGE('',*,*,#232,.F.);
#260 = CYLINDRICAL_SURFACE('',#261,3.05);
#261 = AXIS2_PLACEMENT_3D('',#262,#263,#264);
#262 = CARTESIAN_POINT('',(15.,8.881784197001E-16,5.));
#263 = DIRECTION('',(0.,-4.930380657631E-32,-1.));
#264 = DIRECTION('',(1.,0.,0.));
#265 = ADVANCED_FACE('',(#266),#327,.T.);
#266 = FACE_BOUND('',#267,.T.);
#267 = EDGE_LOOP('',(#268,#269,#270,#278,#286,#294,#302,#310,#318,#324,
    #325,#326));
#268 = ORIENTED_EDGE('',*,*,#47,.F.);
#269 = ORIENTED_EDGE('',*,*,#89,.F.);
#270 = ORIENTED_EDGE('',*,*,#271,.F.);
#271 = EDGE_CURVE('',#272,#73,#274,.T.);
#272 = VERTEX_POINT('',#273);
#273 = CARTESIAN_POINT('',(-5.,10.,5.));
#274 = LINE('',#275,#276);
#275 = CARTESIAN_POINT('',(0.,10.,5.));
#276 = VECTOR('',#277,1.);
#277 = DIRECTION('',(1.,0.,0.));
#278 = ORIENTED_EDGE('',*,*,#279,.T.);
#279 = EDGE_CURVE('',#272,#280,#282,.T.);
#280 = VERTEX_POINT('',#281);
#281 = CARTESIAN_POINT('',(-10.,10.,-2.22044604925E-15));
#282 = LINE('',#283,#284);
#283 = CARTESIAN_POINT('',(-5.,10.,5.));
#284 = VECTOR('',#285,1.);
#285 = DIRECTION('',(-0.707106781187,-1.570092458684E-16,-0.707106781187
    ));
#286 = ORIENTED_EDGE('',*,*,#287,.T.);
#287 = EDGE_CURVE('',#280,#288,#290,.T.);
#288 = VERTEX_POINT('',#289);
#289 = CARTESIAN_POINT('',(-20.,10.,-2.22044604925E-15));
#290 = LINE('',#291,#292);
#291 = CARTESIAN_POINT('',(-10.,10.,-1.7763568394E-15));
#292 = VECTOR('',#293,1.);
#293 = DIRECTION('',(-1.,0.,0.));
#294 = ORIENTED_EDGE('',*,*,#295,.T.);
#295 = EDGE_CURVE('',#288,#296,#298,.T.);
#296 = VERTEX_POINT('',#297);
#297 = CARTESIAN_POINT('',(-20.,10.,5.));
#298 = LINE('',#299,#300);
#299 = CARTESIAN_POINT('',(-20.,10.,-1.7763568394E-15));
#300 = VECTOR('',#301,1.);
#301 = DIRECTION('',(0.,2.22044604925E-16,1.));
#302 = ORIENTED_EDGE('',*,*,#303,.T.);
#303 = EDGE_CURVE('',#296,#304,#306,.T.);
#304 = VERTEX_POINT('',#305);
#305 = CARTESIAN_POINT('',(-10.,10.,5.));
#306 = LINE('',#307,#308);
#307 = CARTESIAN_POINT('',(-20.,10.,5.));
#308 = VECTOR('',#309,1.);
#309 = DIRECTION('',(1.,0.,0.));
#310 = ORIENTED_EDGE('',*,*,#311,.T.);
#311 = EDGE_CURVE('',#304,#312,#314,.T.);
#312 = VERTEX_POINT('',#313);
#313 = CARTESIAN_POINT('',(-5.,10.,10.));
#314 = LINE('',#315,#316);
#315 = CARTESIAN_POINT('',(-10.,10.,5.));
#316 = VECTOR('',#317,1.);
#317 = DIRECTION('',(0.707106781187,1.570092458684E-16,0.707106781187));
#318 = ORIENTED_EDGE('',*,*,#319,.T.);
#319 = EDGE_CURVE('',#312,#211,#320,.T.);
#320 = LINE('',#321,#322);
#321 = CARTESIAN_POINT('',(-5.,10.,10.));
#322 = VECTOR('',#323,1.);
#323 = DIRECTION('',(1.,0.,0.));
#324 = ORIENTED_EDGE('',*,*,#218,.F.);
#325 = ORIENTED_EDGE('',*,*,#176,.F.);
#326 = ORIENTED_EDGE('',*,*,#120,.F.);
#327 = PLANE('',#328);
#328 = AXIS2_PLACEMENT_3D('',#329,#330,#331);
#329 = CARTESIAN_POINT('',(1.879660997155E-15,10.,4.236907400868));
#330 = DIRECTION('',(-0.,1.,-1.33226762955E-16));
#331 = DIRECTION('',(0.,-1.33226762955E-16,-1.));
#332 = ADVANCED_FACE('',(#333,#358),#369,.F.);
#333 = FACE_BOUND('',#334,.T.);
#334 = EDGE_LOOP('',(#335,#343,#351,#357));
#335 = ORIENTED_EDGE('',*,*,#336,.T.);
#336 = EDGE_CURVE('',#280,#337,#339,.T.);
#337 = VERTEX_POINT('',#338);
#338 = CARTESIAN_POINT('',(-10.,-10.,2.22044604925E-15));
#339 = LINE('',#340,#341);
#340 = CARTESIAN_POINT('',(-10.,10.,-2.22044604925E-15));
#341 = VECTOR('',#342,1.);
#342 = DIRECTION('',(0.,-1.,2.22044604925E-16));
#343 = ORIENTED_EDGE('',*,*,#344,.T.);
#344 = EDGE_CURVE('',#337,#345,#347,.T.);
#345 = VERTEX_POINT('',#346);
#346 = CARTESIAN_POINT('',(-20.,-10.,2.22044604925E-15));
#347 = LINE('',#348,#349);
#348 = CARTESIAN_POINT('',(-10.,-10.,1.7763568394E-15));
#349 = VECTOR('',#350,1.);
#350 = DIRECTION('',(-1.,0.,0.));
#351 = ORIENTED_EDGE('',*,*,#352,.F.);
#352 = EDGE_CURVE('',#288,#345,#353,.T.);
#353 = LINE('',#354,#355);
#354 = CARTESIAN_POINT('',(-20.,10.,-2.22044604925E-15));
#355 = VECTOR('',#356,1.);
#356 = DIRECTION('',(0.,-1.,2.22044604925E-16));
#357 = ORIENTED_EDGE('',*,*,#287,.F.);
#358 = FACE_BOUND('',#359,.T.);
#359 = EDGE_LOOP('',(#360));
#360 = ORIENTED_EDGE('',*,*,#361,.F.);
#361 = EDGE_CURVE('',#362,#362,#364,.T.);
#362 = VERTEX_POINT('',#363);
#363 = CARTESIAN_POINT('',(-16.6,1.110223024625E-15,2.465190328816E-31)
  );
#364 = CIRCLE('',#365,1.6);
#365 = AXIS2_PLACEMENT_3D('',#366,#367,#368);
#366 = CARTESIAN_POINT('',(-15.,1.110223024625E-15,2.465190328816E-31));
#367 = DIRECTION('',(-0.,0.,-1.));
#368 = DIRECTION('',(-1.,-0.,0.));
#369 = PLANE('',#370);
#370 = AXIS2_PLACEMENT_3D('',#371,#372,#373);
#371 = CARTESIAN_POINT('',(-10.,10.,-2.22044604925E-15));
#372 = DIRECTION('',(0.,2.22044604925E-16,1.));
#373 = DIRECTION('',(1.,0.,0.));
#374 = ADVANCED_FACE('',(#375),#393,.F.);
#375 = FACE_BOUND('',#376,.T.);
#376 = EDGE_LOOP('',(#377,#378,#386,#392));
#377 = ORIENTED_EDGE('',*,*,#352,.T.);
#378 = ORIENTED_EDGE('',*,*,#379,.T.);
#379 = EDGE_CURVE('',#345,#380,#382,.T.);
#380 = VERTEX_POINT('',#381);
#381 = CARTESIAN_POINT('',(-20.,-10.,5.));
#382 = LINE('',#383,#384);
#383 = CARTESIAN_POINT('',(-20.,-10.,1.7763568394E-15));
#384 = VECTOR('',#385,1.);
#385 = DIRECTION('',(0.,2.22044604925E-16,1.));
#386 = ORIENTED_EDGE('',*,*,#387,.F.);
#387 = EDGE_CURVE('',#296,#380,#388,.T.);
#388 = LINE('',#389,#390);
#389 = CARTESIAN_POINT('',(-20.,10.,5.));
#390 = VECTOR('',#391,1.);
#391 = DIRECTION('',(0.,-1.,2.22044604925E-16));
#392 = ORIENTED_EDGE('',*,*,#295,.F.);
#393 = PLANE('',#394);
#394 = AXIS2_PLACEMENT_3D('',#395,#396,#397);
#395 = CARTESIAN_POINT('',(-20.,10.,-2.22044604925E-15));
#396 = DIRECTION('',(1.,0.,0.));
#397 = DIRECTION('',(-0.,-2.22044604925E-16,-1.));
#398 = ADVANCED_FACE('',(#399,#417),#428,.F.);
#399 = FACE_BOUND('',#400,.T.);
#400 = EDGE_LOOP('',(#401,#402,#410,#416));
#401 = ORIENTED_EDGE('',*,*,#387,.T.);
#402 = ORIENTED_EDGE('',*,*,#403,.T.);
#403 = EDGE_CURVE('',#380,#404,#406,.T.);
#404 = VERTEX_POINT('',#405);
#405 = CARTESIAN_POINT('',(-10.,-10.,5.));
#406 = LINE('',#407,#408);
#407 = CARTESIAN_POINT('',(-20.,-10.,5.));
#408 = VECTOR('',#409,1.);
#409 = DIRECTION('',(1.,0.,0.));
#410 = ORIENTED_EDGE('',*,*,#411,.F.);
#411 = EDGE_CURVE('',#304,#404,#412,.T.);
#412 = LINE('',#413,#414);
#413 = CARTESIAN_POINT('',(-10.,10.,5.));
#414 = VECTOR('',#415,1.);
#415 = DIRECTION('',(0.,-1.,2.22044604925E-16));
#416 = ORIENTED_EDGE('',*,*,#303,.F.);
#417 = FACE_BOUND('',#418,.T.);
#418 = EDGE_LOOP('',(#419));
#419 = ORIENTED_EDGE('',*,*,#420,.T.);
#420 = EDGE_CURVE('',#421,#421,#423,.T.);
#421 = VERTEX_POINT('',#422);
#422 = CARTESIAN_POINT('',(-18.05,1.110223024625E-15,5.));
#423 = CIRCLE('',#424,3.05);
#424 = AXIS2_PLACEMENT_3D('',#425,#426,#427);
#425 = CARTESIAN_POINT('',(-15.,8.881784197001E-16,5.));
#426 = DIRECTION('',(0.,0.,-1.));
#427 = DIRECTION('',(-1.,0.,0.));
#428 = PLANE('',#429);
#429 = AXIS2_PLACEMENT_3D('',#430,#431,#432);
#430 = CARTESIAN_POINT('',(-20.,10.,5.));
#431 = DIRECTION('',(0.,-2.22044604925E-16,-1.));
#432 = DIRECTION('',(-1.,0.,-0.));
#433 = ADVANCED_FACE('',(#434),#452,.F.);
#434 = FACE_BOUND('',#435,.T.);
#435 = EDGE_LOOP('',(#436,#437,#445,#451));
#436 = ORIENTED_EDGE('',*,*,#411,.T.);
#437 = ORIENTED_EDGE('',*,*,#438,.T.);
#438 = EDGE_CURVE('',#404,#439,#441,.T.);
#439 = VERTEX_POINT('',#440);
#440 = CARTESIAN_POINT('',(-5.,-10.,10.));
#441 = LINE('',#442,#443);
#442 = CARTESIAN_POINT('',(-10.,-10.,5.));
#443 = VECTOR('',#444,1.);
#444 = DIRECTION('',(0.707106781187,1.570092458684E-16,0.707106781187));
#445 = ORIENTED_EDGE('',*,*,#446,.F.);
#446 = EDGE_CURVE('',#312,#439,#447,.T.);
#447 = LINE('',#448,#449);
#448 = CARTESIAN_POINT('',(-5.,10.,10.));
#449 = VECTOR('',#450,1.);
#450 = DIRECTION('',(0.,-1.,2.22044604925E-16));
#451 = ORIENTED_EDGE('',*,*,#311,.F.);
#452 = PLANE('',#453);
#453 = AXIS2_PLACEMENT_3D('',#454,#455,#456);
#454 = CARTESIAN_POINT('',(-10.,10.,5.));
#455 = DIRECTION('',(0.707106781187,-1.570092458684E-16,-0.707106781187)
  );
#456 = DIRECTION('',(-0.707106781187,-1.570092458684E-16,-0.707106781187
    ));
#457 = ADVANCED_FACE('',(#458),#476,.F.);
#458 = FACE_BOUND('',#459,.T.);
#459 = EDGE_LOOP('',(#460,#468,#474,#475));
#460 = ORIENTED_EDGE('',*,*,#461,.T.);
#461 = EDGE_CURVE('',#272,#462,#464,.T.);
#462 = VERTEX_POINT('',#463);
#463 = CARTESIAN_POINT('',(-5.,-10.,5.));
#464 = LINE('',#465,#466);
#465 = CARTESIAN_POINT('',(-5.,10.,5.));
#466 = VECTOR('',#467,1.);
#467 = DIRECTION('',(0.,-1.,2.22044604925E-16));
#468 = ORIENTED_EDGE('',*,*,#469,.T.);
#469 = EDGE_CURVE('',#462,#337,#470,.T.);
#470 = LINE('',#471,#472);
#471 = CARTESIAN_POINT('',(-5.,-10.,5.));
#472 = VECTOR('',#473,1.);
#473 = DIRECTION('',(-0.707106781187,-1.570092458684E-16,-0.707106781187
    ));
#474 = ORIENTED_EDGE('',*,*,#336,.F.);
#475 = ORIENTED_EDGE('',*,*,#279,.F.);
#476 = PLANE('',#477);
#477 = AXIS2_PLACEMENT_3D('',#478,#479,#480);
#478 = CARTESIAN_POINT('',(-5.,10.,5.));
#479 = DIRECTION('',(-0.707106781187,1.570092458684E-16,0.707106781187)
  );
#480 = DIRECTION('',(0.707106781187,1.570092458684E-16,0.707106781187));
#481 = ADVANCED_FACE('',(#482),#501,.F.);
#482 = FACE_BOUND('',#483,.F.);
#483 = EDGE_LOOP('',(#484,#492,#499,#500));
#484 = ORIENTED_EDGE('',*,*,#485,.F.);
#485 = EDGE_CURVE('',#486,#362,#488,.T.);
#486 = VERTEX_POINT('',#487);
#487 = CARTESIAN_POINT('',(-16.6,1.110223024625E-15,2.));
#488 = LINE('',#489,#490);
#489 = CARTESIAN_POINT('',(-16.6,8.881784197001E-16,2.));
#490 = VECTOR('',#491,1.);
#491 = DIRECTION('',(6.167905692362E-17,0.,-1.));
#492 = ORIENTED_EDGE('',*,*,#493,.T.);
#493 = EDGE_CURVE('',#486,#486,#494,.T.);
#494 = CIRCLE('',#495,1.6);
#495 = AXIS2_PLACEMENT_3D('',#496,#497,#498);
#496 = CARTESIAN_POINT('',(-15.,8.881784197001E-16,2.));
#497 = DIRECTION('',(0.,0.,-1.));
#498 = DIRECTION('',(-1.,0.,0.));
#499 = ORIENTED_EDGE('',*,*,#485,.T.);
#500 = ORIENTED_EDGE('',*,*,#361,.F.);
#501 = CYLINDRICAL_SURFACE('',#502,1.6);
#502 = AXIS2_PLACEMENT_3D('',#503,#504,#505);
#503 = CARTESIAN_POINT('',(-15.,8.881784197001E-16,2.));
#504 = DIRECTION('',(0.,0.,-1.));
#505 = DIRECTION('',(-1.,0.,0.));
#506 = ADVANCED_FACE('',(#507),#526,.F.);
#507 = FACE_BOUND('',#508,.F.);
#508 = EDGE_LOOP('',(#509,#517,#518,#519));
#509 = ORIENTED_EDGE('',*,*,#510,.F.);
#510 = EDGE_CURVE('',#421,#511,#513,.T.);
#511 = VERTEX_POINT('',#512);
#512 = CARTESIAN_POINT('',(-18.05,1.110223024625E-15,2.));
#513 = LINE('',#514,#515);
#514 = CARTESIAN_POINT('',(-18.05,8.881784197001E-16,5.));
#515 = VECTOR('',#516,1.);
#516 = DIRECTION('',(0.,0.,-1.));
#517 = ORIENTED_EDGE('',*,*,#420,.T.);
#518 = ORIENTED_EDGE('',*,*,#510,.T.);
#519 = ORIENTED_EDGE('',*,*,#520,.F.);
#520 = EDGE_CURVE('',#511,#511,#521,.T.);
#521 = CIRCLE('',#522,3.05);
#522 = AXIS2_PLACEMENT_3D('',#523,#524,#525);
#523 = CARTESIAN_POINT('',(-15.,8.881784197001E-16,2.));
#524 = DIRECTION('',(0.,0.,-1.));
#525 = DIRECTION('',(-1.,0.,0.));
#526 = CYLINDRICAL_SURFACE('',#527,3.05);
#527 = AXIS2_PLACEMENT_3D('',#528,#529,#530);
#528 = CARTESIAN_POINT('',(-15.,8.881784197001E-16,5.));
#529 = DIRECTION('',(0.,0.,-1.));
#530 = DIRECTION('',(-1.,0.,0.));
#531 = ADVANCED_FACE('',(#532,#535),#538,.T.);
#532 = FACE_BOUND('',#533,.F.);
#533 = EDGE_LOOP('',(#534));
#534 = ORIENTED_EDGE('',*,*,#520,.T.);
#535 = FACE_BOUND('',#536,.F.);
#536 = EDGE_LOOP('',(#537));
#537 = ORIENTED_EDGE('',*,*,#493,.F.);
#538 = PLANE('',#539);
#539 = AXIS2_PLACEMENT_3D('',#540,#541,#542);
#540 = CARTESIAN_POINT('',(-15.,8.881784197001E-16,2.));
#541 = DIRECTION('',(0.,0.,1.));
#542 = DIRECTION('',(1.,0.,0.));
#543 = ADVANCED_FACE('',(#544),#568,.T.);
#544 = FACE_BOUND('',#545,.T.);
#545 = EDGE_LOOP('',(#546,#547,#548,#549,#550,#556,#557,#558,#559,#560,
    #561,#567));
#546 = ORIENTED_EDGE('',*,*,#31,.T.);
#547 = ORIENTED_EDGE('',*,*,#104,.T.);
#548 = ORIENTED_EDGE('',*,*,#160,.T.);
#549 = ORIENTED_EDGE('',*,*,#202,.T.);
#550 = ORIENTED_EDGE('',*,*,#551,.T.);
#551 = EDGE_CURVE('',#203,#439,#552,.T.);
#552 = LINE('',#553,#554);
#553 = CARTESIAN_POINT('',(5.,-10.,10.));
#554 = VECTOR('',#555,1.);
#555 = DIRECTION('',(-1.,-0.,0.));
#556 = ORIENTED_EDGE('',*,*,#438,.F.);
#557 = ORIENTED_EDGE('',*,*,#403,.F.);
#558 = ORIENTED_EDGE('',*,*,#379,.F.);
#559 = ORIENTED_EDGE('',*,*,#344,.F.);
#560 = ORIENTED_EDGE('',*,*,#469,.F.);
#561 = ORIENTED_EDGE('',*,*,#562,.F.);
#562 = EDGE_CURVE('',#75,#462,#563,.T.);
#563 = LINE('',#564,#565);
#564 = CARTESIAN_POINT('',(0.,-10.,5.));
#565 = VECTOR('',#566,1.);
#566 = DIRECTION('',(-1.,0.,-0.));
#567 = ORIENTED_EDGE('',*,*,#82,.T.);
#568 = PLANE('',#569);
#569 = AXIS2_PLACEMENT_3D('',#570,#571,#572);
#570 = CARTESIAN_POINT('',(1.879660997155E-15,-10.,4.236907400868));
#571 = DIRECTION('',(0.,-1.,1.33226762955E-16));
#572 = DIRECTION('',(0.,1.33226762955E-16,1.));
#573 = ADVANCED_FACE('',(#574),#580,.T.);
#574 = FACE_BOUND('',#575,.T.);
#575 = EDGE_LOOP('',(#576,#577,#578,#579));
#576 = ORIENTED_EDGE('',*,*,#72,.T.);
#577 = ORIENTED_EDGE('',*,*,#562,.T.);
#578 = ORIENTED_EDGE('',*,*,#461,.F.);
#579 = ORIENTED_EDGE('',*,*,#271,.T.);
#580 = PLANE('',#581);
#581 = AXIS2_PLACEMENT_3D('',#582,#583,#584);
#582 = CARTESIAN_POINT('',(7.993605777301E-16,5.477100254817E-16,5.));
#583 = DIRECTION('',(0.,-2.22044604925E-16,-1.));
#584 = DIRECTION('',(0.,1.,-2.22044604925E-16));
#585 = ADVANCED_FACE('',(#586),#592,.T.);
#586 = FACE_BOUND('',#587,.T.);
#587 = EDGE_LOOP('',(#588,#589,#590,#591));
#588 = ORIENTED_EDGE('',*,*,#210,.F.);
#589 = ORIENTED_EDGE('',*,*,#319,.F.);
#590 = ORIENTED_EDGE('',*,*,#446,.T.);
#591 = ORIENTED_EDGE('',*,*,#551,.F.);
#592 = PLANE('',#593);
#593 = AXIS2_PLACEMENT_3D('',#594,#595,#596);
#594 = CARTESIAN_POINT('',(7.993605777301E-16,7.401486830835E-16,10.));
#595 = DIRECTION('',(0.,2.22044604925E-16,1.));
#596 = DIRECTION('',(0.,-1.,2.22044604925E-16));
#597 = ( GEOMETRIC_REPRESENTATION_CONTEXT(3) 
GLOBAL_UNCERTAINTY_ASSIGNED_CONTEXT((#601)) GLOBAL_UNIT_ASSIGNED_CONTEXT
((#598,#599,#600)) REPRESENTATION_CONTEXT('Context #1',
  '3D Context with UNIT and UNCERTAINTY') );
#598 = ( LENGTH_UNIT() NAMED_UNIT(*) SI_UNIT(.MILLI.,.METRE.) );
#599 = ( NAMED_UNIT(*) PLANE_ANGLE_UNIT() SI_UNIT($,.RADIAN.) );
#600 = ( NAMED_UNIT(*) SI_UNIT($,.STERADIAN.) SOLID_ANGLE_UNIT() );
#601 = UNCERTAINTY_MEASURE_WITH_UNIT(LENGTH_MEASURE(1.E-07),#598,
  'distance_accuracy_value','confusion accuracy');
#602 = PRODUCT_RELATED_PRODUCT_CATEGORY('part',$,(#7));
#603 = MECHANICAL_DESIGN_GEOMETRIC_PRESENTATION_REPRESENTATION('',(#604)
  ,#597);
#604 = STYLED_ITEM('color',(#605),#15);
#605 = PRESENTATION_STYLE_ASSIGNMENT((#606,#612));
#606 = SURFACE_STYLE_USAGE(.BOTH.,#607);
#607 = SURFACE_SIDE_STYLE('',(#608));
#608 = SURFACE_STYLE_FILL_AREA(#609);
#609 = FILL_AREA_STYLE('',(#610));
#610 = FILL_AREA_STYLE_COLOUR('',#611);
#611 = COLOUR_RGB('',0.447059003357,0.474510015008,0.501960993452);
#612 = CURVE_STYLE('',#613,POSITIVE_LENGTH_MEASURE(0.1),#614);
#613 = DRAUGHTING_PRE_DEFINED_CURVE_FONT('continuous');
#614 = COLOUR_RGB('',9.803921802644E-02,9.803921802644E-02,
  9.803921802644E-02);
ENDSEC;
END-ISO-10303-21;
