ISO-10303-21;
HEADER;
FILE_DESCRIPTION(('FreeCAD Model'),'2;1');
FILE_NAME('Open CASCADE Shape Model','2025-12-30T17:04:53',(''),(''),
  'Open CASCADE STEP processor 7.9','FreeCAD','Unknown');
FILE_SCHEMA(('AUTOMOTIVE_DESIGN { 1 0 10303 214 1 1 1 1 }'));
ENDSEC;
DATA;
#1 = APPLICATION_PROTOCOL_DEFINITION('international standard',
  'automotive_design',2000,#2);
#2 = APPLICATION_CONTEXT(
  'core data for automotive mechanical design processes');
#3 = SHAPE_DEFINITION_REPRESENTATION(#4,#10);
#4 = PRODUCT_DEFINITION_SHAPE('','',#5);
#5 = PRODUCT_DEFINITION('design','',#6,#9);
#6 = PRODUCT_DEFINITION_FORMATION('','',#7);
#7 = PRODUCT('Body','Body','',(#8));
#8 = PRODUCT_CONTEXT('',#2,'mechanical');
#9 = PRODUCT_DEFINITION_CONTEXT('part definition',#2,'design');
#10 = ADVANCED_BREP_SHAPE_REPRESENTATION('',(#11,#15),#2047);
#11 = AXIS2_PLACEMENT_3D('',#12,#13,#14);
#12 = CARTESIAN_POINT('',(0.,0.,0.));
#13 = DIRECTION('',(0.,0.,1.));
#14 = DIRECTION('',(1.,0.,-0.));
#15 = MANIFOLD_SOLID_BREP('',#16);
#16 = CLOSED_SHELL('',(#17,#334,#365,#390,#415,#439,#522,#547,#607,#631,
    #738,#763,#823,#847,#936,#961,#986,#1010,#1036,#1054,#1071,#1104,
    #1129,#1154,#1179,#1204,#1221,#1252,#1276,#1300,#1317,#1348,#1372,
    #1396,#1413,#1438,#1463,#1616,#1634,#1652,#1675,#1693,#1722,#1734,
    #1758,#1782,#1811,#1823,#1845,#1862,#1879,#1896,#1913,#1925,#1945,
    #1965,#1982,#1999,#2015,#2031));
#17 = ADVANCED_FACE('',(#18,#189,#239,#273,#307,#318),#329,.T.);
#18 = FACE_BOUND('',#19,.T.);
#19 = EDGE_LOOP('',(#20,#30,#39,#47,#56,#64,#73,#81,#90,#98,#107,#115,
    #123,#132,#140,#148,#157,#165,#174,#182));
#20 = ORIENTED_EDGE('',*,*,#21,.T.);
#21 = EDGE_CURVE('',#22,#24,#26,.T.);
#22 = VERTEX_POINT('',#23);
#23 = CARTESIAN_POINT('',(30.,-49.,5.));
#24 = VERTEX_POINT('',#25);
#25 = CARTESIAN_POINT('',(33.,-49.,5.));
#26 = LINE('',#27,#28);
#27 = CARTESIAN_POINT('',(25.,-49.,5.));
#28 = VECTOR('',#29,1.);
#29 = DIRECTION('',(1.,0.,0.));
#30 = ORIENTED_EDGE('',*,*,#31,.T.);
#31 = EDGE_CURVE('',#24,#32,#34,.T.);
#32 = VERTEX_POINT('',#33);
#33 = CARTESIAN_POINT('',(35.,-47.,5.));
#34 = CIRCLE('',#35,2.);
#35 = AXIS2_PLACEMENT_3D('',#36,#37,#38);
#36 = CARTESIAN_POINT('',(33.,-47.,5.));
#37 = DIRECTION('',(-0.,0.,1.));
#38 = DIRECTION('',(0.,-1.,0.));
#39 = ORIENTED_EDGE('',*,*,#40,.T.);
#40 = EDGE_CURVE('',#32,#41,#43,.T.);
#41 = VERTEX_POINT('',#42);
#42 = CARTESIAN_POINT('',(35.,-33.,5.));
#43 = LINE('',#44,#45);
#44 = CARTESIAN_POINT('',(35.,-49.,5.));
#45 = VECTOR('',#46,1.);
#46 = DIRECTION('',(0.,1.,0.));
#47 = ORIENTED_EDGE('',*,*,#48,.T.);
#48 = EDGE_CURVE('',#41,#49,#51,.T.);
#49 = VERTEX_POINT('',#50);
#50 = CARTESIAN_POINT('',(33.,-31.,5.));
#51 = CIRCLE('',#52,2.);
#52 = AXIS2_PLACEMENT_3D('',#53,#54,#55);
#53 = CARTESIAN_POINT('',(33.,-33.,5.));
#54 = DIRECTION('',(-0.,0.,1.));
#55 = DIRECTION('',(0.,-1.,0.));
#56 = ORIENTED_EDGE('',*,*,#57,.T.);
#57 = EDGE_CURVE('',#49,#58,#60,.T.);
#58 = VERTEX_POINT('',#59);
#59 = CARTESIAN_POINT('',(30.000000000001,-31.,5.));
#60 = LINE('',#61,#62);
#61 = CARTESIAN_POINT('',(35.,-31.,5.));
#62 = VECTOR('',#63,1.);
#63 = DIRECTION('',(-1.,0.,0.));
#64 = ORIENTED_EDGE('',*,*,#65,.F.);
#65 = EDGE_CURVE('',#66,#58,#68,.T.);
#66 = VERTEX_POINT('',#67);
#67 = CARTESIAN_POINT('',(25.000000000001,-26.,5.));
#68 = CIRCLE('',#69,5.);
#69 = AXIS2_PLACEMENT_3D('',#70,#71,#72);
#70 = CARTESIAN_POINT('',(30.000000000001,-26.,5.));
#71 = DIRECTION('',(-0.,0.,1.));
#72 = DIRECTION('',(0.,-1.,0.));
#73 = ORIENTED_EDGE('',*,*,#74,.T.);
#74 = EDGE_CURVE('',#66,#75,#77,.T.);
#75 = VERTEX_POINT('',#76);
#76 = CARTESIAN_POINT('',(25.000000000001,8.,5.));
#77 = LINE('',#78,#79);
#78 = CARTESIAN_POINT('',(25.,-65.,5.));
#79 = VECTOR('',#80,1.);
#80 = DIRECTION('',(0.,1.,0.));
#81 = ORIENTED_EDGE('',*,*,#82,.T.);
#82 = EDGE_CURVE('',#75,#83,#85,.T.);
#83 = VERTEX_POINT('',#84);
#84 = CARTESIAN_POINT('',(23.000000000001,10.,5.));
#85 = CIRCLE('',#86,2.);
#86 = AXIS2_PLACEMENT_3D('',#87,#88,#89);
#87 = CARTESIAN_POINT('',(23.000000000001,8.,5.));
#88 = DIRECTION('',(-0.,0.,1.));
#89 = DIRECTION('',(0.,-1.,0.));
#90 = ORIENTED_EDGE('',*,*,#91,.T.);
#91 = EDGE_CURVE('',#83,#92,#94,.T.);
#92 = VERTEX_POINT('',#93);
#93 = CARTESIAN_POINT('',(-23.,10.,5.));
#94 = LINE('',#95,#96);
#95 = CARTESIAN_POINT('',(25.,10.,5.));
#96 = VECTOR('',#97,1.);
#97 = DIRECTION('',(-1.,0.,0.));
#98 = ORIENTED_EDGE('',*,*,#99,.T.);
#99 = EDGE_CURVE('',#92,#100,#102,.T.);
#100 = VERTEX_POINT('',#101);
#101 = CARTESIAN_POINT('',(-25.,8.,5.));
#102 = CIRCLE('',#103,2.);
#103 = AXIS2_PLACEMENT_3D('',#104,#105,#106);
#104 = CARTESIAN_POINT('',(-23.,8.,5.));
#105 = DIRECTION('',(-0.,0.,1.));
#106 = DIRECTION('',(0.,-1.,0.));
#107 = ORIENTED_EDGE('',*,*,#108,.T.);
#108 = EDGE_CURVE('',#100,#109,#111,.T.);
#109 = VERTEX_POINT('',#110);
#110 = CARTESIAN_POINT('',(-25.,-5.5,5.));
#111 = LINE('',#112,#113);
#112 = CARTESIAN_POINT('',(-25.,10.,5.));
#113 = VECTOR('',#114,1.);
#114 = DIRECTION('',(0.,-1.,0.));
#115 = ORIENTED_EDGE('',*,*,#116,.F.);
#116 = EDGE_CURVE('',#117,#109,#119,.T.);
#117 = VERTEX_POINT('',#118);
#118 = CARTESIAN_POINT('',(-22.5,-5.5,5.));
#119 = LINE('',#120,#121);
#120 = CARTESIAN_POINT('',(-22.5,-5.5,5.));
#121 = VECTOR('',#122,1.);
#122 = DIRECTION('',(-1.,0.,0.));
#123 = ORIENTED_EDGE('',*,*,#124,.F.);
#124 = EDGE_CURVE('',#125,#117,#127,.T.);
#125 = VERTEX_POINT('',#126);
#126 = CARTESIAN_POINT('',(-22.5,-19.5,5.));
#127 = CIRCLE('',#128,7.);
#128 = AXIS2_PLACEMENT_3D('',#129,#130,#131);
#129 = CARTESIAN_POINT('',(-22.5,-12.5,5.));
#130 = DIRECTION('',(-0.,0.,1.));
#131 = DIRECTION('',(0.,-1.,0.));
#132 = ORIENTED_EDGE('',*,*,#133,.F.);
#133 = EDGE_CURVE('',#134,#125,#136,.T.);
#134 = VERTEX_POINT('',#135);
#135 = CARTESIAN_POINT('',(-25.,-19.5,5.));
#136 = LINE('',#137,#138);
#137 = CARTESIAN_POINT('',(-25.,-19.5,5.));
#138 = VECTOR('',#139,1.);
#139 = DIRECTION('',(1.,0.,0.));
#140 = ORIENTED_EDGE('',*,*,#141,.T.);
#141 = EDGE_CURVE('',#134,#142,#144,.T.);
#142 = VERTEX_POINT('',#143);
#143 = CARTESIAN_POINT('',(-25.,-55.96165158468,5.));
#144 = LINE('',#145,#146);
#145 = CARTESIAN_POINT('',(-25.,10.,5.));
#146 = VECTOR('',#147,1.);
#147 = DIRECTION('',(0.,-1.,0.));
#148 = ORIENTED_EDGE('',*,*,#149,.F.);
#149 = EDGE_CURVE('',#150,#142,#152,.T.);
#150 = VERTEX_POINT('',#151);
#151 = CARTESIAN_POINT('',(-15.96165158468,-65.,5.));
#152 = CIRCLE('',#153,7.);
#153 = AXIS2_PLACEMENT_3D('',#154,#155,#156);
#154 = CARTESIAN_POINT('',(-22.5,-62.5,5.));
#155 = DIRECTION('',(-0.,0.,1.));
#156 = DIRECTION('',(0.552770798393,-0.833333333333,0.));
#157 = ORIENTED_EDGE('',*,*,#158,.T.);
#158 = EDGE_CURVE('',#150,#159,#161,.T.);
#159 = VERTEX_POINT('',#160);
#160 = CARTESIAN_POINT('',(15.961651584689,-65.,5.));
#161 = LINE('',#162,#163);
#162 = CARTESIAN_POINT('',(-25.,-65.,5.));
#163 = VECTOR('',#164,1.);
#164 = DIRECTION('',(1.,0.,0.));
#165 = ORIENTED_EDGE('',*,*,#166,.F.);
#166 = EDGE_CURVE('',#167,#159,#169,.T.);
#167 = VERTEX_POINT('',#168);
#168 = CARTESIAN_POINT('',(25.,-55.96165158468,5.));
#169 = CIRCLE('',#170,7.);
#170 = AXIS2_PLACEMENT_3D('',#171,#172,#173);
#171 = CARTESIAN_POINT('',(22.5,-62.5,5.));
#172 = DIRECTION('',(0.,-0.,1.));
#173 = DIRECTION('',(0.833333333303,0.552770798438,0.));
#174 = ORIENTED_EDGE('',*,*,#175,.T.);
#175 = EDGE_CURVE('',#167,#176,#178,.T.);
#176 = VERTEX_POINT('',#177);
#177 = CARTESIAN_POINT('',(25.,-54.,5.));
#178 = LINE('',#179,#180);
#179 = CARTESIAN_POINT('',(25.,-65.,5.));
#180 = VECTOR('',#181,1.);
#181 = DIRECTION('',(0.,1.,0.));
#182 = ORIENTED_EDGE('',*,*,#183,.T.);
#183 = EDGE_CURVE('',#176,#22,#184,.T.);
#184 = CIRCLE('',#185,5.);
#185 = AXIS2_PLACEMENT_3D('',#186,#187,#188);
#186 = CARTESIAN_POINT('',(30.,-54.,5.));
#187 = DIRECTION('',(-0.,-0.,-1.));
#188 = DIRECTION('',(0.,-1.,0.));
#189 = FACE_BOUND('',#190,.T.);
#190 = EDGE_LOOP('',(#191,#201,#209,#217,#225,#233));
#191 = ORIENTED_EDGE('',*,*,#192,.F.);
#192 = EDGE_CURVE('',#193,#195,#197,.T.);
#193 = VERTEX_POINT('',#194);
#194 = CARTESIAN_POINT('',(-3.E-15,-20.84529946162,5.));
#195 = VERTEX_POINT('',#196);
#196 = CARTESIAN_POINT('',(-16.58845726812,-30.42264973081,5.));
#197 = LINE('',#198,#199);
#198 = CARTESIAN_POINT('',(-0.5,-21.13397459621,5.));
#199 = VECTOR('',#200,1.);
#200 = DIRECTION('',(-0.866025403784,-0.5,0.));
#201 = ORIENTED_EDGE('',*,*,#202,.F.);
#202 = EDGE_CURVE('',#203,#193,#205,.T.);
#203 = VERTEX_POINT('',#204);
#204 = CARTESIAN_POINT('',(16.58845726812,-30.42264973081,5.));
#205 = LINE('',#206,#207);
#206 = CARTESIAN_POINT('',(16.08845726812,-30.13397459621,5.));
#207 = VECTOR('',#208,1.);
#208 = DIRECTION('',(-0.866025403784,0.5,0.));
#209 = ORIENTED_EDGE('',*,*,#210,.F.);
#210 = EDGE_CURVE('',#211,#203,#213,.T.);
#211 = VERTEX_POINT('',#212);
#212 = CARTESIAN_POINT('',(16.58845726812,-49.57735026919,5.));
#213 = LINE('',#214,#215);
#214 = CARTESIAN_POINT('',(16.58845726812,-49.,5.));
#215 = VECTOR('',#216,1.);
#216 = DIRECTION('',(0.,1.,0.));
#217 = ORIENTED_EDGE('',*,*,#218,.F.);
#218 = EDGE_CURVE('',#219,#211,#221,.T.);
#219 = VERTEX_POINT('',#220);
#220 = CARTESIAN_POINT('',(-3.E-15,-59.15470053837,5.));
#221 = LINE('',#222,#223);
#222 = CARTESIAN_POINT('',(0.5,-58.86602540378,5.));
#223 = VECTOR('',#224,1.);
#224 = DIRECTION('',(0.866025403784,0.5,0.));
#225 = ORIENTED_EDGE('',*,*,#226,.F.);
#226 = EDGE_CURVE('',#227,#219,#229,.T.);
#227 = VERTEX_POINT('',#228);
#228 = CARTESIAN_POINT('',(-16.58845726812,-49.57735026919,5.));
#229 = LINE('',#230,#231);
#230 = CARTESIAN_POINT('',(-16.08845726812,-49.86602540378,5.));
#231 = VECTOR('',#232,1.);
#232 = DIRECTION('',(0.866025403784,-0.5,0.));
#233 = ORIENTED_EDGE('',*,*,#234,.F.);
#234 = EDGE_CURVE('',#195,#227,#235,.T.);
#235 = LINE('',#236,#237);
#236 = CARTESIAN_POINT('',(-16.58845726812,-31.,5.));
#237 = VECTOR('',#238,1.);
#238 = DIRECTION('',(0.,-1.,0.));
#239 = FACE_BOUND('',#240,.T.);
#240 = EDGE_LOOP('',(#241,#251,#259,#267));
#241 = ORIENTED_EDGE('',*,*,#242,.F.);
#242 = EDGE_CURVE('',#243,#245,#247,.T.);
#243 = VERTEX_POINT('',#244);
#244 = CARTESIAN_POINT('',(31.,-33.,5.));
#245 = VERTEX_POINT('',#246);
#246 = CARTESIAN_POINT('',(31.,-47.,5.));
#247 = LINE('',#248,#249);
#248 = CARTESIAN_POINT('',(31.,-33.,5.));
#249 = VECTOR('',#250,1.);
#250 = DIRECTION('',(0.,-1.,0.));
#251 = ORIENTED_EDGE('',*,*,#252,.F.);
#252 = EDGE_CURVE('',#253,#243,#255,.T.);
#253 = VERTEX_POINT('',#254);
#254 = CARTESIAN_POINT('',(33.,-33.,5.));
#255 = LINE('',#256,#257);
#256 = CARTESIAN_POINT('',(33.,-33.,5.));
#257 = VECTOR('',#258,1.);
#258 = DIRECTION('',(-1.,0.,0.));
#259 = ORIENTED_EDGE('',*,*,#260,.F.);
#260 = EDGE_CURVE('',#261,#253,#263,.T.);
#261 = VERTEX_POINT('',#262);
#262 = CARTESIAN_POINT('',(33.,-47.,5.));
#263 = LINE('',#264,#265);
#264 = CARTESIAN_POINT('',(33.,-47.,5.));
#265 = VECTOR('',#266,1.);
#266 = DIRECTION('',(0.,1.,0.));
#267 = ORIENTED_EDGE('',*,*,#268,.F.);
#268 = EDGE_CURVE('',#245,#261,#269,.T.);
#269 = LINE('',#270,#271);
#270 = CARTESIAN_POINT('',(31.,-47.,5.));
#271 = VECTOR('',#272,1.);
#272 = DIRECTION('',(1.,0.,0.));
#273 = FACE_BOUND('',#274,.T.);
#274 = EDGE_LOOP('',(#275,#285,#293,#301));
#275 = ORIENTED_EDGE('',*,*,#276,.F.);
#276 = EDGE_CURVE('',#277,#279,#281,.T.);
#277 = VERTEX_POINT('',#278);
#278 = CARTESIAN_POINT('',(25.5,-33.,5.));
#279 = VERTEX_POINT('',#280);
#280 = CARTESIAN_POINT('',(25.5,-46.99999999999,5.));
#281 = LINE('',#282,#283);
#282 = CARTESIAN_POINT('',(25.5,-33.,5.));
#283 = VECTOR('',#284,1.);
#284 = DIRECTION('',(0.,-1.,0.));
#285 = ORIENTED_EDGE('',*,*,#286,.F.);
#286 = EDGE_CURVE('',#287,#277,#289,.T.);
#287 = VERTEX_POINT('',#288);
#288 = CARTESIAN_POINT('',(27.5,-33.,5.));
#289 = LINE('',#290,#291);
#290 = CARTESIAN_POINT('',(27.5,-33.,5.));
#291 = VECTOR('',#292,1.);
#292 = DIRECTION('',(-1.,0.,0.));
#293 = ORIENTED_EDGE('',*,*,#294,.F.);
#294 = EDGE_CURVE('',#295,#287,#297,.T.);
#295 = VERTEX_POINT('',#296);
#296 = CARTESIAN_POINT('',(27.5,-46.99999999999,5.));
#297 = LINE('',#298,#299);
#298 = CARTESIAN_POINT('',(27.5,-46.99999999999,5.));
#299 = VECTOR('',#300,1.);
#300 = DIRECTION('',(0.,1.,0.));
#301 = ORIENTED_EDGE('',*,*,#302,.F.);
#302 = EDGE_CURVE('',#279,#295,#303,.T.);
#303 = LINE('',#304,#305);
#304 = CARTESIAN_POINT('',(25.5,-46.99999999999,5.));
#305 = VECTOR('',#306,1.);
#306 = DIRECTION('',(1.,0.,0.));
#307 = FACE_BOUND('',#308,.T.);
#308 = EDGE_LOOP('',(#309));
#309 = ORIENTED_EDGE('',*,*,#310,.F.);
#310 = EDGE_CURVE('',#311,#311,#313,.T.);
#311 = VERTEX_POINT('',#312);
#312 = CARTESIAN_POINT('',(-9.25,0.,5.));
#313 = CIRCLE('',#314,3.25);
#314 = AXIS2_PLACEMENT_3D('',#315,#316,#317);
#315 = CARTESIAN_POINT('',(-12.5,0.,5.));
#316 = DIRECTION('',(0.,0.,1.));
#317 = DIRECTION('',(1.,0.,0.));
#318 = FACE_BOUND('',#319,.T.);
#319 = EDGE_LOOP('',(#320));
#320 = ORIENTED_EDGE('',*,*,#321,.F.);
#321 = EDGE_CURVE('',#322,#322,#324,.T.);
#322 = VERTEX_POINT('',#323);
#323 = CARTESIAN_POINT('',(15.75,0.,5.));
#324 = CIRCLE('',#325,3.25);
#325 = AXIS2_PLACEMENT_3D('',#326,#327,#328);
#326 = CARTESIAN_POINT('',(12.5,0.,5.));
#327 = DIRECTION('',(0.,0.,1.));
#328 = DIRECTION('',(1.,0.,0.));
#329 = PLANE('',#330);
#330 = AXIS2_PLACEMENT_3D('',#331,#332,#333);
#331 = CARTESIAN_POINT('',(2.263667916896,-26.94283435751,5.));
#332 = DIRECTION('',(0.,0.,1.));
#333 = DIRECTION('',(1.,0.,0.));
#334 = ADVANCED_FACE('',(#335),#360,.F.);
#335 = FACE_BOUND('',#336,.F.);
#336 = EDGE_LOOP('',(#337,#347,#353,#354));
#337 = ORIENTED_EDGE('',*,*,#338,.F.);
#338 = EDGE_CURVE('',#339,#341,#343,.T.);
#339 = VERTEX_POINT('',#340);
#340 = CARTESIAN_POINT('',(30.,-49.,0.));
#341 = VERTEX_POINT('',#342);
#342 = CARTESIAN_POINT('',(33.,-49.,0.));
#343 = LINE('',#344,#345);
#344 = CARTESIAN_POINT('',(25.,-49.,0.));
#345 = VECTOR('',#346,1.);
#346 = DIRECTION('',(1.,0.,0.));
#347 = ORIENTED_EDGE('',*,*,#348,.T.);
#348 = EDGE_CURVE('',#339,#22,#349,.T.);
#349 = LINE('',#350,#351);
#350 = CARTESIAN_POINT('',(30.,-49.,3.2722E-12));
#351 = VECTOR('',#352,1.);
#352 = DIRECTION('',(0.,0.,1.));
#353 = ORIENTED_EDGE('',*,*,#21,.T.);
#354 = ORIENTED_EDGE('',*,*,#355,.F.);
#355 = EDGE_CURVE('',#341,#24,#356,.T.);
#356 = LINE('',#357,#358);
#357 = CARTESIAN_POINT('',(33.,-49.,0.));
#358 = VECTOR('',#359,1.);
#359 = DIRECTION('',(0.,0.,1.));
#360 = PLANE('',#361);
#361 = AXIS2_PLACEMENT_3D('',#362,#363,#364);
#362 = CARTESIAN_POINT('',(25.,-49.,0.));
#363 = DIRECTION('',(0.,1.,0.));
#364 = DIRECTION('',(1.,0.,0.));
#365 = ADVANCED_FACE('',(#366),#385,.T.);
#366 = FACE_BOUND('',#367,.T.);
#367 = EDGE_LOOP('',(#368,#377,#383,#384));
#368 = ORIENTED_EDGE('',*,*,#369,.T.);
#369 = EDGE_CURVE('',#341,#370,#372,.T.);
#370 = VERTEX_POINT('',#371);
#371 = CARTESIAN_POINT('',(35.,-47.,0.));
#372 = CIRCLE('',#373,2.);
#373 = AXIS2_PLACEMENT_3D('',#374,#375,#376);
#374 = CARTESIAN_POINT('',(33.,-47.,0.));
#375 = DIRECTION('',(-0.,0.,1.));
#376 = DIRECTION('',(0.,-1.,0.));
#377 = ORIENTED_EDGE('',*,*,#378,.T.);
#378 = EDGE_CURVE('',#370,#32,#379,.T.);
#379 = LINE('',#380,#381);
#380 = CARTESIAN_POINT('',(35.,-47.,0.));
#381 = VECTOR('',#382,1.);
#382 = DIRECTION('',(0.,0.,1.));
#383 = ORIENTED_EDGE('',*,*,#31,.F.);
#384 = ORIENTED_EDGE('',*,*,#355,.F.);
#385 = CYLINDRICAL_SURFACE('',#386,2.);
#386 = AXIS2_PLACEMENT_3D('',#387,#388,#389);
#387 = CARTESIAN_POINT('',(33.,-47.,0.));
#388 = DIRECTION('',(0.,0.,1.));
#389 = DIRECTION('',(0.,-1.,0.));
#390 = ADVANCED_FACE('',(#391),#410,.F.);
#391 = FACE_BOUND('',#392,.T.);
#392 = EDGE_LOOP('',(#393,#402,#403,#404));
#393 = ORIENTED_EDGE('',*,*,#394,.T.);
#394 = EDGE_CURVE('',#395,#339,#397,.T.);
#395 = VERTEX_POINT('',#396);
#396 = CARTESIAN_POINT('',(25.,-54.,0.));
#397 = CIRCLE('',#398,5.);
#398 = AXIS2_PLACEMENT_3D('',#399,#400,#401);
#399 = CARTESIAN_POINT('',(30.,-54.,0.));
#400 = DIRECTION('',(-0.,-0.,-1.));
#401 = DIRECTION('',(0.,-1.,0.));
#402 = ORIENTED_EDGE('',*,*,#348,.T.);
#403 = ORIENTED_EDGE('',*,*,#183,.F.);
#404 = ORIENTED_EDGE('',*,*,#405,.F.);
#405 = EDGE_CURVE('',#395,#176,#406,.T.);
#406 = LINE('',#407,#408);
#407 = CARTESIAN_POINT('',(25.,-54.,3.2722E-12));
#408 = VECTOR('',#409,1.);
#409 = DIRECTION('',(0.,0.,1.));
#410 = CYLINDRICAL_SURFACE('',#411,5.);
#411 = AXIS2_PLACEMENT_3D('',#412,#413,#414);
#412 = CARTESIAN_POINT('',(30.,-54.,3.2722E-12));
#413 = DIRECTION('',(0.,0.,1.));
#414 = DIRECTION('',(-1.,2.436E-14,0.));
#415 = ADVANCED_FACE('',(#416),#434,.F.);
#416 = FACE_BOUND('',#417,.F.);
#417 = EDGE_LOOP('',(#418,#426,#427,#428));
#418 = ORIENTED_EDGE('',*,*,#419,.F.);
#419 = EDGE_CURVE('',#370,#420,#422,.T.);
#420 = VERTEX_POINT('',#421);
#421 = CARTESIAN_POINT('',(35.,-33.,0.));
#422 = LINE('',#423,#424);
#423 = CARTESIAN_POINT('',(35.,-49.,0.));
#424 = VECTOR('',#425,1.);
#425 = DIRECTION('',(0.,1.,0.));
#426 = ORIENTED_EDGE('',*,*,#378,.T.);
#427 = ORIENTED_EDGE('',*,*,#40,.T.);
#428 = ORIENTED_EDGE('',*,*,#429,.F.);
#429 = EDGE_CURVE('',#420,#41,#430,.T.);
#430 = LINE('',#431,#432);
#431 = CARTESIAN_POINT('',(35.,-33.,0.));
#432 = VECTOR('',#433,1.);
#433 = DIRECTION('',(0.,0.,1.));
#434 = PLANE('',#435);
#435 = AXIS2_PLACEMENT_3D('',#436,#437,#438);
#436 = CARTESIAN_POINT('',(35.,-49.,0.));
#437 = DIRECTION('',(-1.,0.,0.));
#438 = DIRECTION('',(0.,1.,0.));
#439 = ADVANCED_FACE('',(#440),#517,.T.);
#440 = FACE_BOUND('',#441,.T.);
#441 = EDGE_LOOP('',(#442,#443,#486,#494,#502,#510,#516));
#442 = ORIENTED_EDGE('',*,*,#175,.F.);
#443 = ORIENTED_EDGE('',*,*,#444,.T.);
#444 = EDGE_CURVE('',#167,#445,#447,.T.);
#445 = VERTEX_POINT('',#446);
#446 = CARTESIAN_POINT('',(24.99999999991,-60.84168760468,9.));
#447 = B_SPLINE_CURVE_WITH_KNOTS('',7,(#448,#449,#450,#451,#452,#453,
    #454,#455,#456,#457,#458,#459,#460,#461,#462,#463,#464,#465,#466,
    #467,#468,#469,#470,#471,#472,#473,#474,#475,#476,#477,#478,#479,
    #480,#481,#482,#483,#484,#485),.UNSPECIFIED.,.F.,.F.,(8,6,6,6,6,6,8)
  ,(0.,0.234385525737,0.537950975981,0.733466118625,0.789669000152,
    0.858186433154,1.),.UNSPECIFIED.);
#448 = CARTESIAN_POINT('',(24.999999999997,-55.96165158468,5.));
#449 = CARTESIAN_POINT('',(24.999999999997,-56.1920296367,5.));
#450 = CARTESIAN_POINT('',(24.999999999997,-56.42243320364,
    5.013505802042));
#451 = CARTESIAN_POINT('',(24.999999999997,-56.65189528424,
    5.040266326925));
#452 = CARTESIAN_POINT('',(24.999999999997,-56.87953198827,
    5.079928641248));
#453 = CARTESIAN_POINT('',(24.999999999997,-57.10453997906,
    5.132057531677));
#454 = CARTESIAN_POINT('',(24.999999999997,-57.32619391595,
    5.196155079221));
#455 = CARTESIAN_POINT('',(24.999999999996,-57.82573423202,
    5.369496971093));
#456 = CARTESIAN_POINT('',(24.999999999996,-58.10086395315,
    5.486466817672));
#457 = CARTESIAN_POINT('',(24.999999999996,-58.3679216767,5.621438195261
    ));
#458 = CARTESIAN_POINT('',(24.999999999996,-58.62579589181,5.7731716763)
  );
#459 = CARTESIAN_POINT('',(24.999999999996,-58.87351767477,
    5.940424593624));
#460 = CARTESIAN_POINT('',(24.999999999996,-59.11024972896,
    6.121980097786));
#461 = CARTESIAN_POINT('',(24.999999999996,-59.47980356866,6.44265074814
    ));
#462 = CARTESIAN_POINT('',(24.999999999996,-59.61957583225,
    6.573833916051));
#463 = CARTESIAN_POINT('',(24.999999999995,-59.7541406326,6.710391031857
    ));
#464 = CARTESIAN_POINT('',(24.999999999995,-59.88318216887,
    6.852162320056));
#465 = CARTESIAN_POINT('',(24.999999999995,-60.0062780363,6.999014168472
    ));
#466 = CARTESIAN_POINT('',(24.999999999995,-60.12283428774,
    7.150895141407));
#467 = CARTESIAN_POINT('',(24.999999999995,-60.26332049098,
    7.353094949699));
#468 = CARTESIAN_POINT('',(24.999999999995,-60.29407104211,
    7.398665998338));
#469 = CARTESIAN_POINT('',(24.999999999995,-60.32418277905,
    7.444663352332));
#470 = CARTESIAN_POINT('',(24.999999999995,-60.35363051423,
    7.491088980732));
#471 = CARTESIAN_POINT('',(24.999999999995,-60.38238587961,
    7.537944969211));
#472 = CARTESIAN_POINT('',(24.999999999995,-60.41041732673,
    7.585233520068));
#473 = CARTESIAN_POINT('',(24.999999999995,-60.47093863964,
    7.691137013041));
#474 = CARTESIAN_POINT('',(24.999999999995,-60.50305854106,
    7.749961928302));
#475 = CARTESIAN_POINT('',(24.999999999995,-60.53398753397,
    7.809437073979));
#476 = CARTESIAN_POINT('',(24.999999999995,-60.56365301338,
    7.869564964018));
#477 = CARTESIAN_POINT('',(24.999999999995,-60.59197300017,
    7.930344797354));
#478 = CARTESIAN_POINT('',(24.999999999995,-60.61885707504,
    7.991772004925));
#479 = CARTESIAN_POINT('',(24.999999999994,-60.69667582238,
    8.182298115826));
#480 = CARTESIAN_POINT('',(24.999999999994,-60.74261346718,
    8.313589620088));
#481 = CARTESIAN_POINT('',(24.999999999994,-60.7810871255,8.447526195694
    ));
#482 = CARTESIAN_POINT('',(24.999999999994,-60.8110618546,8.583771469852
    ));
#483 = CARTESIAN_POINT('',(24.999999999994,-60.83148167612,
    8.721820507976));
#484 = CARTESIAN_POINT('',(24.999999999994,-60.84168760481,
    8.860920563896));
#485 = CARTESIAN_POINT('',(24.999999999994,-60.84168760481,9.));
#486 = ORIENTED_EDGE('',*,*,#487,.T.);
#487 = EDGE_CURVE('',#445,#488,#490,.T.);
#488 = VERTEX_POINT('',#489);
#489 = CARTESIAN_POINT('',(24.999999999955,-60.84168760465,10.));
#490 = LINE('',#491,#492);
#491 = CARTESIAN_POINT('',(24.999999999955,-60.84168760465,5.));
#492 = VECTOR('',#493,1.);
#493 = DIRECTION('',(0.,0.,1.));
#494 = ORIENTED_EDGE('',*,*,#495,.F.);
#495 = EDGE_CURVE('',#496,#488,#498,.T.);
#496 = VERTEX_POINT('',#497);
#497 = CARTESIAN_POINT('',(25.,-63.,10.));
#498 = LINE('',#499,#500);
#499 = CARTESIAN_POINT('',(25.,-65.,10.));
#500 = VECTOR('',#501,1.);
#501 = DIRECTION('',(0.,1.,0.));
#502 = ORIENTED_EDGE('',*,*,#503,.F.);
#503 = EDGE_CURVE('',#504,#496,#506,.T.);
#504 = VERTEX_POINT('',#505);
#505 = CARTESIAN_POINT('',(25.,-63.,0.));
#506 = LINE('',#507,#508);
#507 = CARTESIAN_POINT('',(25.,-63.,-1.30888E-12));
#508 = VECTOR('',#509,1.);
#509 = DIRECTION('',(0.,0.,1.));
#510 = ORIENTED_EDGE('',*,*,#511,.T.);
#511 = EDGE_CURVE('',#504,#395,#512,.T.);
#512 = LINE('',#513,#514);
#513 = CARTESIAN_POINT('',(25.,-10.,0.));
#514 = VECTOR('',#515,1.);
#515 = DIRECTION('',(0.,1.,0.));
#516 = ORIENTED_EDGE('',*,*,#405,.T.);
#517 = PLANE('',#518);
#518 = AXIS2_PLACEMENT_3D('',#519,#520,#521);
#519 = CARTESIAN_POINT('',(24.999999999999,-29.5835790472,2.916420952805
    ));
#520 = DIRECTION('',(1.,-2.436E-14,6.5444E-13));
#521 = DIRECTION('',(-6.5444E-13,0.,1.));
#522 = ADVANCED_FACE('',(#523),#542,.T.);
#523 = FACE_BOUND('',#524,.T.);
#524 = EDGE_LOOP('',(#525,#534,#540,#541));
#525 = ORIENTED_EDGE('',*,*,#526,.T.);
#526 = EDGE_CURVE('',#420,#527,#529,.T.);
#527 = VERTEX_POINT('',#528);
#528 = CARTESIAN_POINT('',(33.,-31.,0.));
#529 = CIRCLE('',#530,2.);
#530 = AXIS2_PLACEMENT_3D('',#531,#532,#533);
#531 = CARTESIAN_POINT('',(33.,-33.,0.));
#532 = DIRECTION('',(-0.,0.,1.));
#533 = DIRECTION('',(0.,-1.,0.));
#534 = ORIENTED_EDGE('',*,*,#535,.T.);
#535 = EDGE_CURVE('',#527,#49,#536,.T.);
#536 = LINE('',#537,#538);
#537 = CARTESIAN_POINT('',(33.,-31.,0.));
#538 = VECTOR('',#539,1.);
#539 = DIRECTION('',(0.,0.,1.));
#540 = ORIENTED_EDGE('',*,*,#48,.F.);
#541 = ORIENTED_EDGE('',*,*,#429,.F.);
#542 = CYLINDRICAL_SURFACE('',#543,2.);
#543 = AXIS2_PLACEMENT_3D('',#544,#545,#546);
#544 = CARTESIAN_POINT('',(33.,-33.,0.));
#545 = DIRECTION('',(0.,0.,1.));
#546 = DIRECTION('',(1.,0.,-0.));
#547 = ADVANCED_FACE('',(#548),#602,.F.);
#548 = FACE_BOUND('',#549,.T.);
#549 = EDGE_LOOP('',(#550,#551,#552,#595));
#550 = ORIENTED_EDGE('',*,*,#444,.F.);
#551 = ORIENTED_EDGE('',*,*,#166,.T.);
#552 = ORIENTED_EDGE('',*,*,#553,.T.);
#553 = EDGE_CURVE('',#159,#554,#556,.T.);
#554 = VERTEX_POINT('',#555);
#555 = CARTESIAN_POINT('',(20.841687604822,-65.,9.));
#556 = B_SPLINE_CURVE_WITH_KNOTS('',7,(#557,#558,#559,#560,#561,#562,
    #563,#564,#565,#566,#567,#568,#569,#570,#571,#572,#573,#574,#575,
    #576,#577,#578,#579,#580,#581,#582,#583,#584,#585,#586,#587,#588,
    #589,#590,#591,#592,#593,#594),.UNSPECIFIED.,.F.,.F.,(8,6,6,6,6,6,8)
  ,(0.,0.234385525737,0.537950975981,0.733466118625,0.789669000152,
    0.858186433154,1.),.UNSPECIFIED.);
#557 = CARTESIAN_POINT('',(15.961651584689,-65.,5.));
#558 = CARTESIAN_POINT('',(16.192029636711,-65.,5.));
#559 = CARTESIAN_POINT('',(16.422433203651,-65.,5.013505802042));
#560 = CARTESIAN_POINT('',(16.651895284245,-65.,5.040266326925));
#561 = CARTESIAN_POINT('',(16.879531988279,-65.,5.079928641248));
#562 = CARTESIAN_POINT('',(17.10453997907,-65.,5.132057531677));
#563 = CARTESIAN_POINT('',(17.326193915956,-65.,5.196155079221));
#564 = CARTESIAN_POINT('',(17.825734232023,-65.,5.369496971093));
#565 = CARTESIAN_POINT('',(18.100863953156,-65.,5.486466817672));
#566 = CARTESIAN_POINT('',(18.367921676703,-65.,5.621438195261));
#567 = CARTESIAN_POINT('',(18.625795891822,-65.,5.773171676299));
#568 = CARTESIAN_POINT('',(18.87351767478,-65.,5.940424593624));
#569 = CARTESIAN_POINT('',(19.110249728971,-65.,6.121980097786));
#570 = CARTESIAN_POINT('',(19.479803568666,-65.,6.44265074814));
#571 = CARTESIAN_POINT('',(19.619575832263,-65.,6.573833916051));
#572 = CARTESIAN_POINT('',(19.754140632606,-65.,6.710391031857));
#573 = CARTESIAN_POINT('',(19.883182168875,-65.,6.852162320056));
#574 = CARTESIAN_POINT('',(20.006278036309,-65.,6.999014168472));
#575 = CARTESIAN_POINT('',(20.122834287749,-65.,7.150895141407));
#576 = CARTESIAN_POINT('',(20.26332049099,-65.,7.353094949699));
#577 = CARTESIAN_POINT('',(20.294071042124,-65.,7.398665998338));
#578 = CARTESIAN_POINT('',(20.324182779062,-65.,7.444663352332));
#579 = CARTESIAN_POINT('',(20.353630514238,-65.,7.491088980732));
#580 = CARTESIAN_POINT('',(20.382385879625,-65.,7.537944969211));
#581 = CARTESIAN_POINT('',(20.410417326736,-65.,7.585233520068));
#582 = CARTESIAN_POINT('',(20.470938639653,-65.,7.691137013041));
#583 = CARTESIAN_POINT('',(20.503058541067,-65.,7.749961928302));
#584 = CARTESIAN_POINT('',(20.533987533982,-65.,7.809437073979));
#585 = CARTESIAN_POINT('',(20.563653013396,-65.,7.869564964018));
#586 = CARTESIAN_POINT('',(20.591973000177,-65.,7.930344797353));
#587 = CARTESIAN_POINT('',(20.618857075049,-65.,7.991772004925));
#588 = CARTESIAN_POINT('',(20.696675822396,-65.,8.182298115826));
#589 = CARTESIAN_POINT('',(20.742613467191,-65.,8.313589620088));
#590 = CARTESIAN_POINT('',(20.781087125512,-65.,8.447526195693));
#591 = CARTESIAN_POINT('',(20.811061854613,-65.,8.583771469851));
#592 = CARTESIAN_POINT('',(20.831481676129,-65.,8.721820507976));
#593 = CARTESIAN_POINT('',(20.841687604822,-65.,8.860920563896));
#594 = CARTESIAN_POINT('',(20.841687604822,-65.,9.));
#595 = ORIENTED_EDGE('',*,*,#596,.F.);
#596 = EDGE_CURVE('',#445,#554,#597,.T.);
#597 = CIRCLE('',#598,3.);
#598 = AXIS2_PLACEMENT_3D('',#599,#600,#601);
#599 = CARTESIAN_POINT('',(22.5,-62.5,9.));
#600 = DIRECTION('',(0.,-0.,1.));
#601 = DIRECTION('',(0.833333333303,0.552770798438,0.));
#602 = TOROIDAL_SURFACE('',#603,7.,4.);
#603 = AXIS2_PLACEMENT_3D('',#604,#605,#606);
#604 = CARTESIAN_POINT('',(22.5,-62.5,9.));
#605 = DIRECTION('',(-0.,-0.,-1.));
#606 = DIRECTION('',(0.833333333303,0.552770798438,0.));
#607 = ADVANCED_FACE('',(#608),#626,.F.);
#608 = FACE_BOUND('',#609,.F.);
#609 = EDGE_LOOP('',(#610,#618,#619,#620));
#610 = ORIENTED_EDGE('',*,*,#611,.F.);
#611 = EDGE_CURVE('',#527,#612,#614,.T.);
#612 = VERTEX_POINT('',#613);
#613 = CARTESIAN_POINT('',(30.000000000001,-31.,0.));
#614 = LINE('',#615,#616);
#615 = CARTESIAN_POINT('',(35.,-31.,0.));
#616 = VECTOR('',#617,1.);
#617 = DIRECTION('',(-1.,0.,0.));
#618 = ORIENTED_EDGE('',*,*,#535,.T.);
#619 = ORIENTED_EDGE('',*,*,#57,.T.);
#620 = ORIENTED_EDGE('',*,*,#621,.F.);
#621 = EDGE_CURVE('',#612,#58,#622,.T.);
#622 = LINE('',#623,#624);
#623 = CARTESIAN_POINT('',(30.000000000001,-31.,3.2722E-12));
#624 = VECTOR('',#625,1.);
#625 = DIRECTION('',(0.,0.,1.));
#626 = PLANE('',#627);
#627 = AXIS2_PLACEMENT_3D('',#628,#629,#630);
#628 = CARTESIAN_POINT('',(35.,-31.,0.));
#629 = DIRECTION('',(0.,-1.,0.));
#630 = DIRECTION('',(-1.,0.,0.));
#631 = ADVANCED_FACE('',(#632),#733,.T.);
#632 = FACE_BOUND('',#633,.T.);
#633 = EDGE_LOOP('',(#634,#644,#650,#651,#652,#695,#703,#711,#719,#727)
  );
#634 = ORIENTED_EDGE('',*,*,#635,.F.);
#635 = EDGE_CURVE('',#636,#638,#640,.T.);
#636 = VERTEX_POINT('',#637);
#637 = CARTESIAN_POINT('',(20.841687604822,-65.,10.));
#638 = VERTEX_POINT('',#639);
#639 = CARTESIAN_POINT('',(23.,-65.,10.));
#640 = LINE('',#641,#642);
#641 = CARTESIAN_POINT('',(20.841687604822,-65.,10.));
#642 = VECTOR('',#643,1.);
#643 = DIRECTION('',(1.,0.,0.));
#644 = ORIENTED_EDGE('',*,*,#645,.F.);
#645 = EDGE_CURVE('',#554,#636,#646,.T.);
#646 = LINE('',#647,#648);
#647 = CARTESIAN_POINT('',(20.841687604822,-65.,5.));
#648 = VECTOR('',#649,1.);
#649 = DIRECTION('',(0.,0.,1.));
#650 = ORIENTED_EDGE('',*,*,#553,.F.);
#651 = ORIENTED_EDGE('',*,*,#158,.F.);
#652 = ORIENTED_EDGE('',*,*,#653,.T.);
#653 = EDGE_CURVE('',#150,#654,#656,.T.);
#654 = VERTEX_POINT('',#655);
#655 = CARTESIAN_POINT('',(-20.84168760482,-65.,9.));
#656 = B_SPLINE_CURVE_WITH_KNOTS('',7,(#657,#658,#659,#660,#661,#662,
    #663,#664,#665,#666,#667,#668,#669,#670,#671,#672,#673,#674,#675,
    #676,#677,#678,#679,#680,#681,#682,#683,#684,#685,#686,#687,#688,
    #689,#690,#691,#692,#693,#694),.UNSPECIFIED.,.F.,.F.,(8,6,6,6,6,6,8)
  ,(0.,0.234385525737,0.53795097598,0.733466118625,0.789669000151,
    0.858186433153,1.),.UNSPECIFIED.);
#657 = CARTESIAN_POINT('',(-15.96165158468,-65.,5.));
#658 = CARTESIAN_POINT('',(-16.19202963671,-65.,5.));
#659 = CARTESIAN_POINT('',(-16.42243320365,-65.,5.013505802042));
#660 = CARTESIAN_POINT('',(-16.65189528424,-65.,5.040266326925));
#661 = CARTESIAN_POINT('',(-16.87953198827,-65.,5.079928641248));
#662 = CARTESIAN_POINT('',(-17.10453997907,-65.,5.132057531677));
#663 = CARTESIAN_POINT('',(-17.32619391595,-65.,5.196155079221));
#664 = CARTESIAN_POINT('',(-17.82573423202,-65.,5.369496971093));
#665 = CARTESIAN_POINT('',(-18.10086395315,-65.,5.486466817672));
#666 = CARTESIAN_POINT('',(-18.3679216767,-65.,5.621438195261));
#667 = CARTESIAN_POINT('',(-18.62579589182,-65.,5.7731716763));
#668 = CARTESIAN_POINT('',(-18.87351767477,-65.,5.940424593624));
#669 = CARTESIAN_POINT('',(-19.11024972897,-65.,6.121980097786));
#670 = CARTESIAN_POINT('',(-19.47980356866,-65.,6.44265074814));
#671 = CARTESIAN_POINT('',(-19.61957583226,-65.,6.573833916051));
#672 = CARTESIAN_POINT('',(-19.7541406326,-65.,6.710391031857));
#673 = CARTESIAN_POINT('',(-19.88318216887,-65.,6.852162320056));
#674 = CARTESIAN_POINT('',(-20.0062780363,-65.,6.999014168472));
#675 = CARTESIAN_POINT('',(-20.12283428774,-65.,7.150895141407));
#676 = CARTESIAN_POINT('',(-20.26332049099,-65.,7.353094949699));
#677 = CARTESIAN_POINT('',(-20.29407104212,-65.,7.398665998338));
#678 = CARTESIAN_POINT('',(-20.32418277906,-65.,7.444663352332));
#679 = CARTESIAN_POINT('',(-20.35363051423,-65.,7.491088980732));
#680 = CARTESIAN_POINT('',(-20.38238587962,-65.,7.537944969211));
#681 = CARTESIAN_POINT('',(-20.41041732673,-65.,7.585233520068));
#682 = CARTESIAN_POINT('',(-20.47093863965,-65.,7.691137013041));
#683 = CARTESIAN_POINT('',(-20.50305854106,-65.,7.749961928302));
#684 = CARTESIAN_POINT('',(-20.53398753398,-65.,7.809437073979));
#685 = CARTESIAN_POINT('',(-20.56365301339,-65.,7.869564964018));
#686 = CARTESIAN_POINT('',(-20.59197300017,-65.,7.930344797353));
#687 = CARTESIAN_POINT('',(-20.61885707504,-65.,7.991772004925));
#688 = CARTESIAN_POINT('',(-20.69667582239,-65.,8.182298115826));
#689 = CARTESIAN_POINT('',(-20.74261346719,-65.,8.313589620087));
#690 = CARTESIAN_POINT('',(-20.78108712551,-65.,8.447526195695));
#691 = CARTESIAN_POINT('',(-20.81106185461,-65.,8.58377146985));
#692 = CARTESIAN_POINT('',(-20.83148167612,-65.,8.721820507977));
#693 = CARTESIAN_POINT('',(-20.84168760482,-65.,8.860920563896));
#694 = CARTESIAN_POINT('',(-20.84168760482,-65.,9.));
#695 = ORIENTED_EDGE('',*,*,#696,.T.);
#696 = EDGE_CURVE('',#654,#697,#699,.T.);
#697 = VERTEX_POINT('',#698);
#698 = CARTESIAN_POINT('',(-20.84168760482,-65.,10.));
#699 = LINE('',#700,#701);
#700 = CARTESIAN_POINT('',(-20.84168760482,-65.,5.));
#701 = VECTOR('',#702,1.);
#702 = DIRECTION('',(0.,0.,1.));
#703 = ORIENTED_EDGE('',*,*,#704,.F.);
#704 = EDGE_CURVE('',#705,#697,#707,.T.);
#705 = VERTEX_POINT('',#706);
#706 = CARTESIAN_POINT('',(-22.99999999999,-65.,10.));
#707 = LINE('',#708,#709);
#708 = CARTESIAN_POINT('',(-25.,-65.,10.));
#709 = VECTOR('',#710,1.);
#710 = DIRECTION('',(1.,0.,0.));
#711 = ORIENTED_EDGE('',*,*,#712,.F.);
#712 = EDGE_CURVE('',#713,#705,#715,.T.);
#713 = VERTEX_POINT('',#714);
#714 = CARTESIAN_POINT('',(-22.99999999999,-65.,-0.));
#715 = LINE('',#716,#717);
#716 = CARTESIAN_POINT('',(-22.99999999999,-65.,-8.941E-13));
#717 = VECTOR('',#718,1.);
#718 = DIRECTION('',(0.,0.,1.));
#719 = ORIENTED_EDGE('',*,*,#720,.T.);
#720 = EDGE_CURVE('',#713,#721,#723,.T.);
#721 = VERTEX_POINT('',#722);
#722 = CARTESIAN_POINT('',(23.,-65.,0.));
#723 = LINE('',#724,#725);
#724 = CARTESIAN_POINT('',(-25.,-65.,0.));
#725 = VECTOR('',#726,1.);
#726 = DIRECTION('',(1.,0.,0.));
#727 = ORIENTED_EDGE('',*,*,#728,.T.);
#728 = EDGE_CURVE('',#721,#638,#729,.T.);
#729 = LINE('',#730,#731);
#730 = CARTESIAN_POINT('',(23.,-65.,-1.30888E-12));
#731 = VECTOR('',#732,1.);
#732 = DIRECTION('',(0.,0.,1.));
#733 = PLANE('',#734);
#734 = AXIS2_PLACEMENT_3D('',#735,#736,#737);
#735 = CARTESIAN_POINT('',(-2.2E-16,-65.,3.589100953475));
#736 = DIRECTION('',(-0.,-1.,-0.));
#737 = DIRECTION('',(0.,0.,-1.));
#738 = ADVANCED_FACE('',(#739),#758,.F.);
#739 = FACE_BOUND('',#740,.F.);
#740 = EDGE_LOOP('',(#741,#750,#751,#752));
#741 = ORIENTED_EDGE('',*,*,#742,.T.);
#742 = EDGE_CURVE('',#743,#612,#745,.T.);
#743 = VERTEX_POINT('',#744);
#744 = CARTESIAN_POINT('',(25.000000000001,-26.,0.));
#745 = CIRCLE('',#746,5.);
#746 = AXIS2_PLACEMENT_3D('',#747,#748,#749);
#747 = CARTESIAN_POINT('',(30.000000000001,-26.,0.));
#748 = DIRECTION('',(-0.,0.,1.));
#749 = DIRECTION('',(0.,-1.,0.));
#750 = ORIENTED_EDGE('',*,*,#621,.T.);
#751 = ORIENTED_EDGE('',*,*,#65,.F.);
#752 = ORIENTED_EDGE('',*,*,#753,.F.);
#753 = EDGE_CURVE('',#743,#66,#754,.T.);
#754 = LINE('',#755,#756);
#755 = CARTESIAN_POINT('',(25.000000000001,-26.,3.2722E-12));
#756 = VECTOR('',#757,1.);
#757 = DIRECTION('',(0.,0.,1.));
#758 = CYLINDRICAL_SURFACE('',#759,5.);
#759 = AXIS2_PLACEMENT_3D('',#760,#761,#762);
#760 = CARTESIAN_POINT('',(30.000000000001,-26.,3.2722E-12));
#761 = DIRECTION('',(0.,0.,1.));
#762 = DIRECTION('',(-1.,2.436E-14,0.));
#763 = ADVANCED_FACE('',(#764),#818,.F.);
#764 = FACE_BOUND('',#765,.T.);
#765 = EDGE_LOOP('',(#766,#767,#768,#811));
#766 = ORIENTED_EDGE('',*,*,#653,.F.);
#767 = ORIENTED_EDGE('',*,*,#149,.T.);
#768 = ORIENTED_EDGE('',*,*,#769,.T.);
#769 = EDGE_CURVE('',#142,#770,#772,.T.);
#770 = VERTEX_POINT('',#771);
#771 = CARTESIAN_POINT('',(-24.99999999991,-60.84168760468,9.));
#772 = B_SPLINE_CURVE_WITH_KNOTS('',7,(#773,#774,#775,#776,#777,#778,
    #779,#780,#781,#782,#783,#784,#785,#786,#787,#788,#789,#790,#791,
    #792,#793,#794,#795,#796,#797,#798,#799,#800,#801,#802,#803,#804,
    #805,#806,#807,#808,#809,#810),.UNSPECIFIED.,.F.,.F.,(8,6,6,6,6,6,8)
  ,(0.,0.234385525737,0.537950975981,0.733466118625,0.789669000152,
    0.858186433154,1.),.UNSPECIFIED.);
#773 = CARTESIAN_POINT('',(-24.99999999999,-55.96165158468,5.));
#774 = CARTESIAN_POINT('',(-24.99999999999,-56.1920296367,5.));
#775 = CARTESIAN_POINT('',(-24.99999999999,-56.42243320364,
    5.013505802042));
#776 = CARTESIAN_POINT('',(-24.99999999999,-56.65189528424,
    5.040266326925));
#777 = CARTESIAN_POINT('',(-24.99999999999,-56.87953198827,
    5.079928641248));
#778 = CARTESIAN_POINT('',(-24.99999999999,-57.10453997906,
    5.132057531677));
#779 = CARTESIAN_POINT('',(-24.99999999999,-57.32619391595,
    5.196155079221));
#780 = CARTESIAN_POINT('',(-24.99999999999,-57.82573423202,
    5.369496971093));
#781 = CARTESIAN_POINT('',(-24.99999999999,-58.10086395315,
    5.486466817671));
#782 = CARTESIAN_POINT('',(-24.99999999999,-58.3679216767,5.621438195263
    ));
#783 = CARTESIAN_POINT('',(-24.99999999999,-58.62579589181,
    5.773171676298));
#784 = CARTESIAN_POINT('',(-24.99999999999,-58.87351767478,
    5.940424593626));
#785 = CARTESIAN_POINT('',(-24.99999999999,-59.11024972896,
    6.121980097785));
#786 = CARTESIAN_POINT('',(-24.99999999999,-59.47980356866,6.44265074814
    ));
#787 = CARTESIAN_POINT('',(-24.99999999999,-59.61957583226,
    6.573833916051));
#788 = CARTESIAN_POINT('',(-24.99999999999,-59.7541406326,6.710391031857
    ));
#789 = CARTESIAN_POINT('',(-24.99999999999,-59.88318216887,
    6.852162320056));
#790 = CARTESIAN_POINT('',(-24.99999999999,-60.0062780363,6.999014168472
    ));
#791 = CARTESIAN_POINT('',(-24.99999999999,-60.12283428774,
    7.150895141407));
#792 = CARTESIAN_POINT('',(-24.99999999999,-60.26332049098,
    7.353094949699));
#793 = CARTESIAN_POINT('',(-24.99999999999,-60.29407104212,
    7.398665998338));
#794 = CARTESIAN_POINT('',(-24.99999999999,-60.32418277905,
    7.444663352332));
#795 = CARTESIAN_POINT('',(-24.99999999999,-60.35363051423,
    7.491088980732));
#796 = CARTESIAN_POINT('',(-24.99999999999,-60.38238587962,
    7.537944969211));
#797 = CARTESIAN_POINT('',(-24.99999999999,-60.41041732673,
    7.585233520068));
#798 = CARTESIAN_POINT('',(-24.99999999999,-60.47093863964,
    7.691137013041));
#799 = CARTESIAN_POINT('',(-24.99999999999,-60.50305854106,
    7.749961928302));
#800 = CARTESIAN_POINT('',(-24.99999999999,-60.53398753397,
    7.809437073979));
#801 = CARTESIAN_POINT('',(-24.99999999999,-60.56365301339,
    7.869564964018));
#802 = CARTESIAN_POINT('',(-24.99999999999,-60.59197300017,
    7.930344797353));
#803 = CARTESIAN_POINT('',(-24.99999999999,-60.61885707504,
    7.991772004925));
#804 = CARTESIAN_POINT('',(-24.99999999999,-60.69667582239,
    8.182298115826));
#805 = CARTESIAN_POINT('',(-24.99999999999,-60.74261346718,
    8.313589620087));
#806 = CARTESIAN_POINT('',(-24.99999999999,-60.7810871255,8.447526195694
    ));
#807 = CARTESIAN_POINT('',(-24.99999999999,-60.8110618546,8.58377146985)
  );
#808 = CARTESIAN_POINT('',(-24.99999999999,-60.83148167612,
    8.721820507977));
#809 = CARTESIAN_POINT('',(-24.99999999999,-60.84168760481,
    8.860920563896));
#810 = CARTESIAN_POINT('',(-24.99999999999,-60.84168760481,9.));
#811 = ORIENTED_EDGE('',*,*,#812,.F.);
#812 = EDGE_CURVE('',#654,#770,#813,.T.);
#813 = CIRCLE('',#814,3.);
#814 = AXIS2_PLACEMENT_3D('',#815,#816,#817);
#815 = CARTESIAN_POINT('',(-22.5,-62.5,9.));
#816 = DIRECTION('',(-0.,0.,1.));
#817 = DIRECTION('',(0.552770798393,-0.833333333333,0.));
#818 = TOROIDAL_SURFACE('',#819,7.,4.);
#819 = AXIS2_PLACEMENT_3D('',#820,#821,#822);
#820 = CARTESIAN_POINT('',(-22.5,-62.5,9.));
#821 = DIRECTION('',(-0.,-0.,-1.));
#822 = DIRECTION('',(0.552770798393,-0.833333333333,0.));
#823 = ADVANCED_FACE('',(#824),#842,.T.);
#824 = FACE_BOUND('',#825,.T.);
#825 = EDGE_LOOP('',(#826,#827,#828,#836));
#826 = ORIENTED_EDGE('',*,*,#74,.F.);
#827 = ORIENTED_EDGE('',*,*,#753,.F.);
#828 = ORIENTED_EDGE('',*,*,#829,.T.);
#829 = EDGE_CURVE('',#743,#830,#832,.T.);
#830 = VERTEX_POINT('',#831);
#831 = CARTESIAN_POINT('',(25.000000000001,8.,0.));
#832 = LINE('',#833,#834);
#833 = CARTESIAN_POINT('',(25.,-10.,0.));
#834 = VECTOR('',#835,1.);
#835 = DIRECTION('',(0.,1.,0.));
#836 = ORIENTED_EDGE('',*,*,#837,.T.);
#837 = EDGE_CURVE('',#830,#75,#838,.T.);
#838 = LINE('',#839,#840);
#839 = CARTESIAN_POINT('',(25.000000000001,8.,-1.30888E-12));
#840 = VECTOR('',#841,1.);
#841 = DIRECTION('',(0.,0.,1.));
#842 = PLANE('',#843);
#843 = AXIS2_PLACEMENT_3D('',#844,#845,#846);
#844 = CARTESIAN_POINT('',(24.999999999999,-29.5835790472,2.916420952805
    ));
#845 = DIRECTION('',(1.,-2.436E-14,6.5444E-13));
#846 = DIRECTION('',(-6.5444E-13,0.,1.));
#847 = ADVANCED_FACE('',(#848),#931,.T.);
#848 = FACE_BOUND('',#849,.T.);
#849 = EDGE_LOOP('',(#850,#860,#866,#867,#868,#877,#885,#893,#901,#908,
    #909,#917,#925));
#850 = ORIENTED_EDGE('',*,*,#851,.F.);
#851 = EDGE_CURVE('',#852,#854,#856,.T.);
#852 = VERTEX_POINT('',#853);
#853 = CARTESIAN_POINT('',(-24.99999999995,-60.84168760465,10.));
#854 = VERTEX_POINT('',#855);
#855 = CARTESIAN_POINT('',(-24.99999999999,-63.,10.));
#856 = LINE('',#857,#858);
#857 = CARTESIAN_POINT('',(-25.,-60.84168760462,10.));
#858 = VECTOR('',#859,1.);
#859 = DIRECTION('',(0.,-1.,0.));
#860 = ORIENTED_EDGE('',*,*,#861,.F.);
#861 = EDGE_CURVE('',#770,#852,#862,.T.);
#862 = LINE('',#863,#864);
#863 = CARTESIAN_POINT('',(-24.99999999995,-60.84168760465,5.));
#864 = VECTOR('',#865,1.);
#865 = DIRECTION('',(0.,0.,1.));
#866 = ORIENTED_EDGE('',*,*,#769,.F.);
#867 = ORIENTED_EDGE('',*,*,#141,.F.);
#868 = ORIENTED_EDGE('',*,*,#869,.T.);
#869 = EDGE_CURVE('',#134,#870,#872,.T.);
#870 = VERTEX_POINT('',#871);
#871 = CARTESIAN_POINT('',(-25.,-15.5,9.));
#872 = CIRCLE('',#873,4.);
#873 = AXIS2_PLACEMENT_3D('',#874,#875,#876);
#874 = CARTESIAN_POINT('',(-24.99999999999,-19.5,9.));
#875 = DIRECTION('',(1.,0.,-0.));
#876 = DIRECTION('',(0.,0.,1.));
#877 = ORIENTED_EDGE('',*,*,#878,.T.);
#878 = EDGE_CURVE('',#870,#879,#881,.T.);
#879 = VERTEX_POINT('',#880);
#880 = CARTESIAN_POINT('',(-25.,-15.5,10.));
#881 = LINE('',#882,#883);
#882 = CARTESIAN_POINT('',(-25.,-15.5,5.));
#883 = VECTOR('',#884,1.);
#884 = DIRECTION('',(0.,0.,1.));
#885 = ORIENTED_EDGE('',*,*,#886,.F.);
#886 = EDGE_CURVE('',#887,#879,#889,.T.);
#887 = VERTEX_POINT('',#888);
#888 = CARTESIAN_POINT('',(-25.,-9.5,10.));
#889 = LINE('',#890,#891);
#890 = CARTESIAN_POINT('',(-25.,-9.5,10.));
#891 = VECTOR('',#892,1.);
#892 = DIRECTION('',(0.,-1.,0.));
#893 = ORIENTED_EDGE('',*,*,#894,.F.);
#894 = EDGE_CURVE('',#895,#887,#897,.T.);
#895 = VERTEX_POINT('',#896);
#896 = CARTESIAN_POINT('',(-25.,-9.5,9.));
#897 = LINE('',#898,#899);
#898 = CARTESIAN_POINT('',(-25.,-9.5,5.));
#899 = VECTOR('',#900,1.);
#900 = DIRECTION('',(0.,0.,1.));
#901 = ORIENTED_EDGE('',*,*,#902,.F.);
#902 = EDGE_CURVE('',#109,#895,#903,.T.);
#903 = CIRCLE('',#904,4.);
#904 = AXIS2_PLACEMENT_3D('',#905,#906,#907);
#905 = CARTESIAN_POINT('',(-24.99999999999,-5.5,9.));
#906 = DIRECTION('',(-1.,0.,0.));
#907 = DIRECTION('',(0.,0.,-1.));
#908 = ORIENTED_EDGE('',*,*,#108,.F.);
#909 = ORIENTED_EDGE('',*,*,#910,.F.);
#910 = EDGE_CURVE('',#911,#100,#913,.T.);
#911 = VERTEX_POINT('',#912);
#912 = CARTESIAN_POINT('',(-25.,8.,0.));
#913 = LINE('',#914,#915);
#914 = CARTESIAN_POINT('',(-25.,8.,-8.941E-13));
#915 = VECTOR('',#916,1.);
#916 = DIRECTION('',(0.,0.,1.));
#917 = ORIENTED_EDGE('',*,*,#918,.T.);
#918 = EDGE_CURVE('',#911,#919,#921,.T.);
#919 = VERTEX_POINT('',#920);
#920 = CARTESIAN_POINT('',(-24.99999999999,-63.,-0.));
#921 = LINE('',#922,#923);
#922 = CARTESIAN_POINT('',(-25.,-10.,0.));
#923 = VECTOR('',#924,1.);
#924 = DIRECTION('',(0.,-1.,0.));
#925 = ORIENTED_EDGE('',*,*,#926,.T.);
#926 = EDGE_CURVE('',#919,#854,#927,.T.);
#927 = LINE('',#928,#929);
#928 = CARTESIAN_POINT('',(-24.99999999999,-63.,-8.941E-13));
#929 = VECTOR('',#930,1.);
#930 = DIRECTION('',(0.,0.,1.));
#931 = PLANE('',#932);
#932 = AXIS2_PLACEMENT_3D('',#933,#934,#935);
#933 = CARTESIAN_POINT('',(-24.99999999999,-28.63449132235,
    3.337730899872));
#934 = DIRECTION('',(-1.,-3.626E-14,4.4705E-13));
#935 = DIRECTION('',(-4.4705E-13,0.,-1.));
#936 = ADVANCED_FACE('',(#937),#956,.T.);
#937 = FACE_BOUND('',#938,.T.);
#938 = EDGE_LOOP('',(#939,#948,#954,#955));
#939 = ORIENTED_EDGE('',*,*,#940,.T.);
#940 = EDGE_CURVE('',#830,#941,#943,.T.);
#941 = VERTEX_POINT('',#942);
#942 = CARTESIAN_POINT('',(23.000000000001,10.,0.));
#943 = CIRCLE('',#944,2.);
#944 = AXIS2_PLACEMENT_3D('',#945,#946,#947);
#945 = CARTESIAN_POINT('',(23.000000000001,8.,0.));
#946 = DIRECTION('',(-0.,0.,1.));
#947 = DIRECTION('',(0.,-1.,0.));
#948 = ORIENTED_EDGE('',*,*,#949,.T.);
#949 = EDGE_CURVE('',#941,#83,#950,.T.);
#950 = LINE('',#951,#952);
#951 = CARTESIAN_POINT('',(23.000000000001,10.,-1.30888E-12));
#952 = VECTOR('',#953,1.);
#953 = DIRECTION('',(0.,0.,1.));
#954 = ORIENTED_EDGE('',*,*,#82,.F.);
#955 = ORIENTED_EDGE('',*,*,#837,.F.);
#956 = CYLINDRICAL_SURFACE('',#957,2.);
#957 = AXIS2_PLACEMENT_3D('',#958,#959,#960);
#958 = CARTESIAN_POINT('',(23.000000000001,8.,-1.30888E-12));
#959 = DIRECTION('',(0.,0.,1.));
#960 = DIRECTION('',(1.,-2.436E-14,0.));
#961 = ADVANCED_FACE('',(#962),#981,.F.);
#962 = FACE_BOUND('',#963,.F.);
#963 = EDGE_LOOP('',(#964,#965,#973,#980));
#964 = ORIENTED_EDGE('',*,*,#869,.T.);
#965 = ORIENTED_EDGE('',*,*,#966,.T.);
#966 = EDGE_CURVE('',#870,#967,#969,.T.);
#967 = VERTEX_POINT('',#968);
#968 = CARTESIAN_POINT('',(-22.5,-15.5,9.));
#969 = LINE('',#970,#971);
#970 = CARTESIAN_POINT('',(-25.,-15.5,9.));
#971 = VECTOR('',#972,1.);
#972 = DIRECTION('',(1.,0.,0.));
#973 = ORIENTED_EDGE('',*,*,#974,.F.);
#974 = EDGE_CURVE('',#125,#967,#975,.T.);
#975 = CIRCLE('',#976,4.);
#976 = AXIS2_PLACEMENT_3D('',#977,#978,#979);
#977 = CARTESIAN_POINT('',(-22.5,-19.5,9.));
#978 = DIRECTION('',(1.,-0.,0.));
#979 = DIRECTION('',(0.,0.,-1.));
#980 = ORIENTED_EDGE('',*,*,#133,.F.);
#981 = CYLINDRICAL_SURFACE('',#982,4.);
#982 = AXIS2_PLACEMENT_3D('',#983,#984,#985);
#983 = CARTESIAN_POINT('',(-25.,-19.5,9.));
#984 = DIRECTION('',(1.,0.,0.));
#985 = DIRECTION('',(0.,0.,-1.));
#986 = ADVANCED_FACE('',(#987),#1005,.F.);
#987 = FACE_BOUND('',#988,.F.);
#988 = EDGE_LOOP('',(#989,#997,#998,#999));
#989 = ORIENTED_EDGE('',*,*,#990,.F.);
#990 = EDGE_CURVE('',#941,#991,#993,.T.);
#991 = VERTEX_POINT('',#992);
#992 = CARTESIAN_POINT('',(-23.,10.,0.));
#993 = LINE('',#994,#995);
#994 = CARTESIAN_POINT('',(25.,10.,0.));
#995 = VECTOR('',#996,1.);
#996 = DIRECTION('',(-1.,0.,0.));
#997 = ORIENTED_EDGE('',*,*,#949,.T.);
#998 = ORIENTED_EDGE('',*,*,#91,.T.);
#999 = ORIENTED_EDGE('',*,*,#1000,.F.);
#1000 = EDGE_CURVE('',#991,#92,#1001,.T.);
#1001 = LINE('',#1002,#1003);
#1002 = CARTESIAN_POINT('',(-23.,10.,-8.941E-13));
#1003 = VECTOR('',#1004,1.);
#1004 = DIRECTION('',(0.,0.,1.));
#1005 = PLANE('',#1006);
#1006 = AXIS2_PLACEMENT_3D('',#1007,#1008,#1009);
#1007 = CARTESIAN_POINT('',(25.,10.,0.));
#1008 = DIRECTION('',(0.,-1.,0.));
#1009 = DIRECTION('',(-1.,0.,0.));
#1010 = ADVANCED_FACE('',(#1011),#1031,.F.);
#1011 = FACE_BOUND('',#1012,.T.);
#1012 = EDGE_LOOP('',(#1013,#1014,#1015,#1024));
#1013 = ORIENTED_EDGE('',*,*,#974,.F.);
#1014 = ORIENTED_EDGE('',*,*,#124,.T.);
#1015 = ORIENTED_EDGE('',*,*,#1016,.T.);
#1016 = EDGE_CURVE('',#117,#1017,#1019,.T.);
#1017 = VERTEX_POINT('',#1018);
#1018 = CARTESIAN_POINT('',(-22.5,-9.5,9.));
#1019 = CIRCLE('',#1020,4.);
#1020 = AXIS2_PLACEMENT_3D('',#1021,#1022,#1023);
#1021 = CARTESIAN_POINT('',(-22.5,-5.5,9.));
#1022 = DIRECTION('',(-1.,-7.7E-16,-0.));
#1023 = DIRECTION('',(-7.7E-16,1.,0.));
#1024 = ORIENTED_EDGE('',*,*,#1025,.F.);
#1025 = EDGE_CURVE('',#967,#1017,#1026,.T.);
#1026 = CIRCLE('',#1027,3.);
#1027 = AXIS2_PLACEMENT_3D('',#1028,#1029,#1030);
#1028 = CARTESIAN_POINT('',(-22.5,-12.5,9.));
#1029 = DIRECTION('',(-0.,0.,1.));
#1030 = DIRECTION('',(0.,-1.,0.));
#1031 = TOROIDAL_SURFACE('',#1032,7.,4.);
#1032 = AXIS2_PLACEMENT_3D('',#1033,#1034,#1035);
#1033 = CARTESIAN_POINT('',(-22.5,-12.5,9.));
#1034 = DIRECTION('',(-0.,-0.,-1.));
#1035 = DIRECTION('',(0.,-1.,0.));
#1036 = ADVANCED_FACE('',(#1037),#1049,.T.);
#1037 = FACE_BOUND('',#1038,.T.);
#1038 = EDGE_LOOP('',(#1039,#1046,#1047,#1048));
#1039 = ORIENTED_EDGE('',*,*,#1040,.T.);
#1040 = EDGE_CURVE('',#991,#911,#1041,.T.);
#1041 = CIRCLE('',#1042,2.);
#1042 = AXIS2_PLACEMENT_3D('',#1043,#1044,#1045);
#1043 = CARTESIAN_POINT('',(-23.,8.,0.));
#1044 = DIRECTION('',(-0.,0.,1.));
#1045 = DIRECTION('',(0.,-1.,0.));
#1046 = ORIENTED_EDGE('',*,*,#910,.T.);
#1047 = ORIENTED_EDGE('',*,*,#99,.F.);
#1048 = ORIENTED_EDGE('',*,*,#1000,.F.);
#1049 = CYLINDRICAL_SURFACE('',#1050,2.);
#1050 = AXIS2_PLACEMENT_3D('',#1051,#1052,#1053);
#1051 = CARTESIAN_POINT('',(-23.,8.,-8.941E-13));
#1052 = DIRECTION('',(0.,0.,1.));
#1053 = DIRECTION('',(0.,1.,0.));
#1054 = ADVANCED_FACE('',(#1055),#1066,.F.);
#1055 = FACE_BOUND('',#1056,.F.);
#1056 = EDGE_LOOP('',(#1057,#1058,#1064,#1065));
#1057 = ORIENTED_EDGE('',*,*,#1016,.T.);
#1058 = ORIENTED_EDGE('',*,*,#1059,.T.);
#1059 = EDGE_CURVE('',#1017,#895,#1060,.T.);
#1060 = LINE('',#1061,#1062);
#1061 = CARTESIAN_POINT('',(-22.5,-9.5,9.));
#1062 = VECTOR('',#1063,1.);
#1063 = DIRECTION('',(-1.,0.,0.));
#1064 = ORIENTED_EDGE('',*,*,#902,.F.);
#1065 = ORIENTED_EDGE('',*,*,#116,.F.);
#1066 = CYLINDRICAL_SURFACE('',#1067,4.);
#1067 = AXIS2_PLACEMENT_3D('',#1068,#1069,#1070);
#1068 = CARTESIAN_POINT('',(-22.5,-5.5,9.));
#1069 = DIRECTION('',(-1.,0.,0.));
#1070 = DIRECTION('',(0.,0.,-1.));
#1071 = ADVANCED_FACE('',(#1072),#1099,.T.);
#1072 = FACE_BOUND('',#1073,.F.);
#1073 = EDGE_LOOP('',(#1074,#1083,#1091,#1098));
#1074 = ORIENTED_EDGE('',*,*,#1075,.T.);
#1075 = EDGE_CURVE('',#193,#1076,#1078,.T.);
#1076 = VERTEX_POINT('',#1077);
#1077 = CARTESIAN_POINT('',(-2.E-15,-22.,4.));
#1078 = ELLIPSE('',#1079,1.154700538379,1.);
#1079 = AXIS2_PLACEMENT_3D('',#1080,#1081,#1082);
#1080 = CARTESIAN_POINT('',(-2.28E-15,-20.84529946162,4.));
#1081 = DIRECTION('',(1.,1.3E-16,0.));
#1082 = DIRECTION('',(1.3E-16,-1.,0.));
#1083 = ORIENTED_EDGE('',*,*,#1084,.T.);
#1084 = EDGE_CURVE('',#1076,#1085,#1087,.T.);
#1085 = VERTEX_POINT('',#1086);
#1086 = CARTESIAN_POINT('',(-15.58845726812,-31.,4.));
#1087 = LINE('',#1088,#1089);
#1088 = CARTESIAN_POINT('',(-1.33E-15,-22.,4.));
#1089 = VECTOR('',#1090,1.);
#1090 = DIRECTION('',(-0.866025403784,-0.5,0.));
#1091 = ORIENTED_EDGE('',*,*,#1092,.F.);
#1092 = EDGE_CURVE('',#195,#1085,#1093,.T.);
#1093 = ELLIPSE('',#1094,1.154700538379,1.);
#1094 = AXIS2_PLACEMENT_3D('',#1095,#1096,#1097);
#1095 = CARTESIAN_POINT('',(-16.58845726812,-30.42264973081,4.));
#1096 = DIRECTION('',(0.5,0.866025403784,-0.));
#1097 = DIRECTION('',(-0.866025403784,0.5,0.));
#1098 = ORIENTED_EDGE('',*,*,#192,.F.);
#1099 = CYLINDRICAL_SURFACE('',#1100,1.);
#1100 = AXIS2_PLACEMENT_3D('',#1101,#1102,#1103);
#1101 = CARTESIAN_POINT('',(-0.5,-21.13397459621,4.));
#1102 = DIRECTION('',(-0.866025403784,-0.5,0.));
#1103 = DIRECTION('',(0.,0.,1.));
#1104 = ADVANCED_FACE('',(#1105),#1124,.T.);
#1105 = FACE_BOUND('',#1106,.F.);
#1106 = EDGE_LOOP('',(#1107,#1116,#1122,#1123));
#1107 = ORIENTED_EDGE('',*,*,#1108,.T.);
#1108 = EDGE_CURVE('',#203,#1109,#1111,.T.);
#1109 = VERTEX_POINT('',#1110);
#1110 = CARTESIAN_POINT('',(15.58845726812,-31.,4.));
#1111 = ELLIPSE('',#1112,1.154700538379,1.);
#1112 = AXIS2_PLACEMENT_3D('',#1113,#1114,#1115);
#1113 = CARTESIAN_POINT('',(16.58845726812,-30.42264973081,4.));
#1114 = DIRECTION('',(0.5,-0.866025403784,0.));
#1115 = DIRECTION('',(-0.866025403784,-0.5,0.));
#1116 = ORIENTED_EDGE('',*,*,#1117,.T.);
#1117 = EDGE_CURVE('',#1109,#1076,#1118,.T.);
#1118 = LINE('',#1119,#1120);
#1119 = CARTESIAN_POINT('',(15.58845726812,-31.,4.));
#1120 = VECTOR('',#1121,1.);
#1121 = DIRECTION('',(-0.866025403784,0.5,0.));
#1122 = ORIENTED_EDGE('',*,*,#1075,.F.);
#1123 = ORIENTED_EDGE('',*,*,#202,.F.);
#1124 = CYLINDRICAL_SURFACE('',#1125,1.);
#1125 = AXIS2_PLACEMENT_3D('',#1126,#1127,#1128);
#1126 = CARTESIAN_POINT('',(16.08845726812,-30.13397459621,4.));
#1127 = DIRECTION('',(-0.866025403784,0.5,0.));
#1128 = DIRECTION('',(0.,0.,1.));
#1129 = ADVANCED_FACE('',(#1130),#1149,.T.);
#1130 = FACE_BOUND('',#1131,.F.);
#1131 = EDGE_LOOP('',(#1132,#1141,#1147,#1148));
#1132 = ORIENTED_EDGE('',*,*,#1133,.T.);
#1133 = EDGE_CURVE('',#211,#1134,#1136,.T.);
#1134 = VERTEX_POINT('',#1135);
#1135 = CARTESIAN_POINT('',(15.58845726812,-49.,4.));
#1136 = ELLIPSE('',#1137,1.154700538379,1.);
#1137 = AXIS2_PLACEMENT_3D('',#1138,#1139,#1140);
#1138 = CARTESIAN_POINT('',(16.58845726812,-49.57735026919,4.));
#1139 = DIRECTION('',(-0.5,-0.866025403784,-0.));
#1140 = DIRECTION('',(-0.866025403784,0.5,0.));
#1141 = ORIENTED_EDGE('',*,*,#1142,.T.);
#1142 = EDGE_CURVE('',#1134,#1109,#1143,.T.);
#1143 = LINE('',#1144,#1145);
#1144 = CARTESIAN_POINT('',(15.58845726812,-49.,4.));
#1145 = VECTOR('',#1146,1.);
#1146 = DIRECTION('',(0.,1.,0.));
#1147 = ORIENTED_EDGE('',*,*,#1108,.F.);
#1148 = ORIENTED_EDGE('',*,*,#210,.F.);
#1149 = CYLINDRICAL_SURFACE('',#1150,1.);
#1150 = AXIS2_PLACEMENT_3D('',#1151,#1152,#1153);
#1151 = CARTESIAN_POINT('',(16.58845726812,-49.,4.));
#1152 = DIRECTION('',(0.,1.,0.));
#1153 = DIRECTION('',(0.,0.,1.));
#1154 = ADVANCED_FACE('',(#1155),#1174,.T.);
#1155 = FACE_BOUND('',#1156,.F.);
#1156 = EDGE_LOOP('',(#1157,#1166,#1172,#1173));
#1157 = ORIENTED_EDGE('',*,*,#1158,.T.);
#1158 = EDGE_CURVE('',#219,#1159,#1161,.T.);
#1159 = VERTEX_POINT('',#1160);
#1160 = CARTESIAN_POINT('',(0.,-58.,4.));
#1161 = ELLIPSE('',#1162,1.154700538379,1.);
#1162 = AXIS2_PLACEMENT_3D('',#1163,#1164,#1165);
#1163 = CARTESIAN_POINT('',(-2.83E-15,-59.15470053837,4.));
#1164 = DIRECTION('',(-1.,1.3E-16,0.));
#1165 = DIRECTION('',(1.3E-16,1.,0.));
#1166 = ORIENTED_EDGE('',*,*,#1167,.T.);
#1167 = EDGE_CURVE('',#1159,#1134,#1168,.T.);
#1168 = LINE('',#1169,#1170);
#1169 = CARTESIAN_POINT('',(-2.78E-15,-58.,4.));
#1170 = VECTOR('',#1171,1.);
#1171 = DIRECTION('',(0.866025403784,0.5,0.));
#1172 = ORIENTED_EDGE('',*,*,#1133,.F.);
#1173 = ORIENTED_EDGE('',*,*,#218,.F.);
#1174 = CYLINDRICAL_SURFACE('',#1175,1.);
#1175 = AXIS2_PLACEMENT_3D('',#1176,#1177,#1178);
#1176 = CARTESIAN_POINT('',(0.5,-58.86602540378,4.));
#1177 = DIRECTION('',(0.866025403784,0.5,0.));
#1178 = DIRECTION('',(0.,0.,1.));
#1179 = ADVANCED_FACE('',(#1180),#1199,.T.);
#1180 = FACE_BOUND('',#1181,.F.);
#1181 = EDGE_LOOP('',(#1182,#1191,#1197,#1198));
#1182 = ORIENTED_EDGE('',*,*,#1183,.T.);
#1183 = EDGE_CURVE('',#227,#1184,#1186,.T.);
#1184 = VERTEX_POINT('',#1185);
#1185 = CARTESIAN_POINT('',(-15.58845726812,-49.,4.));
#1186 = ELLIPSE('',#1187,1.154700538379,1.);
#1187 = AXIS2_PLACEMENT_3D('',#1188,#1189,#1190);
#1188 = CARTESIAN_POINT('',(-16.58845726812,-49.57735026919,4.));
#1189 = DIRECTION('',(-0.5,0.866025403784,0.));
#1190 = DIRECTION('',(0.866025403784,0.5,0.));
#1191 = ORIENTED_EDGE('',*,*,#1192,.T.);
#1192 = EDGE_CURVE('',#1184,#1159,#1193,.T.);
#1193 = LINE('',#1194,#1195);
#1194 = CARTESIAN_POINT('',(-15.58845726812,-49.,4.));
#1195 = VECTOR('',#1196,1.);
#1196 = DIRECTION('',(0.866025403784,-0.5,0.));
#1197 = ORIENTED_EDGE('',*,*,#1158,.F.);
#1198 = ORIENTED_EDGE('',*,*,#226,.F.);
#1199 = CYLINDRICAL_SURFACE('',#1200,1.);
#1200 = AXIS2_PLACEMENT_3D('',#1201,#1202,#1203);
#1201 = CARTESIAN_POINT('',(-16.08845726812,-49.86602540378,4.));
#1202 = DIRECTION('',(0.866025403784,-0.5,0.));
#1203 = DIRECTION('',(0.,0.,1.));
#1204 = ADVANCED_FACE('',(#1205),#1216,.T.);
#1205 = FACE_BOUND('',#1206,.F.);
#1206 = EDGE_LOOP('',(#1207,#1208,#1214,#1215));
#1207 = ORIENTED_EDGE('',*,*,#1092,.T.);
#1208 = ORIENTED_EDGE('',*,*,#1209,.T.);
#1209 = EDGE_CURVE('',#1085,#1184,#1210,.T.);
#1210 = LINE('',#1211,#1212);
#1211 = CARTESIAN_POINT('',(-15.58845726812,-31.,4.));
#1212 = VECTOR('',#1213,1.);
#1213 = DIRECTION('',(0.,-1.,0.));
#1214 = ORIENTED_EDGE('',*,*,#1183,.F.);
#1215 = ORIENTED_EDGE('',*,*,#234,.F.);
#1216 = CYLINDRICAL_SURFACE('',#1217,1.);
#1217 = AXIS2_PLACEMENT_3D('',#1218,#1219,#1220);
#1218 = CARTESIAN_POINT('',(-16.58845726812,-31.,4.));
#1219 = DIRECTION('',(0.,-1.,0.));
#1220 = DIRECTION('',(0.,0.,1.));
#1221 = ADVANCED_FACE('',(#1222),#1247,.T.);
#1222 = FACE_BOUND('',#1223,.T.);
#1223 = EDGE_LOOP('',(#1224,#1232,#1233,#1241));
#1224 = ORIENTED_EDGE('',*,*,#1225,.T.);
#1225 = EDGE_CURVE('',#1226,#243,#1228,.T.);
#1226 = VERTEX_POINT('',#1227);
#1227 = CARTESIAN_POINT('',(31.,-33.,0.));
#1228 = LINE('',#1229,#1230);
#1229 = CARTESIAN_POINT('',(31.,-33.,0.));
#1230 = VECTOR('',#1231,1.);
#1231 = DIRECTION('',(0.,0.,1.));
#1232 = ORIENTED_EDGE('',*,*,#242,.T.);
#1233 = ORIENTED_EDGE('',*,*,#1234,.F.);
#1234 = EDGE_CURVE('',#1235,#245,#1237,.T.);
#1235 = VERTEX_POINT('',#1236);
#1236 = CARTESIAN_POINT('',(31.,-47.,0.));
#1237 = LINE('',#1238,#1239);
#1238 = CARTESIAN_POINT('',(31.,-47.,0.));
#1239 = VECTOR('',#1240,1.);
#1240 = DIRECTION('',(0.,0.,1.));
#1241 = ORIENTED_EDGE('',*,*,#1242,.F.);
#1242 = EDGE_CURVE('',#1226,#1235,#1243,.T.);
#1243 = LINE('',#1244,#1245);
#1244 = CARTESIAN_POINT('',(31.,-33.,0.));
#1245 = VECTOR('',#1246,1.);
#1246 = DIRECTION('',(0.,-1.,0.));
#1247 = PLANE('',#1248);
#1248 = AXIS2_PLACEMENT_3D('',#1249,#1250,#1251);
#1249 = CARTESIAN_POINT('',(31.,-33.,0.));
#1250 = DIRECTION('',(1.,0.,0.));
#1251 = DIRECTION('',(0.,-1.,0.));
#1252 = ADVANCED_FACE('',(#1253),#1271,.T.);
#1253 = FACE_BOUND('',#1254,.T.);
#1254 = EDGE_LOOP('',(#1255,#1263,#1264,#1265));
#1255 = ORIENTED_EDGE('',*,*,#1256,.T.);
#1256 = EDGE_CURVE('',#1257,#253,#1259,.T.);
#1257 = VERTEX_POINT('',#1258);
#1258 = CARTESIAN_POINT('',(33.,-33.,0.));
#1259 = LINE('',#1260,#1261);
#1260 = CARTESIAN_POINT('',(33.,-33.,0.));
#1261 = VECTOR('',#1262,1.);
#1262 = DIRECTION('',(0.,0.,1.));
#1263 = ORIENTED_EDGE('',*,*,#252,.T.);
#1264 = ORIENTED_EDGE('',*,*,#1225,.F.);
#1265 = ORIENTED_EDGE('',*,*,#1266,.F.);
#1266 = EDGE_CURVE('',#1257,#1226,#1267,.T.);
#1267 = LINE('',#1268,#1269);
#1268 = CARTESIAN_POINT('',(33.,-33.,0.));
#1269 = VECTOR('',#1270,1.);
#1270 = DIRECTION('',(-1.,0.,0.));
#1271 = PLANE('',#1272);
#1272 = AXIS2_PLACEMENT_3D('',#1273,#1274,#1275);
#1273 = CARTESIAN_POINT('',(33.,-33.,0.));
#1274 = DIRECTION('',(0.,-1.,0.));
#1275 = DIRECTION('',(-1.,0.,0.));
#1276 = ADVANCED_FACE('',(#1277),#1295,.T.);
#1277 = FACE_BOUND('',#1278,.T.);
#1278 = EDGE_LOOP('',(#1279,#1287,#1288,#1289));
#1279 = ORIENTED_EDGE('',*,*,#1280,.T.);
#1280 = EDGE_CURVE('',#1281,#261,#1283,.T.);
#1281 = VERTEX_POINT('',#1282);
#1282 = CARTESIAN_POINT('',(33.,-47.,0.));
#1283 = LINE('',#1284,#1285);
#1284 = CARTESIAN_POINT('',(33.,-47.,0.));
#1285 = VECTOR('',#1286,1.);
#1286 = DIRECTION('',(0.,0.,1.));
#1287 = ORIENTED_EDGE('',*,*,#260,.T.);
#1288 = ORIENTED_EDGE('',*,*,#1256,.F.);
#1289 = ORIENTED_EDGE('',*,*,#1290,.F.);
#1290 = EDGE_CURVE('',#1281,#1257,#1291,.T.);
#1291 = LINE('',#1292,#1293);
#1292 = CARTESIAN_POINT('',(33.,-47.,0.));
#1293 = VECTOR('',#1294,1.);
#1294 = DIRECTION('',(0.,1.,0.));
#1295 = PLANE('',#1296);
#1296 = AXIS2_PLACEMENT_3D('',#1297,#1298,#1299);
#1297 = CARTESIAN_POINT('',(33.,-47.,0.));
#1298 = DIRECTION('',(-1.,0.,0.));
#1299 = DIRECTION('',(0.,1.,0.));
#1300 = ADVANCED_FACE('',(#1301),#1312,.T.);
#1301 = FACE_BOUND('',#1302,.T.);
#1302 = EDGE_LOOP('',(#1303,#1304,#1305,#1306));
#1303 = ORIENTED_EDGE('',*,*,#1234,.T.);
#1304 = ORIENTED_EDGE('',*,*,#268,.T.);
#1305 = ORIENTED_EDGE('',*,*,#1280,.F.);
#1306 = ORIENTED_EDGE('',*,*,#1307,.F.);
#1307 = EDGE_CURVE('',#1235,#1281,#1308,.T.);
#1308 = LINE('',#1309,#1310);
#1309 = CARTESIAN_POINT('',(31.,-47.,0.));
#1310 = VECTOR('',#1311,1.);
#1311 = DIRECTION('',(1.,0.,0.));
#1312 = PLANE('',#1313);
#1313 = AXIS2_PLACEMENT_3D('',#1314,#1315,#1316);
#1314 = CARTESIAN_POINT('',(31.,-47.,0.));
#1315 = DIRECTION('',(0.,1.,0.));
#1316 = DIRECTION('',(1.,0.,0.));
#1317 = ADVANCED_FACE('',(#1318),#1343,.T.);
#1318 = FACE_BOUND('',#1319,.T.);
#1319 = EDGE_LOOP('',(#1320,#1328,#1329,#1337));
#1320 = ORIENTED_EDGE('',*,*,#1321,.T.);
#1321 = EDGE_CURVE('',#1322,#277,#1324,.T.);
#1322 = VERTEX_POINT('',#1323);
#1323 = CARTESIAN_POINT('',(25.5,-33.,0.));
#1324 = LINE('',#1325,#1326);
#1325 = CARTESIAN_POINT('',(25.5,-33.,0.));
#1326 = VECTOR('',#1327,1.);
#1327 = DIRECTION('',(0.,0.,1.));
#1328 = ORIENTED_EDGE('',*,*,#276,.T.);
#1329 = ORIENTED_EDGE('',*,*,#1330,.F.);
#1330 = EDGE_CURVE('',#1331,#279,#1333,.T.);
#1331 = VERTEX_POINT('',#1332);
#1332 = CARTESIAN_POINT('',(25.5,-46.99999999999,0.));
#1333 = LINE('',#1334,#1335);
#1334 = CARTESIAN_POINT('',(25.5,-46.99999999999,0.));
#1335 = VECTOR('',#1336,1.);
#1336 = DIRECTION('',(0.,0.,1.));
#1337 = ORIENTED_EDGE('',*,*,#1338,.F.);
#1338 = EDGE_CURVE('',#1322,#1331,#1339,.T.);
#1339 = LINE('',#1340,#1341);
#1340 = CARTESIAN_POINT('',(25.5,-33.,0.));
#1341 = VECTOR('',#1342,1.);
#1342 = DIRECTION('',(0.,-1.,0.));
#1343 = PLANE('',#1344);
#1344 = AXIS2_PLACEMENT_3D('',#1345,#1346,#1347);
#1345 = CARTESIAN_POINT('',(25.5,-33.,0.));
#1346 = DIRECTION('',(1.,0.,0.));
#1347 = DIRECTION('',(0.,-1.,0.));
#1348 = ADVANCED_FACE('',(#1349),#1367,.T.);
#1349 = FACE_BOUND('',#1350,.T.);
#1350 = EDGE_LOOP('',(#1351,#1359,#1360,#1361));
#1351 = ORIENTED_EDGE('',*,*,#1352,.T.);
#1352 = EDGE_CURVE('',#1353,#287,#1355,.T.);
#1353 = VERTEX_POINT('',#1354);
#1354 = CARTESIAN_POINT('',(27.5,-33.,0.));
#1355 = LINE('',#1356,#1357);
#1356 = CARTESIAN_POINT('',(27.5,-33.,0.));
#1357 = VECTOR('',#1358,1.);
#1358 = DIRECTION('',(0.,0.,1.));
#1359 = ORIENTED_EDGE('',*,*,#286,.T.);
#1360 = ORIENTED_EDGE('',*,*,#1321,.F.);
#1361 = ORIENTED_EDGE('',*,*,#1362,.F.);
#1362 = EDGE_CURVE('',#1353,#1322,#1363,.T.);
#1363 = LINE('',#1364,#1365);
#1364 = CARTESIAN_POINT('',(27.5,-33.,0.));
#1365 = VECTOR('',#1366,1.);
#1366 = DIRECTION('',(-1.,0.,0.));
#1367 = PLANE('',#1368);
#1368 = AXIS2_PLACEMENT_3D('',#1369,#1370,#1371);
#1369 = CARTESIAN_POINT('',(27.5,-33.,0.));
#1370 = DIRECTION('',(0.,-1.,0.));
#1371 = DIRECTION('',(-1.,0.,0.));
#1372 = ADVANCED_FACE('',(#1373),#1391,.T.);
#1373 = FACE_BOUND('',#1374,.T.);
#1374 = EDGE_LOOP('',(#1375,#1383,#1384,#1385));
#1375 = ORIENTED_EDGE('',*,*,#1376,.T.);
#1376 = EDGE_CURVE('',#1377,#295,#1379,.T.);
#1377 = VERTEX_POINT('',#1378);
#1378 = CARTESIAN_POINT('',(27.5,-46.99999999999,0.));
#1379 = LINE('',#1380,#1381);
#1380 = CARTESIAN_POINT('',(27.5,-46.99999999999,0.));
#1381 = VECTOR('',#1382,1.);
#1382 = DIRECTION('',(0.,0.,1.));
#1383 = ORIENTED_EDGE('',*,*,#294,.T.);
#1384 = ORIENTED_EDGE('',*,*,#1352,.F.);
#1385 = ORIENTED_EDGE('',*,*,#1386,.F.);
#1386 = EDGE_CURVE('',#1377,#1353,#1387,.T.);
#1387 = LINE('',#1388,#1389);
#1388 = CARTESIAN_POINT('',(27.5,-46.99999999999,0.));
#1389 = VECTOR('',#1390,1.);
#1390 = DIRECTION('',(0.,1.,0.));
#1391 = PLANE('',#1392);
#1392 = AXIS2_PLACEMENT_3D('',#1393,#1394,#1395);
#1393 = CARTESIAN_POINT('',(27.5,-46.99999999999,0.));
#1394 = DIRECTION('',(-1.,0.,0.));
#1395 = DIRECTION('',(0.,1.,0.));
#1396 = ADVANCED_FACE('',(#1397),#1408,.T.);
#1397 = FACE_BOUND('',#1398,.T.);
#1398 = EDGE_LOOP('',(#1399,#1400,#1401,#1402));
#1399 = ORIENTED_EDGE('',*,*,#1330,.T.);
#1400 = ORIENTED_EDGE('',*,*,#302,.T.);
#1401 = ORIENTED_EDGE('',*,*,#1376,.F.);
#1402 = ORIENTED_EDGE('',*,*,#1403,.F.);
#1403 = EDGE_CURVE('',#1331,#1377,#1404,.T.);
#1404 = LINE('',#1405,#1406);
#1405 = CARTESIAN_POINT('',(25.5,-46.99999999999,0.));
#1406 = VECTOR('',#1407,1.);
#1407 = DIRECTION('',(1.,0.,0.));
#1408 = PLANE('',#1409);
#1409 = AXIS2_PLACEMENT_3D('',#1410,#1411,#1412);
#1410 = CARTESIAN_POINT('',(25.5,-46.99999999999,0.));
#1411 = DIRECTION('',(0.,1.,0.));
#1412 = DIRECTION('',(1.,0.,0.));
#1413 = ADVANCED_FACE('',(#1414),#1433,.F.);
#1414 = FACE_BOUND('',#1415,.T.);
#1415 = EDGE_LOOP('',(#1416,#1424,#1425,#1426));
#1416 = ORIENTED_EDGE('',*,*,#1417,.F.);
#1417 = EDGE_CURVE('',#311,#1418,#1420,.T.);
#1418 = VERTEX_POINT('',#1419);
#1419 = CARTESIAN_POINT('',(-9.25,0.,2.));
#1420 = LINE('',#1421,#1422);
#1421 = CARTESIAN_POINT('',(-9.25,0.,5.));
#1422 = VECTOR('',#1423,1.);
#1423 = DIRECTION('',(0.,0.,-1.));
#1424 = ORIENTED_EDGE('',*,*,#310,.T.);
#1425 = ORIENTED_EDGE('',*,*,#1417,.T.);
#1426 = ORIENTED_EDGE('',*,*,#1427,.F.);
#1427 = EDGE_CURVE('',#1418,#1418,#1428,.T.);
#1428 = CIRCLE('',#1429,3.25);
#1429 = AXIS2_PLACEMENT_3D('',#1430,#1431,#1432);
#1430 = CARTESIAN_POINT('',(-12.5,0.,2.));
#1431 = DIRECTION('',(0.,0.,1.));
#1432 = DIRECTION('',(1.,0.,0.));
#1433 = CYLINDRICAL_SURFACE('',#1434,3.25);
#1434 = AXIS2_PLACEMENT_3D('',#1435,#1436,#1437);
#1435 = CARTESIAN_POINT('',(-12.5,0.,5.));
#1436 = DIRECTION('',(-0.,-0.,-1.));
#1437 = DIRECTION('',(1.,0.,0.));
#1438 = ADVANCED_FACE('',(#1439),#1458,.F.);
#1439 = FACE_BOUND('',#1440,.T.);
#1440 = EDGE_LOOP('',(#1441,#1449,#1450,#1451));
#1441 = ORIENTED_EDGE('',*,*,#1442,.F.);
#1442 = EDGE_CURVE('',#322,#1443,#1445,.T.);
#1443 = VERTEX_POINT('',#1444);
#1444 = CARTESIAN_POINT('',(15.75,0.,2.));
#1445 = LINE('',#1446,#1447);
#1446 = CARTESIAN_POINT('',(15.75,0.,5.));
#1447 = VECTOR('',#1448,1.);
#1448 = DIRECTION('',(0.,0.,-1.));
#1449 = ORIENTED_EDGE('',*,*,#321,.T.);
#1450 = ORIENTED_EDGE('',*,*,#1442,.T.);
#1451 = ORIENTED_EDGE('',*,*,#1452,.F.);
#1452 = EDGE_CURVE('',#1443,#1443,#1453,.T.);
#1453 = CIRCLE('',#1454,3.25);
#1454 = AXIS2_PLACEMENT_3D('',#1455,#1456,#1457);
#1455 = CARTESIAN_POINT('',(12.5,0.,2.));
#1456 = DIRECTION('',(0.,0.,1.));
#1457 = DIRECTION('',(1.,0.,0.));
#1458 = CYLINDRICAL_SURFACE('',#1459,3.25);
#1459 = AXIS2_PLACEMENT_3D('',#1460,#1461,#1462);
#1460 = CARTESIAN_POINT('',(12.5,0.,5.));
#1461 = DIRECTION('',(-0.,-0.,-1.));
#1462 = DIRECTION('',(1.,0.,0.));
#1463 = ADVANCED_FACE('',(#1464,#1494,#1544,#1550,#1556,#1567,#1578,
    #1589,#1600),#1611,.T.);
#1464 = FACE_BOUND('',#1465,.T.);
#1465 = EDGE_LOOP('',(#1466,#1467,#1468,#1469,#1476,#1477,#1484,#1485,
    #1486,#1487,#1488,#1489,#1490,#1491,#1492,#1493));
#1466 = ORIENTED_EDGE('',*,*,#338,.F.);
#1467 = ORIENTED_EDGE('',*,*,#394,.F.);
#1468 = ORIENTED_EDGE('',*,*,#511,.F.);
#1469 = ORIENTED_EDGE('',*,*,#1470,.T.);
#1470 = EDGE_CURVE('',#504,#721,#1471,.T.);
#1471 = CIRCLE('',#1472,2.);
#1472 = AXIS2_PLACEMENT_3D('',#1473,#1474,#1475);
#1473 = CARTESIAN_POINT('',(23.,-63.,0.));
#1474 = DIRECTION('',(-0.,-0.,-1.));
#1475 = DIRECTION('',(0.,-1.,0.));
#1476 = ORIENTED_EDGE('',*,*,#720,.F.);
#1477 = ORIENTED_EDGE('',*,*,#1478,.T.);
#1478 = EDGE_CURVE('',#713,#919,#1479,.T.);
#1479 = CIRCLE('',#1480,2.);
#1480 = AXIS2_PLACEMENT_3D('',#1481,#1482,#1483);
#1481 = CARTESIAN_POINT('',(-22.99999999999,-63.,0.));
#1482 = DIRECTION('',(-0.,-0.,-1.));
#1483 = DIRECTION('',(0.,-1.,0.));
#1484 = ORIENTED_EDGE('',*,*,#918,.F.);
#1485 = ORIENTED_EDGE('',*,*,#1040,.F.);
#1486 = ORIENTED_EDGE('',*,*,#990,.F.);
#1487 = ORIENTED_EDGE('',*,*,#940,.F.);
#1488 = ORIENTED_EDGE('',*,*,#829,.F.);
#1489 = ORIENTED_EDGE('',*,*,#742,.T.);
#1490 = ORIENTED_EDGE('',*,*,#611,.F.);
#1491 = ORIENTED_EDGE('',*,*,#526,.F.);
#1492 = ORIENTED_EDGE('',*,*,#419,.F.);
#1493 = ORIENTED_EDGE('',*,*,#369,.F.);
#1494 = FACE_BOUND('',#1495,.T.);
#1495 = EDGE_LOOP('',(#1496,#1506,#1514,#1522,#1530,#1538));
#1496 = ORIENTED_EDGE('',*,*,#1497,.T.);
#1497 = EDGE_CURVE('',#1498,#1500,#1502,.T.);
#1498 = VERTEX_POINT('',#1499);
#1499 = CARTESIAN_POINT('',(15.58845726812,-31.,0.));
#1500 = VERTEX_POINT('',#1501);
#1501 = CARTESIAN_POINT('',(-2.E-15,-22.,0.));
#1502 = LINE('',#1503,#1504);
#1503 = CARTESIAN_POINT('',(9.077887866571,-27.24112100343,0.));
#1504 = VECTOR('',#1505,1.);
#1505 = DIRECTION('',(-0.866025403784,0.5,0.));
#1506 = ORIENTED_EDGE('',*,*,#1507,.T.);
#1507 = EDGE_CURVE('',#1500,#1508,#1510,.T.);
#1508 = VERTEX_POINT('',#1509);
#1509 = CARTESIAN_POINT('',(-15.58845726812,-31.,0.));
#1510 = LINE('',#1511,#1512);
#1511 = CARTESIAN_POINT('',(-1.735271942078,-23.00185972287,-4.4E-16));
#1512 = VECTOR('',#1513,1.);
#1513 = DIRECTION('',(-0.866025403784,-0.5,0.));
#1514 = ORIENTED_EDGE('',*,*,#1515,.T.);
#1515 = EDGE_CURVE('',#1508,#1516,#1518,.T.);
#1516 = VERTEX_POINT('',#1517);
#1517 = CARTESIAN_POINT('',(-15.58845726812,-49.,0.));
#1518 = LINE('',#1519,#1520);
#1519 = CARTESIAN_POINT('',(-15.58845726812,-29.98596145262,0.));
#1520 = VECTOR('',#1521,1.);
#1521 = DIRECTION('',(0.,-1.,0.));
#1522 = ORIENTED_EDGE('',*,*,#1523,.T.);
#1523 = EDGE_CURVE('',#1516,#1524,#1526,.T.);
#1524 = VERTEX_POINT('',#1525);
#1525 = CARTESIAN_POINT('',(-1.E-15,-58.,0.));
#1526 = LINE('',#1527,#1528);
#1527 = CARTESIAN_POINT('',(-14.3047980356,-49.74112100343,-4.4E-16));
#1528 = VECTOR('',#1529,1.);
#1529 = DIRECTION('',(0.866025403784,-0.5,0.));
#1530 = ORIENTED_EDGE('',*,*,#1531,.T.);
#1531 = EDGE_CURVE('',#1524,#1532,#1534,.T.);
#1532 = VERTEX_POINT('',#1533);
#1533 = CARTESIAN_POINT('',(15.58845726812,-49.,0.));
#1534 = LINE('',#1535,#1536);
#1535 = CARTESIAN_POINT('',(6.058956691982,-54.50185972287,0.));
#1536 = VECTOR('',#1537,1.);
#1537 = DIRECTION('',(0.866025403784,0.5,0.));
#1538 = ORIENTED_EDGE('',*,*,#1539,.T.);
#1539 = EDGE_CURVE('',#1532,#1498,#1540,.T.);
#1540 = LINE('',#1541,#1542);
#1541 = CARTESIAN_POINT('',(15.58845726812,-38.98596145262,0.));
#1542 = VECTOR('',#1543,1.);
#1543 = DIRECTION('',(0.,1.,0.));
#1544 = FACE_BOUND('',#1545,.T.);
#1545 = EDGE_LOOP('',(#1546,#1547,#1548,#1549));
#1546 = ORIENTED_EDGE('',*,*,#1242,.T.);
#1547 = ORIENTED_EDGE('',*,*,#1307,.T.);
#1548 = ORIENTED_EDGE('',*,*,#1290,.T.);
#1549 = ORIENTED_EDGE('',*,*,#1266,.T.);
#1550 = FACE_BOUND('',#1551,.T.);
#1551 = EDGE_LOOP('',(#1552,#1553,#1554,#1555));
#1552 = ORIENTED_EDGE('',*,*,#1338,.T.);
#1553 = ORIENTED_EDGE('',*,*,#1403,.T.);
#1554 = ORIENTED_EDGE('',*,*,#1386,.T.);
#1555 = ORIENTED_EDGE('',*,*,#1362,.T.);
#1556 = FACE_BOUND('',#1557,.T.);
#1557 = EDGE_LOOP('',(#1558));
#1558 = ORIENTED_EDGE('',*,*,#1559,.F.);
#1559 = EDGE_CURVE('',#1560,#1560,#1562,.T.);
#1560 = VERTEX_POINT('',#1561);
#1561 = CARTESIAN_POINT('',(-10.9,0.,0.));
#1562 = CIRCLE('',#1563,1.6);
#1563 = AXIS2_PLACEMENT_3D('',#1564,#1565,#1566);
#1564 = CARTESIAN_POINT('',(-12.5,0.,0.));
#1565 = DIRECTION('',(0.,0.,-1.));
#1566 = DIRECTION('',(1.,0.,0.));
#1567 = FACE_BOUND('',#1568,.T.);
#1568 = EDGE_LOOP('',(#1569));
#1569 = ORIENTED_EDGE('',*,*,#1570,.F.);
#1570 = EDGE_CURVE('',#1571,#1571,#1573,.T.);
#1571 = VERTEX_POINT('',#1572);
#1572 = CARTESIAN_POINT('',(14.1,0.,0.));
#1573 = CIRCLE('',#1574,1.6);
#1574 = AXIS2_PLACEMENT_3D('',#1575,#1576,#1577);
#1575 = CARTESIAN_POINT('',(12.5,0.,0.));
#1576 = DIRECTION('',(0.,0.,-1.));
#1577 = DIRECTION('',(1.,0.,0.));
#1578 = FACE_BOUND('',#1579,.T.);
#1579 = EDGE_LOOP('',(#1580));
#1580 = ORIENTED_EDGE('',*,*,#1581,.T.);
#1581 = EDGE_CURVE('',#1582,#1582,#1584,.T.);
#1582 = VERTEX_POINT('',#1583);
#1583 = CARTESIAN_POINT('',(-21.1,-12.5,0.));
#1584 = CIRCLE('',#1585,1.4);
#1585 = AXIS2_PLACEMENT_3D('',#1586,#1587,#1588);
#1586 = CARTESIAN_POINT('',(-22.5,-12.5,0.));
#1587 = DIRECTION('',(0.,0.,1.));
#1588 = DIRECTION('',(1.,0.,0.));
#1589 = FACE_BOUND('',#1590,.T.);
#1590 = EDGE_LOOP('',(#1591));
#1591 = ORIENTED_EDGE('',*,*,#1592,.T.);
#1592 = EDGE_CURVE('',#1593,#1593,#1595,.T.);
#1593 = VERTEX_POINT('',#1594);
#1594 = CARTESIAN_POINT('',(-21.1,-62.5,0.));
#1595 = CIRCLE('',#1596,1.4);
#1596 = AXIS2_PLACEMENT_3D('',#1597,#1598,#1599);
#1597 = CARTESIAN_POINT('',(-22.5,-62.5,0.));
#1598 = DIRECTION('',(0.,0.,1.));
#1599 = DIRECTION('',(1.,0.,0.));
#1600 = FACE_BOUND('',#1601,.T.);
#1601 = EDGE_LOOP('',(#1602));
#1602 = ORIENTED_EDGE('',*,*,#1603,.T.);
#1603 = EDGE_CURVE('',#1604,#1604,#1606,.T.);
#1604 = VERTEX_POINT('',#1605);
#1605 = CARTESIAN_POINT('',(23.9,-62.5,0.));
#1606 = CIRCLE('',#1607,1.4);
#1607 = AXIS2_PLACEMENT_3D('',#1608,#1609,#1610);
#1608 = CARTESIAN_POINT('',(22.5,-62.5,0.));
#1609 = DIRECTION('',(0.,0.,1.));
#1610 = DIRECTION('',(1.,0.,0.));
#1611 = PLANE('',#1612);
#1612 = AXIS2_PLACEMENT_3D('',#1613,#1614,#1615);
#1613 = CARTESIAN_POINT('',(2.927671710882,-28.43835631759,0.));
#1614 = DIRECTION('',(-0.,-0.,-1.));
#1615 = DIRECTION('',(-1.,0.,0.));
#1616 = ADVANCED_FACE('',(#1617),#1629,.T.);
#1617 = FACE_BOUND('',#1618,.F.);
#1618 = EDGE_LOOP('',(#1619,#1620,#1627,#1628));
#1619 = ORIENTED_EDGE('',*,*,#487,.T.);
#1620 = ORIENTED_EDGE('',*,*,#1621,.T.);
#1621 = EDGE_CURVE('',#488,#636,#1622,.T.);
#1622 = CIRCLE('',#1623,3.);
#1623 = AXIS2_PLACEMENT_3D('',#1624,#1625,#1626);
#1624 = CARTESIAN_POINT('',(22.5,-62.5,10.));
#1625 = DIRECTION('',(0.,0.,1.));
#1626 = DIRECTION('',(1.,0.,0.));
#1627 = ORIENTED_EDGE('',*,*,#645,.F.);
#1628 = ORIENTED_EDGE('',*,*,#596,.F.);
#1629 = CYLINDRICAL_SURFACE('',#1630,3.);
#1630 = AXIS2_PLACEMENT_3D('',#1631,#1632,#1633);
#1631 = CARTESIAN_POINT('',(22.5,-62.5,5.));
#1632 = DIRECTION('',(-0.,-0.,-1.));
#1633 = DIRECTION('',(1.,0.,0.));
#1634 = ADVANCED_FACE('',(#1635),#1647,.T.);
#1635 = FACE_BOUND('',#1636,.F.);
#1636 = EDGE_LOOP('',(#1637,#1638,#1639,#1646));
#1637 = ORIENTED_EDGE('',*,*,#1470,.T.);
#1638 = ORIENTED_EDGE('',*,*,#728,.T.);
#1639 = ORIENTED_EDGE('',*,*,#1640,.F.);
#1640 = EDGE_CURVE('',#496,#638,#1641,.T.);
#1641 = CIRCLE('',#1642,2.);
#1642 = AXIS2_PLACEMENT_3D('',#1643,#1644,#1645);
#1643 = CARTESIAN_POINT('',(23.,-63.,10.));
#1644 = DIRECTION('',(-0.,-0.,-1.));
#1645 = DIRECTION('',(0.,-1.,0.));
#1646 = ORIENTED_EDGE('',*,*,#503,.F.);
#1647 = CYLINDRICAL_SURFACE('',#1648,2.);
#1648 = AXIS2_PLACEMENT_3D('',#1649,#1650,#1651);
#1649 = CARTESIAN_POINT('',(23.,-63.,-1.30888E-12));
#1650 = DIRECTION('',(0.,0.,1.));
#1651 = DIRECTION('',(1.,-2.436E-14,0.));
#1652 = ADVANCED_FACE('',(#1653,#1659),#1670,.T.);
#1653 = FACE_BOUND('',#1654,.T.);
#1654 = EDGE_LOOP('',(#1655,#1656,#1657,#1658));
#1655 = ORIENTED_EDGE('',*,*,#635,.T.);
#1656 = ORIENTED_EDGE('',*,*,#1640,.F.);
#1657 = ORIENTED_EDGE('',*,*,#495,.T.);
#1658 = ORIENTED_EDGE('',*,*,#1621,.T.);
#1659 = FACE_BOUND('',#1660,.F.);
#1660 = EDGE_LOOP('',(#1661));
#1661 = ORIENTED_EDGE('',*,*,#1662,.T.);
#1662 = EDGE_CURVE('',#1663,#1663,#1665,.T.);
#1663 = VERTEX_POINT('',#1664);
#1664 = CARTESIAN_POINT('',(23.9,-62.5,10.));
#1665 = CIRCLE('',#1666,1.4);
#1666 = AXIS2_PLACEMENT_3D('',#1667,#1668,#1669);
#1667 = CARTESIAN_POINT('',(22.5,-62.5,10.));
#1668 = DIRECTION('',(0.,0.,1.));
#1669 = DIRECTION('',(1.,0.,0.));
#1670 = PLANE('',#1671);
#1671 = AXIS2_PLACEMENT_3D('',#1672,#1673,#1674);
#1672 = CARTESIAN_POINT('',(-7.890574365238,-45.17106005228,10.));
#1673 = DIRECTION('',(0.,0.,1.));
#1674 = DIRECTION('',(1.,0.,0.));
#1675 = ADVANCED_FACE('',(#1676),#1688,.T.);
#1676 = FACE_BOUND('',#1677,.F.);
#1677 = EDGE_LOOP('',(#1678,#1679,#1680,#1687));
#1678 = ORIENTED_EDGE('',*,*,#1478,.T.);
#1679 = ORIENTED_EDGE('',*,*,#926,.T.);
#1680 = ORIENTED_EDGE('',*,*,#1681,.F.);
#1681 = EDGE_CURVE('',#705,#854,#1682,.T.);
#1682 = CIRCLE('',#1683,2.);
#1683 = AXIS2_PLACEMENT_3D('',#1684,#1685,#1686);
#1684 = CARTESIAN_POINT('',(-22.99999999999,-63.,10.));
#1685 = DIRECTION('',(-0.,-0.,-1.));
#1686 = DIRECTION('',(0.,-1.,0.));
#1687 = ORIENTED_EDGE('',*,*,#712,.F.);
#1688 = CYLINDRICAL_SURFACE('',#1689,2.);
#1689 = AXIS2_PLACEMENT_3D('',#1690,#1691,#1692);
#1690 = CARTESIAN_POINT('',(-22.99999999999,-63.,-8.941E-13));
#1691 = DIRECTION('',(0.,0.,1.));
#1692 = DIRECTION('',(0.,-1.,0.));
#1693 = ADVANCED_FACE('',(#1694,#1706),#1717,.T.);
#1694 = FACE_BOUND('',#1695,.T.);
#1695 = EDGE_LOOP('',(#1696,#1697,#1698,#1699));
#1696 = ORIENTED_EDGE('',*,*,#851,.T.);
#1697 = ORIENTED_EDGE('',*,*,#1681,.F.);
#1698 = ORIENTED_EDGE('',*,*,#704,.T.);
#1699 = ORIENTED_EDGE('',*,*,#1700,.T.);
#1700 = EDGE_CURVE('',#697,#852,#1701,.T.);
#1701 = CIRCLE('',#1702,3.);
#1702 = AXIS2_PLACEMENT_3D('',#1703,#1704,#1705);
#1703 = CARTESIAN_POINT('',(-22.5,-62.5,10.));
#1704 = DIRECTION('',(0.,0.,1.));
#1705 = DIRECTION('',(1.,0.,0.));
#1706 = FACE_BOUND('',#1707,.F.);
#1707 = EDGE_LOOP('',(#1708));
#1708 = ORIENTED_EDGE('',*,*,#1709,.T.);
#1709 = EDGE_CURVE('',#1710,#1710,#1712,.T.);
#1710 = VERTEX_POINT('',#1711);
#1711 = CARTESIAN_POINT('',(-21.1,-62.5,10.));
#1712 = CIRCLE('',#1713,1.4);
#1713 = AXIS2_PLACEMENT_3D('',#1714,#1715,#1716);
#1714 = CARTESIAN_POINT('',(-22.5,-62.5,10.));
#1715 = DIRECTION('',(0.,0.,1.));
#1716 = DIRECTION('',(1.,0.,0.));
#1717 = PLANE('',#1718);
#1718 = AXIS2_PLACEMENT_3D('',#1719,#1720,#1721);
#1719 = CARTESIAN_POINT('',(-7.890574365238,-45.17106005228,10.));
#1720 = DIRECTION('',(0.,0.,1.));
#1721 = DIRECTION('',(1.,0.,0.));
#1722 = ADVANCED_FACE('',(#1723),#1729,.T.);
#1723 = FACE_BOUND('',#1724,.F.);
#1724 = EDGE_LOOP('',(#1725,#1726,#1727,#1728));
#1725 = ORIENTED_EDGE('',*,*,#696,.T.);
#1726 = ORIENTED_EDGE('',*,*,#1700,.T.);
#1727 = ORIENTED_EDGE('',*,*,#861,.F.);
#1728 = ORIENTED_EDGE('',*,*,#812,.F.);
#1729 = CYLINDRICAL_SURFACE('',#1730,3.);
#1730 = AXIS2_PLACEMENT_3D('',#1731,#1732,#1733);
#1731 = CARTESIAN_POINT('',(-22.5,-62.5,5.));
#1732 = DIRECTION('',(-0.,-0.,-1.));
#1733 = DIRECTION('',(1.,0.,0.));
#1734 = ADVANCED_FACE('',(#1735),#1753,.F.);
#1735 = FACE_BOUND('',#1736,.F.);
#1736 = EDGE_LOOP('',(#1737,#1738,#1746,#1752));
#1737 = ORIENTED_EDGE('',*,*,#878,.T.);
#1738 = ORIENTED_EDGE('',*,*,#1739,.T.);
#1739 = EDGE_CURVE('',#879,#1740,#1742,.T.);
#1740 = VERTEX_POINT('',#1741);
#1741 = CARTESIAN_POINT('',(-22.5,-15.5,10.));
#1742 = LINE('',#1743,#1744);
#1743 = CARTESIAN_POINT('',(-25.,-15.5,10.));
#1744 = VECTOR('',#1745,1.);
#1745 = DIRECTION('',(1.,0.,0.));
#1746 = ORIENTED_EDGE('',*,*,#1747,.F.);
#1747 = EDGE_CURVE('',#967,#1740,#1748,.T.);
#1748 = LINE('',#1749,#1750);
#1749 = CARTESIAN_POINT('',(-22.5,-15.5,5.));
#1750 = VECTOR('',#1751,1.);
#1751 = DIRECTION('',(0.,0.,1.));
#1752 = ORIENTED_EDGE('',*,*,#966,.F.);
#1753 = PLANE('',#1754);
#1754 = AXIS2_PLACEMENT_3D('',#1755,#1756,#1757);
#1755 = CARTESIAN_POINT('',(-25.,-15.5,5.));
#1756 = DIRECTION('',(0.,1.,0.));
#1757 = DIRECTION('',(1.,0.,0.));
#1758 = ADVANCED_FACE('',(#1759),#1777,.F.);
#1759 = FACE_BOUND('',#1760,.F.);
#1760 = EDGE_LOOP('',(#1761,#1769,#1775,#1776));
#1761 = ORIENTED_EDGE('',*,*,#1762,.T.);
#1762 = EDGE_CURVE('',#1017,#1763,#1765,.T.);
#1763 = VERTEX_POINT('',#1764);
#1764 = CARTESIAN_POINT('',(-22.5,-9.5,10.));
#1765 = LINE('',#1766,#1767);
#1766 = CARTESIAN_POINT('',(-22.5,-9.5,5.));
#1767 = VECTOR('',#1768,1.);
#1768 = DIRECTION('',(0.,0.,1.));
#1769 = ORIENTED_EDGE('',*,*,#1770,.T.);
#1770 = EDGE_CURVE('',#1763,#887,#1771,.T.);
#1771 = LINE('',#1772,#1773);
#1772 = CARTESIAN_POINT('',(-22.5,-9.5,10.));
#1773 = VECTOR('',#1774,1.);
#1774 = DIRECTION('',(-1.,0.,0.));
#1775 = ORIENTED_EDGE('',*,*,#894,.F.);
#1776 = ORIENTED_EDGE('',*,*,#1059,.F.);
#1777 = PLANE('',#1778);
#1778 = AXIS2_PLACEMENT_3D('',#1779,#1780,#1781);
#1779 = CARTESIAN_POINT('',(-22.5,-9.5,5.));
#1780 = DIRECTION('',(0.,-1.,0.));
#1781 = DIRECTION('',(-1.,0.,0.));
#1782 = ADVANCED_FACE('',(#1783,#1795),#1806,.T.);
#1783 = FACE_BOUND('',#1784,.T.);
#1784 = EDGE_LOOP('',(#1785,#1792,#1793,#1794));
#1785 = ORIENTED_EDGE('',*,*,#1786,.T.);
#1786 = EDGE_CURVE('',#1740,#1763,#1787,.T.);
#1787 = CIRCLE('',#1788,3.);
#1788 = AXIS2_PLACEMENT_3D('',#1789,#1790,#1791);
#1789 = CARTESIAN_POINT('',(-22.5,-12.5,10.));
#1790 = DIRECTION('',(0.,0.,1.));
#1791 = DIRECTION('',(1.,0.,0.));
#1792 = ORIENTED_EDGE('',*,*,#1770,.T.);
#1793 = ORIENTED_EDGE('',*,*,#886,.T.);
#1794 = ORIENTED_EDGE('',*,*,#1739,.T.);
#1795 = FACE_BOUND('',#1796,.F.);
#1796 = EDGE_LOOP('',(#1797));
#1797 = ORIENTED_EDGE('',*,*,#1798,.T.);
#1798 = EDGE_CURVE('',#1799,#1799,#1801,.T.);
#1799 = VERTEX_POINT('',#1800);
#1800 = CARTESIAN_POINT('',(-21.1,-12.5,10.));
#1801 = CIRCLE('',#1802,1.4);
#1802 = AXIS2_PLACEMENT_3D('',#1803,#1804,#1805);
#1803 = CARTESIAN_POINT('',(-22.5,-12.5,10.));
#1804 = DIRECTION('',(0.,0.,1.));
#1805 = DIRECTION('',(1.,0.,0.));
#1806 = PLANE('',#1807);
#1807 = AXIS2_PLACEMENT_3D('',#1808,#1809,#1810);
#1808 = CARTESIAN_POINT('',(-7.890574365238,-45.17106005228,10.));
#1809 = DIRECTION('',(0.,0.,1.));
#1810 = DIRECTION('',(1.,0.,0.));
#1811 = ADVANCED_FACE('',(#1812),#1818,.T.);
#1812 = FACE_BOUND('',#1813,.F.);
#1813 = EDGE_LOOP('',(#1814,#1815,#1816,#1817));
#1814 = ORIENTED_EDGE('',*,*,#1747,.T.);
#1815 = ORIENTED_EDGE('',*,*,#1786,.T.);
#1816 = ORIENTED_EDGE('',*,*,#1762,.F.);
#1817 = ORIENTED_EDGE('',*,*,#1025,.F.);
#1818 = CYLINDRICAL_SURFACE('',#1819,3.);
#1819 = AXIS2_PLACEMENT_3D('',#1820,#1821,#1822);
#1820 = CARTESIAN_POINT('',(-22.5,-12.5,5.));
#1821 = DIRECTION('',(-0.,-0.,-1.));
#1822 = DIRECTION('',(1.,0.,0.));
#1823 = ADVANCED_FACE('',(#1824),#1840,.F.);
#1824 = FACE_BOUND('',#1825,.F.);
#1825 = EDGE_LOOP('',(#1826,#1832,#1833,#1839));
#1826 = ORIENTED_EDGE('',*,*,#1827,.F.);
#1827 = EDGE_CURVE('',#1085,#1508,#1828,.T.);
#1828 = LINE('',#1829,#1830);
#1829 = CARTESIAN_POINT('',(-15.58845726812,-31.,5.));
#1830 = VECTOR('',#1831,1.);
#1831 = DIRECTION('',(-0.,-0.,-1.));
#1832 = ORIENTED_EDGE('',*,*,#1084,.F.);
#1833 = ORIENTED_EDGE('',*,*,#1834,.T.);
#1834 = EDGE_CURVE('',#1076,#1500,#1835,.T.);
#1835 = LINE('',#1836,#1837);
#1836 = CARTESIAN_POINT('',(-2.32E-15,-22.,5.));
#1837 = VECTOR('',#1838,1.);
#1838 = DIRECTION('',(-0.,-0.,-1.));
#1839 = ORIENTED_EDGE('',*,*,#1507,.T.);
#1840 = PLANE('',#1841);
#1841 = AXIS2_PLACEMENT_3D('',#1842,#1843,#1844);
#1842 = CARTESIAN_POINT('',(-1.09E-15,-22.,5.));
#1843 = DIRECTION('',(-0.5,0.866025403784,0.));
#1844 = DIRECTION('',(-0.866025403784,-0.5,0.));
#1845 = ADVANCED_FACE('',(#1846),#1857,.F.);
#1846 = FACE_BOUND('',#1847,.F.);
#1847 = EDGE_LOOP('',(#1848,#1849,#1850,#1856));
#1848 = ORIENTED_EDGE('',*,*,#1834,.F.);
#1849 = ORIENTED_EDGE('',*,*,#1117,.F.);
#1850 = ORIENTED_EDGE('',*,*,#1851,.T.);
#1851 = EDGE_CURVE('',#1109,#1498,#1852,.T.);
#1852 = LINE('',#1853,#1854);
#1853 = CARTESIAN_POINT('',(15.58845726812,-31.,5.));
#1854 = VECTOR('',#1855,1.);
#1855 = DIRECTION('',(-0.,-0.,-1.));
#1856 = ORIENTED_EDGE('',*,*,#1497,.T.);
#1857 = PLANE('',#1858);
#1858 = AXIS2_PLACEMENT_3D('',#1859,#1860,#1861);
#1859 = CARTESIAN_POINT('',(15.58845726812,-31.,5.));
#1860 = DIRECTION('',(0.5,0.866025403784,0.));
#1861 = DIRECTION('',(-0.866025403784,0.5,0.));
#1862 = ADVANCED_FACE('',(#1863),#1874,.F.);
#1863 = FACE_BOUND('',#1864,.F.);
#1864 = EDGE_LOOP('',(#1865,#1866,#1867,#1873));
#1865 = ORIENTED_EDGE('',*,*,#1851,.F.);
#1866 = ORIENTED_EDGE('',*,*,#1142,.F.);
#1867 = ORIENTED_EDGE('',*,*,#1868,.T.);
#1868 = EDGE_CURVE('',#1134,#1532,#1869,.T.);
#1869 = LINE('',#1870,#1871);
#1870 = CARTESIAN_POINT('',(15.58845726812,-49.,5.));
#1871 = VECTOR('',#1872,1.);
#1872 = DIRECTION('',(-0.,-0.,-1.));
#1873 = ORIENTED_EDGE('',*,*,#1539,.T.);
#1874 = PLANE('',#1875);
#1875 = AXIS2_PLACEMENT_3D('',#1876,#1877,#1878);
#1876 = CARTESIAN_POINT('',(15.58845726812,-49.,5.));
#1877 = DIRECTION('',(1.,0.,0.));
#1878 = DIRECTION('',(0.,1.,0.));
#1879 = ADVANCED_FACE('',(#1880),#1891,.F.);
#1880 = FACE_BOUND('',#1881,.F.);
#1881 = EDGE_LOOP('',(#1882,#1883,#1884,#1890));
#1882 = ORIENTED_EDGE('',*,*,#1868,.F.);
#1883 = ORIENTED_EDGE('',*,*,#1167,.F.);
#1884 = ORIENTED_EDGE('',*,*,#1885,.T.);
#1885 = EDGE_CURVE('',#1159,#1524,#1886,.T.);
#1886 = LINE('',#1887,#1888);
#1887 = CARTESIAN_POINT('',(-1.44E-15,-58.,5.));
#1888 = VECTOR('',#1889,1.);
#1889 = DIRECTION('',(-0.,-0.,-1.));
#1890 = ORIENTED_EDGE('',*,*,#1531,.T.);
#1891 = PLANE('',#1892);
#1892 = AXIS2_PLACEMENT_3D('',#1893,#1894,#1895);
#1893 = CARTESIAN_POINT('',(-1.09E-15,-58.,5.));
#1894 = DIRECTION('',(0.5,-0.866025403784,0.));
#1895 = DIRECTION('',(0.866025403784,0.5,0.));
#1896 = ADVANCED_FACE('',(#1897),#1908,.F.);
#1897 = FACE_BOUND('',#1898,.F.);
#1898 = EDGE_LOOP('',(#1899,#1900,#1901,#1907));
#1899 = ORIENTED_EDGE('',*,*,#1885,.F.);
#1900 = ORIENTED_EDGE('',*,*,#1192,.F.);
#1901 = ORIENTED_EDGE('',*,*,#1902,.T.);
#1902 = EDGE_CURVE('',#1184,#1516,#1903,.T.);
#1903 = LINE('',#1904,#1905);
#1904 = CARTESIAN_POINT('',(-15.58845726812,-49.,5.));
#1905 = VECTOR('',#1906,1.);
#1906 = DIRECTION('',(-0.,-0.,-1.));
#1907 = ORIENTED_EDGE('',*,*,#1523,.T.);
#1908 = PLANE('',#1909);
#1909 = AXIS2_PLACEMENT_3D('',#1910,#1911,#1912);
#1910 = CARTESIAN_POINT('',(-15.58845726812,-49.,5.));
#1911 = DIRECTION('',(-0.5,-0.866025403784,0.));
#1912 = DIRECTION('',(0.866025403784,-0.5,0.));
#1913 = ADVANCED_FACE('',(#1914),#1920,.F.);
#1914 = FACE_BOUND('',#1915,.F.);
#1915 = EDGE_LOOP('',(#1916,#1917,#1918,#1919));
#1916 = ORIENTED_EDGE('',*,*,#1902,.F.);
#1917 = ORIENTED_EDGE('',*,*,#1209,.F.);
#1918 = ORIENTED_EDGE('',*,*,#1827,.T.);
#1919 = ORIENTED_EDGE('',*,*,#1515,.T.);
#1920 = PLANE('',#1921);
#1921 = AXIS2_PLACEMENT_3D('',#1922,#1923,#1924);
#1922 = CARTESIAN_POINT('',(-15.58845726812,-31.,5.));
#1923 = DIRECTION('',(-1.,0.,0.));
#1924 = DIRECTION('',(0.,-1.,0.));
#1925 = ADVANCED_FACE('',(#1926,#1929),#1940,.T.);
#1926 = FACE_BOUND('',#1927,.T.);
#1927 = EDGE_LOOP('',(#1928));
#1928 = ORIENTED_EDGE('',*,*,#1427,.T.);
#1929 = FACE_BOUND('',#1930,.T.);
#1930 = EDGE_LOOP('',(#1931));
#1931 = ORIENTED_EDGE('',*,*,#1932,.F.);
#1932 = EDGE_CURVE('',#1933,#1933,#1935,.T.);
#1933 = VERTEX_POINT('',#1934);
#1934 = CARTESIAN_POINT('',(-10.9,0.,2.));
#1935 = CIRCLE('',#1936,1.6);
#1936 = AXIS2_PLACEMENT_3D('',#1937,#1938,#1939);
#1937 = CARTESIAN_POINT('',(-12.5,0.,2.));
#1938 = DIRECTION('',(0.,0.,1.));
#1939 = DIRECTION('',(1.,0.,0.));
#1940 = PLANE('',#1941);
#1941 = AXIS2_PLACEMENT_3D('',#1942,#1943,#1944);
#1942 = CARTESIAN_POINT('',(-12.5,0.,2.));
#1943 = DIRECTION('',(0.,0.,1.));
#1944 = DIRECTION('',(1.,0.,0.));
#1945 = ADVANCED_FACE('',(#1946,#1949),#1960,.T.);
#1946 = FACE_BOUND('',#1947,.T.);
#1947 = EDGE_LOOP('',(#1948));
#1948 = ORIENTED_EDGE('',*,*,#1452,.T.);
#1949 = FACE_BOUND('',#1950,.T.);
#1950 = EDGE_LOOP('',(#1951));
#1951 = ORIENTED_EDGE('',*,*,#1952,.F.);
#1952 = EDGE_CURVE('',#1953,#1953,#1955,.T.);
#1953 = VERTEX_POINT('',#1954);
#1954 = CARTESIAN_POINT('',(14.1,0.,2.));
#1955 = CIRCLE('',#1956,1.6);
#1956 = AXIS2_PLACEMENT_3D('',#1957,#1958,#1959);
#1957 = CARTESIAN_POINT('',(12.5,0.,2.));
#1958 = DIRECTION('',(0.,0.,1.));
#1959 = DIRECTION('',(1.,0.,0.));
#1960 = PLANE('',#1961);
#1961 = AXIS2_PLACEMENT_3D('',#1962,#1963,#1964);
#1962 = CARTESIAN_POINT('',(12.5,0.,2.));
#1963 = DIRECTION('',(0.,0.,1.));
#1964 = DIRECTION('',(1.,0.,0.));
#1965 = ADVANCED_FACE('',(#1966),#1977,.F.);
#1966 = FACE_BOUND('',#1967,.T.);
#1967 = EDGE_LOOP('',(#1968,#1974,#1975,#1976));
#1968 = ORIENTED_EDGE('',*,*,#1969,.F.);
#1969 = EDGE_CURVE('',#1933,#1560,#1970,.T.);
#1970 = LINE('',#1971,#1972);
#1971 = CARTESIAN_POINT('',(-10.9,0.,2.));
#1972 = VECTOR('',#1973,1.);
#1973 = DIRECTION('',(-6.E-17,0.,-1.));
#1974 = ORIENTED_EDGE('',*,*,#1932,.T.);
#1975 = ORIENTED_EDGE('',*,*,#1969,.T.);
#1976 = ORIENTED_EDGE('',*,*,#1559,.T.);
#1977 = CYLINDRICAL_SURFACE('',#1978,1.6);
#1978 = AXIS2_PLACEMENT_3D('',#1979,#1980,#1981);
#1979 = CARTESIAN_POINT('',(-12.5,0.,2.));
#1980 = DIRECTION('',(-0.,-0.,-1.));
#1981 = DIRECTION('',(1.,0.,0.));
#1982 = ADVANCED_FACE('',(#1983),#1994,.F.);
#1983 = FACE_BOUND('',#1984,.T.);
#1984 = EDGE_LOOP('',(#1985,#1991,#1992,#1993));
#1985 = ORIENTED_EDGE('',*,*,#1986,.F.);
#1986 = EDGE_CURVE('',#1953,#1571,#1987,.T.);
#1987 = LINE('',#1988,#1989);
#1988 = CARTESIAN_POINT('',(14.1,0.,2.));
#1989 = VECTOR('',#1990,1.);
#1990 = DIRECTION('',(-6.E-17,0.,-1.));
#1991 = ORIENTED_EDGE('',*,*,#1952,.T.);
#1992 = ORIENTED_EDGE('',*,*,#1986,.T.);
#1993 = ORIENTED_EDGE('',*,*,#1570,.T.);
#1994 = CYLINDRICAL_SURFACE('',#1995,1.6);
#1995 = AXIS2_PLACEMENT_3D('',#1996,#1997,#1998);
#1996 = CARTESIAN_POINT('',(12.5,0.,2.));
#1997 = DIRECTION('',(-0.,-0.,-1.));
#1998 = DIRECTION('',(1.,0.,0.));
#1999 = ADVANCED_FACE('',(#2000),#2010,.F.);
#2000 = FACE_BOUND('',#2001,.T.);
#2001 = EDGE_LOOP('',(#2002,#2003,#2008,#2009));
#2002 = ORIENTED_EDGE('',*,*,#1798,.T.);
#2003 = ORIENTED_EDGE('',*,*,#2004,.T.);
#2004 = EDGE_CURVE('',#1799,#1582,#2005,.T.);
#2005 = B_SPLINE_CURVE_WITH_KNOTS('',1,(#2006,#2007),.UNSPECIFIED.,.F.,
  .F.,(2,2),(-10.,0.),.PIECEWISE_BEZIER_KNOTS.);
#2006 = CARTESIAN_POINT('',(-21.1,-12.5,10.));
#2007 = CARTESIAN_POINT('',(-21.1,-12.5,0.));
#2008 = ORIENTED_EDGE('',*,*,#1581,.F.);
#2009 = ORIENTED_EDGE('',*,*,#2004,.F.);
#2010 = CYLINDRICAL_SURFACE('',#2011,1.4);
#2011 = AXIS2_PLACEMENT_3D('',#2012,#2013,#2014);
#2012 = CARTESIAN_POINT('',(-22.5,-12.5,0.));
#2013 = DIRECTION('',(-0.,-0.,-1.));
#2014 = DIRECTION('',(1.,0.,0.));
#2015 = ADVANCED_FACE('',(#2016),#2026,.F.);
#2016 = FACE_BOUND('',#2017,.T.);
#2017 = EDGE_LOOP('',(#2018,#2019,#2024,#2025));
#2018 = ORIENTED_EDGE('',*,*,#1709,.T.);
#2019 = ORIENTED_EDGE('',*,*,#2020,.T.);
#2020 = EDGE_CURVE('',#1710,#1593,#2021,.T.);
#2021 = B_SPLINE_CURVE_WITH_KNOTS('',1,(#2022,#2023),.UNSPECIFIED.,.F.,
  .F.,(2,2),(-10.,0.),.PIECEWISE_BEZIER_KNOTS.);
#2022 = CARTESIAN_POINT('',(-21.1,-62.5,10.));
#2023 = CARTESIAN_POINT('',(-21.1,-62.5,0.));
#2024 = ORIENTED_EDGE('',*,*,#1592,.F.);
#2025 = ORIENTED_EDGE('',*,*,#2020,.F.);
#2026 = CYLINDRICAL_SURFACE('',#2027,1.4);
#2027 = AXIS2_PLACEMENT_3D('',#2028,#2029,#2030);
#2028 = CARTESIAN_POINT('',(-22.5,-62.5,0.));
#2029 = DIRECTION('',(-0.,-0.,-1.));
#2030 = DIRECTION('',(1.,0.,0.));
#2031 = ADVANCED_FACE('',(#2032),#2042,.F.);
#2032 = FACE_BOUND('',#2033,.T.);
#2033 = EDGE_LOOP('',(#2034,#2035,#2040,#2041));
#2034 = ORIENTED_EDGE('',*,*,#1662,.T.);
#2035 = ORIENTED_EDGE('',*,*,#2036,.T.);
#2036 = EDGE_CURVE('',#1663,#1604,#2037,.T.);
#2037 = B_SPLINE_CURVE_WITH_KNOTS('',1,(#2038,#2039),.UNSPECIFIED.,.F.,
  .F.,(2,2),(-10.,0.),.PIECEWISE_BEZIER_KNOTS.);
#2038 = CARTESIAN_POINT('',(23.9,-62.5,10.));
#2039 = CARTESIAN_POINT('',(23.9,-62.5,0.));
#2040 = ORIENTED_EDGE('',*,*,#1603,.F.);
#2041 = ORIENTED_EDGE('',*,*,#2036,.F.);
#2042 = CYLINDRICAL_SURFACE('',#2043,1.4);
#2043 = AXIS2_PLACEMENT_3D('',#2044,#2045,#2046);
#2044 = CARTESIAN_POINT('',(22.5,-62.5,0.));
#2045 = DIRECTION('',(-0.,-0.,-1.));
#2046 = DIRECTION('',(1.,0.,0.));
#2047 = ( GEOMETRIC_REPRESENTATION_CONTEXT(3) 
GLOBAL_UNCERTAINTY_ASSIGNED_CONTEXT((#2051)) 
GLOBAL_UNIT_ASSIGNED_CONTEXT((#2048,#2049,#2050)) REPRESENTATION_CONTEXT
('Context #1','3D Context with UNIT and UNCERTAINTY') );
#2048 = ( LENGTH_UNIT() NAMED_UNIT(*) SI_UNIT(.MILLI.,.METRE.) );
#2049 = ( NAMED_UNIT(*) PLANE_ANGLE_UNIT() SI_UNIT($,.RADIAN.) );
#2050 = ( NAMED_UNIT(*) SI_UNIT($,.STERADIAN.) SOLID_ANGLE_UNIT() );
#2051 = UNCERTAINTY_MEASURE_WITH_UNIT(LENGTH_MEASURE(5.E-06),#2048,
  'distance_accuracy_value','confusion accuracy');
#2052 = PRODUCT_RELATED_PRODUCT_CATEGORY('part',$,(#7));
#2053 = MECHANICAL_DESIGN_GEOMETRIC_PRESENTATION_REPRESENTATION('',(
    #2054),#2047);
#2054 = STYLED_ITEM('color',(#2055),#15);
#2055 = PRESENTATION_STYLE_ASSIGNMENT((#2056,#2062));
#2056 = SURFACE_STYLE_USAGE(.BOTH.,#2057);
#2057 = SURFACE_SIDE_STYLE('',(#2058));
#2058 = SURFACE_STYLE_FILL_AREA(#2059);
#2059 = FILL_AREA_STYLE('',(#2060));
#2060 = FILL_AREA_STYLE_COLOUR('',#2061);
#2061 = COLOUR_RGB('',0.447058818107,0.474509808674,0.501960817233);
#2062 = CURVE_STYLE('',#2063,POSITIVE_LENGTH_MEASURE(0.1),#2064);
#2063 = DRAUGHTING_PRE_DEFINED_CURVE_FONT('continuous');
#2064 = COLOUR_RGB('',9.803921802644E-02,9.803921802644E-02,
  9.803921802644E-02);
ENDSEC;
END-ISO-10303-21;
