ISO-10303-21;
HEADER;
FILE_DESCRIPTION(('FreeCAD Model'),'2;1');
FILE_NAME('Open CASCADE Shape Model','2026-01-20T10:35:40',(''),(''),
  'Open CASCADE STEP processor 7.9','FreeCAD','Unknown');
FILE_SCHEMA(('AUTOMOTIVE_DESIGN { 1 0 10303 214 1 1 1 1 }'));
ENDSEC;
DATA;
#1 = APPLICATION_PROTOCOL_DEFINITION('international standard',
  'automotive_design',2000,#2);
#2 = APPLICATION_CONTEXT(
  'core data for automotive mechanical design processes');
#3 = SHAPE_DEFINITION_REPRESENTATION(#4,#10);
#4 = PRODUCT_DEFINITION_SHAPE('','',#5);
#5 = PRODUCT_DEFINITION('design','',#6,#9);
#6 = PRODUCT_DEFINITION_FORMATION('','',#7);
#7 = PRODUCT('probe_body','probe_body','',(#8));
#8 = PRODUCT_CONTEXT('',#2,'mechanical');
#9 = PRODUCT_DEFINITION_CONTEXT('part definition',#2,'design');
#10 = ADVANCED_BREP_SHAPE_REPRESENTATION('',(#11,#15),#1292);
#11 = AXIS2_PLACEMENT_3D('',#12,#13,#14);
#12 = CARTESIAN_POINT('',(0.,0.,0.));
#13 = DIRECTION('',(0.,0.,1.));
#14 = DIRECTION('',(1.,0.,-0.));
#15 = MANIFOLD_SOLID_BREP('',#16);
#16 = CLOSED_SHELL('',(#17,#59,#91,#122,#154,#220,#244,#337,#355,#449,
    #488,#513,#538,#563,#580,#597,#609,#640,#664,#682,#713,#754,#790,
    #814,#839,#868,#902,#927,#958,#982,#1000,#1031,#1055,#1096,#1120,
    #1137,#1166,#1183,#1194,#1206,#1231,#1256,#1265,#1274));
#17 = ADVANCED_FACE('',(#18),#54,.F.);
#18 = FACE_BOUND('',#19,.T.);
#19 = EDGE_LOOP('',(#20,#31,#39,#48));
#20 = ORIENTED_EDGE('',*,*,#21,.F.);
#21 = EDGE_CURVE('',#22,#24,#26,.T.);
#22 = VERTEX_POINT('',#23);
#23 = CARTESIAN_POINT('',(10.750217175461,5.,7.989581719585));
#24 = VERTEX_POINT('',#25);
#25 = CARTESIAN_POINT('',(11.,5.,2.000000000031));
#26 = CIRCLE('',#27,3.);
#27 = AXIS2_PLACEMENT_3D('',#28,#29,#30);
#28 = CARTESIAN_POINT('',(11.,5.,5.));
#29 = DIRECTION('',(0.,-1.,0.));
#30 = DIRECTION('',(1.,0.,0.));
#31 = ORIENTED_EDGE('',*,*,#32,.T.);
#32 = EDGE_CURVE('',#22,#33,#35,.T.);
#33 = VERTEX_POINT('',#34);
#34 = CARTESIAN_POINT('',(10.750217108161,-5.,7.989583333333));
#35 = LINE('',#36,#37);
#36 = CARTESIAN_POINT('',(10.750217108161,5.,7.989583333333));
#37 = VECTOR('',#38,1.);
#38 = DIRECTION('',(0.,-1.,4.4E-16));
#39 = ORIENTED_EDGE('',*,*,#40,.T.);
#40 = EDGE_CURVE('',#33,#41,#43,.T.);
#41 = VERTEX_POINT('',#42);
#42 = CARTESIAN_POINT('',(11.,-5.,2.));
#43 = CIRCLE('',#44,3.);
#44 = AXIS2_PLACEMENT_3D('',#45,#46,#47);
#45 = CARTESIAN_POINT('',(11.,-5.,5.));
#46 = DIRECTION('',(0.,-1.,0.));
#47 = DIRECTION('',(1.,0.,0.));
#48 = ORIENTED_EDGE('',*,*,#49,.F.);
#49 = EDGE_CURVE('',#24,#41,#50,.T.);
#50 = LINE('',#51,#52);
#51 = CARTESIAN_POINT('',(11.,5.,2.));
#52 = VECTOR('',#53,1.);
#53 = DIRECTION('',(0.,-1.,4.4E-16));
#54 = CYLINDRICAL_SURFACE('',#55,3.);
#55 = AXIS2_PLACEMENT_3D('',#56,#57,#58);
#56 = CARTESIAN_POINT('',(11.,5.,5.));
#57 = DIRECTION('',(0.,1.,-4.4E-16));
#58 = DIRECTION('',(1.,0.,0.));
#59 = ADVANCED_FACE('',(#60),#86,.F.);
#60 = FACE_BOUND('',#61,.T.);
#61 = EDGE_LOOP('',(#62,#63,#71,#80));
#62 = ORIENTED_EDGE('',*,*,#21,.T.);
#63 = ORIENTED_EDGE('',*,*,#64,.T.);
#64 = EDGE_CURVE('',#24,#65,#67,.T.);
#65 = VERTEX_POINT('',#66);
#66 = CARTESIAN_POINT('',(11.,7.,2.000000000063));
#67 = LINE('',#68,#69);
#68 = CARTESIAN_POINT('',(11.,5.,2.000000000063));
#69 = VECTOR('',#70,1.);
#70 = DIRECTION('',(0.,1.,2.22044604925E-16));
#71 = ORIENTED_EDGE('',*,*,#72,.T.);
#72 = EDGE_CURVE('',#65,#73,#75,.T.);
#73 = VERTEX_POINT('',#74);
#74 = CARTESIAN_POINT('',(10.750217175461,7.,7.989581719585));
#75 = CIRCLE('',#76,3.);
#76 = AXIS2_PLACEMENT_3D('',#77,#78,#79);
#77 = CARTESIAN_POINT('',(11.000019381066,7.,5.));
#78 = DIRECTION('',(-0.,1.,2.22044604925E-16));
#79 = DIRECTION('',(1.,0.,0.));
#80 = ORIENTED_EDGE('',*,*,#81,.T.);
#81 = EDGE_CURVE('',#73,#22,#82,.T.);
#82 = LINE('',#83,#84);
#83 = CARTESIAN_POINT('',(10.750217175461,7.,7.989581719585));
#84 = VECTOR('',#85,1.);
#85 = DIRECTION('',(0.,-1.,-2.22044604925E-16));
#86 = CYLINDRICAL_SURFACE('',#87,3.);
#87 = AXIS2_PLACEMENT_3D('',#88,#89,#90);
#88 = CARTESIAN_POINT('',(11.000019381066,5.,5.));
#89 = DIRECTION('',(0.,-1.,-2.22044604925E-16));
#90 = DIRECTION('',(1.,0.,0.));
#91 = ADVANCED_FACE('',(#92),#117,.F.);
#92 = FACE_BOUND('',#93,.F.);
#93 = EDGE_LOOP('',(#94,#102,#103,#111));
#94 = ORIENTED_EDGE('',*,*,#95,.F.);
#95 = EDGE_CURVE('',#22,#96,#98,.T.);
#96 = VERTEX_POINT('',#97);
#97 = CARTESIAN_POINT('',(11.,5.,8.249999999937));
#98 = LINE('',#99,#100);
#99 = CARTESIAN_POINT('',(11.,5.,8.249999999937));
#100 = VECTOR('',#101,1.);
#101 = DIRECTION('',(0.69221632406,-1.602473870205E-16,0.721690072473));
#102 = ORIENTED_EDGE('',*,*,#32,.T.);
#103 = ORIENTED_EDGE('',*,*,#104,.T.);
#104 = EDGE_CURVE('',#33,#105,#107,.T.);
#105 = VERTEX_POINT('',#106);
#106 = CARTESIAN_POINT('',(11.,-5.,8.25));
#107 = LINE('',#108,#109);
#108 = CARTESIAN_POINT('',(7.552788934856,-5.,4.656034023102));
#109 = VECTOR('',#110,1.);
#110 = DIRECTION('',(0.692218655243,3.175426480543E-16,0.721687836487));
#111 = ORIENTED_EDGE('',*,*,#112,.F.);
#112 = EDGE_CURVE('',#96,#105,#113,.T.);
#113 = LINE('',#114,#115);
#114 = CARTESIAN_POINT('',(11.,5.,8.25));
#115 = VECTOR('',#116,1.);
#116 = DIRECTION('',(0.,-1.,4.4E-16));
#117 = PLANE('',#118);
#118 = AXIS2_PLACEMENT_3D('',#119,#120,#121);
#119 = CARTESIAN_POINT('',(11.,5.,8.25));
#120 = DIRECTION('',(-0.721687836487,3.04576208307E-16,0.692218655243));
#121 = DIRECTION('',(-4.930380657631E-32,-1.,4.4E-16));
#122 = ADVANCED_FACE('',(#123),#149,.T.);
#123 = FACE_BOUND('',#124,.T.);
#124 = EDGE_LOOP('',(#125,#126,#134,#142,#148));
#125 = ORIENTED_EDGE('',*,*,#49,.T.);
#126 = ORIENTED_EDGE('',*,*,#127,.T.);
#127 = EDGE_CURVE('',#41,#128,#130,.T.);
#128 = VERTEX_POINT('',#129);
#129 = CARTESIAN_POINT('',(11.,-5.,2.E-15));
#130 = LINE('',#131,#132);
#131 = CARTESIAN_POINT('',(11.,-5.,2.));
#132 = VECTOR('',#133,1.);
#133 = DIRECTION('',(0.,0.,-1.));
#134 = ORIENTED_EDGE('',*,*,#135,.F.);
#135 = EDGE_CURVE('',#136,#128,#138,.T.);
#136 = VERTEX_POINT('',#137);
#137 = CARTESIAN_POINT('',(11.,7.,-1.75591079015E-15));
#138 = LINE('',#139,#140);
#139 = CARTESIAN_POINT('',(11.,5.,-2.22E-15));
#140 = VECTOR('',#141,1.);
#141 = DIRECTION('',(0.,-1.,4.4E-16));
#142 = ORIENTED_EDGE('',*,*,#143,.T.);
#143 = EDGE_CURVE('',#136,#65,#144,.T.);
#144 = LINE('',#145,#146);
#145 = CARTESIAN_POINT('',(11.,7.,-1.7763568394E-15));
#146 = VECTOR('',#147,1.);
#147 = DIRECTION('',(0.,-2.22044604925E-16,1.));
#148 = ORIENTED_EDGE('',*,*,#64,.F.);
#149 = PLANE('',#150);
#150 = AXIS2_PLACEMENT_3D('',#151,#152,#153);
#151 = CARTESIAN_POINT('',(11.,1.000000000013,1.000000000007));
#152 = DIRECTION('',(1.,-5.689893001241E-16,-1.263410043526E-31));
#153 = DIRECTION('',(-5.689893001241E-16,-1.,-2.22044604925E-16));
#154 = ADVANCED_FACE('',(#155),#215,.T.);
#155 = FACE_BOUND('',#156,.T.);
#156 = EDGE_LOOP('',(#157,#158,#159,#167,#175,#183,#191,#200,#208,#214)
  );
#157 = ORIENTED_EDGE('',*,*,#40,.F.);
#158 = ORIENTED_EDGE('',*,*,#104,.T.);
#159 = ORIENTED_EDGE('',*,*,#160,.T.);
#160 = EDGE_CURVE('',#105,#161,#163,.T.);
#161 = VERTEX_POINT('',#162);
#162 = CARTESIAN_POINT('',(11.,-5.,10.));
#163 = LINE('',#164,#165);
#164 = CARTESIAN_POINT('',(11.,-5.,8.));
#165 = VECTOR('',#166,1.);
#166 = DIRECTION('',(0.,0.,1.));
#167 = ORIENTED_EDGE('',*,*,#168,.F.);
#168 = EDGE_CURVE('',#169,#161,#171,.T.);
#169 = VERTEX_POINT('',#170);
#170 = CARTESIAN_POINT('',(-11.,-5.,10.));
#171 = LINE('',#172,#173);
#172 = CARTESIAN_POINT('',(0.,-5.,10.));
#173 = VECTOR('',#174,1.);
#174 = DIRECTION('',(1.,0.,0.));
#175 = ORIENTED_EDGE('',*,*,#176,.F.);
#176 = EDGE_CURVE('',#177,#169,#179,.T.);
#177 = VERTEX_POINT('',#178);
#178 = CARTESIAN_POINT('',(-11.,-5.,8.25));
#179 = LINE('',#180,#181);
#180 = CARTESIAN_POINT('',(-11.,-5.,8.));
#181 = VECTOR('',#182,1.);
#182 = DIRECTION('',(0.,0.,1.));
#183 = ORIENTED_EDGE('',*,*,#184,.T.);
#184 = EDGE_CURVE('',#177,#185,#187,.T.);
#185 = VERTEX_POINT('',#186);
#186 = CARTESIAN_POINT('',(-10.75021710816,-5.,7.989583333333));
#187 = LINE('',#188,#189);
#188 = CARTESIAN_POINT('',(-7.552788934856,-5.,4.656034023102));
#189 = VECTOR('',#190,1.);
#190 = DIRECTION('',(0.692218655243,-3.175426480543E-16,-0.721687836487)
  );
#191 = ORIENTED_EDGE('',*,*,#192,.T.);
#192 = EDGE_CURVE('',#185,#193,#195,.T.);
#193 = VERTEX_POINT('',#194);
#194 = CARTESIAN_POINT('',(-11.,-5.,2.));
#195 = CIRCLE('',#196,3.);
#196 = AXIS2_PLACEMENT_3D('',#197,#198,#199);
#197 = CARTESIAN_POINT('',(-11.,-5.,5.));
#198 = DIRECTION('',(0.,1.,-0.));
#199 = DIRECTION('',(-1.,0.,0.));
#200 = ORIENTED_EDGE('',*,*,#201,.T.);
#201 = EDGE_CURVE('',#193,#202,#204,.T.);
#202 = VERTEX_POINT('',#203);
#203 = CARTESIAN_POINT('',(-11.,-5.,2.E-15));
#204 = LINE('',#205,#206);
#205 = CARTESIAN_POINT('',(-11.,-5.,2.));
#206 = VECTOR('',#207,1.);
#207 = DIRECTION('',(0.,0.,-1.));
#208 = ORIENTED_EDGE('',*,*,#209,.T.);
#209 = EDGE_CURVE('',#202,#128,#210,.T.);
#210 = LINE('',#211,#212);
#211 = CARTESIAN_POINT('',(0.,-5.,2.22E-15));
#212 = VECTOR('',#213,1.);
#213 = DIRECTION('',(1.,0.,0.));
#214 = ORIENTED_EDGE('',*,*,#127,.F.);
#215 = PLANE('',#216);
#216 = AXIS2_PLACEMENT_3D('',#217,#218,#219);
#217 = CARTESIAN_POINT('',(-1.E-16,-5.,5.));
#218 = DIRECTION('',(0.,-1.,4.4E-16));
#219 = DIRECTION('',(0.,4.4E-16,1.));
#220 = ADVANCED_FACE('',(#221),#239,.F.);
#221 = FACE_BOUND('',#222,.F.);
#222 = EDGE_LOOP('',(#223,#231,#232,#233));
#223 = ORIENTED_EDGE('',*,*,#224,.F.);
#224 = EDGE_CURVE('',#73,#225,#227,.T.);
#225 = VERTEX_POINT('',#226);
#226 = CARTESIAN_POINT('',(11.,7.,8.249999999937));
#227 = LINE('',#228,#229);
#228 = CARTESIAN_POINT('',(7.566313664594,7.,4.67011138114));
#229 = VECTOR('',#230,1.);
#230 = DIRECTION('',(0.69221632406,0.,0.721690072473));
#231 = ORIENTED_EDGE('',*,*,#81,.T.);
#232 = ORIENTED_EDGE('',*,*,#95,.T.);
#233 = ORIENTED_EDGE('',*,*,#234,.F.);
#234 = EDGE_CURVE('',#225,#96,#235,.T.);
#235 = LINE('',#236,#237);
#236 = CARTESIAN_POINT('',(11.,7.,8.249999999937));
#237 = VECTOR('',#238,1.);
#238 = DIRECTION('',(0.,-1.,-2.22044604925E-16));
#239 = PLANE('',#240);
#240 = AXIS2_PLACEMENT_3D('',#241,#242,#243);
#241 = CARTESIAN_POINT('',(11.,7.,8.249999999937));
#242 = DIRECTION('',(-0.721690072473,-1.537029001985E-16,0.69221632406)
  );
#243 = DIRECTION('',(0.,-1.,-2.22044604925E-16));
#244 = ADVANCED_FACE('',(#245,#305),#332,.T.);
#245 = FACE_BOUND('',#246,.T.);
#246 = EDGE_LOOP('',(#247,#248,#249,#257,#265,#274,#282,#290,#298,#304)
  );
#247 = ORIENTED_EDGE('',*,*,#72,.F.);
#248 = ORIENTED_EDGE('',*,*,#143,.F.);
#249 = ORIENTED_EDGE('',*,*,#250,.F.);
#250 = EDGE_CURVE('',#251,#136,#253,.T.);
#251 = VERTEX_POINT('',#252);
#252 = CARTESIAN_POINT('',(-11.,7.,-1.75591079015E-15));
#253 = LINE('',#254,#255);
#254 = CARTESIAN_POINT('',(-11.,7.,-1.7763568394E-15));
#255 = VECTOR('',#256,1.);
#256 = DIRECTION('',(1.,0.,0.));
#257 = ORIENTED_EDGE('',*,*,#258,.F.);
#258 = EDGE_CURVE('',#259,#251,#261,.T.);
#259 = VERTEX_POINT('',#260);
#260 = CARTESIAN_POINT('',(-11.,7.,2.000000000033));
#261 = LINE('',#262,#263);
#262 = CARTESIAN_POINT('',(-11.,7.,2.000000000033));
#263 = VECTOR('',#264,1.);
#264 = DIRECTION('',(0.,2.22044604925E-16,-1.));
#265 = ORIENTED_EDGE('',*,*,#266,.F.);
#266 = EDGE_CURVE('',#267,#259,#269,.T.);
#267 = VERTEX_POINT('',#268);
#268 = CARTESIAN_POINT('',(-10.7502171567,7.,7.989582169328));
#269 = CIRCLE('',#270,3.);
#270 = AXIS2_PLACEMENT_3D('',#271,#272,#273);
#271 = CARTESIAN_POINT('',(-11.00001397981,7.,5.));
#272 = DIRECTION('',(-0.,1.,2.22044604925E-16));
#273 = DIRECTION('',(1.,0.,0.));
#274 = ORIENTED_EDGE('',*,*,#275,.F.);
#275 = EDGE_CURVE('',#276,#267,#278,.T.);
#276 = VERTEX_POINT('',#277);
#277 = CARTESIAN_POINT('',(-11.,7.,8.249999999967));
#278 = LINE('',#279,#280);
#279 = CARTESIAN_POINT('',(-7.566308984725,7.,4.670112952938));
#280 = VECTOR('',#281,1.);
#281 = DIRECTION('',(0.692216973731,0.,-0.721689449333));
#282 = ORIENTED_EDGE('',*,*,#283,.F.);
#283 = EDGE_CURVE('',#284,#276,#286,.T.);
#284 = VERTEX_POINT('',#285);
#285 = CARTESIAN_POINT('',(-11.,7.,10.));
#286 = LINE('',#287,#288);
#287 = CARTESIAN_POINT('',(-11.,7.,10.));
#288 = VECTOR('',#289,1.);
#289 = DIRECTION('',(-7.993605777171E-15,2.22044604925E-16,-1.));
#290 = ORIENTED_EDGE('',*,*,#291,.F.);
#291 = EDGE_CURVE('',#292,#284,#294,.T.);
#292 = VERTEX_POINT('',#293);
#293 = CARTESIAN_POINT('',(11.,7.,10.));
#294 = LINE('',#295,#296);
#295 = CARTESIAN_POINT('',(11.,7.,10.));
#296 = VECTOR('',#297,1.);
#297 = DIRECTION('',(-1.,0.,-0.));
#298 = ORIENTED_EDGE('',*,*,#299,.F.);
#299 = EDGE_CURVE('',#225,#292,#300,.T.);
#300 = LINE('',#301,#302);
#301 = CARTESIAN_POINT('',(11.,7.,7.999999999937));
#302 = VECTOR('',#303,1.);
#303 = DIRECTION('',(-7.993605777051E-15,-2.22044604925E-16,1.));
#304 = ORIENTED_EDGE('',*,*,#224,.F.);
#305 = FACE_BOUND('',#306,.T.);
#306 = EDGE_LOOP('',(#307,#317,#325));
#307 = ORIENTED_EDGE('',*,*,#308,.F.);
#308 = EDGE_CURVE('',#309,#311,#313,.T.);
#309 = VERTEX_POINT('',#310);
#310 = CARTESIAN_POINT('',(1.415534356397E-15,7.,8.786885245902));
#311 = VERTEX_POINT('',#312);
#312 = CARTESIAN_POINT('',(1.618723987262,7.,7.875714285714));
#313 = LINE('',#314,#315);
#314 = CARTESIAN_POINT('',(0.122630605096,7.,8.717857142857));
#315 = VECTOR('',#316,1.);
#316 = DIRECTION('',(0.871428571429,1.089178570407E-16,-0.490522420383)
  );
#317 = ORIENTED_EDGE('',*,*,#318,.F.);
#318 = EDGE_CURVE('',#319,#309,#321,.T.);
#319 = VERTEX_POINT('',#320);
#320 = CARTESIAN_POINT('',(-1.618723987263,7.,7.875714285714));
#321 = LINE('',#322,#323);
#322 = CARTESIAN_POINT('',(-1.618723987263,7.,7.875714285714));
#323 = VECTOR('',#324,1.);
#324 = DIRECTION('',(0.871428571429,-1.089178570407E-16,0.490522420383)
  );
#325 = ORIENTED_EDGE('',*,*,#326,.F.);
#326 = EDGE_CURVE('',#311,#319,#327,.T.);
#327 = CIRCLE('',#328,3.3);
#328 = AXIS2_PLACEMENT_3D('',#329,#330,#331);
#329 = CARTESIAN_POINT('',(0.,7.,5.));
#330 = DIRECTION('',(-0.,1.,0.));
#331 = DIRECTION('',(0.490522420383,0.,0.871428571429));
#332 = PLANE('',#333);
#333 = AXIS2_PLACEMENT_3D('',#334,#335,#336);
#334 = CARTESIAN_POINT('',(-6.822940233553E-07,7.,5.054074670425));
#335 = DIRECTION('',(0.,1.,0.));
#336 = DIRECTION('',(0.,0.,1.));
#337 = ADVANCED_FACE('',(#338),#350,.T.);
#338 = FACE_BOUND('',#339,.T.);
#339 = EDGE_LOOP('',(#340,#341,#347,#348,#349));
#340 = ORIENTED_EDGE('',*,*,#299,.T.);
#341 = ORIENTED_EDGE('',*,*,#342,.F.);
#342 = EDGE_CURVE('',#161,#292,#343,.T.);
#343 = LINE('',#344,#345);
#344 = CARTESIAN_POINT('',(11.,5.,10.));
#345 = VECTOR('',#346,1.);
#346 = DIRECTION('',(0.,1.,2.22044604925E-16));
#347 = ORIENTED_EDGE('',*,*,#160,.F.);
#348 = ORIENTED_EDGE('',*,*,#112,.F.);
#349 = ORIENTED_EDGE('',*,*,#234,.F.);
#350 = PLANE('',#351);
#351 = AXIS2_PLACEMENT_3D('',#352,#353,#354);
#352 = CARTESIAN_POINT('',(11.,1.000000000013,8.999999999993));
#353 = DIRECTION('',(1.,-2.590520390786E-16,1.712915523776E-15));
#354 = DIRECTION('',(-1.712915523776E-15,-2.22044604925E-16,1.));
#355 = ADVANCED_FACE('',(#356,#367),#444,.T.);
#356 = FACE_BOUND('',#357,.T.);
#357 = EDGE_LOOP('',(#358,#359,#360,#366));
#358 = ORIENTED_EDGE('',*,*,#135,.T.);
#359 = ORIENTED_EDGE('',*,*,#209,.F.);
#360 = ORIENTED_EDGE('',*,*,#361,.F.);
#361 = EDGE_CURVE('',#251,#202,#362,.T.);
#362 = LINE('',#363,#364);
#363 = CARTESIAN_POINT('',(-11.,5.,-2.22E-15));
#364 = VECTOR('',#365,1.);
#365 = DIRECTION('',(0.,-1.,4.4E-16));
#366 = ORIENTED_EDGE('',*,*,#250,.T.);
#367 = FACE_BOUND('',#368,.T.);
#368 = EDGE_LOOP('',(#369,#379,#387,#396,#405,#413,#421,#429,#438));
#369 = ORIENTED_EDGE('',*,*,#370,.F.);
#370 = EDGE_CURVE('',#371,#373,#375,.T.);
#371 = VERTEX_POINT('',#372);
#372 = CARTESIAN_POINT('',(-6.625,3.125,-7.632783294298E-16));
#373 = VERTEX_POINT('',#374);
#374 = CARTESIAN_POINT('',(6.625,3.125,-7.632783294298E-16));
#375 = LINE('',#376,#377);
#376 = CARTESIAN_POINT('',(-6.375,3.125,-7.257404645744E-16));
#377 = VECTOR('',#378,1.);
#378 = DIRECTION('',(1.,0.,0.));
#379 = ORIENTED_EDGE('',*,*,#380,.F.);
#380 = EDGE_CURVE('',#381,#371,#383,.T.);
#381 = VERTEX_POINT('',#382);
#382 = CARTESIAN_POINT('',(-6.625,0.330718913883,1.402224627223E-15));
#383 = LINE('',#384,#385);
#384 = CARTESIAN_POINT('',(-6.625,-2.875,1.402224627223E-15));
#385 = VECTOR('',#386,1.);
#386 = DIRECTION('',(0.,1.,0.));
#387 = ORIENTED_EDGE('',*,*,#388,.T.);
#388 = EDGE_CURVE('',#381,#389,#391,.T.);
#389 = VERTEX_POINT('',#390);
#390 = CARTESIAN_POINT('',(-7.5,3.95818643562E-15,8.788939433169E-31));
#391 = CIRCLE('',#392,0.5);
#392 = AXIS2_PLACEMENT_3D('',#393,#394,#395);
#393 = CARTESIAN_POINT('',(-7.,3.95818643562E-15,8.788939433169E-31));
#394 = DIRECTION('',(0.,0.,1.));
#395 = DIRECTION('',(-1.,-0.,0.));
#396 = ORIENTED_EDGE('',*,*,#397,.T.);
#397 = EDGE_CURVE('',#389,#398,#400,.T.);
#398 = VERTEX_POINT('',#399);
#399 = CARTESIAN_POINT('',(-6.625,-0.330718913883,1.402224627223E-15));
#400 = CIRCLE('',#401,0.5);
#401 = AXIS2_PLACEMENT_3D('',#402,#403,#404);
#402 = CARTESIAN_POINT('',(-7.,3.95818643562E-15,8.788939433169E-31));
#403 = DIRECTION('',(0.,0.,1.));
#404 = DIRECTION('',(-1.,-0.,0.));
#405 = ORIENTED_EDGE('',*,*,#406,.F.);
#406 = EDGE_CURVE('',#407,#398,#409,.T.);
#407 = VERTEX_POINT('',#408);
#408 = CARTESIAN_POINT('',(-6.625,-3.125,1.054711873394E-15));
#409 = LINE('',#410,#411);
#410 = CARTESIAN_POINT('',(-6.625,-2.875,1.402224627223E-15));
#411 = VECTOR('',#412,1.);
#412 = DIRECTION('',(0.,1.,0.));
#413 = ORIENTED_EDGE('',*,*,#414,.F.);
#414 = EDGE_CURVE('',#415,#407,#417,.T.);
#415 = VERTEX_POINT('',#416);
#416 = CARTESIAN_POINT('',(6.625,-3.125,6.661338147751E-16));
#417 = LINE('',#418,#419);
#418 = CARTESIAN_POINT('',(6.375,-3.125,1.490889839382E-15));
#419 = VECTOR('',#420,1.);
#420 = DIRECTION('',(-1.,0.,0.));
#421 = ORIENTED_EDGE('',*,*,#422,.F.);
#422 = EDGE_CURVE('',#423,#415,#425,.T.);
#423 = VERTEX_POINT('',#424);
#424 = CARTESIAN_POINT('',(6.625,-0.330718913883,-6.370752524162E-16));
#425 = LINE('',#426,#427);
#426 = CARTESIAN_POINT('',(6.625,2.875,-6.370752524162E-16));
#427 = VECTOR('',#428,1.);
#428 = DIRECTION('',(0.,-1.,0.));
#429 = ORIENTED_EDGE('',*,*,#430,.T.);
#430 = EDGE_CURVE('',#423,#431,#433,.T.);
#431 = VERTEX_POINT('',#432);
#432 = CARTESIAN_POINT('',(6.625,0.330718913883,-6.370752524162E-16));
#433 = CIRCLE('',#434,0.5);
#434 = AXIS2_PLACEMENT_3D('',#435,#436,#437);
#435 = CARTESIAN_POINT('',(7.,3.95818643562E-15,8.788939433169E-31));
#436 = DIRECTION('',(0.,0.,1.));
#437 = DIRECTION('',(-1.,-0.,0.));
#438 = ORIENTED_EDGE('',*,*,#439,.F.);
#439 = EDGE_CURVE('',#373,#431,#440,.T.);
#440 = LINE('',#441,#442);
#441 = CARTESIAN_POINT('',(6.625,2.875,-6.370752524162E-16));
#442 = VECTOR('',#443,1.);
#443 = DIRECTION('',(0.,-1.,0.));
#444 = PLANE('',#445);
#445 = AXIS2_PLACEMENT_3D('',#446,#447,#448);
#446 = CARTESIAN_POINT('',(0.,1.,2.791383877061E-17));
#447 = DIRECTION('',(0.,-3.54660848633E-16,-1.));
#448 = DIRECTION('',(0.,1.,-3.54660848633E-16));
#449 = ADVANCED_FACE('',(#450,#461,#472),#483,.T.);
#450 = FACE_BOUND('',#451,.T.);
#451 = EDGE_LOOP('',(#452));
#452 = ORIENTED_EDGE('',*,*,#453,.F.);
#453 = EDGE_CURVE('',#454,#454,#456,.T.);
#454 = VERTEX_POINT('',#455);
#455 = CARTESIAN_POINT('',(1.25,4.206548783372E-15,10.));
#456 = CIRCLE('',#457,3.25);
#457 = AXIS2_PLACEMENT_3D('',#458,#459,#460);
#458 = CARTESIAN_POINT('',(4.5,4.107825191113E-15,10.));
#459 = DIRECTION('',(-1.710569414459E-49,3.95818643562E-16,1.));
#460 = DIRECTION('',(-1.,-2.608397037693E-18,1.032452177331E-33));
#461 = FACE_BOUND('',#462,.T.);
#462 = EDGE_LOOP('',(#463,#464,#465,#471));
#463 = ORIENTED_EDGE('',*,*,#342,.T.);
#464 = ORIENTED_EDGE('',*,*,#291,.T.);
#465 = ORIENTED_EDGE('',*,*,#466,.T.);
#466 = EDGE_CURVE('',#284,#169,#467,.T.);
#467 = LINE('',#468,#469);
#468 = CARTESIAN_POINT('',(-11.,5.,10.));
#469 = VECTOR('',#470,1.);
#470 = DIRECTION('',(0.,-1.,4.4E-16));
#471 = ORIENTED_EDGE('',*,*,#168,.T.);
#472 = FACE_BOUND('',#473,.T.);
#473 = EDGE_LOOP('',(#474));
#474 = ORIENTED_EDGE('',*,*,#475,.F.);
#475 = EDGE_CURVE('',#476,#476,#478,.T.);
#476 = VERTEX_POINT('',#477);
#477 = CARTESIAN_POINT('',(-7.75,4.206548783372E-15,10.));
#478 = CIRCLE('',#479,3.25);
#479 = AXIS2_PLACEMENT_3D('',#480,#481,#482);
#480 = CARTESIAN_POINT('',(-4.5,4.107825191113E-15,10.));
#481 = DIRECTION('',(-1.710569414459E-49,3.95818643562E-16,1.));
#482 = DIRECTION('',(-1.,-2.608397037693E-18,1.032452177331E-33));
#483 = PLANE('',#484);
#484 = AXIS2_PLACEMENT_3D('',#485,#486,#487);
#485 = CARTESIAN_POINT('',(-2.089831575765E-16,1.,10.));
#486 = DIRECTION('',(0.,3.95818643562E-16,1.));
#487 = DIRECTION('',(0.,-1.,3.95818643562E-16));
#488 = ADVANCED_FACE('',(#489),#508,.T.);
#489 = FACE_BOUND('',#490,.T.);
#490 = EDGE_LOOP('',(#491,#499,#505,#506,#507));
#491 = ORIENTED_EDGE('',*,*,#492,.F.);
#492 = EDGE_CURVE('',#493,#193,#495,.T.);
#493 = VERTEX_POINT('',#494);
#494 = CARTESIAN_POINT('',(-11.,5.,2.000000000016));
#495 = LINE('',#496,#497);
#496 = CARTESIAN_POINT('',(-11.,5.,2.));
#497 = VECTOR('',#498,1.);
#498 = DIRECTION('',(0.,-1.,4.4E-16));
#499 = ORIENTED_EDGE('',*,*,#500,.T.);
#500 = EDGE_CURVE('',#493,#259,#501,.T.);
#501 = LINE('',#502,#503);
#502 = CARTESIAN_POINT('',(-11.,5.,2.000000000033));
#503 = VECTOR('',#504,1.);
#504 = DIRECTION('',(0.,1.,2.22044604925E-16));
#505 = ORIENTED_EDGE('',*,*,#258,.T.);
#506 = ORIENTED_EDGE('',*,*,#361,.T.);
#507 = ORIENTED_EDGE('',*,*,#201,.F.);
#508 = PLANE('',#509);
#509 = AXIS2_PLACEMENT_3D('',#510,#511,#512);
#510 = CARTESIAN_POINT('',(-11.,1.000000000007,1.000000000003));
#511 = DIRECTION('',(-1.,-5.181040781601E-16,-1.150422153451E-31));
#512 = DIRECTION('',(-5.181040781601E-16,1.,2.22044604925E-16));
#513 = ADVANCED_FACE('',(#514),#533,.T.);
#514 = FACE_BOUND('',#515,.T.);
#515 = EDGE_LOOP('',(#516,#517,#518,#519,#527));
#516 = ORIENTED_EDGE('',*,*,#176,.T.);
#517 = ORIENTED_EDGE('',*,*,#466,.F.);
#518 = ORIENTED_EDGE('',*,*,#283,.T.);
#519 = ORIENTED_EDGE('',*,*,#520,.T.);
#520 = EDGE_CURVE('',#276,#521,#523,.T.);
#521 = VERTEX_POINT('',#522);
#522 = CARTESIAN_POINT('',(-11.,5.,8.249999999967));
#523 = LINE('',#524,#525);
#524 = CARTESIAN_POINT('',(-11.,7.,8.249999999967));
#525 = VECTOR('',#526,1.);
#526 = DIRECTION('',(0.,-1.,-2.22044604925E-16));
#527 = ORIENTED_EDGE('',*,*,#528,.T.);
#528 = EDGE_CURVE('',#521,#177,#529,.T.);
#529 = LINE('',#530,#531);
#530 = CARTESIAN_POINT('',(-11.,5.,8.25));
#531 = VECTOR('',#532,1.);
#532 = DIRECTION('',(0.,-1.,4.4E-16));
#533 = PLANE('',#534);
#534 = AXIS2_PLACEMENT_3D('',#535,#536,#537);
#535 = CARTESIAN_POINT('',(-11.,1.000000000007,8.999999999997));
#536 = DIRECTION('',(-1.,-2.590520390789E-16,1.712915523743E-15));
#537 = DIRECTION('',(-1.712915523743E-15,2.22044604925E-16,-1.));
#538 = ADVANCED_FACE('',(#539),#558,.F.);
#539 = FACE_BOUND('',#540,.F.);
#540 = EDGE_LOOP('',(#541,#550,#556,#557));
#541 = ORIENTED_EDGE('',*,*,#542,.F.);
#542 = EDGE_CURVE('',#543,#493,#545,.T.);
#543 = VERTEX_POINT('',#544);
#544 = CARTESIAN_POINT('',(-10.7502171567,5.,7.989582169328));
#545 = CIRCLE('',#546,3.);
#546 = AXIS2_PLACEMENT_3D('',#547,#548,#549);
#547 = CARTESIAN_POINT('',(-11.,5.,5.));
#548 = DIRECTION('',(0.,1.,-0.));
#549 = DIRECTION('',(-1.,0.,0.));
#550 = ORIENTED_EDGE('',*,*,#551,.T.);
#551 = EDGE_CURVE('',#543,#185,#552,.T.);
#552 = LINE('',#553,#554);
#553 = CARTESIAN_POINT('',(-10.75021710816,5.,7.989583333333));
#554 = VECTOR('',#555,1.);
#555 = DIRECTION('',(0.,-1.,4.4E-16));
#556 = ORIENTED_EDGE('',*,*,#192,.T.);
#557 = ORIENTED_EDGE('',*,*,#492,.F.);
#558 = CYLINDRICAL_SURFACE('',#559,3.);
#559 = AXIS2_PLACEMENT_3D('',#560,#561,#562);
#560 = CARTESIAN_POINT('',(-11.,5.,5.));
#561 = DIRECTION('',(0.,1.,-4.4E-16));
#562 = DIRECTION('',(-1.,0.,0.));
#563 = ADVANCED_FACE('',(#564),#575,.F.);
#564 = FACE_BOUND('',#565,.F.);
#565 = EDGE_LOOP('',(#566,#572,#573,#574));
#566 = ORIENTED_EDGE('',*,*,#567,.F.);
#567 = EDGE_CURVE('',#521,#543,#568,.T.);
#568 = LINE('',#569,#570);
#569 = CARTESIAN_POINT('',(-11.,5.,8.249999999967));
#570 = VECTOR('',#571,1.);
#571 = DIRECTION('',(0.692216973731,1.602472486557E-16,-0.721689449333)
  );
#572 = ORIENTED_EDGE('',*,*,#528,.T.);
#573 = ORIENTED_EDGE('',*,*,#184,.T.);
#574 = ORIENTED_EDGE('',*,*,#551,.F.);
#575 = PLANE('',#576);
#576 = AXIS2_PLACEMENT_3D('',#577,#578,#579);
#577 = CARTESIAN_POINT('',(-11.,5.,8.25));
#578 = DIRECTION('',(0.721687836487,3.04576208307E-16,0.692218655243));
#579 = DIRECTION('',(4.930380657631E-32,-1.,4.4E-16));
#580 = ADVANCED_FACE('',(#581),#592,.F.);
#581 = FACE_BOUND('',#582,.T.);
#582 = EDGE_LOOP('',(#583,#584,#590,#591));
#583 = ORIENTED_EDGE('',*,*,#542,.F.);
#584 = ORIENTED_EDGE('',*,*,#585,.F.);
#585 = EDGE_CURVE('',#267,#543,#586,.T.);
#586 = LINE('',#587,#588);
#587 = CARTESIAN_POINT('',(-10.7502171567,7.,7.989582169328));
#588 = VECTOR('',#589,1.);
#589 = DIRECTION('',(0.,-1.,-2.22044604925E-16));
#590 = ORIENTED_EDGE('',*,*,#266,.T.);
#591 = ORIENTED_EDGE('',*,*,#500,.F.);
#592 = CYLINDRICAL_SURFACE('',#593,3.);
#593 = AXIS2_PLACEMENT_3D('',#594,#595,#596);
#594 = CARTESIAN_POINT('',(-11.00001397981,5.,5.));
#595 = DIRECTION('',(0.,-1.,-2.22044604925E-16));
#596 = DIRECTION('',(1.,0.,0.));
#597 = ADVANCED_FACE('',(#598),#604,.F.);
#598 = FACE_BOUND('',#599,.F.);
#599 = EDGE_LOOP('',(#600,#601,#602,#603));
#600 = ORIENTED_EDGE('',*,*,#275,.F.);
#601 = ORIENTED_EDGE('',*,*,#520,.T.);
#602 = ORIENTED_EDGE('',*,*,#567,.T.);
#603 = ORIENTED_EDGE('',*,*,#585,.F.);
#604 = PLANE('',#605);
#605 = AXIS2_PLACEMENT_3D('',#606,#607,#608);
#606 = CARTESIAN_POINT('',(-11.,7.,8.249999999967));
#607 = DIRECTION('',(0.721689449333,-1.537030444545E-16,0.692216973731)
  );
#608 = DIRECTION('',(0.,-1.,-2.22044604925E-16));
#609 = ADVANCED_FACE('',(#610),#635,.T.);
#610 = FACE_BOUND('',#611,.T.);
#611 = EDGE_LOOP('',(#612,#620,#621,#629));
#612 = ORIENTED_EDGE('',*,*,#613,.F.);
#613 = EDGE_CURVE('',#309,#614,#616,.T.);
#614 = VERTEX_POINT('',#615);
#615 = CARTESIAN_POINT('',(2.844946500602E-16,6.75,8.5));
#616 = LINE('',#617,#618);
#617 = CARTESIAN_POINT('',(-2.477185123695E-15,6.649347523489,
    8.384497158102));
#618 = VECTOR('',#619,1.);
#619 = DIRECTION('',(1.876995666299E-15,-0.656978280968,-0.75390950275)
  );
#620 = ORIENTED_EDGE('',*,*,#308,.T.);
#621 = ORIENTED_EDGE('',*,*,#622,.T.);
#622 = EDGE_CURVE('',#311,#623,#625,.T.);
#623 = VERTEX_POINT('',#624);
#624 = CARTESIAN_POINT('',(1.496093382167,6.75,7.657857142857));
#625 = LINE('',#626,#627);
#626 = CARTESIAN_POINT('',(1.557408684715,6.875,7.766785714286));
#627 = VECTOR('',#628,1.);
#628 = DIRECTION('',(-0.346851729777,-0.707106781187,-0.616193052177));
#629 = ORIENTED_EDGE('',*,*,#630,.F.);
#630 = EDGE_CURVE('',#614,#623,#631,.T.);
#631 = LINE('',#632,#633);
#632 = CARTESIAN_POINT('',(-6.864470250443E-16,6.75,8.5));
#633 = VECTOR('',#634,1.);
#634 = DIRECTION('',(0.871428571429,1.089178570407E-16,-0.490522420383)
  );
#635 = PLANE('',#636);
#636 = AXIS2_PLACEMENT_3D('',#637,#638,#639);
#637 = CARTESIAN_POINT('',(6.131530254782E-02,6.875,8.608928571429));
#638 = DIRECTION('',(-0.346851729777,0.707106781187,-0.616193052177));
#639 = DIRECTION('',(0.871428571429,3.309624619657E-16,-0.490522420383)
  );
#640 = ADVANCED_FACE('',(#641),#659,.T.);
#641 = FACE_BOUND('',#642,.T.);
#642 = EDGE_LOOP('',(#643,#651,#652,#653));
#643 = ORIENTED_EDGE('',*,*,#644,.F.);
#644 = EDGE_CURVE('',#319,#645,#647,.T.);
#645 = VERTEX_POINT('',#646);
#646 = CARTESIAN_POINT('',(-1.496093382167,6.75,7.657857142857));
#647 = LINE('',#648,#649);
#648 = CARTESIAN_POINT('',(-1.496093382167,6.75,7.657857142857));
#649 = VECTOR('',#650,1.);
#650 = DIRECTION('',(0.346851729777,-0.707106781187,-0.616193052177));
#651 = ORIENTED_EDGE('',*,*,#318,.T.);
#652 = ORIENTED_EDGE('',*,*,#613,.T.);
#653 = ORIENTED_EDGE('',*,*,#654,.F.);
#654 = EDGE_CURVE('',#645,#614,#655,.T.);
#655 = LINE('',#656,#657);
#656 = CARTESIAN_POINT('',(-1.496093382167,6.75,7.657857142857));
#657 = VECTOR('',#658,1.);
#658 = DIRECTION('',(0.871428571429,-1.089178570407E-16,0.490522420383)
  );
#659 = PLANE('',#660);
#660 = AXIS2_PLACEMENT_3D('',#661,#662,#663);
#661 = CARTESIAN_POINT('',(-1.557408684715,6.875,7.766785714286));
#662 = DIRECTION('',(0.346851729777,0.707106781187,-0.616193052177));
#663 = DIRECTION('',(0.871428571429,-3.411831355301E-15,0.490522420383)
  );
#664 = ADVANCED_FACE('',(#665),#677,.F.);
#665 = FACE_BOUND('',#666,.T.);
#666 = EDGE_LOOP('',(#667,#668,#669,#670));
#667 = ORIENTED_EDGE('',*,*,#622,.F.);
#668 = ORIENTED_EDGE('',*,*,#326,.T.);
#669 = ORIENTED_EDGE('',*,*,#644,.T.);
#670 = ORIENTED_EDGE('',*,*,#671,.F.);
#671 = EDGE_CURVE('',#623,#645,#672,.T.);
#672 = CIRCLE('',#673,3.05);
#673 = AXIS2_PLACEMENT_3D('',#674,#675,#676);
#674 = CARTESIAN_POINT('',(0.,6.75,5.));
#675 = DIRECTION('',(-0.,1.,0.));
#676 = DIRECTION('',(0.490522420383,0.,0.871428571429));
#677 = CONICAL_SURFACE('',#678,3.05,0.785398163397);
#678 = AXIS2_PLACEMENT_3D('',#679,#680,#681);
#679 = CARTESIAN_POINT('',(0.,6.75,5.));
#680 = DIRECTION('',(0.,1.,0.));
#681 = DIRECTION('',(0.490522420383,0.,0.871428571429));
#682 = ADVANCED_FACE('',(#683),#708,.F.);
#683 = FACE_BOUND('',#684,.T.);
#684 = EDGE_LOOP('',(#685,#693,#694,#702));
#685 = ORIENTED_EDGE('',*,*,#686,.F.);
#686 = EDGE_CURVE('',#371,#687,#689,.T.);
#687 = VERTEX_POINT('',#688);
#688 = CARTESIAN_POINT('',(-6.375,2.875,0.25));
#689 = LINE('',#690,#691);
#690 = CARTESIAN_POINT('',(-5.5,2.,1.125));
#691 = VECTOR('',#692,1.);
#692 = DIRECTION('',(0.57735026919,-0.57735026919,0.57735026919));
#693 = ORIENTED_EDGE('',*,*,#370,.T.);
#694 = ORIENTED_EDGE('',*,*,#695,.T.);
#695 = EDGE_CURVE('',#373,#696,#698,.T.);
#696 = VERTEX_POINT('',#697);
#697 = CARTESIAN_POINT('',(6.375,2.875,0.25));
#698 = LINE('',#699,#700);
#699 = CARTESIAN_POINT('',(4.333333333333,0.833333333333,2.291666666667)
  );
#700 = VECTOR('',#701,1.);
#701 = DIRECTION('',(-0.57735026919,-0.57735026919,0.57735026919));
#702 = ORIENTED_EDGE('',*,*,#703,.F.);
#703 = EDGE_CURVE('',#687,#696,#704,.T.);
#704 = LINE('',#705,#706);
#705 = CARTESIAN_POINT('',(-6.375,2.875,0.25));
#706 = VECTOR('',#707,1.);
#707 = DIRECTION('',(1.,0.,0.));
#708 = PLANE('',#709);
#709 = AXIS2_PLACEMENT_3D('',#710,#711,#712);
#710 = CARTESIAN_POINT('',(-6.375,3.,0.125));
#711 = DIRECTION('',(0.,0.707106781187,0.707106781187));
#712 = DIRECTION('',(-1.,-0.,-0.));
#713 = ADVANCED_FACE('',(#714),#749,.F.);
#714 = FACE_BOUND('',#715,.T.);
#715 = EDGE_LOOP('',(#716,#717,#718,#727,#734,#735,#743));
#716 = ORIENTED_EDGE('',*,*,#695,.F.);
#717 = ORIENTED_EDGE('',*,*,#439,.T.);
#718 = ORIENTED_EDGE('',*,*,#719,.T.);
#719 = EDGE_CURVE('',#431,#720,#722,.T.);
#720 = VERTEX_POINT('',#721);
#721 = CARTESIAN_POINT('',(6.5,3.95818643562E-15,0.125));
#722 = ELLIPSE('',#723,0.707106781187,0.5);
#723 = AXIS2_PLACEMENT_3D('',#724,#725,#726);
#724 = CARTESIAN_POINT('',(7.,3.95818643562E-15,-0.375));
#725 = DIRECTION('',(0.707106781187,2.526412862649E-16,0.707106781187));
#726 = DIRECTION('',(-0.707106781187,-2.526412862649E-16,0.707106781187)
  );
#727 = ORIENTED_EDGE('',*,*,#728,.T.);
#728 = EDGE_CURVE('',#720,#423,#729,.T.);
#729 = ELLIPSE('',#730,0.707106781187,0.5);
#730 = AXIS2_PLACEMENT_3D('',#731,#732,#733);
#731 = CARTESIAN_POINT('',(7.,3.95818643562E-15,-0.375));
#732 = DIRECTION('',(0.707106781187,2.526412862649E-16,0.707106781187));
#733 = DIRECTION('',(-0.707106781187,-2.526412862649E-16,0.707106781187)
  );
#734 = ORIENTED_EDGE('',*,*,#422,.T.);
#735 = ORIENTED_EDGE('',*,*,#736,.T.);
#736 = EDGE_CURVE('',#415,#737,#739,.T.);
#737 = VERTEX_POINT('',#738);
#738 = CARTESIAN_POINT('',(6.375,-2.875,0.25));
#739 = LINE('',#740,#741);
#740 = CARTESIAN_POINT('',(5.5,-2.,1.125));
#741 = VECTOR('',#742,1.);
#742 = DIRECTION('',(-0.57735026919,0.57735026919,0.57735026919));
#743 = ORIENTED_EDGE('',*,*,#744,.F.);
#744 = EDGE_CURVE('',#696,#737,#745,.T.);
#745 = LINE('',#746,#747);
#746 = CARTESIAN_POINT('',(6.375,2.875,0.25));
#747 = VECTOR('',#748,1.);
#748 = DIRECTION('',(0.,-1.,0.));
#749 = PLANE('',#750);
#750 = AXIS2_PLACEMENT_3D('',#751,#752,#753);
#751 = CARTESIAN_POINT('',(6.5,2.875,0.125));
#752 = DIRECTION('',(0.707106781187,2.526412862649E-16,0.707106781187));
#753 = DIRECTION('',(-1.786443667256E-16,1.,-1.786443667256E-16));
#754 = ADVANCED_FACE('',(#755),#785,.F.);
#755 = FACE_BOUND('',#756,.F.);
#756 = EDGE_LOOP('',(#757,#768,#774,#775,#776,#777,#778));
#757 = ORIENTED_EDGE('',*,*,#758,.F.);
#758 = EDGE_CURVE('',#759,#761,#763,.T.);
#759 = VERTEX_POINT('',#760);
#760 = CARTESIAN_POINT('',(6.5,3.95818643562E-15,7.));
#761 = VERTEX_POINT('',#762);
#762 = CARTESIAN_POINT('',(7.5,3.732605960256E-15,7.));
#763 = CIRCLE('',#764,0.5);
#764 = AXIS2_PLACEMENT_3D('',#765,#766,#767);
#765 = CARTESIAN_POINT('',(7.,3.95818643562E-15,7.));
#766 = DIRECTION('',(0.,0.,1.));
#767 = DIRECTION('',(-1.,-0.,0.));
#768 = ORIENTED_EDGE('',*,*,#769,.T.);
#769 = EDGE_CURVE('',#759,#720,#770,.T.);
#770 = LINE('',#771,#772);
#771 = CARTESIAN_POINT('',(6.5,3.95818643562E-15,10.));
#772 = VECTOR('',#773,1.);
#773 = DIRECTION('',(0.,0.,-1.));
#774 = ORIENTED_EDGE('',*,*,#728,.T.);
#775 = ORIENTED_EDGE('',*,*,#430,.T.);
#776 = ORIENTED_EDGE('',*,*,#719,.T.);
#777 = ORIENTED_EDGE('',*,*,#769,.F.);
#778 = ORIENTED_EDGE('',*,*,#779,.F.);
#779 = EDGE_CURVE('',#761,#759,#780,.T.);
#780 = CIRCLE('',#781,0.5);
#781 = AXIS2_PLACEMENT_3D('',#782,#783,#784);
#782 = CARTESIAN_POINT('',(7.,3.95818643562E-15,7.));
#783 = DIRECTION('',(0.,0.,1.));
#784 = DIRECTION('',(-1.,-0.,0.));
#785 = CYLINDRICAL_SURFACE('',#786,0.5);
#786 = AXIS2_PLACEMENT_3D('',#787,#788,#789);
#787 = CARTESIAN_POINT('',(7.,3.95818643562E-15,10.));
#788 = DIRECTION('',(0.,0.,1.));
#789 = DIRECTION('',(-1.,-0.,0.));
#790 = ADVANCED_FACE('',(#791),#809,.F.);
#791 = FACE_BOUND('',#792,.T.);
#792 = EDGE_LOOP('',(#793,#794,#795,#803));
#793 = ORIENTED_EDGE('',*,*,#736,.F.);
#794 = ORIENTED_EDGE('',*,*,#414,.T.);
#795 = ORIENTED_EDGE('',*,*,#796,.T.);
#796 = EDGE_CURVE('',#407,#797,#799,.T.);
#797 = VERTEX_POINT('',#798);
#798 = CARTESIAN_POINT('',(-6.375,-2.875,0.25));
#799 = LINE('',#800,#801);
#800 = CARTESIAN_POINT('',(-4.333333333333,-0.833333333333,
    2.291666666667));
#801 = VECTOR('',#802,1.);
#802 = DIRECTION('',(0.57735026919,0.57735026919,0.57735026919));
#803 = ORIENTED_EDGE('',*,*,#804,.F.);
#804 = EDGE_CURVE('',#737,#797,#805,.T.);
#805 = LINE('',#806,#807);
#806 = CARTESIAN_POINT('',(6.375,-2.875,0.25));
#807 = VECTOR('',#808,1.);
#808 = DIRECTION('',(-1.,0.,0.));
#809 = PLANE('',#810);
#810 = AXIS2_PLACEMENT_3D('',#811,#812,#813);
#811 = CARTESIAN_POINT('',(6.375,-3.,0.125));
#812 = DIRECTION('',(0.,-0.707106781187,0.707106781187));
#813 = DIRECTION('',(1.,0.,0.));
#814 = ADVANCED_FACE('',(#815),#834,.F.);
#815 = FACE_BOUND('',#816,.T.);
#816 = EDGE_LOOP('',(#817,#818,#819,#826,#827,#828));
#817 = ORIENTED_EDGE('',*,*,#796,.F.);
#818 = ORIENTED_EDGE('',*,*,#406,.T.);
#819 = ORIENTED_EDGE('',*,*,#820,.T.);
#820 = EDGE_CURVE('',#398,#381,#821,.T.);
#821 = ELLIPSE('',#822,0.707106781187,0.5);
#822 = AXIS2_PLACEMENT_3D('',#823,#824,#825);
#823 = CARTESIAN_POINT('',(-7.,3.95818643562E-15,-0.375));
#824 = DIRECTION('',(-0.707106781187,2.491696715858E-16,0.707106781187)
  );
#825 = DIRECTION('',(0.707106781187,-2.491696715858E-16,0.707106781187)
  );
#826 = ORIENTED_EDGE('',*,*,#380,.T.);
#827 = ORIENTED_EDGE('',*,*,#686,.T.);
#828 = ORIENTED_EDGE('',*,*,#829,.F.);
#829 = EDGE_CURVE('',#797,#687,#830,.T.);
#830 = LINE('',#831,#832);
#831 = CARTESIAN_POINT('',(-6.375,-2.875,0.25));
#832 = VECTOR('',#833,1.);
#833 = DIRECTION('',(0.,1.,0.));
#834 = PLANE('',#835);
#835 = AXIS2_PLACEMENT_3D('',#836,#837,#838);
#836 = CARTESIAN_POINT('',(-6.5,-2.875,0.125));
#837 = DIRECTION('',(-0.707106781187,2.491696715858E-16,0.707106781187)
  );
#838 = DIRECTION('',(-1.761895644443E-16,-1.,1.761895644443E-16));
#839 = ADVANCED_FACE('',(#840),#863,.F.);
#840 = FACE_BOUND('',#841,.F.);
#841 = EDGE_LOOP('',(#842,#853,#859,#860,#861,#862));
#842 = ORIENTED_EDGE('',*,*,#843,.F.);
#843 = EDGE_CURVE('',#844,#846,#848,.T.);
#844 = VERTEX_POINT('',#845);
#845 = CARTESIAN_POINT('',(-7.5,4.1E-15,7.));
#846 = VERTEX_POINT('',#847);
#847 = CARTESIAN_POINT('',(-7.5,4.1E-15,7.));
#848 = CIRCLE('',#849,0.5);
#849 = AXIS2_PLACEMENT_3D('',#850,#851,#852);
#850 = CARTESIAN_POINT('',(-7.,3.95818643562E-15,7.));
#851 = DIRECTION('',(0.,0.,1.));
#852 = DIRECTION('',(-1.,-0.,0.));
#853 = ORIENTED_EDGE('',*,*,#854,.T.);
#854 = EDGE_CURVE('',#846,#389,#855,.T.);
#855 = LINE('',#856,#857);
#856 = CARTESIAN_POINT('',(-7.5,3.95818643562E-15,10.));
#857 = VECTOR('',#858,1.);
#858 = DIRECTION('',(0.,0.,-1.));
#859 = ORIENTED_EDGE('',*,*,#397,.T.);
#860 = ORIENTED_EDGE('',*,*,#820,.T.);
#861 = ORIENTED_EDGE('',*,*,#388,.T.);
#862 = ORIENTED_EDGE('',*,*,#854,.F.);
#863 = CYLINDRICAL_SURFACE('',#864,0.5);
#864 = AXIS2_PLACEMENT_3D('',#865,#866,#867);
#865 = CARTESIAN_POINT('',(-7.,3.95818643562E-15,10.));
#866 = DIRECTION('',(0.,0.,1.));
#867 = DIRECTION('',(-1.,-0.,0.));
#868 = ADVANCED_FACE('',(#869),#897,.F.);
#869 = FACE_BOUND('',#870,.T.);
#870 = EDGE_LOOP('',(#871,#872,#880,#889,#896));
#871 = ORIENTED_EDGE('',*,*,#453,.T.);
#872 = ORIENTED_EDGE('',*,*,#873,.T.);
#873 = EDGE_CURVE('',#454,#874,#876,.T.);
#874 = VERTEX_POINT('',#875);
#875 = CARTESIAN_POINT('',(1.5,4.1E-15,9.75));
#876 = LINE('',#877,#878);
#877 = CARTESIAN_POINT('',(1.5,4.1E-15,9.75));
#878 = VECTOR('',#879,1.);
#879 = DIRECTION('',(0.707106781187,-3.013654689979E-16,-0.707106781187)
  );
#880 = ORIENTED_EDGE('',*,*,#881,.F.);
#881 = EDGE_CURVE('',#882,#874,#884,.T.);
#882 = VERTEX_POINT('',#883);
#883 = CARTESIAN_POINT('',(7.5,3.649301681591E-15,9.75));
#884 = CIRCLE('',#885,3.);
#885 = AXIS2_PLACEMENT_3D('',#886,#887,#888);
#886 = CARTESIAN_POINT('',(4.5,4.008870530223E-15,9.75));
#887 = DIRECTION('',(-1.710569414459E-49,3.95818643562E-16,1.));
#888 = DIRECTION('',(-1.,-2.608397037693E-18,1.032452177331E-33));
#889 = ORIENTED_EDGE('',*,*,#890,.F.);
#890 = EDGE_CURVE('',#874,#882,#891,.T.);
#891 = CIRCLE('',#892,3.);
#892 = AXIS2_PLACEMENT_3D('',#893,#894,#895);
#893 = CARTESIAN_POINT('',(4.5,4.008870530223E-15,9.75));
#894 = DIRECTION('',(-1.710569414459E-49,3.95818643562E-16,1.));
#895 = DIRECTION('',(-1.,-2.608397037693E-18,1.032452177331E-33));
#896 = ORIENTED_EDGE('',*,*,#873,.F.);
#897 = CONICAL_SURFACE('',#898,3.,0.785398163397);
#898 = AXIS2_PLACEMENT_3D('',#899,#900,#901);
#899 = CARTESIAN_POINT('',(4.5,4.008870530223E-15,9.75));
#900 = DIRECTION('',(0.,3.95818643562E-16,1.));
#901 = DIRECTION('',(-1.,-2.608397037693E-18,1.032452177331E-33));
#902 = ADVANCED_FACE('',(#903),#922,.F.);
#903 = FACE_BOUND('',#904,.T.);
#904 = EDGE_LOOP('',(#905,#906,#914,#921));
#905 = ORIENTED_EDGE('',*,*,#475,.T.);
#906 = ORIENTED_EDGE('',*,*,#907,.T.);
#907 = EDGE_CURVE('',#476,#908,#910,.T.);
#908 = VERTEX_POINT('',#909);
#909 = CARTESIAN_POINT('',(-7.5,4.1E-15,9.75));
#910 = LINE('',#911,#912);
#911 = CARTESIAN_POINT('',(-7.5,4.1E-15,9.75));
#912 = VECTOR('',#913,1.);
#913 = DIRECTION('',(0.707106781187,-3.013654689979E-16,-0.707106781187)
  );
#914 = ORIENTED_EDGE('',*,*,#915,.F.);
#915 = EDGE_CURVE('',#908,#908,#916,.T.);
#916 = CIRCLE('',#917,3.);
#917 = AXIS2_PLACEMENT_3D('',#918,#919,#920);
#918 = CARTESIAN_POINT('',(-4.5,4.008870530223E-15,9.75));
#919 = DIRECTION('',(-1.710569414459E-49,3.95818643562E-16,1.));
#920 = DIRECTION('',(-1.,-2.608397037693E-18,1.032452177331E-33));
#921 = ORIENTED_EDGE('',*,*,#907,.F.);
#922 = CONICAL_SURFACE('',#923,3.,0.785398163397);
#923 = AXIS2_PLACEMENT_3D('',#924,#925,#926);
#924 = CARTESIAN_POINT('',(-4.5,4.008870530223E-15,9.75));
#925 = DIRECTION('',(0.,3.95818643562E-16,1.));
#926 = DIRECTION('',(-1.,-2.608397037693E-18,1.032452177331E-33));
#927 = ADVANCED_FACE('',(#928),#953,.T.);
#928 = FACE_BOUND('',#929,.T.);
#929 = EDGE_LOOP('',(#930,#938,#939,#947));
#930 = ORIENTED_EDGE('',*,*,#931,.T.);
#931 = EDGE_CURVE('',#932,#614,#934,.T.);
#932 = VERTEX_POINT('',#933);
#933 = CARTESIAN_POINT('',(2.22044604925E-16,4.,8.5));
#934 = LINE('',#935,#936);
#935 = CARTESIAN_POINT('',(0.,5.,8.5));
#936 = VECTOR('',#937,1.);
#937 = DIRECTION('',(0.,1.,2.22044604925E-16));
#938 = ORIENTED_EDGE('',*,*,#630,.T.);
#939 = ORIENTED_EDGE('',*,*,#940,.F.);
#940 = EDGE_CURVE('',#941,#623,#943,.T.);
#941 = VERTEX_POINT('',#942);
#942 = CARTESIAN_POINT('',(1.496093382168,4.,7.657857142857));
#943 = LINE('',#944,#945);
#944 = CARTESIAN_POINT('',(1.496093382167,5.,7.657857142857));
#945 = VECTOR('',#946,1.);
#946 = DIRECTION('',(0.,1.,2.22044604925E-16));
#947 = ORIENTED_EDGE('',*,*,#948,.F.);
#948 = EDGE_CURVE('',#932,#941,#949,.T.);
#949 = LINE('',#950,#951);
#950 = CARTESIAN_POINT('',(2.22044604925E-16,4.,8.5));
#951 = VECTOR('',#952,1.);
#952 = DIRECTION('',(0.871428571429,1.089178570407E-16,-0.490522420383)
  );
#953 = PLANE('',#954);
#954 = AXIS2_PLACEMENT_3D('',#955,#956,#957);
#955 = CARTESIAN_POINT('',(0.748046691084,5.5,8.078928571428));
#956 = DIRECTION('',(-0.490522420383,3.591415322127E-16,-0.871428571429)
  );
#957 = DIRECTION('',(-0.871428571429,-1.089178570407E-16,0.490522420383)
  );
#958 = ADVANCED_FACE('',(#959),#977,.T.);
#959 = FACE_BOUND('',#960,.T.);
#960 = EDGE_LOOP('',(#961,#962,#970,#976));
#961 = ORIENTED_EDGE('',*,*,#931,.F.);
#962 = ORIENTED_EDGE('',*,*,#963,.F.);
#963 = EDGE_CURVE('',#964,#932,#966,.T.);
#964 = VERTEX_POINT('',#965);
#965 = CARTESIAN_POINT('',(-1.496093382167,4.,7.657857142857));
#966 = LINE('',#967,#968);
#967 = CARTESIAN_POINT('',(-1.496093382167,4.,7.657857142857));
#968 = VECTOR('',#969,1.);
#969 = DIRECTION('',(0.871428571429,-1.089178570407E-16,0.490522420383)
  );
#970 = ORIENTED_EDGE('',*,*,#971,.F.);
#971 = EDGE_CURVE('',#645,#964,#972,.T.);
#972 = LINE('',#973,#974);
#973 = CARTESIAN_POINT('',(-1.496093382167,5.,7.657857142857));
#974 = VECTOR('',#975,1.);
#975 = DIRECTION('',(0.,-1.,-2.22044604925E-16));
#976 = ORIENTED_EDGE('',*,*,#654,.T.);
#977 = PLANE('',#978);
#978 = AXIS2_PLACEMENT_3D('',#979,#980,#981);
#979 = CARTESIAN_POINT('',(-0.748046691084,5.5,8.078928571428));
#980 = DIRECTION('',(0.490522420383,2.501446311808E-15,-0.871428571429)
  );
#981 = DIRECTION('',(-0.871428571429,1.089178570407E-16,-0.490522420383)
  );
#982 = ADVANCED_FACE('',(#983),#995,.F.);
#983 = FACE_BOUND('',#984,.T.);
#984 = EDGE_LOOP('',(#985,#986,#987,#988));
#985 = ORIENTED_EDGE('',*,*,#940,.T.);
#986 = ORIENTED_EDGE('',*,*,#671,.T.);
#987 = ORIENTED_EDGE('',*,*,#971,.T.);
#988 = ORIENTED_EDGE('',*,*,#989,.F.);
#989 = EDGE_CURVE('',#941,#964,#990,.T.);
#990 = CIRCLE('',#991,3.05);
#991 = AXIS2_PLACEMENT_3D('',#992,#993,#994);
#992 = CARTESIAN_POINT('',(0.,4.,5.));
#993 = DIRECTION('',(-0.,1.,2.22044604925E-16));
#994 = DIRECTION('',(1.,0.,0.));
#995 = CYLINDRICAL_SURFACE('',#996,3.05);
#996 = AXIS2_PLACEMENT_3D('',#997,#998,#999);
#997 = CARTESIAN_POINT('',(0.,5.,5.));
#998 = DIRECTION('',(0.,-1.,-2.22044604925E-16));
#999 = DIRECTION('',(1.,0.,0.));
#1000 = ADVANCED_FACE('',(#1001),#1026,.F.);
#1001 = FACE_BOUND('',#1002,.F.);
#1002 = EDGE_LOOP('',(#1003,#1011,#1019,#1025));
#1003 = ORIENTED_EDGE('',*,*,#1004,.T.);
#1004 = EDGE_CURVE('',#687,#1005,#1007,.T.);
#1005 = VERTEX_POINT('',#1006);
#1006 = CARTESIAN_POINT('',(-6.375,2.875,6.));
#1007 = LINE('',#1008,#1009);
#1008 = CARTESIAN_POINT('',(-6.375,2.875,-6.4E-16));
#1009 = VECTOR('',#1010,1.);
#1010 = DIRECTION('',(0.,2.2E-16,1.));
#1011 = ORIENTED_EDGE('',*,*,#1012,.T.);
#1012 = EDGE_CURVE('',#1005,#1013,#1015,.T.);
#1013 = VERTEX_POINT('',#1014);
#1014 = CARTESIAN_POINT('',(6.375,2.875,6.));
#1015 = LINE('',#1016,#1017);
#1016 = CARTESIAN_POINT('',(-6.375,2.875,6.));
#1017 = VECTOR('',#1018,1.);
#1018 = DIRECTION('',(1.,0.,0.));
#1019 = ORIENTED_EDGE('',*,*,#1020,.F.);
#1020 = EDGE_CURVE('',#696,#1013,#1021,.T.);
#1021 = LINE('',#1022,#1023);
#1022 = CARTESIAN_POINT('',(6.375,2.875,-6.4E-16));
#1023 = VECTOR('',#1024,1.);
#1024 = DIRECTION('',(0.,2.2E-16,1.));
#1025 = ORIENTED_EDGE('',*,*,#703,.F.);
#1026 = PLANE('',#1027);
#1027 = AXIS2_PLACEMENT_3D('',#1028,#1029,#1030);
#1028 = CARTESIAN_POINT('',(-6.375,2.875,-6.4E-16));
#1029 = DIRECTION('',(0.,1.,-2.2E-16));
#1030 = DIRECTION('',(1.,0.,0.));
#1031 = ADVANCED_FACE('',(#1032),#1050,.F.);
#1032 = FACE_BOUND('',#1033,.F.);
#1033 = EDGE_LOOP('',(#1034,#1035,#1043,#1049));
#1034 = ORIENTED_EDGE('',*,*,#1020,.T.);
#1035 = ORIENTED_EDGE('',*,*,#1036,.T.);
#1036 = EDGE_CURVE('',#1013,#1037,#1039,.T.);
#1037 = VERTEX_POINT('',#1038);
#1038 = CARTESIAN_POINT('',(6.375,-2.875,6.));
#1039 = LINE('',#1040,#1041);
#1040 = CARTESIAN_POINT('',(6.375,2.875,6.));
#1041 = VECTOR('',#1042,1.);
#1042 = DIRECTION('',(0.,-1.,0.));
#1043 = ORIENTED_EDGE('',*,*,#1044,.F.);
#1044 = EDGE_CURVE('',#737,#1037,#1045,.T.);
#1045 = LINE('',#1046,#1047);
#1046 = CARTESIAN_POINT('',(6.375,-2.875,6.4E-16));
#1047 = VECTOR('',#1048,1.);
#1048 = DIRECTION('',(0.,2.2E-16,1.));
#1049 = ORIENTED_EDGE('',*,*,#744,.F.);
#1050 = PLANE('',#1051);
#1051 = AXIS2_PLACEMENT_3D('',#1052,#1053,#1054);
#1052 = CARTESIAN_POINT('',(6.375,2.875,-6.4E-16));
#1053 = DIRECTION('',(1.,0.,0.));
#1054 = DIRECTION('',(0.,-1.,2.2E-16));
#1055 = ADVANCED_FACE('',(#1056,#1076,#1087),#1091,.T.);
#1056 = FACE_BOUND('',#1057,.T.);
#1057 = EDGE_LOOP('',(#1058,#1069));
#1058 = ORIENTED_EDGE('',*,*,#1059,.T.);
#1059 = EDGE_CURVE('',#1060,#1062,#1064,.T.);
#1060 = VERTEX_POINT('',#1061);
#1061 = CARTESIAN_POINT('',(7.5,3.732605960256E-15,7.));
#1062 = VERTEX_POINT('',#1063);
#1063 = CARTESIAN_POINT('',(1.5,4.1E-15,7.));
#1064 = CIRCLE('',#1065,3.);
#1065 = AXIS2_PLACEMENT_3D('',#1066,#1067,#1068);
#1066 = CARTESIAN_POINT('',(4.5,4.1E-15,7.));
#1067 = DIRECTION('',(0.,0.,1.));
#1068 = DIRECTION('',(-1.,-0.,0.));
#1069 = ORIENTED_EDGE('',*,*,#1070,.T.);
#1070 = EDGE_CURVE('',#1062,#1060,#1071,.T.);
#1071 = CIRCLE('',#1072,3.);
#1072 = AXIS2_PLACEMENT_3D('',#1073,#1074,#1075);
#1073 = CARTESIAN_POINT('',(4.5,4.1E-15,7.));
#1074 = DIRECTION('',(0.,0.,1.));
#1075 = DIRECTION('',(-1.,-0.,0.));
#1076 = FACE_BOUND('',#1077,.T.);
#1077 = EDGE_LOOP('',(#1078));
#1078 = ORIENTED_EDGE('',*,*,#1079,.T.);
#1079 = EDGE_CURVE('',#1080,#1080,#1082,.T.);
#1080 = VERTEX_POINT('',#1081);
#1081 = CARTESIAN_POINT('',(5.6,1.55E-15,7.));
#1082 = CIRCLE('',#1083,0.75);
#1083 = AXIS2_PLACEMENT_3D('',#1084,#1085,#1086);
#1084 = CARTESIAN_POINT('',(4.85,1.55E-15,7.));
#1085 = DIRECTION('',(0.,-2.2E-16,-1.));
#1086 = DIRECTION('',(1.,0.,0.));
#1087 = FACE_BOUND('',#1088,.T.);
#1088 = EDGE_LOOP('',(#1089,#1090));
#1089 = ORIENTED_EDGE('',*,*,#779,.F.);
#1090 = ORIENTED_EDGE('',*,*,#758,.F.);
#1091 = PLANE('',#1092);
#1092 = AXIS2_PLACEMENT_3D('',#1093,#1094,#1095);
#1093 = CARTESIAN_POINT('',(1.139533443783E-16,4.440892098501E-15,7.));
#1094 = DIRECTION('',(0.,0.,1.));
#1095 = DIRECTION('',(1.,0.,0.));
#1096 = ADVANCED_FACE('',(#1097),#1115,.F.);
#1097 = FACE_BOUND('',#1098,.F.);
#1098 = EDGE_LOOP('',(#1099,#1100,#1108,#1114));
#1099 = ORIENTED_EDGE('',*,*,#1044,.T.);
#1100 = ORIENTED_EDGE('',*,*,#1101,.T.);
#1101 = EDGE_CURVE('',#1037,#1102,#1104,.T.);
#1102 = VERTEX_POINT('',#1103);
#1103 = CARTESIAN_POINT('',(-6.375,-2.875,6.));
#1104 = LINE('',#1105,#1106);
#1105 = CARTESIAN_POINT('',(6.375,-2.875,6.));
#1106 = VECTOR('',#1107,1.);
#1107 = DIRECTION('',(-1.,-0.,0.));
#1108 = ORIENTED_EDGE('',*,*,#1109,.F.);
#1109 = EDGE_CURVE('',#797,#1102,#1110,.T.);
#1110 = LINE('',#1111,#1112);
#1111 = CARTESIAN_POINT('',(-6.375,-2.875,6.4E-16));
#1112 = VECTOR('',#1113,1.);
#1113 = DIRECTION('',(0.,2.2E-16,1.));
#1114 = ORIENTED_EDGE('',*,*,#804,.F.);
#1115 = PLANE('',#1116);
#1116 = AXIS2_PLACEMENT_3D('',#1117,#1118,#1119);
#1117 = CARTESIAN_POINT('',(6.375,-2.875,6.4E-16));
#1118 = DIRECTION('',(0.,-1.,2.2E-16));
#1119 = DIRECTION('',(-1.,0.,0.));
#1120 = ADVANCED_FACE('',(#1121),#1132,.F.);
#1121 = FACE_BOUND('',#1122,.F.);
#1122 = EDGE_LOOP('',(#1123,#1124,#1130,#1131));
#1123 = ORIENTED_EDGE('',*,*,#1109,.T.);
#1124 = ORIENTED_EDGE('',*,*,#1125,.T.);
#1125 = EDGE_CURVE('',#1102,#1005,#1126,.T.);
#1126 = LINE('',#1127,#1128);
#1127 = CARTESIAN_POINT('',(-6.375,-2.875,6.));
#1128 = VECTOR('',#1129,1.);
#1129 = DIRECTION('',(0.,1.,0.));
#1130 = ORIENTED_EDGE('',*,*,#1004,.F.);
#1131 = ORIENTED_EDGE('',*,*,#829,.F.);
#1132 = PLANE('',#1133);
#1133 = AXIS2_PLACEMENT_3D('',#1134,#1135,#1136);
#1134 = CARTESIAN_POINT('',(-6.375,-2.875,6.4E-16));
#1135 = DIRECTION('',(-1.,0.,0.));
#1136 = DIRECTION('',(0.,1.,-2.2E-16));
#1137 = ADVANCED_FACE('',(#1138,#1147,#1150),#1161,.T.);
#1138 = FACE_BOUND('',#1139,.T.);
#1139 = EDGE_LOOP('',(#1140));
#1140 = ORIENTED_EDGE('',*,*,#1141,.T.);
#1141 = EDGE_CURVE('',#846,#846,#1142,.T.);
#1142 = CIRCLE('',#1143,3.);
#1143 = AXIS2_PLACEMENT_3D('',#1144,#1145,#1146);
#1144 = CARTESIAN_POINT('',(-4.5,4.440892098501E-15,7.));
#1145 = DIRECTION('',(0.,0.,1.));
#1146 = DIRECTION('',(-1.,0.,0.));
#1147 = FACE_BOUND('',#1148,.T.);
#1148 = EDGE_LOOP('',(#1149));
#1149 = ORIENTED_EDGE('',*,*,#843,.F.);
#1150 = FACE_BOUND('',#1151,.T.);
#1151 = EDGE_LOOP('',(#1152));
#1152 = ORIENTED_EDGE('',*,*,#1153,.T.);
#1153 = EDGE_CURVE('',#1154,#1154,#1156,.T.);
#1154 = VERTEX_POINT('',#1155);
#1155 = CARTESIAN_POINT('',(-4.1,1.55E-15,7.));
#1156 = CIRCLE('',#1157,0.75);
#1157 = AXIS2_PLACEMENT_3D('',#1158,#1159,#1160);
#1158 = CARTESIAN_POINT('',(-4.85,1.55E-15,7.));
#1159 = DIRECTION('',(0.,-2.2E-16,-1.));
#1160 = DIRECTION('',(1.,0.,0.));
#1161 = PLANE('',#1162);
#1162 = AXIS2_PLACEMENT_3D('',#1163,#1164,#1165);
#1163 = CARTESIAN_POINT('',(1.139533443783E-16,4.440892098501E-15,7.));
#1164 = DIRECTION('',(0.,0.,1.));
#1165 = DIRECTION('',(1.,0.,0.));
#1166 = ADVANCED_FACE('',(#1167),#1178,.F.);
#1167 = FACE_BOUND('',#1168,.F.);
#1168 = EDGE_LOOP('',(#1169,#1175,#1176,#1177));
#1169 = ORIENTED_EDGE('',*,*,#1170,.T.);
#1170 = EDGE_CURVE('',#908,#846,#1171,.T.);
#1171 = LINE('',#1172,#1173);
#1172 = CARTESIAN_POINT('',(-7.5,4.1E-15,10.));
#1173 = VECTOR('',#1174,1.);
#1174 = DIRECTION('',(0.,0.,-1.));
#1175 = ORIENTED_EDGE('',*,*,#1141,.T.);
#1176 = ORIENTED_EDGE('',*,*,#1170,.F.);
#1177 = ORIENTED_EDGE('',*,*,#915,.F.);
#1178 = CYLINDRICAL_SURFACE('',#1179,3.);
#1179 = AXIS2_PLACEMENT_3D('',#1180,#1181,#1182);
#1180 = CARTESIAN_POINT('',(-4.5,4.1E-15,10.));
#1181 = DIRECTION('',(0.,0.,1.));
#1182 = DIRECTION('',(-1.,0.,0.));
#1183 = ADVANCED_FACE('',(#1184),#1189,.T.);
#1184 = FACE_BOUND('',#1185,.T.);
#1185 = EDGE_LOOP('',(#1186,#1187,#1188));
#1186 = ORIENTED_EDGE('',*,*,#989,.T.);
#1187 = ORIENTED_EDGE('',*,*,#963,.T.);
#1188 = ORIENTED_EDGE('',*,*,#948,.T.);
#1189 = PLANE('',#1190);
#1190 = AXIS2_PLACEMENT_3D('',#1191,#1192,#1193);
#1191 = CARTESIAN_POINT('',(9.353946996178E-15,4.,5.270435557824));
#1192 = DIRECTION('',(0.,1.,0.));
#1193 = DIRECTION('',(0.,0.,1.));
#1194 = ADVANCED_FACE('',(#1195),#1201,.T.);
#1195 = FACE_BOUND('',#1196,.T.);
#1196 = EDGE_LOOP('',(#1197,#1198,#1199,#1200));
#1197 = ORIENTED_EDGE('',*,*,#1012,.T.);
#1198 = ORIENTED_EDGE('',*,*,#1036,.T.);
#1199 = ORIENTED_EDGE('',*,*,#1101,.T.);
#1200 = ORIENTED_EDGE('',*,*,#1125,.T.);
#1201 = PLANE('',#1202);
#1202 = AXIS2_PLACEMENT_3D('',#1203,#1204,#1205);
#1203 = CARTESIAN_POINT('',(0.,9.721952972393E-16,6.));
#1204 = DIRECTION('',(0.,-8.688701931849E-17,-1.));
#1205 = DIRECTION('',(0.,1.,-8.688701931849E-17));
#1206 = ADVANCED_FACE('',(#1207),#1226,.F.);
#1207 = FACE_BOUND('',#1208,.F.);
#1208 = EDGE_LOOP('',(#1209,#1218,#1224,#1225));
#1209 = ORIENTED_EDGE('',*,*,#1210,.F.);
#1210 = EDGE_CURVE('',#1211,#1211,#1213,.T.);
#1211 = VERTEX_POINT('',#1212);
#1212 = CARTESIAN_POINT('',(5.6,0.,6.2));
#1213 = CIRCLE('',#1214,0.75);
#1214 = AXIS2_PLACEMENT_3D('',#1215,#1216,#1217);
#1215 = CARTESIAN_POINT('',(4.85,0.,6.2));
#1216 = DIRECTION('',(0.,0.,-1.));
#1217 = DIRECTION('',(1.,0.,0.));
#1218 = ORIENTED_EDGE('',*,*,#1219,.T.);
#1219 = EDGE_CURVE('',#1211,#1080,#1220,.T.);
#1220 = LINE('',#1221,#1222);
#1221 = CARTESIAN_POINT('',(5.6,1.33E-15,6.));
#1222 = VECTOR('',#1223,1.);
#1223 = DIRECTION('',(0.,2.2E-16,1.));
#1224 = ORIENTED_EDGE('',*,*,#1079,.T.);
#1225 = ORIENTED_EDGE('',*,*,#1219,.F.);
#1226 = CYLINDRICAL_SURFACE('',#1227,0.75);
#1227 = AXIS2_PLACEMENT_3D('',#1228,#1229,#1230);
#1228 = CARTESIAN_POINT('',(4.85,1.33E-15,6.));
#1229 = DIRECTION('',(0.,-2.2E-16,-1.));
#1230 = DIRECTION('',(1.,0.,0.));
#1231 = ADVANCED_FACE('',(#1232),#1251,.F.);
#1232 = FACE_BOUND('',#1233,.F.);
#1233 = EDGE_LOOP('',(#1234,#1243,#1249,#1250));
#1234 = ORIENTED_EDGE('',*,*,#1235,.F.);
#1235 = EDGE_CURVE('',#1236,#1236,#1238,.T.);
#1236 = VERTEX_POINT('',#1237);
#1237 = CARTESIAN_POINT('',(-4.1,0.,6.2));
#1238 = CIRCLE('',#1239,0.75);
#1239 = AXIS2_PLACEMENT_3D('',#1240,#1241,#1242);
#1240 = CARTESIAN_POINT('',(-4.85,0.,6.2));
#1241 = DIRECTION('',(0.,0.,-1.));
#1242 = DIRECTION('',(1.,0.,0.));
#1243 = ORIENTED_EDGE('',*,*,#1244,.T.);
#1244 = EDGE_CURVE('',#1236,#1154,#1245,.T.);
#1245 = LINE('',#1246,#1247);
#1246 = CARTESIAN_POINT('',(-4.1,1.33E-15,6.));
#1247 = VECTOR('',#1248,1.);
#1248 = DIRECTION('',(0.,2.2E-16,1.));
#1249 = ORIENTED_EDGE('',*,*,#1153,.T.);
#1250 = ORIENTED_EDGE('',*,*,#1244,.F.);
#1251 = CYLINDRICAL_SURFACE('',#1252,0.75);
#1252 = AXIS2_PLACEMENT_3D('',#1253,#1254,#1255);
#1253 = CARTESIAN_POINT('',(-4.85,1.33E-15,6.));
#1254 = DIRECTION('',(0.,-2.2E-16,-1.));
#1255 = DIRECTION('',(1.,0.,0.));
#1256 = ADVANCED_FACE('',(#1257),#1260,.T.);
#1257 = FACE_BOUND('',#1258,.F.);
#1258 = EDGE_LOOP('',(#1259));
#1259 = ORIENTED_EDGE('',*,*,#1210,.T.);
#1260 = PLANE('',#1261);
#1261 = AXIS2_PLACEMENT_3D('',#1262,#1263,#1264);
#1262 = CARTESIAN_POINT('',(2.848833609457E-16,-5.551115123126E-17,6.2)
  );
#1263 = DIRECTION('',(0.,0.,1.));
#1264 = DIRECTION('',(1.,0.,0.));
#1265 = ADVANCED_FACE('',(#1266),#1269,.T.);
#1266 = FACE_BOUND('',#1267,.F.);
#1267 = EDGE_LOOP('',(#1268));
#1268 = ORIENTED_EDGE('',*,*,#1235,.T.);
#1269 = PLANE('',#1270);
#1270 = AXIS2_PLACEMENT_3D('',#1271,#1272,#1273);
#1271 = CARTESIAN_POINT('',(2.848833609457E-16,-5.551115123126E-17,6.2)
  );
#1272 = DIRECTION('',(0.,0.,1.));
#1273 = DIRECTION('',(1.,0.,0.));
#1274 = ADVANCED_FACE('',(#1275),#1287,.F.);
#1275 = FACE_BOUND('',#1276,.F.);
#1276 = EDGE_LOOP('',(#1277,#1278,#1283,#1284,#1285,#1286));
#1277 = ORIENTED_EDGE('',*,*,#890,.F.);
#1278 = ORIENTED_EDGE('',*,*,#1279,.F.);
#1279 = EDGE_CURVE('',#1062,#874,#1280,.T.);
#1280 = B_SPLINE_CURVE_WITH_KNOTS('',1,(#1281,#1282),.UNSPECIFIED.,.F.,
  .F.,(2,2),(-3.,-0.25),.PIECEWISE_BEZIER_KNOTS.);
#1281 = CARTESIAN_POINT('',(1.5,4.834788079488E-15,7.));
#1282 = CARTESIAN_POINT('',(1.5,4.834788079488E-15,9.75));
#1283 = ORIENTED_EDGE('',*,*,#1070,.T.);
#1284 = ORIENTED_EDGE('',*,*,#1059,.T.);
#1285 = ORIENTED_EDGE('',*,*,#1279,.T.);
#1286 = ORIENTED_EDGE('',*,*,#881,.F.);
#1287 = CYLINDRICAL_SURFACE('',#1288,3.);
#1288 = AXIS2_PLACEMENT_3D('',#1289,#1290,#1291);
#1289 = CARTESIAN_POINT('',(4.5,4.1E-15,10.));
#1290 = DIRECTION('',(0.,0.,1.));
#1291 = DIRECTION('',(-1.,-0.,0.));
#1292 = ( GEOMETRIC_REPRESENTATION_CONTEXT(3) 
GLOBAL_UNCERTAINTY_ASSIGNED_CONTEXT((#1296)) 
GLOBAL_UNIT_ASSIGNED_CONTEXT((#1293,#1294,#1295)) REPRESENTATION_CONTEXT
('Context #1','3D Context with UNIT and UNCERTAINTY') );
#1293 = ( LENGTH_UNIT() NAMED_UNIT(*) SI_UNIT(.MILLI.,.METRE.) );
#1294 = ( NAMED_UNIT(*) PLANE_ANGLE_UNIT() SI_UNIT($,.RADIAN.) );
#1295 = ( NAMED_UNIT(*) SI_UNIT($,.STERADIAN.) SOLID_ANGLE_UNIT() );
#1296 = UNCERTAINTY_MEASURE_WITH_UNIT(LENGTH_MEASURE(2.E-05),#1293,
  'distance_accuracy_value','confusion accuracy');
#1297 = PRODUCT_RELATED_PRODUCT_CATEGORY('part',$,(#7));
#1298 = MECHANICAL_DESIGN_GEOMETRIC_PRESENTATION_REPRESENTATION('',(
    #1299),#1292);
#1299 = STYLED_ITEM('color',(#1300),#15);
#1300 = PRESENTATION_STYLE_ASSIGNMENT((#1301,#1309));
#1301 = SURFACE_STYLE_USAGE(.BOTH.,#1302);
#1302 = SURFACE_SIDE_STYLE('',(#1303,#1307));
#1303 = SURFACE_STYLE_FILL_AREA(#1304);
#1304 = FILL_AREA_STYLE('',(#1305));
#1305 = FILL_AREA_STYLE_COLOUR('',#1306);
#1306 = COLOUR_RGB('',0.447058818107,0.474509808674,0.501960817233);
#1307 = SURFACE_STYLE_RENDERING_WITH_PROPERTIES(.NORMAL_SHADING.,#1306,(
    #1308));
#1308 = SURFACE_STYLE_TRANSPARENT(0.419999957085);
#1309 = CURVE_STYLE('',#1310,POSITIVE_LENGTH_MEASURE(0.1),#1311);
#1310 = DRAUGHTING_PRE_DEFINED_CURVE_FONT('continuous');
#1311 = COLOUR_RGB('',9.803921802644E-02,9.803921802644E-02,
  9.803921802644E-02);
ENDSEC;
END-ISO-10303-21;
