ISO-10303-21;
HEADER;
FILE_DESCRIPTION(('FreeCAD Model'),'2;1');
FILE_NAME('Open CASCADE Shape Model','2026-01-20T10:33:09',(''),(''),
  'Open CASCADE STEP processor 7.9','FreeCAD','Unknown');
FILE_SCHEMA(('AUTOMOTIVE_DESIGN { 1 0 10303 214 1 1 1 1 }'));
ENDSEC;
DATA;
#1 = APPLICATION_PROTOCOL_DEFINITION('international standard',
  'automotive_design',2000,#2);
#2 = APPLICATION_CONTEXT(
  'core data for automotive mechanical design processes');
#3 = SHAPE_DEFINITION_REPRESENTATION(#4,#10);
#4 = PRODUCT_DEFINITION_SHAPE('','',#5);
#5 = PRODUCT_DEFINITION('design','',#6,#9);
#6 = PRODUCT_DEFINITION_FORMATION('','',#7);
#7 = PRODUCT('probe_dock','probe_dock','',(#8));
#8 = PRODUCT_CONTEXT('',#2,'mechanical');
#9 = PRODUCT_DEFINITION_CONTEXT('part definition',#2,'design');
#10 = ADVANCED_BREP_SHAPE_REPRESENTATION('',(#11,#15),#1373);
#11 = AXIS2_PLACEMENT_3D('',#12,#13,#14);
#12 = CARTESIAN_POINT('',(0.,0.,0.));
#13 = DIRECTION('',(0.,0.,1.));
#14 = DIRECTION('',(1.,0.,-0.));
#15 = MANIFOLD_SOLID_BREP('',#16);
#16 = CLOSED_SHELL('',(#17,#74,#114,#139,#251,#275,#299,#324,#391,#508,
    #532,#556,#580,#642,#659,#702,#726,#750,#791,#817,#913,#930,#948,
    #972,#997,#1014,#1036,#1053,#1070,#1087,#1106,#1118,#1143,#1168,
    #1185,#1210,#1235,#1247,#1272,#1288,#1305,#1322,#1334,#1349,#1361));
#17 = ADVANCED_FACE('',(#18),#69,.F.);
#18 = FACE_BOUND('',#19,.T.);
#19 = EDGE_LOOP('',(#20,#30,#38,#46,#54,#62));
#20 = ORIENTED_EDGE('',*,*,#21,.F.);
#21 = EDGE_CURVE('',#22,#24,#26,.T.);
#22 = VERTEX_POINT('',#23);
#23 = CARTESIAN_POINT('',(11.4,-5.5,2.400000000008));
#24 = VERTEX_POINT('',#25);
#25 = CARTESIAN_POINT('',(11.4,-5.5,3.400000000008));
#26 = LINE('',#27,#28);
#27 = CARTESIAN_POINT('',(11.4,-5.5,1.97155963303));
#28 = VECTOR('',#29,1.);
#29 = DIRECTION('',(0.,-2.044604925031E-18,1.));
#30 = ORIENTED_EDGE('',*,*,#31,.F.);
#31 = EDGE_CURVE('',#32,#22,#34,.T.);
#32 = VERTEX_POINT('',#33);
#33 = CARTESIAN_POINT('',(11.4,-5.5,1.778754672912E-15));
#34 = LINE('',#35,#36);
#35 = CARTESIAN_POINT('',(11.4,-5.5,1.7763568394E-15));
#36 = VECTOR('',#37,1.);
#37 = DIRECTION('',(0.,-2.22044604925E-16,1.));
#38 = ORIENTED_EDGE('',*,*,#39,.F.);
#39 = EDGE_CURVE('',#40,#32,#42,.T.);
#40 = VERTEX_POINT('',#41);
#41 = CARTESIAN_POINT('',(13.4,-5.5,1.778754672912E-15));
#42 = LINE('',#43,#44);
#43 = CARTESIAN_POINT('',(13.4,-5.5,1.7763568394E-15));
#44 = VECTOR('',#45,1.);
#45 = DIRECTION('',(-1.,0.,0.));
#46 = ORIENTED_EDGE('',*,*,#47,.F.);
#47 = EDGE_CURVE('',#48,#40,#50,.T.);
#48 = VERTEX_POINT('',#49);
#49 = CARTESIAN_POINT('',(13.4,-5.5,6.600000000006));
#50 = LINE('',#51,#52);
#51 = CARTESIAN_POINT('',(13.4,-5.5,7.600000000008));
#52 = VECTOR('',#53,1.);
#53 = DIRECTION('',(0.,2.22044604925E-16,-1.));
#54 = ORIENTED_EDGE('',*,*,#55,.F.);
#55 = EDGE_CURVE('',#56,#48,#58,.T.);
#56 = VERTEX_POINT('',#57);
#57 = CARTESIAN_POINT('',(11.4,-5.5,6.600000000008));
#58 = LINE('',#59,#60);
#59 = CARTESIAN_POINT('',(11.4,-5.5,6.600000000006));
#60 = VECTOR('',#61,1.);
#61 = DIRECTION('',(1.,0.,0.));
#62 = ORIENTED_EDGE('',*,*,#63,.F.);
#63 = EDGE_CURVE('',#24,#56,#64,.T.);
#64 = CIRCLE('',#65,1.6);
#65 = AXIS2_PLACEMENT_3D('',#66,#67,#68);
#66 = CARTESIAN_POINT('',(11.4,-5.5,5.000000000008));
#67 = DIRECTION('',(0.,1.,2.044604925031E-18));
#68 = DIRECTION('',(0.,2.044604925031E-18,-1.));
#69 = PLANE('',#70);
#70 = AXIS2_PLACEMENT_3D('',#71,#72,#73);
#71 = CARTESIAN_POINT('',(11.743639290864,-5.5,3.94311926606));
#72 = DIRECTION('',(0.,1.,2.044604925031E-18));
#73 = DIRECTION('',(0.,2.044604925031E-18,-1.));
#74 = ADVANCED_FACE('',(#75),#109,.F.);
#75 = FACE_BOUND('',#76,.T.);
#76 = EDGE_LOOP('',(#77,#87,#95,#101,#102,#103));
#77 = ORIENTED_EDGE('',*,*,#78,.F.);
#78 = EDGE_CURVE('',#79,#81,#83,.T.);
#79 = VERTEX_POINT('',#80);
#80 = CARTESIAN_POINT('',(11.4,5.5,2.400000000008));
#81 = VERTEX_POINT('',#82);
#82 = CARTESIAN_POINT('',(11.4,-4.5,2.400000000008));
#83 = LINE('',#84,#85);
#84 = CARTESIAN_POINT('',(11.4,5.5,2.400000000008));
#85 = VECTOR('',#86,1.);
#86 = DIRECTION('',(0.,-1.,2.17955395075E-16));
#87 = ORIENTED_EDGE('',*,*,#88,.F.);
#88 = EDGE_CURVE('',#89,#79,#91,.T.);
#89 = VERTEX_POINT('',#90);
#90 = CARTESIAN_POINT('',(11.4,5.5,-7.787546729123E-16));
#91 = LINE('',#92,#93);
#92 = CARTESIAN_POINT('',(11.4,5.5,-8.881784197001E-16));
#93 = VECTOR('',#94,1.);
#94 = DIRECTION('',(0.,-2.22044604925E-16,1.));
#95 = ORIENTED_EDGE('',*,*,#96,.T.);
#96 = EDGE_CURVE('',#89,#32,#97,.T.);
#97 = LINE('',#98,#99);
#98 = CARTESIAN_POINT('',(11.4,5.5,-1.218754672912E-15));
#99 = VECTOR('',#100,1.);
#100 = DIRECTION('',(0.,-1.,2.17955395075E-16));
#101 = ORIENTED_EDGE('',*,*,#31,.T.);
#102 = ORIENTED_EDGE('',*,*,#21,.T.);
#103 = ORIENTED_EDGE('',*,*,#104,.T.);
#104 = EDGE_CURVE('',#24,#81,#105,.T.);
#105 = LINE('',#106,#107);
#106 = CARTESIAN_POINT('',(11.4,-7.1,5.000000000008));
#107 = VECTOR('',#108,1.);
#108 = DIRECTION('',(0.,0.707106781187,-0.707106781187));
#109 = PLANE('',#110);
#110 = AXIS2_PLACEMENT_3D('',#111,#112,#113);
#111 = CARTESIAN_POINT('',(11.4,5.5,-1.218754672912E-15));
#112 = DIRECTION('',(1.,0.,0.));
#113 = DIRECTION('',(-0.,-2.17955395075E-16,-1.));
#114 = ADVANCED_FACE('',(#115),#134,.T.);
#115 = FACE_BOUND('',#116,.T.);
#116 = EDGE_LOOP('',(#117,#118,#119,#127));
#117 = ORIENTED_EDGE('',*,*,#104,.F.);
#118 = ORIENTED_EDGE('',*,*,#63,.T.);
#119 = ORIENTED_EDGE('',*,*,#120,.T.);
#120 = EDGE_CURVE('',#56,#121,#123,.T.);
#121 = VERTEX_POINT('',#122);
#122 = CARTESIAN_POINT('',(11.4,-4.5,7.600000000008));
#123 = LINE('',#124,#125);
#124 = CARTESIAN_POINT('',(11.4,-4.5,7.600000000008));
#125 = VECTOR('',#126,1.);
#126 = DIRECTION('',(-8.659560562355E-17,0.707106781187,0.707106781187)
  );
#127 = ORIENTED_EDGE('',*,*,#128,.F.);
#128 = EDGE_CURVE('',#81,#121,#129,.T.);
#129 = CIRCLE('',#130,2.6);
#130 = AXIS2_PLACEMENT_3D('',#131,#132,#133);
#131 = CARTESIAN_POINT('',(11.4,-4.5,5.000000000008));
#132 = DIRECTION('',(0.,1.,2.044604925031E-18));
#133 = DIRECTION('',(0.,2.044604925031E-18,-1.));
#134 = CONICAL_SURFACE('',#135,2.6,0.785398163397);
#135 = AXIS2_PLACEMENT_3D('',#136,#137,#138);
#136 = CARTESIAN_POINT('',(11.4,-4.5,5.000000000008));
#137 = DIRECTION('',(0.,1.,2.044604925031E-18));
#138 = DIRECTION('',(0.,2.044604925031E-18,-1.));
#139 = ADVANCED_FACE('',(#140),#246,.T.);
#140 = FACE_BOUND('',#141,.T.);
#141 = EDGE_LOOP('',(#142,#152,#160,#168,#176,#182,#183,#184,#192,#200,
    #208,#216,#224,#232,#240));
#142 = ORIENTED_EDGE('',*,*,#143,.T.);
#143 = EDGE_CURVE('',#144,#146,#148,.T.);
#144 = VERTEX_POINT('',#145);
#145 = CARTESIAN_POINT('',(41.,-5.5,-6.030264007438E-15));
#146 = VERTEX_POINT('',#147);
#147 = CARTESIAN_POINT('',(41.,20.4,-5.240252676231E-15));
#148 = LINE('',#149,#150);
#149 = CARTESIAN_POINT('',(41.,-5.5,-6.030264007438E-15));
#150 = VECTOR('',#151,1.);
#151 = DIRECTION('',(0.,1.,-1.094764425254E-47));
#152 = ORIENTED_EDGE('',*,*,#153,.T.);
#153 = EDGE_CURVE('',#146,#154,#156,.T.);
#154 = VERTEX_POINT('',#155);
#155 = CARTESIAN_POINT('',(39.,22.4,-6.572520305781E-15));
#156 = LINE('',#157,#158);
#157 = CARTESIAN_POINT('',(36.091872197309,25.308127802691,
    2.020121633418E-15));
#158 = VECTOR('',#159,1.);
#159 = DIRECTION('',(-0.707106781187,0.707106781187,1.570092458684E-16)
  );
#160 = ORIENTED_EDGE('',*,*,#161,.F.);
#161 = EDGE_CURVE('',#162,#154,#164,.T.);
#162 = VERTEX_POINT('',#163);
#163 = CARTESIAN_POINT('',(14.4,22.4,-1.24344978758E-15));
#164 = LINE('',#165,#166);
#165 = CARTESIAN_POINT('',(13.4,22.4,0.));
#166 = VECTOR('',#167,1.);
#167 = DIRECTION('',(1.,0.,-2.22044604925E-16));
#168 = ORIENTED_EDGE('',*,*,#169,.T.);
#169 = EDGE_CURVE('',#162,#170,#172,.T.);
#170 = VERTEX_POINT('',#171);
#171 = CARTESIAN_POINT('',(13.4,21.4,2.087219286295E-15));
#172 = LINE('',#173,#174);
#173 = CARTESIAN_POINT('',(12.824532884903,20.824532884903,
    1.024563571254E-15));
#174 = VECTOR('',#175,1.);
#175 = DIRECTION('',(-0.707106781187,-0.707106781187,-1.570092458684E-16
    ));
#176 = ORIENTED_EDGE('',*,*,#177,.F.);
#177 = EDGE_CURVE('',#40,#170,#178,.T.);
#178 = LINE('',#179,#180);
#179 = CARTESIAN_POINT('',(13.4,5.5,-1.21E-15));
#180 = VECTOR('',#181,1.);
#181 = DIRECTION('',(0.,1.,2.22044604925E-16));
#182 = ORIENTED_EDGE('',*,*,#39,.T.);
#183 = ORIENTED_EDGE('',*,*,#96,.F.);
#184 = ORIENTED_EDGE('',*,*,#185,.F.);
#185 = EDGE_CURVE('',#186,#89,#188,.T.);
#186 = VERTEX_POINT('',#187);
#187 = CARTESIAN_POINT('',(-11.4,5.5,-2.E-15));
#188 = LINE('',#189,#190);
#189 = CARTESIAN_POINT('',(0.,5.5,-1.21E-15));
#190 = VECTOR('',#191,1.);
#191 = DIRECTION('',(1.,0.,0.));
#192 = ORIENTED_EDGE('',*,*,#193,.T.);
#193 = EDGE_CURVE('',#186,#194,#196,.T.);
#194 = VERTEX_POINT('',#195);
#195 = CARTESIAN_POINT('',(-11.4,-5.5,3.E-15));
#196 = LINE('',#197,#198);
#197 = CARTESIAN_POINT('',(-11.4,5.5,-2.44E-15));
#198 = VECTOR('',#199,1.);
#199 = DIRECTION('',(0.,-1.,4.4E-16));
#200 = ORIENTED_EDGE('',*,*,#201,.F.);
#201 = EDGE_CURVE('',#202,#194,#204,.T.);
#202 = VERTEX_POINT('',#203);
#203 = CARTESIAN_POINT('',(-13.4,-5.5,3.E-15));
#204 = LINE('',#205,#206);
#205 = CARTESIAN_POINT('',(-13.4,-5.5,2.6645352591E-15));
#206 = VECTOR('',#207,1.);
#207 = DIRECTION('',(1.,0.,0.));
#208 = ORIENTED_EDGE('',*,*,#209,.T.);
#209 = EDGE_CURVE('',#202,#210,#212,.T.);
#210 = VERTEX_POINT('',#211);
#211 = CARTESIAN_POINT('',(-13.4,29.,4.218847493576E-15));
#212 = LINE('',#213,#214);
#213 = CARTESIAN_POINT('',(-13.4,5.5,-1.21E-15));
#214 = VECTOR('',#215,1.);
#215 = DIRECTION('',(0.,1.,2.22044604925E-16));
#216 = ORIENTED_EDGE('',*,*,#217,.T.);
#217 = EDGE_CURVE('',#210,#218,#220,.T.);
#218 = VERTEX_POINT('',#219);
#219 = CARTESIAN_POINT('',(-12.4,30.,3.996802888651E-15));
#220 = LINE('',#221,#222);
#221 = CARTESIAN_POINT('',(-9.175467115097,33.224532884903,
    2.843040325502E-15));
#222 = VECTOR('',#223,1.);
#223 = DIRECTION('',(0.707106781187,0.707106781187,1.570092458684E-16));
#224 = ORIENTED_EDGE('',*,*,#225,.F.);
#225 = EDGE_CURVE('',#226,#218,#228,.T.);
#226 = VERTEX_POINT('',#227);
#227 = CARTESIAN_POINT('',(46.,30.,-7.140487032063E-15));
#228 = LINE('',#229,#230);
#229 = CARTESIAN_POINT('',(0.,30.,4.230092820663E-15));
#230 = VECTOR('',#231,1.);
#231 = DIRECTION('',(-1.,0.,0.));
#232 = ORIENTED_EDGE('',*,*,#233,.F.);
#233 = EDGE_CURVE('',#234,#226,#236,.T.);
#234 = VERTEX_POINT('',#235);
#235 = CARTESIAN_POINT('',(46.,-5.5,-7.140487032063E-15));
#236 = LINE('',#237,#238);
#237 = CARTESIAN_POINT('',(46.,-5.5,-7.140487032063E-15));
#238 = VECTOR('',#239,1.);
#239 = DIRECTION('',(0.,1.,-1.094764425254E-47));
#240 = ORIENTED_EDGE('',*,*,#241,.F.);
#241 = EDGE_CURVE('',#144,#234,#242,.T.);
#242 = LINE('',#243,#244);
#243 = CARTESIAN_POINT('',(41.,-5.5,-6.030264007438E-15));
#244 = VECTOR('',#245,1.);
#245 = DIRECTION('',(1.,0.,-2.22044604925E-16));
#246 = PLANE('',#247);
#247 = AXIS2_PLACEMENT_3D('',#248,#249,#250);
#248 = CARTESIAN_POINT('',(17.232810164425,14.265321375187,
    -1.366750303863E-15));
#249 = DIRECTION('',(0.,2.22044604925E-16,-1.));
#250 = DIRECTION('',(0.,1.,2.22044604925E-16));
#251 = ADVANCED_FACE('',(#252),#270,.T.);
#252 = FACE_BOUND('',#253,.T.);
#253 = EDGE_LOOP('',(#254,#255,#256,#264));
#254 = ORIENTED_EDGE('',*,*,#120,.F.);
#255 = ORIENTED_EDGE('',*,*,#55,.T.);
#256 = ORIENTED_EDGE('',*,*,#257,.T.);
#257 = EDGE_CURVE('',#48,#258,#260,.T.);
#258 = VERTEX_POINT('',#259);
#259 = CARTESIAN_POINT('',(12.4,-4.5,7.600000000006));
#260 = LINE('',#261,#262);
#261 = CARTESIAN_POINT('',(8.083333333334,-0.183333333334,
    11.916666666672));
#262 = VECTOR('',#263,1.);
#263 = DIRECTION('',(-0.57735026919,0.57735026919,0.57735026919));
#264 = ORIENTED_EDGE('',*,*,#265,.F.);
#265 = EDGE_CURVE('',#121,#258,#266,.T.);
#266 = LINE('',#267,#268);
#267 = CARTESIAN_POINT('',(11.4,-4.5,7.600000000006));
#268 = VECTOR('',#269,1.);
#269 = DIRECTION('',(1.,0.,0.));
#270 = PLANE('',#271);
#271 = AXIS2_PLACEMENT_3D('',#272,#273,#274);
#272 = CARTESIAN_POINT('',(11.4,-5.,7.100000000006));
#273 = DIRECTION('',(4.85510036431E-14,-0.707106781187,0.707106781187));
#274 = DIRECTION('',(1.,3.433074390945E-14,-3.433074390945E-14));
#275 = ADVANCED_FACE('',(#276),#294,.T.);
#276 = FACE_BOUND('',#277,.T.);
#277 = EDGE_LOOP('',(#278,#279,#280,#288));
#278 = ORIENTED_EDGE('',*,*,#47,.T.);
#279 = ORIENTED_EDGE('',*,*,#177,.T.);
#280 = ORIENTED_EDGE('',*,*,#281,.F.);
#281 = EDGE_CURVE('',#282,#170,#284,.T.);
#282 = VERTEX_POINT('',#283);
#283 = CARTESIAN_POINT('',(13.4,21.4,6.600000000003));
#284 = LINE('',#285,#286);
#285 = CARTESIAN_POINT('',(13.4,21.4,7.6));
#286 = VECTOR('',#287,1.);
#287 = DIRECTION('',(-2.22044604925E-16,0.,-1.));
#288 = ORIENTED_EDGE('',*,*,#289,.T.);
#289 = EDGE_CURVE('',#282,#48,#290,.T.);
#290 = LINE('',#291,#292);
#291 = CARTESIAN_POINT('',(13.4,22.4,6.600000000003));
#292 = VECTOR('',#293,1.);
#293 = DIRECTION('',(0.,-1.,2.17955395075E-16));
#294 = PLANE('',#295);
#295 = AXIS2_PLACEMENT_3D('',#296,#297,#298);
#296 = CARTESIAN_POINT('',(13.4,12.249999999998,3.800000000001));
#297 = DIRECTION('',(1.,0.,0.));
#298 = DIRECTION('',(0.,-1.,-2.22044604925E-16));
#299 = ADVANCED_FACE('',(#300),#319,.T.);
#300 = FACE_BOUND('',#301,.T.);
#301 = EDGE_LOOP('',(#302,#303,#304,#312));
#302 = ORIENTED_EDGE('',*,*,#78,.T.);
#303 = ORIENTED_EDGE('',*,*,#128,.T.);
#304 = ORIENTED_EDGE('',*,*,#305,.F.);
#305 = EDGE_CURVE('',#306,#121,#308,.T.);
#306 = VERTEX_POINT('',#307);
#307 = CARTESIAN_POINT('',(11.400000000001,5.5,7.600000000004));
#308 = LINE('',#309,#310);
#309 = CARTESIAN_POINT('',(11.4,5.5,7.600000000008));
#310 = VECTOR('',#311,1.);
#311 = DIRECTION('',(0.,-1.,2.17955395075E-16));
#312 = ORIENTED_EDGE('',*,*,#313,.F.);
#313 = EDGE_CURVE('',#79,#306,#314,.T.);
#314 = CIRCLE('',#315,2.6);
#315 = AXIS2_PLACEMENT_3D('',#316,#317,#318);
#316 = CARTESIAN_POINT('',(11.4,5.5,5.000000000008));
#317 = DIRECTION('',(0.,1.,2.22044604925E-16));
#318 = DIRECTION('',(-1.,0.,0.));
#319 = CYLINDRICAL_SURFACE('',#320,2.6);
#320 = AXIS2_PLACEMENT_3D('',#321,#322,#323);
#321 = CARTESIAN_POINT('',(11.4,5.5,5.000000000008));
#322 = DIRECTION('',(0.,1.,-2.17955395075E-16));
#323 = DIRECTION('',(-1.,0.,0.));
#324 = ADVANCED_FACE('',(#325),#386,.T.);
#325 = FACE_BOUND('',#326,.T.);
#326 = EDGE_LOOP('',(#327,#338,#344,#345,#346,#347,#355,#363,#372,#380)
  );
#327 = ORIENTED_EDGE('',*,*,#328,.F.);
#328 = EDGE_CURVE('',#329,#331,#333,.T.);
#329 = VERTEX_POINT('',#330);
#330 = CARTESIAN_POINT('',(-11.4,5.5,2.400000000008));
#331 = VERTEX_POINT('',#332);
#332 = CARTESIAN_POINT('',(-11.4,5.5,7.600000000005));
#333 = CIRCLE('',#334,2.6);
#334 = AXIS2_PLACEMENT_3D('',#335,#336,#337);
#335 = CARTESIAN_POINT('',(-11.4,5.5,5.000000000008));
#336 = DIRECTION('',(0.,-1.,0.));
#337 = DIRECTION('',(1.,0.,0.));
#338 = ORIENTED_EDGE('',*,*,#339,.F.);
#339 = EDGE_CURVE('',#186,#329,#340,.T.);
#340 = LINE('',#341,#342);
#341 = CARTESIAN_POINT('',(-11.4,5.5,-1.7763568394E-15));
#342 = VECTOR('',#343,1.);
#343 = DIRECTION('',(0.,0.,1.));
#344 = ORIENTED_EDGE('',*,*,#185,.T.);
#345 = ORIENTED_EDGE('',*,*,#88,.T.);
#346 = ORIENTED_EDGE('',*,*,#313,.T.);
#347 = ORIENTED_EDGE('',*,*,#348,.F.);
#348 = EDGE_CURVE('',#349,#306,#351,.T.);
#349 = VERTEX_POINT('',#350);
#350 = CARTESIAN_POINT('',(3.,5.5,7.6));
#351 = LINE('',#352,#353);
#352 = CARTESIAN_POINT('',(-13.4,5.5,7.6));
#353 = VECTOR('',#354,1.);
#354 = DIRECTION('',(1.,0.,0.));
#355 = ORIENTED_EDGE('',*,*,#356,.F.);
#356 = EDGE_CURVE('',#357,#349,#359,.T.);
#357 = VERTEX_POINT('',#358);
#358 = CARTESIAN_POINT('',(3.,5.5,4.5));
#359 = LINE('',#360,#361);
#360 = CARTESIAN_POINT('',(3.,5.5,4.5));
#361 = VECTOR('',#362,1.);
#362 = DIRECTION('',(0.,2.22044604925E-16,1.));
#363 = ORIENTED_EDGE('',*,*,#364,.F.);
#364 = EDGE_CURVE('',#365,#357,#367,.T.);
#365 = VERTEX_POINT('',#366);
#366 = CARTESIAN_POINT('',(-3.,5.5,4.5));
#367 = CIRCLE('',#368,3.);
#368 = AXIS2_PLACEMENT_3D('',#369,#370,#371);
#369 = CARTESIAN_POINT('',(0.,5.5,4.5));
#370 = DIRECTION('',(0.,-1.,2.22044604925E-16));
#371 = DIRECTION('',(1.,0.,0.));
#372 = ORIENTED_EDGE('',*,*,#373,.T.);
#373 = EDGE_CURVE('',#365,#374,#376,.T.);
#374 = VERTEX_POINT('',#375);
#375 = CARTESIAN_POINT('',(-3.,5.5,7.6));
#376 = LINE('',#377,#378);
#377 = CARTESIAN_POINT('',(-3.,5.5,4.5));
#378 = VECTOR('',#379,1.);
#379 = DIRECTION('',(0.,2.22044604925E-16,1.));
#380 = ORIENTED_EDGE('',*,*,#381,.F.);
#381 = EDGE_CURVE('',#331,#374,#382,.T.);
#382 = LINE('',#383,#384);
#383 = CARTESIAN_POINT('',(-13.4,5.5,7.6));
#384 = VECTOR('',#385,1.);
#385 = DIRECTION('',(1.,0.,0.));
#386 = PLANE('',#387);
#387 = AXIS2_PLACEMENT_3D('',#388,#389,#390);
#388 = CARTESIAN_POINT('',(-2.153159805333E-16,5.5,3.894545454547));
#389 = DIRECTION('',(0.,-1.,-2.22044604925E-16));
#390 = DIRECTION('',(1.,0.,0.));
#391 = ADVANCED_FACE('',(#392,#481,#492),#503,.F.);
#392 = FACE_BOUND('',#393,.F.);
#393 = EDGE_LOOP('',(#394,#395,#403,#411,#419,#427,#435,#443,#451,#459,
    #467,#475));
#394 = ORIENTED_EDGE('',*,*,#143,.T.);
#395 = ORIENTED_EDGE('',*,*,#396,.F.);
#396 = EDGE_CURVE('',#397,#146,#399,.T.);
#397 = VERTEX_POINT('',#398);
#398 = CARTESIAN_POINT('',(41.,20.4,7.428427124747));
#399 = LINE('',#400,#401);
#400 = CARTESIAN_POINT('',(41.,20.4,6.600000000002));
#401 = VECTOR('',#402,1.);
#402 = DIRECTION('',(-2.22044604925E-16,0.,-1.));
#403 = ORIENTED_EDGE('',*,*,#404,.F.);
#404 = EDGE_CURVE('',#405,#397,#407,.T.);
#405 = VERTEX_POINT('',#406);
#406 = CARTESIAN_POINT('',(41.,22.571572875254,9.6));
#407 = LINE('',#408,#409);
#408 = CARTESIAN_POINT('',(41.,21.985786437628,9.014213562374));
#409 = VECTOR('',#410,1.);
#410 = DIRECTION('',(-2.512147933894E-16,-0.707106781187,-0.707106781187
    ));
#411 = ORIENTED_EDGE('',*,*,#412,.F.);
#412 = EDGE_CURVE('',#413,#405,#415,.T.);
#413 = VERTEX_POINT('',#414);
#414 = CARTESIAN_POINT('',(41.,27.,9.6));
#415 = LINE('',#416,#417);
#416 = CARTESIAN_POINT('',(41.,28.999999999998,9.6));
#417 = VECTOR('',#418,1.);
#418 = DIRECTION('',(0.,-1.,0.));
#419 = ORIENTED_EDGE('',*,*,#420,.F.);
#420 = EDGE_CURVE('',#421,#413,#423,.T.);
#421 = VERTEX_POINT('',#422);
#422 = CARTESIAN_POINT('',(41.,28.999999999998,7.600000000002));
#423 = LINE('',#424,#425);
#424 = CARTESIAN_POINT('',(41.,24.4625,12.137500000001));
#425 = VECTOR('',#426,1.);
#426 = DIRECTION('',(2.512147933894E-16,-0.707106781187,0.707106781187)
  );
#427 = ORIENTED_EDGE('',*,*,#428,.T.);
#428 = EDGE_CURVE('',#421,#429,#431,.T.);
#429 = VERTEX_POINT('',#430);
#430 = CARTESIAN_POINT('',(41.,30.,6.600000000003));
#431 = LINE('',#432,#433);
#432 = CARTESIAN_POINT('',(41.,24.4625,12.137500000001));
#433 = VECTOR('',#434,1.);
#434 = DIRECTION('',(-2.512147933894E-16,0.707106781187,-0.707106781187)
  );
#435 = ORIENTED_EDGE('',*,*,#436,.F.);
#436 = EDGE_CURVE('',#437,#429,#439,.T.);
#437 = VERTEX_POINT('',#438);
#438 = CARTESIAN_POINT('',(41.,30.,7.6));
#439 = LINE('',#440,#441);
#440 = CARTESIAN_POINT('',(41.,30.,7.876070528967));
#441 = VECTOR('',#442,1.);
#442 = DIRECTION('',(-3.552713678801E-16,2.22044604925E-16,-1.));
#443 = ORIENTED_EDGE('',*,*,#444,.T.);
#444 = EDGE_CURVE('',#437,#445,#447,.T.);
#445 = VERTEX_POINT('',#446);
#446 = CARTESIAN_POINT('',(41.,30.,19.));
#447 = LINE('',#448,#449);
#448 = CARTESIAN_POINT('',(41.,30.,-6.030264007438E-15));
#449 = VECTOR('',#450,1.);
#450 = DIRECTION('',(2.22044604925E-16,-1.094764425254E-47,1.));
#451 = ORIENTED_EDGE('',*,*,#452,.F.);
#452 = EDGE_CURVE('',#453,#445,#455,.T.);
#453 = VERTEX_POINT('',#454);
#454 = CARTESIAN_POINT('',(41.,29.,20.));
#455 = LINE('',#456,#457);
#456 = CARTESIAN_POINT('',(41.,27.5625,21.4375));
#457 = VECTOR('',#458,1.);
#458 = DIRECTION('',(-2.512147933894E-16,0.707106781187,-0.707106781187)
  );
#459 = ORIENTED_EDGE('',*,*,#460,.T.);
#460 = EDGE_CURVE('',#453,#461,#463,.T.);
#461 = VERTEX_POINT('',#462);
#462 = CARTESIAN_POINT('',(41.,-4.5,20.));
#463 = LINE('',#464,#465);
#464 = CARTESIAN_POINT('',(41.,30.,20.));
#465 = VECTOR('',#466,1.);
#466 = DIRECTION('',(0.,-1.,1.094764425254E-47));
#467 = ORIENTED_EDGE('',*,*,#468,.F.);
#468 = EDGE_CURVE('',#469,#461,#471,.T.);
#469 = VERTEX_POINT('',#470);
#470 = CARTESIAN_POINT('',(41.,-5.5,19.));
#471 = LINE('',#472,#473);
#472 = CARTESIAN_POINT('',(41.,-3.0625,21.4375));
#473 = VECTOR('',#474,1.);
#474 = DIRECTION('',(2.512147933894E-16,0.707106781187,0.707106781187));
#475 = ORIENTED_EDGE('',*,*,#476,.T.);
#476 = EDGE_CURVE('',#469,#144,#477,.T.);
#477 = LINE('',#478,#479);
#478 = CARTESIAN_POINT('',(41.,-5.5,20.));
#479 = VECTOR('',#480,1.);
#480 = DIRECTION('',(-2.22044604925E-16,1.094764425254E-47,-1.));
#481 = FACE_BOUND('',#482,.F.);
#482 = EDGE_LOOP('',(#483));
#483 = ORIENTED_EDGE('',*,*,#484,.T.);
#484 = EDGE_CURVE('',#485,#485,#487,.T.);
#485 = VERTEX_POINT('',#486);
#486 = CARTESIAN_POINT('',(41.,11.45,10.));
#487 = CIRCLE('',#488,3.05);
#488 = AXIS2_PLACEMENT_3D('',#489,#490,#491);
#489 = CARTESIAN_POINT('',(41.,14.5,10.));
#490 = DIRECTION('',(-1.,0.,-2.22044604925E-16));
#491 = DIRECTION('',(4.930380657631E-32,-1.,-2.22044604925E-16));
#492 = FACE_BOUND('',#493,.F.);
#493 = EDGE_LOOP('',(#494));
#494 = ORIENTED_EDGE('',*,*,#495,.T.);
#495 = EDGE_CURVE('',#496,#496,#498,.T.);
#496 = VERTEX_POINT('',#497);
#497 = CARTESIAN_POINT('',(41.,-3.55,10.));
#498 = CIRCLE('',#499,3.05);
#499 = AXIS2_PLACEMENT_3D('',#500,#501,#502);
#500 = CARTESIAN_POINT('',(41.,-0.5,10.));
#501 = DIRECTION('',(-1.,0.,-2.22044604925E-16));
#502 = DIRECTION('',(4.930380657631E-32,-1.,-2.22044604925E-16));
#503 = PLANE('',#504);
#504 = AXIS2_PLACEMENT_3D('',#505,#506,#507);
#505 = CARTESIAN_POINT('',(41.,12.25,10.));
#506 = DIRECTION('',(1.,0.,-3.552713678801E-16));
#507 = DIRECTION('',(3.552713678801E-16,0.,1.));
#508 = ADVANCED_FACE('',(#509),#527,.F.);
#509 = FACE_BOUND('',#510,.F.);
#510 = EDGE_LOOP('',(#511,#519,#520,#521));
#511 = ORIENTED_EDGE('',*,*,#512,.F.);
#512 = EDGE_CURVE('',#397,#513,#515,.T.);
#513 = VERTEX_POINT('',#514);
#514 = CARTESIAN_POINT('',(39.,22.400000000001,6.600000000002));
#515 = LINE('',#516,#517);
#516 = CARTESIAN_POINT('',(39.786115354746,21.613884645254,
    6.925619641526));
#517 = VECTOR('',#518,1.);
#518 = DIRECTION('',(-0.678598344546,0.678598344546,-0.281084637715));
#519 = ORIENTED_EDGE('',*,*,#396,.T.);
#520 = ORIENTED_EDGE('',*,*,#153,.T.);
#521 = ORIENTED_EDGE('',*,*,#522,.F.);
#522 = EDGE_CURVE('',#513,#154,#523,.T.);
#523 = LINE('',#524,#525);
#524 = CARTESIAN_POINT('',(39.,22.4,6.600000000002));
#525 = VECTOR('',#526,1.);
#526 = DIRECTION('',(-2.22044604925E-16,0.,-1.));
#527 = PLANE('',#528);
#528 = AXIS2_PLACEMENT_3D('',#529,#530,#531);
#529 = CARTESIAN_POINT('',(40.,21.4,6.600000000002));
#530 = DIRECTION('',(0.707106781187,0.707106781187,1.570092458684E-16));
#531 = DIRECTION('',(0.,2.22044604925E-16,-1.));
#532 = ADVANCED_FACE('',(#533),#551,.F.);
#533 = FACE_BOUND('',#534,.F.);
#534 = EDGE_LOOP('',(#535,#536,#544,#550));
#535 = ORIENTED_EDGE('',*,*,#476,.F.);
#536 = ORIENTED_EDGE('',*,*,#537,.T.);
#537 = EDGE_CURVE('',#469,#538,#540,.T.);
#538 = VERTEX_POINT('',#539);
#539 = CARTESIAN_POINT('',(46.,-5.5,19.));
#540 = LINE('',#541,#542);
#541 = CARTESIAN_POINT('',(41.,-5.5,19.));
#542 = VECTOR('',#543,1.);
#543 = DIRECTION('',(1.,0.,-2.22044604925E-16));
#544 = ORIENTED_EDGE('',*,*,#545,.T.);
#545 = EDGE_CURVE('',#538,#234,#546,.T.);
#546 = LINE('',#547,#548);
#547 = CARTESIAN_POINT('',(46.,-5.5,20.));
#548 = VECTOR('',#549,1.);
#549 = DIRECTION('',(-2.22044604925E-16,1.094764425254E-47,-1.));
#550 = ORIENTED_EDGE('',*,*,#241,.F.);
#551 = PLANE('',#552);
#552 = AXIS2_PLACEMENT_3D('',#553,#554,#555);
#553 = CARTESIAN_POINT('',(41.,-5.5,20.));
#554 = DIRECTION('',(0.,1.,0.));
#555 = DIRECTION('',(-2.22044604925E-16,0.,-1.));
#556 = ADVANCED_FACE('',(#557),#575,.F.);
#557 = FACE_BOUND('',#558,.F.);
#558 = EDGE_LOOP('',(#559,#560,#568,#574));
#559 = ORIENTED_EDGE('',*,*,#161,.F.);
#560 = ORIENTED_EDGE('',*,*,#561,.F.);
#561 = EDGE_CURVE('',#562,#162,#564,.T.);
#562 = VERTEX_POINT('',#563);
#563 = CARTESIAN_POINT('',(14.4,22.4,6.600000000003));
#564 = LINE('',#565,#566);
#565 = CARTESIAN_POINT('',(14.4,22.4,7.6));
#566 = VECTOR('',#567,1.);
#567 = DIRECTION('',(-2.22044604925E-16,0.,-1.));
#568 = ORIENTED_EDGE('',*,*,#569,.T.);
#569 = EDGE_CURVE('',#562,#513,#570,.T.);
#570 = LINE('',#571,#572);
#571 = CARTESIAN_POINT('',(13.4,22.4,6.600000000003));
#572 = VECTOR('',#573,1.);
#573 = DIRECTION('',(1.,0.,-2.22044604925E-16));
#574 = ORIENTED_EDGE('',*,*,#522,.T.);
#575 = PLANE('',#576);
#576 = AXIS2_PLACEMENT_3D('',#577,#578,#579);
#577 = CARTESIAN_POINT('',(13.4,22.4,7.6));
#578 = DIRECTION('',(0.,1.,0.));
#579 = DIRECTION('',(-2.22044604925E-16,0.,-1.));
#580 = ADVANCED_FACE('',(#581,#615,#626),#637,.T.);
#581 = FACE_BOUND('',#582,.T.);
#582 = EDGE_LOOP('',(#583,#591,#599,#607,#613,#614));
#583 = ORIENTED_EDGE('',*,*,#584,.T.);
#584 = EDGE_CURVE('',#226,#585,#587,.T.);
#585 = VERTEX_POINT('',#586);
#586 = CARTESIAN_POINT('',(46.,30.,19.));
#587 = LINE('',#588,#589);
#588 = CARTESIAN_POINT('',(46.,30.,-7.140487032063E-15));
#589 = VECTOR('',#590,1.);
#590 = DIRECTION('',(2.22044604925E-16,-1.094764425254E-47,1.));
#591 = ORIENTED_EDGE('',*,*,#592,.F.);
#592 = EDGE_CURVE('',#593,#585,#595,.T.);
#593 = VERTEX_POINT('',#594);
#594 = CARTESIAN_POINT('',(46.,29.,20.));
#595 = LINE('',#596,#597);
#596 = CARTESIAN_POINT('',(46.,27.5625,21.4375));
#597 = VECTOR('',#598,1.);
#598 = DIRECTION('',(-2.512147933894E-16,0.707106781187,-0.707106781187)
  );
#599 = ORIENTED_EDGE('',*,*,#600,.T.);
#600 = EDGE_CURVE('',#593,#601,#603,.T.);
#601 = VERTEX_POINT('',#602);
#602 = CARTESIAN_POINT('',(46.,-4.5,20.));
#603 = LINE('',#604,#605);
#604 = CARTESIAN_POINT('',(46.,30.,20.));
#605 = VECTOR('',#606,1.);
#606 = DIRECTION('',(0.,-1.,1.094764425254E-47));
#607 = ORIENTED_EDGE('',*,*,#608,.F.);
#608 = EDGE_CURVE('',#538,#601,#609,.T.);
#609 = LINE('',#610,#611);
#610 = CARTESIAN_POINT('',(46.,-3.0625,21.4375));
#611 = VECTOR('',#612,1.);
#612 = DIRECTION('',(2.512147933894E-16,0.707106781187,0.707106781187));
#613 = ORIENTED_EDGE('',*,*,#545,.T.);
#614 = ORIENTED_EDGE('',*,*,#233,.T.);
#615 = FACE_BOUND('',#616,.T.);
#616 = EDGE_LOOP('',(#617));
#617 = ORIENTED_EDGE('',*,*,#618,.F.);
#618 = EDGE_CURVE('',#619,#619,#621,.T.);
#619 = VERTEX_POINT('',#620);
#620 = CARTESIAN_POINT('',(46.,12.9,10.));
#621 = CIRCLE('',#622,1.6);
#622 = AXIS2_PLACEMENT_3D('',#623,#624,#625);
#623 = CARTESIAN_POINT('',(46.,14.5,10.));
#624 = DIRECTION('',(1.,0.,2.22044604925E-16));
#625 = DIRECTION('',(4.930380657631E-32,-1.,-2.22044604925E-16));
#626 = FACE_BOUND('',#627,.T.);
#627 = EDGE_LOOP('',(#628));
#628 = ORIENTED_EDGE('',*,*,#629,.F.);
#629 = EDGE_CURVE('',#630,#630,#632,.T.);
#630 = VERTEX_POINT('',#631);
#631 = CARTESIAN_POINT('',(46.,-2.1,10.));
#632 = CIRCLE('',#633,1.6);
#633 = AXIS2_PLACEMENT_3D('',#634,#635,#636);
#634 = CARTESIAN_POINT('',(46.,-0.5,10.));
#635 = DIRECTION('',(1.,0.,2.22044604925E-16));
#636 = DIRECTION('',(4.930380657631E-32,-1.,-2.22044604925E-16));
#637 = PLANE('',#638);
#638 = AXIS2_PLACEMENT_3D('',#639,#640,#641);
#639 = CARTESIAN_POINT('',(46.,12.25,10.));
#640 = DIRECTION('',(1.,0.,-3.552713678801E-16));
#641 = DIRECTION('',(3.552713678801E-16,0.,1.));
#642 = ADVANCED_FACE('',(#643),#654,.T.);
#643 = FACE_BOUND('',#644,.F.);
#644 = EDGE_LOOP('',(#645,#646,#647,#648));
#645 = ORIENTED_EDGE('',*,*,#561,.T.);
#646 = ORIENTED_EDGE('',*,*,#169,.T.);
#647 = ORIENTED_EDGE('',*,*,#281,.F.);
#648 = ORIENTED_EDGE('',*,*,#649,.T.);
#649 = EDGE_CURVE('',#282,#562,#650,.T.);
#650 = LINE('',#651,#652);
#651 = CARTESIAN_POINT('',(13.4,21.4,6.600000000003));
#652 = VECTOR('',#653,1.);
#653 = DIRECTION('',(0.707106781187,0.707106781187,-1.022407538041E-13)
  );
#654 = PLANE('',#655);
#655 = AXIS2_PLACEMENT_3D('',#656,#657,#658);
#656 = CARTESIAN_POINT('',(13.9,21.9,7.6));
#657 = DIRECTION('',(0.707106781187,-0.707106781187,8.126069117918E-17)
  );
#658 = DIRECTION('',(5.356231668581E-17,1.684822882392E-16,1.));
#659 = ADVANCED_FACE('',(#660,#686),#697,.T.);
#660 = FACE_BOUND('',#661,.T.);
#661 = EDGE_LOOP('',(#662,#663,#669,#670,#671,#679,#685));
#662 = ORIENTED_EDGE('',*,*,#444,.T.);
#663 = ORIENTED_EDGE('',*,*,#664,.T.);
#664 = EDGE_CURVE('',#445,#585,#665,.T.);
#665 = LINE('',#666,#667);
#666 = CARTESIAN_POINT('',(41.,30.,19.));
#667 = VECTOR('',#668,1.);
#668 = DIRECTION('',(1.,0.,-2.22044604925E-16));
#669 = ORIENTED_EDGE('',*,*,#584,.F.);
#670 = ORIENTED_EDGE('',*,*,#225,.T.);
#671 = ORIENTED_EDGE('',*,*,#672,.T.);
#672 = EDGE_CURVE('',#218,#673,#675,.T.);
#673 = VERTEX_POINT('',#674);
#674 = CARTESIAN_POINT('',(-12.4,30.,6.600000000003));
#675 = LINE('',#676,#677);
#676 = CARTESIAN_POINT('',(-12.4,30.,3.996802888651E-15));
#677 = VECTOR('',#678,1.);
#678 = DIRECTION('',(0.,-2.22044604925E-16,1.));
#679 = ORIENTED_EDGE('',*,*,#680,.T.);
#680 = EDGE_CURVE('',#673,#429,#681,.T.);
#681 = LINE('',#682,#683);
#682 = CARTESIAN_POINT('',(-13.4,30.,6.600000000003));
#683 = VECTOR('',#684,1.);
#684 = DIRECTION('',(1.,0.,-2.22044604925E-16));
#685 = ORIENTED_EDGE('',*,*,#436,.F.);
#686 = FACE_BOUND('',#687,.T.);
#687 = EDGE_LOOP('',(#688));
#688 = ORIENTED_EDGE('',*,*,#689,.T.);
#689 = EDGE_CURVE('',#690,#690,#692,.T.);
#690 = VERTEX_POINT('',#691);
#691 = CARTESIAN_POINT('',(1.5,30.,4.5));
#692 = CIRCLE('',#693,1.5);
#693 = AXIS2_PLACEMENT_3D('',#694,#695,#696);
#694 = CARTESIAN_POINT('',(0.,30.,4.5));
#695 = DIRECTION('',(0.,-1.,2.22044604925E-16));
#696 = DIRECTION('',(1.,0.,0.));
#697 = PLANE('',#698);
#698 = AXIS2_PLACEMENT_3D('',#699,#700,#701);
#699 = CARTESIAN_POINT('',(20.547858942065,30.,5.752141057935));
#700 = DIRECTION('',(0.,1.,2.22044604925E-16));
#701 = DIRECTION('',(-1.,0.,0.));
#702 = ADVANCED_FACE('',(#703),#721,.T.);
#703 = FACE_BOUND('',#704,.T.);
#704 = EDGE_LOOP('',(#705,#706,#714,#720));
#705 = ORIENTED_EDGE('',*,*,#217,.F.);
#706 = ORIENTED_EDGE('',*,*,#707,.T.);
#707 = EDGE_CURVE('',#210,#708,#710,.T.);
#708 = VERTEX_POINT('',#709);
#709 = CARTESIAN_POINT('',(-13.4,29.,6.600000000003));
#710 = LINE('',#711,#712);
#711 = CARTESIAN_POINT('',(-13.4,29.,3.774758283726E-15));
#712 = VECTOR('',#713,1.);
#713 = DIRECTION('',(0.,-2.22044604925E-16,1.));
#714 = ORIENTED_EDGE('',*,*,#715,.T.);
#715 = EDGE_CURVE('',#708,#673,#716,.T.);
#716 = LINE('',#717,#718);
#717 = CARTESIAN_POINT('',(-12.9,29.5,6.600000000003));
#718 = VECTOR('',#719,1.);
#719 = DIRECTION('',(0.707106781187,0.707106781187,-1.003177911177E-13)
  );
#720 = ORIENTED_EDGE('',*,*,#672,.F.);
#721 = PLANE('',#722);
#722 = AXIS2_PLACEMENT_3D('',#723,#724,#725);
#723 = CARTESIAN_POINT('',(-12.9,29.5,3.885780586188E-15));
#724 = DIRECTION('',(-0.707106781187,0.707106781187,1.570092458684E-16)
  );
#725 = DIRECTION('',(0.,-2.22044604925E-16,1.));
#726 = ADVANCED_FACE('',(#727),#745,.T.);
#727 = FACE_BOUND('',#728,.T.);
#728 = EDGE_LOOP('',(#729,#730,#738,#744));
#729 = ORIENTED_EDGE('',*,*,#209,.F.);
#730 = ORIENTED_EDGE('',*,*,#731,.F.);
#731 = EDGE_CURVE('',#732,#202,#734,.T.);
#732 = VERTEX_POINT('',#733);
#733 = CARTESIAN_POINT('',(-13.4,-5.5,6.600000000008));
#734 = LINE('',#735,#736);
#735 = CARTESIAN_POINT('',(-13.4,-5.5,7.600000000008));
#736 = VECTOR('',#737,1.);
#737 = DIRECTION('',(0.,0.,-1.));
#738 = ORIENTED_EDGE('',*,*,#739,.F.);
#739 = EDGE_CURVE('',#708,#732,#740,.T.);
#740 = LINE('',#741,#742);
#741 = CARTESIAN_POINT('',(-13.4,30.,6.600000000003));
#742 = VECTOR('',#743,1.);
#743 = DIRECTION('',(0.,-1.,4.4E-16));
#744 = ORIENTED_EDGE('',*,*,#707,.F.);
#745 = PLANE('',#746);
#746 = AXIS2_PLACEMENT_3D('',#747,#748,#749);
#747 = CARTESIAN_POINT('',(-13.4,12.249999999998,3.800000000001));
#748 = DIRECTION('',(-1.,0.,0.));
#749 = DIRECTION('',(0.,1.,2.22044604925E-16));
#750 = ADVANCED_FACE('',(#751),#786,.F.);
#751 = FACE_BOUND('',#752,.F.);
#752 = EDGE_LOOP('',(#753,#763,#769,#770,#771,#779));
#753 = ORIENTED_EDGE('',*,*,#754,.F.);
#754 = EDGE_CURVE('',#755,#757,#759,.T.);
#755 = VERTEX_POINT('',#756);
#756 = CARTESIAN_POINT('',(-11.4,-5.5,2.400000000008));
#757 = VERTEX_POINT('',#758);
#758 = CARTESIAN_POINT('',(-11.4,-5.5,3.400000000008));
#759 = LINE('',#760,#761);
#760 = CARTESIAN_POINT('',(-11.4,-5.5,1.97155963303));
#761 = VECTOR('',#762,1.);
#762 = DIRECTION('',(0.,2.2E-16,1.));
#763 = ORIENTED_EDGE('',*,*,#764,.F.);
#764 = EDGE_CURVE('',#194,#755,#765,.T.);
#765 = LINE('',#766,#767);
#766 = CARTESIAN_POINT('',(-11.4,-5.5,2.6645352591E-15));
#767 = VECTOR('',#768,1.);
#768 = DIRECTION('',(0.,0.,1.));
#769 = ORIENTED_EDGE('',*,*,#201,.F.);
#770 = ORIENTED_EDGE('',*,*,#731,.F.);
#771 = ORIENTED_EDGE('',*,*,#772,.F.);
#772 = EDGE_CURVE('',#773,#732,#775,.T.);
#773 = VERTEX_POINT('',#774);
#774 = CARTESIAN_POINT('',(-11.4,-5.5,6.600000000008));
#775 = LINE('',#776,#777);
#776 = CARTESIAN_POINT('',(-11.4,-5.5,6.600000000008));
#777 = VECTOR('',#778,1.);
#778 = DIRECTION('',(-1.,0.,0.));
#779 = ORIENTED_EDGE('',*,*,#780,.F.);
#780 = EDGE_CURVE('',#757,#773,#781,.T.);
#781 = CIRCLE('',#782,1.6);
#782 = AXIS2_PLACEMENT_3D('',#783,#784,#785);
#783 = CARTESIAN_POINT('',(-11.4,-5.5,5.000000000008));
#784 = DIRECTION('',(0.,-1.,2.2E-16));
#785 = DIRECTION('',(0.,-2.2E-16,-1.));
#786 = PLANE('',#787);
#787 = AXIS2_PLACEMENT_3D('',#788,#789,#790);
#788 = CARTESIAN_POINT('',(-11.74363929086,-5.5,3.94311926606));
#789 = DIRECTION('',(0.,1.,-2.2E-16));
#790 = DIRECTION('',(0.,2.2E-16,1.));
#791 = ADVANCED_FACE('',(#792),#812,.F.);
#792 = FACE_BOUND('',#793,.F.);
#793 = EDGE_LOOP('',(#794,#802,#803,#804,#805,#806));
#794 = ORIENTED_EDGE('',*,*,#795,.F.);
#795 = EDGE_CURVE('',#329,#796,#798,.T.);
#796 = VERTEX_POINT('',#797);
#797 = CARTESIAN_POINT('',(-11.4,-4.5,2.400000000008));
#798 = LINE('',#799,#800);
#799 = CARTESIAN_POINT('',(-11.4,5.5,2.400000000008));
#800 = VECTOR('',#801,1.);
#801 = DIRECTION('',(0.,-1.,4.4E-16));
#802 = ORIENTED_EDGE('',*,*,#339,.F.);
#803 = ORIENTED_EDGE('',*,*,#193,.T.);
#804 = ORIENTED_EDGE('',*,*,#764,.T.);
#805 = ORIENTED_EDGE('',*,*,#754,.T.);
#806 = ORIENTED_EDGE('',*,*,#807,.T.);
#807 = EDGE_CURVE('',#757,#796,#808,.T.);
#808 = LINE('',#809,#810);
#809 = CARTESIAN_POINT('',(-11.4,-7.1,5.000000000008));
#810 = VECTOR('',#811,1.);
#811 = DIRECTION('',(0.,0.707106781187,-0.707106781187));
#812 = PLANE('',#813);
#813 = AXIS2_PLACEMENT_3D('',#814,#815,#816);
#814 = CARTESIAN_POINT('',(-11.4,5.5,-2.44E-15));
#815 = DIRECTION('',(-1.,0.,0.));
#816 = DIRECTION('',(0.,4.4E-16,1.));
#817 = ADVANCED_FACE('',(#818),#908,.T.);
#818 = FACE_BOUND('',#819,.T.);
#819 = EDGE_LOOP('',(#820,#828,#836,#844,#852,#860,#868,#876,#882,#883,
    #891,#899,#905,#906,#907));
#820 = ORIENTED_EDGE('',*,*,#821,.F.);
#821 = EDGE_CURVE('',#822,#258,#824,.T.);
#822 = VERTEX_POINT('',#823);
#823 = CARTESIAN_POINT('',(12.4,21.4,7.600000000003));
#824 = LINE('',#825,#826);
#825 = CARTESIAN_POINT('',(12.4,22.4,7.600000000003));
#826 = VECTOR('',#827,1.);
#827 = DIRECTION('',(0.,-1.,2.17955395075E-16));
#828 = ORIENTED_EDGE('',*,*,#829,.T.);
#829 = EDGE_CURVE('',#822,#830,#832,.T.);
#830 = VERTEX_POINT('',#831);
#831 = CARTESIAN_POINT('',(14.4,23.4,7.600000000002));
#832 = LINE('',#833,#834);
#833 = CARTESIAN_POINT('',(10.063218533201,19.063218533201,
    7.600000000003));
#834 = VECTOR('',#835,1.);
#835 = DIRECTION('',(0.707106781187,0.707106781187,-1.374532767629E-13)
  );
#836 = ORIENTED_EDGE('',*,*,#837,.T.);
#837 = EDGE_CURVE('',#830,#838,#840,.T.);
#838 = VERTEX_POINT('',#839);
#839 = CARTESIAN_POINT('',(39.,23.400000000001,7.600000000002));
#840 = LINE('',#841,#842);
#841 = CARTESIAN_POINT('',(13.4,23.4,7.600000000002));
#842 = VECTOR('',#843,1.);
#843 = DIRECTION('',(1.,0.,-2.22044604925E-16));
#844 = ORIENTED_EDGE('',*,*,#845,.F.);
#845 = EDGE_CURVE('',#846,#838,#848,.T.);
#846 = VERTEX_POINT('',#847);
#847 = CARTESIAN_POINT('',(39.,29.,7.6));
#848 = LINE('',#849,#850);
#849 = CARTESIAN_POINT('',(39.,28.999999999998,7.6));
#850 = VECTOR('',#851,1.);
#851 = DIRECTION('',(0.,-1.,0.));
#852 = ORIENTED_EDGE('',*,*,#853,.F.);
#853 = EDGE_CURVE('',#854,#846,#856,.T.);
#854 = VERTEX_POINT('',#855);
#855 = CARTESIAN_POINT('',(-12.4,29.,7.600000000003));
#856 = LINE('',#857,#858);
#857 = CARTESIAN_POINT('',(-13.4,29.,7.600000000004));
#858 = VECTOR('',#859,1.);
#859 = DIRECTION('',(1.,0.,-2.22044604925E-16));
#860 = ORIENTED_EDGE('',*,*,#861,.T.);
#861 = EDGE_CURVE('',#854,#862,#864,.T.);
#862 = VERTEX_POINT('',#863);
#863 = CARTESIAN_POINT('',(-12.4,-4.5,7.600000000008));
#864 = LINE('',#865,#866);
#865 = CARTESIAN_POINT('',(-12.4,30.,7.600000000003));
#866 = VECTOR('',#867,1.);
#867 = DIRECTION('',(0.,-1.,4.4E-16));
#868 = ORIENTED_EDGE('',*,*,#869,.F.);
#869 = EDGE_CURVE('',#870,#862,#872,.T.);
#870 = VERTEX_POINT('',#871);
#871 = CARTESIAN_POINT('',(-11.4,-4.5,7.600000000008));
#872 = LINE('',#873,#874);
#873 = CARTESIAN_POINT('',(-11.4,-4.5,7.600000000008));
#874 = VECTOR('',#875,1.);
#875 = DIRECTION('',(-1.,0.,0.));
#876 = ORIENTED_EDGE('',*,*,#877,.F.);
#877 = EDGE_CURVE('',#331,#870,#878,.T.);
#878 = LINE('',#879,#880);
#879 = CARTESIAN_POINT('',(-11.4,5.5,7.600000000008));
#880 = VECTOR('',#881,1.);
#881 = DIRECTION('',(0.,-1.,4.4E-16));
#882 = ORIENTED_EDGE('',*,*,#381,.T.);
#883 = ORIENTED_EDGE('',*,*,#884,.T.);
#884 = EDGE_CURVE('',#374,#885,#887,.T.);
#885 = VERTEX_POINT('',#886);
#886 = CARTESIAN_POINT('',(-3.,6.5,7.6));
#887 = LINE('',#888,#889);
#888 = CARTESIAN_POINT('',(-3.,5.5,7.6));
#889 = VECTOR('',#890,1.);
#890 = DIRECTION('',(0.,1.,-2.22044604925E-16));
#891 = ORIENTED_EDGE('',*,*,#892,.T.);
#892 = EDGE_CURVE('',#885,#893,#895,.T.);
#893 = VERTEX_POINT('',#894);
#894 = CARTESIAN_POINT('',(3.,6.5,7.6));
#895 = LINE('',#896,#897);
#896 = CARTESIAN_POINT('',(-3.,6.5,7.6));
#897 = VECTOR('',#898,1.);
#898 = DIRECTION('',(1.,0.,0.));
#899 = ORIENTED_EDGE('',*,*,#900,.F.);
#900 = EDGE_CURVE('',#349,#893,#901,.T.);
#901 = LINE('',#902,#903);
#902 = CARTESIAN_POINT('',(3.,5.5,7.6));
#903 = VECTOR('',#904,1.);
#904 = DIRECTION('',(0.,1.,-2.22044604925E-16));
#905 = ORIENTED_EDGE('',*,*,#348,.T.);
#906 = ORIENTED_EDGE('',*,*,#305,.T.);
#907 = ORIENTED_EDGE('',*,*,#265,.T.);
#908 = PLANE('',#909);
#909 = AXIS2_PLACEMENT_3D('',#910,#911,#912);
#910 = CARTESIAN_POINT('',(8.479682854311,15.973191278494,7.600000000004
    ));
#911 = DIRECTION('',(6.860016401005E-14,1.257881241807E-13,1.));
#912 = DIRECTION('',(0.,-1.,1.257881241807E-13));
#913 = ADVANCED_FACE('',(#914),#925,.T.);
#914 = FACE_BOUND('',#915,.T.);
#915 = EDGE_LOOP('',(#916,#917,#918,#919));
#916 = ORIENTED_EDGE('',*,*,#821,.T.);
#917 = ORIENTED_EDGE('',*,*,#257,.F.);
#918 = ORIENTED_EDGE('',*,*,#289,.F.);
#919 = ORIENTED_EDGE('',*,*,#920,.F.);
#920 = EDGE_CURVE('',#822,#282,#921,.T.);
#921 = LINE('',#922,#923);
#922 = CARTESIAN_POINT('',(12.65,21.4,7.350000000003));
#923 = VECTOR('',#924,1.);
#924 = DIRECTION('',(0.707106781187,2.255952454224E-14,-0.707106781187)
  );
#925 = PLANE('',#926);
#926 = AXIS2_PLACEMENT_3D('',#927,#928,#929);
#927 = CARTESIAN_POINT('',(12.9,22.4,7.100000000003));
#928 = DIRECTION('',(0.707106781187,8.895594720992E-14,0.707106781187));
#929 = DIRECTION('',(6.279237580147E-14,-1.,6.301033119654E-14));
#930 = ADVANCED_FACE('',(#931),#943,.T.);
#931 = FACE_BOUND('',#932,.F.);
#932 = EDGE_LOOP('',(#933,#934,#941,#942));
#933 = ORIENTED_EDGE('',*,*,#795,.T.);
#934 = ORIENTED_EDGE('',*,*,#935,.T.);
#935 = EDGE_CURVE('',#796,#870,#936,.T.);
#936 = CIRCLE('',#937,2.6);
#937 = AXIS2_PLACEMENT_3D('',#938,#939,#940);
#938 = CARTESIAN_POINT('',(-11.4,-4.5,5.000000000008));
#939 = DIRECTION('',(0.,-1.,2.2E-16));
#940 = DIRECTION('',(0.,-2.2E-16,-1.));
#941 = ORIENTED_EDGE('',*,*,#877,.F.);
#942 = ORIENTED_EDGE('',*,*,#328,.F.);
#943 = CYLINDRICAL_SURFACE('',#944,2.6);
#944 = AXIS2_PLACEMENT_3D('',#945,#946,#947);
#945 = CARTESIAN_POINT('',(-11.4,5.5,5.000000000008));
#946 = DIRECTION('',(0.,1.,-4.4E-16));
#947 = DIRECTION('',(1.,0.,0.));
#948 = ADVANCED_FACE('',(#949),#967,.T.);
#949 = FACE_BOUND('',#950,.T.);
#950 = EDGE_LOOP('',(#951,#959,#965,#966));
#951 = ORIENTED_EDGE('',*,*,#952,.T.);
#952 = EDGE_CURVE('',#365,#953,#955,.T.);
#953 = VERTEX_POINT('',#954);
#954 = CARTESIAN_POINT('',(-3.,6.5,4.5));
#955 = LINE('',#956,#957);
#956 = CARTESIAN_POINT('',(-3.,5.5,4.5));
#957 = VECTOR('',#958,1.);
#958 = DIRECTION('',(0.,1.,-2.22044604925E-16));
#959 = ORIENTED_EDGE('',*,*,#960,.T.);
#960 = EDGE_CURVE('',#953,#885,#961,.T.);
#961 = LINE('',#962,#963);
#962 = CARTESIAN_POINT('',(-3.,6.5,4.5));
#963 = VECTOR('',#964,1.);
#964 = DIRECTION('',(0.,2.22044604925E-16,1.));
#965 = ORIENTED_EDGE('',*,*,#884,.F.);
#966 = ORIENTED_EDGE('',*,*,#373,.F.);
#967 = PLANE('',#968);
#968 = AXIS2_PLACEMENT_3D('',#969,#970,#971);
#969 = CARTESIAN_POINT('',(-3.,5.5,4.5));
#970 = DIRECTION('',(1.,0.,0.));
#971 = DIRECTION('',(0.,2.22044604925E-16,1.));
#972 = ADVANCED_FACE('',(#973),#992,.F.);
#973 = FACE_BOUND('',#974,.F.);
#974 = EDGE_LOOP('',(#975,#976,#985,#991));
#975 = ORIENTED_EDGE('',*,*,#952,.T.);
#976 = ORIENTED_EDGE('',*,*,#977,.T.);
#977 = EDGE_CURVE('',#953,#978,#980,.T.);
#978 = VERTEX_POINT('',#979);
#979 = CARTESIAN_POINT('',(3.,6.5,4.5));
#980 = CIRCLE('',#981,3.);
#981 = AXIS2_PLACEMENT_3D('',#982,#983,#984);
#982 = CARTESIAN_POINT('',(0.,6.5,4.5));
#983 = DIRECTION('',(0.,-1.,2.22044604925E-16));
#984 = DIRECTION('',(1.,0.,0.));
#985 = ORIENTED_EDGE('',*,*,#986,.F.);
#986 = EDGE_CURVE('',#357,#978,#987,.T.);
#987 = LINE('',#988,#989);
#988 = CARTESIAN_POINT('',(3.,5.5,4.5));
#989 = VECTOR('',#990,1.);
#990 = DIRECTION('',(0.,1.,-2.22044604925E-16));
#991 = ORIENTED_EDGE('',*,*,#364,.F.);
#992 = CYLINDRICAL_SURFACE('',#993,3.);
#993 = AXIS2_PLACEMENT_3D('',#994,#995,#996);
#994 = CARTESIAN_POINT('',(0.,5.5,4.5));
#995 = DIRECTION('',(0.,-1.,2.22044604925E-16));
#996 = DIRECTION('',(1.,0.,0.));
#997 = ADVANCED_FACE('',(#998),#1009,.F.);
#998 = FACE_BOUND('',#999,.F.);
#999 = EDGE_LOOP('',(#1000,#1001,#1007,#1008));
#1000 = ORIENTED_EDGE('',*,*,#986,.T.);
#1001 = ORIENTED_EDGE('',*,*,#1002,.T.);
#1002 = EDGE_CURVE('',#978,#893,#1003,.T.);
#1003 = LINE('',#1004,#1005);
#1004 = CARTESIAN_POINT('',(3.,6.5,4.5));
#1005 = VECTOR('',#1006,1.);
#1006 = DIRECTION('',(0.,2.22044604925E-16,1.));
#1007 = ORIENTED_EDGE('',*,*,#900,.F.);
#1008 = ORIENTED_EDGE('',*,*,#356,.F.);
#1009 = PLANE('',#1010);
#1010 = AXIS2_PLACEMENT_3D('',#1011,#1012,#1013);
#1011 = CARTESIAN_POINT('',(3.,5.5,4.5));
#1012 = DIRECTION('',(1.,0.,0.));
#1013 = DIRECTION('',(0.,2.22044604925E-16,1.));
#1014 = ADVANCED_FACE('',(#1015),#1031,.F.);
#1015 = FACE_BOUND('',#1016,.F.);
#1016 = EDGE_LOOP('',(#1017,#1023,#1024,#1025));
#1017 = ORIENTED_EDGE('',*,*,#1018,.F.);
#1018 = EDGE_CURVE('',#405,#838,#1019,.T.);
#1019 = LINE('',#1020,#1021);
#1020 = CARTESIAN_POINT('',(39.386909430915,23.239736866305,
    7.986909430916));
#1021 = VECTOR('',#1022,1.);
#1022 = DIRECTION('',(-0.678598344546,0.281084637715,-0.678598344546));
#1023 = ORIENTED_EDGE('',*,*,#404,.T.);
#1024 = ORIENTED_EDGE('',*,*,#512,.T.);
#1025 = ORIENTED_EDGE('',*,*,#1026,.F.);
#1026 = EDGE_CURVE('',#838,#513,#1027,.T.);
#1027 = LINE('',#1028,#1029);
#1028 = CARTESIAN_POINT('',(39.,23.400000000001,7.600000000001));
#1029 = VECTOR('',#1030,1.);
#1030 = DIRECTION('',(-2.512147933894E-16,-0.707106781187,
    -0.707106781187));
#1031 = PLANE('',#1032);
#1032 = AXIS2_PLACEMENT_3D('',#1033,#1034,#1035);
#1033 = CARTESIAN_POINT('',(40.,22.692893218814,8.307106781188));
#1034 = DIRECTION('',(0.707106781187,0.5,-0.5));
#1035 = DIRECTION('',(-8.326672684689E-17,-0.707106781187,
    -0.707106781187));
#1036 = ADVANCED_FACE('',(#1037),#1048,.T.);
#1037 = FACE_BOUND('',#1038,.T.);
#1038 = EDGE_LOOP('',(#1039,#1040,#1041,#1042));
#1039 = ORIENTED_EDGE('',*,*,#468,.F.);
#1040 = ORIENTED_EDGE('',*,*,#537,.T.);
#1041 = ORIENTED_EDGE('',*,*,#608,.T.);
#1042 = ORIENTED_EDGE('',*,*,#1043,.F.);
#1043 = EDGE_CURVE('',#461,#601,#1044,.T.);
#1044 = LINE('',#1045,#1046);
#1045 = CARTESIAN_POINT('',(41.,-4.5,20.));
#1046 = VECTOR('',#1047,1.);
#1047 = DIRECTION('',(1.,0.,-2.22044604925E-16));
#1048 = PLANE('',#1049);
#1049 = AXIS2_PLACEMENT_3D('',#1050,#1051,#1052);
#1050 = CARTESIAN_POINT('',(41.,-5.,19.5));
#1051 = DIRECTION('',(2.382699370476E-16,-0.707106781187,0.707106781187)
  );
#1052 = DIRECTION('',(1.,5.74599857767E-17,-2.795045907017E-16));
#1053 = ADVANCED_FACE('',(#1054),#1065,.T.);
#1054 = FACE_BOUND('',#1055,.T.);
#1055 = EDGE_LOOP('',(#1056,#1062,#1063,#1064));
#1056 = ORIENTED_EDGE('',*,*,#1057,.F.);
#1057 = EDGE_CURVE('',#846,#413,#1058,.T.);
#1058 = LINE('',#1059,#1060);
#1059 = CARTESIAN_POINT('',(30.433333333335,37.566666666665,
    -0.966666666666));
#1060 = VECTOR('',#1061,1.);
#1061 = DIRECTION('',(0.57735026919,-0.57735026919,0.57735026919));
#1062 = ORIENTED_EDGE('',*,*,#845,.T.);
#1063 = ORIENTED_EDGE('',*,*,#1018,.F.);
#1064 = ORIENTED_EDGE('',*,*,#412,.F.);
#1065 = PLANE('',#1066);
#1066 = AXIS2_PLACEMENT_3D('',#1067,#1068,#1069);
#1067 = CARTESIAN_POINT('',(40.,28.999999999998,8.6));
#1068 = DIRECTION('',(-0.707106781187,8.905884458889E-14,0.707106781187)
  );
#1069 = DIRECTION('',(-6.297411293344E-14,-1.,6.297411293345E-14));
#1070 = ADVANCED_FACE('',(#1071),#1082,.F.);
#1071 = FACE_BOUND('',#1072,.F.);
#1072 = EDGE_LOOP('',(#1073,#1074,#1080,#1081));
#1073 = ORIENTED_EDGE('',*,*,#460,.F.);
#1074 = ORIENTED_EDGE('',*,*,#1075,.T.);
#1075 = EDGE_CURVE('',#453,#593,#1076,.T.);
#1076 = LINE('',#1077,#1078);
#1077 = CARTESIAN_POINT('',(41.,29.,20.));
#1078 = VECTOR('',#1079,1.);
#1079 = DIRECTION('',(1.,0.,-2.22044604925E-16));
#1080 = ORIENTED_EDGE('',*,*,#600,.T.);
#1081 = ORIENTED_EDGE('',*,*,#1043,.F.);
#1082 = PLANE('',#1083);
#1083 = AXIS2_PLACEMENT_3D('',#1084,#1085,#1086);
#1084 = CARTESIAN_POINT('',(41.,30.,20.));
#1085 = DIRECTION('',(-2.22044604925E-16,0.,-1.));
#1086 = DIRECTION('',(0.,-1.,0.));
#1087 = ADVANCED_FACE('',(#1088),#1101,.T.);
#1088 = FACE_BOUND('',#1089,.T.);
#1089 = EDGE_LOOP('',(#1090,#1091,#1092,#1093,#1094,#1095));
#1090 = ORIENTED_EDGE('',*,*,#853,.T.);
#1091 = ORIENTED_EDGE('',*,*,#1057,.T.);
#1092 = ORIENTED_EDGE('',*,*,#420,.F.);
#1093 = ORIENTED_EDGE('',*,*,#428,.T.);
#1094 = ORIENTED_EDGE('',*,*,#680,.F.);
#1095 = ORIENTED_EDGE('',*,*,#1096,.F.);
#1096 = EDGE_CURVE('',#854,#673,#1097,.T.);
#1097 = LINE('',#1098,#1099);
#1098 = CARTESIAN_POINT('',(-12.4,29.25,7.350000000003));
#1099 = VECTOR('',#1100,1.);
#1100 = DIRECTION('',(-4.326666044363E-15,0.707106781187,-0.707106781187
    ));
#1101 = PLANE('',#1102);
#1102 = AXIS2_PLACEMENT_3D('',#1103,#1104,#1105);
#1103 = CARTESIAN_POINT('',(-13.4,29.5,7.100000000003));
#1104 = DIRECTION('',(4.848092424985E-14,0.707106781187,0.707106781187)
  );
#1105 = DIRECTION('',(1.,-3.41701679928E-14,-3.439221259772E-14));
#1106 = ADVANCED_FACE('',(#1107),#1113,.F.);
#1107 = FACE_BOUND('',#1108,.T.);
#1108 = EDGE_LOOP('',(#1109,#1110,#1111,#1112));
#1109 = ORIENTED_EDGE('',*,*,#452,.F.);
#1110 = ORIENTED_EDGE('',*,*,#1075,.T.);
#1111 = ORIENTED_EDGE('',*,*,#592,.T.);
#1112 = ORIENTED_EDGE('',*,*,#664,.F.);
#1113 = PLANE('',#1114);
#1114 = AXIS2_PLACEMENT_3D('',#1115,#1116,#1117);
#1115 = CARTESIAN_POINT('',(41.,29.5,19.5));
#1116 = DIRECTION('',(0.,-0.707106781187,-0.707106781187));
#1117 = DIRECTION('',(-1.,-1.110223024625E-16,1.110223024625E-16));
#1118 = ADVANCED_FACE('',(#1119),#1138,.F.);
#1119 = FACE_BOUND('',#1120,.T.);
#1120 = EDGE_LOOP('',(#1121,#1129,#1130,#1131));
#1121 = ORIENTED_EDGE('',*,*,#1122,.F.);
#1122 = EDGE_CURVE('',#485,#1123,#1125,.T.);
#1123 = VERTEX_POINT('',#1124);
#1124 = CARTESIAN_POINT('',(44.,11.45,10.));
#1125 = LINE('',#1126,#1127);
#1126 = CARTESIAN_POINT('',(41.,11.45,10.));
#1127 = VECTOR('',#1128,1.);
#1128 = DIRECTION('',(1.,-4.930380657631E-32,2.22044604925E-16));
#1129 = ORIENTED_EDGE('',*,*,#484,.T.);
#1130 = ORIENTED_EDGE('',*,*,#1122,.T.);
#1131 = ORIENTED_EDGE('',*,*,#1132,.F.);
#1132 = EDGE_CURVE('',#1123,#1123,#1133,.T.);
#1133 = CIRCLE('',#1134,3.05);
#1134 = AXIS2_PLACEMENT_3D('',#1135,#1136,#1137);
#1135 = CARTESIAN_POINT('',(44.,14.5,10.));
#1136 = DIRECTION('',(-1.,0.,-2.22044604925E-16));
#1137 = DIRECTION('',(4.930380657631E-32,-1.,-2.22044604925E-16));
#1138 = CYLINDRICAL_SURFACE('',#1139,3.05);
#1139 = AXIS2_PLACEMENT_3D('',#1140,#1141,#1142);
#1140 = CARTESIAN_POINT('',(41.,14.5,10.));
#1141 = DIRECTION('',(1.,0.,2.22044604925E-16));
#1142 = DIRECTION('',(4.930380657631E-32,-1.,-2.22044604925E-16));
#1143 = ADVANCED_FACE('',(#1144),#1163,.F.);
#1144 = FACE_BOUND('',#1145,.T.);
#1145 = EDGE_LOOP('',(#1146,#1154,#1155,#1156));
#1146 = ORIENTED_EDGE('',*,*,#1147,.F.);
#1147 = EDGE_CURVE('',#496,#1148,#1150,.T.);
#1148 = VERTEX_POINT('',#1149);
#1149 = CARTESIAN_POINT('',(44.,-3.55,10.));
#1150 = LINE('',#1151,#1152);
#1151 = CARTESIAN_POINT('',(41.,-3.55,10.));
#1152 = VECTOR('',#1153,1.);
#1153 = DIRECTION('',(1.,-4.930380657631E-32,2.22044604925E-16));
#1154 = ORIENTED_EDGE('',*,*,#495,.T.);
#1155 = ORIENTED_EDGE('',*,*,#1147,.T.);
#1156 = ORIENTED_EDGE('',*,*,#1157,.F.);
#1157 = EDGE_CURVE('',#1148,#1148,#1158,.T.);
#1158 = CIRCLE('',#1159,3.05);
#1159 = AXIS2_PLACEMENT_3D('',#1160,#1161,#1162);
#1160 = CARTESIAN_POINT('',(44.,-0.5,10.));
#1161 = DIRECTION('',(-1.,0.,-2.22044604925E-16));
#1162 = DIRECTION('',(4.930380657631E-32,-1.,-2.22044604925E-16));
#1163 = CYLINDRICAL_SURFACE('',#1164,3.05);
#1164 = AXIS2_PLACEMENT_3D('',#1165,#1166,#1167);
#1165 = CARTESIAN_POINT('',(41.,-0.5,10.));
#1166 = DIRECTION('',(1.,0.,2.22044604925E-16));
#1167 = DIRECTION('',(4.930380657631E-32,-1.,-2.22044604925E-16));
#1168 = ADVANCED_FACE('',(#1169),#1180,.F.);
#1169 = FACE_BOUND('',#1170,.F.);
#1170 = EDGE_LOOP('',(#1171,#1172,#1173,#1174));
#1171 = ORIENTED_EDGE('',*,*,#837,.T.);
#1172 = ORIENTED_EDGE('',*,*,#1026,.T.);
#1173 = ORIENTED_EDGE('',*,*,#569,.F.);
#1174 = ORIENTED_EDGE('',*,*,#1175,.F.);
#1175 = EDGE_CURVE('',#830,#562,#1176,.T.);
#1176 = LINE('',#1177,#1178);
#1177 = CARTESIAN_POINT('',(14.4,22.65,6.850000000002));
#1178 = VECTOR('',#1179,1.);
#1179 = DIRECTION('',(-5.768888059151E-14,-0.707106781187,
    -0.707106781187));
#1180 = PLANE('',#1181);
#1181 = AXIS2_PLACEMENT_3D('',#1182,#1183,#1184);
#1182 = CARTESIAN_POINT('',(13.4,22.9,7.100000000002));
#1183 = DIRECTION('',(-4.84949401285E-14,0.707106781187,-0.707106781187)
  );
#1184 = DIRECTION('',(1.,3.418007871564E-14,-3.440212332056E-14));
#1185 = ADVANCED_FACE('',(#1186),#1205,.F.);
#1186 = FACE_BOUND('',#1187,.T.);
#1187 = EDGE_LOOP('',(#1188,#1196,#1203,#1204));
#1188 = ORIENTED_EDGE('',*,*,#1189,.F.);
#1189 = EDGE_CURVE('',#1190,#619,#1192,.T.);
#1190 = VERTEX_POINT('',#1191);
#1191 = CARTESIAN_POINT('',(44.,12.9,10.));
#1192 = LINE('',#1193,#1194);
#1193 = CARTESIAN_POINT('',(44.,12.9,10.));
#1194 = VECTOR('',#1195,1.);
#1195 = DIRECTION('',(1.,6.076811786944E-17,2.22044604925E-16));
#1196 = ORIENTED_EDGE('',*,*,#1197,.T.);
#1197 = EDGE_CURVE('',#1190,#1190,#1198,.T.);
#1198 = CIRCLE('',#1199,1.6);
#1199 = AXIS2_PLACEMENT_3D('',#1200,#1201,#1202);
#1200 = CARTESIAN_POINT('',(44.,14.5,10.));
#1201 = DIRECTION('',(-1.,0.,-2.22044604925E-16));
#1202 = DIRECTION('',(4.930380657631E-32,-1.,-2.22044604925E-16));
#1203 = ORIENTED_EDGE('',*,*,#1189,.T.);
#1204 = ORIENTED_EDGE('',*,*,#618,.T.);
#1205 = CYLINDRICAL_SURFACE('',#1206,1.6);
#1206 = AXIS2_PLACEMENT_3D('',#1207,#1208,#1209);
#1207 = CARTESIAN_POINT('',(44.,14.5,10.));
#1208 = DIRECTION('',(1.,0.,2.22044604925E-16));
#1209 = DIRECTION('',(4.930380657631E-32,-1.,-2.22044604925E-16));
#1210 = ADVANCED_FACE('',(#1211),#1230,.F.);
#1211 = FACE_BOUND('',#1212,.T.);
#1212 = EDGE_LOOP('',(#1213,#1221,#1228,#1229));
#1213 = ORIENTED_EDGE('',*,*,#1214,.F.);
#1214 = EDGE_CURVE('',#1215,#630,#1217,.T.);
#1215 = VERTEX_POINT('',#1216);
#1216 = CARTESIAN_POINT('',(44.,-2.1,10.));
#1217 = LINE('',#1218,#1219);
#1218 = CARTESIAN_POINT('',(44.,-2.1,10.));
#1219 = VECTOR('',#1220,1.);
#1220 = DIRECTION('',(1.,6.076811786944E-17,2.22044604925E-16));
#1221 = ORIENTED_EDGE('',*,*,#1222,.T.);
#1222 = EDGE_CURVE('',#1215,#1215,#1223,.T.);
#1223 = CIRCLE('',#1224,1.6);
#1224 = AXIS2_PLACEMENT_3D('',#1225,#1226,#1227);
#1225 = CARTESIAN_POINT('',(44.,-0.5,10.));
#1226 = DIRECTION('',(-1.,0.,-2.22044604925E-16));
#1227 = DIRECTION('',(4.930380657631E-32,-1.,-2.22044604925E-16));
#1228 = ORIENTED_EDGE('',*,*,#1214,.T.);
#1229 = ORIENTED_EDGE('',*,*,#629,.T.);
#1230 = CYLINDRICAL_SURFACE('',#1231,1.6);
#1231 = AXIS2_PLACEMENT_3D('',#1232,#1233,#1234);
#1232 = CARTESIAN_POINT('',(44.,-0.5,10.));
#1233 = DIRECTION('',(1.,0.,2.22044604925E-16));
#1234 = DIRECTION('',(4.930380657631E-32,-1.,-2.22044604925E-16));
#1235 = ADVANCED_FACE('',(#1236),#1242,.F.);
#1236 = FACE_BOUND('',#1237,.F.);
#1237 = EDGE_LOOP('',(#1238,#1239,#1240,#1241));
#1238 = ORIENTED_EDGE('',*,*,#920,.F.);
#1239 = ORIENTED_EDGE('',*,*,#829,.T.);
#1240 = ORIENTED_EDGE('',*,*,#1175,.T.);
#1241 = ORIENTED_EDGE('',*,*,#649,.F.);
#1242 = PLANE('',#1243);
#1243 = AXIS2_PLACEMENT_3D('',#1244,#1245,#1246);
#1244 = CARTESIAN_POINT('',(12.4,21.4,7.600000000003));
#1245 = DIRECTION('',(-0.57735026919,0.57735026919,-0.57735026919));
#1246 = DIRECTION('',(0.707106781187,0.707106781187,-6.831599579789E-14)
  );
#1247 = ADVANCED_FACE('',(#1248),#1267,.F.);
#1248 = FACE_BOUND('',#1249,.F.);
#1249 = EDGE_LOOP('',(#1250,#1259,#1265,#1266));
#1250 = ORIENTED_EDGE('',*,*,#1251,.F.);
#1251 = EDGE_CURVE('',#1252,#1252,#1254,.T.);
#1252 = VERTEX_POINT('',#1253);
#1253 = CARTESIAN_POINT('',(1.5,6.5,4.5));
#1254 = CIRCLE('',#1255,1.5);
#1255 = AXIS2_PLACEMENT_3D('',#1256,#1257,#1258);
#1256 = CARTESIAN_POINT('',(0.,6.5,4.5));
#1257 = DIRECTION('',(0.,-1.,2.22044604925E-16));
#1258 = DIRECTION('',(1.,0.,0.));
#1259 = ORIENTED_EDGE('',*,*,#1260,.T.);
#1260 = EDGE_CURVE('',#1252,#690,#1261,.T.);
#1261 = LINE('',#1262,#1263);
#1262 = CARTESIAN_POINT('',(1.5,5.5,4.5));
#1263 = VECTOR('',#1264,1.);
#1264 = DIRECTION('',(0.,1.,-2.22044604925E-16));
#1265 = ORIENTED_EDGE('',*,*,#689,.T.);
#1266 = ORIENTED_EDGE('',*,*,#1260,.F.);
#1267 = CYLINDRICAL_SURFACE('',#1268,1.5);
#1268 = AXIS2_PLACEMENT_3D('',#1269,#1270,#1271);
#1269 = CARTESIAN_POINT('',(0.,5.5,4.5));
#1270 = DIRECTION('',(0.,-1.,2.22044604925E-16));
#1271 = DIRECTION('',(1.,0.,0.));
#1272 = ADVANCED_FACE('',(#1273),#1283,.T.);
#1273 = FACE_BOUND('',#1274,.T.);
#1274 = EDGE_LOOP('',(#1275,#1281,#1282));
#1275 = ORIENTED_EDGE('',*,*,#1276,.F.);
#1276 = EDGE_CURVE('',#854,#708,#1277,.T.);
#1277 = LINE('',#1278,#1279);
#1278 = CARTESIAN_POINT('',(-12.65,29.,7.350000000003));
#1279 = VECTOR('',#1280,1.);
#1280 = DIRECTION('',(-0.707106781187,-3.262950455697E-14,
    -0.707106781187));
#1281 = ORIENTED_EDGE('',*,*,#1096,.T.);
#1282 = ORIENTED_EDGE('',*,*,#715,.F.);
#1283 = PLANE('',#1284);
#1284 = AXIS2_PLACEMENT_3D('',#1285,#1286,#1287);
#1285 = CARTESIAN_POINT('',(-12.4,29.,7.600000000003));
#1286 = DIRECTION('',(-0.57735026919,0.57735026919,0.57735026919));
#1287 = DIRECTION('',(0.707106781187,0.707106781187,-6.898212961266E-14)
  );
#1288 = ADVANCED_FACE('',(#1289),#1300,.T.);
#1289 = FACE_BOUND('',#1290,.T.);
#1290 = EDGE_LOOP('',(#1291,#1292,#1293,#1294));
#1291 = ORIENTED_EDGE('',*,*,#861,.F.);
#1292 = ORIENTED_EDGE('',*,*,#1276,.T.);
#1293 = ORIENTED_EDGE('',*,*,#739,.T.);
#1294 = ORIENTED_EDGE('',*,*,#1295,.T.);
#1295 = EDGE_CURVE('',#732,#862,#1296,.T.);
#1296 = LINE('',#1297,#1298);
#1297 = CARTESIAN_POINT('',(-6.816666666667,1.083333333333,
    13.18333333334));
#1298 = VECTOR('',#1299,1.);
#1299 = DIRECTION('',(0.57735026919,0.57735026919,0.57735026919));
#1300 = PLANE('',#1301);
#1301 = AXIS2_PLACEMENT_3D('',#1302,#1303,#1304);
#1302 = CARTESIAN_POINT('',(-12.9,30.,7.100000000003));
#1303 = DIRECTION('',(-0.707106781187,8.896996308857E-14,0.707106781187)
  );
#1304 = DIRECTION('',(-6.269126422184E-14,-1.,6.313126422184E-14));
#1305 = ADVANCED_FACE('',(#1306),#1317,.T.);
#1306 = FACE_BOUND('',#1307,.F.);
#1307 = EDGE_LOOP('',(#1308,#1309,#1310,#1316));
#1308 = ORIENTED_EDGE('',*,*,#807,.F.);
#1309 = ORIENTED_EDGE('',*,*,#780,.T.);
#1310 = ORIENTED_EDGE('',*,*,#1311,.T.);
#1311 = EDGE_CURVE('',#773,#870,#1312,.T.);
#1312 = LINE('',#1313,#1314);
#1313 = CARTESIAN_POINT('',(-11.4,-4.5,7.600000000008));
#1314 = VECTOR('',#1315,1.);
#1315 = DIRECTION('',(8.659560562355E-17,0.707106781187,0.707106781187)
  );
#1316 = ORIENTED_EDGE('',*,*,#935,.F.);
#1317 = CONICAL_SURFACE('',#1318,2.6,0.785398163397);
#1318 = AXIS2_PLACEMENT_3D('',#1319,#1320,#1321);
#1319 = CARTESIAN_POINT('',(-11.4,-4.5,5.000000000008));
#1320 = DIRECTION('',(0.,1.,-2.2E-16));
#1321 = DIRECTION('',(0.,-2.2E-16,-1.));
#1322 = ADVANCED_FACE('',(#1323),#1329,.F.);
#1323 = FACE_BOUND('',#1324,.F.);
#1324 = EDGE_LOOP('',(#1325,#1326,#1327,#1328));
#1325 = ORIENTED_EDGE('',*,*,#1311,.F.);
#1326 = ORIENTED_EDGE('',*,*,#772,.T.);
#1327 = ORIENTED_EDGE('',*,*,#1295,.T.);
#1328 = ORIENTED_EDGE('',*,*,#869,.F.);
#1329 = PLANE('',#1330);
#1330 = AXIS2_PLACEMENT_3D('',#1331,#1332,#1333);
#1331 = CARTESIAN_POINT('',(-11.4,-5.,7.100000000008));
#1332 = DIRECTION('',(-4.84949401285E-14,0.707106781187,-0.707106781187)
  );
#1333 = DIRECTION('',(-1.,-3.42911010181E-14,3.42911010181E-14));
#1334 = ADVANCED_FACE('',(#1335,#1341),#1344,.F.);
#1335 = FACE_BOUND('',#1336,.F.);
#1336 = EDGE_LOOP('',(#1337,#1338,#1339,#1340));
#1337 = ORIENTED_EDGE('',*,*,#960,.T.);
#1338 = ORIENTED_EDGE('',*,*,#892,.T.);
#1339 = ORIENTED_EDGE('',*,*,#1002,.F.);
#1340 = ORIENTED_EDGE('',*,*,#977,.F.);
#1341 = FACE_BOUND('',#1342,.F.);
#1342 = EDGE_LOOP('',(#1343));
#1343 = ORIENTED_EDGE('',*,*,#1251,.T.);
#1344 = PLANE('',#1345);
#1345 = AXIS2_PLACEMENT_3D('',#1346,#1347,#1348);
#1346 = CARTESIAN_POINT('',(-2.765083759444E-15,6.5,5.09535578924));
#1347 = DIRECTION('',(0.,1.,-3.093876077113E-16));
#1348 = DIRECTION('',(0.,3.093876077113E-16,1.));
#1349 = ADVANCED_FACE('',(#1350,#1353),#1356,.F.);
#1350 = FACE_BOUND('',#1351,.T.);
#1351 = EDGE_LOOP('',(#1352));
#1352 = ORIENTED_EDGE('',*,*,#1132,.T.);
#1353 = FACE_BOUND('',#1354,.T.);
#1354 = EDGE_LOOP('',(#1355));
#1355 = ORIENTED_EDGE('',*,*,#1197,.F.);
#1356 = PLANE('',#1357);
#1357 = AXIS2_PLACEMENT_3D('',#1358,#1359,#1360);
#1358 = CARTESIAN_POINT('',(44.,14.5,10.));
#1359 = DIRECTION('',(1.,0.,2.22044604925E-16));
#1360 = DIRECTION('',(-4.930380657631E-32,1.,2.22044604925E-16));
#1361 = ADVANCED_FACE('',(#1362,#1365),#1368,.F.);
#1362 = FACE_BOUND('',#1363,.T.);
#1363 = EDGE_LOOP('',(#1364));
#1364 = ORIENTED_EDGE('',*,*,#1157,.T.);
#1365 = FACE_BOUND('',#1366,.T.);
#1366 = EDGE_LOOP('',(#1367));
#1367 = ORIENTED_EDGE('',*,*,#1222,.F.);
#1368 = PLANE('',#1369);
#1369 = AXIS2_PLACEMENT_3D('',#1370,#1371,#1372);
#1370 = CARTESIAN_POINT('',(44.,-0.5,10.));
#1371 = DIRECTION('',(1.,0.,2.22044604925E-16));
#1372 = DIRECTION('',(-4.930380657631E-32,1.,2.22044604925E-16));
#1373 = ( GEOMETRIC_REPRESENTATION_CONTEXT(3) 
GLOBAL_UNCERTAINTY_ASSIGNED_CONTEXT((#1377)) 
GLOBAL_UNIT_ASSIGNED_CONTEXT((#1374,#1375,#1376)) REPRESENTATION_CONTEXT
('Context #1','3D Context with UNIT and UNCERTAINTY') );
#1374 = ( LENGTH_UNIT() NAMED_UNIT(*) SI_UNIT(.MILLI.,.METRE.) );
#1375 = ( NAMED_UNIT(*) PLANE_ANGLE_UNIT() SI_UNIT($,.RADIAN.) );
#1376 = ( NAMED_UNIT(*) SI_UNIT($,.STERADIAN.) SOLID_ANGLE_UNIT() );
#1377 = UNCERTAINTY_MEASURE_WITH_UNIT(LENGTH_MEASURE(5.E-05),#1374,
  'distance_accuracy_value','confusion accuracy');
#1378 = PRODUCT_RELATED_PRODUCT_CATEGORY('part',$,(#7));
#1379 = MECHANICAL_DESIGN_GEOMETRIC_PRESENTATION_REPRESENTATION('',(
    #1380),#1373);
#1380 = STYLED_ITEM('color',(#1381),#15);
#1381 = PRESENTATION_STYLE_ASSIGNMENT((#1382,#1388));
#1382 = SURFACE_STYLE_USAGE(.BOTH.,#1383);
#1383 = SURFACE_SIDE_STYLE('',(#1384));
#1384 = SURFACE_STYLE_FILL_AREA(#1385);
#1385 = FILL_AREA_STYLE('',(#1386));
#1386 = FILL_AREA_STYLE_COLOUR('',#1387);
#1387 = COLOUR_RGB('',0.447058818107,0.474509808674,0.501960817233);
#1388 = CURVE_STYLE('',#1389,POSITIVE_LENGTH_MEASURE(0.1),#1390);
#1389 = DRAUGHTING_PRE_DEFINED_CURVE_FONT('continuous');
#1390 = COLOUR_RGB('',9.803921802644E-02,9.803921802644E-02,
  9.803921802644E-02);
ENDSEC;
END-ISO-10303-21;
