ISO-10303-21;
HEADER;
FILE_DESCRIPTION(('FreeCAD Model'),'2;1');
FILE_NAME('Open CASCADE Shape Model','2026-01-13T15:40:30',(''),(''),
  'Open CASCADE STEP processor 7.9','FreeCAD','Unknown');
FILE_SCHEMA(('AUTOMOTIVE_DESIGN { 1 0 10303 214 1 1 1 1 }'));
ENDSEC;
DATA;
#1 = APPLICATION_PROTOCOL_DEFINITION('international standard',
  'automotive_design',2000,#2);
#2 = APPLICATION_CONTEXT(
  'core data for automotive mechanical design processes');
#3 = SHAPE_DEFINITION_REPRESENTATION(#4,#10);
#4 = PRODUCT_DEFINITION_SHAPE('','',#5);
#5 = PRODUCT_DEFINITION('design','',#6,#9);
#6 = PRODUCT_DEFINITION_FORMATION('','',#7);
#7 = PRODUCT('klicky_mount','klicky_mount','',(#8));
#8 = PRODUCT_CONTEXT('',#2,'mechanical');
#9 = PRODUCT_DEFINITION_CONTEXT('part definition',#2,'design');
#10 = ADVANCED_BREP_SHAPE_REPRESENTATION('',(#11,#15),#1300);
#11 = AXIS2_PLACEMENT_3D('',#12,#13,#14);
#12 = CARTESIAN_POINT('',(0.,0.,0.));
#13 = DIRECTION('',(0.,0.,1.));
#14 = DIRECTION('',(1.,0.,-0.));
#15 = MANIFOLD_SOLID_BREP('',#16);
#16 = CLOSED_SHELL('',(#17,#113,#163,#187,#211,#251,#342,#436,#460,#484,
    #594,#656,#696,#760,#772,#789,#812,#823,#840,#857,#874,#891,#908,
    #920,#937,#954,#966,#989,#1001,#1026,#1051,#1105,#1130,#1155,#1166,
    #1178,#1190,#1230,#1272,#1289));
#17 = ADVANCED_FACE('',(#18),#108,.T.);
#18 = FACE_BOUND('',#19,.T.);
#19 = EDGE_LOOP('',(#20,#30,#38,#46,#54,#62,#70,#78,#86,#94,#102));
#20 = ORIENTED_EDGE('',*,*,#21,.F.);
#21 = EDGE_CURVE('',#22,#24,#26,.T.);
#22 = VERTEX_POINT('',#23);
#23 = CARTESIAN_POINT('',(-6.,-81.,-3.));
#24 = VERTEX_POINT('',#25);
#25 = CARTESIAN_POINT('',(7.,-81.,-3.));
#26 = LINE('',#27,#28);
#27 = CARTESIAN_POINT('',(-7.,-81.,-3.));
#28 = VECTOR('',#29,1.);
#29 = DIRECTION('',(1.,0.,0.));
#30 = ORIENTED_EDGE('',*,*,#31,.T.);
#31 = EDGE_CURVE('',#22,#32,#34,.T.);
#32 = VERTEX_POINT('',#33);
#33 = CARTESIAN_POINT('',(-7.,-80.,-3.));
#34 = LINE('',#35,#36);
#35 = CARTESIAN_POINT('',(-14.39603080568,-72.60396919431,-3.));
#36 = VECTOR('',#37,1.);
#37 = DIRECTION('',(-0.707106781187,0.707106781187,5.107311613867E-16));
#38 = ORIENTED_EDGE('',*,*,#39,.F.);
#39 = EDGE_CURVE('',#40,#32,#42,.T.);
#40 = VERTEX_POINT('',#41);
#41 = CARTESIAN_POINT('',(-7.,-28.,-3.));
#42 = LINE('',#43,#44);
#43 = CARTESIAN_POINT('',(-7.,-28.,-3.));
#44 = VECTOR('',#45,1.);
#45 = DIRECTION('',(0.,-1.,2.22044604925E-16));
#46 = ORIENTED_EDGE('',*,*,#47,.F.);
#47 = EDGE_CURVE('',#48,#40,#50,.T.);
#48 = VERTEX_POINT('',#49);
#49 = CARTESIAN_POINT('',(-30.,-28.,-3.));
#50 = LINE('',#51,#52);
#51 = CARTESIAN_POINT('',(-30.,-28.,-3.));
#52 = VECTOR('',#53,1.);
#53 = DIRECTION('',(1.,0.,0.));
#54 = ORIENTED_EDGE('',*,*,#55,.F.);
#55 = EDGE_CURVE('',#56,#48,#58,.T.);
#56 = VERTEX_POINT('',#57);
#57 = CARTESIAN_POINT('',(-30.,-23.,-3.));
#58 = LINE('',#59,#60);
#59 = CARTESIAN_POINT('',(-30.,-23.,-3.));
#60 = VECTOR('',#61,1.);
#61 = DIRECTION('',(0.,-1.,2.22044604925E-16));
#62 = ORIENTED_EDGE('',*,*,#63,.T.);
#63 = EDGE_CURVE('',#56,#64,#66,.T.);
#64 = VERTEX_POINT('',#65);
#65 = CARTESIAN_POINT('',(7.,-23.,-3.));
#66 = LINE('',#67,#68);
#67 = CARTESIAN_POINT('',(-30.,-23.,-3.));
#68 = VECTOR('',#69,1.);
#69 = DIRECTION('',(1.,0.,0.));
#70 = ORIENTED_EDGE('',*,*,#71,.T.);
#71 = EDGE_CURVE('',#64,#72,#74,.T.);
#72 = VERTEX_POINT('',#73);
#73 = CARTESIAN_POINT('',(7.,-58.,-3.));
#74 = LINE('',#75,#76);
#75 = CARTESIAN_POINT('',(7.,-23.,-3.));
#76 = VECTOR('',#77,1.);
#77 = DIRECTION('',(0.,-1.,2.22044604925E-16));
#78 = ORIENTED_EDGE('',*,*,#79,.T.);
#79 = EDGE_CURVE('',#72,#80,#82,.T.);
#80 = VERTEX_POINT('',#81);
#81 = CARTESIAN_POINT('',(-3.5,-58.,-3.));
#82 = LINE('',#83,#84);
#83 = CARTESIAN_POINT('',(7.,-58.,-3.));
#84 = VECTOR('',#85,1.);
#85 = DIRECTION('',(-1.,0.,0.));
#86 = ORIENTED_EDGE('',*,*,#87,.T.);
#87 = EDGE_CURVE('',#80,#88,#90,.T.);
#88 = VERTEX_POINT('',#89);
#89 = CARTESIAN_POINT('',(-3.5,-79.,-3.));
#90 = LINE('',#91,#92);
#91 = CARTESIAN_POINT('',(-3.5,-58.,-3.));
#92 = VECTOR('',#93,1.);
#93 = DIRECTION('',(0.,-1.,2.22044604925E-16));
#94 = ORIENTED_EDGE('',*,*,#95,.T.);
#95 = EDGE_CURVE('',#88,#96,#98,.T.);
#96 = VERTEX_POINT('',#97);
#97 = CARTESIAN_POINT('',(7.,-79.,-3.));
#98 = LINE('',#99,#100);
#99 = CARTESIAN_POINT('',(-7.,-79.,-3.));
#100 = VECTOR('',#101,1.);
#101 = DIRECTION('',(1.,0.,0.));
#102 = ORIENTED_EDGE('',*,*,#103,.T.);
#103 = EDGE_CURVE('',#96,#24,#104,.T.);
#104 = LINE('',#105,#106);
#105 = CARTESIAN_POINT('',(7.,-79.,-3.));
#106 = VECTOR('',#107,1.);
#107 = DIRECTION('',(0.,-1.,-1.387778780781E-15));
#108 = PLANE('',#109);
#109 = AXIS2_PLACEMENT_3D('',#110,#111,#112);
#110 = CARTESIAN_POINT('',(-5.449052132701,-47.86492890995,-3.));
#111 = DIRECTION('',(0.,7.222829351596E-16,-1.));
#112 = DIRECTION('',(0.,-1.,-7.222829351596E-16));
#113 = ADVANCED_FACE('',(#114,#147),#158,.F.);
#114 = FACE_BOUND('',#115,.F.);
#115 = EDGE_LOOP('',(#116,#117,#125,#133,#141));
#116 = ORIENTED_EDGE('',*,*,#21,.F.);
#117 = ORIENTED_EDGE('',*,*,#118,.F.);
#118 = EDGE_CURVE('',#119,#22,#121,.T.);
#119 = VERTEX_POINT('',#120);
#120 = CARTESIAN_POINT('',(-6.,-81.,7.));
#121 = LINE('',#122,#123);
#122 = CARTESIAN_POINT('',(-6.,-81.,7.));
#123 = VECTOR('',#124,1.);
#124 = DIRECTION('',(0.,1.33226762955E-15,-1.));
#125 = ORIENTED_EDGE('',*,*,#126,.F.);
#126 = EDGE_CURVE('',#127,#119,#129,.T.);
#127 = VERTEX_POINT('',#128);
#128 = CARTESIAN_POINT('',(5.,-81.,7.));
#129 = LINE('',#130,#131);
#130 = CARTESIAN_POINT('',(7.,-81.,7.));
#131 = VECTOR('',#132,1.);
#132 = DIRECTION('',(-1.,-0.,0.));
#133 = ORIENTED_EDGE('',*,*,#134,.F.);
#134 = EDGE_CURVE('',#135,#127,#137,.T.);
#135 = VERTEX_POINT('',#136);
#136 = CARTESIAN_POINT('',(7.,-81.,5.));
#137 = LINE('',#138,#139);
#138 = CARTESIAN_POINT('',(5.5,-81.,6.5));
#139 = VECTOR('',#140,1.);
#140 = DIRECTION('',(-0.707106781187,-1.004859173558E-15,0.707106781187)
  );
#141 = ORIENTED_EDGE('',*,*,#142,.F.);
#142 = EDGE_CURVE('',#24,#135,#143,.T.);
#143 = LINE('',#144,#145);
#144 = CARTESIAN_POINT('',(7.,-81.,-3.));
#145 = VECTOR('',#146,1.);
#146 = DIRECTION('',(0.,-1.33226762955E-15,1.));
#147 = FACE_BOUND('',#148,.F.);
#148 = EDGE_LOOP('',(#149));
#149 = ORIENTED_EDGE('',*,*,#150,.T.);
#150 = EDGE_CURVE('',#151,#151,#153,.T.);
#151 = VERTEX_POINT('',#152);
#152 = CARTESIAN_POINT('',(1.5,-81.,3.5));
#153 = CIRCLE('',#154,1.5);
#154 = AXIS2_PLACEMENT_3D('',#155,#156,#157);
#155 = CARTESIAN_POINT('',(0.,-81.,3.5));
#156 = DIRECTION('',(0.,-1.,-1.33226762955E-15));
#157 = DIRECTION('',(1.,0.,0.));
#158 = PLANE('',#159);
#159 = AXIS2_PLACEMENT_3D('',#160,#161,#162);
#160 = CARTESIAN_POINT('',(5.684341886081E-14,-81.,2.));
#161 = DIRECTION('',(0.,1.,1.42108547152E-15));
#162 = DIRECTION('',(0.,-1.42108547152E-15,1.));
#163 = ADVANCED_FACE('',(#164),#182,.F.);
#164 = FACE_BOUND('',#165,.F.);
#165 = EDGE_LOOP('',(#166,#174,#175,#176));
#166 = ORIENTED_EDGE('',*,*,#167,.F.);
#167 = EDGE_CURVE('',#119,#168,#170,.T.);
#168 = VERTEX_POINT('',#169);
#169 = CARTESIAN_POINT('',(-7.,-80.,7.));
#170 = LINE('',#171,#172);
#171 = CARTESIAN_POINT('',(-10.81662399106,-76.18337600893,7.));
#172 = VECTOR('',#173,1.);
#173 = DIRECTION('',(-0.707106781187,0.707106781187,2.345365297152E-15)
  );
#174 = ORIENTED_EDGE('',*,*,#118,.T.);
#175 = ORIENTED_EDGE('',*,*,#31,.T.);
#176 = ORIENTED_EDGE('',*,*,#177,.F.);
#177 = EDGE_CURVE('',#168,#32,#178,.T.);
#178 = LINE('',#179,#180);
#179 = CARTESIAN_POINT('',(-7.,-80.,7.));
#180 = VECTOR('',#181,1.);
#181 = DIRECTION('',(0.,1.33226762955E-15,-1.));
#182 = PLANE('',#183);
#183 = AXIS2_PLACEMENT_3D('',#184,#185,#186);
#184 = CARTESIAN_POINT('',(-6.5,-80.5,7.));
#185 = DIRECTION('',(0.707106781187,0.707106781187,4.344922381455E-16));
#186 = DIRECTION('',(-3.589014068095E-16,9.733662227407E-16,-1.));
#187 = ADVANCED_FACE('',(#188),#206,.F.);
#188 = FACE_BOUND('',#189,.F.);
#189 = EDGE_LOOP('',(#190,#198,#199,#200));
#190 = ORIENTED_EDGE('',*,*,#191,.F.);
#191 = EDGE_CURVE('',#96,#192,#194,.T.);
#192 = VERTEX_POINT('',#193);
#193 = CARTESIAN_POINT('',(7.,-79.,5.));
#194 = LINE('',#195,#196);
#195 = CARTESIAN_POINT('',(7.,-79.,-3.));
#196 = VECTOR('',#197,1.);
#197 = DIRECTION('',(0.,-1.33226762955E-15,1.));
#198 = ORIENTED_EDGE('',*,*,#103,.T.);
#199 = ORIENTED_EDGE('',*,*,#142,.T.);
#200 = ORIENTED_EDGE('',*,*,#201,.F.);
#201 = EDGE_CURVE('',#192,#135,#202,.T.);
#202 = LINE('',#203,#204);
#203 = CARTESIAN_POINT('',(7.,-79.,5.));
#204 = VECTOR('',#205,1.);
#205 = DIRECTION('',(0.,-1.,-1.387778780781E-15));
#206 = PLANE('',#207);
#207 = AXIS2_PLACEMENT_3D('',#208,#209,#210);
#208 = CARTESIAN_POINT('',(7.,-79.,-3.));
#209 = DIRECTION('',(-1.,0.,0.));
#210 = DIRECTION('',(0.,-1.33226762955E-15,1.));
#211 = ADVANCED_FACE('',(#212),#246,.T.);
#212 = FACE_BOUND('',#213,.T.);
#213 = EDGE_LOOP('',(#214,#215,#216,#224,#232,#240));
#214 = ORIENTED_EDGE('',*,*,#39,.T.);
#215 = ORIENTED_EDGE('',*,*,#177,.F.);
#216 = ORIENTED_EDGE('',*,*,#217,.F.);
#217 = EDGE_CURVE('',#218,#168,#220,.T.);
#218 = VERTEX_POINT('',#219);
#219 = CARTESIAN_POINT('',(-7.,-52.5,7.));
#220 = LINE('',#221,#222);
#221 = CARTESIAN_POINT('',(-7.,-1.2E-16,7.));
#222 = VECTOR('',#223,1.);
#223 = DIRECTION('',(1.2E-16,-1.,0.));
#224 = ORIENTED_EDGE('',*,*,#225,.T.);
#225 = EDGE_CURVE('',#218,#226,#228,.T.);
#226 = VERTEX_POINT('',#227);
#227 = CARTESIAN_POINT('',(-7.,-51.,4.87867965644));
#228 = LINE('',#229,#230);
#229 = CARTESIAN_POINT('',(-7.,-35.,-17.74873734152));
#230 = VECTOR('',#231,1.);
#231 = DIRECTION('',(-7.E-17,0.57735026919,-0.816496580928));
#232 = ORIENTED_EDGE('',*,*,#233,.F.);
#233 = EDGE_CURVE('',#234,#226,#236,.T.);
#234 = VERTEX_POINT('',#235);
#235 = CARTESIAN_POINT('',(-7.,-28.,4.87867965644));
#236 = LINE('',#237,#238);
#237 = CARTESIAN_POINT('',(-7.,-6.55,4.87867965644));
#238 = VECTOR('',#239,1.);
#239 = DIRECTION('',(-0.,-1.,-0.));
#240 = ORIENTED_EDGE('',*,*,#241,.F.);
#241 = EDGE_CURVE('',#40,#234,#242,.T.);
#242 = LINE('',#243,#244);
#243 = CARTESIAN_POINT('',(-7.,-28.,-3.));
#244 = VECTOR('',#245,1.);
#245 = DIRECTION('',(0.,2.22044604925E-16,1.));
#246 = PLANE('',#247);
#247 = AXIS2_PLACEMENT_3D('',#248,#249,#250);
#248 = CARTESIAN_POINT('',(-7.,-54.9256413855,1.564620923741));
#249 = DIRECTION('',(-1.,-2.915349374928E-16,7.980283497638E-16));
#250 = DIRECTION('',(-7.980283497638E-16,0.,-1.));
#251 = ADVANCED_FACE('',(#252,#326),#337,.T.);
#252 = FACE_BOUND('',#253,.T.);
#253 = EDGE_LOOP('',(#254,#255,#256,#264,#272,#280,#288,#296,#304,#312,
    #320));
#254 = ORIENTED_EDGE('',*,*,#191,.F.);
#255 = ORIENTED_EDGE('',*,*,#95,.F.);
#256 = ORIENTED_EDGE('',*,*,#257,.T.);
#257 = EDGE_CURVE('',#88,#258,#260,.T.);
#258 = VERTEX_POINT('',#259);
#259 = CARTESIAN_POINT('',(-3.5,-79.,-2.));
#260 = LINE('',#261,#262);
#261 = CARTESIAN_POINT('',(-3.5,-79.,-3.));
#262 = VECTOR('',#263,1.);
#263 = DIRECTION('',(0.,2.22044604925E-16,1.));
#264 = ORIENTED_EDGE('',*,*,#265,.T.);
#265 = EDGE_CURVE('',#258,#266,#268,.T.);
#266 = VERTEX_POINT('',#267);
#267 = CARTESIAN_POINT('',(-4.5,-79.,-2.));
#268 = LINE('',#269,#270);
#269 = CARTESIAN_POINT('',(-3.5,-79.,-2.));
#270 = VECTOR('',#271,1.);
#271 = DIRECTION('',(-1.,0.,0.));
#272 = ORIENTED_EDGE('',*,*,#273,.T.);
#273 = EDGE_CURVE('',#266,#274,#276,.T.);
#274 = VERTEX_POINT('',#275);
#275 = CARTESIAN_POINT('',(-4.5,-79.,0.5));
#276 = LINE('',#277,#278);
#277 = CARTESIAN_POINT('',(-4.5,-79.,-2.));
#278 = VECTOR('',#279,1.);
#279 = DIRECTION('',(0.,2.22044604925E-16,1.));
#280 = ORIENTED_EDGE('',*,*,#281,.F.);
#281 = EDGE_CURVE('',#282,#274,#284,.T.);
#282 = VERTEX_POINT('',#283);
#283 = CARTESIAN_POINT('',(-6.5,-79.,2.5));
#284 = LINE('',#285,#286);
#285 = CARTESIAN_POINT('',(-6.5,-79.,2.5));
#286 = VECTOR('',#287,1.);
#287 = DIRECTION('',(0.707106781187,-1.570092458684E-16,-0.707106781187)
  );
#288 = ORIENTED_EDGE('',*,*,#289,.F.);
#289 = EDGE_CURVE('',#290,#282,#292,.T.);
#290 = VERTEX_POINT('',#291);
#291 = CARTESIAN_POINT('',(-6.5,-79.,4.5));
#292 = LINE('',#293,#294);
#293 = CARTESIAN_POINT('',(-6.5,-79.,4.5));
#294 = VECTOR('',#295,1.);
#295 = DIRECTION('',(0.,-2.22044604925E-16,-1.));
#296 = ORIENTED_EDGE('',*,*,#297,.F.);
#297 = EDGE_CURVE('',#298,#290,#300,.T.);
#298 = VERTEX_POINT('',#299);
#299 = CARTESIAN_POINT('',(-4.5,-79.,6.5));
#300 = LINE('',#301,#302);
#301 = CARTESIAN_POINT('',(-4.5,-79.,6.5));
#302 = VECTOR('',#303,1.);
#303 = DIRECTION('',(-0.707106781187,-1.570092458684E-16,-0.707106781187
    ));
#304 = ORIENTED_EDGE('',*,*,#305,.F.);
#305 = EDGE_CURVE('',#306,#298,#308,.T.);
#306 = VERTEX_POINT('',#307);
#307 = CARTESIAN_POINT('',(-4.5,-79.,7.));
#308 = LINE('',#309,#310);
#309 = CARTESIAN_POINT('',(-4.5,-79.,7.));
#310 = VECTOR('',#311,1.);
#311 = DIRECTION('',(0.,-2.22044604925E-16,-1.));
#312 = ORIENTED_EDGE('',*,*,#313,.F.);
#313 = EDGE_CURVE('',#314,#306,#316,.T.);
#314 = VERTEX_POINT('',#315);
#315 = CARTESIAN_POINT('',(5.,-79.,7.));
#316 = LINE('',#317,#318);
#317 = CARTESIAN_POINT('',(7.,-79.,7.));
#318 = VECTOR('',#319,1.);
#319 = DIRECTION('',(-1.,-0.,0.));
#320 = ORIENTED_EDGE('',*,*,#321,.F.);
#321 = EDGE_CURVE('',#192,#314,#322,.T.);
#322 = LINE('',#323,#324);
#323 = CARTESIAN_POINT('',(5.5,-79.,6.5));
#324 = VECTOR('',#325,1.);
#325 = DIRECTION('',(-0.707106781187,-1.004859173558E-15,0.707106781187)
  );
#326 = FACE_BOUND('',#327,.T.);
#327 = EDGE_LOOP('',(#328));
#328 = ORIENTED_EDGE('',*,*,#329,.T.);
#329 = EDGE_CURVE('',#330,#330,#332,.T.);
#330 = VERTEX_POINT('',#331);
#331 = CARTESIAN_POINT('',(1.5,-79.,3.5));
#332 = CIRCLE('',#333,1.5);
#333 = AXIS2_PLACEMENT_3D('',#334,#335,#336);
#334 = CARTESIAN_POINT('',(0.,-79.,3.5));
#335 = DIRECTION('',(0.,-1.,-1.33226762955E-15));
#336 = DIRECTION('',(1.,0.,0.));
#337 = PLANE('',#338);
#338 = AXIS2_PLACEMENT_3D('',#339,#340,#341);
#339 = CARTESIAN_POINT('',(5.684341886081E-14,-79.,2.));
#340 = DIRECTION('',(0.,1.,1.42108547152E-15));
#341 = DIRECTION('',(0.,-1.42108547152E-15,1.));
#342 = ADVANCED_FACE('',(#343,#409,#420),#431,.T.);
#343 = FACE_BOUND('',#344,.T.);
#344 = EDGE_LOOP('',(#345,#355,#361,#362,#363,#371,#379,#387,#395,#403)
  );
#345 = ORIENTED_EDGE('',*,*,#346,.F.);
#346 = EDGE_CURVE('',#347,#349,#351,.T.);
#347 = VERTEX_POINT('',#348);
#348 = CARTESIAN_POINT('',(-30.,-28.,15.));
#349 = VERTEX_POINT('',#350);
#350 = CARTESIAN_POINT('',(-28.,-28.,17.));
#351 = LINE('',#352,#353);
#352 = CARTESIAN_POINT('',(-26.5,-28.,18.5));
#353 = VECTOR('',#354,1.);
#354 = DIRECTION('',(0.707106781187,0.,0.707106781187));
#355 = ORIENTED_EDGE('',*,*,#356,.T.);
#356 = EDGE_CURVE('',#347,#48,#357,.T.);
#357 = LINE('',#358,#359);
#358 = CARTESIAN_POINT('',(-30.,-28.,17.));
#359 = VECTOR('',#360,1.);
#360 = DIRECTION('',(0.,0.,-1.));
#361 = ORIENTED_EDGE('',*,*,#47,.T.);
#362 = ORIENTED_EDGE('',*,*,#241,.T.);
#363 = ORIENTED_EDGE('',*,*,#364,.T.);
#364 = EDGE_CURVE('',#234,#365,#367,.T.);
#365 = VERTEX_POINT('',#366);
#366 = CARTESIAN_POINT('',(-2.87867965644,-28.,9.));
#367 = LINE('',#368,#369);
#368 = CARTESIAN_POINT('',(-6.15900974233,-28.,5.71966991411));
#369 = VECTOR('',#370,1.);
#370 = DIRECTION('',(0.707106781187,0.,0.707106781187));
#371 = ORIENTED_EDGE('',*,*,#372,.T.);
#372 = EDGE_CURVE('',#365,#373,#375,.T.);
#373 = VERTEX_POINT('',#374);
#374 = CARTESIAN_POINT('',(2.87867965644,-28.,9.));
#375 = LINE('',#376,#377);
#376 = CARTESIAN_POINT('',(-4.87867965644,-28.,9.));
#377 = VECTOR('',#378,1.);
#378 = DIRECTION('',(1.,0.,0.));
#379 = ORIENTED_EDGE('',*,*,#380,.T.);
#380 = EDGE_CURVE('',#373,#381,#383,.T.);
#381 = VERTEX_POINT('',#382);
#382 = CARTESIAN_POINT('',(7.,-28.,4.87867965644));
#383 = LINE('',#384,#385);
#384 = CARTESIAN_POINT('',(1.46966991411,-28.,10.40900974233));
#385 = VECTOR('',#386,1.);
#386 = DIRECTION('',(0.707106781187,0.,-0.707106781187));
#387 = ORIENTED_EDGE('',*,*,#388,.T.);
#388 = EDGE_CURVE('',#381,#389,#391,.T.);
#389 = VERTEX_POINT('',#390);
#390 = CARTESIAN_POINT('',(7.,-28.,15.));
#391 = LINE('',#392,#393);
#392 = CARTESIAN_POINT('',(7.,-28.,6.E-15));
#393 = VECTOR('',#394,1.);
#394 = DIRECTION('',(0.,0.,1.));
#395 = ORIENTED_EDGE('',*,*,#396,.T.);
#396 = EDGE_CURVE('',#389,#397,#399,.T.);
#397 = VERTEX_POINT('',#398);
#398 = CARTESIAN_POINT('',(5.,-28.,17.));
#399 = LINE('',#400,#401);
#400 = CARTESIAN_POINT('',(3.5,-28.,18.5));
#401 = VECTOR('',#402,1.);
#402 = DIRECTION('',(-0.707106781187,0.,0.707106781187));
#403 = ORIENTED_EDGE('',*,*,#404,.T.);
#404 = EDGE_CURVE('',#397,#349,#405,.T.);
#405 = LINE('',#406,#407);
#406 = CARTESIAN_POINT('',(7.,-28.,17.));
#407 = VECTOR('',#408,1.);
#408 = DIRECTION('',(-1.,0.,0.));
#409 = FACE_BOUND('',#410,.T.);
#410 = EDGE_LOOP('',(#411));
#411 = ORIENTED_EDGE('',*,*,#412,.F.);
#412 = EDGE_CURVE('',#413,#413,#415,.T.);
#413 = VERTEX_POINT('',#414);
#414 = CARTESIAN_POINT('',(-28.05,-28.,7.));
#415 = CIRCLE('',#416,3.05);
#416 = AXIS2_PLACEMENT_3D('',#417,#418,#419);
#417 = CARTESIAN_POINT('',(-25.,-28.,7.));
#418 = DIRECTION('',(0.,-1.,2.2E-16));
#419 = DIRECTION('',(-1.,0.,0.));
#420 = FACE_BOUND('',#421,.T.);
#421 = EDGE_LOOP('',(#422));
#422 = ORIENTED_EDGE('',*,*,#423,.F.);
#423 = EDGE_CURVE('',#424,#424,#426,.T.);
#424 = VERTEX_POINT('',#425);
#425 = CARTESIAN_POINT('',(-13.05,-28.,7.));
#426 = CIRCLE('',#427,3.05);
#427 = AXIS2_PLACEMENT_3D('',#428,#429,#430);
#428 = CARTESIAN_POINT('',(-10.,-28.,7.));
#429 = DIRECTION('',(0.,-1.,2.2E-16));
#430 = DIRECTION('',(-1.,0.,0.));
#431 = PLANE('',#432);
#432 = AXIS2_PLACEMENT_3D('',#433,#434,#435);
#433 = CARTESIAN_POINT('',(-9.067332077834,-28.,6.144077096758));
#434 = DIRECTION('',(-0.,-1.,-0.));
#435 = DIRECTION('',(0.,0.,-1.));
#436 = ADVANCED_FACE('',(#437),#455,.F.);
#437 = FACE_BOUND('',#438,.F.);
#438 = EDGE_LOOP('',(#439,#440,#441,#449));
#439 = ORIENTED_EDGE('',*,*,#87,.T.);
#440 = ORIENTED_EDGE('',*,*,#257,.T.);
#441 = ORIENTED_EDGE('',*,*,#442,.F.);
#442 = EDGE_CURVE('',#443,#258,#445,.T.);
#443 = VERTEX_POINT('',#444);
#444 = CARTESIAN_POINT('',(-3.5,-58.,-2.));
#445 = LINE('',#446,#447);
#446 = CARTESIAN_POINT('',(-3.5,-58.,-2.));
#447 = VECTOR('',#448,1.);
#448 = DIRECTION('',(0.,-1.,2.22044604925E-16));
#449 = ORIENTED_EDGE('',*,*,#450,.F.);
#450 = EDGE_CURVE('',#80,#443,#451,.T.);
#451 = LINE('',#452,#453);
#452 = CARTESIAN_POINT('',(-3.5,-58.,-3.));
#453 = VECTOR('',#454,1.);
#454 = DIRECTION('',(0.,2.22044604925E-16,1.));
#455 = PLANE('',#456);
#456 = AXIS2_PLACEMENT_3D('',#457,#458,#459);
#457 = CARTESIAN_POINT('',(-3.5,-58.,-3.));
#458 = DIRECTION('',(-1.,0.,0.));
#459 = DIRECTION('',(0.,2.22044604925E-16,1.));
#460 = ADVANCED_FACE('',(#461),#479,.T.);
#461 = FACE_BOUND('',#462,.T.);
#462 = EDGE_LOOP('',(#463,#471,#472,#473));
#463 = ORIENTED_EDGE('',*,*,#464,.T.);
#464 = EDGE_CURVE('',#465,#56,#467,.T.);
#465 = VERTEX_POINT('',#466);
#466 = CARTESIAN_POINT('',(-30.,-23.,15.));
#467 = LINE('',#468,#469);
#468 = CARTESIAN_POINT('',(-30.,-23.,17.));
#469 = VECTOR('',#470,1.);
#470 = DIRECTION('',(0.,0.,-1.));
#471 = ORIENTED_EDGE('',*,*,#55,.T.);
#472 = ORIENTED_EDGE('',*,*,#356,.F.);
#473 = ORIENTED_EDGE('',*,*,#474,.F.);
#474 = EDGE_CURVE('',#465,#347,#475,.T.);
#475 = LINE('',#476,#477);
#476 = CARTESIAN_POINT('',(-30.,-23.,15.));
#477 = VECTOR('',#478,1.);
#478 = DIRECTION('',(0.,-1.,2.2E-16));
#479 = PLANE('',#480);
#480 = AXIS2_PLACEMENT_3D('',#481,#482,#483);
#481 = CARTESIAN_POINT('',(-30.,-25.5,6.));
#482 = DIRECTION('',(-1.,-0.,-0.));
#483 = DIRECTION('',(0.,0.,-1.));
#484 = ADVANCED_FACE('',(#485,#551),#589,.T.);
#485 = FACE_BOUND('',#486,.T.);
#486 = EDGE_LOOP('',(#487,#497,#505,#513,#521,#529,#537,#543,#544,#545)
  );
#487 = ORIENTED_EDGE('',*,*,#488,.F.);
#488 = EDGE_CURVE('',#489,#491,#493,.T.);
#489 = VERTEX_POINT('',#490);
#490 = CARTESIAN_POINT('',(-4.5,-58.,7.));
#491 = VERTEX_POINT('',#492);
#492 = CARTESIAN_POINT('',(7.,-58.,7.));
#493 = LINE('',#494,#495);
#494 = CARTESIAN_POINT('',(0.,-58.,7.));
#495 = VECTOR('',#496,1.);
#496 = DIRECTION('',(1.,0.,0.));
#497 = ORIENTED_EDGE('',*,*,#498,.T.);
#498 = EDGE_CURVE('',#489,#499,#501,.T.);
#499 = VERTEX_POINT('',#500);
#500 = CARTESIAN_POINT('',(-4.5,-58.,6.5));
#501 = LINE('',#502,#503);
#502 = CARTESIAN_POINT('',(-4.5,-58.,10.));
#503 = VECTOR('',#504,1.);
#504 = DIRECTION('',(-0.,-0.,-1.));
#505 = ORIENTED_EDGE('',*,*,#506,.T.);
#506 = EDGE_CURVE('',#499,#507,#509,.T.);
#507 = VERTEX_POINT('',#508);
#508 = CARTESIAN_POINT('',(-6.5,-58.,4.5));
#509 = LINE('',#510,#511);
#510 = CARTESIAN_POINT('',(-4.5,-58.,6.5));
#511 = VECTOR('',#512,1.);
#512 = DIRECTION('',(-0.707106781187,0.,-0.707106781187));
#513 = ORIENTED_EDGE('',*,*,#514,.T.);
#514 = EDGE_CURVE('',#507,#515,#517,.T.);
#515 = VERTEX_POINT('',#516);
#516 = CARTESIAN_POINT('',(-6.5,-58.,2.5));
#517 = LINE('',#518,#519);
#518 = CARTESIAN_POINT('',(-6.5,-58.,2.5));
#519 = VECTOR('',#520,1.);
#520 = DIRECTION('',(-1.3E-15,0.,-1.));
#521 = ORIENTED_EDGE('',*,*,#522,.T.);
#522 = EDGE_CURVE('',#515,#523,#525,.T.);
#523 = VERTEX_POINT('',#524);
#524 = CARTESIAN_POINT('',(-4.5,-58.,0.5));
#525 = LINE('',#526,#527);
#526 = CARTESIAN_POINT('',(-4.5,-58.,0.5));
#527 = VECTOR('',#528,1.);
#528 = DIRECTION('',(0.707106781187,0.,-0.707106781187));
#529 = ORIENTED_EDGE('',*,*,#530,.T.);
#530 = EDGE_CURVE('',#523,#531,#533,.T.);
#531 = VERTEX_POINT('',#532);
#532 = CARTESIAN_POINT('',(-4.5,-58.,-2.));
#533 = LINE('',#534,#535);
#534 = CARTESIAN_POINT('',(-4.5,-58.,10.));
#535 = VECTOR('',#536,1.);
#536 = DIRECTION('',(-0.,-0.,-1.));
#537 = ORIENTED_EDGE('',*,*,#538,.F.);
#538 = EDGE_CURVE('',#443,#531,#539,.T.);
#539 = LINE('',#540,#541);
#540 = CARTESIAN_POINT('',(-3.5,-58.,-2.));
#541 = VECTOR('',#542,1.);
#542 = DIRECTION('',(-1.,0.,0.));
#543 = ORIENTED_EDGE('',*,*,#450,.F.);
#544 = ORIENTED_EDGE('',*,*,#79,.F.);
#545 = ORIENTED_EDGE('',*,*,#546,.F.);
#546 = EDGE_CURVE('',#491,#72,#547,.T.);
#547 = LINE('',#548,#549);
#548 = CARTESIAN_POINT('',(7.,-58.,7.));
#549 = VECTOR('',#550,1.);
#550 = DIRECTION('',(-0.,-0.,-1.));
#551 = FACE_BOUND('',#552,.T.);
#552 = EDGE_LOOP('',(#553,#564,#573,#582));
#553 = ORIENTED_EDGE('',*,*,#554,.F.);
#554 = EDGE_CURVE('',#555,#557,#559,.T.);
#555 = VERTEX_POINT('',#556);
#556 = CARTESIAN_POINT('',(2.551321697653,-58.,2.12132034356));
#557 = VERTEX_POINT('',#558);
#558 = CARTESIAN_POINT('',(2.9,-58.,3.5));
#559 = CIRCLE('',#560,2.9);
#560 = AXIS2_PLACEMENT_3D('',#561,#562,#563);
#561 = CARTESIAN_POINT('',(0.,-58.,3.5));
#562 = DIRECTION('',(0.,-1.,0.));
#563 = DIRECTION('',(0.,0.,-1.));
#564 = ORIENTED_EDGE('',*,*,#565,.F.);
#565 = EDGE_CURVE('',#566,#555,#568,.T.);
#566 = VERTEX_POINT('',#567);
#567 = CARTESIAN_POINT('',(-2.551321697653,-58.,2.12132034356));
#568 = CIRCLE('',#569,2.9);
#569 = AXIS2_PLACEMENT_3D('',#570,#571,#572);
#570 = CARTESIAN_POINT('',(0.,-58.,3.5));
#571 = DIRECTION('',(0.,-1.,2.22044604925E-16));
#572 = DIRECTION('',(1.,0.,0.));
#573 = ORIENTED_EDGE('',*,*,#574,.F.);
#574 = EDGE_CURVE('',#575,#566,#577,.T.);
#575 = VERTEX_POINT('',#576);
#576 = CARTESIAN_POINT('',(0.,-58.,6.4));
#577 = CIRCLE('',#578,2.9);
#578 = AXIS2_PLACEMENT_3D('',#579,#580,#581);
#579 = CARTESIAN_POINT('',(0.,-58.,3.5));
#580 = DIRECTION('',(0.,-1.,0.));
#581 = DIRECTION('',(0.,0.,-1.));
#582 = ORIENTED_EDGE('',*,*,#583,.F.);
#583 = EDGE_CURVE('',#557,#575,#584,.T.);
#584 = CIRCLE('',#585,2.9);
#585 = AXIS2_PLACEMENT_3D('',#586,#587,#588);
#586 = CARTESIAN_POINT('',(0.,-58.,3.5));
#587 = DIRECTION('',(0.,-1.,0.));
#588 = DIRECTION('',(0.,0.,-1.));
#589 = PLANE('',#590);
#590 = AXIS2_PLACEMENT_3D('',#591,#592,#593);
#591 = CARTESIAN_POINT('',(7.799560275127E-03,-58.,1.697630491245));
#592 = DIRECTION('',(-0.,-1.,-8.253545699323E-16));
#593 = DIRECTION('',(0.,8.253545699323E-16,-1.));
#594 = ADVANCED_FACE('',(#595,#629,#640),#651,.T.);
#595 = FACE_BOUND('',#596,.T.);
#596 = EDGE_LOOP('',(#597,#605,#606,#607,#615,#623));
#597 = ORIENTED_EDGE('',*,*,#598,.F.);
#598 = EDGE_CURVE('',#64,#599,#601,.T.);
#599 = VERTEX_POINT('',#600);
#600 = CARTESIAN_POINT('',(7.,-23.,15.));
#601 = LINE('',#602,#603);
#602 = CARTESIAN_POINT('',(7.,-23.,-3.));
#603 = VECTOR('',#604,1.);
#604 = DIRECTION('',(0.,2.22044604925E-16,1.));
#605 = ORIENTED_EDGE('',*,*,#63,.F.);
#606 = ORIENTED_EDGE('',*,*,#464,.F.);
#607 = ORIENTED_EDGE('',*,*,#608,.T.);
#608 = EDGE_CURVE('',#465,#609,#611,.T.);
#609 = VERTEX_POINT('',#610);
#610 = CARTESIAN_POINT('',(-28.,-23.,17.));
#611 = LINE('',#612,#613);
#612 = CARTESIAN_POINT('',(-26.5,-23.,18.5));
#613 = VECTOR('',#614,1.);
#614 = DIRECTION('',(0.707106781187,0.,0.707106781187));
#615 = ORIENTED_EDGE('',*,*,#616,.F.);
#616 = EDGE_CURVE('',#617,#609,#619,.T.);
#617 = VERTEX_POINT('',#618);
#618 = CARTESIAN_POINT('',(5.,-23.,17.));
#619 = LINE('',#620,#621);
#620 = CARTESIAN_POINT('',(7.,-23.,17.));
#621 = VECTOR('',#622,1.);
#622 = DIRECTION('',(-1.,0.,0.));
#623 = ORIENTED_EDGE('',*,*,#624,.F.);
#624 = EDGE_CURVE('',#599,#617,#625,.T.);
#625 = LINE('',#626,#627);
#626 = CARTESIAN_POINT('',(3.5,-23.,18.5));
#627 = VECTOR('',#628,1.);
#628 = DIRECTION('',(-0.707106781187,0.,0.707106781187));
#629 = FACE_BOUND('',#630,.T.);
#630 = EDGE_LOOP('',(#631));
#631 = ORIENTED_EDGE('',*,*,#632,.F.);
#632 = EDGE_CURVE('',#633,#633,#635,.T.);
#633 = VERTEX_POINT('',#634);
#634 = CARTESIAN_POINT('',(-26.6,-23.,7.));
#635 = CIRCLE('',#636,1.6);
#636 = AXIS2_PLACEMENT_3D('',#637,#638,#639);
#637 = CARTESIAN_POINT('',(-25.,-23.,7.));
#638 = DIRECTION('',(0.,1.,-2.2E-16));
#639 = DIRECTION('',(-1.,0.,0.));
#640 = FACE_BOUND('',#641,.T.);
#641 = EDGE_LOOP('',(#642));
#642 = ORIENTED_EDGE('',*,*,#643,.F.);
#643 = EDGE_CURVE('',#644,#644,#646,.T.);
#644 = VERTEX_POINT('',#645);
#645 = CARTESIAN_POINT('',(-11.6,-23.,7.));
#646 = CIRCLE('',#647,1.6);
#647 = AXIS2_PLACEMENT_3D('',#648,#649,#650);
#648 = CARTESIAN_POINT('',(-10.,-23.,7.));
#649 = DIRECTION('',(0.,1.,-2.2E-16));
#650 = DIRECTION('',(-1.,0.,0.));
#651 = PLANE('',#652);
#652 = AXIS2_PLACEMENT_3D('',#653,#654,#655);
#653 = CARTESIAN_POINT('',(-11.5,-23.,6.775308807299));
#654 = DIRECTION('',(0.,1.,0.));
#655 = DIRECTION('',(0.,0.,1.));
#656 = ADVANCED_FACE('',(#657),#691,.T.);
#657 = FACE_BOUND('',#658,.T.);
#658 = EDGE_LOOP('',(#659,#660,#666,#667,#675,#683,#689,#690));
#659 = ORIENTED_EDGE('',*,*,#598,.T.);
#660 = ORIENTED_EDGE('',*,*,#661,.T.);
#661 = EDGE_CURVE('',#599,#389,#662,.T.);
#662 = LINE('',#663,#664);
#663 = CARTESIAN_POINT('',(7.,-23.,15.));
#664 = VECTOR('',#665,1.);
#665 = DIRECTION('',(0.,-1.,2.2E-16));
#666 = ORIENTED_EDGE('',*,*,#388,.F.);
#667 = ORIENTED_EDGE('',*,*,#668,.T.);
#668 = EDGE_CURVE('',#381,#669,#671,.T.);
#669 = VERTEX_POINT('',#670);
#670 = CARTESIAN_POINT('',(7.,-51.,4.87867965644));
#671 = LINE('',#672,#673);
#672 = CARTESIAN_POINT('',(7.,-6.55,4.87867965644));
#673 = VECTOR('',#674,1.);
#674 = DIRECTION('',(-0.,-1.,-0.));
#675 = ORIENTED_EDGE('',*,*,#676,.T.);
#676 = EDGE_CURVE('',#669,#677,#679,.T.);
#677 = VERTEX_POINT('',#678);
#678 = CARTESIAN_POINT('',(7.,-52.5,7.));
#679 = LINE('',#680,#681);
#680 = CARTESIAN_POINT('',(7.,-61.,19.020815280171));
#681 = VECTOR('',#682,1.);
#682 = DIRECTION('',(0.,-0.57735026919,0.816496580928));
#683 = ORIENTED_EDGE('',*,*,#684,.F.);
#684 = EDGE_CURVE('',#491,#677,#685,.T.);
#685 = LINE('',#686,#687);
#686 = CARTESIAN_POINT('',(7.,-78.,7.));
#687 = VECTOR('',#688,1.);
#688 = DIRECTION('',(0.,1.,0.));
#689 = ORIENTED_EDGE('',*,*,#546,.T.);
#690 = ORIENTED_EDGE('',*,*,#71,.F.);
#691 = PLANE('',#692);
#692 = AXIS2_PLACEMENT_3D('',#693,#694,#695);
#693 = CARTESIAN_POINT('',(7.,-38.17291200158,3.339514257786));
#694 = DIRECTION('',(1.,0.,0.));
#695 = DIRECTION('',(0.,0.,1.));
#696 = ADVANCED_FACE('',(#697),#755,.T.);
#697 = FACE_BOUND('',#698,.T.);
#698 = EDGE_LOOP('',(#699,#700,#706,#707,#713,#714,#715,#723,#731,#739,
    #747,#753,#754));
#699 = ORIENTED_EDGE('',*,*,#126,.F.);
#700 = ORIENTED_EDGE('',*,*,#701,.F.);
#701 = EDGE_CURVE('',#314,#127,#702,.T.);
#702 = LINE('',#703,#704);
#703 = CARTESIAN_POINT('',(5.,-79.,7.));
#704 = VECTOR('',#705,1.);
#705 = DIRECTION('',(0.,-1.,-1.387778780781E-15));
#706 = ORIENTED_EDGE('',*,*,#313,.T.);
#707 = ORIENTED_EDGE('',*,*,#708,.F.);
#708 = EDGE_CURVE('',#489,#306,#709,.T.);
#709 = LINE('',#710,#711);
#710 = CARTESIAN_POINT('',(-4.5,-77.,7.));
#711 = VECTOR('',#712,1.);
#712 = DIRECTION('',(0.,-1.,2.22044604925E-16));
#713 = ORIENTED_EDGE('',*,*,#488,.T.);
#714 = ORIENTED_EDGE('',*,*,#684,.T.);
#715 = ORIENTED_EDGE('',*,*,#716,.T.);
#716 = EDGE_CURVE('',#677,#717,#719,.T.);
#717 = VERTEX_POINT('',#718);
#718 = CARTESIAN_POINT('',(4.87867965644,-51.,7.));
#719 = LINE('',#720,#721);
#720 = CARTESIAN_POINT('',(-22.41540400819,-31.70016835446,7.));
#721 = VECTOR('',#722,1.);
#722 = DIRECTION('',(-0.816496580928,0.57735026919,0.));
#723 = ORIENTED_EDGE('',*,*,#724,.F.);
#724 = EDGE_CURVE('',#725,#717,#727,.T.);
#725 = VERTEX_POINT('',#726);
#726 = CARTESIAN_POINT('',(4.87867965644,-30.,7.));
#727 = LINE('',#728,#729);
#728 = CARTESIAN_POINT('',(4.87867965644,-6.55,7.));
#729 = VECTOR('',#730,1.);
#730 = DIRECTION('',(-0.,-1.,-0.));
#731 = ORIENTED_EDGE('',*,*,#732,.F.);
#732 = EDGE_CURVE('',#733,#725,#735,.T.);
#733 = VERTEX_POINT('',#734);
#734 = CARTESIAN_POINT('',(-4.87867965644,-30.,7.));
#735 = LINE('',#736,#737);
#736 = CARTESIAN_POINT('',(-4.87867965644,-30.,7.));
#737 = VECTOR('',#738,1.);
#738 = DIRECTION('',(1.,0.,0.));
#739 = ORIENTED_EDGE('',*,*,#740,.T.);
#740 = EDGE_CURVE('',#733,#741,#743,.T.);
#741 = VERTEX_POINT('',#742);
#742 = CARTESIAN_POINT('',(-4.87867965644,-51.,7.));
#743 = LINE('',#744,#745);
#744 = CARTESIAN_POINT('',(-4.87867965644,-6.55,7.));
#745 = VECTOR('',#746,1.);
#746 = DIRECTION('',(-0.,-1.,-0.));
#747 = ORIENTED_EDGE('',*,*,#748,.T.);
#748 = EDGE_CURVE('',#741,#218,#749,.T.);
#749 = LINE('',#750,#751);
#750 = CARTESIAN_POINT('',(22.415404008196,-31.70016835446,7.));
#751 = VECTOR('',#752,1.);
#752 = DIRECTION('',(-0.816496580928,-0.57735026919,0.));
#753 = ORIENTED_EDGE('',*,*,#217,.T.);
#754 = ORIENTED_EDGE('',*,*,#167,.F.);
#755 = PLANE('',#756);
#756 = AXIS2_PLACEMENT_3D('',#757,#758,#759);
#757 = CARTESIAN_POINT('',(-1.409374300431,-58.14287833618,7.));
#758 = DIRECTION('',(1.873288582862E-15,-1.443558829089E-15,1.));
#759 = DIRECTION('',(1.,0.,-1.873288582862E-15));
#760 = ADVANCED_FACE('',(#761),#767,.F.);
#761 = FACE_BOUND('',#762,.F.);
#762 = EDGE_LOOP('',(#763,#764,#765,#766));
#763 = ORIENTED_EDGE('',*,*,#321,.F.);
#764 = ORIENTED_EDGE('',*,*,#201,.T.);
#765 = ORIENTED_EDGE('',*,*,#134,.T.);
#766 = ORIENTED_EDGE('',*,*,#701,.F.);
#767 = PLANE('',#768);
#768 = AXIS2_PLACEMENT_3D('',#769,#770,#771);
#769 = CARTESIAN_POINT('',(6.,-79.,6.));
#770 = DIRECTION('',(-0.707106781187,1.038399850647E-15,-0.707106781187)
  );
#771 = DIRECTION('',(-4.037018558496E-17,-1.,-1.428148966366E-15));
#772 = ADVANCED_FACE('',(#773),#784,.F.);
#773 = FACE_BOUND('',#774,.F.);
#774 = EDGE_LOOP('',(#775,#781,#782,#783));
#775 = ORIENTED_EDGE('',*,*,#776,.F.);
#776 = EDGE_CURVE('',#151,#330,#777,.T.);
#777 = LINE('',#778,#779);
#778 = CARTESIAN_POINT('',(1.5,-81.,3.5));
#779 = VECTOR('',#780,1.);
#780 = DIRECTION('',(0.,1.,1.387778780781E-15));
#781 = ORIENTED_EDGE('',*,*,#150,.F.);
#782 = ORIENTED_EDGE('',*,*,#776,.T.);
#783 = ORIENTED_EDGE('',*,*,#329,.T.);
#784 = CYLINDRICAL_SURFACE('',#785,1.5);
#785 = AXIS2_PLACEMENT_3D('',#786,#787,#788);
#786 = CARTESIAN_POINT('',(0.,-81.,3.5));
#787 = DIRECTION('',(0.,-1.,-1.33226762955E-15));
#788 = DIRECTION('',(1.,0.,0.));
#789 = ADVANCED_FACE('',(#790),#807,.F.);
#790 = FACE_BOUND('',#791,.F.);
#791 = EDGE_LOOP('',(#792,#793,#799,#800,#801));
#792 = ORIENTED_EDGE('',*,*,#740,.T.);
#793 = ORIENTED_EDGE('',*,*,#794,.F.);
#794 = EDGE_CURVE('',#226,#741,#795,.T.);
#795 = LINE('',#796,#797);
#796 = CARTESIAN_POINT('',(-4.87867965644,-51.,7.));
#797 = VECTOR('',#798,1.);
#798 = DIRECTION('',(0.707106781187,0.,0.707106781187));
#799 = ORIENTED_EDGE('',*,*,#233,.F.);
#800 = ORIENTED_EDGE('',*,*,#364,.T.);
#801 = ORIENTED_EDGE('',*,*,#802,.F.);
#802 = EDGE_CURVE('',#733,#365,#803,.T.);
#803 = LINE('',#804,#805);
#804 = CARTESIAN_POINT('',(-0.637012989774,-25.75833333333,
    11.241666666667));
#805 = VECTOR('',#806,1.);
#806 = DIRECTION('',(0.57735026919,0.57735026919,0.57735026919));
#807 = PLANE('',#808);
#808 = AXIS2_PLACEMENT_3D('',#809,#810,#811);
#809 = CARTESIAN_POINT('',(-4.87867965644,-6.55,7.));
#810 = DIRECTION('',(0.707106781187,0.,-0.707106781187));
#811 = DIRECTION('',(-0.707106781187,0.,-0.707106781187));
#812 = ADVANCED_FACE('',(#813),#818,.F.);
#813 = FACE_BOUND('',#814,.T.);
#814 = EDGE_LOOP('',(#815,#816,#817));
#815 = ORIENTED_EDGE('',*,*,#794,.F.);
#816 = ORIENTED_EDGE('',*,*,#225,.F.);
#817 = ORIENTED_EDGE('',*,*,#748,.F.);
#818 = PLANE('',#819);
#819 = AXIS2_PLACEMENT_3D('',#820,#821,#822);
#820 = CARTESIAN_POINT('',(-4.87867965644,-51.,7.));
#821 = DIRECTION('',(0.5,-0.707106781187,-0.5));
#822 = DIRECTION('',(0.707106781187,1.110223024625E-16,0.707106781187));
#823 = ADVANCED_FACE('',(#824),#835,.T.);
#824 = FACE_BOUND('',#825,.T.);
#825 = EDGE_LOOP('',(#826,#827,#828,#829));
#826 = ORIENTED_EDGE('',*,*,#498,.F.);
#827 = ORIENTED_EDGE('',*,*,#708,.T.);
#828 = ORIENTED_EDGE('',*,*,#305,.T.);
#829 = ORIENTED_EDGE('',*,*,#830,.F.);
#830 = EDGE_CURVE('',#499,#298,#831,.T.);
#831 = LINE('',#832,#833);
#832 = CARTESIAN_POINT('',(-4.5,-77.,6.5));
#833 = VECTOR('',#834,1.);
#834 = DIRECTION('',(0.,-1.,2.22044604925E-16));
#835 = PLANE('',#836);
#836 = AXIS2_PLACEMENT_3D('',#837,#838,#839);
#837 = CARTESIAN_POINT('',(-4.5,-68.5,6.75));
#838 = DIRECTION('',(1.,0.,-7.849018592699E-16));
#839 = DIRECTION('',(7.849018592699E-16,0.,1.));
#840 = ADVANCED_FACE('',(#841),#852,.F.);
#841 = FACE_BOUND('',#842,.F.);
#842 = EDGE_LOOP('',(#843,#844,#845,#851));
#843 = ORIENTED_EDGE('',*,*,#442,.T.);
#844 = ORIENTED_EDGE('',*,*,#265,.T.);
#845 = ORIENTED_EDGE('',*,*,#846,.F.);
#846 = EDGE_CURVE('',#531,#266,#847,.T.);
#847 = LINE('',#848,#849);
#848 = CARTESIAN_POINT('',(-4.5,-58.,-2.));
#849 = VECTOR('',#850,1.);
#850 = DIRECTION('',(0.,-1.,2.22044604925E-16));
#851 = ORIENTED_EDGE('',*,*,#538,.F.);
#852 = PLANE('',#853);
#853 = AXIS2_PLACEMENT_3D('',#854,#855,#856);
#854 = CARTESIAN_POINT('',(-3.5,-58.,-2.));
#855 = DIRECTION('',(-0.,-2.22044604925E-16,-1.));
#856 = DIRECTION('',(-1.,0.,0.));
#857 = ADVANCED_FACE('',(#858),#869,.T.);
#858 = FACE_BOUND('',#859,.T.);
#859 = EDGE_LOOP('',(#860,#861,#862,#863));
#860 = ORIENTED_EDGE('',*,*,#506,.F.);
#861 = ORIENTED_EDGE('',*,*,#830,.T.);
#862 = ORIENTED_EDGE('',*,*,#297,.T.);
#863 = ORIENTED_EDGE('',*,*,#864,.F.);
#864 = EDGE_CURVE('',#507,#290,#865,.T.);
#865 = LINE('',#866,#867);
#866 = CARTESIAN_POINT('',(-6.5,-77.,4.5));
#867 = VECTOR('',#868,1.);
#868 = DIRECTION('',(0.,-1.,2.22044604925E-16));
#869 = PLANE('',#870);
#870 = AXIS2_PLACEMENT_3D('',#871,#872,#873);
#871 = CARTESIAN_POINT('',(-5.5,-68.5,5.5));
#872 = DIRECTION('',(0.707106781187,0.,-0.707106781187));
#873 = DIRECTION('',(0.707106781187,0.,0.707106781187));
#874 = ADVANCED_FACE('',(#875),#886,.T.);
#875 = FACE_BOUND('',#876,.T.);
#876 = EDGE_LOOP('',(#877,#878,#884,#885));
#877 = ORIENTED_EDGE('',*,*,#530,.F.);
#878 = ORIENTED_EDGE('',*,*,#879,.T.);
#879 = EDGE_CURVE('',#523,#274,#880,.T.);
#880 = LINE('',#881,#882);
#881 = CARTESIAN_POINT('',(-4.5,-43.68217893672,0.5));
#882 = VECTOR('',#883,1.);
#883 = DIRECTION('',(-0.,-1.,-0.));
#884 = ORIENTED_EDGE('',*,*,#273,.F.);
#885 = ORIENTED_EDGE('',*,*,#846,.F.);
#886 = PLANE('',#887);
#887 = AXIS2_PLACEMENT_3D('',#888,#889,#890);
#888 = CARTESIAN_POINT('',(-4.5,-68.5,-0.75));
#889 = DIRECTION('',(1.,0.,0.));
#890 = DIRECTION('',(0.,0.,1.));
#891 = ADVANCED_FACE('',(#892),#903,.T.);
#892 = FACE_BOUND('',#893,.T.);
#893 = EDGE_LOOP('',(#894,#895,#896,#902));
#894 = ORIENTED_EDGE('',*,*,#864,.T.);
#895 = ORIENTED_EDGE('',*,*,#289,.T.);
#896 = ORIENTED_EDGE('',*,*,#897,.F.);
#897 = EDGE_CURVE('',#515,#282,#898,.T.);
#898 = LINE('',#899,#900);
#899 = CARTESIAN_POINT('',(-6.5,-77.,2.5));
#900 = VECTOR('',#901,1.);
#901 = DIRECTION('',(0.,-1.,2.22044604925E-16));
#902 = ORIENTED_EDGE('',*,*,#514,.F.);
#903 = PLANE('',#904);
#904 = AXIS2_PLACEMENT_3D('',#905,#906,#907);
#905 = CARTESIAN_POINT('',(-6.5,-68.5,3.5));
#906 = DIRECTION('',(1.,0.,-1.158493590913E-15));
#907 = DIRECTION('',(1.158493590913E-15,0.,1.));
#908 = ADVANCED_FACE('',(#909),#915,.T.);
#909 = FACE_BOUND('',#910,.T.);
#910 = EDGE_LOOP('',(#911,#912,#913,#914));
#911 = ORIENTED_EDGE('',*,*,#879,.F.);
#912 = ORIENTED_EDGE('',*,*,#522,.F.);
#913 = ORIENTED_EDGE('',*,*,#897,.T.);
#914 = ORIENTED_EDGE('',*,*,#281,.T.);
#915 = PLANE('',#916);
#916 = AXIS2_PLACEMENT_3D('',#917,#918,#919);
#917 = CARTESIAN_POINT('',(-5.5,-68.5,1.5));
#918 = DIRECTION('',(0.707106781187,0.,0.707106781187));
#919 = DIRECTION('',(-0.707106781187,0.,0.707106781187));
#920 = ADVANCED_FACE('',(#921),#932,.T.);
#921 = FACE_BOUND('',#922,.T.);
#922 = EDGE_LOOP('',(#923,#924,#925,#926));
#923 = ORIENTED_EDGE('',*,*,#608,.F.);
#924 = ORIENTED_EDGE('',*,*,#474,.T.);
#925 = ORIENTED_EDGE('',*,*,#346,.T.);
#926 = ORIENTED_EDGE('',*,*,#927,.F.);
#927 = EDGE_CURVE('',#609,#349,#928,.T.);
#928 = LINE('',#929,#930);
#929 = CARTESIAN_POINT('',(-28.,-23.,17.));
#930 = VECTOR('',#931,1.);
#931 = DIRECTION('',(0.,-1.,2.2E-16));
#932 = PLANE('',#933);
#933 = AXIS2_PLACEMENT_3D('',#934,#935,#936);
#934 = CARTESIAN_POINT('',(-29.,-23.,16.));
#935 = DIRECTION('',(-0.707106781187,2.6E-16,0.707106781187));
#936 = DIRECTION('',(-7.38477631085E-17,-1.,2.938477631085E-16));
#937 = ADVANCED_FACE('',(#938),#949,.F.);
#938 = FACE_BOUND('',#939,.F.);
#939 = EDGE_LOOP('',(#940,#941,#947,#948));
#940 = ORIENTED_EDGE('',*,*,#616,.F.);
#941 = ORIENTED_EDGE('',*,*,#942,.T.);
#942 = EDGE_CURVE('',#617,#397,#943,.T.);
#943 = LINE('',#944,#945);
#944 = CARTESIAN_POINT('',(5.,-23.,17.));
#945 = VECTOR('',#946,1.);
#946 = DIRECTION('',(0.,-1.,2.2E-16));
#947 = ORIENTED_EDGE('',*,*,#404,.T.);
#948 = ORIENTED_EDGE('',*,*,#927,.F.);
#949 = PLANE('',#950);
#950 = AXIS2_PLACEMENT_3D('',#951,#952,#953);
#951 = CARTESIAN_POINT('',(7.,-23.,17.));
#952 = DIRECTION('',(-0.,-2.2E-16,-1.));
#953 = DIRECTION('',(-1.,0.,0.));
#954 = ADVANCED_FACE('',(#955),#961,.F.);
#955 = FACE_BOUND('',#956,.F.);
#956 = EDGE_LOOP('',(#957,#958,#959,#960));
#957 = ORIENTED_EDGE('',*,*,#624,.F.);
#958 = ORIENTED_EDGE('',*,*,#661,.T.);
#959 = ORIENTED_EDGE('',*,*,#396,.T.);
#960 = ORIENTED_EDGE('',*,*,#942,.F.);
#961 = PLANE('',#962);
#962 = AXIS2_PLACEMENT_3D('',#963,#964,#965);
#963 = CARTESIAN_POINT('',(6.,-23.,16.));
#964 = DIRECTION('',(-0.707106781187,0.,-0.707106781187));
#965 = DIRECTION('',(-1.1E-16,-1.,1.1E-16));
#966 = ADVANCED_FACE('',(#967),#984,.F.);
#967 = FACE_BOUND('',#968,.F.);
#968 = EDGE_LOOP('',(#969,#970,#976,#977,#978));
#969 = ORIENTED_EDGE('',*,*,#724,.F.);
#970 = ORIENTED_EDGE('',*,*,#971,.T.);
#971 = EDGE_CURVE('',#725,#373,#972,.T.);
#972 = LINE('',#973,#974);
#973 = CARTESIAN_POINT('',(-0.282106781187,-24.83921356237,
    12.160786437627));
#974 = VECTOR('',#975,1.);
#975 = DIRECTION('',(-0.57735026919,0.57735026919,0.57735026919));
#976 = ORIENTED_EDGE('',*,*,#380,.T.);
#977 = ORIENTED_EDGE('',*,*,#668,.T.);
#978 = ORIENTED_EDGE('',*,*,#979,.F.);
#979 = EDGE_CURVE('',#717,#669,#980,.T.);
#980 = LINE('',#981,#982);
#981 = CARTESIAN_POINT('',(7.,-51.,4.87867965644));
#982 = VECTOR('',#983,1.);
#983 = DIRECTION('',(0.707106781187,0.,-0.707106781187));
#984 = PLANE('',#985);
#985 = AXIS2_PLACEMENT_3D('',#986,#987,#988);
#986 = CARTESIAN_POINT('',(7.,-6.55,4.87867965644));
#987 = DIRECTION('',(-0.707106781187,0.,-0.707106781187));
#988 = DIRECTION('',(-0.707106781187,0.,0.707106781187));
#989 = ADVANCED_FACE('',(#990),#996,.F.);
#990 = FACE_BOUND('',#991,.T.);
#991 = EDGE_LOOP('',(#992,#993,#994,#995));
#992 = ORIENTED_EDGE('',*,*,#802,.F.);
#993 = ORIENTED_EDGE('',*,*,#732,.T.);
#994 = ORIENTED_EDGE('',*,*,#971,.T.);
#995 = ORIENTED_EDGE('',*,*,#372,.F.);
#996 = PLANE('',#997);
#997 = AXIS2_PLACEMENT_3D('',#998,#999,#1000);
#998 = CARTESIAN_POINT('',(-4.87867965644,-29.,8.));
#999 = DIRECTION('',(0.,0.707106781187,-0.707106781187));
#1000 = DIRECTION('',(-1.,-0.,-0.));
#1001 = ADVANCED_FACE('',(#1002),#1021,.F.);
#1002 = FACE_BOUND('',#1003,.T.);
#1003 = EDGE_LOOP('',(#1004,#1012,#1013,#1014));
#1004 = ORIENTED_EDGE('',*,*,#1005,.F.);
#1005 = EDGE_CURVE('',#413,#1006,#1008,.T.);
#1006 = VERTEX_POINT('',#1007);
#1007 = CARTESIAN_POINT('',(-28.05,-25.,7.));
#1008 = LINE('',#1009,#1010);
#1009 = CARTESIAN_POINT('',(-28.05,-28.,7.));
#1010 = VECTOR('',#1011,1.);
#1011 = DIRECTION('',(0.,1.,-2.2E-16));
#1012 = ORIENTED_EDGE('',*,*,#412,.T.);
#1013 = ORIENTED_EDGE('',*,*,#1005,.T.);
#1014 = ORIENTED_EDGE('',*,*,#1015,.F.);
#1015 = EDGE_CURVE('',#1006,#1006,#1016,.T.);
#1016 = CIRCLE('',#1017,3.05);
#1017 = AXIS2_PLACEMENT_3D('',#1018,#1019,#1020);
#1018 = CARTESIAN_POINT('',(-25.,-25.,7.));
#1019 = DIRECTION('',(0.,-1.,2.2E-16));
#1020 = DIRECTION('',(-1.,0.,0.));
#1021 = CYLINDRICAL_SURFACE('',#1022,3.05);
#1022 = AXIS2_PLACEMENT_3D('',#1023,#1024,#1025);
#1023 = CARTESIAN_POINT('',(-25.,-28.,7.));
#1024 = DIRECTION('',(0.,1.,-2.2E-16));
#1025 = DIRECTION('',(-1.,0.,0.));
#1026 = ADVANCED_FACE('',(#1027),#1046,.F.);
#1027 = FACE_BOUND('',#1028,.T.);
#1028 = EDGE_LOOP('',(#1029,#1037,#1038,#1039));
#1029 = ORIENTED_EDGE('',*,*,#1030,.F.);
#1030 = EDGE_CURVE('',#424,#1031,#1033,.T.);
#1031 = VERTEX_POINT('',#1032);
#1032 = CARTESIAN_POINT('',(-13.05,-25.,7.));
#1033 = LINE('',#1034,#1035);
#1034 = CARTESIAN_POINT('',(-13.05,-28.,7.));
#1035 = VECTOR('',#1036,1.);
#1036 = DIRECTION('',(0.,1.,-2.2E-16));
#1037 = ORIENTED_EDGE('',*,*,#423,.T.);
#1038 = ORIENTED_EDGE('',*,*,#1030,.T.);
#1039 = ORIENTED_EDGE('',*,*,#1040,.F.);
#1040 = EDGE_CURVE('',#1031,#1031,#1041,.T.);
#1041 = CIRCLE('',#1042,3.05);
#1042 = AXIS2_PLACEMENT_3D('',#1043,#1044,#1045);
#1043 = CARTESIAN_POINT('',(-10.,-25.,7.));
#1044 = DIRECTION('',(0.,-1.,2.2E-16));
#1045 = DIRECTION('',(-1.,0.,0.));
#1046 = CYLINDRICAL_SURFACE('',#1047,3.05);
#1047 = AXIS2_PLACEMENT_3D('',#1048,#1049,#1050);
#1048 = CARTESIAN_POINT('',(-10.,-28.,7.));
#1049 = DIRECTION('',(0.,1.,-2.2E-16));
#1050 = DIRECTION('',(-1.,0.,0.));
#1051 = ADVANCED_FACE('',(#1052),#1100,.F.);
#1052 = FACE_BOUND('',#1053,.F.);
#1053 = EDGE_LOOP('',(#1054,#1055,#1056,#1063,#1072,#1081,#1090,#1097,
    #1098,#1099));
#1054 = ORIENTED_EDGE('',*,*,#583,.F.);
#1055 = ORIENTED_EDGE('',*,*,#554,.F.);
#1056 = ORIENTED_EDGE('',*,*,#1057,.F.);
#1057 = EDGE_CURVE('',#1058,#555,#1060,.T.);
#1058 = VERTEX_POINT('',#1059);
#1059 = CARTESIAN_POINT('',(2.551321697654,-56.,2.12132034356));
#1060 = B_SPLINE_CURVE_WITH_KNOTS('',1,(#1061,#1062),.UNSPECIFIED.,.F.,
  .F.,(2,2),(-3.552713678801E-15,2.),.PIECEWISE_BEZIER_KNOTS.);
#1061 = CARTESIAN_POINT('',(2.551321697653,-56.,2.12132034356));
#1062 = CARTESIAN_POINT('',(2.551321697653,-58.,2.12132034356));
#1063 = ORIENTED_EDGE('',*,*,#1064,.T.);
#1064 = EDGE_CURVE('',#1058,#1065,#1067,.T.);
#1065 = VERTEX_POINT('',#1066);
#1066 = CARTESIAN_POINT('',(2.9,-56.,3.5));
#1067 = CIRCLE('',#1068,2.9);
#1068 = AXIS2_PLACEMENT_3D('',#1069,#1070,#1071);
#1069 = CARTESIAN_POINT('',(0.,-56.,3.5));
#1070 = DIRECTION('',(0.,-1.,0.));
#1071 = DIRECTION('',(0.,0.,-1.));
#1072 = ORIENTED_EDGE('',*,*,#1073,.T.);
#1073 = EDGE_CURVE('',#1065,#1074,#1076,.T.);
#1074 = VERTEX_POINT('',#1075);
#1075 = CARTESIAN_POINT('',(0.,-56.,6.4));
#1076 = CIRCLE('',#1077,2.9);
#1077 = AXIS2_PLACEMENT_3D('',#1078,#1079,#1080);
#1078 = CARTESIAN_POINT('',(0.,-56.,3.5));
#1079 = DIRECTION('',(0.,-1.,0.));
#1080 = DIRECTION('',(0.,0.,-1.));
#1081 = ORIENTED_EDGE('',*,*,#1082,.T.);
#1082 = EDGE_CURVE('',#1074,#1083,#1085,.T.);
#1083 = VERTEX_POINT('',#1084);
#1084 = CARTESIAN_POINT('',(-2.551321697654,-56.,2.12132034356));
#1085 = CIRCLE('',#1086,2.9);
#1086 = AXIS2_PLACEMENT_3D('',#1087,#1088,#1089);
#1087 = CARTESIAN_POINT('',(0.,-56.,3.5));
#1088 = DIRECTION('',(0.,-1.,0.));
#1089 = DIRECTION('',(0.,0.,-1.));
#1090 = ORIENTED_EDGE('',*,*,#1091,.T.);
#1091 = EDGE_CURVE('',#1083,#1058,#1092,.T.);
#1092 = CIRCLE('',#1093,2.9);
#1093 = AXIS2_PLACEMENT_3D('',#1094,#1095,#1096);
#1094 = CARTESIAN_POINT('',(0.,-56.,3.5));
#1095 = DIRECTION('',(0.,-1.,2.22044604925E-16));
#1096 = DIRECTION('',(1.,0.,0.));
#1097 = ORIENTED_EDGE('',*,*,#1057,.T.);
#1098 = ORIENTED_EDGE('',*,*,#565,.F.);
#1099 = ORIENTED_EDGE('',*,*,#574,.F.);
#1100 = CYLINDRICAL_SURFACE('',#1101,2.9);
#1101 = AXIS2_PLACEMENT_3D('',#1102,#1103,#1104);
#1102 = CARTESIAN_POINT('',(0.,-56.,3.5));
#1103 = DIRECTION('',(-0.,-1.,-0.));
#1104 = DIRECTION('',(0.,0.,-1.));
#1105 = ADVANCED_FACE('',(#1106),#1125,.F.);
#1106 = FACE_BOUND('',#1107,.T.);
#1107 = EDGE_LOOP('',(#1108,#1116,#1123,#1124));
#1108 = ORIENTED_EDGE('',*,*,#1109,.F.);
#1109 = EDGE_CURVE('',#1110,#633,#1112,.T.);
#1110 = VERTEX_POINT('',#1111);
#1111 = CARTESIAN_POINT('',(-26.6,-25.,7.));
#1112 = LINE('',#1113,#1114);
#1113 = CARTESIAN_POINT('',(-26.6,-25.,7.));
#1114 = VECTOR('',#1115,1.);
#1115 = DIRECTION('',(6.E-17,1.,-2.2E-16));
#1116 = ORIENTED_EDGE('',*,*,#1117,.T.);
#1117 = EDGE_CURVE('',#1110,#1110,#1118,.T.);
#1118 = CIRCLE('',#1119,1.6);
#1119 = AXIS2_PLACEMENT_3D('',#1120,#1121,#1122);
#1120 = CARTESIAN_POINT('',(-25.,-25.,7.));
#1121 = DIRECTION('',(0.,-1.,2.2E-16));
#1122 = DIRECTION('',(-1.,0.,0.));
#1123 = ORIENTED_EDGE('',*,*,#1109,.T.);
#1124 = ORIENTED_EDGE('',*,*,#632,.T.);
#1125 = CYLINDRICAL_SURFACE('',#1126,1.6);
#1126 = AXIS2_PLACEMENT_3D('',#1127,#1128,#1129);
#1127 = CARTESIAN_POINT('',(-25.,-25.,7.));
#1128 = DIRECTION('',(0.,1.,-2.2E-16));
#1129 = DIRECTION('',(-1.,0.,0.));
#1130 = ADVANCED_FACE('',(#1131),#1150,.F.);
#1131 = FACE_BOUND('',#1132,.T.);
#1132 = EDGE_LOOP('',(#1133,#1141,#1148,#1149));
#1133 = ORIENTED_EDGE('',*,*,#1134,.F.);
#1134 = EDGE_CURVE('',#1135,#644,#1137,.T.);
#1135 = VERTEX_POINT('',#1136);
#1136 = CARTESIAN_POINT('',(-11.6,-25.,7.));
#1137 = LINE('',#1138,#1139);
#1138 = CARTESIAN_POINT('',(-11.6,-25.,7.));
#1139 = VECTOR('',#1140,1.);
#1140 = DIRECTION('',(6.E-17,1.,-2.2E-16));
#1141 = ORIENTED_EDGE('',*,*,#1142,.T.);
#1142 = EDGE_CURVE('',#1135,#1135,#1143,.T.);
#1143 = CIRCLE('',#1144,1.6);
#1144 = AXIS2_PLACEMENT_3D('',#1145,#1146,#1147);
#1145 = CARTESIAN_POINT('',(-10.,-25.,7.));
#1146 = DIRECTION('',(0.,-1.,2.2E-16));
#1147 = DIRECTION('',(-1.,0.,0.));
#1148 = ORIENTED_EDGE('',*,*,#1134,.T.);
#1149 = ORIENTED_EDGE('',*,*,#643,.T.);
#1150 = CYLINDRICAL_SURFACE('',#1151,1.6);
#1151 = AXIS2_PLACEMENT_3D('',#1152,#1153,#1154);
#1152 = CARTESIAN_POINT('',(-10.,-25.,7.));
#1153 = DIRECTION('',(0.,1.,-2.2E-16));
#1154 = DIRECTION('',(-1.,0.,0.));
#1155 = ADVANCED_FACE('',(#1156),#1161,.F.);
#1156 = FACE_BOUND('',#1157,.T.);
#1157 = EDGE_LOOP('',(#1158,#1159,#1160));
#1158 = ORIENTED_EDGE('',*,*,#979,.F.);
#1159 = ORIENTED_EDGE('',*,*,#716,.F.);
#1160 = ORIENTED_EDGE('',*,*,#676,.F.);
#1161 = PLANE('',#1162);
#1162 = AXIS2_PLACEMENT_3D('',#1163,#1164,#1165);
#1163 = CARTESIAN_POINT('',(7.,-51.,4.87867965644));
#1164 = DIRECTION('',(-0.5,-0.707106781187,-0.5));
#1165 = DIRECTION('',(0.707106781187,0.,-0.707106781187));
#1166 = ADVANCED_FACE('',(#1167,#1170),#1173,.T.);
#1167 = FACE_BOUND('',#1168,.T.);
#1168 = EDGE_LOOP('',(#1169));
#1169 = ORIENTED_EDGE('',*,*,#1015,.T.);
#1170 = FACE_BOUND('',#1171,.T.);
#1171 = EDGE_LOOP('',(#1172));
#1172 = ORIENTED_EDGE('',*,*,#1117,.F.);
#1173 = PLANE('',#1174);
#1174 = AXIS2_PLACEMENT_3D('',#1175,#1176,#1177);
#1175 = CARTESIAN_POINT('',(-25.,-25.,7.));
#1176 = DIRECTION('',(0.,-1.,2.2E-16));
#1177 = DIRECTION('',(-1.,0.,0.));
#1178 = ADVANCED_FACE('',(#1179,#1182),#1185,.T.);
#1179 = FACE_BOUND('',#1180,.T.);
#1180 = EDGE_LOOP('',(#1181));
#1181 = ORIENTED_EDGE('',*,*,#1040,.T.);
#1182 = FACE_BOUND('',#1183,.T.);
#1183 = EDGE_LOOP('',(#1184));
#1184 = ORIENTED_EDGE('',*,*,#1142,.F.);
#1185 = PLANE('',#1186);
#1186 = AXIS2_PLACEMENT_3D('',#1187,#1188,#1189);
#1187 = CARTESIAN_POINT('',(-10.,-25.,7.));
#1188 = DIRECTION('',(0.,-1.,2.2E-16));
#1189 = DIRECTION('',(-1.,0.,0.));
#1190 = ADVANCED_FACE('',(#1191,#1197),#1225,.T.);
#1191 = FACE_BOUND('',#1192,.T.);
#1192 = EDGE_LOOP('',(#1193,#1194,#1195,#1196));
#1193 = ORIENTED_EDGE('',*,*,#1082,.T.);
#1194 = ORIENTED_EDGE('',*,*,#1091,.T.);
#1195 = ORIENTED_EDGE('',*,*,#1064,.T.);
#1196 = ORIENTED_EDGE('',*,*,#1073,.T.);
#1197 = FACE_BOUND('',#1198,.T.);
#1198 = EDGE_LOOP('',(#1199,#1210,#1218));
#1199 = ORIENTED_EDGE('',*,*,#1200,.T.);
#1200 = EDGE_CURVE('',#1201,#1203,#1205,.T.);
#1201 = VERTEX_POINT('',#1202);
#1202 = CARTESIAN_POINT('',(0.,-56.,5.));
#1203 = VERTEX_POINT('',#1204);
#1204 = CARTESIAN_POINT('',(0.590967346744,-56.,2.12132034356));
#1205 = CIRCLE('',#1206,1.5);
#1206 = AXIS2_PLACEMENT_3D('',#1207,#1208,#1209);
#1207 = CARTESIAN_POINT('',(0.,-56.,3.5));
#1208 = DIRECTION('',(0.,1.,0.));
#1209 = DIRECTION('',(0.,0.,-1.));
#1210 = ORIENTED_EDGE('',*,*,#1211,.T.);
#1211 = EDGE_CURVE('',#1203,#1212,#1214,.T.);
#1212 = VERTEX_POINT('',#1213);
#1213 = CARTESIAN_POINT('',(-0.590967346744,-56.,2.12132034356));
#1214 = LINE('',#1215,#1216);
#1215 = CARTESIAN_POINT('',(-3.5,-56.,2.12132034356));
#1216 = VECTOR('',#1217,1.);
#1217 = DIRECTION('',(-1.,0.,8.247371040073E-16));
#1218 = ORIENTED_EDGE('',*,*,#1219,.T.);
#1219 = EDGE_CURVE('',#1212,#1201,#1220,.T.);
#1220 = CIRCLE('',#1221,1.5);
#1221 = AXIS2_PLACEMENT_3D('',#1222,#1223,#1224);
#1222 = CARTESIAN_POINT('',(0.,-56.,3.5));
#1223 = DIRECTION('',(0.,1.,0.));
#1224 = DIRECTION('',(0.,0.,-1.));
#1225 = PLANE('',#1226);
#1226 = AXIS2_PLACEMENT_3D('',#1227,#1228,#1229);
#1227 = CARTESIAN_POINT('',(2.390541737229E-02,-56.,3.512447805006));
#1228 = DIRECTION('',(-0.,-1.,-1.332059051222E-15));
#1229 = DIRECTION('',(0.,1.332059051222E-15,-1.));
#1230 = ADVANCED_FACE('',(#1231),#1267,.F.);
#1231 = FACE_BOUND('',#1232,.F.);
#1232 = EDGE_LOOP('',(#1233,#1244,#1253,#1259,#1260,#1261));
#1233 = ORIENTED_EDGE('',*,*,#1234,.T.);
#1234 = EDGE_CURVE('',#1235,#1237,#1239,.T.);
#1235 = VERTEX_POINT('',#1236);
#1236 = CARTESIAN_POINT('',(0.590967346744,-48.,2.12132034356));
#1237 = VERTEX_POINT('',#1238);
#1238 = CARTESIAN_POINT('',(0.,-48.,5.));
#1239 = CIRCLE('',#1240,1.5);
#1240 = AXIS2_PLACEMENT_3D('',#1241,#1242,#1243);
#1241 = CARTESIAN_POINT('',(0.,-48.,3.5));
#1242 = DIRECTION('',(0.,-1.,0.));
#1243 = DIRECTION('',(0.,0.,-1.));
#1244 = ORIENTED_EDGE('',*,*,#1245,.T.);
#1245 = EDGE_CURVE('',#1237,#1246,#1248,.T.);
#1246 = VERTEX_POINT('',#1247);
#1247 = CARTESIAN_POINT('',(-0.590967346744,-48.,2.12132034356));
#1248 = CIRCLE('',#1249,1.5);
#1249 = AXIS2_PLACEMENT_3D('',#1250,#1251,#1252);
#1250 = CARTESIAN_POINT('',(0.,-48.,3.5));
#1251 = DIRECTION('',(0.,-1.,0.));
#1252 = DIRECTION('',(0.,0.,-1.));
#1253 = ORIENTED_EDGE('',*,*,#1254,.T.);
#1254 = EDGE_CURVE('',#1246,#1212,#1255,.T.);
#1255 = LINE('',#1256,#1257);
#1256 = CARTESIAN_POINT('',(-0.590967346744,-48.,2.12132034356));
#1257 = VECTOR('',#1258,1.);
#1258 = DIRECTION('',(-0.,-1.,-0.));
#1259 = ORIENTED_EDGE('',*,*,#1219,.T.);
#1260 = ORIENTED_EDGE('',*,*,#1200,.T.);
#1261 = ORIENTED_EDGE('',*,*,#1262,.F.);
#1262 = EDGE_CURVE('',#1235,#1203,#1263,.T.);
#1263 = LINE('',#1264,#1265);
#1264 = CARTESIAN_POINT('',(0.590967346744,-48.,2.12132034356));
#1265 = VECTOR('',#1266,1.);
#1266 = DIRECTION('',(-0.,-1.,-0.));
#1267 = CYLINDRICAL_SURFACE('',#1268,1.5);
#1268 = AXIS2_PLACEMENT_3D('',#1269,#1270,#1271);
#1269 = CARTESIAN_POINT('',(0.,-48.,3.5));
#1270 = DIRECTION('',(-0.,-1.,-0.));
#1271 = DIRECTION('',(0.,0.,-1.));
#1272 = ADVANCED_FACE('',(#1273),#1284,.T.);
#1273 = FACE_BOUND('',#1274,.T.);
#1274 = EDGE_LOOP('',(#1275,#1276,#1277,#1278));
#1275 = ORIENTED_EDGE('',*,*,#1254,.T.);
#1276 = ORIENTED_EDGE('',*,*,#1211,.F.);
#1277 = ORIENTED_EDGE('',*,*,#1262,.F.);
#1278 = ORIENTED_EDGE('',*,*,#1279,.T.);
#1279 = EDGE_CURVE('',#1235,#1246,#1280,.T.);
#1280 = LINE('',#1281,#1282);
#1281 = CARTESIAN_POINT('',(-3.5,-48.,2.12132034356));
#1282 = VECTOR('',#1283,1.);
#1283 = DIRECTION('',(-1.,0.,8.247371040073E-16));
#1284 = PLANE('',#1285);
#1285 = AXIS2_PLACEMENT_3D('',#1286,#1287,#1288);
#1286 = CARTESIAN_POINT('',(-7.,-28.,2.12132034356));
#1287 = DIRECTION('',(8.247371040073E-16,2.22044604925E-16,1.));
#1288 = DIRECTION('',(1.,-1.831284244263E-31,-8.247371040073E-16));
#1289 = ADVANCED_FACE('',(#1290),#1295,.T.);
#1290 = FACE_BOUND('',#1291,.T.);
#1291 = EDGE_LOOP('',(#1292,#1293,#1294));
#1292 = ORIENTED_EDGE('',*,*,#1279,.F.);
#1293 = ORIENTED_EDGE('',*,*,#1234,.T.);
#1294 = ORIENTED_EDGE('',*,*,#1245,.T.);
#1295 = PLANE('',#1296);
#1296 = AXIS2_PLACEMENT_3D('',#1297,#1298,#1299);
#1297 = CARTESIAN_POINT('',(0.,-48.,3.5));
#1298 = DIRECTION('',(0.,-1.,0.));
#1299 = DIRECTION('',(0.,0.,-1.));
#1300 = ( GEOMETRIC_REPRESENTATION_CONTEXT(3) 
GLOBAL_UNCERTAINTY_ASSIGNED_CONTEXT((#1304)) 
GLOBAL_UNIT_ASSIGNED_CONTEXT((#1301,#1302,#1303)) REPRESENTATION_CONTEXT
('Context #1','3D Context with UNIT and UNCERTAINTY') );
#1301 = ( LENGTH_UNIT() NAMED_UNIT(*) SI_UNIT(.MILLI.,.METRE.) );
#1302 = ( NAMED_UNIT(*) PLANE_ANGLE_UNIT() SI_UNIT($,.RADIAN.) );
#1303 = ( NAMED_UNIT(*) SI_UNIT($,.STERADIAN.) SOLID_ANGLE_UNIT() );
#1304 = UNCERTAINTY_MEASURE_WITH_UNIT(LENGTH_MEASURE(1.E-04),#1301,
  'distance_accuracy_value','confusion accuracy');
#1305 = PRODUCT_RELATED_PRODUCT_CATEGORY('part',$,(#7));
#1306 = MECHANICAL_DESIGN_GEOMETRIC_PRESENTATION_REPRESENTATION('',(
    #1307),#1300);
#1307 = STYLED_ITEM('color',(#1308),#15);
#1308 = PRESENTATION_STYLE_ASSIGNMENT((#1309,#1315));
#1309 = SURFACE_STYLE_USAGE(.BOTH.,#1310);
#1310 = SURFACE_SIDE_STYLE('',(#1311));
#1311 = SURFACE_STYLE_FILL_AREA(#1312);
#1312 = FILL_AREA_STYLE('',(#1313));
#1313 = FILL_AREA_STYLE_COLOUR('',#1314);
#1314 = COLOUR_RGB('',0.447058818107,0.474509808674,0.501960817233);
#1315 = CURVE_STYLE('',#1316,POSITIVE_LENGTH_MEASURE(0.1),#1317);
#1316 = DRAUGHTING_PRE_DEFINED_CURVE_FONT('continuous');
#1317 = COLOUR_RGB('',9.803921802644E-02,9.803921802644E-02,
  9.803921802644E-02);
ENDSEC;
END-ISO-10303-21;
