ISO-10303-21;
HEADER;
FILE_DESCRIPTION(('FreeCAD Model'),'2;1');
FILE_NAME('Open CASCADE Shape Model','2026-02-14T10:15:47',(''),(''),
  'Open CASCADE STEP processor 7.9','FreeCAD','Unknown');
FILE_SCHEMA(('AUTOMOTIVE_DESIGN { 1 0 10303 214 1 1 1 1 }'));
ENDSEC;
DATA;
#1 = APPLICATION_PROTOCOL_DEFINITION('international standard',
  'automotive_design',2000,#2);
#2 = APPLICATION_CONTEXT(
  'core data for automotive mechanical design processes');
#3 = SHAPE_DEFINITION_REPRESENTATION(#4,#10);
#4 = PRODUCT_DEFINITION_SHAPE('','',#5);
#5 = PRODUCT_DEFINITION('design','',#6,#9);
#6 = PRODUCT_DEFINITION_FORMATION('','',#7);
#7 = PRODUCT('XYRight0','XYRight0','',(#8));
#8 = PRODUCT_CONTEXT('',#2,'mechanical');
#9 = PRODUCT_DEFINITION_CONTEXT('part definition',#2,'design');
#10 = ADVANCED_BREP_SHAPE_REPRESENTATION('',(#11,#15),#2420);
#11 = AXIS2_PLACEMENT_3D('',#12,#13,#14);
#12 = CARTESIAN_POINT('',(0.,0.,0.));
#13 = DIRECTION('',(0.,0.,1.));
#14 = DIRECTION('',(1.,0.,-0.));
#15 = MANIFOLD_SOLID_BREP('',#16);
#16 = CLOSED_SHELL('',(#17,#367,#398,#423,#479,#503,#528,#553,#585,#616,
    #641,#666,#683,#707,#738,#762,#786,#810,#834,#851,#876,#901,#932,
    #956,#980,#1004,#1028,#1045,#1070,#1095,#1191,#1287,#1323,#1435,
    #1459,#1539,#1556,#1570,#1590,#1604,#1666,#1676,#1700,#1755,#1766,
    #1783,#1845,#1855,#1879,#1934,#1945,#1962,#2010,#2058,#2075,#2092,
    #2109,#2126,#2143,#2155,#2180,#2197,#2222,#2245,#2256,#2272,#2290,
    #2301,#2312,#2335,#2346,#2362,#2380,#2391,#2402,#2411));
#17 = ADVANCED_FACE('',(#18,#113,#124,#174,#185,#196,#246,#257,#268,#315
    ),#362,.T.);
#18 = FACE_BOUND('',#19,.T.);
#19 = EDGE_LOOP('',(#20,#30,#39,#47,#56,#64,#73,#81,#90,#98,#107));
#20 = ORIENTED_EDGE('',*,*,#21,.T.);
#21 = EDGE_CURVE('',#22,#24,#26,.T.);
#22 = VERTEX_POINT('',#23);
#23 = CARTESIAN_POINT('',(-15.,10.,0.));
#24 = VERTEX_POINT('',#25);
#25 = CARTESIAN_POINT('',(-42.,10.,0.));
#26 = LINE('',#27,#28);
#27 = CARTESIAN_POINT('',(10.,10.,0.));
#28 = VECTOR('',#29,1.);
#29 = DIRECTION('',(-1.,0.,0.));
#30 = ORIENTED_EDGE('',*,*,#31,.T.);
#31 = EDGE_CURVE('',#24,#32,#34,.T.);
#32 = VERTEX_POINT('',#33);
#33 = CARTESIAN_POINT('',(-45.,13.,-1.E-15));
#34 = CIRCLE('',#35,3.);
#35 = AXIS2_PLACEMENT_3D('',#36,#37,#38);
#36 = CARTESIAN_POINT('',(-42.,13.,-1.61E-15));
#37 = DIRECTION('',(-0.,-2.2E-16,-1.));
#38 = DIRECTION('',(0.,-1.,2.2E-16));
#39 = ORIENTED_EDGE('',*,*,#40,.T.);
#40 = EDGE_CURVE('',#32,#41,#43,.T.);
#41 = VERTEX_POINT('',#42);
#42 = CARTESIAN_POINT('',(-45.,27.,-4.E-15));
#43 = LINE('',#44,#45);
#44 = CARTESIAN_POINT('',(-45.,10.,0.));
#45 = VECTOR('',#46,1.);
#46 = DIRECTION('',(0.,1.,-2.2E-16));
#47 = ORIENTED_EDGE('',*,*,#48,.T.);
#48 = EDGE_CURVE('',#41,#49,#51,.T.);
#49 = VERTEX_POINT('',#50);
#50 = CARTESIAN_POINT('',(-42.,30.,-4.E-15));
#51 = CIRCLE('',#52,3.);
#52 = AXIS2_PLACEMENT_3D('',#53,#54,#55);
#53 = CARTESIAN_POINT('',(-42.,27.,-1.61E-15));
#54 = DIRECTION('',(-0.,-2.2E-16,-1.));
#55 = DIRECTION('',(0.,-1.,2.2E-16));
#56 = ORIENTED_EDGE('',*,*,#57,.F.);
#57 = EDGE_CURVE('',#58,#49,#60,.T.);
#58 = VERTEX_POINT('',#59);
#59 = CARTESIAN_POINT('',(7.,30.,-4.E-15));
#60 = LINE('',#61,#62);
#61 = CARTESIAN_POINT('',(10.,30.,-4.E-15));
#62 = VECTOR('',#63,1.);
#63 = DIRECTION('',(-1.,0.,0.));
#64 = ORIENTED_EDGE('',*,*,#65,.F.);
#65 = EDGE_CURVE('',#66,#58,#68,.T.);
#66 = VERTEX_POINT('',#67);
#67 = CARTESIAN_POINT('',(10.,27.,0.));
#68 = CIRCLE('',#69,3.);
#69 = AXIS2_PLACEMENT_3D('',#70,#71,#72);
#70 = CARTESIAN_POINT('',(7.,27.,-1.78E-15));
#71 = DIRECTION('',(0.,2.2E-16,1.));
#72 = DIRECTION('',(0.,1.,-2.2E-16));
#73 = ORIENTED_EDGE('',*,*,#74,.F.);
#74 = EDGE_CURVE('',#75,#66,#77,.T.);
#75 = VERTEX_POINT('',#76);
#76 = CARTESIAN_POINT('',(10.,-17.,0.));
#77 = LINE('',#78,#79);
#78 = CARTESIAN_POINT('',(10.,-20.,0.));
#79 = VECTOR('',#80,1.);
#80 = DIRECTION('',(0.,1.,0.));
#81 = ORIENTED_EDGE('',*,*,#82,.T.);
#82 = EDGE_CURVE('',#75,#83,#85,.T.);
#83 = VERTEX_POINT('',#84);
#84 = CARTESIAN_POINT('',(7.,-20.,0.));
#85 = CIRCLE('',#86,3.);
#86 = AXIS2_PLACEMENT_3D('',#87,#88,#89);
#87 = CARTESIAN_POINT('',(7.,-17.,0.));
#88 = DIRECTION('',(-0.,-0.,-1.));
#89 = DIRECTION('',(0.,-1.,0.));
#90 = ORIENTED_EDGE('',*,*,#91,.F.);
#91 = EDGE_CURVE('',#92,#83,#94,.T.);
#92 = VERTEX_POINT('',#93);
#93 = CARTESIAN_POINT('',(-12.,-20.,0.));
#94 = LINE('',#95,#96);
#95 = CARTESIAN_POINT('',(-10.,-20.,0.));
#96 = VECTOR('',#97,1.);
#97 = DIRECTION('',(1.,0.,0.));
#98 = ORIENTED_EDGE('',*,*,#99,.T.);
#99 = EDGE_CURVE('',#92,#100,#102,.T.);
#100 = VERTEX_POINT('',#101);
#101 = CARTESIAN_POINT('',(-15.,-17.,0.));
#102 = CIRCLE('',#103,3.);
#103 = AXIS2_PLACEMENT_3D('',#104,#105,#106);
#104 = CARTESIAN_POINT('',(-12.,-17.,0.));
#105 = DIRECTION('',(-0.,-0.,-1.));
#106 = DIRECTION('',(0.,-1.,0.));
#107 = ORIENTED_EDGE('',*,*,#108,.F.);
#108 = EDGE_CURVE('',#22,#100,#109,.T.);
#109 = LINE('',#110,#111);
#110 = CARTESIAN_POINT('',(-15.,20.,0.));
#111 = VECTOR('',#112,1.);
#112 = DIRECTION('',(0.,-1.,0.));
#113 = FACE_BOUND('',#114,.T.);
#114 = EDGE_LOOP('',(#115));
#115 = ORIENTED_EDGE('',*,*,#116,.T.);
#116 = EDGE_CURVE('',#117,#117,#119,.T.);
#117 = VERTEX_POINT('',#118);
#118 = CARTESIAN_POINT('',(3.5,-10.,0.));
#119 = CIRCLE('',#120,2.5);
#120 = AXIS2_PLACEMENT_3D('',#121,#122,#123);
#121 = CARTESIAN_POINT('',(1.,-10.,0.));
#122 = DIRECTION('',(0.,0.,1.));
#123 = DIRECTION('',(1.,0.,0.));
#124 = FACE_BOUND('',#125,.T.);
#125 = EDGE_LOOP('',(#126,#136,#144,#152,#160,#168));
#126 = ORIENTED_EDGE('',*,*,#127,.F.);
#127 = EDGE_CURVE('',#128,#130,#132,.T.);
#128 = VERTEX_POINT('',#129);
#129 = CARTESIAN_POINT('',(-8.199999999941,-14.38341924622,0.));
#130 = VERTEX_POINT('',#131);
#131 = CARTESIAN_POINT('',(-8.200000000005,-17.61658075372,0.));
#132 = LINE('',#133,#134);
#133 = CARTESIAN_POINT('',(-8.199999999941,-14.38341924622,0.));
#134 = VECTOR('',#135,1.);
#135 = DIRECTION('',(-1.975322E-11,-1.,0.));
#136 = ORIENTED_EDGE('',*,*,#137,.F.);
#137 = EDGE_CURVE('',#138,#128,#140,.T.);
#138 = VERTEX_POINT('',#139);
#139 = CARTESIAN_POINT('',(-11.00000000001,-12.7668384925,0.));
#140 = LINE('',#141,#142);
#141 = CARTESIAN_POINT('',(-11.00000000001,-12.7668384925,0.));
#142 = VECTOR('',#143,1.);
#143 = DIRECTION('',(0.866025403792,-0.499999999986,0.));
#144 = ORIENTED_EDGE('',*,*,#145,.F.);
#145 = EDGE_CURVE('',#146,#138,#148,.T.);
#146 = VERTEX_POINT('',#147);
#147 = CARTESIAN_POINT('',(-13.8,-14.38341924626,0.));
#148 = LINE('',#149,#150);
#149 = CARTESIAN_POINT('',(-13.8,-14.38341924626,0.));
#150 = VECTOR('',#151,1.);
#151 = DIRECTION('',(0.86602540378,0.500000000008,0.));
#152 = ORIENTED_EDGE('',*,*,#153,.F.);
#153 = EDGE_CURVE('',#154,#146,#156,.T.);
#154 = VERTEX_POINT('',#155);
#155 = CARTESIAN_POINT('',(-13.8,-17.61658075372,0.));
#156 = LINE('',#157,#158);
#157 = CARTESIAN_POINT('',(-13.8,-17.61658075372,0.));
#158 = VECTOR('',#159,1.);
#159 = DIRECTION('',(0.,1.,0.));
#160 = ORIENTED_EDGE('',*,*,#161,.F.);
#161 = EDGE_CURVE('',#162,#154,#164,.T.);
#162 = VERTEX_POINT('',#163);
#163 = CARTESIAN_POINT('',(-11.,-19.23316150745,0.));
#164 = LINE('',#165,#166);
#165 = CARTESIAN_POINT('',(-11.,-19.23316150745,0.));
#166 = VECTOR('',#167,1.);
#167 = DIRECTION('',(-0.866025403784,0.5,-0.));
#168 = ORIENTED_EDGE('',*,*,#169,.F.);
#169 = EDGE_CURVE('',#130,#162,#170,.T.);
#170 = LINE('',#171,#172);
#171 = CARTESIAN_POINT('',(-8.200000000005,-17.61658075372,0.));
#172 = VECTOR('',#173,1.);
#173 = DIRECTION('',(-0.866025403785,-0.499999999999,0.));
#174 = FACE_BOUND('',#175,.T.);
#175 = EDGE_LOOP('',(#176));
#176 = ORIENTED_EDGE('',*,*,#177,.T.);
#177 = EDGE_CURVE('',#178,#178,#180,.T.);
#178 = VERTEX_POINT('',#179);
#179 = CARTESIAN_POINT('',(9.1,-8.,0.));
#180 = CIRCLE('',#181,1.6);
#181 = AXIS2_PLACEMENT_3D('',#182,#183,#184);
#182 = CARTESIAN_POINT('',(7.5,-8.,0.));
#183 = DIRECTION('',(0.,0.,1.));
#184 = DIRECTION('',(1.,0.,0.));
#185 = FACE_BOUND('',#186,.T.);
#186 = EDGE_LOOP('',(#187));
#187 = ORIENTED_EDGE('',*,*,#188,.T.);
#188 = EDGE_CURVE('',#189,#189,#191,.T.);
#189 = VERTEX_POINT('',#190);
#190 = CARTESIAN_POINT('',(-5.9,-8.,0.));
#191 = CIRCLE('',#192,1.6);
#192 = AXIS2_PLACEMENT_3D('',#193,#194,#195);
#193 = CARTESIAN_POINT('',(-7.5,-8.,0.));
#194 = DIRECTION('',(0.,0.,1.));
#195 = DIRECTION('',(1.,0.,0.));
#196 = FACE_BOUND('',#197,.T.);
#197 = EDGE_LOOP('',(#198,#208,#216,#224,#232,#240));
#198 = ORIENTED_EDGE('',*,*,#199,.F.);
#199 = EDGE_CURVE('',#200,#202,#204,.T.);
#200 = VERTEX_POINT('',#201);
#201 = CARTESIAN_POINT('',(4.,6.233161507454,0.));
#202 = VERTEX_POINT('',#203);
#203 = CARTESIAN_POINT('',(6.799999999994,4.616580753727,0.));
#204 = LINE('',#205,#206);
#205 = CARTESIAN_POINT('',(4.,6.233161507454,0.));
#206 = VECTOR('',#207,1.);
#207 = DIRECTION('',(0.866025403784,-0.5,0.));
#208 = ORIENTED_EDGE('',*,*,#209,.F.);
#209 = EDGE_CURVE('',#210,#200,#212,.T.);
#210 = VERTEX_POINT('',#211);
#211 = CARTESIAN_POINT('',(1.200000000006,4.616580753727,0.));
#212 = LINE('',#213,#214);
#213 = CARTESIAN_POINT('',(1.200000000006,4.616580753727,0.));
#214 = VECTOR('',#215,1.);
#215 = DIRECTION('',(0.866025403784,0.5,0.));
#216 = ORIENTED_EDGE('',*,*,#217,.F.);
#217 = EDGE_CURVE('',#218,#210,#220,.T.);
#218 = VERTEX_POINT('',#219);
#219 = CARTESIAN_POINT('',(1.200000000006,1.383419246273,0.));
#220 = LINE('',#221,#222);
#221 = CARTESIAN_POINT('',(1.200000000006,1.383419246273,0.));
#222 = VECTOR('',#223,1.);
#223 = DIRECTION('',(0.,1.,0.));
#224 = ORIENTED_EDGE('',*,*,#225,.F.);
#225 = EDGE_CURVE('',#226,#218,#228,.T.);
#226 = VERTEX_POINT('',#227);
#227 = CARTESIAN_POINT('',(4.,-0.233161507454,0.));
#228 = LINE('',#229,#230);
#229 = CARTESIAN_POINT('',(4.,-0.233161507454,0.));
#230 = VECTOR('',#231,1.);
#231 = DIRECTION('',(-0.866025403784,0.5,-0.));
#232 = ORIENTED_EDGE('',*,*,#233,.F.);
#233 = EDGE_CURVE('',#234,#226,#236,.T.);
#234 = VERTEX_POINT('',#235);
#235 = CARTESIAN_POINT('',(6.799999999994,1.383419246273,0.));
#236 = LINE('',#237,#238);
#237 = CARTESIAN_POINT('',(6.799999999994,1.383419246273,0.));
#238 = VECTOR('',#239,1.);
#239 = DIRECTION('',(-0.866025403784,-0.5,0.));
#240 = ORIENTED_EDGE('',*,*,#241,.F.);
#241 = EDGE_CURVE('',#202,#234,#242,.T.);
#242 = LINE('',#243,#244);
#243 = CARTESIAN_POINT('',(6.799999999994,4.616580753727,0.));
#244 = VECTOR('',#245,1.);
#245 = DIRECTION('',(0.,-1.,0.));
#246 = FACE_BOUND('',#247,.T.);
#247 = EDGE_LOOP('',(#248));
#248 = ORIENTED_EDGE('',*,*,#249,.T.);
#249 = EDGE_CURVE('',#250,#250,#252,.T.);
#250 = VERTEX_POINT('',#251);
#251 = CARTESIAN_POINT('',(9.1,8.,0.));
#252 = CIRCLE('',#253,1.6);
#253 = AXIS2_PLACEMENT_3D('',#254,#255,#256);
#254 = CARTESIAN_POINT('',(7.5,8.,0.));
#255 = DIRECTION('',(0.,0.,1.));
#256 = DIRECTION('',(1.,0.,0.));
#257 = FACE_BOUND('',#258,.T.);
#258 = EDGE_LOOP('',(#259));
#259 = ORIENTED_EDGE('',*,*,#260,.T.);
#260 = EDGE_CURVE('',#261,#261,#263,.T.);
#261 = VERTEX_POINT('',#262);
#262 = CARTESIAN_POINT('',(-4.5,4.,0.));
#263 = CIRCLE('',#264,2.5);
#264 = AXIS2_PLACEMENT_3D('',#265,#266,#267);
#265 = CARTESIAN_POINT('',(-7.,4.,0.));
#266 = DIRECTION('',(0.,0.,1.));
#267 = DIRECTION('',(1.,0.,0.));
#268 = FACE_BOUND('',#269,.T.);
#269 = EDGE_LOOP('',(#270,#281,#290,#299,#308));
#270 = ORIENTED_EDGE('',*,*,#271,.F.);
#271 = EDGE_CURVE('',#272,#274,#276,.T.);
#272 = VERTEX_POINT('',#273);
#273 = CARTESIAN_POINT('',(-28.05,20.,-2.E-15));
#274 = VERTEX_POINT('',#275);
#275 = CARTESIAN_POINT('',(-26.6,22.59663243452,-2.E-15));
#276 = CIRCLE('',#277,3.05);
#277 = AXIS2_PLACEMENT_3D('',#278,#279,#280);
#278 = CARTESIAN_POINT('',(-25.,20.,-1.61E-15));
#279 = DIRECTION('',(0.,0.,-1.));
#280 = DIRECTION('',(-1.,0.,0.));
#281 = ORIENTED_EDGE('',*,*,#282,.F.);
#282 = EDGE_CURVE('',#283,#272,#285,.T.);
#283 = VERTEX_POINT('',#284);
#284 = CARTESIAN_POINT('',(-26.6,17.40336756548,-2.E-15));
#285 = CIRCLE('',#286,3.05);
#286 = AXIS2_PLACEMENT_3D('',#287,#288,#289);
#287 = CARTESIAN_POINT('',(-25.,20.,-1.61E-15));
#288 = DIRECTION('',(0.,0.,-1.));
#289 = DIRECTION('',(-1.,0.,0.));
#290 = ORIENTED_EDGE('',*,*,#291,.F.);
#291 = EDGE_CURVE('',#292,#283,#294,.T.);
#292 = VERTEX_POINT('',#293);
#293 = CARTESIAN_POINT('',(-23.4,17.40336756548,-2.E-15));
#294 = CIRCLE('',#295,3.05);
#295 = AXIS2_PLACEMENT_3D('',#296,#297,#298);
#296 = CARTESIAN_POINT('',(-25.,20.,-1.61E-15));
#297 = DIRECTION('',(0.,0.,-1.));
#298 = DIRECTION('',(-1.,0.,0.));
#299 = ORIENTED_EDGE('',*,*,#300,.F.);
#300 = EDGE_CURVE('',#301,#292,#303,.T.);
#301 = VERTEX_POINT('',#302);
#302 = CARTESIAN_POINT('',(-23.4,22.59663243452,-2.E-15));
#303 = CIRCLE('',#304,3.05);
#304 = AXIS2_PLACEMENT_3D('',#305,#306,#307);
#305 = CARTESIAN_POINT('',(-25.,20.,-1.61E-15));
#306 = DIRECTION('',(0.,0.,-1.));
#307 = DIRECTION('',(-1.,0.,0.));
#308 = ORIENTED_EDGE('',*,*,#309,.F.);
#309 = EDGE_CURVE('',#274,#301,#310,.T.);
#310 = CIRCLE('',#311,3.05);
#311 = AXIS2_PLACEMENT_3D('',#312,#313,#314);
#312 = CARTESIAN_POINT('',(-25.,20.,-1.61E-15));
#313 = DIRECTION('',(0.,0.,-1.));
#314 = DIRECTION('',(-1.,0.,0.));
#315 = FACE_BOUND('',#316,.T.);
#316 = EDGE_LOOP('',(#317,#328,#337,#346,#355));
#317 = ORIENTED_EDGE('',*,*,#318,.F.);
#318 = EDGE_CURVE('',#319,#321,#323,.T.);
#319 = VERTEX_POINT('',#320);
#320 = CARTESIAN_POINT('',(-43.05,20.,-2.E-15));
#321 = VERTEX_POINT('',#322);
#322 = CARTESIAN_POINT('',(-41.59999999999,22.596632434517,-2.E-15));
#323 = CIRCLE('',#324,3.05);
#324 = AXIS2_PLACEMENT_3D('',#325,#326,#327);
#325 = CARTESIAN_POINT('',(-40.,20.,-1.61E-15));
#326 = DIRECTION('',(0.,0.,-1.));
#327 = DIRECTION('',(-1.,0.,0.));
#328 = ORIENTED_EDGE('',*,*,#329,.F.);
#329 = EDGE_CURVE('',#330,#319,#332,.T.);
#330 = VERTEX_POINT('',#331);
#331 = CARTESIAN_POINT('',(-41.59999999994,17.403367565519,-2.E-15));
#332 = CIRCLE('',#333,3.05);
#333 = AXIS2_PLACEMENT_3D('',#334,#335,#336);
#334 = CARTESIAN_POINT('',(-40.,20.,-1.61E-15));
#335 = DIRECTION('',(0.,0.,-1.));
#336 = DIRECTION('',(-1.,0.,0.));
#337 = ORIENTED_EDGE('',*,*,#338,.F.);
#338 = EDGE_CURVE('',#339,#330,#341,.T.);
#339 = VERTEX_POINT('',#340);
#340 = CARTESIAN_POINT('',(-38.39999999999,17.403367565501,-2.E-15));
#341 = CIRCLE('',#342,3.05);
#342 = AXIS2_PLACEMENT_3D('',#343,#344,#345);
#343 = CARTESIAN_POINT('',(-40.,20.,-1.61E-15));
#344 = DIRECTION('',(0.,0.,-1.));
#345 = DIRECTION('',(-1.,0.,0.));
#346 = ORIENTED_EDGE('',*,*,#347,.F.);
#347 = EDGE_CURVE('',#348,#339,#350,.T.);
#348 = VERTEX_POINT('',#349);
#349 = CARTESIAN_POINT('',(-38.40000000004,22.596632434469,-2.E-15));
#350 = CIRCLE('',#351,3.05);
#351 = AXIS2_PLACEMENT_3D('',#352,#353,#354);
#352 = CARTESIAN_POINT('',(-40.,20.,-1.61E-15));
#353 = DIRECTION('',(0.,0.,-1.));
#354 = DIRECTION('',(-1.,0.,0.));
#355 = ORIENTED_EDGE('',*,*,#356,.F.);
#356 = EDGE_CURVE('',#321,#348,#357,.T.);
#357 = CIRCLE('',#358,3.05);
#358 = AXIS2_PLACEMENT_3D('',#359,#360,#361);
#359 = CARTESIAN_POINT('',(-40.,20.,-1.61E-15));
#360 = DIRECTION('',(0.,0.,-1.));
#361 = DIRECTION('',(-1.,0.,0.));
#362 = PLANE('',#363);
#363 = AXIS2_PLACEMENT_3D('',#364,#365,#366);
#364 = CARTESIAN_POINT('',(-13.35291958481,9.67219949389,-1.61E-15));
#365 = DIRECTION('',(-0.,-0.,-1.));
#366 = DIRECTION('',(-1.,0.,0.));
#367 = ADVANCED_FACE('',(#368),#393,.F.);
#368 = FACE_BOUND('',#369,.F.);
#369 = EDGE_LOOP('',(#370,#380,#386,#387));
#370 = ORIENTED_EDGE('',*,*,#371,.T.);
#371 = EDGE_CURVE('',#372,#374,#376,.T.);
#372 = VERTEX_POINT('',#373);
#373 = CARTESIAN_POINT('',(-42.,10.,4.));
#374 = VERTEX_POINT('',#375);
#375 = CARTESIAN_POINT('',(-15.,10.,4.));
#376 = LINE('',#377,#378);
#377 = CARTESIAN_POINT('',(-45.,10.,4.));
#378 = VECTOR('',#379,1.);
#379 = DIRECTION('',(1.,0.,0.));
#380 = ORIENTED_EDGE('',*,*,#381,.F.);
#381 = EDGE_CURVE('',#22,#374,#382,.T.);
#382 = LINE('',#383,#384);
#383 = CARTESIAN_POINT('',(-15.,10.,11.011904761905));
#384 = VECTOR('',#385,1.);
#385 = DIRECTION('',(0.,0.,1.));
#386 = ORIENTED_EDGE('',*,*,#21,.T.);
#387 = ORIENTED_EDGE('',*,*,#388,.T.);
#388 = EDGE_CURVE('',#24,#372,#389,.T.);
#389 = LINE('',#390,#391);
#390 = CARTESIAN_POINT('',(-42.,10.,6.7E-16));
#391 = VECTOR('',#392,1.);
#392 = DIRECTION('',(0.,2.2E-16,1.));
#393 = PLANE('',#394);
#394 = AXIS2_PLACEMENT_3D('',#395,#396,#397);
#395 = CARTESIAN_POINT('',(-16.77419354838,10.,2.774193548387));
#396 = DIRECTION('',(0.,1.,0.));
#397 = DIRECTION('',(0.,0.,1.));
#398 = ADVANCED_FACE('',(#399),#418,.T.);
#399 = FACE_BOUND('',#400,.F.);
#400 = EDGE_LOOP('',(#401,#402,#410,#417));
#401 = ORIENTED_EDGE('',*,*,#31,.T.);
#402 = ORIENTED_EDGE('',*,*,#403,.T.);
#403 = EDGE_CURVE('',#32,#404,#406,.T.);
#404 = VERTEX_POINT('',#405);
#405 = CARTESIAN_POINT('',(-45.,13.,4.));
#406 = LINE('',#407,#408);
#407 = CARTESIAN_POINT('',(-45.,13.,0.));
#408 = VECTOR('',#409,1.);
#409 = DIRECTION('',(0.,2.2E-16,1.));
#410 = ORIENTED_EDGE('',*,*,#411,.F.);
#411 = EDGE_CURVE('',#372,#404,#412,.T.);
#412 = CIRCLE('',#413,3.);
#413 = AXIS2_PLACEMENT_3D('',#414,#415,#416);
#414 = CARTESIAN_POINT('',(-42.,13.,4.));
#415 = DIRECTION('',(-0.,-2.2E-16,-1.));
#416 = DIRECTION('',(0.,-1.,2.2E-16));
#417 = ORIENTED_EDGE('',*,*,#388,.F.);
#418 = CYLINDRICAL_SURFACE('',#419,3.);
#419 = AXIS2_PLACEMENT_3D('',#420,#421,#422);
#420 = CARTESIAN_POINT('',(-42.,13.,0.));
#421 = DIRECTION('',(0.,2.2E-16,1.));
#422 = DIRECTION('',(0.,-1.,2.2E-16));
#423 = ADVANCED_FACE('',(#424),#474,.T.);
#424 = FACE_BOUND('',#425,.T.);
#425 = EDGE_LOOP('',(#426,#427,#428,#436,#444,#452,#460,#468));
#426 = ORIENTED_EDGE('',*,*,#381,.F.);
#427 = ORIENTED_EDGE('',*,*,#108,.T.);
#428 = ORIENTED_EDGE('',*,*,#429,.T.);
#429 = EDGE_CURVE('',#100,#430,#432,.T.);
#430 = VERTEX_POINT('',#431);
#431 = CARTESIAN_POINT('',(-15.,-17.,15.));
#432 = LINE('',#433,#434);
#433 = CARTESIAN_POINT('',(-15.,-17.,0.));
#434 = VECTOR('',#435,1.);
#435 = DIRECTION('',(0.,0.,1.));
#436 = ORIENTED_EDGE('',*,*,#437,.F.);
#437 = EDGE_CURVE('',#438,#430,#440,.T.);
#438 = VERTEX_POINT('',#439);
#439 = CARTESIAN_POINT('',(-15.,-4.5,15.));
#440 = LINE('',#441,#442);
#441 = CARTESIAN_POINT('',(-15.,-4.5,15.));
#442 = VECTOR('',#443,1.);
#443 = DIRECTION('',(0.,-1.,0.));
#444 = ORIENTED_EDGE('',*,*,#445,.F.);
#445 = EDGE_CURVE('',#446,#438,#448,.T.);
#446 = VERTEX_POINT('',#447);
#447 = CARTESIAN_POINT('',(-15.,-4.5,7.));
#448 = LINE('',#449,#450);
#449 = CARTESIAN_POINT('',(-15.,-4.5,7.));
#450 = VECTOR('',#451,1.);
#451 = DIRECTION('',(0.,0.,1.));
#452 = ORIENTED_EDGE('',*,*,#453,.T.);
#453 = EDGE_CURVE('',#446,#454,#456,.T.);
#454 = VERTEX_POINT('',#455);
#455 = CARTESIAN_POINT('',(-15.,30.,7.));
#456 = LINE('',#457,#458);
#457 = CARTESIAN_POINT('',(-15.,10.,7.));
#458 = VECTOR('',#459,1.);
#459 = DIRECTION('',(0.,1.,-2.2E-16));
#460 = ORIENTED_EDGE('',*,*,#461,.F.);
#461 = EDGE_CURVE('',#462,#454,#464,.T.);
#462 = VERTEX_POINT('',#463);
#463 = CARTESIAN_POINT('',(-15.,30.,4.));
#464 = LINE('',#465,#466);
#465 = CARTESIAN_POINT('',(-15.,30.,4.));
#466 = VECTOR('',#467,1.);
#467 = DIRECTION('',(0.,0.,1.));
#468 = ORIENTED_EDGE('',*,*,#469,.F.);
#469 = EDGE_CURVE('',#374,#462,#470,.T.);
#470 = LINE('',#471,#472);
#471 = CARTESIAN_POINT('',(-15.,10.,4.));
#472 = VECTOR('',#473,1.);
#473 = DIRECTION('',(0.,1.,-2.2E-16));
#474 = PLANE('',#475);
#475 = AXIS2_PLACEMENT_3D('',#476,#477,#478);
#476 = CARTESIAN_POINT('',(-15.,3.629032258065,5.91935483871));
#477 = DIRECTION('',(-1.,-0.,-0.));
#478 = DIRECTION('',(0.,0.,-1.));
#479 = ADVANCED_FACE('',(#480),#498,.F.);
#480 = FACE_BOUND('',#481,.F.);
#481 = EDGE_LOOP('',(#482,#483,#491,#497));
#482 = ORIENTED_EDGE('',*,*,#40,.T.);
#483 = ORIENTED_EDGE('',*,*,#484,.T.);
#484 = EDGE_CURVE('',#41,#485,#487,.T.);
#485 = VERTEX_POINT('',#486);
#486 = CARTESIAN_POINT('',(-45.,27.,4.));
#487 = LINE('',#488,#489);
#488 = CARTESIAN_POINT('',(-45.,27.,-4.44E-15));
#489 = VECTOR('',#490,1.);
#490 = DIRECTION('',(0.,2.2E-16,1.));
#491 = ORIENTED_EDGE('',*,*,#492,.F.);
#492 = EDGE_CURVE('',#404,#485,#493,.T.);
#493 = LINE('',#494,#495);
#494 = CARTESIAN_POINT('',(-45.,10.,4.));
#495 = VECTOR('',#496,1.);
#496 = DIRECTION('',(0.,1.,-2.2E-16));
#497 = ORIENTED_EDGE('',*,*,#403,.F.);
#498 = PLANE('',#499);
#499 = AXIS2_PLACEMENT_3D('',#500,#501,#502);
#500 = CARTESIAN_POINT('',(-45.,10.,0.));
#501 = DIRECTION('',(1.,0.,0.));
#502 = DIRECTION('',(0.,2.2E-16,1.));
#503 = ADVANCED_FACE('',(#504),#523,.T.);
#504 = FACE_BOUND('',#505,.F.);
#505 = EDGE_LOOP('',(#506,#507,#508,#517));
#506 = ORIENTED_EDGE('',*,*,#99,.T.);
#507 = ORIENTED_EDGE('',*,*,#429,.T.);
#508 = ORIENTED_EDGE('',*,*,#509,.F.);
#509 = EDGE_CURVE('',#510,#430,#512,.T.);
#510 = VERTEX_POINT('',#511);
#511 = CARTESIAN_POINT('',(-12.,-20.,15.));
#512 = CIRCLE('',#513,3.);
#513 = AXIS2_PLACEMENT_3D('',#514,#515,#516);
#514 = CARTESIAN_POINT('',(-12.,-17.,15.));
#515 = DIRECTION('',(-0.,-0.,-1.));
#516 = DIRECTION('',(0.,-1.,0.));
#517 = ORIENTED_EDGE('',*,*,#518,.F.);
#518 = EDGE_CURVE('',#92,#510,#519,.T.);
#519 = LINE('',#520,#521);
#520 = CARTESIAN_POINT('',(-12.,-20.,0.));
#521 = VECTOR('',#522,1.);
#522 = DIRECTION('',(0.,0.,1.));
#523 = CYLINDRICAL_SURFACE('',#524,3.);
#524 = AXIS2_PLACEMENT_3D('',#525,#526,#527);
#525 = CARTESIAN_POINT('',(-12.,-17.,0.));
#526 = DIRECTION('',(0.,0.,1.));
#527 = DIRECTION('',(0.,-1.,0.));
#528 = ADVANCED_FACE('',(#529),#548,.T.);
#529 = FACE_BOUND('',#530,.F.);
#530 = EDGE_LOOP('',(#531,#532,#540,#547));
#531 = ORIENTED_EDGE('',*,*,#48,.T.);
#532 = ORIENTED_EDGE('',*,*,#533,.T.);
#533 = EDGE_CURVE('',#49,#534,#536,.T.);
#534 = VERTEX_POINT('',#535);
#535 = CARTESIAN_POINT('',(-42.,30.,4.));
#536 = LINE('',#537,#538);
#537 = CARTESIAN_POINT('',(-42.,30.,-5.11E-15));
#538 = VECTOR('',#539,1.);
#539 = DIRECTION('',(0.,2.2E-16,1.));
#540 = ORIENTED_EDGE('',*,*,#541,.F.);
#541 = EDGE_CURVE('',#485,#534,#542,.T.);
#542 = CIRCLE('',#543,3.);
#543 = AXIS2_PLACEMENT_3D('',#544,#545,#546);
#544 = CARTESIAN_POINT('',(-42.,27.,4.));
#545 = DIRECTION('',(-0.,-2.2E-16,-1.));
#546 = DIRECTION('',(0.,-1.,2.2E-16));
#547 = ORIENTED_EDGE('',*,*,#484,.F.);
#548 = CYLINDRICAL_SURFACE('',#549,3.);
#549 = AXIS2_PLACEMENT_3D('',#550,#551,#552);
#550 = CARTESIAN_POINT('',(-42.,27.,-4.44E-15));
#551 = DIRECTION('',(0.,2.2E-16,1.));
#552 = DIRECTION('',(-1.,0.,0.));
#553 = ADVANCED_FACE('',(#554),#580,.T.);
#554 = FACE_BOUND('',#555,.T.);
#555 = EDGE_LOOP('',(#556,#564,#565,#566,#574));
#556 = ORIENTED_EDGE('',*,*,#557,.T.);
#557 = EDGE_CURVE('',#558,#510,#560,.T.);
#558 = VERTEX_POINT('',#559);
#559 = CARTESIAN_POINT('',(7.,-20.,15.));
#560 = LINE('',#561,#562);
#561 = CARTESIAN_POINT('',(7.,-20.,15.));
#562 = VECTOR('',#563,1.);
#563 = DIRECTION('',(-1.,0.,0.));
#564 = ORIENTED_EDGE('',*,*,#518,.F.);
#565 = ORIENTED_EDGE('',*,*,#91,.T.);
#566 = ORIENTED_EDGE('',*,*,#567,.T.);
#567 = EDGE_CURVE('',#83,#568,#570,.T.);
#568 = VERTEX_POINT('',#569);
#569 = CARTESIAN_POINT('',(7.,-20.,7.));
#570 = LINE('',#571,#572);
#571 = CARTESIAN_POINT('',(7.,-20.,0.));
#572 = VECTOR('',#573,1.);
#573 = DIRECTION('',(0.,0.,1.));
#574 = ORIENTED_EDGE('',*,*,#575,.T.);
#575 = EDGE_CURVE('',#568,#558,#576,.T.);
#576 = LINE('',#577,#578);
#577 = CARTESIAN_POINT('',(7.,-20.,7.));
#578 = VECTOR('',#579,1.);
#579 = DIRECTION('',(0.,0.,1.));
#580 = PLANE('',#581);
#581 = AXIS2_PLACEMENT_3D('',#582,#583,#584);
#582 = CARTESIAN_POINT('',(-2.8,-20.,7.2));
#583 = DIRECTION('',(-0.,-1.,-0.));
#584 = DIRECTION('',(0.,0.,-1.));
#585 = ADVANCED_FACE('',(#586),#611,.T.);
#586 = FACE_BOUND('',#587,.T.);
#587 = EDGE_LOOP('',(#588,#596,#602,#603,#604,#610));
#588 = ORIENTED_EDGE('',*,*,#589,.T.);
#589 = EDGE_CURVE('',#454,#590,#592,.T.);
#590 = VERTEX_POINT('',#591);
#591 = CARTESIAN_POINT('',(7.,30.,7.));
#592 = LINE('',#593,#594);
#593 = CARTESIAN_POINT('',(-15.,30.,7.));
#594 = VECTOR('',#595,1.);
#595 = DIRECTION('',(1.,0.,0.));
#596 = ORIENTED_EDGE('',*,*,#597,.T.);
#597 = EDGE_CURVE('',#590,#58,#598,.T.);
#598 = LINE('',#599,#600);
#599 = CARTESIAN_POINT('',(7.,30.,7.));
#600 = VECTOR('',#601,1.);
#601 = DIRECTION('',(0.,-2.2E-16,-1.));
#602 = ORIENTED_EDGE('',*,*,#57,.T.);
#603 = ORIENTED_EDGE('',*,*,#533,.T.);
#604 = ORIENTED_EDGE('',*,*,#605,.T.);
#605 = EDGE_CURVE('',#534,#462,#606,.T.);
#606 = LINE('',#607,#608);
#607 = CARTESIAN_POINT('',(-45.,30.,4.));
#608 = VECTOR('',#609,1.);
#609 = DIRECTION('',(1.,0.,0.));
#610 = ORIENTED_EDGE('',*,*,#461,.T.);
#611 = PLANE('',#612);
#612 = AXIS2_PLACEMENT_3D('',#613,#614,#615);
#613 = CARTESIAN_POINT('',(-16.77419354838,30.,2.774193548387));
#614 = DIRECTION('',(0.,1.,0.));
#615 = DIRECTION('',(0.,0.,1.));
#616 = ADVANCED_FACE('',(#617),#636,.T.);
#617 = FACE_BOUND('',#618,.F.);
#618 = EDGE_LOOP('',(#619,#620,#621,#630));
#619 = ORIENTED_EDGE('',*,*,#82,.T.);
#620 = ORIENTED_EDGE('',*,*,#567,.T.);
#621 = ORIENTED_EDGE('',*,*,#622,.F.);
#622 = EDGE_CURVE('',#623,#568,#625,.T.);
#623 = VERTEX_POINT('',#624);
#624 = CARTESIAN_POINT('',(10.,-17.,7.));
#625 = CIRCLE('',#626,3.);
#626 = AXIS2_PLACEMENT_3D('',#627,#628,#629);
#627 = CARTESIAN_POINT('',(7.,-17.,7.));
#628 = DIRECTION('',(-0.,-0.,-1.));
#629 = DIRECTION('',(0.,-1.,0.));
#630 = ORIENTED_EDGE('',*,*,#631,.F.);
#631 = EDGE_CURVE('',#75,#623,#632,.T.);
#632 = LINE('',#633,#634);
#633 = CARTESIAN_POINT('',(10.,-17.,0.));
#634 = VECTOR('',#635,1.);
#635 = DIRECTION('',(0.,0.,1.));
#636 = CYLINDRICAL_SURFACE('',#637,3.);
#637 = AXIS2_PLACEMENT_3D('',#638,#639,#640);
#638 = CARTESIAN_POINT('',(7.,-17.,0.));
#639 = DIRECTION('',(0.,0.,1.));
#640 = DIRECTION('',(1.,0.,0.));
#641 = ADVANCED_FACE('',(#642),#661,.T.);
#642 = FACE_BOUND('',#643,.F.);
#643 = EDGE_LOOP('',(#644,#653,#654,#655));
#644 = ORIENTED_EDGE('',*,*,#645,.T.);
#645 = EDGE_CURVE('',#646,#590,#648,.T.);
#646 = VERTEX_POINT('',#647);
#647 = CARTESIAN_POINT('',(10.,27.,7.));
#648 = CIRCLE('',#649,3.);
#649 = AXIS2_PLACEMENT_3D('',#650,#651,#652);
#650 = CARTESIAN_POINT('',(7.,27.,7.));
#651 = DIRECTION('',(0.,2.2E-16,1.));
#652 = DIRECTION('',(0.,1.,-2.2E-16));
#653 = ORIENTED_EDGE('',*,*,#597,.T.);
#654 = ORIENTED_EDGE('',*,*,#65,.F.);
#655 = ORIENTED_EDGE('',*,*,#656,.F.);
#656 = EDGE_CURVE('',#646,#66,#657,.T.);
#657 = LINE('',#658,#659);
#658 = CARTESIAN_POINT('',(10.,27.,7.));
#659 = VECTOR('',#660,1.);
#660 = DIRECTION('',(0.,-2.2E-16,-1.));
#661 = CYLINDRICAL_SURFACE('',#662,3.);
#662 = AXIS2_PLACEMENT_3D('',#663,#664,#665);
#663 = CARTESIAN_POINT('',(7.,27.,7.));
#664 = DIRECTION('',(0.,-2.2E-16,-1.));
#665 = DIRECTION('',(1.,0.,0.));
#666 = ADVANCED_FACE('',(#667),#678,.T.);
#667 = FACE_BOUND('',#668,.T.);
#668 = EDGE_LOOP('',(#669,#670,#671,#677));
#669 = ORIENTED_EDGE('',*,*,#74,.T.);
#670 = ORIENTED_EDGE('',*,*,#656,.F.);
#671 = ORIENTED_EDGE('',*,*,#672,.F.);
#672 = EDGE_CURVE('',#623,#646,#673,.T.);
#673 = LINE('',#674,#675);
#674 = CARTESIAN_POINT('',(10.,10.,7.));
#675 = VECTOR('',#676,1.);
#676 = DIRECTION('',(0.,1.,-2.2E-16));
#677 = ORIENTED_EDGE('',*,*,#631,.F.);
#678 = PLANE('',#679);
#679 = AXIS2_PLACEMENT_3D('',#680,#681,#682);
#680 = CARTESIAN_POINT('',(10.,6.5,3.5));
#681 = DIRECTION('',(1.,0.,0.));
#682 = DIRECTION('',(0.,0.,1.));
#683 = ADVANCED_FACE('',(#684),#702,.F.);
#684 = FACE_BOUND('',#685,.T.);
#685 = EDGE_LOOP('',(#686,#687,#694,#701));
#686 = ORIENTED_EDGE('',*,*,#116,.F.);
#687 = ORIENTED_EDGE('',*,*,#688,.F.);
#688 = EDGE_CURVE('',#689,#117,#691,.T.);
#689 = VERTEX_POINT('',#690);
#690 = CARTESIAN_POINT('',(3.5,-10.,15.));
#691 = B_SPLINE_CURVE_WITH_KNOTS('',1,(#692,#693),.UNSPECIFIED.,.F.,.F.,
  (2,2),(-15.,0.),.PIECEWISE_BEZIER_KNOTS.);
#692 = CARTESIAN_POINT('',(3.5,-10.,15.));
#693 = CARTESIAN_POINT('',(3.5,-10.,0.));
#694 = ORIENTED_EDGE('',*,*,#695,.T.);
#695 = EDGE_CURVE('',#689,#689,#696,.T.);
#696 = CIRCLE('',#697,2.5);
#697 = AXIS2_PLACEMENT_3D('',#698,#699,#700);
#698 = CARTESIAN_POINT('',(1.,-10.,15.));
#699 = DIRECTION('',(0.,0.,1.));
#700 = DIRECTION('',(1.,0.,0.));
#701 = ORIENTED_EDGE('',*,*,#688,.T.);
#702 = CYLINDRICAL_SURFACE('',#703,2.5);
#703 = AXIS2_PLACEMENT_3D('',#704,#705,#706);
#704 = CARTESIAN_POINT('',(1.,-10.,0.));
#705 = DIRECTION('',(-0.,-0.,-1.));
#706 = DIRECTION('',(1.,0.,0.));
#707 = ADVANCED_FACE('',(#708),#733,.F.);
#708 = FACE_BOUND('',#709,.F.);
#709 = EDGE_LOOP('',(#710,#718,#726,#732));
#710 = ORIENTED_EDGE('',*,*,#711,.T.);
#711 = EDGE_CURVE('',#128,#712,#714,.T.);
#712 = VERTEX_POINT('',#713);
#713 = CARTESIAN_POINT('',(-8.199999999941,-14.38341924622,3.));
#714 = LINE('',#715,#716);
#715 = CARTESIAN_POINT('',(-8.199999999941,-14.38341924622,0.));
#716 = VECTOR('',#717,1.);
#717 = DIRECTION('',(0.,0.,1.));
#718 = ORIENTED_EDGE('',*,*,#719,.T.);
#719 = EDGE_CURVE('',#712,#720,#722,.T.);
#720 = VERTEX_POINT('',#721);
#721 = CARTESIAN_POINT('',(-8.200000000005,-17.61658075372,3.));
#722 = LINE('',#723,#724);
#723 = CARTESIAN_POINT('',(-8.199999999941,-14.38341924622,3.));
#724 = VECTOR('',#725,1.);
#725 = DIRECTION('',(-1.975322E-11,-1.,0.));
#726 = ORIENTED_EDGE('',*,*,#727,.F.);
#727 = EDGE_CURVE('',#130,#720,#728,.T.);
#728 = LINE('',#729,#730);
#729 = CARTESIAN_POINT('',(-8.200000000005,-17.61658075372,0.));
#730 = VECTOR('',#731,1.);
#731 = DIRECTION('',(0.,0.,1.));
#732 = ORIENTED_EDGE('',*,*,#127,.F.);
#733 = PLANE('',#734);
#734 = AXIS2_PLACEMENT_3D('',#735,#736,#737);
#735 = CARTESIAN_POINT('',(-8.199999999941,-14.38341924622,0.));
#736 = DIRECTION('',(1.,-1.975322E-11,0.));
#737 = DIRECTION('',(-1.975322E-11,-1.,0.));
#738 = ADVANCED_FACE('',(#739),#757,.F.);
#739 = FACE_BOUND('',#740,.F.);
#740 = EDGE_LOOP('',(#741,#749,#755,#756));
#741 = ORIENTED_EDGE('',*,*,#742,.T.);
#742 = EDGE_CURVE('',#138,#743,#745,.T.);
#743 = VERTEX_POINT('',#744);
#744 = CARTESIAN_POINT('',(-11.00000000001,-12.7668384925,3.));
#745 = LINE('',#746,#747);
#746 = CARTESIAN_POINT('',(-11.00000000001,-12.7668384925,0.));
#747 = VECTOR('',#748,1.);
#748 = DIRECTION('',(0.,0.,1.));
#749 = ORIENTED_EDGE('',*,*,#750,.T.);
#750 = EDGE_CURVE('',#743,#712,#751,.T.);
#751 = LINE('',#752,#753);
#752 = CARTESIAN_POINT('',(-11.00000000001,-12.7668384925,3.));
#753 = VECTOR('',#754,1.);
#754 = DIRECTION('',(0.866025403792,-0.499999999986,0.));
#755 = ORIENTED_EDGE('',*,*,#711,.F.);
#756 = ORIENTED_EDGE('',*,*,#137,.F.);
#757 = PLANE('',#758);
#758 = AXIS2_PLACEMENT_3D('',#759,#760,#761);
#759 = CARTESIAN_POINT('',(-11.00000000001,-12.7668384925,0.));
#760 = DIRECTION('',(0.499999999986,0.866025403792,0.));
#761 = DIRECTION('',(0.866025403792,-0.499999999986,0.));
#762 = ADVANCED_FACE('',(#763),#781,.F.);
#763 = FACE_BOUND('',#764,.F.);
#764 = EDGE_LOOP('',(#765,#766,#774,#780));
#765 = ORIENTED_EDGE('',*,*,#727,.T.);
#766 = ORIENTED_EDGE('',*,*,#767,.T.);
#767 = EDGE_CURVE('',#720,#768,#770,.T.);
#768 = VERTEX_POINT('',#769);
#769 = CARTESIAN_POINT('',(-11.,-19.23316150745,3.));
#770 = LINE('',#771,#772);
#771 = CARTESIAN_POINT('',(-8.200000000005,-17.61658075372,3.));
#772 = VECTOR('',#773,1.);
#773 = DIRECTION('',(-0.866025403785,-0.499999999999,0.));
#774 = ORIENTED_EDGE('',*,*,#775,.F.);
#775 = EDGE_CURVE('',#162,#768,#776,.T.);
#776 = LINE('',#777,#778);
#777 = CARTESIAN_POINT('',(-11.,-19.23316150745,0.));
#778 = VECTOR('',#779,1.);
#779 = DIRECTION('',(0.,0.,1.));
#780 = ORIENTED_EDGE('',*,*,#169,.F.);
#781 = PLANE('',#782);
#782 = AXIS2_PLACEMENT_3D('',#783,#784,#785);
#783 = CARTESIAN_POINT('',(-8.200000000005,-17.61658075372,0.));
#784 = DIRECTION('',(0.499999999999,-0.866025403785,0.));
#785 = DIRECTION('',(-0.866025403785,-0.499999999999,0.));
#786 = ADVANCED_FACE('',(#787),#805,.F.);
#787 = FACE_BOUND('',#788,.F.);
#788 = EDGE_LOOP('',(#789,#797,#803,#804));
#789 = ORIENTED_EDGE('',*,*,#790,.T.);
#790 = EDGE_CURVE('',#146,#791,#793,.T.);
#791 = VERTEX_POINT('',#792);
#792 = CARTESIAN_POINT('',(-13.8,-14.38341924626,3.));
#793 = LINE('',#794,#795);
#794 = CARTESIAN_POINT('',(-13.8,-14.38341924626,0.));
#795 = VECTOR('',#796,1.);
#796 = DIRECTION('',(0.,0.,1.));
#797 = ORIENTED_EDGE('',*,*,#798,.T.);
#798 = EDGE_CURVE('',#791,#743,#799,.T.);
#799 = LINE('',#800,#801);
#800 = CARTESIAN_POINT('',(-13.8,-14.38341924626,3.));
#801 = VECTOR('',#802,1.);
#802 = DIRECTION('',(0.86602540378,0.500000000008,0.));
#803 = ORIENTED_EDGE('',*,*,#742,.F.);
#804 = ORIENTED_EDGE('',*,*,#145,.F.);
#805 = PLANE('',#806);
#806 = AXIS2_PLACEMENT_3D('',#807,#808,#809);
#807 = CARTESIAN_POINT('',(-13.8,-14.38341924626,0.));
#808 = DIRECTION('',(-0.500000000008,0.86602540378,0.));
#809 = DIRECTION('',(0.86602540378,0.500000000008,0.));
#810 = ADVANCED_FACE('',(#811),#829,.F.);
#811 = FACE_BOUND('',#812,.F.);
#812 = EDGE_LOOP('',(#813,#814,#822,#828));
#813 = ORIENTED_EDGE('',*,*,#775,.T.);
#814 = ORIENTED_EDGE('',*,*,#815,.T.);
#815 = EDGE_CURVE('',#768,#816,#818,.T.);
#816 = VERTEX_POINT('',#817);
#817 = CARTESIAN_POINT('',(-13.8,-17.61658075372,3.));
#818 = LINE('',#819,#820);
#819 = CARTESIAN_POINT('',(-11.,-19.23316150745,3.));
#820 = VECTOR('',#821,1.);
#821 = DIRECTION('',(-0.866025403784,0.5,-0.));
#822 = ORIENTED_EDGE('',*,*,#823,.F.);
#823 = EDGE_CURVE('',#154,#816,#824,.T.);
#824 = LINE('',#825,#826);
#825 = CARTESIAN_POINT('',(-13.8,-17.61658075372,0.));
#826 = VECTOR('',#827,1.);
#827 = DIRECTION('',(0.,0.,1.));
#828 = ORIENTED_EDGE('',*,*,#161,.F.);
#829 = PLANE('',#830);
#830 = AXIS2_PLACEMENT_3D('',#831,#832,#833);
#831 = CARTESIAN_POINT('',(-11.,-19.23316150745,0.));
#832 = DIRECTION('',(-0.5,-0.866025403784,0.));
#833 = DIRECTION('',(-0.866025403784,0.5,0.));
#834 = ADVANCED_FACE('',(#835),#846,.F.);
#835 = FACE_BOUND('',#836,.F.);
#836 = EDGE_LOOP('',(#837,#838,#844,#845));
#837 = ORIENTED_EDGE('',*,*,#823,.T.);
#838 = ORIENTED_EDGE('',*,*,#839,.T.);
#839 = EDGE_CURVE('',#816,#791,#840,.T.);
#840 = LINE('',#841,#842);
#841 = CARTESIAN_POINT('',(-13.8,-17.61658075372,3.));
#842 = VECTOR('',#843,1.);
#843 = DIRECTION('',(0.,1.,0.));
#844 = ORIENTED_EDGE('',*,*,#790,.F.);
#845 = ORIENTED_EDGE('',*,*,#153,.F.);
#846 = PLANE('',#847);
#847 = AXIS2_PLACEMENT_3D('',#848,#849,#850);
#848 = CARTESIAN_POINT('',(-13.8,-17.61658075372,0.));
#849 = DIRECTION('',(-1.,0.,0.));
#850 = DIRECTION('',(0.,1.,0.));
#851 = ADVANCED_FACE('',(#852),#871,.F.);
#852 = FACE_BOUND('',#853,.T.);
#853 = EDGE_LOOP('',(#854,#862,#869,#870));
#854 = ORIENTED_EDGE('',*,*,#855,.T.);
#855 = EDGE_CURVE('',#178,#856,#858,.T.);
#856 = VERTEX_POINT('',#857);
#857 = CARTESIAN_POINT('',(9.1,-8.,7.));
#858 = LINE('',#859,#860);
#859 = CARTESIAN_POINT('',(9.1,-8.,0.));
#860 = VECTOR('',#861,1.);
#861 = DIRECTION('',(0.,0.,1.));
#862 = ORIENTED_EDGE('',*,*,#863,.T.);
#863 = EDGE_CURVE('',#856,#856,#864,.T.);
#864 = CIRCLE('',#865,1.6);
#865 = AXIS2_PLACEMENT_3D('',#866,#867,#868);
#866 = CARTESIAN_POINT('',(7.5,-8.,7.));
#867 = DIRECTION('',(0.,0.,1.));
#868 = DIRECTION('',(1.,0.,0.));
#869 = ORIENTED_EDGE('',*,*,#855,.F.);
#870 = ORIENTED_EDGE('',*,*,#177,.F.);
#871 = CYLINDRICAL_SURFACE('',#872,1.6);
#872 = AXIS2_PLACEMENT_3D('',#873,#874,#875);
#873 = CARTESIAN_POINT('',(7.5,-8.,0.));
#874 = DIRECTION('',(-0.,-0.,-1.));
#875 = DIRECTION('',(1.,0.,0.));
#876 = ADVANCED_FACE('',(#877),#896,.F.);
#877 = FACE_BOUND('',#878,.T.);
#878 = EDGE_LOOP('',(#879,#887,#894,#895));
#879 = ORIENTED_EDGE('',*,*,#880,.T.);
#880 = EDGE_CURVE('',#189,#881,#883,.T.);
#881 = VERTEX_POINT('',#882);
#882 = CARTESIAN_POINT('',(-5.9,-8.,7.));
#883 = LINE('',#884,#885);
#884 = CARTESIAN_POINT('',(-5.9,-8.,0.));
#885 = VECTOR('',#886,1.);
#886 = DIRECTION('',(0.,0.,1.));
#887 = ORIENTED_EDGE('',*,*,#888,.T.);
#888 = EDGE_CURVE('',#881,#881,#889,.T.);
#889 = CIRCLE('',#890,1.6);
#890 = AXIS2_PLACEMENT_3D('',#891,#892,#893);
#891 = CARTESIAN_POINT('',(-7.5,-8.,7.));
#892 = DIRECTION('',(0.,0.,1.));
#893 = DIRECTION('',(1.,0.,0.));
#894 = ORIENTED_EDGE('',*,*,#880,.F.);
#895 = ORIENTED_EDGE('',*,*,#188,.F.);
#896 = CYLINDRICAL_SURFACE('',#897,1.6);
#897 = AXIS2_PLACEMENT_3D('',#898,#899,#900);
#898 = CARTESIAN_POINT('',(-7.5,-8.,0.));
#899 = DIRECTION('',(-0.,-0.,-1.));
#900 = DIRECTION('',(1.,0.,0.));
#901 = ADVANCED_FACE('',(#902),#927,.F.);
#902 = FACE_BOUND('',#903,.F.);
#903 = EDGE_LOOP('',(#904,#912,#920,#926));
#904 = ORIENTED_EDGE('',*,*,#905,.T.);
#905 = EDGE_CURVE('',#200,#906,#908,.T.);
#906 = VERTEX_POINT('',#907);
#907 = CARTESIAN_POINT('',(4.,6.233161507454,3.));
#908 = LINE('',#909,#910);
#909 = CARTESIAN_POINT('',(4.,6.233161507454,0.));
#910 = VECTOR('',#911,1.);
#911 = DIRECTION('',(0.,0.,1.));
#912 = ORIENTED_EDGE('',*,*,#913,.T.);
#913 = EDGE_CURVE('',#906,#914,#916,.T.);
#914 = VERTEX_POINT('',#915);
#915 = CARTESIAN_POINT('',(6.799999999994,4.616580753727,3.));
#916 = LINE('',#917,#918);
#917 = CARTESIAN_POINT('',(4.,6.233161507454,3.));
#918 = VECTOR('',#919,1.);
#919 = DIRECTION('',(0.866025403784,-0.5,0.));
#920 = ORIENTED_EDGE('',*,*,#921,.F.);
#921 = EDGE_CURVE('',#202,#914,#922,.T.);
#922 = LINE('',#923,#924);
#923 = CARTESIAN_POINT('',(6.799999999994,4.616580753727,0.));
#924 = VECTOR('',#925,1.);
#925 = DIRECTION('',(0.,0.,1.));
#926 = ORIENTED_EDGE('',*,*,#199,.F.);
#927 = PLANE('',#928);
#928 = AXIS2_PLACEMENT_3D('',#929,#930,#931);
#929 = CARTESIAN_POINT('',(4.,6.233161507454,0.));
#930 = DIRECTION('',(0.5,0.866025403784,0.));
#931 = DIRECTION('',(0.866025403784,-0.5,0.));
#932 = ADVANCED_FACE('',(#933),#951,.F.);
#933 = FACE_BOUND('',#934,.F.);
#934 = EDGE_LOOP('',(#935,#943,#949,#950));
#935 = ORIENTED_EDGE('',*,*,#936,.T.);
#936 = EDGE_CURVE('',#210,#937,#939,.T.);
#937 = VERTEX_POINT('',#938);
#938 = CARTESIAN_POINT('',(1.200000000006,4.616580753727,3.));
#939 = LINE('',#940,#941);
#940 = CARTESIAN_POINT('',(1.200000000006,4.616580753727,0.));
#941 = VECTOR('',#942,1.);
#942 = DIRECTION('',(0.,0.,1.));
#943 = ORIENTED_EDGE('',*,*,#944,.T.);
#944 = EDGE_CURVE('',#937,#906,#945,.T.);
#945 = LINE('',#946,#947);
#946 = CARTESIAN_POINT('',(1.200000000006,4.616580753727,3.));
#947 = VECTOR('',#948,1.);
#948 = DIRECTION('',(0.866025403784,0.5,0.));
#949 = ORIENTED_EDGE('',*,*,#905,.F.);
#950 = ORIENTED_EDGE('',*,*,#209,.F.);
#951 = PLANE('',#952);
#952 = AXIS2_PLACEMENT_3D('',#953,#954,#955);
#953 = CARTESIAN_POINT('',(1.200000000006,4.616580753727,0.));
#954 = DIRECTION('',(-0.5,0.866025403784,0.));
#955 = DIRECTION('',(0.866025403784,0.5,0.));
#956 = ADVANCED_FACE('',(#957),#975,.F.);
#957 = FACE_BOUND('',#958,.F.);
#958 = EDGE_LOOP('',(#959,#960,#968,#974));
#959 = ORIENTED_EDGE('',*,*,#921,.T.);
#960 = ORIENTED_EDGE('',*,*,#961,.T.);
#961 = EDGE_CURVE('',#914,#962,#964,.T.);
#962 = VERTEX_POINT('',#963);
#963 = CARTESIAN_POINT('',(6.799999999994,1.383419246273,3.));
#964 = LINE('',#965,#966);
#965 = CARTESIAN_POINT('',(6.799999999994,4.616580753727,3.));
#966 = VECTOR('',#967,1.);
#967 = DIRECTION('',(0.,-1.,0.));
#968 = ORIENTED_EDGE('',*,*,#969,.F.);
#969 = EDGE_CURVE('',#234,#962,#970,.T.);
#970 = LINE('',#971,#972);
#971 = CARTESIAN_POINT('',(6.799999999994,1.383419246273,0.));
#972 = VECTOR('',#973,1.);
#973 = DIRECTION('',(0.,0.,1.));
#974 = ORIENTED_EDGE('',*,*,#241,.F.);
#975 = PLANE('',#976);
#976 = AXIS2_PLACEMENT_3D('',#977,#978,#979);
#977 = CARTESIAN_POINT('',(6.799999999994,4.616580753727,0.));
#978 = DIRECTION('',(1.,0.,0.));
#979 = DIRECTION('',(0.,-1.,0.));
#980 = ADVANCED_FACE('',(#981),#999,.F.);
#981 = FACE_BOUND('',#982,.F.);
#982 = EDGE_LOOP('',(#983,#991,#997,#998));
#983 = ORIENTED_EDGE('',*,*,#984,.T.);
#984 = EDGE_CURVE('',#218,#985,#987,.T.);
#985 = VERTEX_POINT('',#986);
#986 = CARTESIAN_POINT('',(1.200000000006,1.383419246273,3.));
#987 = LINE('',#988,#989);
#988 = CARTESIAN_POINT('',(1.200000000006,1.383419246273,0.));
#989 = VECTOR('',#990,1.);
#990 = DIRECTION('',(0.,0.,1.));
#991 = ORIENTED_EDGE('',*,*,#992,.T.);
#992 = EDGE_CURVE('',#985,#937,#993,.T.);
#993 = LINE('',#994,#995);
#994 = CARTESIAN_POINT('',(1.200000000006,1.383419246273,3.));
#995 = VECTOR('',#996,1.);
#996 = DIRECTION('',(0.,1.,0.));
#997 = ORIENTED_EDGE('',*,*,#936,.F.);
#998 = ORIENTED_EDGE('',*,*,#217,.F.);
#999 = PLANE('',#1000);
#1000 = AXIS2_PLACEMENT_3D('',#1001,#1002,#1003);
#1001 = CARTESIAN_POINT('',(1.200000000006,1.383419246273,0.));
#1002 = DIRECTION('',(-1.,0.,0.));
#1003 = DIRECTION('',(0.,1.,0.));
#1004 = ADVANCED_FACE('',(#1005),#1023,.F.);
#1005 = FACE_BOUND('',#1006,.F.);
#1006 = EDGE_LOOP('',(#1007,#1008,#1016,#1022));
#1007 = ORIENTED_EDGE('',*,*,#969,.T.);
#1008 = ORIENTED_EDGE('',*,*,#1009,.T.);
#1009 = EDGE_CURVE('',#962,#1010,#1012,.T.);
#1010 = VERTEX_POINT('',#1011);
#1011 = CARTESIAN_POINT('',(4.,-0.233161507454,3.));
#1012 = LINE('',#1013,#1014);
#1013 = CARTESIAN_POINT('',(6.799999999994,1.383419246273,3.));
#1014 = VECTOR('',#1015,1.);
#1015 = DIRECTION('',(-0.866025403784,-0.5,0.));
#1016 = ORIENTED_EDGE('',*,*,#1017,.F.);
#1017 = EDGE_CURVE('',#226,#1010,#1018,.T.);
#1018 = LINE('',#1019,#1020);
#1019 = CARTESIAN_POINT('',(4.,-0.233161507454,0.));
#1020 = VECTOR('',#1021,1.);
#1021 = DIRECTION('',(0.,0.,1.));
#1022 = ORIENTED_EDGE('',*,*,#233,.F.);
#1023 = PLANE('',#1024);
#1024 = AXIS2_PLACEMENT_3D('',#1025,#1026,#1027);
#1025 = CARTESIAN_POINT('',(6.799999999994,1.383419246273,0.));
#1026 = DIRECTION('',(0.5,-0.866025403784,0.));
#1027 = DIRECTION('',(-0.866025403784,-0.5,0.));
#1028 = ADVANCED_FACE('',(#1029),#1040,.F.);
#1029 = FACE_BOUND('',#1030,.F.);
#1030 = EDGE_LOOP('',(#1031,#1032,#1038,#1039));
#1031 = ORIENTED_EDGE('',*,*,#1017,.T.);
#1032 = ORIENTED_EDGE('',*,*,#1033,.T.);
#1033 = EDGE_CURVE('',#1010,#985,#1034,.T.);
#1034 = LINE('',#1035,#1036);
#1035 = CARTESIAN_POINT('',(4.,-0.233161507454,3.));
#1036 = VECTOR('',#1037,1.);
#1037 = DIRECTION('',(-0.866025403784,0.5,-0.));
#1038 = ORIENTED_EDGE('',*,*,#984,.F.);
#1039 = ORIENTED_EDGE('',*,*,#225,.F.);
#1040 = PLANE('',#1041);
#1041 = AXIS2_PLACEMENT_3D('',#1042,#1043,#1044);
#1042 = CARTESIAN_POINT('',(4.,-0.233161507454,0.));
#1043 = DIRECTION('',(-0.5,-0.866025403784,0.));
#1044 = DIRECTION('',(-0.866025403784,0.5,0.));
#1045 = ADVANCED_FACE('',(#1046),#1065,.F.);
#1046 = FACE_BOUND('',#1047,.T.);
#1047 = EDGE_LOOP('',(#1048,#1056,#1063,#1064));
#1048 = ORIENTED_EDGE('',*,*,#1049,.T.);
#1049 = EDGE_CURVE('',#250,#1050,#1052,.T.);
#1050 = VERTEX_POINT('',#1051);
#1051 = CARTESIAN_POINT('',(9.1,8.,7.));
#1052 = LINE('',#1053,#1054);
#1053 = CARTESIAN_POINT('',(9.1,8.,0.));
#1054 = VECTOR('',#1055,1.);
#1055 = DIRECTION('',(0.,0.,1.));
#1056 = ORIENTED_EDGE('',*,*,#1057,.T.);
#1057 = EDGE_CURVE('',#1050,#1050,#1058,.T.);
#1058 = CIRCLE('',#1059,1.6);
#1059 = AXIS2_PLACEMENT_3D('',#1060,#1061,#1062);
#1060 = CARTESIAN_POINT('',(7.5,8.,7.));
#1061 = DIRECTION('',(0.,0.,1.));
#1062 = DIRECTION('',(1.,0.,0.));
#1063 = ORIENTED_EDGE('',*,*,#1049,.F.);
#1064 = ORIENTED_EDGE('',*,*,#249,.F.);
#1065 = CYLINDRICAL_SURFACE('',#1066,1.6);
#1066 = AXIS2_PLACEMENT_3D('',#1067,#1068,#1069);
#1067 = CARTESIAN_POINT('',(7.5,8.,0.));
#1068 = DIRECTION('',(-0.,-0.,-1.));
#1069 = DIRECTION('',(1.,0.,0.));
#1070 = ADVANCED_FACE('',(#1071),#1090,.F.);
#1071 = FACE_BOUND('',#1072,.T.);
#1072 = EDGE_LOOP('',(#1073,#1081,#1088,#1089));
#1073 = ORIENTED_EDGE('',*,*,#1074,.T.);
#1074 = EDGE_CURVE('',#261,#1075,#1077,.T.);
#1075 = VERTEX_POINT('',#1076);
#1076 = CARTESIAN_POINT('',(-4.5,4.,7.));
#1077 = LINE('',#1078,#1079);
#1078 = CARTESIAN_POINT('',(-4.5,4.,0.));
#1079 = VECTOR('',#1080,1.);
#1080 = DIRECTION('',(0.,0.,1.));
#1081 = ORIENTED_EDGE('',*,*,#1082,.T.);
#1082 = EDGE_CURVE('',#1075,#1075,#1083,.T.);
#1083 = CIRCLE('',#1084,2.5);
#1084 = AXIS2_PLACEMENT_3D('',#1085,#1086,#1087);
#1085 = CARTESIAN_POINT('',(-7.,4.,7.));
#1086 = DIRECTION('',(0.,0.,1.));
#1087 = DIRECTION('',(1.,0.,0.));
#1088 = ORIENTED_EDGE('',*,*,#1074,.F.);
#1089 = ORIENTED_EDGE('',*,*,#260,.F.);
#1090 = CYLINDRICAL_SURFACE('',#1091,2.5);
#1091 = AXIS2_PLACEMENT_3D('',#1092,#1093,#1094);
#1092 = CARTESIAN_POINT('',(-7.,4.,0.));
#1093 = DIRECTION('',(-0.,-0.,-1.));
#1094 = DIRECTION('',(1.,0.,0.));
#1095 = ADVANCED_FACE('',(#1096),#1186,.F.);
#1096 = FACE_BOUND('',#1097,.T.);
#1097 = EDGE_LOOP('',(#1098,#1108,#1117,#1125,#1134,#1142,#1151,#1156,
    #1157,#1158,#1159,#1160,#1161,#1162,#1171,#1179));
#1098 = ORIENTED_EDGE('',*,*,#1099,.F.);
#1099 = EDGE_CURVE('',#1100,#1102,#1104,.T.);
#1100 = VERTEX_POINT('',#1101);
#1101 = CARTESIAN_POINT('',(-23.4,17.40336756548,1.));
#1102 = VERTEX_POINT('',#1103);
#1103 = CARTESIAN_POINT('',(-23.4,17.40336756548,1.2));
#1104 = LINE('',#1105,#1106);
#1105 = CARTESIAN_POINT('',(-23.4,17.40336756548,-1.61E-15));
#1106 = VECTOR('',#1107,1.);
#1107 = DIRECTION('',(0.,0.,1.));
#1108 = ORIENTED_EDGE('',*,*,#1109,.F.);
#1109 = EDGE_CURVE('',#1110,#1100,#1112,.T.);
#1110 = VERTEX_POINT('',#1111);
#1111 = CARTESIAN_POINT('',(-23.4,22.59663243452,1.));
#1112 = CIRCLE('',#1113,3.05);
#1113 = AXIS2_PLACEMENT_3D('',#1114,#1115,#1116);
#1114 = CARTESIAN_POINT('',(-25.,20.,1.));
#1115 = DIRECTION('',(0.,0.,-1.));
#1116 = DIRECTION('',(-1.,0.,0.));
#1117 = ORIENTED_EDGE('',*,*,#1118,.T.);
#1118 = EDGE_CURVE('',#1110,#1119,#1121,.T.);
#1119 = VERTEX_POINT('',#1120);
#1120 = CARTESIAN_POINT('',(-23.4,22.59663243452,1.2));
#1121 = LINE('',#1122,#1123);
#1122 = CARTESIAN_POINT('',(-23.4,22.59663243452,-1.61E-15));
#1123 = VECTOR('',#1124,1.);
#1124 = DIRECTION('',(0.,0.,1.));
#1125 = ORIENTED_EDGE('',*,*,#1126,.F.);
#1126 = EDGE_CURVE('',#1127,#1119,#1129,.T.);
#1127 = VERTEX_POINT('',#1128);
#1128 = CARTESIAN_POINT('',(-26.6,22.59663243452,1.2));
#1129 = CIRCLE('',#1130,3.05);
#1130 = AXIS2_PLACEMENT_3D('',#1131,#1132,#1133);
#1131 = CARTESIAN_POINT('',(-25.,20.,1.2));
#1132 = DIRECTION('',(0.,0.,-1.));
#1133 = DIRECTION('',(1.,0.,0.));
#1134 = ORIENTED_EDGE('',*,*,#1135,.F.);
#1135 = EDGE_CURVE('',#1136,#1127,#1138,.T.);
#1136 = VERTEX_POINT('',#1137);
#1137 = CARTESIAN_POINT('',(-26.6,22.59663243452,1.));
#1138 = LINE('',#1139,#1140);
#1139 = CARTESIAN_POINT('',(-26.6,22.59663243452,-1.61E-15));
#1140 = VECTOR('',#1141,1.);
#1141 = DIRECTION('',(0.,0.,1.));
#1142 = ORIENTED_EDGE('',*,*,#1143,.F.);
#1143 = EDGE_CURVE('',#1144,#1136,#1146,.T.);
#1144 = VERTEX_POINT('',#1145);
#1145 = CARTESIAN_POINT('',(-28.05,20.,1.));
#1146 = CIRCLE('',#1147,3.05);
#1147 = AXIS2_PLACEMENT_3D('',#1148,#1149,#1150);
#1148 = CARTESIAN_POINT('',(-25.,20.,1.));
#1149 = DIRECTION('',(0.,0.,-1.));
#1150 = DIRECTION('',(-1.,0.,0.));
#1151 = ORIENTED_EDGE('',*,*,#1152,.F.);
#1152 = EDGE_CURVE('',#272,#1144,#1153,.T.);
#1153 = B_SPLINE_CURVE_WITH_KNOTS('',1,(#1154,#1155),.UNSPECIFIED.,.F.,
  .F.,(2,2),(0.,1.),.PIECEWISE_BEZIER_KNOTS.);
#1154 = CARTESIAN_POINT('',(-28.05,20.,-1.61E-15));
#1155 = CARTESIAN_POINT('',(-28.05,20.,1.));
#1156 = ORIENTED_EDGE('',*,*,#271,.T.);
#1157 = ORIENTED_EDGE('',*,*,#309,.T.);
#1158 = ORIENTED_EDGE('',*,*,#300,.T.);
#1159 = ORIENTED_EDGE('',*,*,#291,.T.);
#1160 = ORIENTED_EDGE('',*,*,#282,.T.);
#1161 = ORIENTED_EDGE('',*,*,#1152,.T.);
#1162 = ORIENTED_EDGE('',*,*,#1163,.F.);
#1163 = EDGE_CURVE('',#1164,#1144,#1166,.T.);
#1164 = VERTEX_POINT('',#1165);
#1165 = CARTESIAN_POINT('',(-26.6,17.40336756548,1.));
#1166 = CIRCLE('',#1167,3.05);
#1167 = AXIS2_PLACEMENT_3D('',#1168,#1169,#1170);
#1168 = CARTESIAN_POINT('',(-25.,20.,1.));
#1169 = DIRECTION('',(0.,0.,-1.));
#1170 = DIRECTION('',(-1.,0.,0.));
#1171 = ORIENTED_EDGE('',*,*,#1172,.T.);
#1172 = EDGE_CURVE('',#1164,#1173,#1175,.T.);
#1173 = VERTEX_POINT('',#1174);
#1174 = CARTESIAN_POINT('',(-26.6,17.40336756548,1.2));
#1175 = LINE('',#1176,#1177);
#1176 = CARTESIAN_POINT('',(-26.6,17.40336756548,-1.61E-15));
#1177 = VECTOR('',#1178,1.);
#1178 = DIRECTION('',(0.,0.,1.));
#1179 = ORIENTED_EDGE('',*,*,#1180,.F.);
#1180 = EDGE_CURVE('',#1102,#1173,#1181,.T.);
#1181 = CIRCLE('',#1182,3.05);
#1182 = AXIS2_PLACEMENT_3D('',#1183,#1184,#1185);
#1183 = CARTESIAN_POINT('',(-25.,20.,1.2));
#1184 = DIRECTION('',(0.,0.,-1.));
#1185 = DIRECTION('',(1.,0.,0.));
#1186 = CYLINDRICAL_SURFACE('',#1187,3.05);
#1187 = AXIS2_PLACEMENT_3D('',#1188,#1189,#1190);
#1188 = CARTESIAN_POINT('',(-25.,20.,-1.61E-15));
#1189 = DIRECTION('',(0.,0.,1.));
#1190 = DIRECTION('',(-1.,0.,0.));
#1191 = ADVANCED_FACE('',(#1192),#1282,.F.);
#1192 = FACE_BOUND('',#1193,.T.);
#1193 = EDGE_LOOP('',(#1194,#1204,#1213,#1221,#1230,#1238,#1247,#1252,
    #1253,#1254,#1255,#1256,#1257,#1258,#1267,#1275));
#1194 = ORIENTED_EDGE('',*,*,#1195,.F.);
#1195 = EDGE_CURVE('',#1196,#1198,#1200,.T.);
#1196 = VERTEX_POINT('',#1197);
#1197 = CARTESIAN_POINT('',(-38.39999999999,17.403367565494,1.));
#1198 = VERTEX_POINT('',#1199);
#1199 = CARTESIAN_POINT('',(-38.39999999999,17.403367565501,1.2));
#1200 = LINE('',#1201,#1202);
#1201 = CARTESIAN_POINT('',(-38.39999999999,17.403367565501,-1.61E-15));
#1202 = VECTOR('',#1203,1.);
#1203 = DIRECTION('',(0.,0.,1.));
#1204 = ORIENTED_EDGE('',*,*,#1205,.F.);
#1205 = EDGE_CURVE('',#1206,#1196,#1208,.T.);
#1206 = VERTEX_POINT('',#1207);
#1207 = CARTESIAN_POINT('',(-38.40000000003,22.596632434498,1.));
#1208 = CIRCLE('',#1209,3.05);
#1209 = AXIS2_PLACEMENT_3D('',#1210,#1211,#1212);
#1210 = CARTESIAN_POINT('',(-40.,20.,1.));
#1211 = DIRECTION('',(0.,0.,-1.));
#1212 = DIRECTION('',(-1.,0.,0.));
#1213 = ORIENTED_EDGE('',*,*,#1214,.T.);
#1214 = EDGE_CURVE('',#1206,#1215,#1217,.T.);
#1215 = VERTEX_POINT('',#1216);
#1216 = CARTESIAN_POINT('',(-38.40000000004,22.596632434469,1.2));
#1217 = LINE('',#1218,#1219);
#1218 = CARTESIAN_POINT('',(-38.40000000004,22.596632434469,-1.61E-15));
#1219 = VECTOR('',#1220,1.);
#1220 = DIRECTION('',(0.,0.,1.));
#1221 = ORIENTED_EDGE('',*,*,#1222,.F.);
#1222 = EDGE_CURVE('',#1223,#1215,#1225,.T.);
#1223 = VERTEX_POINT('',#1224);
#1224 = CARTESIAN_POINT('',(-41.59999999999,22.596632434517,1.2));
#1225 = CIRCLE('',#1226,3.049999999963);
#1226 = AXIS2_PLACEMENT_3D('',#1227,#1228,#1229);
#1227 = CARTESIAN_POINT('',(-40.00000000006,20.,1.2));
#1228 = DIRECTION('',(0.,0.,-1.));
#1229 = DIRECTION('',(1.,0.,0.));
#1230 = ORIENTED_EDGE('',*,*,#1231,.F.);
#1231 = EDGE_CURVE('',#1232,#1223,#1234,.T.);
#1232 = VERTEX_POINT('',#1233);
#1233 = CARTESIAN_POINT('',(-41.59999999999,22.59663243452,1.));
#1234 = LINE('',#1235,#1236);
#1235 = CARTESIAN_POINT('',(-41.59999999999,22.596632434517,-1.61E-15));
#1236 = VECTOR('',#1237,1.);
#1237 = DIRECTION('',(0.,0.,1.));
#1238 = ORIENTED_EDGE('',*,*,#1239,.F.);
#1239 = EDGE_CURVE('',#1240,#1232,#1242,.T.);
#1240 = VERTEX_POINT('',#1241);
#1241 = CARTESIAN_POINT('',(-43.05,20.,1.));
#1242 = CIRCLE('',#1243,3.05);
#1243 = AXIS2_PLACEMENT_3D('',#1244,#1245,#1246);
#1244 = CARTESIAN_POINT('',(-40.,20.,1.));
#1245 = DIRECTION('',(0.,0.,-1.));
#1246 = DIRECTION('',(-1.,0.,0.));
#1247 = ORIENTED_EDGE('',*,*,#1248,.F.);
#1248 = EDGE_CURVE('',#319,#1240,#1249,.T.);
#1249 = B_SPLINE_CURVE_WITH_KNOTS('',1,(#1250,#1251),.UNSPECIFIED.,.F.,
  .F.,(2,2),(0.,1.),.PIECEWISE_BEZIER_KNOTS.);
#1250 = CARTESIAN_POINT('',(-43.05,20.,-1.61E-15));
#1251 = CARTESIAN_POINT('',(-43.05,20.,1.));
#1252 = ORIENTED_EDGE('',*,*,#318,.T.);
#1253 = ORIENTED_EDGE('',*,*,#356,.T.);
#1254 = ORIENTED_EDGE('',*,*,#347,.T.);
#1255 = ORIENTED_EDGE('',*,*,#338,.T.);
#1256 = ORIENTED_EDGE('',*,*,#329,.T.);
#1257 = ORIENTED_EDGE('',*,*,#1248,.T.);
#1258 = ORIENTED_EDGE('',*,*,#1259,.F.);
#1259 = EDGE_CURVE('',#1260,#1240,#1262,.T.);
#1260 = VERTEX_POINT('',#1261);
#1261 = CARTESIAN_POINT('',(-41.59999999996,17.403367565493,1.));
#1262 = CIRCLE('',#1263,3.05);
#1263 = AXIS2_PLACEMENT_3D('',#1264,#1265,#1266);
#1264 = CARTESIAN_POINT('',(-40.,20.,1.));
#1265 = DIRECTION('',(0.,0.,-1.));
#1266 = DIRECTION('',(-1.,0.,0.));
#1267 = ORIENTED_EDGE('',*,*,#1268,.T.);
#1268 = EDGE_CURVE('',#1260,#1269,#1271,.T.);
#1269 = VERTEX_POINT('',#1270);
#1270 = CARTESIAN_POINT('',(-41.59999999994,17.403367565519,1.2));
#1271 = LINE('',#1272,#1273);
#1272 = CARTESIAN_POINT('',(-41.59999999994,17.403367565519,-1.61E-15));
#1273 = VECTOR('',#1274,1.);
#1274 = DIRECTION('',(0.,0.,1.));
#1275 = ORIENTED_EDGE('',*,*,#1276,.F.);
#1276 = EDGE_CURVE('',#1198,#1269,#1277,.T.);
#1277 = CIRCLE('',#1278,3.049999999962);
#1278 = AXIS2_PLACEMENT_3D('',#1279,#1280,#1281);
#1279 = CARTESIAN_POINT('',(-39.99999999995,20.,1.2));
#1280 = DIRECTION('',(0.,0.,-1.));
#1281 = DIRECTION('',(1.,0.,0.));
#1282 = CYLINDRICAL_SURFACE('',#1283,3.05);
#1283 = AXIS2_PLACEMENT_3D('',#1284,#1285,#1286);
#1284 = CARTESIAN_POINT('',(-40.,20.,-1.61E-15));
#1285 = DIRECTION('',(0.,0.,1.));
#1286 = DIRECTION('',(-1.,0.,0.));
#1287 = ADVANCED_FACE('',(#1288,#1296,#1307),#1318,.F.);
#1288 = FACE_BOUND('',#1289,.F.);
#1289 = EDGE_LOOP('',(#1290,#1291,#1292,#1293,#1294,#1295));
#1290 = ORIENTED_EDGE('',*,*,#492,.T.);
#1291 = ORIENTED_EDGE('',*,*,#541,.T.);
#1292 = ORIENTED_EDGE('',*,*,#605,.T.);
#1293 = ORIENTED_EDGE('',*,*,#469,.F.);
#1294 = ORIENTED_EDGE('',*,*,#371,.F.);
#1295 = ORIENTED_EDGE('',*,*,#411,.T.);
#1296 = FACE_BOUND('',#1297,.F.);
#1297 = EDGE_LOOP('',(#1298));
#1298 = ORIENTED_EDGE('',*,*,#1299,.T.);
#1299 = EDGE_CURVE('',#1300,#1300,#1302,.T.);
#1300 = VERTEX_POINT('',#1301);
#1301 = CARTESIAN_POINT('',(-41.6,20.,4.));
#1302 = CIRCLE('',#1303,1.6);
#1303 = AXIS2_PLACEMENT_3D('',#1304,#1305,#1306);
#1304 = CARTESIAN_POINT('',(-40.,20.,4.));
#1305 = DIRECTION('',(0.,0.,1.));
#1306 = DIRECTION('',(-1.,0.,0.));
#1307 = FACE_BOUND('',#1308,.F.);
#1308 = EDGE_LOOP('',(#1309));
#1309 = ORIENTED_EDGE('',*,*,#1310,.T.);
#1310 = EDGE_CURVE('',#1311,#1311,#1313,.T.);
#1311 = VERTEX_POINT('',#1312);
#1312 = CARTESIAN_POINT('',(-26.6,20.,4.));
#1313 = CIRCLE('',#1314,1.6);
#1314 = AXIS2_PLACEMENT_3D('',#1315,#1316,#1317);
#1315 = CARTESIAN_POINT('',(-25.,20.,4.));
#1316 = DIRECTION('',(0.,0.,1.));
#1317 = DIRECTION('',(-1.,0.,0.));
#1318 = PLANE('',#1319);
#1319 = AXIS2_PLACEMENT_3D('',#1320,#1321,#1322);
#1320 = CARTESIAN_POINT('',(-45.,10.,4.));
#1321 = DIRECTION('',(0.,-2.2E-16,-1.));
#1322 = DIRECTION('',(1.,0.,0.));
#1323 = ADVANCED_FACE('',(#1324,#1394,#1405,#1416,#1419),#1430,.T.);
#1324 = FACE_BOUND('',#1325,.T.);
#1325 = EDGE_LOOP('',(#1326,#1327,#1328,#1329,#1337,#1346,#1354,#1363,
    #1371,#1379,#1388));
#1326 = ORIENTED_EDGE('',*,*,#437,.T.);
#1327 = ORIENTED_EDGE('',*,*,#509,.F.);
#1328 = ORIENTED_EDGE('',*,*,#557,.F.);
#1329 = ORIENTED_EDGE('',*,*,#1330,.F.);
#1330 = EDGE_CURVE('',#1331,#558,#1333,.T.);
#1331 = VERTEX_POINT('',#1332);
#1332 = CARTESIAN_POINT('',(7.,-11.05941170815,15.));
#1333 = LINE('',#1334,#1335);
#1334 = CARTESIAN_POINT('',(7.,-11.05941170815,15.));
#1335 = VECTOR('',#1336,1.);
#1336 = DIRECTION('',(0.,-1.,0.));
#1337 = ORIENTED_EDGE('',*,*,#1338,.F.);
#1338 = EDGE_CURVE('',#1339,#1331,#1341,.T.);
#1339 = VERTEX_POINT('',#1340);
#1340 = CARTESIAN_POINT('',(7.,-4.940588291844,15.));
#1341 = CIRCLE('',#1342,3.1);
#1342 = AXIS2_PLACEMENT_3D('',#1343,#1344,#1345);
#1343 = CARTESIAN_POINT('',(7.5,-8.,15.));
#1344 = DIRECTION('',(0.,0.,1.));
#1345 = DIRECTION('',(1.,0.,0.));
#1346 = ORIENTED_EDGE('',*,*,#1347,.F.);
#1347 = EDGE_CURVE('',#1348,#1339,#1350,.T.);
#1348 = VERTEX_POINT('',#1349);
#1349 = CARTESIAN_POINT('',(7.,4.940588291844,15.));
#1350 = LINE('',#1351,#1352);
#1351 = CARTESIAN_POINT('',(7.,4.940588291844,15.));
#1352 = VECTOR('',#1353,1.);
#1353 = DIRECTION('',(0.,-1.,0.));
#1354 = ORIENTED_EDGE('',*,*,#1355,.F.);
#1355 = EDGE_CURVE('',#1356,#1348,#1358,.T.);
#1356 = VERTEX_POINT('',#1357);
#1357 = CARTESIAN_POINT('',(5.131456143535,10.,15.));
#1358 = CIRCLE('',#1359,3.1);
#1359 = AXIS2_PLACEMENT_3D('',#1360,#1361,#1362);
#1360 = CARTESIAN_POINT('',(7.5,8.,15.));
#1361 = DIRECTION('',(0.,0.,1.));
#1362 = DIRECTION('',(1.,0.,0.));
#1363 = ORIENTED_EDGE('',*,*,#1364,.T.);
#1364 = EDGE_CURVE('',#1356,#1365,#1367,.T.);
#1365 = VERTEX_POINT('',#1366);
#1366 = CARTESIAN_POINT('',(1.5,10.,15.));
#1367 = LINE('',#1368,#1369);
#1368 = CARTESIAN_POINT('',(10.,10.,15.));
#1369 = VECTOR('',#1370,1.);
#1370 = DIRECTION('',(-1.,-0.,-0.));
#1371 = ORIENTED_EDGE('',*,*,#1372,.F.);
#1372 = EDGE_CURVE('',#1373,#1365,#1375,.T.);
#1373 = VERTEX_POINT('',#1374);
#1374 = CARTESIAN_POINT('',(1.5,4.,15.));
#1375 = LINE('',#1376,#1377);
#1376 = CARTESIAN_POINT('',(1.5,4.,15.));
#1377 = VECTOR('',#1378,1.);
#1378 = DIRECTION('',(0.,1.,0.));
#1379 = ORIENTED_EDGE('',*,*,#1380,.F.);
#1380 = EDGE_CURVE('',#1381,#1373,#1383,.T.);
#1381 = VERTEX_POINT('',#1382);
#1382 = CARTESIAN_POINT('',(-7.,-4.5,15.));
#1383 = CIRCLE('',#1384,8.5);
#1384 = AXIS2_PLACEMENT_3D('',#1385,#1386,#1387);
#1385 = CARTESIAN_POINT('',(-7.,4.,15.));
#1386 = DIRECTION('',(0.,0.,1.));
#1387 = DIRECTION('',(1.,0.,0.));
#1388 = ORIENTED_EDGE('',*,*,#1389,.T.);
#1389 = EDGE_CURVE('',#1381,#438,#1390,.T.);
#1390 = LINE('',#1391,#1392);
#1391 = CARTESIAN_POINT('',(-7.,-4.5,15.));
#1392 = VECTOR('',#1393,1.);
#1393 = DIRECTION('',(-1.,1.1E-16,0.));
#1394 = FACE_BOUND('',#1395,.T.);
#1395 = EDGE_LOOP('',(#1396));
#1396 = ORIENTED_EDGE('',*,*,#1397,.T.);
#1397 = EDGE_CURVE('',#1398,#1398,#1400,.T.);
#1398 = VERTEX_POINT('',#1399);
#1399 = CARTESIAN_POINT('',(-9.3,-16.,15.));
#1400 = CIRCLE('',#1401,1.7);
#1401 = AXIS2_PLACEMENT_3D('',#1402,#1403,#1404);
#1402 = CARTESIAN_POINT('',(-11.,-16.,15.));
#1403 = DIRECTION('',(0.,0.,-1.));
#1404 = DIRECTION('',(1.,0.,0.));
#1405 = FACE_BOUND('',#1406,.T.);
#1406 = EDGE_LOOP('',(#1407));
#1407 = ORIENTED_EDGE('',*,*,#1408,.F.);
#1408 = EDGE_CURVE('',#1409,#1409,#1411,.T.);
#1409 = VERTEX_POINT('',#1410);
#1410 = CARTESIAN_POINT('',(-4.4,-8.,15.));
#1411 = CIRCLE('',#1412,3.1);
#1412 = AXIS2_PLACEMENT_3D('',#1413,#1414,#1415);
#1413 = CARTESIAN_POINT('',(-7.5,-8.,15.));
#1414 = DIRECTION('',(0.,0.,1.));
#1415 = DIRECTION('',(1.,0.,0.));
#1416 = FACE_BOUND('',#1417,.T.);
#1417 = EDGE_LOOP('',(#1418));
#1418 = ORIENTED_EDGE('',*,*,#695,.F.);
#1419 = FACE_BOUND('',#1420,.T.);
#1420 = EDGE_LOOP('',(#1421));
#1421 = ORIENTED_EDGE('',*,*,#1422,.T.);
#1422 = EDGE_CURVE('',#1423,#1423,#1425,.T.);
#1423 = VERTEX_POINT('',#1424);
#1424 = CARTESIAN_POINT('',(5.7,3.,15.));
#1425 = CIRCLE('',#1426,1.7);
#1426 = AXIS2_PLACEMENT_3D('',#1427,#1428,#1429);
#1427 = CARTESIAN_POINT('',(4.,3.,15.));
#1428 = DIRECTION('',(0.,0.,-1.));
#1429 = DIRECTION('',(1.,0.,0.));
#1430 = PLANE('',#1431);
#1431 = AXIS2_PLACEMENT_3D('',#1432,#1433,#1434);
#1432 = CARTESIAN_POINT('',(-2.978290691542,0.44840596683,15.));
#1433 = DIRECTION('',(0.,0.,1.));
#1434 = DIRECTION('',(1.,0.,0.));
#1435 = ADVANCED_FACE('',(#1436),#1454,.F.);
#1436 = FACE_BOUND('',#1437,.F.);
#1437 = EDGE_LOOP('',(#1438,#1446,#1447,#1448));
#1438 = ORIENTED_EDGE('',*,*,#1439,.T.);
#1439 = EDGE_CURVE('',#1440,#1381,#1442,.T.);
#1440 = VERTEX_POINT('',#1441);
#1441 = CARTESIAN_POINT('',(-7.,-4.5,7.));
#1442 = LINE('',#1443,#1444);
#1443 = CARTESIAN_POINT('',(-7.,-4.5,7.));
#1444 = VECTOR('',#1445,1.);
#1445 = DIRECTION('',(0.,0.,1.));
#1446 = ORIENTED_EDGE('',*,*,#1389,.T.);
#1447 = ORIENTED_EDGE('',*,*,#445,.F.);
#1448 = ORIENTED_EDGE('',*,*,#1449,.F.);
#1449 = EDGE_CURVE('',#1440,#446,#1450,.T.);
#1450 = LINE('',#1451,#1452);
#1451 = CARTESIAN_POINT('',(-7.,-4.5,7.));
#1452 = VECTOR('',#1453,1.);
#1453 = DIRECTION('',(-1.,1.1E-16,0.));
#1454 = PLANE('',#1455);
#1455 = AXIS2_PLACEMENT_3D('',#1456,#1457,#1458);
#1456 = CARTESIAN_POINT('',(-7.,-4.5,7.));
#1457 = DIRECTION('',(-1.1E-16,-1.,0.));
#1458 = DIRECTION('',(-1.,1.1E-16,0.));
#1459 = ADVANCED_FACE('',(#1460,#1525,#1528,#1531),#1534,.T.);
#1460 = FACE_BOUND('',#1461,.T.);
#1461 = EDGE_LOOP('',(#1462,#1463,#1464,#1465,#1466,#1467,#1476,#1484,
    #1492,#1501,#1509,#1518,#1524));
#1462 = ORIENTED_EDGE('',*,*,#672,.T.);
#1463 = ORIENTED_EDGE('',*,*,#645,.T.);
#1464 = ORIENTED_EDGE('',*,*,#589,.F.);
#1465 = ORIENTED_EDGE('',*,*,#453,.F.);
#1466 = ORIENTED_EDGE('',*,*,#1449,.F.);
#1467 = ORIENTED_EDGE('',*,*,#1468,.T.);
#1468 = EDGE_CURVE('',#1440,#1469,#1471,.T.);
#1469 = VERTEX_POINT('',#1470);
#1470 = CARTESIAN_POINT('',(1.5,4.,7.));
#1471 = CIRCLE('',#1472,8.5);
#1472 = AXIS2_PLACEMENT_3D('',#1473,#1474,#1475);
#1473 = CARTESIAN_POINT('',(-7.,4.,7.));
#1474 = DIRECTION('',(0.,0.,1.));
#1475 = DIRECTION('',(1.,0.,0.));
#1476 = ORIENTED_EDGE('',*,*,#1477,.T.);
#1477 = EDGE_CURVE('',#1469,#1478,#1480,.T.);
#1478 = VERTEX_POINT('',#1479);
#1479 = CARTESIAN_POINT('',(1.5,10.,7.));
#1480 = LINE('',#1481,#1482);
#1481 = CARTESIAN_POINT('',(1.5,4.,7.));
#1482 = VECTOR('',#1483,1.);
#1483 = DIRECTION('',(0.,1.,0.));
#1484 = ORIENTED_EDGE('',*,*,#1485,.T.);
#1485 = EDGE_CURVE('',#1478,#1486,#1488,.T.);
#1486 = VERTEX_POINT('',#1487);
#1487 = CARTESIAN_POINT('',(5.131456143535,10.,7.));
#1488 = LINE('',#1489,#1490);
#1489 = CARTESIAN_POINT('',(-15.,10.,7.));
#1490 = VECTOR('',#1491,1.);
#1491 = DIRECTION('',(1.,0.,0.));
#1492 = ORIENTED_EDGE('',*,*,#1493,.T.);
#1493 = EDGE_CURVE('',#1486,#1494,#1496,.T.);
#1494 = VERTEX_POINT('',#1495);
#1495 = CARTESIAN_POINT('',(7.,4.940588291844,7.));
#1496 = CIRCLE('',#1497,3.1);
#1497 = AXIS2_PLACEMENT_3D('',#1498,#1499,#1500);
#1498 = CARTESIAN_POINT('',(7.5,8.,7.));
#1499 = DIRECTION('',(0.,0.,1.));
#1500 = DIRECTION('',(1.,0.,0.));
#1501 = ORIENTED_EDGE('',*,*,#1502,.T.);
#1502 = EDGE_CURVE('',#1494,#1503,#1505,.T.);
#1503 = VERTEX_POINT('',#1504);
#1504 = CARTESIAN_POINT('',(7.,-4.940588291844,7.));
#1505 = LINE('',#1506,#1507);
#1506 = CARTESIAN_POINT('',(7.,4.940588291844,7.));
#1507 = VECTOR('',#1508,1.);
#1508 = DIRECTION('',(0.,-1.,0.));
#1509 = ORIENTED_EDGE('',*,*,#1510,.T.);
#1510 = EDGE_CURVE('',#1503,#1511,#1513,.T.);
#1511 = VERTEX_POINT('',#1512);
#1512 = CARTESIAN_POINT('',(7.,-11.05941170815,7.));
#1513 = CIRCLE('',#1514,3.1);
#1514 = AXIS2_PLACEMENT_3D('',#1515,#1516,#1517);
#1515 = CARTESIAN_POINT('',(7.5,-8.,7.));
#1516 = DIRECTION('',(0.,0.,1.));
#1517 = DIRECTION('',(1.,0.,0.));
#1518 = ORIENTED_EDGE('',*,*,#1519,.T.);
#1519 = EDGE_CURVE('',#1511,#568,#1520,.T.);
#1520 = LINE('',#1521,#1522);
#1521 = CARTESIAN_POINT('',(7.,-11.05941170815,7.));
#1522 = VECTOR('',#1523,1.);
#1523 = DIRECTION('',(0.,-1.,0.));
#1524 = ORIENTED_EDGE('',*,*,#622,.F.);
#1525 = FACE_BOUND('',#1526,.T.);
#1526 = EDGE_LOOP('',(#1527));
#1527 = ORIENTED_EDGE('',*,*,#1082,.F.);
#1528 = FACE_BOUND('',#1529,.T.);
#1529 = EDGE_LOOP('',(#1530));
#1530 = ORIENTED_EDGE('',*,*,#863,.F.);
#1531 = FACE_BOUND('',#1532,.T.);
#1532 = EDGE_LOOP('',(#1533));
#1533 = ORIENTED_EDGE('',*,*,#1057,.F.);
#1534 = PLANE('',#1535);
#1535 = AXIS2_PLACEMENT_3D('',#1536,#1537,#1538);
#1536 = CARTESIAN_POINT('',(0.301927853438,7.244797331005,7.));
#1537 = DIRECTION('',(0.,0.,1.));
#1538 = DIRECTION('',(1.,0.,0.));
#1539 = ADVANCED_FACE('',(#1540),#1551,.T.);
#1540 = FACE_BOUND('',#1541,.T.);
#1541 = EDGE_LOOP('',(#1542,#1548,#1549,#1550));
#1542 = ORIENTED_EDGE('',*,*,#1543,.T.);
#1543 = EDGE_CURVE('',#1511,#1331,#1544,.T.);
#1544 = LINE('',#1545,#1546);
#1545 = CARTESIAN_POINT('',(7.,-11.05941170815,7.));
#1546 = VECTOR('',#1547,1.);
#1547 = DIRECTION('',(0.,0.,1.));
#1548 = ORIENTED_EDGE('',*,*,#1330,.T.);
#1549 = ORIENTED_EDGE('',*,*,#575,.F.);
#1550 = ORIENTED_EDGE('',*,*,#1519,.F.);
#1551 = PLANE('',#1552);
#1552 = AXIS2_PLACEMENT_3D('',#1553,#1554,#1555);
#1553 = CARTESIAN_POINT('',(7.,-11.05941170815,7.));
#1554 = DIRECTION('',(1.,0.,0.));
#1555 = DIRECTION('',(0.,-1.,0.));
#1556 = ADVANCED_FACE('',(#1557),#1565,.T.);
#1557 = FACE_BOUND('',#1558,.T.);
#1558 = EDGE_LOOP('',(#1559,#1560,#1561,#1562,#1563,#1564));
#1559 = ORIENTED_EDGE('',*,*,#767,.T.);
#1560 = ORIENTED_EDGE('',*,*,#815,.T.);
#1561 = ORIENTED_EDGE('',*,*,#839,.T.);
#1562 = ORIENTED_EDGE('',*,*,#798,.T.);
#1563 = ORIENTED_EDGE('',*,*,#750,.T.);
#1564 = ORIENTED_EDGE('',*,*,#719,.T.);
#1565 = PLANE('',#1566);
#1566 = AXIS2_PLACEMENT_3D('',#1567,#1568,#1569);
#1567 = CARTESIAN_POINT('',(-10.99999999998,-15.99999999997,3.));
#1568 = DIRECTION('',(-0.,-0.,-1.));
#1569 = DIRECTION('',(-1.,0.,0.));
#1570 = ADVANCED_FACE('',(#1571,#1582),#1585,.T.);
#1571 = FACE_BOUND('',#1572,.T.);
#1572 = EDGE_LOOP('',(#1573));
#1573 = ORIENTED_EDGE('',*,*,#1574,.T.);
#1574 = EDGE_CURVE('',#1575,#1575,#1577,.T.);
#1575 = VERTEX_POINT('',#1576);
#1576 = CARTESIAN_POINT('',(-4.4,-8.,7.));
#1577 = CIRCLE('',#1578,3.1);
#1578 = AXIS2_PLACEMENT_3D('',#1579,#1580,#1581);
#1579 = CARTESIAN_POINT('',(-7.5,-8.,7.));
#1580 = DIRECTION('',(0.,0.,1.));
#1581 = DIRECTION('',(1.,0.,0.));
#1582 = FACE_BOUND('',#1583,.T.);
#1583 = EDGE_LOOP('',(#1584));
#1584 = ORIENTED_EDGE('',*,*,#888,.F.);
#1585 = PLANE('',#1586);
#1586 = AXIS2_PLACEMENT_3D('',#1587,#1588,#1589);
#1587 = CARTESIAN_POINT('',(-1.882512377125,-0.798425856555,7.));
#1588 = DIRECTION('',(0.,0.,1.));
#1589 = DIRECTION('',(1.,0.,0.));
#1590 = ADVANCED_FACE('',(#1591),#1599,.T.);
#1591 = FACE_BOUND('',#1592,.T.);
#1592 = EDGE_LOOP('',(#1593,#1594,#1595,#1596,#1597,#1598));
#1593 = ORIENTED_EDGE('',*,*,#961,.T.);
#1594 = ORIENTED_EDGE('',*,*,#1009,.T.);
#1595 = ORIENTED_EDGE('',*,*,#1033,.T.);
#1596 = ORIENTED_EDGE('',*,*,#992,.T.);
#1597 = ORIENTED_EDGE('',*,*,#944,.T.);
#1598 = ORIENTED_EDGE('',*,*,#913,.T.);
#1599 = PLANE('',#1600);
#1600 = AXIS2_PLACEMENT_3D('',#1601,#1602,#1603);
#1601 = CARTESIAN_POINT('',(4.,3.,3.));
#1602 = DIRECTION('',(-0.,-0.,-1.));
#1603 = DIRECTION('',(-1.,0.,0.));
#1604 = ADVANCED_FACE('',(#1605),#1661,.T.);
#1605 = FACE_BOUND('',#1606,.T.);
#1606 = EDGE_LOOP('',(#1607,#1613,#1614,#1622,#1630,#1638,#1646,#1654,
    #1660));
#1607 = ORIENTED_EDGE('',*,*,#1608,.F.);
#1608 = EDGE_CURVE('',#1100,#1110,#1609,.T.);
#1609 = LINE('',#1610,#1611);
#1610 = CARTESIAN_POINT('',(-23.4,18.70168378274,1.));
#1611 = VECTOR('',#1612,1.);
#1612 = DIRECTION('',(0.,1.,0.));
#1613 = ORIENTED_EDGE('',*,*,#1099,.T.);
#1614 = ORIENTED_EDGE('',*,*,#1615,.T.);
#1615 = EDGE_CURVE('',#1102,#1616,#1618,.T.);
#1616 = VERTEX_POINT('',#1617);
#1617 = CARTESIAN_POINT('',(-23.4,18.4,1.2));
#1618 = LINE('',#1619,#1620);
#1619 = CARTESIAN_POINT('',(-23.4,17.40336756548,1.2));
#1620 = VECTOR('',#1621,1.);
#1621 = DIRECTION('',(0.,1.,0.));
#1622 = ORIENTED_EDGE('',*,*,#1623,.T.);
#1623 = EDGE_CURVE('',#1616,#1624,#1626,.T.);
#1624 = VERTEX_POINT('',#1625);
#1625 = CARTESIAN_POINT('',(-23.4,18.4,1.4));
#1626 = LINE('',#1627,#1628);
#1627 = CARTESIAN_POINT('',(-23.4,18.4,-1.61E-15));
#1628 = VECTOR('',#1629,1.);
#1629 = DIRECTION('',(0.,0.,1.));
#1630 = ORIENTED_EDGE('',*,*,#1631,.T.);
#1631 = EDGE_CURVE('',#1624,#1632,#1634,.T.);
#1632 = VERTEX_POINT('',#1633);
#1633 = CARTESIAN_POINT('',(-23.4,20.,1.4));
#1634 = LINE('',#1635,#1636);
#1635 = CARTESIAN_POINT('',(-23.4,18.4,1.4));
#1636 = VECTOR('',#1637,1.);
#1637 = DIRECTION('',(0.,1.,0.));
#1638 = ORIENTED_EDGE('',*,*,#1639,.T.);
#1639 = EDGE_CURVE('',#1632,#1640,#1642,.T.);
#1640 = VERTEX_POINT('',#1641);
#1641 = CARTESIAN_POINT('',(-23.4,21.6,1.4));
#1642 = LINE('',#1643,#1644);
#1643 = CARTESIAN_POINT('',(-23.4,18.4,1.4));
#1644 = VECTOR('',#1645,1.);
#1645 = DIRECTION('',(0.,1.,0.));
#1646 = ORIENTED_EDGE('',*,*,#1647,.F.);
#1647 = EDGE_CURVE('',#1648,#1640,#1650,.T.);
#1648 = VERTEX_POINT('',#1649);
#1649 = CARTESIAN_POINT('',(-23.4,21.6,1.2));
#1650 = LINE('',#1651,#1652);
#1651 = CARTESIAN_POINT('',(-23.4,21.6,-1.61E-15));
#1652 = VECTOR('',#1653,1.);
#1653 = DIRECTION('',(0.,0.,1.));
#1654 = ORIENTED_EDGE('',*,*,#1655,.T.);
#1655 = EDGE_CURVE('',#1648,#1119,#1656,.T.);
#1656 = LINE('',#1657,#1658);
#1657 = CARTESIAN_POINT('',(-23.4,17.40336756548,1.2));
#1658 = VECTOR('',#1659,1.);
#1659 = DIRECTION('',(0.,1.,0.));
#1660 = ORIENTED_EDGE('',*,*,#1118,.F.);
#1661 = PLANE('',#1662);
#1662 = AXIS2_PLACEMENT_3D('',#1663,#1664,#1665);
#1663 = CARTESIAN_POINT('',(-23.4,20.,1.164363123941));
#1664 = DIRECTION('',(-1.,0.,1.8717E-13));
#1665 = DIRECTION('',(-1.8717E-13,0.,-1.));
#1666 = ADVANCED_FACE('',(#1667),#1671,.T.);
#1667 = FACE_BOUND('',#1668,.T.);
#1668 = EDGE_LOOP('',(#1669,#1670));
#1669 = ORIENTED_EDGE('',*,*,#1608,.T.);
#1670 = ORIENTED_EDGE('',*,*,#1109,.T.);
#1671 = PLANE('',#1672);
#1672 = AXIS2_PLACEMENT_3D('',#1673,#1674,#1675);
#1673 = CARTESIAN_POINT('',(-25.,20.,1.));
#1674 = DIRECTION('',(0.,0.,-1.));
#1675 = DIRECTION('',(-1.,0.,0.));
#1676 = ADVANCED_FACE('',(#1677),#1695,.F.);
#1677 = FACE_BOUND('',#1678,.F.);
#1678 = EDGE_LOOP('',(#1679,#1687,#1693,#1694));
#1679 = ORIENTED_EDGE('',*,*,#1680,.F.);
#1680 = EDGE_CURVE('',#1681,#1127,#1683,.T.);
#1681 = VERTEX_POINT('',#1682);
#1682 = CARTESIAN_POINT('',(-26.6,21.6,1.2));
#1683 = LINE('',#1684,#1685);
#1684 = CARTESIAN_POINT('',(-26.6,17.40336756548,1.2));
#1685 = VECTOR('',#1686,1.);
#1686 = DIRECTION('',(0.,1.,0.));
#1687 = ORIENTED_EDGE('',*,*,#1688,.T.);
#1688 = EDGE_CURVE('',#1681,#1648,#1689,.T.);
#1689 = LINE('',#1690,#1691);
#1690 = CARTESIAN_POINT('',(-27.94999999997,21.6,1.2));
#1691 = VECTOR('',#1692,1.);
#1692 = DIRECTION('',(1.,0.,0.));
#1693 = ORIENTED_EDGE('',*,*,#1655,.T.);
#1694 = ORIENTED_EDGE('',*,*,#1126,.F.);
#1695 = PLANE('',#1696);
#1696 = AXIS2_PLACEMENT_3D('',#1697,#1698,#1699);
#1697 = CARTESIAN_POINT('',(-32.49999999995,20.,1.2));
#1698 = DIRECTION('',(0.,0.,1.));
#1699 = DIRECTION('',(1.,0.,0.));
#1700 = ADVANCED_FACE('',(#1701),#1750,.T.);
#1701 = FACE_BOUND('',#1702,.T.);
#1702 = EDGE_LOOP('',(#1703,#1704,#1712,#1720,#1728,#1736,#1742,#1743,
    #1749));
#1703 = ORIENTED_EDGE('',*,*,#1680,.F.);
#1704 = ORIENTED_EDGE('',*,*,#1705,.T.);
#1705 = EDGE_CURVE('',#1681,#1706,#1708,.T.);
#1706 = VERTEX_POINT('',#1707);
#1707 = CARTESIAN_POINT('',(-26.6,21.6,1.4));
#1708 = LINE('',#1709,#1710);
#1709 = CARTESIAN_POINT('',(-26.6,21.6,-1.61E-15));
#1710 = VECTOR('',#1711,1.);
#1711 = DIRECTION('',(0.,0.,1.));
#1712 = ORIENTED_EDGE('',*,*,#1713,.T.);
#1713 = EDGE_CURVE('',#1706,#1714,#1716,.T.);
#1714 = VERTEX_POINT('',#1715);
#1715 = CARTESIAN_POINT('',(-26.6,20.,1.4));
#1716 = LINE('',#1717,#1718);
#1717 = CARTESIAN_POINT('',(-26.6,21.6,1.4));
#1718 = VECTOR('',#1719,1.);
#1719 = DIRECTION('',(0.,-1.,0.));
#1720 = ORIENTED_EDGE('',*,*,#1721,.T.);
#1721 = EDGE_CURVE('',#1714,#1722,#1724,.T.);
#1722 = VERTEX_POINT('',#1723);
#1723 = CARTESIAN_POINT('',(-26.6,18.4,1.4));
#1724 = LINE('',#1725,#1726);
#1725 = CARTESIAN_POINT('',(-26.6,21.6,1.4));
#1726 = VECTOR('',#1727,1.);
#1727 = DIRECTION('',(0.,-1.,0.));
#1728 = ORIENTED_EDGE('',*,*,#1729,.F.);
#1729 = EDGE_CURVE('',#1730,#1722,#1732,.T.);
#1730 = VERTEX_POINT('',#1731);
#1731 = CARTESIAN_POINT('',(-26.6,18.4,1.2));
#1732 = LINE('',#1733,#1734);
#1733 = CARTESIAN_POINT('',(-26.6,18.4,-1.61E-15));
#1734 = VECTOR('',#1735,1.);
#1735 = DIRECTION('',(0.,0.,1.));
#1736 = ORIENTED_EDGE('',*,*,#1737,.F.);
#1737 = EDGE_CURVE('',#1173,#1730,#1738,.T.);
#1738 = LINE('',#1739,#1740);
#1739 = CARTESIAN_POINT('',(-26.6,17.40336756548,1.2));
#1740 = VECTOR('',#1741,1.);
#1741 = DIRECTION('',(0.,1.,0.));
#1742 = ORIENTED_EDGE('',*,*,#1172,.F.);
#1743 = ORIENTED_EDGE('',*,*,#1744,.T.);
#1744 = EDGE_CURVE('',#1164,#1136,#1745,.T.);
#1745 = LINE('',#1746,#1747);
#1746 = CARTESIAN_POINT('',(-26.6,18.70168378274,1.));
#1747 = VECTOR('',#1748,1.);
#1748 = DIRECTION('',(0.,1.,0.));
#1749 = ORIENTED_EDGE('',*,*,#1135,.T.);
#1750 = PLANE('',#1751);
#1751 = AXIS2_PLACEMENT_3D('',#1752,#1753,#1754);
#1752 = CARTESIAN_POINT('',(-26.6,20.,1.164363123941));
#1753 = DIRECTION('',(1.,0.,1.5314E-13));
#1754 = DIRECTION('',(-1.5314E-13,0.,1.));
#1755 = ADVANCED_FACE('',(#1756),#1761,.T.);
#1756 = FACE_BOUND('',#1757,.T.);
#1757 = EDGE_LOOP('',(#1758,#1759,#1760));
#1758 = ORIENTED_EDGE('',*,*,#1163,.T.);
#1759 = ORIENTED_EDGE('',*,*,#1143,.T.);
#1760 = ORIENTED_EDGE('',*,*,#1744,.F.);
#1761 = PLANE('',#1762);
#1762 = AXIS2_PLACEMENT_3D('',#1763,#1764,#1765);
#1763 = CARTESIAN_POINT('',(-25.,20.,1.));
#1764 = DIRECTION('',(0.,0.,-1.));
#1765 = DIRECTION('',(-1.,0.,0.));
#1766 = ADVANCED_FACE('',(#1767),#1778,.F.);
#1767 = FACE_BOUND('',#1768,.F.);
#1768 = EDGE_LOOP('',(#1769,#1770,#1771,#1777));
#1769 = ORIENTED_EDGE('',*,*,#1180,.F.);
#1770 = ORIENTED_EDGE('',*,*,#1615,.T.);
#1771 = ORIENTED_EDGE('',*,*,#1772,.T.);
#1772 = EDGE_CURVE('',#1616,#1730,#1773,.T.);
#1773 = LINE('',#1774,#1775);
#1774 = CARTESIAN_POINT('',(-29.54999999997,18.4,1.2));
#1775 = VECTOR('',#1776,1.);
#1776 = DIRECTION('',(-1.,0.,0.));
#1777 = ORIENTED_EDGE('',*,*,#1737,.F.);
#1778 = PLANE('',#1779);
#1779 = AXIS2_PLACEMENT_3D('',#1780,#1781,#1782);
#1780 = CARTESIAN_POINT('',(-32.49999999995,20.,1.2));
#1781 = DIRECTION('',(0.,0.,1.));
#1782 = DIRECTION('',(1.,0.,0.));
#1783 = ADVANCED_FACE('',(#1784),#1840,.T.);
#1784 = FACE_BOUND('',#1785,.T.);
#1785 = EDGE_LOOP('',(#1786,#1792,#1793,#1801,#1809,#1817,#1825,#1833,
    #1839));
#1786 = ORIENTED_EDGE('',*,*,#1787,.F.);
#1787 = EDGE_CURVE('',#1196,#1206,#1788,.T.);
#1788 = LINE('',#1789,#1790);
#1789 = CARTESIAN_POINT('',(-38.40000000001,18.701683782758,1.));
#1790 = VECTOR('',#1791,1.);
#1791 = DIRECTION('',(-9.80589E-12,1.,0.));
#1792 = ORIENTED_EDGE('',*,*,#1195,.T.);
#1793 = ORIENTED_EDGE('',*,*,#1794,.T.);
#1794 = EDGE_CURVE('',#1198,#1795,#1797,.T.);
#1795 = VERTEX_POINT('',#1796);
#1796 = CARTESIAN_POINT('',(-38.4,18.4,1.2));
#1797 = LINE('',#1798,#1799);
#1798 = CARTESIAN_POINT('',(-38.39999999999,17.403367565501,1.2));
#1799 = VECTOR('',#1800,1.);
#1800 = DIRECTION('',(-9.80589E-12,1.,-0.));
#1801 = ORIENTED_EDGE('',*,*,#1802,.T.);
#1802 = EDGE_CURVE('',#1795,#1803,#1805,.T.);
#1803 = VERTEX_POINT('',#1804);
#1804 = CARTESIAN_POINT('',(-38.4,18.4,1.4));
#1805 = LINE('',#1806,#1807);
#1806 = CARTESIAN_POINT('',(-38.4,18.4,-1.61E-15));
#1807 = VECTOR('',#1808,1.);
#1808 = DIRECTION('',(0.,0.,1.));
#1809 = ORIENTED_EDGE('',*,*,#1810,.T.);
#1810 = EDGE_CURVE('',#1803,#1811,#1813,.T.);
#1811 = VERTEX_POINT('',#1812);
#1812 = CARTESIAN_POINT('',(-38.4,20.,1.4));
#1813 = LINE('',#1814,#1815);
#1814 = CARTESIAN_POINT('',(-38.4,18.4,1.4));
#1815 = VECTOR('',#1816,1.);
#1816 = DIRECTION('',(0.,1.,0.));
#1817 = ORIENTED_EDGE('',*,*,#1818,.T.);
#1818 = EDGE_CURVE('',#1811,#1819,#1821,.T.);
#1819 = VERTEX_POINT('',#1820);
#1820 = CARTESIAN_POINT('',(-38.4,21.6,1.4));
#1821 = LINE('',#1822,#1823);
#1822 = CARTESIAN_POINT('',(-38.4,18.4,1.4));
#1823 = VECTOR('',#1824,1.);
#1824 = DIRECTION('',(0.,1.,0.));
#1825 = ORIENTED_EDGE('',*,*,#1826,.F.);
#1826 = EDGE_CURVE('',#1827,#1819,#1829,.T.);
#1827 = VERTEX_POINT('',#1828);
#1828 = CARTESIAN_POINT('',(-38.40000000002,21.6,1.2));
#1829 = LINE('',#1830,#1831);
#1830 = CARTESIAN_POINT('',(-38.4,21.6,-1.61E-15));
#1831 = VECTOR('',#1832,1.);
#1832 = DIRECTION('',(0.,0.,1.));
#1833 = ORIENTED_EDGE('',*,*,#1834,.T.);
#1834 = EDGE_CURVE('',#1827,#1215,#1835,.T.);
#1835 = LINE('',#1836,#1837);
#1836 = CARTESIAN_POINT('',(-38.39999999999,17.403367565501,1.2));
#1837 = VECTOR('',#1838,1.);
#1838 = DIRECTION('',(-9.80589E-12,1.,-0.));
#1839 = ORIENTED_EDGE('',*,*,#1214,.F.);
#1840 = PLANE('',#1841);
#1841 = AXIS2_PLACEMENT_3D('',#1842,#1843,#1844);
#1842 = CARTESIAN_POINT('',(-38.40000000001,19.999999999994,
    1.164363123941));
#1843 = DIRECTION('',(-1.,-8.35281E-12,5.596303E-11));
#1844 = DIRECTION('',(-5.596303E-11,0.,-1.));
#1845 = ADVANCED_FACE('',(#1846),#1850,.T.);
#1846 = FACE_BOUND('',#1847,.T.);
#1847 = EDGE_LOOP('',(#1848,#1849));
#1848 = ORIENTED_EDGE('',*,*,#1787,.T.);
#1849 = ORIENTED_EDGE('',*,*,#1205,.T.);
#1850 = PLANE('',#1851);
#1851 = AXIS2_PLACEMENT_3D('',#1852,#1853,#1854);
#1852 = CARTESIAN_POINT('',(-40.,20.,1.));
#1853 = DIRECTION('',(0.,0.,-1.));
#1854 = DIRECTION('',(-1.,0.,0.));
#1855 = ADVANCED_FACE('',(#1856),#1874,.F.);
#1856 = FACE_BOUND('',#1857,.F.);
#1857 = EDGE_LOOP('',(#1858,#1866,#1872,#1873));
#1858 = ORIENTED_EDGE('',*,*,#1859,.F.);
#1859 = EDGE_CURVE('',#1860,#1223,#1862,.T.);
#1860 = VERTEX_POINT('',#1861);
#1861 = CARTESIAN_POINT('',(-41.59999999999,21.6,1.2));
#1862 = LINE('',#1863,#1864);
#1863 = CARTESIAN_POINT('',(-41.59999999994,17.403367565519,1.2));
#1864 = VECTOR('',#1865,1.);
#1865 = DIRECTION('',(-8.62514E-12,1.,-0.));
#1866 = ORIENTED_EDGE('',*,*,#1867,.T.);
#1867 = EDGE_CURVE('',#1860,#1827,#1868,.T.);
#1868 = LINE('',#1869,#1870);
#1869 = CARTESIAN_POINT('',(-35.44999999997,21.6,1.2));
#1870 = VECTOR('',#1871,1.);
#1871 = DIRECTION('',(1.,0.,0.));
#1872 = ORIENTED_EDGE('',*,*,#1834,.T.);
#1873 = ORIENTED_EDGE('',*,*,#1222,.F.);
#1874 = PLANE('',#1875);
#1875 = AXIS2_PLACEMENT_3D('',#1876,#1877,#1878);
#1876 = CARTESIAN_POINT('',(-32.49999999995,20.,1.2));
#1877 = DIRECTION('',(0.,0.,1.));
#1878 = DIRECTION('',(1.,0.,0.));
#1879 = ADVANCED_FACE('',(#1880),#1929,.T.);
#1880 = FACE_BOUND('',#1881,.T.);
#1881 = EDGE_LOOP('',(#1882,#1883,#1891,#1899,#1907,#1915,#1921,#1922,
    #1928));
#1882 = ORIENTED_EDGE('',*,*,#1859,.F.);
#1883 = ORIENTED_EDGE('',*,*,#1884,.T.);
#1884 = EDGE_CURVE('',#1860,#1885,#1887,.T.);
#1885 = VERTEX_POINT('',#1886);
#1886 = CARTESIAN_POINT('',(-41.6,21.6,1.4));
#1887 = LINE('',#1888,#1889);
#1888 = CARTESIAN_POINT('',(-41.6,21.6,-1.61E-15));
#1889 = VECTOR('',#1890,1.);
#1890 = DIRECTION('',(0.,0.,1.));
#1891 = ORIENTED_EDGE('',*,*,#1892,.T.);
#1892 = EDGE_CURVE('',#1885,#1893,#1895,.T.);
#1893 = VERTEX_POINT('',#1894);
#1894 = CARTESIAN_POINT('',(-41.6,20.,1.4));
#1895 = LINE('',#1896,#1897);
#1896 = CARTESIAN_POINT('',(-41.6,21.6,1.4));
#1897 = VECTOR('',#1898,1.);
#1898 = DIRECTION('',(0.,-1.,0.));
#1899 = ORIENTED_EDGE('',*,*,#1900,.T.);
#1900 = EDGE_CURVE('',#1893,#1901,#1903,.T.);
#1901 = VERTEX_POINT('',#1902);
#1902 = CARTESIAN_POINT('',(-41.6,18.4,1.4));
#1903 = LINE('',#1904,#1905);
#1904 = CARTESIAN_POINT('',(-41.6,21.6,1.4));
#1905 = VECTOR('',#1906,1.);
#1906 = DIRECTION('',(0.,-1.,0.));
#1907 = ORIENTED_EDGE('',*,*,#1908,.F.);
#1908 = EDGE_CURVE('',#1909,#1901,#1911,.T.);
#1909 = VERTEX_POINT('',#1910);
#1910 = CARTESIAN_POINT('',(-41.59999999997,18.4,1.2));
#1911 = LINE('',#1912,#1913);
#1912 = CARTESIAN_POINT('',(-41.6,18.4,-1.61E-15));
#1913 = VECTOR('',#1914,1.);
#1914 = DIRECTION('',(0.,0.,1.));
#1915 = ORIENTED_EDGE('',*,*,#1916,.F.);
#1916 = EDGE_CURVE('',#1269,#1909,#1917,.T.);
#1917 = LINE('',#1918,#1919);
#1918 = CARTESIAN_POINT('',(-41.59999999994,17.403367565519,1.2));
#1919 = VECTOR('',#1920,1.);
#1920 = DIRECTION('',(-8.62514E-12,1.,-0.));
#1921 = ORIENTED_EDGE('',*,*,#1268,.F.);
#1922 = ORIENTED_EDGE('',*,*,#1923,.T.);
#1923 = EDGE_CURVE('',#1260,#1232,#1924,.T.);
#1924 = LINE('',#1925,#1926);
#1925 = CARTESIAN_POINT('',(-41.59999999995,18.701683782752,1.));
#1926 = VECTOR('',#1927,1.);
#1927 = DIRECTION('',(-8.62514E-12,1.,0.));
#1928 = ORIENTED_EDGE('',*,*,#1231,.T.);
#1929 = PLANE('',#1930);
#1930 = AXIS2_PLACEMENT_3D('',#1931,#1932,#1933);
#1931 = CARTESIAN_POINT('',(-41.59999999998,20.000000000011,
    1.164363123941));
#1932 = DIRECTION('',(1.,7.34666E-12,7.075203E-11));
#1933 = DIRECTION('',(-7.075203E-11,0.,1.));
#1934 = ADVANCED_FACE('',(#1935),#1940,.T.);
#1935 = FACE_BOUND('',#1936,.T.);
#1936 = EDGE_LOOP('',(#1937,#1938,#1939));
#1937 = ORIENTED_EDGE('',*,*,#1259,.T.);
#1938 = ORIENTED_EDGE('',*,*,#1239,.T.);
#1939 = ORIENTED_EDGE('',*,*,#1923,.F.);
#1940 = PLANE('',#1941);
#1941 = AXIS2_PLACEMENT_3D('',#1942,#1943,#1944);
#1942 = CARTESIAN_POINT('',(-40.,20.,1.));
#1943 = DIRECTION('',(0.,0.,-1.));
#1944 = DIRECTION('',(-1.,0.,0.));
#1945 = ADVANCED_FACE('',(#1946),#1957,.F.);
#1946 = FACE_BOUND('',#1947,.F.);
#1947 = EDGE_LOOP('',(#1948,#1949,#1950,#1956));
#1948 = ORIENTED_EDGE('',*,*,#1276,.F.);
#1949 = ORIENTED_EDGE('',*,*,#1794,.T.);
#1950 = ORIENTED_EDGE('',*,*,#1951,.T.);
#1951 = EDGE_CURVE('',#1795,#1909,#1952,.T.);
#1952 = LINE('',#1953,#1954);
#1953 = CARTESIAN_POINT('',(-37.04999999997,18.4,1.2));
#1954 = VECTOR('',#1955,1.);
#1955 = DIRECTION('',(-1.,0.,0.));
#1956 = ORIENTED_EDGE('',*,*,#1916,.F.);
#1957 = PLANE('',#1958);
#1958 = AXIS2_PLACEMENT_3D('',#1959,#1960,#1961);
#1959 = CARTESIAN_POINT('',(-32.49999999995,20.,1.2));
#1960 = DIRECTION('',(0.,0.,1.));
#1961 = DIRECTION('',(1.,0.,0.));
#1962 = ADVANCED_FACE('',(#1963),#2005,.F.);
#1963 = FACE_BOUND('',#1964,.T.);
#1964 = EDGE_LOOP('',(#1965,#1974,#1980,#1981,#1982,#1991,#1998));
#1965 = ORIENTED_EDGE('',*,*,#1966,.F.);
#1966 = EDGE_CURVE('',#1893,#1967,#1969,.T.);
#1967 = VERTEX_POINT('',#1968);
#1968 = CARTESIAN_POINT('',(-40.,18.4,1.4));
#1969 = CIRCLE('',#1970,1.6);
#1970 = AXIS2_PLACEMENT_3D('',#1971,#1972,#1973);
#1971 = CARTESIAN_POINT('',(-40.,20.,1.4));
#1972 = DIRECTION('',(0.,0.,1.));
#1973 = DIRECTION('',(-1.,0.,0.));
#1974 = ORIENTED_EDGE('',*,*,#1975,.T.);
#1975 = EDGE_CURVE('',#1893,#1300,#1976,.T.);
#1976 = LINE('',#1977,#1978);
#1977 = CARTESIAN_POINT('',(-41.6,20.,1.));
#1978 = VECTOR('',#1979,1.);
#1979 = DIRECTION('',(6.E-17,0.,1.));
#1980 = ORIENTED_EDGE('',*,*,#1299,.T.);
#1981 = ORIENTED_EDGE('',*,*,#1975,.F.);
#1982 = ORIENTED_EDGE('',*,*,#1983,.F.);
#1983 = EDGE_CURVE('',#1984,#1893,#1986,.T.);
#1984 = VERTEX_POINT('',#1985);
#1985 = CARTESIAN_POINT('',(-40.,21.6,1.4));
#1986 = CIRCLE('',#1987,1.6);
#1987 = AXIS2_PLACEMENT_3D('',#1988,#1989,#1990);
#1988 = CARTESIAN_POINT('',(-40.,20.,1.4));
#1989 = DIRECTION('',(0.,0.,1.));
#1990 = DIRECTION('',(-1.,0.,0.));
#1991 = ORIENTED_EDGE('',*,*,#1992,.F.);
#1992 = EDGE_CURVE('',#1811,#1984,#1993,.T.);
#1993 = CIRCLE('',#1994,1.6);
#1994 = AXIS2_PLACEMENT_3D('',#1995,#1996,#1997);
#1995 = CARTESIAN_POINT('',(-40.,20.,1.4));
#1996 = DIRECTION('',(0.,0.,1.));
#1997 = DIRECTION('',(-1.,0.,0.));
#1998 = ORIENTED_EDGE('',*,*,#1999,.F.);
#1999 = EDGE_CURVE('',#1967,#1811,#2000,.T.);
#2000 = CIRCLE('',#2001,1.6);
#2001 = AXIS2_PLACEMENT_3D('',#2002,#2003,#2004);
#2002 = CARTESIAN_POINT('',(-40.,20.,1.4));
#2003 = DIRECTION('',(0.,0.,1.));
#2004 = DIRECTION('',(-1.,0.,0.));
#2005 = CYLINDRICAL_SURFACE('',#2006,1.6);
#2006 = AXIS2_PLACEMENT_3D('',#2007,#2008,#2009);
#2007 = CARTESIAN_POINT('',(-40.,20.,1.));
#2008 = DIRECTION('',(0.,0.,1.));
#2009 = DIRECTION('',(-1.,0.,0.));
#2010 = ADVANCED_FACE('',(#2011),#2053,.F.);
#2011 = FACE_BOUND('',#2012,.T.);
#2012 = EDGE_LOOP('',(#2013,#2022,#2028,#2029,#2030,#2039,#2046));
#2013 = ORIENTED_EDGE('',*,*,#2014,.F.);
#2014 = EDGE_CURVE('',#1714,#2015,#2017,.T.);
#2015 = VERTEX_POINT('',#2016);
#2016 = CARTESIAN_POINT('',(-25.,18.4,1.4));
#2017 = CIRCLE('',#2018,1.6);
#2018 = AXIS2_PLACEMENT_3D('',#2019,#2020,#2021);
#2019 = CARTESIAN_POINT('',(-25.,20.,1.4));
#2020 = DIRECTION('',(0.,0.,1.));
#2021 = DIRECTION('',(-1.,0.,0.));
#2022 = ORIENTED_EDGE('',*,*,#2023,.T.);
#2023 = EDGE_CURVE('',#1714,#1311,#2024,.T.);
#2024 = LINE('',#2025,#2026);
#2025 = CARTESIAN_POINT('',(-26.6,20.,1.));
#2026 = VECTOR('',#2027,1.);
#2027 = DIRECTION('',(6.E-17,0.,1.));
#2028 = ORIENTED_EDGE('',*,*,#1310,.T.);
#2029 = ORIENTED_EDGE('',*,*,#2023,.F.);
#2030 = ORIENTED_EDGE('',*,*,#2031,.F.);
#2031 = EDGE_CURVE('',#2032,#1714,#2034,.T.);
#2032 = VERTEX_POINT('',#2033);
#2033 = CARTESIAN_POINT('',(-25.,21.6,1.4));
#2034 = CIRCLE('',#2035,1.6);
#2035 = AXIS2_PLACEMENT_3D('',#2036,#2037,#2038);
#2036 = CARTESIAN_POINT('',(-25.,20.,1.4));
#2037 = DIRECTION('',(0.,0.,1.));
#2038 = DIRECTION('',(-1.,0.,0.));
#2039 = ORIENTED_EDGE('',*,*,#2040,.F.);
#2040 = EDGE_CURVE('',#1632,#2032,#2041,.T.);
#2041 = CIRCLE('',#2042,1.6);
#2042 = AXIS2_PLACEMENT_3D('',#2043,#2044,#2045);
#2043 = CARTESIAN_POINT('',(-25.,20.,1.4));
#2044 = DIRECTION('',(0.,0.,1.));
#2045 = DIRECTION('',(-1.,0.,0.));
#2046 = ORIENTED_EDGE('',*,*,#2047,.F.);
#2047 = EDGE_CURVE('',#2015,#1632,#2048,.T.);
#2048 = CIRCLE('',#2049,1.6);
#2049 = AXIS2_PLACEMENT_3D('',#2050,#2051,#2052);
#2050 = CARTESIAN_POINT('',(-25.,20.,1.4));
#2051 = DIRECTION('',(0.,0.,1.));
#2052 = DIRECTION('',(-1.,0.,0.));
#2053 = CYLINDRICAL_SURFACE('',#2054,1.6);
#2054 = AXIS2_PLACEMENT_3D('',#2055,#2056,#2057);
#2055 = CARTESIAN_POINT('',(-25.,20.,1.));
#2056 = DIRECTION('',(0.,0.,1.));
#2057 = DIRECTION('',(-1.,0.,0.));
#2058 = ADVANCED_FACE('',(#2059),#2070,.F.);
#2059 = FACE_BOUND('',#2060,.T.);
#2060 = EDGE_LOOP('',(#2061,#2062,#2063,#2069));
#2061 = ORIENTED_EDGE('',*,*,#1439,.T.);
#2062 = ORIENTED_EDGE('',*,*,#1380,.T.);
#2063 = ORIENTED_EDGE('',*,*,#2064,.F.);
#2064 = EDGE_CURVE('',#1469,#1373,#2065,.T.);
#2065 = LINE('',#2066,#2067);
#2066 = CARTESIAN_POINT('',(1.5,4.,7.));
#2067 = VECTOR('',#2068,1.);
#2068 = DIRECTION('',(0.,0.,1.));
#2069 = ORIENTED_EDGE('',*,*,#1468,.F.);
#2070 = CYLINDRICAL_SURFACE('',#2071,8.5);
#2071 = AXIS2_PLACEMENT_3D('',#2072,#2073,#2074);
#2072 = CARTESIAN_POINT('',(-7.,4.,7.));
#2073 = DIRECTION('',(-0.,-0.,-1.));
#2074 = DIRECTION('',(1.,0.,0.));
#2075 = ADVANCED_FACE('',(#2076),#2087,.T.);
#2076 = FACE_BOUND('',#2077,.T.);
#2077 = EDGE_LOOP('',(#2078,#2079,#2080,#2081));
#2078 = ORIENTED_EDGE('',*,*,#1477,.F.);
#2079 = ORIENTED_EDGE('',*,*,#2064,.T.);
#2080 = ORIENTED_EDGE('',*,*,#1372,.T.);
#2081 = ORIENTED_EDGE('',*,*,#2082,.F.);
#2082 = EDGE_CURVE('',#1478,#1365,#2083,.T.);
#2083 = LINE('',#2084,#2085);
#2084 = CARTESIAN_POINT('',(1.5,10.,11.));
#2085 = VECTOR('',#2086,1.);
#2086 = DIRECTION('',(0.,0.,1.));
#2087 = PLANE('',#2088);
#2088 = AXIS2_PLACEMENT_3D('',#2089,#2090,#2091);
#2089 = CARTESIAN_POINT('',(1.5,4.,7.));
#2090 = DIRECTION('',(-1.,0.,0.));
#2091 = DIRECTION('',(0.,1.,0.));
#2092 = ADVANCED_FACE('',(#2093),#2104,.F.);
#2093 = FACE_BOUND('',#2094,.F.);
#2094 = EDGE_LOOP('',(#2095,#2096,#2097,#2103));
#2095 = ORIENTED_EDGE('',*,*,#2082,.F.);
#2096 = ORIENTED_EDGE('',*,*,#1485,.T.);
#2097 = ORIENTED_EDGE('',*,*,#2098,.F.);
#2098 = EDGE_CURVE('',#1356,#1486,#2099,.T.);
#2099 = LINE('',#2100,#2101);
#2100 = CARTESIAN_POINT('',(5.131456143535,10.,7.));
#2101 = VECTOR('',#2102,1.);
#2102 = DIRECTION('',(-0.,-0.,-1.));
#2103 = ORIENTED_EDGE('',*,*,#1364,.T.);
#2104 = PLANE('',#2105);
#2105 = AXIS2_PLACEMENT_3D('',#2106,#2107,#2108);
#2106 = CARTESIAN_POINT('',(10.,10.,15.));
#2107 = DIRECTION('',(0.,-1.,0.));
#2108 = DIRECTION('',(0.,0.,-1.));
#2109 = ADVANCED_FACE('',(#2110),#2121,.F.);
#2110 = FACE_BOUND('',#2111,.T.);
#2111 = EDGE_LOOP('',(#2112,#2113,#2114,#2115));
#2112 = ORIENTED_EDGE('',*,*,#1493,.F.);
#2113 = ORIENTED_EDGE('',*,*,#2098,.F.);
#2114 = ORIENTED_EDGE('',*,*,#1355,.T.);
#2115 = ORIENTED_EDGE('',*,*,#2116,.F.);
#2116 = EDGE_CURVE('',#1494,#1348,#2117,.T.);
#2117 = LINE('',#2118,#2119);
#2118 = CARTESIAN_POINT('',(7.,4.940588291844,7.));
#2119 = VECTOR('',#2120,1.);
#2120 = DIRECTION('',(0.,0.,1.));
#2121 = CYLINDRICAL_SURFACE('',#2122,3.1);
#2122 = AXIS2_PLACEMENT_3D('',#2123,#2124,#2125);
#2123 = CARTESIAN_POINT('',(7.5,8.,7.));
#2124 = DIRECTION('',(-0.,-0.,-1.));
#2125 = DIRECTION('',(1.,0.,0.));
#2126 = ADVANCED_FACE('',(#2127),#2138,.T.);
#2127 = FACE_BOUND('',#2128,.T.);
#2128 = EDGE_LOOP('',(#2129,#2130,#2131,#2137));
#2129 = ORIENTED_EDGE('',*,*,#2116,.T.);
#2130 = ORIENTED_EDGE('',*,*,#1347,.T.);
#2131 = ORIENTED_EDGE('',*,*,#2132,.F.);
#2132 = EDGE_CURVE('',#1503,#1339,#2133,.T.);
#2133 = LINE('',#2134,#2135);
#2134 = CARTESIAN_POINT('',(7.,-4.940588291844,7.));
#2135 = VECTOR('',#2136,1.);
#2136 = DIRECTION('',(0.,0.,1.));
#2137 = ORIENTED_EDGE('',*,*,#1502,.F.);
#2138 = PLANE('',#2139);
#2139 = AXIS2_PLACEMENT_3D('',#2140,#2141,#2142);
#2140 = CARTESIAN_POINT('',(7.,4.940588291844,7.));
#2141 = DIRECTION('',(1.,0.,0.));
#2142 = DIRECTION('',(0.,-1.,0.));
#2143 = ADVANCED_FACE('',(#2144),#2150,.F.);
#2144 = FACE_BOUND('',#2145,.T.);
#2145 = EDGE_LOOP('',(#2146,#2147,#2148,#2149));
#2146 = ORIENTED_EDGE('',*,*,#2132,.T.);
#2147 = ORIENTED_EDGE('',*,*,#1338,.T.);
#2148 = ORIENTED_EDGE('',*,*,#1543,.F.);
#2149 = ORIENTED_EDGE('',*,*,#1510,.F.);
#2150 = CYLINDRICAL_SURFACE('',#2151,3.1);
#2151 = AXIS2_PLACEMENT_3D('',#2152,#2153,#2154);
#2152 = CARTESIAN_POINT('',(7.5,-8.,7.));
#2153 = DIRECTION('',(-0.,-0.,-1.));
#2154 = DIRECTION('',(1.,0.,0.));
#2155 = ADVANCED_FACE('',(#2156),#2175,.F.);
#2156 = FACE_BOUND('',#2157,.F.);
#2157 = EDGE_LOOP('',(#2158,#2167,#2173,#2174));
#2158 = ORIENTED_EDGE('',*,*,#2159,.F.);
#2159 = EDGE_CURVE('',#2160,#2160,#2162,.T.);
#2160 = VERTEX_POINT('',#2161);
#2161 = CARTESIAN_POINT('',(-9.3,-16.,3.2));
#2162 = CIRCLE('',#2163,1.7);
#2163 = AXIS2_PLACEMENT_3D('',#2164,#2165,#2166);
#2164 = CARTESIAN_POINT('',(-11.,-16.,3.2));
#2165 = DIRECTION('',(0.,0.,-1.));
#2166 = DIRECTION('',(1.,0.,0.));
#2167 = ORIENTED_EDGE('',*,*,#2168,.T.);
#2168 = EDGE_CURVE('',#2160,#1398,#2169,.T.);
#2169 = LINE('',#2170,#2171);
#2170 = CARTESIAN_POINT('',(-9.3,-16.,0.));
#2171 = VECTOR('',#2172,1.);
#2172 = DIRECTION('',(0.,0.,1.));
#2173 = ORIENTED_EDGE('',*,*,#1397,.T.);
#2174 = ORIENTED_EDGE('',*,*,#2168,.F.);
#2175 = CYLINDRICAL_SURFACE('',#2176,1.7);
#2176 = AXIS2_PLACEMENT_3D('',#2177,#2178,#2179);
#2177 = CARTESIAN_POINT('',(-11.,-16.,0.));
#2178 = DIRECTION('',(0.,0.,-1.));
#2179 = DIRECTION('',(1.,0.,0.));
#2180 = ADVANCED_FACE('',(#2181),#2192,.F.);
#2181 = FACE_BOUND('',#2182,.T.);
#2182 = EDGE_LOOP('',(#2183,#2189,#2190,#2191));
#2183 = ORIENTED_EDGE('',*,*,#2184,.T.);
#2184 = EDGE_CURVE('',#1575,#1409,#2185,.T.);
#2185 = LINE('',#2186,#2187);
#2186 = CARTESIAN_POINT('',(-4.4,-8.,7.));
#2187 = VECTOR('',#2188,1.);
#2188 = DIRECTION('',(0.,0.,1.));
#2189 = ORIENTED_EDGE('',*,*,#1408,.T.);
#2190 = ORIENTED_EDGE('',*,*,#2184,.F.);
#2191 = ORIENTED_EDGE('',*,*,#1574,.F.);
#2192 = CYLINDRICAL_SURFACE('',#2193,3.1);
#2193 = AXIS2_PLACEMENT_3D('',#2194,#2195,#2196);
#2194 = CARTESIAN_POINT('',(-7.5,-8.,7.));
#2195 = DIRECTION('',(-0.,-0.,-1.));
#2196 = DIRECTION('',(1.,0.,0.));
#2197 = ADVANCED_FACE('',(#2198),#2217,.F.);
#2198 = FACE_BOUND('',#2199,.F.);
#2199 = EDGE_LOOP('',(#2200,#2209,#2215,#2216));
#2200 = ORIENTED_EDGE('',*,*,#2201,.F.);
#2201 = EDGE_CURVE('',#2202,#2202,#2204,.T.);
#2202 = VERTEX_POINT('',#2203);
#2203 = CARTESIAN_POINT('',(5.7,3.,3.2));
#2204 = CIRCLE('',#2205,1.7);
#2205 = AXIS2_PLACEMENT_3D('',#2206,#2207,#2208);
#2206 = CARTESIAN_POINT('',(4.,3.,3.2));
#2207 = DIRECTION('',(0.,0.,-1.));
#2208 = DIRECTION('',(1.,0.,0.));
#2209 = ORIENTED_EDGE('',*,*,#2210,.T.);
#2210 = EDGE_CURVE('',#2202,#1423,#2211,.T.);
#2211 = LINE('',#2212,#2213);
#2212 = CARTESIAN_POINT('',(5.7,3.,0.));
#2213 = VECTOR('',#2214,1.);
#2214 = DIRECTION('',(0.,0.,1.));
#2215 = ORIENTED_EDGE('',*,*,#1422,.T.);
#2216 = ORIENTED_EDGE('',*,*,#2210,.F.);
#2217 = CYLINDRICAL_SURFACE('',#2218,1.7);
#2218 = AXIS2_PLACEMENT_3D('',#2219,#2220,#2221);
#2219 = CARTESIAN_POINT('',(4.,3.,0.));
#2220 = DIRECTION('',(0.,0.,-1.));
#2221 = DIRECTION('',(1.,0.,0.));
#2222 = ADVANCED_FACE('',(#2223),#2240,.T.);
#2223 = FACE_BOUND('',#2224,.T.);
#2224 = EDGE_LOOP('',(#2225,#2226,#2227,#2233,#2239));
#2225 = ORIENTED_EDGE('',*,*,#1772,.T.);
#2226 = ORIENTED_EDGE('',*,*,#1729,.T.);
#2227 = ORIENTED_EDGE('',*,*,#2228,.T.);
#2228 = EDGE_CURVE('',#1722,#2015,#2229,.T.);
#2229 = LINE('',#2230,#2231);
#2230 = CARTESIAN_POINT('',(-26.6,18.4,1.4));
#2231 = VECTOR('',#2232,1.);
#2232 = DIRECTION('',(1.,0.,0.));
#2233 = ORIENTED_EDGE('',*,*,#2234,.T.);
#2234 = EDGE_CURVE('',#2015,#1624,#2235,.T.);
#2235 = LINE('',#2236,#2237);
#2236 = CARTESIAN_POINT('',(-26.6,18.4,1.4));
#2237 = VECTOR('',#2238,1.);
#2238 = DIRECTION('',(1.,0.,0.));
#2239 = ORIENTED_EDGE('',*,*,#1623,.F.);
#2240 = PLANE('',#2241);
#2241 = AXIS2_PLACEMENT_3D('',#2242,#2243,#2244);
#2242 = CARTESIAN_POINT('',(-25.,18.4,1.3));
#2243 = DIRECTION('',(0.,1.,0.));
#2244 = DIRECTION('',(0.,0.,1.));
#2245 = ADVANCED_FACE('',(#2246),#2251,.F.);
#2246 = FACE_BOUND('',#2247,.F.);
#2247 = EDGE_LOOP('',(#2248,#2249,#2250));
#2248 = ORIENTED_EDGE('',*,*,#2047,.F.);
#2249 = ORIENTED_EDGE('',*,*,#2234,.T.);
#2250 = ORIENTED_EDGE('',*,*,#1631,.T.);
#2251 = PLANE('',#2252);
#2252 = AXIS2_PLACEMENT_3D('',#2253,#2254,#2255);
#2253 = CARTESIAN_POINT('',(-32.5,20.,1.4));
#2254 = DIRECTION('',(0.,0.,1.));
#2255 = DIRECTION('',(1.,0.,0.));
#2256 = ADVANCED_FACE('',(#2257),#2267,.F.);
#2257 = FACE_BOUND('',#2258,.F.);
#2258 = EDGE_LOOP('',(#2259,#2260,#2261));
#2259 = ORIENTED_EDGE('',*,*,#2040,.F.);
#2260 = ORIENTED_EDGE('',*,*,#1639,.T.);
#2261 = ORIENTED_EDGE('',*,*,#2262,.T.);
#2262 = EDGE_CURVE('',#1640,#2032,#2263,.T.);
#2263 = LINE('',#2264,#2265);
#2264 = CARTESIAN_POINT('',(-23.4,21.6,1.4));
#2265 = VECTOR('',#2266,1.);
#2266 = DIRECTION('',(-1.,0.,0.));
#2267 = PLANE('',#2268);
#2268 = AXIS2_PLACEMENT_3D('',#2269,#2270,#2271);
#2269 = CARTESIAN_POINT('',(-32.5,20.,1.4));
#2270 = DIRECTION('',(0.,0.,1.));
#2271 = DIRECTION('',(1.,0.,0.));
#2272 = ADVANCED_FACE('',(#2273),#2285,.T.);
#2273 = FACE_BOUND('',#2274,.T.);
#2274 = EDGE_LOOP('',(#2275,#2276,#2277,#2278,#2284));
#2275 = ORIENTED_EDGE('',*,*,#1688,.T.);
#2276 = ORIENTED_EDGE('',*,*,#1647,.T.);
#2277 = ORIENTED_EDGE('',*,*,#2262,.T.);
#2278 = ORIENTED_EDGE('',*,*,#2279,.T.);
#2279 = EDGE_CURVE('',#2032,#1706,#2280,.T.);
#2280 = LINE('',#2281,#2282);
#2281 = CARTESIAN_POINT('',(-23.4,21.6,1.4));
#2282 = VECTOR('',#2283,1.);
#2283 = DIRECTION('',(-1.,0.,0.));
#2284 = ORIENTED_EDGE('',*,*,#1705,.F.);
#2285 = PLANE('',#2286);
#2286 = AXIS2_PLACEMENT_3D('',#2287,#2288,#2289);
#2287 = CARTESIAN_POINT('',(-25.,21.6,1.3));
#2288 = DIRECTION('',(-0.,-1.,-0.));
#2289 = DIRECTION('',(0.,0.,-1.));
#2290 = ADVANCED_FACE('',(#2291),#2296,.F.);
#2291 = FACE_BOUND('',#2292,.F.);
#2292 = EDGE_LOOP('',(#2293,#2294,#2295));
#2293 = ORIENTED_EDGE('',*,*,#1713,.T.);
#2294 = ORIENTED_EDGE('',*,*,#2031,.F.);
#2295 = ORIENTED_EDGE('',*,*,#2279,.T.);
#2296 = PLANE('',#2297);
#2297 = AXIS2_PLACEMENT_3D('',#2298,#2299,#2300);
#2298 = CARTESIAN_POINT('',(-32.5,20.,1.4));
#2299 = DIRECTION('',(0.,0.,1.));
#2300 = DIRECTION('',(1.,0.,0.));
#2301 = ADVANCED_FACE('',(#2302),#2307,.F.);
#2302 = FACE_BOUND('',#2303,.F.);
#2303 = EDGE_LOOP('',(#2304,#2305,#2306));
#2304 = ORIENTED_EDGE('',*,*,#1721,.T.);
#2305 = ORIENTED_EDGE('',*,*,#2228,.T.);
#2306 = ORIENTED_EDGE('',*,*,#2014,.F.);
#2307 = PLANE('',#2308);
#2308 = AXIS2_PLACEMENT_3D('',#2309,#2310,#2311);
#2309 = CARTESIAN_POINT('',(-32.5,20.,1.4));
#2310 = DIRECTION('',(0.,0.,1.));
#2311 = DIRECTION('',(1.,0.,0.));
#2312 = ADVANCED_FACE('',(#2313),#2330,.T.);
#2313 = FACE_BOUND('',#2314,.T.);
#2314 = EDGE_LOOP('',(#2315,#2316,#2317,#2323,#2329));
#2315 = ORIENTED_EDGE('',*,*,#1951,.T.);
#2316 = ORIENTED_EDGE('',*,*,#1908,.T.);
#2317 = ORIENTED_EDGE('',*,*,#2318,.T.);
#2318 = EDGE_CURVE('',#1901,#1967,#2319,.T.);
#2319 = LINE('',#2320,#2321);
#2320 = CARTESIAN_POINT('',(-41.6,18.4,1.4));
#2321 = VECTOR('',#2322,1.);
#2322 = DIRECTION('',(1.,0.,0.));
#2323 = ORIENTED_EDGE('',*,*,#2324,.T.);
#2324 = EDGE_CURVE('',#1967,#1803,#2325,.T.);
#2325 = LINE('',#2326,#2327);
#2326 = CARTESIAN_POINT('',(-41.6,18.4,1.4));
#2327 = VECTOR('',#2328,1.);
#2328 = DIRECTION('',(1.,0.,0.));
#2329 = ORIENTED_EDGE('',*,*,#1802,.F.);
#2330 = PLANE('',#2331);
#2331 = AXIS2_PLACEMENT_3D('',#2332,#2333,#2334);
#2332 = CARTESIAN_POINT('',(-40.,18.4,1.3));
#2333 = DIRECTION('',(0.,1.,0.));
#2334 = DIRECTION('',(0.,0.,1.));
#2335 = ADVANCED_FACE('',(#2336),#2341,.F.);
#2336 = FACE_BOUND('',#2337,.F.);
#2337 = EDGE_LOOP('',(#2338,#2339,#2340));
#2338 = ORIENTED_EDGE('',*,*,#1999,.F.);
#2339 = ORIENTED_EDGE('',*,*,#2324,.T.);
#2340 = ORIENTED_EDGE('',*,*,#1810,.T.);
#2341 = PLANE('',#2342);
#2342 = AXIS2_PLACEMENT_3D('',#2343,#2344,#2345);
#2343 = CARTESIAN_POINT('',(-32.5,20.,1.4));
#2344 = DIRECTION('',(0.,0.,1.));
#2345 = DIRECTION('',(1.,0.,0.));
#2346 = ADVANCED_FACE('',(#2347),#2357,.F.);
#2347 = FACE_BOUND('',#2348,.F.);
#2348 = EDGE_LOOP('',(#2349,#2350,#2351));
#2349 = ORIENTED_EDGE('',*,*,#1992,.F.);
#2350 = ORIENTED_EDGE('',*,*,#1818,.T.);
#2351 = ORIENTED_EDGE('',*,*,#2352,.T.);
#2352 = EDGE_CURVE('',#1819,#1984,#2353,.T.);
#2353 = LINE('',#2354,#2355);
#2354 = CARTESIAN_POINT('',(-38.4,21.6,1.4));
#2355 = VECTOR('',#2356,1.);
#2356 = DIRECTION('',(-1.,0.,0.));
#2357 = PLANE('',#2358);
#2358 = AXIS2_PLACEMENT_3D('',#2359,#2360,#2361);
#2359 = CARTESIAN_POINT('',(-32.5,20.,1.4));
#2360 = DIRECTION('',(0.,0.,1.));
#2361 = DIRECTION('',(1.,0.,0.));
#2362 = ADVANCED_FACE('',(#2363),#2375,.T.);
#2363 = FACE_BOUND('',#2364,.T.);
#2364 = EDGE_LOOP('',(#2365,#2366,#2367,#2368,#2374));
#2365 = ORIENTED_EDGE('',*,*,#1867,.T.);
#2366 = ORIENTED_EDGE('',*,*,#1826,.T.);
#2367 = ORIENTED_EDGE('',*,*,#2352,.T.);
#2368 = ORIENTED_EDGE('',*,*,#2369,.T.);
#2369 = EDGE_CURVE('',#1984,#1885,#2370,.T.);
#2370 = LINE('',#2371,#2372);
#2371 = CARTESIAN_POINT('',(-38.4,21.6,1.4));
#2372 = VECTOR('',#2373,1.);
#2373 = DIRECTION('',(-1.,0.,0.));
#2374 = ORIENTED_EDGE('',*,*,#1884,.F.);
#2375 = PLANE('',#2376);
#2376 = AXIS2_PLACEMENT_3D('',#2377,#2378,#2379);
#2377 = CARTESIAN_POINT('',(-40.,21.6,1.3));
#2378 = DIRECTION('',(-0.,-1.,-0.));
#2379 = DIRECTION('',(0.,0.,-1.));
#2380 = ADVANCED_FACE('',(#2381),#2386,.F.);
#2381 = FACE_BOUND('',#2382,.F.);
#2382 = EDGE_LOOP('',(#2383,#2384,#2385));
#2383 = ORIENTED_EDGE('',*,*,#1892,.T.);
#2384 = ORIENTED_EDGE('',*,*,#1983,.F.);
#2385 = ORIENTED_EDGE('',*,*,#2369,.T.);
#2386 = PLANE('',#2387);
#2387 = AXIS2_PLACEMENT_3D('',#2388,#2389,#2390);
#2388 = CARTESIAN_POINT('',(-32.5,20.,1.4));
#2389 = DIRECTION('',(0.,0.,1.));
#2390 = DIRECTION('',(1.,0.,0.));
#2391 = ADVANCED_FACE('',(#2392),#2397,.F.);
#2392 = FACE_BOUND('',#2393,.F.);
#2393 = EDGE_LOOP('',(#2394,#2395,#2396));
#2394 = ORIENTED_EDGE('',*,*,#1900,.T.);
#2395 = ORIENTED_EDGE('',*,*,#2318,.T.);
#2396 = ORIENTED_EDGE('',*,*,#1966,.F.);
#2397 = PLANE('',#2398);
#2398 = AXIS2_PLACEMENT_3D('',#2399,#2400,#2401);
#2399 = CARTESIAN_POINT('',(-32.5,20.,1.4));
#2400 = DIRECTION('',(0.,0.,1.));
#2401 = DIRECTION('',(1.,0.,0.));
#2402 = ADVANCED_FACE('',(#2403),#2406,.T.);
#2403 = FACE_BOUND('',#2404,.F.);
#2404 = EDGE_LOOP('',(#2405));
#2405 = ORIENTED_EDGE('',*,*,#2159,.T.);
#2406 = PLANE('',#2407);
#2407 = AXIS2_PLACEMENT_3D('',#2408,#2409,#2410);
#2408 = CARTESIAN_POINT('',(-3.5,-6.5,3.2));
#2409 = DIRECTION('',(0.,0.,1.));
#2410 = DIRECTION('',(1.,0.,0.));
#2411 = ADVANCED_FACE('',(#2412),#2415,.T.);
#2412 = FACE_BOUND('',#2413,.F.);
#2413 = EDGE_LOOP('',(#2414));
#2414 = ORIENTED_EDGE('',*,*,#2201,.T.);
#2415 = PLANE('',#2416);
#2416 = AXIS2_PLACEMENT_3D('',#2417,#2418,#2419);
#2417 = CARTESIAN_POINT('',(-3.5,-6.5,3.2));
#2418 = DIRECTION('',(0.,0.,1.));
#2419 = DIRECTION('',(1.,0.,0.));
#2420 = ( GEOMETRIC_REPRESENTATION_CONTEXT(3) 
GLOBAL_UNCERTAINTY_ASSIGNED_CONTEXT((#2424)) 
GLOBAL_UNIT_ASSIGNED_CONTEXT((#2421,#2422,#2423)) REPRESENTATION_CONTEXT
('Context #1','3D Context with UNIT and UNCERTAINTY') );
#2421 = ( LENGTH_UNIT() NAMED_UNIT(*) SI_UNIT(.MILLI.,.METRE.) );
#2422 = ( NAMED_UNIT(*) PLANE_ANGLE_UNIT() SI_UNIT($,.RADIAN.) );
#2423 = ( NAMED_UNIT(*) SI_UNIT($,.STERADIAN.) SOLID_ANGLE_UNIT() );
#2424 = UNCERTAINTY_MEASURE_WITH_UNIT(LENGTH_MEASURE(2.E-05),#2421,
  'distance_accuracy_value','confusion accuracy');
#2425 = PRODUCT_RELATED_PRODUCT_CATEGORY('part',$,(#7));
#2426 = MECHANICAL_DESIGN_GEOMETRIC_PRESENTATION_REPRESENTATION('',(
    #2427),#2420);
#2427 = STYLED_ITEM('color',(#2428),#15);
#2428 = PRESENTATION_STYLE_ASSIGNMENT((#2429,#2437));
#2429 = SURFACE_STYLE_USAGE(.BOTH.,#2430);
#2430 = SURFACE_SIDE_STYLE('',(#2431,#2435));
#2431 = SURFACE_STYLE_FILL_AREA(#2432);
#2432 = FILL_AREA_STYLE('',(#2433));
#2433 = FILL_AREA_STYLE_COLOUR('',#2434);
#2434 = COLOUR_RGB('',0.596078458879,0.,0.584313743644);
#2435 = SURFACE_STYLE_RENDERING_WITH_PROPERTIES(.NORMAL_SHADING.,#2434,(
    #2436));
#2436 = SURFACE_STYLE_TRANSPARENT(0.5);
#2437 = CURVE_STYLE('',#2438,POSITIVE_LENGTH_MEASURE(0.1),#2439);
#2438 = DRAUGHTING_PRE_DEFINED_CURVE_FONT('continuous');
#2439 = COLOUR_RGB('',9.803921802644E-02,9.803921802644E-02,
  9.803921802644E-02);
ENDSEC;
END-ISO-10303-21;
