ISO-10303-21;
HEADER;
FILE_DESCRIPTION(('FreeCAD Model'),'2;1');
FILE_NAME('Open CASCADE Shape Model','2025-09-19T10:13:08',(''),(''),
  'Open CASCADE STEP processor 7.9','FreeCAD','Unknown');
FILE_SCHEMA(('AUTOMOTIVE_DESIGN { 1 0 10303 214 1 1 1 1 }'));
ENDSEC;
DATA;
#1 = APPLICATION_PROTOCOL_DEFINITION('international standard',
  'automotive_design',2000,#2);
#2 = APPLICATION_CONTEXT(
  'core data for automotive mechanical design processes');
#3 = SHAPE_DEFINITION_REPRESENTATION(#4,#10);
#4 = PRODUCT_DEFINITION_SHAPE('','',#5);
#5 = PRODUCT_DEFINITION('design','',#6,#9);
#6 = PRODUCT_DEFINITION_FORMATION('','',#7);
#7 = PRODUCT('150_180_corner','150_180_corner','',(#8));
#8 = PRODUCT_CONTEXT('',#2,'mechanical');
#9 = PRODUCT_DEFINITION_CONTEXT('part definition',#2,'design');
#10 = ADVANCED_BREP_SHAPE_REPRESENTATION('',(#11,#15),#910);
#11 = AXIS2_PLACEMENT_3D('',#12,#13,#14);
#12 = CARTESIAN_POINT('',(0.,0.,0.));
#13 = DIRECTION('',(0.,0.,1.));
#14 = DIRECTION('',(1.,0.,-0.));
#15 = MANIFOLD_SOLID_BREP('',#16);
#16 = CLOSED_SHELL('',(#17,#87,#112,#154,#178,#224,#248,#276,#301,#326,
    #439,#464,#489,#514,#539,#564,#623,#654,#678,#702,#726,#750,#767,
    #789,#806,#823,#840,#857,#869,#881,#893));
#17 = ADVANCED_FACE('',(#18,#29,#71),#82,.T.);
#18 = FACE_BOUND('',#19,.T.);
#19 = EDGE_LOOP('',(#20));
#20 = ORIENTED_EDGE('',*,*,#21,.F.);
#21 = EDGE_CURVE('',#22,#22,#24,.T.);
#22 = VERTEX_POINT('',#23);
#23 = CARTESIAN_POINT('',(7.7,-5.,20.));
#24 = CIRCLE('',#25,2.7);
#25 = AXIS2_PLACEMENT_3D('',#26,#27,#28);
#26 = CARTESIAN_POINT('',(5.,-5.,20.));
#27 = DIRECTION('',(0.,0.,1.));
#28 = DIRECTION('',(1.,0.,0.));
#29 = FACE_BOUND('',#30,.T.);
#30 = EDGE_LOOP('',(#31,#41,#49,#57,#65));
#31 = ORIENTED_EDGE('',*,*,#32,.T.);
#32 = EDGE_CURVE('',#33,#35,#37,.T.);
#33 = VERTEX_POINT('',#34);
#34 = CARTESIAN_POINT('',(0.,0.,20.));
#35 = VERTEX_POINT('',#36);
#36 = CARTESIAN_POINT('',(0.,-35.,20.));
#37 = LINE('',#38,#39);
#38 = CARTESIAN_POINT('',(0.,0.,20.));
#39 = VECTOR('',#40,1.);
#40 = DIRECTION('',(0.,-1.,0.));
#41 = ORIENTED_EDGE('',*,*,#42,.T.);
#42 = EDGE_CURVE('',#35,#43,#45,.T.);
#43 = VERTEX_POINT('',#44);
#44 = CARTESIAN_POINT('',(5.,-35.,20.));
#45 = LINE('',#46,#47);
#46 = CARTESIAN_POINT('',(0.,-35.,20.));
#47 = VECTOR('',#48,1.);
#48 = DIRECTION('',(1.,0.,0.));
#49 = ORIENTED_EDGE('',*,*,#50,.T.);
#50 = EDGE_CURVE('',#43,#51,#53,.T.);
#51 = VERTEX_POINT('',#52);
#52 = CARTESIAN_POINT('',(35.,-5.,20.));
#53 = LINE('',#54,#55);
#54 = CARTESIAN_POINT('',(5.,-35.,20.));
#55 = VECTOR('',#56,1.);
#56 = DIRECTION('',(0.707106781187,0.707106781187,0.));
#57 = ORIENTED_EDGE('',*,*,#58,.T.);
#58 = EDGE_CURVE('',#51,#59,#61,.T.);
#59 = VERTEX_POINT('',#60);
#60 = CARTESIAN_POINT('',(35.,0.,20.));
#61 = LINE('',#62,#63);
#62 = CARTESIAN_POINT('',(35.,-5.,20.));
#63 = VECTOR('',#64,1.);
#64 = DIRECTION('',(0.,1.,0.));
#65 = ORIENTED_EDGE('',*,*,#66,.T.);
#66 = EDGE_CURVE('',#59,#33,#67,.T.);
#67 = LINE('',#68,#69);
#68 = CARTESIAN_POINT('',(35.,0.,20.));
#69 = VECTOR('',#70,1.);
#70 = DIRECTION('',(-1.,0.,0.));
#71 = FACE_BOUND('',#72,.T.);
#72 = EDGE_LOOP('',(#73));
#73 = ORIENTED_EDGE('',*,*,#74,.F.);
#74 = EDGE_CURVE('',#75,#75,#77,.T.);
#75 = VERTEX_POINT('',#76);
#76 = CARTESIAN_POINT('',(12.7,-10.,20.));
#77 = CIRCLE('',#78,2.7);
#78 = AXIS2_PLACEMENT_3D('',#79,#80,#81);
#79 = CARTESIAN_POINT('',(10.,-10.,20.));
#80 = DIRECTION('',(0.,0.,1.));
#81 = DIRECTION('',(1.,0.,0.));
#82 = PLANE('',#83);
#83 = AXIS2_PLACEMENT_3D('',#84,#85,#86);
#84 = CARTESIAN_POINT('',(12.713168331359,-12.71316833135,20.));
#85 = DIRECTION('',(0.,0.,1.));
#86 = DIRECTION('',(1.,0.,0.));
#87 = ADVANCED_FACE('',(#88),#107,.F.);
#88 = FACE_BOUND('',#89,.T.);
#89 = EDGE_LOOP('',(#90,#98,#99,#100));
#90 = ORIENTED_EDGE('',*,*,#91,.F.);
#91 = EDGE_CURVE('',#22,#92,#94,.T.);
#92 = VERTEX_POINT('',#93);
#93 = CARTESIAN_POINT('',(6.7,-5.,19.));
#94 = LINE('',#95,#96);
#95 = CARTESIAN_POINT('',(6.7,-5.,19.));
#96 = VECTOR('',#97,1.);
#97 = DIRECTION('',(-0.707106781187,-0.,-0.707106781187));
#98 = ORIENTED_EDGE('',*,*,#21,.T.);
#99 = ORIENTED_EDGE('',*,*,#91,.T.);
#100 = ORIENTED_EDGE('',*,*,#101,.F.);
#101 = EDGE_CURVE('',#92,#92,#102,.T.);
#102 = CIRCLE('',#103,1.7);
#103 = AXIS2_PLACEMENT_3D('',#104,#105,#106);
#104 = CARTESIAN_POINT('',(5.,-5.,19.));
#105 = DIRECTION('',(0.,0.,1.));
#106 = DIRECTION('',(1.,0.,0.));
#107 = CONICAL_SURFACE('',#108,1.7,0.785398163397);
#108 = AXIS2_PLACEMENT_3D('',#109,#110,#111);
#109 = CARTESIAN_POINT('',(5.,-5.,19.));
#110 = DIRECTION('',(0.,0.,1.));
#111 = DIRECTION('',(1.,0.,0.));
#112 = ADVANCED_FACE('',(#113,#138),#149,.F.);
#113 = FACE_BOUND('',#114,.F.);
#114 = EDGE_LOOP('',(#115,#123,#124,#132));
#115 = ORIENTED_EDGE('',*,*,#116,.T.);
#116 = EDGE_CURVE('',#117,#33,#119,.T.);
#117 = VERTEX_POINT('',#118);
#118 = CARTESIAN_POINT('',(0.,0.,0.));
#119 = LINE('',#120,#121);
#120 = CARTESIAN_POINT('',(0.,0.,0.));
#121 = VECTOR('',#122,1.);
#122 = DIRECTION('',(0.,0.,1.));
#123 = ORIENTED_EDGE('',*,*,#32,.T.);
#124 = ORIENTED_EDGE('',*,*,#125,.F.);
#125 = EDGE_CURVE('',#126,#35,#128,.T.);
#126 = VERTEX_POINT('',#127);
#127 = CARTESIAN_POINT('',(0.,-35.,0.));
#128 = LINE('',#129,#130);
#129 = CARTESIAN_POINT('',(0.,-35.,0.));
#130 = VECTOR('',#131,1.);
#131 = DIRECTION('',(0.,0.,1.));
#132 = ORIENTED_EDGE('',*,*,#133,.F.);
#133 = EDGE_CURVE('',#117,#126,#134,.T.);
#134 = LINE('',#135,#136);
#135 = CARTESIAN_POINT('',(0.,0.,0.));
#136 = VECTOR('',#137,1.);
#137 = DIRECTION('',(0.,-1.,0.));
#138 = FACE_BOUND('',#139,.F.);
#139 = EDGE_LOOP('',(#140));
#140 = ORIENTED_EDGE('',*,*,#141,.T.);
#141 = EDGE_CURVE('',#142,#142,#144,.T.);
#142 = VERTEX_POINT('',#143);
#143 = CARTESIAN_POINT('',(0.,-30.,8.4));
#144 = CIRCLE('',#145,1.6);
#145 = AXIS2_PLACEMENT_3D('',#146,#147,#148);
#146 = CARTESIAN_POINT('',(0.,-30.,10.));
#147 = DIRECTION('',(-1.,-0.,-0.));
#148 = DIRECTION('',(0.,0.,-1.));
#149 = PLANE('',#150);
#150 = AXIS2_PLACEMENT_3D('',#151,#152,#153);
#151 = CARTESIAN_POINT('',(0.,0.,0.));
#152 = DIRECTION('',(1.,0.,0.));
#153 = DIRECTION('',(0.,-1.,0.));
#154 = ADVANCED_FACE('',(#155),#173,.F.);
#155 = FACE_BOUND('',#156,.F.);
#156 = EDGE_LOOP('',(#157,#158,#159,#167));
#157 = ORIENTED_EDGE('',*,*,#125,.T.);
#158 = ORIENTED_EDGE('',*,*,#42,.T.);
#159 = ORIENTED_EDGE('',*,*,#160,.F.);
#160 = EDGE_CURVE('',#161,#43,#163,.T.);
#161 = VERTEX_POINT('',#162);
#162 = CARTESIAN_POINT('',(5.,-35.,0.));
#163 = LINE('',#164,#165);
#164 = CARTESIAN_POINT('',(5.,-35.,0.));
#165 = VECTOR('',#166,1.);
#166 = DIRECTION('',(0.,0.,1.));
#167 = ORIENTED_EDGE('',*,*,#168,.F.);
#168 = EDGE_CURVE('',#126,#161,#169,.T.);
#169 = LINE('',#170,#171);
#170 = CARTESIAN_POINT('',(0.,-35.,0.));
#171 = VECTOR('',#172,1.);
#172 = DIRECTION('',(1.,0.,0.));
#173 = PLANE('',#174);
#174 = AXIS2_PLACEMENT_3D('',#175,#176,#177);
#175 = CARTESIAN_POINT('',(0.,-35.,0.));
#176 = DIRECTION('',(0.,1.,0.));
#177 = DIRECTION('',(1.,0.,0.));
#178 = ADVANCED_FACE('',(#179,#197,#208),#219,.F.);
#179 = FACE_BOUND('',#180,.F.);
#180 = EDGE_LOOP('',(#181,#182,#183,#191));
#181 = ORIENTED_EDGE('',*,*,#160,.T.);
#182 = ORIENTED_EDGE('',*,*,#50,.T.);
#183 = ORIENTED_EDGE('',*,*,#184,.F.);
#184 = EDGE_CURVE('',#185,#51,#187,.T.);
#185 = VERTEX_POINT('',#186);
#186 = CARTESIAN_POINT('',(35.,-5.,0.));
#187 = LINE('',#188,#189);
#188 = CARTESIAN_POINT('',(35.,-5.,0.));
#189 = VECTOR('',#190,1.);
#190 = DIRECTION('',(0.,0.,1.));
#191 = ORIENTED_EDGE('',*,*,#192,.F.);
#192 = EDGE_CURVE('',#161,#185,#193,.T.);
#193 = LINE('',#194,#195);
#194 = CARTESIAN_POINT('',(5.,-35.,0.));
#195 = VECTOR('',#196,1.);
#196 = DIRECTION('',(0.707106781187,0.707106781187,0.));
#197 = FACE_BOUND('',#198,.F.);
#198 = EDGE_LOOP('',(#199));
#199 = ORIENTED_EDGE('',*,*,#200,.F.);
#200 = EDGE_CURVE('',#201,#201,#203,.T.);
#201 = VERTEX_POINT('',#202);
#202 = CARTESIAN_POINT('',(10.,-30.,6.95));
#203 = ELLIPSE('',#204,4.313351365238,3.05);
#204 = AXIS2_PLACEMENT_3D('',#205,#206,#207);
#205 = CARTESIAN_POINT('',(10.,-30.,10.));
#206 = DIRECTION('',(-0.707106781187,0.707106781187,0.));
#207 = DIRECTION('',(-0.707106781187,-0.707106781187,0.));
#208 = FACE_BOUND('',#209,.F.);
#209 = EDGE_LOOP('',(#210));
#210 = ORIENTED_EDGE('',*,*,#211,.F.);
#211 = EDGE_CURVE('',#212,#212,#214,.T.);
#212 = VERTEX_POINT('',#213);
#213 = CARTESIAN_POINT('',(26.95,-13.05,10.));
#214 = ELLIPSE('',#215,4.313351365238,3.05);
#215 = AXIS2_PLACEMENT_3D('',#216,#217,#218);
#216 = CARTESIAN_POINT('',(30.,-10.,10.));
#217 = DIRECTION('',(-0.707106781187,0.707106781187,0.));
#218 = DIRECTION('',(0.707106781187,0.707106781187,-3.140184917368E-16)
  );
#219 = PLANE('',#220);
#220 = AXIS2_PLACEMENT_3D('',#221,#222,#223);
#221 = CARTESIAN_POINT('',(5.,-35.,0.));
#222 = DIRECTION('',(-0.707106781187,0.707106781187,0.));
#223 = DIRECTION('',(0.707106781187,0.707106781187,0.));
#224 = ADVANCED_FACE('',(#225),#243,.F.);
#225 = FACE_BOUND('',#226,.F.);
#226 = EDGE_LOOP('',(#227,#228,#229,#237));
#227 = ORIENTED_EDGE('',*,*,#184,.T.);
#228 = ORIENTED_EDGE('',*,*,#58,.T.);
#229 = ORIENTED_EDGE('',*,*,#230,.F.);
#230 = EDGE_CURVE('',#231,#59,#233,.T.);
#231 = VERTEX_POINT('',#232);
#232 = CARTESIAN_POINT('',(35.,0.,0.));
#233 = LINE('',#234,#235);
#234 = CARTESIAN_POINT('',(35.,0.,0.));
#235 = VECTOR('',#236,1.);
#236 = DIRECTION('',(0.,0.,1.));
#237 = ORIENTED_EDGE('',*,*,#238,.F.);
#238 = EDGE_CURVE('',#185,#231,#239,.T.);
#239 = LINE('',#240,#241);
#240 = CARTESIAN_POINT('',(35.,-5.,0.));
#241 = VECTOR('',#242,1.);
#242 = DIRECTION('',(0.,1.,0.));
#243 = PLANE('',#244);
#244 = AXIS2_PLACEMENT_3D('',#245,#246,#247);
#245 = CARTESIAN_POINT('',(35.,-5.,0.));
#246 = DIRECTION('',(-1.,0.,0.));
#247 = DIRECTION('',(0.,1.,0.));
#248 = ADVANCED_FACE('',(#249,#260),#271,.F.);
#249 = FACE_BOUND('',#250,.F.);
#250 = EDGE_LOOP('',(#251,#252,#253,#254));
#251 = ORIENTED_EDGE('',*,*,#230,.T.);
#252 = ORIENTED_EDGE('',*,*,#66,.T.);
#253 = ORIENTED_EDGE('',*,*,#116,.F.);
#254 = ORIENTED_EDGE('',*,*,#255,.F.);
#255 = EDGE_CURVE('',#231,#117,#256,.T.);
#256 = LINE('',#257,#258);
#257 = CARTESIAN_POINT('',(35.,0.,0.));
#258 = VECTOR('',#259,1.);
#259 = DIRECTION('',(-1.,0.,0.));
#260 = FACE_BOUND('',#261,.F.);
#261 = EDGE_LOOP('',(#262));
#262 = ORIENTED_EDGE('',*,*,#263,.T.);
#263 = EDGE_CURVE('',#264,#264,#266,.T.);
#264 = VERTEX_POINT('',#265);
#265 = CARTESIAN_POINT('',(28.4,0.,10.));
#266 = CIRCLE('',#267,1.6);
#267 = AXIS2_PLACEMENT_3D('',#268,#269,#270);
#268 = CARTESIAN_POINT('',(30.,0.,10.));
#269 = DIRECTION('',(0.,1.,-2.22044604925E-16));
#270 = DIRECTION('',(-1.,0.,0.));
#271 = PLANE('',#272);
#272 = AXIS2_PLACEMENT_3D('',#273,#274,#275);
#273 = CARTESIAN_POINT('',(35.,0.,0.));
#274 = DIRECTION('',(0.,-1.,0.));
#275 = DIRECTION('',(-1.,0.,0.));
#276 = ADVANCED_FACE('',(#277),#296,.F.);
#277 = FACE_BOUND('',#278,.T.);
#278 = EDGE_LOOP('',(#279,#287,#288,#289));
#279 = ORIENTED_EDGE('',*,*,#280,.F.);
#280 = EDGE_CURVE('',#75,#281,#283,.T.);
#281 = VERTEX_POINT('',#282);
#282 = CARTESIAN_POINT('',(11.7,-10.,19.));
#283 = LINE('',#284,#285);
#284 = CARTESIAN_POINT('',(11.7,-10.,19.));
#285 = VECTOR('',#286,1.);
#286 = DIRECTION('',(-0.707106781187,-0.,-0.707106781187));
#287 = ORIENTED_EDGE('',*,*,#74,.T.);
#288 = ORIENTED_EDGE('',*,*,#280,.T.);
#289 = ORIENTED_EDGE('',*,*,#290,.F.);
#290 = EDGE_CURVE('',#281,#281,#291,.T.);
#291 = CIRCLE('',#292,1.7);
#292 = AXIS2_PLACEMENT_3D('',#293,#294,#295);
#293 = CARTESIAN_POINT('',(10.,-10.,19.));
#294 = DIRECTION('',(0.,0.,1.));
#295 = DIRECTION('',(1.,0.,0.));
#296 = CONICAL_SURFACE('',#297,1.7,0.785398163397);
#297 = AXIS2_PLACEMENT_3D('',#298,#299,#300);
#298 = CARTESIAN_POINT('',(10.,-10.,19.));
#299 = DIRECTION('',(0.,0.,1.));
#300 = DIRECTION('',(1.,0.,0.));
#301 = ADVANCED_FACE('',(#302),#321,.F.);
#302 = FACE_BOUND('',#303,.T.);
#303 = EDGE_LOOP('',(#304,#312,#319,#320));
#304 = ORIENTED_EDGE('',*,*,#305,.F.);
#305 = EDGE_CURVE('',#306,#92,#308,.T.);
#306 = VERTEX_POINT('',#307);
#307 = CARTESIAN_POINT('',(6.7,-5.,3.));
#308 = LINE('',#309,#310);
#309 = CARTESIAN_POINT('',(6.7,-5.,0.));
#310 = VECTOR('',#311,1.);
#311 = DIRECTION('',(0.,0.,1.));
#312 = ORIENTED_EDGE('',*,*,#313,.T.);
#313 = EDGE_CURVE('',#306,#306,#314,.T.);
#314 = CIRCLE('',#315,1.7);
#315 = AXIS2_PLACEMENT_3D('',#316,#317,#318);
#316 = CARTESIAN_POINT('',(5.,-5.,3.));
#317 = DIRECTION('',(0.,0.,-1.));
#318 = DIRECTION('',(1.,0.,0.));
#319 = ORIENTED_EDGE('',*,*,#305,.T.);
#320 = ORIENTED_EDGE('',*,*,#101,.T.);
#321 = CYLINDRICAL_SURFACE('',#322,1.7);
#322 = AXIS2_PLACEMENT_3D('',#323,#324,#325);
#323 = CARTESIAN_POINT('',(5.,-5.,0.));
#324 = DIRECTION('',(-0.,-0.,-1.));
#325 = DIRECTION('',(1.,0.,0.));
#326 = ADVANCED_FACE('',(#327,#334,#384),#434,.F.);
#327 = FACE_BOUND('',#328,.F.);
#328 = EDGE_LOOP('',(#329,#330,#331,#332,#333));
#329 = ORIENTED_EDGE('',*,*,#133,.T.);
#330 = ORIENTED_EDGE('',*,*,#168,.T.);
#331 = ORIENTED_EDGE('',*,*,#192,.T.);
#332 = ORIENTED_EDGE('',*,*,#238,.T.);
#333 = ORIENTED_EDGE('',*,*,#255,.T.);
#334 = FACE_BOUND('',#335,.F.);
#335 = EDGE_LOOP('',(#336,#346,#354,#362,#370,#378));
#336 = ORIENTED_EDGE('',*,*,#337,.T.);
#337 = EDGE_CURVE('',#338,#340,#342,.T.);
#338 = VERTEX_POINT('',#339);
#339 = CARTESIAN_POINT('',(12.750000000011,-8.412286759742,0.));
#340 = VERTEX_POINT('',#341);
#341 = CARTESIAN_POINT('',(12.750000000011,-11.58771324027,0.));
#342 = LINE('',#343,#344);
#343 = CARTESIAN_POINT('',(12.750000000011,-8.412286759742,0.));
#344 = VECTOR('',#345,1.);
#345 = DIRECTION('',(0.,-1.,0.));
#346 = ORIENTED_EDGE('',*,*,#347,.T.);
#347 = EDGE_CURVE('',#340,#348,#350,.T.);
#348 = VERTEX_POINT('',#349);
#349 = CARTESIAN_POINT('',(10.000000000036,-13.17542648056,0.));
#350 = LINE('',#351,#352);
#351 = CARTESIAN_POINT('',(12.750000000011,-11.58771324027,0.));
#352 = VECTOR('',#353,1.);
#353 = DIRECTION('',(-0.86602540378,-0.500000000008,0.));
#354 = ORIENTED_EDGE('',*,*,#355,.T.);
#355 = EDGE_CURVE('',#348,#356,#358,.T.);
#356 = VERTEX_POINT('',#357);
#357 = CARTESIAN_POINT('',(7.250000000011,-11.58771324032,0.));
#358 = LINE('',#359,#360);
#359 = CARTESIAN_POINT('',(10.000000000036,-13.17542648056,0.));
#360 = VECTOR('',#361,1.);
#361 = DIRECTION('',(-0.866025403791,0.499999999988,-0.));
#362 = ORIENTED_EDGE('',*,*,#363,.T.);
#363 = EDGE_CURVE('',#356,#364,#366,.T.);
#364 = VERTEX_POINT('',#365);
#365 = CARTESIAN_POINT('',(7.249999999957,-8.412286759749,0.));
#366 = LINE('',#367,#368);
#367 = CARTESIAN_POINT('',(7.250000000011,-11.58771324032,0.));
#368 = VECTOR('',#369,1.);
#369 = DIRECTION('',(-1.682221743213E-11,1.,-0.));
#370 = ORIENTED_EDGE('',*,*,#371,.T.);
#371 = EDGE_CURVE('',#364,#372,#374,.T.);
#372 = VERTEX_POINT('',#373);
#373 = CARTESIAN_POINT('',(10.000000000023,-6.824573519447,0.));
#374 = LINE('',#375,#376);
#375 = CARTESIAN_POINT('',(7.249999999957,-8.412286759749,0.));
#376 = VECTOR('',#377,1.);
#377 = DIRECTION('',(0.866025403785,0.499999999998,0.));
#378 = ORIENTED_EDGE('',*,*,#379,.T.);
#379 = EDGE_CURVE('',#372,#338,#380,.T.);
#380 = LINE('',#381,#382);
#381 = CARTESIAN_POINT('',(10.000000000023,-6.824573519447,0.));
#382 = VECTOR('',#383,1.);
#383 = DIRECTION('',(0.86602540378,-0.500000000007,0.));
#384 = FACE_BOUND('',#385,.F.);
#385 = EDGE_LOOP('',(#386,#396,#404,#412,#420,#428));
#386 = ORIENTED_EDGE('',*,*,#387,.T.);
#387 = EDGE_CURVE('',#388,#390,#392,.T.);
#388 = VERTEX_POINT('',#389);
#389 = CARTESIAN_POINT('',(5.,-1.824573519453,0.));
#390 = VERTEX_POINT('',#391);
#391 = CARTESIAN_POINT('',(7.750000000003,-3.412286759726,0.));
#392 = LINE('',#393,#394);
#393 = CARTESIAN_POINT('',(5.,-1.824573519453,0.));
#394 = VECTOR('',#395,1.);
#395 = DIRECTION('',(0.866025403784,-0.5,0.));
#396 = ORIENTED_EDGE('',*,*,#397,.T.);
#397 = EDGE_CURVE('',#390,#398,#400,.T.);
#398 = VERTEX_POINT('',#399);
#399 = CARTESIAN_POINT('',(7.750000000003,-6.587713240273,0.));
#400 = LINE('',#401,#402);
#401 = CARTESIAN_POINT('',(7.750000000003,-3.412286759726,0.));
#402 = VECTOR('',#403,1.);
#403 = DIRECTION('',(0.,-1.,0.));
#404 = ORIENTED_EDGE('',*,*,#405,.T.);
#405 = EDGE_CURVE('',#398,#406,#408,.T.);
#406 = VERTEX_POINT('',#407);
#407 = CARTESIAN_POINT('',(5.,-8.175426480546,0.));
#408 = LINE('',#409,#410);
#409 = CARTESIAN_POINT('',(7.750000000003,-6.587713240273,0.));
#410 = VECTOR('',#411,1.);
#411 = DIRECTION('',(-0.866025403784,-0.5,0.));
#412 = ORIENTED_EDGE('',*,*,#413,.T.);
#413 = EDGE_CURVE('',#406,#414,#416,.T.);
#414 = VERTEX_POINT('',#415);
#415 = CARTESIAN_POINT('',(2.249999999997,-6.587713240273,0.));
#416 = LINE('',#417,#418);
#417 = CARTESIAN_POINT('',(5.,-8.175426480546,0.));
#418 = VECTOR('',#419,1.);
#419 = DIRECTION('',(-0.866025403784,0.5,-0.));
#420 = ORIENTED_EDGE('',*,*,#421,.T.);
#421 = EDGE_CURVE('',#414,#422,#424,.T.);
#422 = VERTEX_POINT('',#423);
#423 = CARTESIAN_POINT('',(2.249999999997,-3.412286759726,0.));
#424 = LINE('',#425,#426);
#425 = CARTESIAN_POINT('',(2.249999999997,-6.587713240273,0.));
#426 = VECTOR('',#427,1.);
#427 = DIRECTION('',(1.398518317368E-16,1.,0.));
#428 = ORIENTED_EDGE('',*,*,#429,.T.);
#429 = EDGE_CURVE('',#422,#388,#430,.T.);
#430 = LINE('',#431,#432);
#431 = CARTESIAN_POINT('',(2.249999999997,-3.412286759726,0.));
#432 = VECTOR('',#433,1.);
#433 = DIRECTION('',(0.866025403784,0.5,0.));
#434 = PLANE('',#435);
#435 = AXIS2_PLACEMENT_3D('',#436,#437,#438);
#436 = CARTESIAN_POINT('',(12.713168331359,-12.71316833135,0.));
#437 = DIRECTION('',(0.,0.,1.));
#438 = DIRECTION('',(1.,0.,0.));
#439 = ADVANCED_FACE('',(#440),#459,.F.);
#440 = FACE_BOUND('',#441,.T.);
#441 = EDGE_LOOP('',(#442,#450,#457,#458));
#442 = ORIENTED_EDGE('',*,*,#443,.F.);
#443 = EDGE_CURVE('',#444,#142,#446,.T.);
#444 = VERTEX_POINT('',#445);
#445 = CARTESIAN_POINT('',(3.,-30.,8.4));
#446 = LINE('',#447,#448);
#447 = CARTESIAN_POINT('',(3.,-30.,8.4));
#448 = VECTOR('',#449,1.);
#449 = DIRECTION('',(-1.,0.,6.148509394348E-17));
#450 = ORIENTED_EDGE('',*,*,#451,.T.);
#451 = EDGE_CURVE('',#444,#444,#452,.T.);
#452 = CIRCLE('',#453,1.6);
#453 = AXIS2_PLACEMENT_3D('',#454,#455,#456);
#454 = CARTESIAN_POINT('',(3.,-30.,10.));
#455 = DIRECTION('',(1.,-0.,0.));
#456 = DIRECTION('',(0.,0.,-1.));
#457 = ORIENTED_EDGE('',*,*,#443,.T.);
#458 = ORIENTED_EDGE('',*,*,#141,.T.);
#459 = CYLINDRICAL_SURFACE('',#460,1.6);
#460 = AXIS2_PLACEMENT_3D('',#461,#462,#463);
#461 = CARTESIAN_POINT('',(3.,-30.,10.));
#462 = DIRECTION('',(-1.,-0.,-0.));
#463 = DIRECTION('',(0.,0.,-1.));
#464 = ADVANCED_FACE('',(#465),#484,.F.);
#465 = FACE_BOUND('',#466,.T.);
#466 = EDGE_LOOP('',(#467,#468,#476,#483));
#467 = ORIENTED_EDGE('',*,*,#200,.F.);
#468 = ORIENTED_EDGE('',*,*,#469,.T.);
#469 = EDGE_CURVE('',#201,#470,#472,.T.);
#470 = VERTEX_POINT('',#471);
#471 = CARTESIAN_POINT('',(3.,-30.,6.95));
#472 = LINE('',#473,#474);
#473 = CARTESIAN_POINT('',(35.,-30.,6.95));
#474 = VECTOR('',#475,1.);
#475 = DIRECTION('',(-1.,0.,0.));
#476 = ORIENTED_EDGE('',*,*,#477,.F.);
#477 = EDGE_CURVE('',#470,#470,#478,.T.);
#478 = CIRCLE('',#479,3.05);
#479 = AXIS2_PLACEMENT_3D('',#480,#481,#482);
#480 = CARTESIAN_POINT('',(3.,-30.,10.));
#481 = DIRECTION('',(1.,-0.,0.));
#482 = DIRECTION('',(0.,0.,-1.));
#483 = ORIENTED_EDGE('',*,*,#469,.F.);
#484 = CYLINDRICAL_SURFACE('',#485,3.05);
#485 = AXIS2_PLACEMENT_3D('',#486,#487,#488);
#486 = CARTESIAN_POINT('',(35.,-30.,10.));
#487 = DIRECTION('',(-1.,-0.,-0.));
#488 = DIRECTION('',(0.,0.,-1.));
#489 = ADVANCED_FACE('',(#490),#509,.F.);
#490 = FACE_BOUND('',#491,.T.);
#491 = EDGE_LOOP('',(#492,#493,#501,#508));
#492 = ORIENTED_EDGE('',*,*,#211,.F.);
#493 = ORIENTED_EDGE('',*,*,#494,.T.);
#494 = EDGE_CURVE('',#212,#495,#497,.T.);
#495 = VERTEX_POINT('',#496);
#496 = CARTESIAN_POINT('',(26.95,-3.,10.));
#497 = LINE('',#498,#499);
#498 = CARTESIAN_POINT('',(26.95,-35.,10.));
#499 = VECTOR('',#500,1.);
#500 = DIRECTION('',(0.,1.,-2.22044604925E-16));
#501 = ORIENTED_EDGE('',*,*,#502,.F.);
#502 = EDGE_CURVE('',#495,#495,#503,.T.);
#503 = CIRCLE('',#504,3.05);
#504 = AXIS2_PLACEMENT_3D('',#505,#506,#507);
#505 = CARTESIAN_POINT('',(30.,-3.,10.));
#506 = DIRECTION('',(0.,-1.,2.22044604925E-16));
#507 = DIRECTION('',(-1.,0.,0.));
#508 = ORIENTED_EDGE('',*,*,#494,.F.);
#509 = CYLINDRICAL_SURFACE('',#510,3.05);
#510 = AXIS2_PLACEMENT_3D('',#511,#512,#513);
#511 = CARTESIAN_POINT('',(30.,-35.,10.));
#512 = DIRECTION('',(0.,1.,-2.22044604925E-16));
#513 = DIRECTION('',(-1.,0.,0.));
#514 = ADVANCED_FACE('',(#515),#534,.F.);
#515 = FACE_BOUND('',#516,.T.);
#516 = EDGE_LOOP('',(#517,#525,#532,#533));
#517 = ORIENTED_EDGE('',*,*,#518,.F.);
#518 = EDGE_CURVE('',#519,#264,#521,.T.);
#519 = VERTEX_POINT('',#520);
#520 = CARTESIAN_POINT('',(28.4,-3.,10.));
#521 = LINE('',#522,#523);
#522 = CARTESIAN_POINT('',(28.4,-3.,10.));
#523 = VECTOR('',#524,1.);
#524 = DIRECTION('',(6.148509394348E-17,1.,-2.22044604925E-16));
#525 = ORIENTED_EDGE('',*,*,#526,.T.);
#526 = EDGE_CURVE('',#519,#519,#527,.T.);
#527 = CIRCLE('',#528,1.6);
#528 = AXIS2_PLACEMENT_3D('',#529,#530,#531);
#529 = CARTESIAN_POINT('',(30.,-3.,10.));
#530 = DIRECTION('',(0.,-1.,2.22044604925E-16));
#531 = DIRECTION('',(-1.,0.,0.));
#532 = ORIENTED_EDGE('',*,*,#518,.T.);
#533 = ORIENTED_EDGE('',*,*,#263,.T.);
#534 = CYLINDRICAL_SURFACE('',#535,1.6);
#535 = AXIS2_PLACEMENT_3D('',#536,#537,#538);
#536 = CARTESIAN_POINT('',(30.,-3.,10.));
#537 = DIRECTION('',(0.,1.,-2.22044604925E-16));
#538 = DIRECTION('',(-1.,0.,0.));
#539 = ADVANCED_FACE('',(#540),#559,.F.);
#540 = FACE_BOUND('',#541,.T.);
#541 = EDGE_LOOP('',(#542,#550,#557,#558));
#542 = ORIENTED_EDGE('',*,*,#543,.F.);
#543 = EDGE_CURVE('',#544,#281,#546,.T.);
#544 = VERTEX_POINT('',#545);
#545 = CARTESIAN_POINT('',(11.7,-10.,3.));
#546 = LINE('',#547,#548);
#547 = CARTESIAN_POINT('',(11.7,-10.,0.));
#548 = VECTOR('',#549,1.);
#549 = DIRECTION('',(0.,0.,1.));
#550 = ORIENTED_EDGE('',*,*,#551,.T.);
#551 = EDGE_CURVE('',#544,#544,#552,.T.);
#552 = CIRCLE('',#553,1.7);
#553 = AXIS2_PLACEMENT_3D('',#554,#555,#556);
#554 = CARTESIAN_POINT('',(10.,-10.,3.));
#555 = DIRECTION('',(0.,0.,-1.));
#556 = DIRECTION('',(1.,0.,0.));
#557 = ORIENTED_EDGE('',*,*,#543,.T.);
#558 = ORIENTED_EDGE('',*,*,#290,.T.);
#559 = CYLINDRICAL_SURFACE('',#560,1.7);
#560 = AXIS2_PLACEMENT_3D('',#561,#562,#563);
#561 = CARTESIAN_POINT('',(10.,-10.,0.));
#562 = DIRECTION('',(-0.,-0.,-1.));
#563 = DIRECTION('',(1.,0.,0.));
#564 = ADVANCED_FACE('',(#565,#615),#618,.F.);
#565 = FACE_BOUND('',#566,.F.);
#566 = EDGE_LOOP('',(#567,#577,#585,#593,#601,#609));
#567 = ORIENTED_EDGE('',*,*,#568,.F.);
#568 = EDGE_CURVE('',#569,#571,#573,.T.);
#569 = VERTEX_POINT('',#570);
#570 = CARTESIAN_POINT('',(7.750000000003,-3.412286759726,3.));
#571 = VERTEX_POINT('',#572);
#572 = CARTESIAN_POINT('',(7.750000000003,-6.587713240273,3.));
#573 = LINE('',#574,#575);
#574 = CARTESIAN_POINT('',(7.750000000003,-3.412286759726,3.));
#575 = VECTOR('',#576,1.);
#576 = DIRECTION('',(0.,-1.,0.));
#577 = ORIENTED_EDGE('',*,*,#578,.F.);
#578 = EDGE_CURVE('',#579,#569,#581,.T.);
#579 = VERTEX_POINT('',#580);
#580 = CARTESIAN_POINT('',(5.,-1.824573519453,3.));
#581 = LINE('',#582,#583);
#582 = CARTESIAN_POINT('',(5.,-1.824573519453,3.));
#583 = VECTOR('',#584,1.);
#584 = DIRECTION('',(0.866025403784,-0.5,0.));
#585 = ORIENTED_EDGE('',*,*,#586,.F.);
#586 = EDGE_CURVE('',#587,#579,#589,.T.);
#587 = VERTEX_POINT('',#588);
#588 = CARTESIAN_POINT('',(2.249999999997,-3.412286759726,3.));
#589 = LINE('',#590,#591);
#590 = CARTESIAN_POINT('',(2.249999999997,-3.412286759726,3.));
#591 = VECTOR('',#592,1.);
#592 = DIRECTION('',(0.866025403784,0.5,0.));
#593 = ORIENTED_EDGE('',*,*,#594,.F.);
#594 = EDGE_CURVE('',#595,#587,#597,.T.);
#595 = VERTEX_POINT('',#596);
#596 = CARTESIAN_POINT('',(2.249999999997,-6.587713240273,3.));
#597 = LINE('',#598,#599);
#598 = CARTESIAN_POINT('',(2.249999999997,-6.587713240273,3.));
#599 = VECTOR('',#600,1.);
#600 = DIRECTION('',(1.398518317368E-16,1.,0.));
#601 = ORIENTED_EDGE('',*,*,#602,.F.);
#602 = EDGE_CURVE('',#603,#595,#605,.T.);
#603 = VERTEX_POINT('',#604);
#604 = CARTESIAN_POINT('',(5.,-8.175426480546,3.));
#605 = LINE('',#606,#607);
#606 = CARTESIAN_POINT('',(5.,-8.175426480546,3.));
#607 = VECTOR('',#608,1.);
#608 = DIRECTION('',(-0.866025403784,0.5,-0.));
#609 = ORIENTED_EDGE('',*,*,#610,.F.);
#610 = EDGE_CURVE('',#571,#603,#611,.T.);
#611 = LINE('',#612,#613);
#612 = CARTESIAN_POINT('',(7.750000000003,-6.587713240273,3.));
#613 = VECTOR('',#614,1.);
#614 = DIRECTION('',(-0.866025403784,-0.5,0.));
#615 = FACE_BOUND('',#616,.F.);
#616 = EDGE_LOOP('',(#617));
#617 = ORIENTED_EDGE('',*,*,#313,.T.);
#618 = PLANE('',#619);
#619 = AXIS2_PLACEMENT_3D('',#620,#621,#622);
#620 = CARTESIAN_POINT('',(7.500000000001,-7.500000000007,3.));
#621 = DIRECTION('',(0.,0.,1.));
#622 = DIRECTION('',(1.,0.,0.));
#623 = ADVANCED_FACE('',(#624),#649,.F.);
#624 = FACE_BOUND('',#625,.F.);
#625 = EDGE_LOOP('',(#626,#634,#642,#648));
#626 = ORIENTED_EDGE('',*,*,#627,.T.);
#627 = EDGE_CURVE('',#338,#628,#630,.T.);
#628 = VERTEX_POINT('',#629);
#629 = CARTESIAN_POINT('',(12.750000000011,-8.412286759742,3.));
#630 = LINE('',#631,#632);
#631 = CARTESIAN_POINT('',(12.750000000011,-8.412286759742,0.));
#632 = VECTOR('',#633,1.);
#633 = DIRECTION('',(0.,0.,1.));
#634 = ORIENTED_EDGE('',*,*,#635,.T.);
#635 = EDGE_CURVE('',#628,#636,#638,.T.);
#636 = VERTEX_POINT('',#637);
#637 = CARTESIAN_POINT('',(12.750000000011,-11.58771324027,3.));
#638 = LINE('',#639,#640);
#639 = CARTESIAN_POINT('',(12.750000000011,-8.412286759742,3.));
#640 = VECTOR('',#641,1.);
#641 = DIRECTION('',(0.,-1.,0.));
#642 = ORIENTED_EDGE('',*,*,#643,.F.);
#643 = EDGE_CURVE('',#340,#636,#644,.T.);
#644 = LINE('',#645,#646);
#645 = CARTESIAN_POINT('',(12.750000000011,-11.58771324027,0.));
#646 = VECTOR('',#647,1.);
#647 = DIRECTION('',(0.,0.,1.));
#648 = ORIENTED_EDGE('',*,*,#337,.F.);
#649 = PLANE('',#650);
#650 = AXIS2_PLACEMENT_3D('',#651,#652,#653);
#651 = CARTESIAN_POINT('',(12.750000000011,-8.412286759742,0.));
#652 = DIRECTION('',(1.,0.,0.));
#653 = DIRECTION('',(0.,-1.,0.));
#654 = ADVANCED_FACE('',(#655),#673,.F.);
#655 = FACE_BOUND('',#656,.F.);
#656 = EDGE_LOOP('',(#657,#665,#671,#672));
#657 = ORIENTED_EDGE('',*,*,#658,.T.);
#658 = EDGE_CURVE('',#372,#659,#661,.T.);
#659 = VERTEX_POINT('',#660);
#660 = CARTESIAN_POINT('',(10.000000000023,-6.824573519447,3.));
#661 = LINE('',#662,#663);
#662 = CARTESIAN_POINT('',(10.000000000023,-6.824573519447,0.));
#663 = VECTOR('',#664,1.);
#664 = DIRECTION('',(0.,0.,1.));
#665 = ORIENTED_EDGE('',*,*,#666,.T.);
#666 = EDGE_CURVE('',#659,#628,#667,.T.);
#667 = LINE('',#668,#669);
#668 = CARTESIAN_POINT('',(10.000000000023,-6.824573519447,3.));
#669 = VECTOR('',#670,1.);
#670 = DIRECTION('',(0.86602540378,-0.500000000007,0.));
#671 = ORIENTED_EDGE('',*,*,#627,.F.);
#672 = ORIENTED_EDGE('',*,*,#379,.F.);
#673 = PLANE('',#674);
#674 = AXIS2_PLACEMENT_3D('',#675,#676,#677);
#675 = CARTESIAN_POINT('',(10.000000000023,-6.824573519447,0.));
#676 = DIRECTION('',(0.500000000007,0.86602540378,0.));
#677 = DIRECTION('',(0.86602540378,-0.500000000007,0.));
#678 = ADVANCED_FACE('',(#679),#697,.F.);
#679 = FACE_BOUND('',#680,.F.);
#680 = EDGE_LOOP('',(#681,#689,#695,#696));
#681 = ORIENTED_EDGE('',*,*,#682,.T.);
#682 = EDGE_CURVE('',#364,#683,#685,.T.);
#683 = VERTEX_POINT('',#684);
#684 = CARTESIAN_POINT('',(7.249999999957,-8.412286759749,3.));
#685 = LINE('',#686,#687);
#686 = CARTESIAN_POINT('',(7.249999999957,-8.412286759749,0.));
#687 = VECTOR('',#688,1.);
#688 = DIRECTION('',(0.,0.,1.));
#689 = ORIENTED_EDGE('',*,*,#690,.T.);
#690 = EDGE_CURVE('',#683,#659,#691,.T.);
#691 = LINE('',#692,#693);
#692 = CARTESIAN_POINT('',(7.249999999957,-8.412286759749,3.));
#693 = VECTOR('',#694,1.);
#694 = DIRECTION('',(0.866025403785,0.499999999998,0.));
#695 = ORIENTED_EDGE('',*,*,#658,.F.);
#696 = ORIENTED_EDGE('',*,*,#371,.F.);
#697 = PLANE('',#698);
#698 = AXIS2_PLACEMENT_3D('',#699,#700,#701);
#699 = CARTESIAN_POINT('',(7.249999999957,-8.412286759749,0.));
#700 = DIRECTION('',(-0.499999999998,0.866025403785,0.));
#701 = DIRECTION('',(0.866025403785,0.499999999998,0.));
#702 = ADVANCED_FACE('',(#703),#721,.F.);
#703 = FACE_BOUND('',#704,.F.);
#704 = EDGE_LOOP('',(#705,#713,#719,#720));
#705 = ORIENTED_EDGE('',*,*,#706,.T.);
#706 = EDGE_CURVE('',#356,#707,#709,.T.);
#707 = VERTEX_POINT('',#708);
#708 = CARTESIAN_POINT('',(7.250000000011,-11.58771324032,3.));
#709 = LINE('',#710,#711);
#710 = CARTESIAN_POINT('',(7.250000000011,-11.58771324032,0.));
#711 = VECTOR('',#712,1.);
#712 = DIRECTION('',(0.,0.,1.));
#713 = ORIENTED_EDGE('',*,*,#714,.T.);
#714 = EDGE_CURVE('',#707,#683,#715,.T.);
#715 = LINE('',#716,#717);
#716 = CARTESIAN_POINT('',(7.250000000011,-11.58771324032,3.));
#717 = VECTOR('',#718,1.);
#718 = DIRECTION('',(-1.682221743213E-11,1.,-0.));
#719 = ORIENTED_EDGE('',*,*,#682,.F.);
#720 = ORIENTED_EDGE('',*,*,#363,.F.);
#721 = PLANE('',#722);
#722 = AXIS2_PLACEMENT_3D('',#723,#724,#725);
#723 = CARTESIAN_POINT('',(7.250000000011,-11.58771324032,0.));
#724 = DIRECTION('',(-1.,-1.682221743213E-11,0.));
#725 = DIRECTION('',(-1.682221743213E-11,1.,0.));
#726 = ADVANCED_FACE('',(#727),#745,.F.);
#727 = FACE_BOUND('',#728,.F.);
#728 = EDGE_LOOP('',(#729,#737,#743,#744));
#729 = ORIENTED_EDGE('',*,*,#730,.T.);
#730 = EDGE_CURVE('',#348,#731,#733,.T.);
#731 = VERTEX_POINT('',#732);
#732 = CARTESIAN_POINT('',(10.000000000036,-13.17542648056,3.));
#733 = LINE('',#734,#735);
#734 = CARTESIAN_POINT('',(10.000000000036,-13.17542648056,0.));
#735 = VECTOR('',#736,1.);
#736 = DIRECTION('',(0.,0.,1.));
#737 = ORIENTED_EDGE('',*,*,#738,.T.);
#738 = EDGE_CURVE('',#731,#707,#739,.T.);
#739 = LINE('',#740,#741);
#740 = CARTESIAN_POINT('',(10.000000000036,-13.17542648056,3.));
#741 = VECTOR('',#742,1.);
#742 = DIRECTION('',(-0.866025403791,0.499999999988,-0.));
#743 = ORIENTED_EDGE('',*,*,#706,.F.);
#744 = ORIENTED_EDGE('',*,*,#355,.F.);
#745 = PLANE('',#746);
#746 = AXIS2_PLACEMENT_3D('',#747,#748,#749);
#747 = CARTESIAN_POINT('',(10.000000000036,-13.17542648056,0.));
#748 = DIRECTION('',(-0.499999999988,-0.866025403791,0.));
#749 = DIRECTION('',(-0.866025403791,0.499999999988,0.));
#750 = ADVANCED_FACE('',(#751),#762,.F.);
#751 = FACE_BOUND('',#752,.F.);
#752 = EDGE_LOOP('',(#753,#754,#760,#761));
#753 = ORIENTED_EDGE('',*,*,#643,.T.);
#754 = ORIENTED_EDGE('',*,*,#755,.T.);
#755 = EDGE_CURVE('',#636,#731,#756,.T.);
#756 = LINE('',#757,#758);
#757 = CARTESIAN_POINT('',(12.750000000011,-11.58771324027,3.));
#758 = VECTOR('',#759,1.);
#759 = DIRECTION('',(-0.86602540378,-0.500000000008,0.));
#760 = ORIENTED_EDGE('',*,*,#730,.F.);
#761 = ORIENTED_EDGE('',*,*,#347,.F.);
#762 = PLANE('',#763);
#763 = AXIS2_PLACEMENT_3D('',#764,#765,#766);
#764 = CARTESIAN_POINT('',(12.750000000011,-11.58771324027,0.));
#765 = DIRECTION('',(0.500000000008,-0.86602540378,0.));
#766 = DIRECTION('',(-0.86602540378,-0.500000000008,0.));
#767 = ADVANCED_FACE('',(#768),#784,.F.);
#768 = FACE_BOUND('',#769,.F.);
#769 = EDGE_LOOP('',(#770,#776,#777,#783));
#770 = ORIENTED_EDGE('',*,*,#771,.T.);
#771 = EDGE_CURVE('',#388,#579,#772,.T.);
#772 = LINE('',#773,#774);
#773 = CARTESIAN_POINT('',(5.,-1.824573519453,0.));
#774 = VECTOR('',#775,1.);
#775 = DIRECTION('',(0.,0.,1.));
#776 = ORIENTED_EDGE('',*,*,#578,.T.);
#777 = ORIENTED_EDGE('',*,*,#778,.F.);
#778 = EDGE_CURVE('',#390,#569,#779,.T.);
#779 = LINE('',#780,#781);
#780 = CARTESIAN_POINT('',(7.750000000003,-3.412286759726,0.));
#781 = VECTOR('',#782,1.);
#782 = DIRECTION('',(0.,0.,1.));
#783 = ORIENTED_EDGE('',*,*,#387,.F.);
#784 = PLANE('',#785);
#785 = AXIS2_PLACEMENT_3D('',#786,#787,#788);
#786 = CARTESIAN_POINT('',(5.,-1.824573519453,0.));
#787 = DIRECTION('',(0.5,0.866025403784,0.));
#788 = DIRECTION('',(0.866025403784,-0.5,0.));
#789 = ADVANCED_FACE('',(#790),#801,.F.);
#790 = FACE_BOUND('',#791,.F.);
#791 = EDGE_LOOP('',(#792,#798,#799,#800));
#792 = ORIENTED_EDGE('',*,*,#793,.T.);
#793 = EDGE_CURVE('',#422,#587,#794,.T.);
#794 = LINE('',#795,#796);
#795 = CARTESIAN_POINT('',(2.249999999997,-3.412286759726,0.));
#796 = VECTOR('',#797,1.);
#797 = DIRECTION('',(0.,0.,1.));
#798 = ORIENTED_EDGE('',*,*,#586,.T.);
#799 = ORIENTED_EDGE('',*,*,#771,.F.);
#800 = ORIENTED_EDGE('',*,*,#429,.F.);
#801 = PLANE('',#802);
#802 = AXIS2_PLACEMENT_3D('',#803,#804,#805);
#803 = CARTESIAN_POINT('',(2.249999999997,-3.412286759726,0.));
#804 = DIRECTION('',(-0.5,0.866025403784,0.));
#805 = DIRECTION('',(0.866025403784,0.5,0.));
#806 = ADVANCED_FACE('',(#807),#818,.F.);
#807 = FACE_BOUND('',#808,.F.);
#808 = EDGE_LOOP('',(#809,#815,#816,#817));
#809 = ORIENTED_EDGE('',*,*,#810,.T.);
#810 = EDGE_CURVE('',#414,#595,#811,.T.);
#811 = LINE('',#812,#813);
#812 = CARTESIAN_POINT('',(2.249999999997,-6.587713240273,0.));
#813 = VECTOR('',#814,1.);
#814 = DIRECTION('',(0.,0.,1.));
#815 = ORIENTED_EDGE('',*,*,#594,.T.);
#816 = ORIENTED_EDGE('',*,*,#793,.F.);
#817 = ORIENTED_EDGE('',*,*,#421,.F.);
#818 = PLANE('',#819);
#819 = AXIS2_PLACEMENT_3D('',#820,#821,#822);
#820 = CARTESIAN_POINT('',(2.249999999997,-6.587713240273,0.));
#821 = DIRECTION('',(-1.,1.398518317368E-16,0.));
#822 = DIRECTION('',(1.398518317368E-16,1.,0.));
#823 = ADVANCED_FACE('',(#824),#835,.F.);
#824 = FACE_BOUND('',#825,.F.);
#825 = EDGE_LOOP('',(#826,#832,#833,#834));
#826 = ORIENTED_EDGE('',*,*,#827,.T.);
#827 = EDGE_CURVE('',#406,#603,#828,.T.);
#828 = LINE('',#829,#830);
#829 = CARTESIAN_POINT('',(5.,-8.175426480546,0.));
#830 = VECTOR('',#831,1.);
#831 = DIRECTION('',(0.,0.,1.));
#832 = ORIENTED_EDGE('',*,*,#602,.T.);
#833 = ORIENTED_EDGE('',*,*,#810,.F.);
#834 = ORIENTED_EDGE('',*,*,#413,.F.);
#835 = PLANE('',#836);
#836 = AXIS2_PLACEMENT_3D('',#837,#838,#839);
#837 = CARTESIAN_POINT('',(5.,-8.175426480546,0.));
#838 = DIRECTION('',(-0.5,-0.866025403784,0.));
#839 = DIRECTION('',(-0.866025403784,0.5,0.));
#840 = ADVANCED_FACE('',(#841),#852,.F.);
#841 = FACE_BOUND('',#842,.F.);
#842 = EDGE_LOOP('',(#843,#849,#850,#851));
#843 = ORIENTED_EDGE('',*,*,#844,.T.);
#844 = EDGE_CURVE('',#398,#571,#845,.T.);
#845 = LINE('',#846,#847);
#846 = CARTESIAN_POINT('',(7.750000000003,-6.587713240273,0.));
#847 = VECTOR('',#848,1.);
#848 = DIRECTION('',(0.,0.,1.));
#849 = ORIENTED_EDGE('',*,*,#610,.T.);
#850 = ORIENTED_EDGE('',*,*,#827,.F.);
#851 = ORIENTED_EDGE('',*,*,#405,.F.);
#852 = PLANE('',#853);
#853 = AXIS2_PLACEMENT_3D('',#854,#855,#856);
#854 = CARTESIAN_POINT('',(7.750000000003,-6.587713240273,0.));
#855 = DIRECTION('',(0.5,-0.866025403784,0.));
#856 = DIRECTION('',(-0.866025403784,-0.5,0.));
#857 = ADVANCED_FACE('',(#858),#864,.F.);
#858 = FACE_BOUND('',#859,.F.);
#859 = EDGE_LOOP('',(#860,#861,#862,#863));
#860 = ORIENTED_EDGE('',*,*,#778,.T.);
#861 = ORIENTED_EDGE('',*,*,#568,.T.);
#862 = ORIENTED_EDGE('',*,*,#844,.F.);
#863 = ORIENTED_EDGE('',*,*,#397,.F.);
#864 = PLANE('',#865);
#865 = AXIS2_PLACEMENT_3D('',#866,#867,#868);
#866 = CARTESIAN_POINT('',(7.750000000003,-3.412286759726,0.));
#867 = DIRECTION('',(1.,0.,0.));
#868 = DIRECTION('',(0.,-1.,0.));
#869 = ADVANCED_FACE('',(#870,#873),#876,.T.);
#870 = FACE_BOUND('',#871,.T.);
#871 = EDGE_LOOP('',(#872));
#872 = ORIENTED_EDGE('',*,*,#477,.T.);
#873 = FACE_BOUND('',#874,.T.);
#874 = EDGE_LOOP('',(#875));
#875 = ORIENTED_EDGE('',*,*,#451,.F.);
#876 = PLANE('',#877);
#877 = AXIS2_PLACEMENT_3D('',#878,#879,#880);
#878 = CARTESIAN_POINT('',(3.,-30.,10.));
#879 = DIRECTION('',(1.,0.,0.));
#880 = DIRECTION('',(0.,0.,-1.));
#881 = ADVANCED_FACE('',(#882,#885),#888,.T.);
#882 = FACE_BOUND('',#883,.T.);
#883 = EDGE_LOOP('',(#884));
#884 = ORIENTED_EDGE('',*,*,#502,.T.);
#885 = FACE_BOUND('',#886,.T.);
#886 = EDGE_LOOP('',(#887));
#887 = ORIENTED_EDGE('',*,*,#526,.F.);
#888 = PLANE('',#889);
#889 = AXIS2_PLACEMENT_3D('',#890,#891,#892);
#890 = CARTESIAN_POINT('',(30.,-3.,10.));
#891 = DIRECTION('',(0.,-1.,2.22044604925E-16));
#892 = DIRECTION('',(-1.,0.,0.));
#893 = ADVANCED_FACE('',(#894,#902),#905,.F.);
#894 = FACE_BOUND('',#895,.F.);
#895 = EDGE_LOOP('',(#896,#897,#898,#899,#900,#901));
#896 = ORIENTED_EDGE('',*,*,#755,.F.);
#897 = ORIENTED_EDGE('',*,*,#635,.F.);
#898 = ORIENTED_EDGE('',*,*,#666,.F.);
#899 = ORIENTED_EDGE('',*,*,#690,.F.);
#900 = ORIENTED_EDGE('',*,*,#714,.F.);
#901 = ORIENTED_EDGE('',*,*,#738,.F.);
#902 = FACE_BOUND('',#903,.F.);
#903 = EDGE_LOOP('',(#904));
#904 = ORIENTED_EDGE('',*,*,#551,.T.);
#905 = PLANE('',#906);
#906 = AXIS2_PLACEMENT_3D('',#907,#908,#909);
#907 = CARTESIAN_POINT('',(7.500000000001,-7.500000000007,3.));
#908 = DIRECTION('',(0.,0.,1.));
#909 = DIRECTION('',(1.,0.,0.));
#910 = ( GEOMETRIC_REPRESENTATION_CONTEXT(3) 
GLOBAL_UNCERTAINTY_ASSIGNED_CONTEXT((#914)) GLOBAL_UNIT_ASSIGNED_CONTEXT
((#911,#912,#913)) REPRESENTATION_CONTEXT('Context #1',
  '3D Context with UNIT and UNCERTAINTY') );
#911 = ( LENGTH_UNIT() NAMED_UNIT(*) SI_UNIT(.MILLI.,.METRE.) );
#912 = ( NAMED_UNIT(*) PLANE_ANGLE_UNIT() SI_UNIT($,.RADIAN.) );
#913 = ( NAMED_UNIT(*) SI_UNIT($,.STERADIAN.) SOLID_ANGLE_UNIT() );
#914 = UNCERTAINTY_MEASURE_WITH_UNIT(LENGTH_MEASURE(1.E-07),#911,
  'distance_accuracy_value','confusion accuracy');
#915 = PRODUCT_RELATED_PRODUCT_CATEGORY('part',$,(#7));
#916 = MECHANICAL_DESIGN_GEOMETRIC_PRESENTATION_REPRESENTATION('',(#917)
  ,#910);
#917 = STYLED_ITEM('color',(#918),#15);
#918 = PRESENTATION_STYLE_ASSIGNMENT((#919,#925));
#919 = SURFACE_STYLE_USAGE(.BOTH.,#920);
#920 = SURFACE_SIDE_STYLE('',(#921));
#921 = SURFACE_STYLE_FILL_AREA(#922);
#922 = FILL_AREA_STYLE('',(#923));
#923 = FILL_AREA_STYLE_COLOUR('',#924);
#924 = COLOUR_RGB('',0.447059003357,0.474510015008,0.501960993452);
#925 = CURVE_STYLE('',#926,POSITIVE_LENGTH_MEASURE(0.1),#927);
#926 = DRAUGHTING_PRE_DEFINED_CURVE_FONT('continuous');
#927 = COLOUR_RGB('',9.803921802644E-02,9.803921802644E-02,
  9.803921802644E-02);
ENDSEC;
END-ISO-10303-21;
