ISO-10303-21;
HEADER;
FILE_DESCRIPTION(('FreeCAD Model'),'2;1');
FILE_NAME('Open CASCADE Shape Model','2026-02-04T19:22:02',(''),(''),
  'Open CASCADE STEP processor 7.9','FreeCAD','Unknown');
FILE_SCHEMA(('AUTOMOTIVE_DESIGN { 1 0 10303 214 1 1 1 1 }'));
ENDSEC;
DATA;
#1 = APPLICATION_PROTOCOL_DEFINITION('international standard',
  'automotive_design',2000,#2);
#2 = APPLICATION_CONTEXT(
  'core data for automotive mechanical design processes');
#3 = SHAPE_DEFINITION_REPRESENTATION(#4,#10);
#4 = PRODUCT_DEFINITION_SHAPE('','',#5);
#5 = PRODUCT_DEFINITION('design','',#6,#9);
#6 = PRODUCT_DEFINITION_FORMATION('','',#7);
#7 = PRODUCT('Body','Body','',(#8));
#8 = PRODUCT_CONTEXT('',#2,'mechanical');
#9 = PRODUCT_DEFINITION_CONTEXT('part definition',#2,'design');
#10 = ADVANCED_BREP_SHAPE_REPRESENTATION('',(#11,#15),#1617);
#11 = AXIS2_PLACEMENT_3D('',#12,#13,#14);
#12 = CARTESIAN_POINT('',(0.,0.,0.));
#13 = DIRECTION('',(0.,0.,1.));
#14 = DIRECTION('',(1.,0.,-0.));
#15 = MANIFOLD_SOLID_BREP('',#16);
#16 = CLOSED_SHELL('',(#17,#89,#152,#176,#200,#256,#312,#336,#360,#409,
    #709,#733,#757,#822,#846,#870,#935,#959,#983,#1048,#1072,#1096,#1161
    ,#1178,#1195,#1212,#1229,#1246,#1263,#1280,#1297,#1314,#1331,#1348,
    #1360,#1377,#1389,#1406,#1423,#1440,#1457,#1474,#1491,#1508,#1525,
    #1542,#1559,#1576,#1588,#1605));
#17 = ADVANCED_FACE('',(#18),#84,.F.);
#18 = FACE_BOUND('',#19,.F.);
#19 = EDGE_LOOP('',(#20,#30,#38,#46,#54,#62,#70,#78));
#20 = ORIENTED_EDGE('',*,*,#21,.T.);
#21 = EDGE_CURVE('',#22,#24,#26,.T.);
#22 = VERTEX_POINT('',#23);
#23 = CARTESIAN_POINT('',(-9.,-10.,0.));
#24 = VERTEX_POINT('',#25);
#25 = CARTESIAN_POINT('',(9.,-10.,0.));
#26 = LINE('',#27,#28);
#27 = CARTESIAN_POINT('',(-10.,-10.,0.));
#28 = VECTOR('',#29,1.);
#29 = DIRECTION('',(1.,0.,0.));
#30 = ORIENTED_EDGE('',*,*,#31,.T.);
#31 = EDGE_CURVE('',#24,#32,#34,.T.);
#32 = VERTEX_POINT('',#33);
#33 = CARTESIAN_POINT('',(10.,-9.,0.));
#34 = LINE('',#35,#36);
#35 = CARTESIAN_POINT('',(9.5,-9.5,0.));
#36 = VECTOR('',#37,1.);
#37 = DIRECTION('',(0.707106781187,0.707106781187,0.));
#38 = ORIENTED_EDGE('',*,*,#39,.T.);
#39 = EDGE_CURVE('',#32,#40,#42,.T.);
#40 = VERTEX_POINT('',#41);
#41 = CARTESIAN_POINT('',(10.,9.,0.));
#42 = LINE('',#43,#44);
#43 = CARTESIAN_POINT('',(10.,-10.,0.));
#44 = VECTOR('',#45,1.);
#45 = DIRECTION('',(0.,1.,0.));
#46 = ORIENTED_EDGE('',*,*,#47,.F.);
#47 = EDGE_CURVE('',#48,#40,#50,.T.);
#48 = VERTEX_POINT('',#49);
#49 = CARTESIAN_POINT('',(9.,10.,0.));
#50 = LINE('',#51,#52);
#51 = CARTESIAN_POINT('',(9.5,9.5,0.));
#52 = VECTOR('',#53,1.);
#53 = DIRECTION('',(0.707106781187,-0.707106781187,0.));
#54 = ORIENTED_EDGE('',*,*,#55,.T.);
#55 = EDGE_CURVE('',#48,#56,#58,.T.);
#56 = VERTEX_POINT('',#57);
#57 = CARTESIAN_POINT('',(-9.,10.,0.));
#58 = LINE('',#59,#60);
#59 = CARTESIAN_POINT('',(10.,10.,0.));
#60 = VECTOR('',#61,1.);
#61 = DIRECTION('',(-1.,0.,0.));
#62 = ORIENTED_EDGE('',*,*,#63,.T.);
#63 = EDGE_CURVE('',#56,#64,#66,.T.);
#64 = VERTEX_POINT('',#65);
#65 = CARTESIAN_POINT('',(-10.,9.,0.));
#66 = LINE('',#67,#68);
#67 = CARTESIAN_POINT('',(-9.5,9.5,0.));
#68 = VECTOR('',#69,1.);
#69 = DIRECTION('',(-0.707106781187,-0.707106781187,0.));
#70 = ORIENTED_EDGE('',*,*,#71,.T.);
#71 = EDGE_CURVE('',#64,#72,#74,.T.);
#72 = VERTEX_POINT('',#73);
#73 = CARTESIAN_POINT('',(-10.,-9.,0.));
#74 = LINE('',#75,#76);
#75 = CARTESIAN_POINT('',(-10.,10.,0.));
#76 = VECTOR('',#77,1.);
#77 = DIRECTION('',(0.,-1.,0.));
#78 = ORIENTED_EDGE('',*,*,#79,.F.);
#79 = EDGE_CURVE('',#22,#72,#80,.T.);
#80 = LINE('',#81,#82);
#81 = CARTESIAN_POINT('',(-9.5,-9.5,0.));
#82 = VECTOR('',#83,1.);
#83 = DIRECTION('',(-0.707106781187,0.707106781187,0.));
#84 = PLANE('',#85);
#85 = AXIS2_PLACEMENT_3D('',#86,#87,#88);
#86 = CARTESIAN_POINT('',(0.,0.,0.));
#87 = DIRECTION('',(0.,0.,1.));
#88 = DIRECTION('',(1.,0.,0.));
#89 = ADVANCED_FACE('',(#90),#147,.T.);
#90 = FACE_BOUND('',#91,.T.);
#91 = EDGE_LOOP('',(#92,#93,#101,#109,#117,#125,#133,#141));
#92 = ORIENTED_EDGE('',*,*,#21,.T.);
#93 = ORIENTED_EDGE('',*,*,#94,.T.);
#94 = EDGE_CURVE('',#24,#95,#97,.T.);
#95 = VERTEX_POINT('',#96);
#96 = CARTESIAN_POINT('',(9.,-10.,5.));
#97 = LINE('',#98,#99);
#98 = CARTESIAN_POINT('',(9.,-10.,0.));
#99 = VECTOR('',#100,1.);
#100 = DIRECTION('',(0.,0.,1.));
#101 = ORIENTED_EDGE('',*,*,#102,.F.);
#102 = EDGE_CURVE('',#103,#95,#105,.T.);
#103 = VERTEX_POINT('',#104);
#104 = CARTESIAN_POINT('',(2.75,-10.,5.));
#105 = LINE('',#106,#107);
#106 = CARTESIAN_POINT('',(-10.,-10.,5.));
#107 = VECTOR('',#108,1.);
#108 = DIRECTION('',(1.,0.,0.));
#109 = ORIENTED_EDGE('',*,*,#110,.T.);
#110 = EDGE_CURVE('',#103,#111,#113,.T.);
#111 = VERTEX_POINT('',#112);
#112 = CARTESIAN_POINT('',(2.75,-10.,8.));
#113 = LINE('',#114,#115);
#114 = CARTESIAN_POINT('',(2.75,-10.,5.));
#115 = VECTOR('',#116,1.);
#116 = DIRECTION('',(0.,0.,1.));
#117 = ORIENTED_EDGE('',*,*,#118,.T.);
#118 = EDGE_CURVE('',#111,#119,#121,.T.);
#119 = VERTEX_POINT('',#120);
#120 = CARTESIAN_POINT('',(-2.75,-10.,8.));
#121 = LINE('',#122,#123);
#122 = CARTESIAN_POINT('',(2.75,-10.,8.));
#123 = VECTOR('',#124,1.);
#124 = DIRECTION('',(-1.,1.224646799147E-16,0.));
#125 = ORIENTED_EDGE('',*,*,#126,.F.);
#126 = EDGE_CURVE('',#127,#119,#129,.T.);
#127 = VERTEX_POINT('',#128);
#128 = CARTESIAN_POINT('',(-2.75,-10.,5.));
#129 = LINE('',#130,#131);
#130 = CARTESIAN_POINT('',(-2.75,-10.,5.));
#131 = VECTOR('',#132,1.);
#132 = DIRECTION('',(0.,0.,1.));
#133 = ORIENTED_EDGE('',*,*,#134,.F.);
#134 = EDGE_CURVE('',#135,#127,#137,.T.);
#135 = VERTEX_POINT('',#136);
#136 = CARTESIAN_POINT('',(-9.,-10.,5.));
#137 = LINE('',#138,#139);
#138 = CARTESIAN_POINT('',(-10.,-10.,5.));
#139 = VECTOR('',#140,1.);
#140 = DIRECTION('',(1.,0.,0.));
#141 = ORIENTED_EDGE('',*,*,#142,.F.);
#142 = EDGE_CURVE('',#22,#135,#143,.T.);
#143 = LINE('',#144,#145);
#144 = CARTESIAN_POINT('',(-9.,-10.,0.));
#145 = VECTOR('',#146,1.);
#146 = DIRECTION('',(0.,0.,1.));
#147 = PLANE('',#148);
#148 = AXIS2_PLACEMENT_3D('',#149,#150,#151);
#149 = CARTESIAN_POINT('',(6.344131569287E-17,-10.,3.223214285714));
#150 = DIRECTION('',(-0.,-1.,-0.));
#151 = DIRECTION('',(0.,0.,-1.));
#152 = ADVANCED_FACE('',(#153),#171,.T.);
#153 = FACE_BOUND('',#154,.T.);
#154 = EDGE_LOOP('',(#155,#156,#157,#165));
#155 = ORIENTED_EDGE('',*,*,#79,.F.);
#156 = ORIENTED_EDGE('',*,*,#142,.T.);
#157 = ORIENTED_EDGE('',*,*,#158,.T.);
#158 = EDGE_CURVE('',#135,#159,#161,.T.);
#159 = VERTEX_POINT('',#160);
#160 = CARTESIAN_POINT('',(-10.,-9.,5.));
#161 = LINE('',#162,#163);
#162 = CARTESIAN_POINT('',(-9.5,-9.5,5.));
#163 = VECTOR('',#164,1.);
#164 = DIRECTION('',(-0.707106781187,0.707106781187,0.));
#165 = ORIENTED_EDGE('',*,*,#166,.F.);
#166 = EDGE_CURVE('',#72,#159,#167,.T.);
#167 = LINE('',#168,#169);
#168 = CARTESIAN_POINT('',(-10.,-9.,0.));
#169 = VECTOR('',#170,1.);
#170 = DIRECTION('',(0.,0.,1.));
#171 = PLANE('',#172);
#172 = AXIS2_PLACEMENT_3D('',#173,#174,#175);
#173 = CARTESIAN_POINT('',(-9.5,-9.5,0.));
#174 = DIRECTION('',(-0.707106781187,-0.707106781187,0.));
#175 = DIRECTION('',(0.,0.,1.));
#176 = ADVANCED_FACE('',(#177),#195,.T.);
#177 = FACE_BOUND('',#178,.F.);
#178 = EDGE_LOOP('',(#179,#180,#181,#189));
#179 = ORIENTED_EDGE('',*,*,#31,.F.);
#180 = ORIENTED_EDGE('',*,*,#94,.T.);
#181 = ORIENTED_EDGE('',*,*,#182,.T.);
#182 = EDGE_CURVE('',#95,#183,#185,.T.);
#183 = VERTEX_POINT('',#184);
#184 = CARTESIAN_POINT('',(10.,-9.,5.));
#185 = LINE('',#186,#187);
#186 = CARTESIAN_POINT('',(9.5,-9.5,5.));
#187 = VECTOR('',#188,1.);
#188 = DIRECTION('',(0.707106781187,0.707106781187,0.));
#189 = ORIENTED_EDGE('',*,*,#190,.F.);
#190 = EDGE_CURVE('',#32,#183,#191,.T.);
#191 = LINE('',#192,#193);
#192 = CARTESIAN_POINT('',(10.,-9.,0.));
#193 = VECTOR('',#194,1.);
#194 = DIRECTION('',(0.,0.,1.));
#195 = PLANE('',#196);
#196 = AXIS2_PLACEMENT_3D('',#197,#198,#199);
#197 = CARTESIAN_POINT('',(9.5,-9.5,0.));
#198 = DIRECTION('',(0.707106781187,-0.707106781187,0.));
#199 = DIRECTION('',(-0.,-0.,-1.));
#200 = ADVANCED_FACE('',(#201),#251,.T.);
#201 = FACE_BOUND('',#202,.T.);
#202 = EDGE_LOOP('',(#203,#204,#205,#213,#221,#229,#237,#245));
#203 = ORIENTED_EDGE('',*,*,#71,.T.);
#204 = ORIENTED_EDGE('',*,*,#166,.T.);
#205 = ORIENTED_EDGE('',*,*,#206,.F.);
#206 = EDGE_CURVE('',#207,#159,#209,.T.);
#207 = VERTEX_POINT('',#208);
#208 = CARTESIAN_POINT('',(-10.,-2.75,5.));
#209 = LINE('',#210,#211);
#210 = CARTESIAN_POINT('',(-10.,10.,5.));
#211 = VECTOR('',#212,1.);
#212 = DIRECTION('',(0.,-1.,0.));
#213 = ORIENTED_EDGE('',*,*,#214,.T.);
#214 = EDGE_CURVE('',#207,#215,#217,.T.);
#215 = VERTEX_POINT('',#216);
#216 = CARTESIAN_POINT('',(-10.,-2.75,8.));
#217 = LINE('',#218,#219);
#218 = CARTESIAN_POINT('',(-10.,-2.75,5.));
#219 = VECTOR('',#220,1.);
#220 = DIRECTION('',(0.,0.,1.));
#221 = ORIENTED_EDGE('',*,*,#222,.T.);
#222 = EDGE_CURVE('',#215,#223,#225,.T.);
#223 = VERTEX_POINT('',#224);
#224 = CARTESIAN_POINT('',(-10.,2.75,8.));
#225 = LINE('',#226,#227);
#226 = CARTESIAN_POINT('',(-10.,-2.75,8.));
#227 = VECTOR('',#228,1.);
#228 = DIRECTION('',(1.110223024625E-16,1.,0.));
#229 = ORIENTED_EDGE('',*,*,#230,.F.);
#230 = EDGE_CURVE('',#231,#223,#233,.T.);
#231 = VERTEX_POINT('',#232);
#232 = CARTESIAN_POINT('',(-10.,2.75,5.));
#233 = LINE('',#234,#235);
#234 = CARTESIAN_POINT('',(-10.,2.75,5.));
#235 = VECTOR('',#236,1.);
#236 = DIRECTION('',(0.,0.,1.));
#237 = ORIENTED_EDGE('',*,*,#238,.F.);
#238 = EDGE_CURVE('',#239,#231,#241,.T.);
#239 = VERTEX_POINT('',#240);
#240 = CARTESIAN_POINT('',(-10.,9.,5.));
#241 = LINE('',#242,#243);
#242 = CARTESIAN_POINT('',(-10.,10.,5.));
#243 = VECTOR('',#244,1.);
#244 = DIRECTION('',(0.,-1.,0.));
#245 = ORIENTED_EDGE('',*,*,#246,.F.);
#246 = EDGE_CURVE('',#64,#239,#247,.T.);
#247 = LINE('',#248,#249);
#248 = CARTESIAN_POINT('',(-10.,9.,0.));
#249 = VECTOR('',#250,1.);
#250 = DIRECTION('',(0.,0.,1.));
#251 = PLANE('',#252);
#252 = AXIS2_PLACEMENT_3D('',#253,#254,#255);
#253 = CARTESIAN_POINT('',(-10.,-9.51619735393E-17,3.223214285714));
#254 = DIRECTION('',(-1.,-0.,-0.));
#255 = DIRECTION('',(0.,0.,-1.));
#256 = ADVANCED_FACE('',(#257),#307,.T.);
#257 = FACE_BOUND('',#258,.T.);
#258 = EDGE_LOOP('',(#259,#260,#268,#276,#284,#292,#300,#306));
#259 = ORIENTED_EDGE('',*,*,#39,.T.);
#260 = ORIENTED_EDGE('',*,*,#261,.T.);
#261 = EDGE_CURVE('',#40,#262,#264,.T.);
#262 = VERTEX_POINT('',#263);
#263 = CARTESIAN_POINT('',(10.,9.,5.));
#264 = LINE('',#265,#266);
#265 = CARTESIAN_POINT('',(10.,9.,0.));
#266 = VECTOR('',#267,1.);
#267 = DIRECTION('',(0.,0.,1.));
#268 = ORIENTED_EDGE('',*,*,#269,.F.);
#269 = EDGE_CURVE('',#270,#262,#272,.T.);
#270 = VERTEX_POINT('',#271);
#271 = CARTESIAN_POINT('',(10.,2.75,5.));
#272 = LINE('',#273,#274);
#273 = CARTESIAN_POINT('',(10.,-10.,5.));
#274 = VECTOR('',#275,1.);
#275 = DIRECTION('',(0.,1.,0.));
#276 = ORIENTED_EDGE('',*,*,#277,.T.);
#277 = EDGE_CURVE('',#270,#278,#280,.T.);
#278 = VERTEX_POINT('',#279);
#279 = CARTESIAN_POINT('',(10.,2.75,8.));
#280 = LINE('',#281,#282);
#281 = CARTESIAN_POINT('',(10.,2.75,5.));
#282 = VECTOR('',#283,1.);
#283 = DIRECTION('',(0.,0.,1.));
#284 = ORIENTED_EDGE('',*,*,#285,.T.);
#285 = EDGE_CURVE('',#278,#286,#288,.T.);
#286 = VERTEX_POINT('',#287);
#287 = CARTESIAN_POINT('',(10.,-2.75,8.));
#288 = LINE('',#289,#290);
#289 = CARTESIAN_POINT('',(10.,2.75,8.));
#290 = VECTOR('',#291,1.);
#291 = DIRECTION('',(-2.22044604925E-16,-1.,0.));
#292 = ORIENTED_EDGE('',*,*,#293,.F.);
#293 = EDGE_CURVE('',#294,#286,#296,.T.);
#294 = VERTEX_POINT('',#295);
#295 = CARTESIAN_POINT('',(10.,-2.75,5.));
#296 = LINE('',#297,#298);
#297 = CARTESIAN_POINT('',(10.,-2.75,5.));
#298 = VECTOR('',#299,1.);
#299 = DIRECTION('',(0.,0.,1.));
#300 = ORIENTED_EDGE('',*,*,#301,.F.);
#301 = EDGE_CURVE('',#183,#294,#302,.T.);
#302 = LINE('',#303,#304);
#303 = CARTESIAN_POINT('',(10.,-10.,5.));
#304 = VECTOR('',#305,1.);
#305 = DIRECTION('',(0.,1.,0.));
#306 = ORIENTED_EDGE('',*,*,#190,.F.);
#307 = PLANE('',#308);
#308 = AXIS2_PLACEMENT_3D('',#309,#310,#311);
#309 = CARTESIAN_POINT('',(10.,-1.903239470786E-16,3.223214285714));
#310 = DIRECTION('',(1.,0.,0.));
#311 = DIRECTION('',(0.,0.,1.));
#312 = ADVANCED_FACE('',(#313),#331,.T.);
#313 = FACE_BOUND('',#314,.F.);
#314 = EDGE_LOOP('',(#315,#316,#324,#330));
#315 = ORIENTED_EDGE('',*,*,#63,.F.);
#316 = ORIENTED_EDGE('',*,*,#317,.T.);
#317 = EDGE_CURVE('',#56,#318,#320,.T.);
#318 = VERTEX_POINT('',#319);
#319 = CARTESIAN_POINT('',(-9.,10.,5.));
#320 = LINE('',#321,#322);
#321 = CARTESIAN_POINT('',(-9.,10.,0.));
#322 = VECTOR('',#323,1.);
#323 = DIRECTION('',(0.,0.,1.));
#324 = ORIENTED_EDGE('',*,*,#325,.T.);
#325 = EDGE_CURVE('',#318,#239,#326,.T.);
#326 = LINE('',#327,#328);
#327 = CARTESIAN_POINT('',(-9.5,9.5,5.));
#328 = VECTOR('',#329,1.);
#329 = DIRECTION('',(-0.707106781187,-0.707106781187,0.));
#330 = ORIENTED_EDGE('',*,*,#246,.F.);
#331 = PLANE('',#332);
#332 = AXIS2_PLACEMENT_3D('',#333,#334,#335);
#333 = CARTESIAN_POINT('',(-9.5,9.5,0.));
#334 = DIRECTION('',(-0.707106781187,0.707106781187,0.));
#335 = DIRECTION('',(-0.,-0.,-1.));
#336 = ADVANCED_FACE('',(#337),#355,.T.);
#337 = FACE_BOUND('',#338,.T.);
#338 = EDGE_LOOP('',(#339,#340,#348,#354));
#339 = ORIENTED_EDGE('',*,*,#47,.F.);
#340 = ORIENTED_EDGE('',*,*,#341,.T.);
#341 = EDGE_CURVE('',#48,#342,#344,.T.);
#342 = VERTEX_POINT('',#343);
#343 = CARTESIAN_POINT('',(9.,10.,5.));
#344 = LINE('',#345,#346);
#345 = CARTESIAN_POINT('',(9.,10.,0.));
#346 = VECTOR('',#347,1.);
#347 = DIRECTION('',(0.,0.,1.));
#348 = ORIENTED_EDGE('',*,*,#349,.T.);
#349 = EDGE_CURVE('',#342,#262,#350,.T.);
#350 = LINE('',#351,#352);
#351 = CARTESIAN_POINT('',(9.5,9.5,5.));
#352 = VECTOR('',#353,1.);
#353 = DIRECTION('',(0.707106781187,-0.707106781187,0.));
#354 = ORIENTED_EDGE('',*,*,#261,.F.);
#355 = PLANE('',#356);
#356 = AXIS2_PLACEMENT_3D('',#357,#358,#359);
#357 = CARTESIAN_POINT('',(9.5,9.5,0.));
#358 = DIRECTION('',(0.707106781187,0.707106781187,0.));
#359 = DIRECTION('',(0.,0.,1.));
#360 = ADVANCED_FACE('',(#361),#404,.T.);
#361 = FACE_BOUND('',#362,.T.);
#362 = EDGE_LOOP('',(#363,#364,#365,#373,#381,#389,#397,#403));
#363 = ORIENTED_EDGE('',*,*,#55,.T.);
#364 = ORIENTED_EDGE('',*,*,#317,.T.);
#365 = ORIENTED_EDGE('',*,*,#366,.F.);
#366 = EDGE_CURVE('',#367,#318,#369,.T.);
#367 = VERTEX_POINT('',#368);
#368 = CARTESIAN_POINT('',(-2.75,10.,5.));
#369 = LINE('',#370,#371);
#370 = CARTESIAN_POINT('',(10.,10.,5.));
#371 = VECTOR('',#372,1.);
#372 = DIRECTION('',(-1.,0.,0.));
#373 = ORIENTED_EDGE('',*,*,#374,.T.);
#374 = EDGE_CURVE('',#367,#375,#377,.T.);
#375 = VERTEX_POINT('',#376);
#376 = CARTESIAN_POINT('',(-2.75,10.,8.));
#377 = LINE('',#378,#379);
#378 = CARTESIAN_POINT('',(-2.75,10.,5.));
#379 = VECTOR('',#380,1.);
#380 = DIRECTION('',(0.,0.,1.));
#381 = ORIENTED_EDGE('',*,*,#382,.T.);
#382 = EDGE_CURVE('',#375,#383,#385,.T.);
#383 = VERTEX_POINT('',#384);
#384 = CARTESIAN_POINT('',(2.75,10.,8.));
#385 = LINE('',#386,#387);
#386 = CARTESIAN_POINT('',(-2.75,10.,8.));
#387 = VECTOR('',#388,1.);
#388 = DIRECTION('',(1.,0.,0.));
#389 = ORIENTED_EDGE('',*,*,#390,.F.);
#390 = EDGE_CURVE('',#391,#383,#393,.T.);
#391 = VERTEX_POINT('',#392);
#392 = CARTESIAN_POINT('',(2.75,10.,5.));
#393 = LINE('',#394,#395);
#394 = CARTESIAN_POINT('',(2.75,10.,5.));
#395 = VECTOR('',#396,1.);
#396 = DIRECTION('',(0.,0.,1.));
#397 = ORIENTED_EDGE('',*,*,#398,.F.);
#398 = EDGE_CURVE('',#342,#391,#399,.T.);
#399 = LINE('',#400,#401);
#400 = CARTESIAN_POINT('',(10.,10.,5.));
#401 = VECTOR('',#402,1.);
#402 = DIRECTION('',(-1.,0.,0.));
#403 = ORIENTED_EDGE('',*,*,#341,.F.);
#404 = PLANE('',#405);
#405 = AXIS2_PLACEMENT_3D('',#406,#407,#408);
#406 = CARTESIAN_POINT('',(0.,10.,3.223214285714));
#407 = DIRECTION('',(0.,1.,0.));
#408 = DIRECTION('',(0.,0.,1.));
#409 = ADVANCED_FACE('',(#410),#704,.T.);
#410 = FACE_BOUND('',#411,.T.);
#411 = EDGE_LOOP('',(#412,#413,#414,#415,#423,#431,#439,#447,#455,#463,
    #471,#479,#485,#486,#487,#488,#496,#504,#512,#520,#528,#536,#544,
    #552,#558,#559,#560,#561,#569,#577,#585,#593,#601,#609,#617,#625,
    #631,#632,#633,#634,#642,#650,#658,#666,#674,#682,#690,#698));
#412 = ORIENTED_EDGE('',*,*,#366,.T.);
#413 = ORIENTED_EDGE('',*,*,#325,.T.);
#414 = ORIENTED_EDGE('',*,*,#238,.T.);
#415 = ORIENTED_EDGE('',*,*,#416,.T.);
#416 = EDGE_CURVE('',#231,#417,#419,.T.);
#417 = VERTEX_POINT('',#418);
#418 = CARTESIAN_POINT('',(-8.,2.75,5.));
#419 = LINE('',#420,#421);
#420 = CARTESIAN_POINT('',(-10.,2.75,5.));
#421 = VECTOR('',#422,1.);
#422 = DIRECTION('',(1.,-1.110223024625E-16,0.));
#423 = ORIENTED_EDGE('',*,*,#424,.T.);
#424 = EDGE_CURVE('',#417,#425,#427,.T.);
#425 = VERTEX_POINT('',#426);
#426 = CARTESIAN_POINT('',(-8.,4.5,5.));
#427 = LINE('',#428,#429);
#428 = CARTESIAN_POINT('',(-8.,2.75,5.));
#429 = VECTOR('',#430,1.);
#430 = DIRECTION('',(1.110223024625E-16,1.,0.));
#431 = ORIENTED_EDGE('',*,*,#432,.T.);
#432 = EDGE_CURVE('',#425,#433,#435,.T.);
#433 = VERTEX_POINT('',#434);
#434 = CARTESIAN_POINT('',(-7.,4.5,5.));
#435 = LINE('',#436,#437);
#436 = CARTESIAN_POINT('',(-8.,4.5,5.));
#437 = VECTOR('',#438,1.);
#438 = DIRECTION('',(1.,-1.110223024625E-16,0.));
#439 = ORIENTED_EDGE('',*,*,#440,.T.);
#440 = EDGE_CURVE('',#433,#441,#443,.T.);
#441 = VERTEX_POINT('',#442);
#442 = CARTESIAN_POINT('',(-5.,2.,5.));
#443 = LINE('',#444,#445);
#444 = CARTESIAN_POINT('',(-7.,4.5,5.));
#445 = VECTOR('',#446,1.);
#446 = DIRECTION('',(0.624695047554,-0.780868809443,0.));
#447 = ORIENTED_EDGE('',*,*,#448,.T.);
#448 = EDGE_CURVE('',#441,#449,#451,.T.);
#449 = VERTEX_POINT('',#450);
#450 = CARTESIAN_POINT('',(-5.,-2.,5.));
#451 = LINE('',#452,#453);
#452 = CARTESIAN_POINT('',(-5.,2.,5.));
#453 = VECTOR('',#454,1.);
#454 = DIRECTION('',(-1.110223024625E-16,-1.,0.));
#455 = ORIENTED_EDGE('',*,*,#456,.T.);
#456 = EDGE_CURVE('',#449,#457,#459,.T.);
#457 = VERTEX_POINT('',#458);
#458 = CARTESIAN_POINT('',(-7.,-4.5,5.));
#459 = LINE('',#460,#461);
#460 = CARTESIAN_POINT('',(-5.,-2.,5.));
#461 = VECTOR('',#462,1.);
#462 = DIRECTION('',(-0.624695047554,-0.780868809443,0.));
#463 = ORIENTED_EDGE('',*,*,#464,.T.);
#464 = EDGE_CURVE('',#457,#465,#467,.T.);
#465 = VERTEX_POINT('',#466);
#466 = CARTESIAN_POINT('',(-8.,-4.5,5.));
#467 = LINE('',#468,#469);
#468 = CARTESIAN_POINT('',(-7.,-4.5,5.));
#469 = VECTOR('',#470,1.);
#470 = DIRECTION('',(-1.,1.110223024625E-16,0.));
#471 = ORIENTED_EDGE('',*,*,#472,.T.);
#472 = EDGE_CURVE('',#465,#473,#475,.T.);
#473 = VERTEX_POINT('',#474);
#474 = CARTESIAN_POINT('',(-8.,-2.75,5.));
#475 = LINE('',#476,#477);
#476 = CARTESIAN_POINT('',(-8.,-4.5,5.));
#477 = VECTOR('',#478,1.);
#478 = DIRECTION('',(1.110223024625E-16,1.,0.));
#479 = ORIENTED_EDGE('',*,*,#480,.T.);
#480 = EDGE_CURVE('',#473,#207,#481,.T.);
#481 = LINE('',#482,#483);
#482 = CARTESIAN_POINT('',(-8.,-2.75,5.));
#483 = VECTOR('',#484,1.);
#484 = DIRECTION('',(-1.,1.110223024625E-16,0.));
#485 = ORIENTED_EDGE('',*,*,#206,.T.);
#486 = ORIENTED_EDGE('',*,*,#158,.F.);
#487 = ORIENTED_EDGE('',*,*,#134,.T.);
#488 = ORIENTED_EDGE('',*,*,#489,.T.);
#489 = EDGE_CURVE('',#127,#490,#492,.T.);
#490 = VERTEX_POINT('',#491);
#491 = CARTESIAN_POINT('',(-2.75,-8.,5.));
#492 = LINE('',#493,#494);
#493 = CARTESIAN_POINT('',(-2.75,-10.,5.));
#494 = VECTOR('',#495,1.);
#495 = DIRECTION('',(1.224646799147E-16,1.,0.));
#496 = ORIENTED_EDGE('',*,*,#497,.T.);
#497 = EDGE_CURVE('',#490,#498,#500,.T.);
#498 = VERTEX_POINT('',#499);
#499 = CARTESIAN_POINT('',(-4.5,-8.,5.));
#500 = LINE('',#501,#502);
#501 = CARTESIAN_POINT('',(-2.75,-8.,5.));
#502 = VECTOR('',#503,1.);
#503 = DIRECTION('',(-1.,1.224646799147E-16,0.));
#504 = ORIENTED_EDGE('',*,*,#505,.T.);
#505 = EDGE_CURVE('',#498,#506,#508,.T.);
#506 = VERTEX_POINT('',#507);
#507 = CARTESIAN_POINT('',(-4.5,-7.,5.));
#508 = LINE('',#509,#510);
#509 = CARTESIAN_POINT('',(-4.5,-8.,5.));
#510 = VECTOR('',#511,1.);
#511 = DIRECTION('',(1.224646799147E-16,1.,0.));
#512 = ORIENTED_EDGE('',*,*,#513,.T.);
#513 = EDGE_CURVE('',#506,#514,#516,.T.);
#514 = VERTEX_POINT('',#515);
#515 = CARTESIAN_POINT('',(-2.,-5.,5.));
#516 = LINE('',#517,#518);
#517 = CARTESIAN_POINT('',(-4.5,-7.,5.));
#518 = VECTOR('',#519,1.);
#519 = DIRECTION('',(0.780868809443,0.624695047554,0.));
#520 = ORIENTED_EDGE('',*,*,#521,.T.);
#521 = EDGE_CURVE('',#514,#522,#524,.T.);
#522 = VERTEX_POINT('',#523);
#523 = CARTESIAN_POINT('',(2.,-5.,5.));
#524 = LINE('',#525,#526);
#525 = CARTESIAN_POINT('',(-2.,-5.,5.));
#526 = VECTOR('',#527,1.);
#527 = DIRECTION('',(1.,-1.224646799147E-16,0.));
#528 = ORIENTED_EDGE('',*,*,#529,.T.);
#529 = EDGE_CURVE('',#522,#530,#532,.T.);
#530 = VERTEX_POINT('',#531);
#531 = CARTESIAN_POINT('',(4.5,-7.,5.));
#532 = LINE('',#533,#534);
#533 = CARTESIAN_POINT('',(2.,-5.,5.));
#534 = VECTOR('',#535,1.);
#535 = DIRECTION('',(0.780868809443,-0.624695047554,0.));
#536 = ORIENTED_EDGE('',*,*,#537,.T.);
#537 = EDGE_CURVE('',#530,#538,#540,.T.);
#538 = VERTEX_POINT('',#539);
#539 = CARTESIAN_POINT('',(4.5,-8.,5.));
#540 = LINE('',#541,#542);
#541 = CARTESIAN_POINT('',(4.5,-7.,5.));
#542 = VECTOR('',#543,1.);
#543 = DIRECTION('',(-1.224646799147E-16,-1.,0.));
#544 = ORIENTED_EDGE('',*,*,#545,.T.);
#545 = EDGE_CURVE('',#538,#546,#548,.T.);
#546 = VERTEX_POINT('',#547);
#547 = CARTESIAN_POINT('',(2.75,-8.,5.));
#548 = LINE('',#549,#550);
#549 = CARTESIAN_POINT('',(4.5,-8.,5.));
#550 = VECTOR('',#551,1.);
#551 = DIRECTION('',(-1.,1.224646799147E-16,0.));
#552 = ORIENTED_EDGE('',*,*,#553,.T.);
#553 = EDGE_CURVE('',#546,#103,#554,.T.);
#554 = LINE('',#555,#556);
#555 = CARTESIAN_POINT('',(2.75,-8.,5.));
#556 = VECTOR('',#557,1.);
#557 = DIRECTION('',(-1.224646799147E-16,-1.,0.));
#558 = ORIENTED_EDGE('',*,*,#102,.T.);
#559 = ORIENTED_EDGE('',*,*,#182,.T.);
#560 = ORIENTED_EDGE('',*,*,#301,.T.);
#561 = ORIENTED_EDGE('',*,*,#562,.T.);
#562 = EDGE_CURVE('',#294,#563,#565,.T.);
#563 = VERTEX_POINT('',#564);
#564 = CARTESIAN_POINT('',(8.,-2.75,5.));
#565 = LINE('',#566,#567);
#566 = CARTESIAN_POINT('',(10.,-2.75,5.));
#567 = VECTOR('',#568,1.);
#568 = DIRECTION('',(-1.,2.22044604925E-16,0.));
#569 = ORIENTED_EDGE('',*,*,#570,.T.);
#570 = EDGE_CURVE('',#563,#571,#573,.T.);
#571 = VERTEX_POINT('',#572);
#572 = CARTESIAN_POINT('',(8.,-4.5,5.));
#573 = LINE('',#574,#575);
#574 = CARTESIAN_POINT('',(8.,-2.75,5.));
#575 = VECTOR('',#576,1.);
#576 = DIRECTION('',(-2.22044604925E-16,-1.,0.));
#577 = ORIENTED_EDGE('',*,*,#578,.T.);
#578 = EDGE_CURVE('',#571,#579,#581,.T.);
#579 = VERTEX_POINT('',#580);
#580 = CARTESIAN_POINT('',(7.,-4.5,5.));
#581 = LINE('',#582,#583);
#582 = CARTESIAN_POINT('',(8.,-4.5,5.));
#583 = VECTOR('',#584,1.);
#584 = DIRECTION('',(-1.,2.22044604925E-16,0.));
#585 = ORIENTED_EDGE('',*,*,#586,.T.);
#586 = EDGE_CURVE('',#579,#587,#589,.T.);
#587 = VERTEX_POINT('',#588);
#588 = CARTESIAN_POINT('',(5.,-2.,5.));
#589 = LINE('',#590,#591);
#590 = CARTESIAN_POINT('',(7.,-4.5,5.));
#591 = VECTOR('',#592,1.);
#592 = DIRECTION('',(-0.624695047554,0.780868809443,0.));
#593 = ORIENTED_EDGE('',*,*,#594,.T.);
#594 = EDGE_CURVE('',#587,#595,#597,.T.);
#595 = VERTEX_POINT('',#596);
#596 = CARTESIAN_POINT('',(5.,2.,5.));
#597 = LINE('',#598,#599);
#598 = CARTESIAN_POINT('',(5.,-2.,5.));
#599 = VECTOR('',#600,1.);
#600 = DIRECTION('',(2.22044604925E-16,1.,0.));
#601 = ORIENTED_EDGE('',*,*,#602,.T.);
#602 = EDGE_CURVE('',#595,#603,#605,.T.);
#603 = VERTEX_POINT('',#604);
#604 = CARTESIAN_POINT('',(7.,4.5,5.));
#605 = LINE('',#606,#607);
#606 = CARTESIAN_POINT('',(5.,2.,5.));
#607 = VECTOR('',#608,1.);
#608 = DIRECTION('',(0.624695047554,0.780868809443,0.));
#609 = ORIENTED_EDGE('',*,*,#610,.T.);
#610 = EDGE_CURVE('',#603,#611,#613,.T.);
#611 = VERTEX_POINT('',#612);
#612 = CARTESIAN_POINT('',(8.,4.5,5.));
#613 = LINE('',#614,#615);
#614 = CARTESIAN_POINT('',(7.,4.5,5.));
#615 = VECTOR('',#616,1.);
#616 = DIRECTION('',(1.,-2.22044604925E-16,0.));
#617 = ORIENTED_EDGE('',*,*,#618,.T.);
#618 = EDGE_CURVE('',#611,#619,#621,.T.);
#619 = VERTEX_POINT('',#620);
#620 = CARTESIAN_POINT('',(8.,2.75,5.));
#621 = LINE('',#622,#623);
#622 = CARTESIAN_POINT('',(8.,4.5,5.));
#623 = VECTOR('',#624,1.);
#624 = DIRECTION('',(-2.22044604925E-16,-1.,0.));
#625 = ORIENTED_EDGE('',*,*,#626,.T.);
#626 = EDGE_CURVE('',#619,#270,#627,.T.);
#627 = LINE('',#628,#629);
#628 = CARTESIAN_POINT('',(8.,2.75,5.));
#629 = VECTOR('',#630,1.);
#630 = DIRECTION('',(1.,-2.22044604925E-16,0.));
#631 = ORIENTED_EDGE('',*,*,#269,.T.);
#632 = ORIENTED_EDGE('',*,*,#349,.F.);
#633 = ORIENTED_EDGE('',*,*,#398,.T.);
#634 = ORIENTED_EDGE('',*,*,#635,.T.);
#635 = EDGE_CURVE('',#391,#636,#638,.T.);
#636 = VERTEX_POINT('',#637);
#637 = CARTESIAN_POINT('',(2.75,8.,5.));
#638 = LINE('',#639,#640);
#639 = CARTESIAN_POINT('',(2.75,10.,5.));
#640 = VECTOR('',#641,1.);
#641 = DIRECTION('',(0.,-1.,0.));
#642 = ORIENTED_EDGE('',*,*,#643,.T.);
#643 = EDGE_CURVE('',#636,#644,#646,.T.);
#644 = VERTEX_POINT('',#645);
#645 = CARTESIAN_POINT('',(4.5,8.,5.));
#646 = LINE('',#647,#648);
#647 = CARTESIAN_POINT('',(2.75,8.,5.));
#648 = VECTOR('',#649,1.);
#649 = DIRECTION('',(1.,0.,0.));
#650 = ORIENTED_EDGE('',*,*,#651,.T.);
#651 = EDGE_CURVE('',#644,#652,#654,.T.);
#652 = VERTEX_POINT('',#653);
#653 = CARTESIAN_POINT('',(4.5,7.,5.));
#654 = LINE('',#655,#656);
#655 = CARTESIAN_POINT('',(4.5,8.,5.));
#656 = VECTOR('',#657,1.);
#657 = DIRECTION('',(0.,-1.,0.));
#658 = ORIENTED_EDGE('',*,*,#659,.T.);
#659 = EDGE_CURVE('',#652,#660,#662,.T.);
#660 = VERTEX_POINT('',#661);
#661 = CARTESIAN_POINT('',(2.,5.,5.));
#662 = LINE('',#663,#664);
#663 = CARTESIAN_POINT('',(4.5,7.,5.));
#664 = VECTOR('',#665,1.);
#665 = DIRECTION('',(-0.780868809443,-0.624695047554,0.));
#666 = ORIENTED_EDGE('',*,*,#667,.T.);
#667 = EDGE_CURVE('',#660,#668,#670,.T.);
#668 = VERTEX_POINT('',#669);
#669 = CARTESIAN_POINT('',(-2.,5.,5.));
#670 = LINE('',#671,#672);
#671 = CARTESIAN_POINT('',(2.,5.,5.));
#672 = VECTOR('',#673,1.);
#673 = DIRECTION('',(-1.,0.,0.));
#674 = ORIENTED_EDGE('',*,*,#675,.T.);
#675 = EDGE_CURVE('',#668,#676,#678,.T.);
#676 = VERTEX_POINT('',#677);
#677 = CARTESIAN_POINT('',(-4.5,7.,5.));
#678 = LINE('',#679,#680);
#679 = CARTESIAN_POINT('',(-2.,5.,5.));
#680 = VECTOR('',#681,1.);
#681 = DIRECTION('',(-0.780868809443,0.624695047554,0.));
#682 = ORIENTED_EDGE('',*,*,#683,.T.);
#683 = EDGE_CURVE('',#676,#684,#686,.T.);
#684 = VERTEX_POINT('',#685);
#685 = CARTESIAN_POINT('',(-4.5,8.,5.));
#686 = LINE('',#687,#688);
#687 = CARTESIAN_POINT('',(-4.5,7.,5.));
#688 = VECTOR('',#689,1.);
#689 = DIRECTION('',(0.,1.,0.));
#690 = ORIENTED_EDGE('',*,*,#691,.T.);
#691 = EDGE_CURVE('',#684,#692,#694,.T.);
#692 = VERTEX_POINT('',#693);
#693 = CARTESIAN_POINT('',(-2.75,8.,5.));
#694 = LINE('',#695,#696);
#695 = CARTESIAN_POINT('',(-4.5,8.,5.));
#696 = VECTOR('',#697,1.);
#697 = DIRECTION('',(1.,0.,0.));
#698 = ORIENTED_EDGE('',*,*,#699,.T.);
#699 = EDGE_CURVE('',#692,#367,#700,.T.);
#700 = LINE('',#701,#702);
#701 = CARTESIAN_POINT('',(-2.75,8.,5.));
#702 = VECTOR('',#703,1.);
#703 = DIRECTION('',(0.,1.,0.));
#704 = PLANE('',#705);
#705 = AXIS2_PLACEMENT_3D('',#706,#707,#708);
#706 = CARTESIAN_POINT('',(0.,0.,5.));
#707 = DIRECTION('',(0.,0.,1.));
#708 = DIRECTION('',(1.,0.,0.));
#709 = ADVANCED_FACE('',(#710),#728,.T.);
#710 = FACE_BOUND('',#711,.T.);
#711 = EDGE_LOOP('',(#712,#713,#721,#727));
#712 = ORIENTED_EDGE('',*,*,#126,.T.);
#713 = ORIENTED_EDGE('',*,*,#714,.T.);
#714 = EDGE_CURVE('',#119,#715,#717,.T.);
#715 = VERTEX_POINT('',#716);
#716 = CARTESIAN_POINT('',(-2.75,-8.,8.));
#717 = LINE('',#718,#719);
#718 = CARTESIAN_POINT('',(-2.75,-10.,8.));
#719 = VECTOR('',#720,1.);
#720 = DIRECTION('',(1.224646799147E-16,1.,0.));
#721 = ORIENTED_EDGE('',*,*,#722,.F.);
#722 = EDGE_CURVE('',#490,#715,#723,.T.);
#723 = LINE('',#724,#725);
#724 = CARTESIAN_POINT('',(-2.75,-8.,5.));
#725 = VECTOR('',#726,1.);
#726 = DIRECTION('',(0.,0.,1.));
#727 = ORIENTED_EDGE('',*,*,#489,.F.);
#728 = PLANE('',#729);
#729 = AXIS2_PLACEMENT_3D('',#730,#731,#732);
#730 = CARTESIAN_POINT('',(-2.75,-10.,5.));
#731 = DIRECTION('',(-1.,1.224646799147E-16,0.));
#732 = DIRECTION('',(1.224646799147E-16,1.,0.));
#733 = ADVANCED_FACE('',(#734),#752,.T.);
#734 = FACE_BOUND('',#735,.T.);
#735 = EDGE_LOOP('',(#736,#744,#750,#751));
#736 = ORIENTED_EDGE('',*,*,#737,.T.);
#737 = EDGE_CURVE('',#546,#738,#740,.T.);
#738 = VERTEX_POINT('',#739);
#739 = CARTESIAN_POINT('',(2.75,-8.,8.));
#740 = LINE('',#741,#742);
#741 = CARTESIAN_POINT('',(2.75,-8.,5.));
#742 = VECTOR('',#743,1.);
#743 = DIRECTION('',(0.,0.,1.));
#744 = ORIENTED_EDGE('',*,*,#745,.T.);
#745 = EDGE_CURVE('',#738,#111,#746,.T.);
#746 = LINE('',#747,#748);
#747 = CARTESIAN_POINT('',(2.75,-8.,8.));
#748 = VECTOR('',#749,1.);
#749 = DIRECTION('',(-1.224646799147E-16,-1.,0.));
#750 = ORIENTED_EDGE('',*,*,#110,.F.);
#751 = ORIENTED_EDGE('',*,*,#553,.F.);
#752 = PLANE('',#753);
#753 = AXIS2_PLACEMENT_3D('',#754,#755,#756);
#754 = CARTESIAN_POINT('',(2.75,-8.,5.));
#755 = DIRECTION('',(1.,-1.224646799147E-16,0.));
#756 = DIRECTION('',(-1.224646799147E-16,-1.,0.));
#757 = ADVANCED_FACE('',(#758),#817,.T.);
#758 = FACE_BOUND('',#759,.F.);
#759 = EDGE_LOOP('',(#760,#761,#762,#770,#778,#786,#794,#802,#810,#816)
  );
#760 = ORIENTED_EDGE('',*,*,#118,.T.);
#761 = ORIENTED_EDGE('',*,*,#714,.T.);
#762 = ORIENTED_EDGE('',*,*,#763,.T.);
#763 = EDGE_CURVE('',#715,#764,#766,.T.);
#764 = VERTEX_POINT('',#765);
#765 = CARTESIAN_POINT('',(-4.5,-8.,8.));
#766 = LINE('',#767,#768);
#767 = CARTESIAN_POINT('',(-2.75,-8.,8.));
#768 = VECTOR('',#769,1.);
#769 = DIRECTION('',(-1.,1.224646799147E-16,0.));
#770 = ORIENTED_EDGE('',*,*,#771,.T.);
#771 = EDGE_CURVE('',#764,#772,#774,.T.);
#772 = VERTEX_POINT('',#773);
#773 = CARTESIAN_POINT('',(-4.5,-7.,8.));
#774 = LINE('',#775,#776);
#775 = CARTESIAN_POINT('',(-4.5,-8.,8.));
#776 = VECTOR('',#777,1.);
#777 = DIRECTION('',(1.224646799147E-16,1.,0.));
#778 = ORIENTED_EDGE('',*,*,#779,.T.);
#779 = EDGE_CURVE('',#772,#780,#782,.T.);
#780 = VERTEX_POINT('',#781);
#781 = CARTESIAN_POINT('',(-2.,-5.,8.));
#782 = LINE('',#783,#784);
#783 = CARTESIAN_POINT('',(-4.5,-7.,8.));
#784 = VECTOR('',#785,1.);
#785 = DIRECTION('',(0.780868809443,0.624695047554,0.));
#786 = ORIENTED_EDGE('',*,*,#787,.T.);
#787 = EDGE_CURVE('',#780,#788,#790,.T.);
#788 = VERTEX_POINT('',#789);
#789 = CARTESIAN_POINT('',(2.,-5.,8.));
#790 = LINE('',#791,#792);
#791 = CARTESIAN_POINT('',(-2.,-5.,8.));
#792 = VECTOR('',#793,1.);
#793 = DIRECTION('',(1.,-1.224646799147E-16,0.));
#794 = ORIENTED_EDGE('',*,*,#795,.T.);
#795 = EDGE_CURVE('',#788,#796,#798,.T.);
#796 = VERTEX_POINT('',#797);
#797 = CARTESIAN_POINT('',(4.5,-7.,8.));
#798 = LINE('',#799,#800);
#799 = CARTESIAN_POINT('',(2.,-5.,8.));
#800 = VECTOR('',#801,1.);
#801 = DIRECTION('',(0.780868809443,-0.624695047554,0.));
#802 = ORIENTED_EDGE('',*,*,#803,.T.);
#803 = EDGE_CURVE('',#796,#804,#806,.T.);
#804 = VERTEX_POINT('',#805);
#805 = CARTESIAN_POINT('',(4.5,-8.,8.));
#806 = LINE('',#807,#808);
#807 = CARTESIAN_POINT('',(4.5,-7.,8.));
#808 = VECTOR('',#809,1.);
#809 = DIRECTION('',(-1.224646799147E-16,-1.,0.));
#810 = ORIENTED_EDGE('',*,*,#811,.T.);
#811 = EDGE_CURVE('',#804,#738,#812,.T.);
#812 = LINE('',#813,#814);
#813 = CARTESIAN_POINT('',(4.5,-8.,8.));
#814 = VECTOR('',#815,1.);
#815 = DIRECTION('',(-1.,1.224646799147E-16,0.));
#816 = ORIENTED_EDGE('',*,*,#745,.T.);
#817 = PLANE('',#818);
#818 = AXIS2_PLACEMENT_3D('',#819,#820,#821);
#819 = CARTESIAN_POINT('',(-9.27622124262E-16,-7.574609470321,8.));
#820 = DIRECTION('',(0.,0.,1.));
#821 = DIRECTION('',(-1.,1.224646799147E-16,0.));
#822 = ADVANCED_FACE('',(#823),#841,.T.);
#823 = FACE_BOUND('',#824,.T.);
#824 = EDGE_LOOP('',(#825,#826,#834,#840));
#825 = ORIENTED_EDGE('',*,*,#230,.T.);
#826 = ORIENTED_EDGE('',*,*,#827,.T.);
#827 = EDGE_CURVE('',#223,#828,#830,.T.);
#828 = VERTEX_POINT('',#829);
#829 = CARTESIAN_POINT('',(-8.,2.75,8.));
#830 = LINE('',#831,#832);
#831 = CARTESIAN_POINT('',(-10.,2.75,8.));
#832 = VECTOR('',#833,1.);
#833 = DIRECTION('',(1.,-1.110223024625E-16,0.));
#834 = ORIENTED_EDGE('',*,*,#835,.F.);
#835 = EDGE_CURVE('',#417,#828,#836,.T.);
#836 = LINE('',#837,#838);
#837 = CARTESIAN_POINT('',(-8.,2.75,5.));
#838 = VECTOR('',#839,1.);
#839 = DIRECTION('',(0.,0.,1.));
#840 = ORIENTED_EDGE('',*,*,#416,.F.);
#841 = PLANE('',#842);
#842 = AXIS2_PLACEMENT_3D('',#843,#844,#845);
#843 = CARTESIAN_POINT('',(-10.,2.75,5.));
#844 = DIRECTION('',(1.110223024625E-16,1.,0.));
#845 = DIRECTION('',(1.,-1.110223024625E-16,0.));
#846 = ADVANCED_FACE('',(#847),#865,.T.);
#847 = FACE_BOUND('',#848,.T.);
#848 = EDGE_LOOP('',(#849,#857,#863,#864));
#849 = ORIENTED_EDGE('',*,*,#850,.T.);
#850 = EDGE_CURVE('',#473,#851,#853,.T.);
#851 = VERTEX_POINT('',#852);
#852 = CARTESIAN_POINT('',(-8.,-2.75,8.));
#853 = LINE('',#854,#855);
#854 = CARTESIAN_POINT('',(-8.,-2.75,5.));
#855 = VECTOR('',#856,1.);
#856 = DIRECTION('',(0.,0.,1.));
#857 = ORIENTED_EDGE('',*,*,#858,.T.);
#858 = EDGE_CURVE('',#851,#215,#859,.T.);
#859 = LINE('',#860,#861);
#860 = CARTESIAN_POINT('',(-8.,-2.75,8.));
#861 = VECTOR('',#862,1.);
#862 = DIRECTION('',(-1.,1.110223024625E-16,0.));
#863 = ORIENTED_EDGE('',*,*,#214,.F.);
#864 = ORIENTED_EDGE('',*,*,#480,.F.);
#865 = PLANE('',#866);
#866 = AXIS2_PLACEMENT_3D('',#867,#868,#869);
#867 = CARTESIAN_POINT('',(-8.,-2.75,5.));
#868 = DIRECTION('',(-1.110223024625E-16,-1.,0.));
#869 = DIRECTION('',(-1.,1.110223024625E-16,0.));
#870 = ADVANCED_FACE('',(#871),#930,.T.);
#871 = FACE_BOUND('',#872,.F.);
#872 = EDGE_LOOP('',(#873,#874,#875,#883,#891,#899,#907,#915,#923,#929)
  );
#873 = ORIENTED_EDGE('',*,*,#222,.T.);
#874 = ORIENTED_EDGE('',*,*,#827,.T.);
#875 = ORIENTED_EDGE('',*,*,#876,.T.);
#876 = EDGE_CURVE('',#828,#877,#879,.T.);
#877 = VERTEX_POINT('',#878);
#878 = CARTESIAN_POINT('',(-8.,4.5,8.));
#879 = LINE('',#880,#881);
#880 = CARTESIAN_POINT('',(-8.,2.75,8.));
#881 = VECTOR('',#882,1.);
#882 = DIRECTION('',(1.110223024625E-16,1.,0.));
#883 = ORIENTED_EDGE('',*,*,#884,.T.);
#884 = EDGE_CURVE('',#877,#885,#887,.T.);
#885 = VERTEX_POINT('',#886);
#886 = CARTESIAN_POINT('',(-7.,4.5,8.));
#887 = LINE('',#888,#889);
#888 = CARTESIAN_POINT('',(-8.,4.5,8.));
#889 = VECTOR('',#890,1.);
#890 = DIRECTION('',(1.,-1.110223024625E-16,0.));
#891 = ORIENTED_EDGE('',*,*,#892,.T.);
#892 = EDGE_CURVE('',#885,#893,#895,.T.);
#893 = VERTEX_POINT('',#894);
#894 = CARTESIAN_POINT('',(-5.,2.,8.));
#895 = LINE('',#896,#897);
#896 = CARTESIAN_POINT('',(-7.,4.5,8.));
#897 = VECTOR('',#898,1.);
#898 = DIRECTION('',(0.624695047554,-0.780868809443,0.));
#899 = ORIENTED_EDGE('',*,*,#900,.T.);
#900 = EDGE_CURVE('',#893,#901,#903,.T.);
#901 = VERTEX_POINT('',#902);
#902 = CARTESIAN_POINT('',(-5.,-2.,8.));
#903 = LINE('',#904,#905);
#904 = CARTESIAN_POINT('',(-5.,2.,8.));
#905 = VECTOR('',#906,1.);
#906 = DIRECTION('',(-1.110223024625E-16,-1.,0.));
#907 = ORIENTED_EDGE('',*,*,#908,.T.);
#908 = EDGE_CURVE('',#901,#909,#911,.T.);
#909 = VERTEX_POINT('',#910);
#910 = CARTESIAN_POINT('',(-7.,-4.5,8.));
#911 = LINE('',#912,#913);
#912 = CARTESIAN_POINT('',(-5.,-2.,8.));
#913 = VECTOR('',#914,1.);
#914 = DIRECTION('',(-0.624695047554,-0.780868809443,0.));
#915 = ORIENTED_EDGE('',*,*,#916,.T.);
#916 = EDGE_CURVE('',#909,#917,#919,.T.);
#917 = VERTEX_POINT('',#918);
#918 = CARTESIAN_POINT('',(-8.,-4.5,8.));
#919 = LINE('',#920,#921);
#920 = CARTESIAN_POINT('',(-7.,-4.5,8.));
#921 = VECTOR('',#922,1.);
#922 = DIRECTION('',(-1.,1.110223024625E-16,0.));
#923 = ORIENTED_EDGE('',*,*,#924,.T.);
#924 = EDGE_CURVE('',#917,#851,#925,.T.);
#925 = LINE('',#926,#927);
#926 = CARTESIAN_POINT('',(-8.,-4.5,8.));
#927 = VECTOR('',#928,1.);
#928 = DIRECTION('',(1.110223024625E-16,1.,0.));
#929 = ORIENTED_EDGE('',*,*,#858,.T.);
#930 = PLANE('',#931);
#931 = AXIS2_PLACEMENT_3D('',#932,#933,#934);
#932 = CARTESIAN_POINT('',(-7.574609470321,8.409505836494E-16,8.));
#933 = DIRECTION('',(0.,0.,1.));
#934 = DIRECTION('',(1.110223024625E-16,1.,0.));
#935 = ADVANCED_FACE('',(#936),#954,.T.);
#936 = FACE_BOUND('',#937,.T.);
#937 = EDGE_LOOP('',(#938,#939,#947,#953));
#938 = ORIENTED_EDGE('',*,*,#293,.T.);
#939 = ORIENTED_EDGE('',*,*,#940,.T.);
#940 = EDGE_CURVE('',#286,#941,#943,.T.);
#941 = VERTEX_POINT('',#942);
#942 = CARTESIAN_POINT('',(8.,-2.75,8.));
#943 = LINE('',#944,#945);
#944 = CARTESIAN_POINT('',(10.,-2.75,8.));
#945 = VECTOR('',#946,1.);
#946 = DIRECTION('',(-1.,2.22044604925E-16,0.));
#947 = ORIENTED_EDGE('',*,*,#948,.F.);
#948 = EDGE_CURVE('',#563,#941,#949,.T.);
#949 = LINE('',#950,#951);
#950 = CARTESIAN_POINT('',(8.,-2.75,5.));
#951 = VECTOR('',#952,1.);
#952 = DIRECTION('',(0.,0.,1.));
#953 = ORIENTED_EDGE('',*,*,#562,.F.);
#954 = PLANE('',#955);
#955 = AXIS2_PLACEMENT_3D('',#956,#957,#958);
#956 = CARTESIAN_POINT('',(10.,-2.75,5.));
#957 = DIRECTION('',(-2.22044604925E-16,-1.,0.));
#958 = DIRECTION('',(-1.,2.22044604925E-16,0.));
#959 = ADVANCED_FACE('',(#960),#978,.T.);
#960 = FACE_BOUND('',#961,.T.);
#961 = EDGE_LOOP('',(#962,#970,#976,#977));
#962 = ORIENTED_EDGE('',*,*,#963,.T.);
#963 = EDGE_CURVE('',#619,#964,#966,.T.);
#964 = VERTEX_POINT('',#965);
#965 = CARTESIAN_POINT('',(8.,2.75,8.));
#966 = LINE('',#967,#968);
#967 = CARTESIAN_POINT('',(8.,2.75,5.));
#968 = VECTOR('',#969,1.);
#969 = DIRECTION('',(0.,0.,1.));
#970 = ORIENTED_EDGE('',*,*,#971,.T.);
#971 = EDGE_CURVE('',#964,#278,#972,.T.);
#972 = LINE('',#973,#974);
#973 = CARTESIAN_POINT('',(8.,2.75,8.));
#974 = VECTOR('',#975,1.);
#975 = DIRECTION('',(1.,-2.22044604925E-16,0.));
#976 = ORIENTED_EDGE('',*,*,#277,.F.);
#977 = ORIENTED_EDGE('',*,*,#626,.F.);
#978 = PLANE('',#979);
#979 = AXIS2_PLACEMENT_3D('',#980,#981,#982);
#980 = CARTESIAN_POINT('',(8.,2.75,5.));
#981 = DIRECTION('',(2.22044604925E-16,1.,0.));
#982 = DIRECTION('',(1.,-2.22044604925E-16,0.));
#983 = ADVANCED_FACE('',(#984),#1043,.T.);
#984 = FACE_BOUND('',#985,.F.);
#985 = EDGE_LOOP('',(#986,#987,#988,#996,#1004,#1012,#1020,#1028,#1036,
    #1042));
#986 = ORIENTED_EDGE('',*,*,#285,.T.);
#987 = ORIENTED_EDGE('',*,*,#940,.T.);
#988 = ORIENTED_EDGE('',*,*,#989,.T.);
#989 = EDGE_CURVE('',#941,#990,#992,.T.);
#990 = VERTEX_POINT('',#991);
#991 = CARTESIAN_POINT('',(8.,-4.5,8.));
#992 = LINE('',#993,#994);
#993 = CARTESIAN_POINT('',(8.,-2.75,8.));
#994 = VECTOR('',#995,1.);
#995 = DIRECTION('',(-2.22044604925E-16,-1.,0.));
#996 = ORIENTED_EDGE('',*,*,#997,.T.);
#997 = EDGE_CURVE('',#990,#998,#1000,.T.);
#998 = VERTEX_POINT('',#999);
#999 = CARTESIAN_POINT('',(7.,-4.5,8.));
#1000 = LINE('',#1001,#1002);
#1001 = CARTESIAN_POINT('',(8.,-4.5,8.));
#1002 = VECTOR('',#1003,1.);
#1003 = DIRECTION('',(-1.,2.22044604925E-16,0.));
#1004 = ORIENTED_EDGE('',*,*,#1005,.T.);
#1005 = EDGE_CURVE('',#998,#1006,#1008,.T.);
#1006 = VERTEX_POINT('',#1007);
#1007 = CARTESIAN_POINT('',(5.,-2.,8.));
#1008 = LINE('',#1009,#1010);
#1009 = CARTESIAN_POINT('',(7.,-4.5,8.));
#1010 = VECTOR('',#1011,1.);
#1011 = DIRECTION('',(-0.624695047554,0.780868809443,0.));
#1012 = ORIENTED_EDGE('',*,*,#1013,.T.);
#1013 = EDGE_CURVE('',#1006,#1014,#1016,.T.);
#1014 = VERTEX_POINT('',#1015);
#1015 = CARTESIAN_POINT('',(5.,2.,8.));
#1016 = LINE('',#1017,#1018);
#1017 = CARTESIAN_POINT('',(5.,-2.,8.));
#1018 = VECTOR('',#1019,1.);
#1019 = DIRECTION('',(2.22044604925E-16,1.,0.));
#1020 = ORIENTED_EDGE('',*,*,#1021,.T.);
#1021 = EDGE_CURVE('',#1014,#1022,#1024,.T.);
#1022 = VERTEX_POINT('',#1023);
#1023 = CARTESIAN_POINT('',(7.,4.5,8.));
#1024 = LINE('',#1025,#1026);
#1025 = CARTESIAN_POINT('',(5.,2.,8.));
#1026 = VECTOR('',#1027,1.);
#1027 = DIRECTION('',(0.624695047554,0.780868809443,0.));
#1028 = ORIENTED_EDGE('',*,*,#1029,.T.);
#1029 = EDGE_CURVE('',#1022,#1030,#1032,.T.);
#1030 = VERTEX_POINT('',#1031);
#1031 = CARTESIAN_POINT('',(8.,4.5,8.));
#1032 = LINE('',#1033,#1034);
#1033 = CARTESIAN_POINT('',(7.,4.5,8.));
#1034 = VECTOR('',#1035,1.);
#1035 = DIRECTION('',(1.,-2.22044604925E-16,0.));
#1036 = ORIENTED_EDGE('',*,*,#1037,.T.);
#1037 = EDGE_CURVE('',#1030,#964,#1038,.T.);
#1038 = LINE('',#1039,#1040);
#1039 = CARTESIAN_POINT('',(8.,4.5,8.));
#1040 = VECTOR('',#1041,1.);
#1041 = DIRECTION('',(-2.22044604925E-16,-1.,0.));
#1042 = ORIENTED_EDGE('',*,*,#971,.T.);
#1043 = PLANE('',#1044);
#1044 = AXIS2_PLACEMENT_3D('',#1045,#1046,#1047);
#1045 = CARTESIAN_POINT('',(7.574609470321,-1.681901167299E-15,8.));
#1046 = DIRECTION('',(0.,0.,1.));
#1047 = DIRECTION('',(-2.22044604925E-16,-1.,0.));
#1048 = ADVANCED_FACE('',(#1049),#1067,.T.);
#1049 = FACE_BOUND('',#1050,.T.);
#1050 = EDGE_LOOP('',(#1051,#1052,#1060,#1066));
#1051 = ORIENTED_EDGE('',*,*,#390,.T.);
#1052 = ORIENTED_EDGE('',*,*,#1053,.T.);
#1053 = EDGE_CURVE('',#383,#1054,#1056,.T.);
#1054 = VERTEX_POINT('',#1055);
#1055 = CARTESIAN_POINT('',(2.75,8.,8.));
#1056 = LINE('',#1057,#1058);
#1057 = CARTESIAN_POINT('',(2.75,10.,8.));
#1058 = VECTOR('',#1059,1.);
#1059 = DIRECTION('',(0.,-1.,0.));
#1060 = ORIENTED_EDGE('',*,*,#1061,.F.);
#1061 = EDGE_CURVE('',#636,#1054,#1062,.T.);
#1062 = LINE('',#1063,#1064);
#1063 = CARTESIAN_POINT('',(2.75,8.,5.));
#1064 = VECTOR('',#1065,1.);
#1065 = DIRECTION('',(0.,0.,1.));
#1066 = ORIENTED_EDGE('',*,*,#635,.F.);
#1067 = PLANE('',#1068);
#1068 = AXIS2_PLACEMENT_3D('',#1069,#1070,#1071);
#1069 = CARTESIAN_POINT('',(2.75,10.,5.));
#1070 = DIRECTION('',(1.,0.,0.));
#1071 = DIRECTION('',(0.,-1.,0.));
#1072 = ADVANCED_FACE('',(#1073),#1091,.T.);
#1073 = FACE_BOUND('',#1074,.T.);
#1074 = EDGE_LOOP('',(#1075,#1083,#1089,#1090));
#1075 = ORIENTED_EDGE('',*,*,#1076,.T.);
#1076 = EDGE_CURVE('',#692,#1077,#1079,.T.);
#1077 = VERTEX_POINT('',#1078);
#1078 = CARTESIAN_POINT('',(-2.75,8.,8.));
#1079 = LINE('',#1080,#1081);
#1080 = CARTESIAN_POINT('',(-2.75,8.,5.));
#1081 = VECTOR('',#1082,1.);
#1082 = DIRECTION('',(0.,0.,1.));
#1083 = ORIENTED_EDGE('',*,*,#1084,.T.);
#1084 = EDGE_CURVE('',#1077,#375,#1085,.T.);
#1085 = LINE('',#1086,#1087);
#1086 = CARTESIAN_POINT('',(-2.75,8.,8.));
#1087 = VECTOR('',#1088,1.);
#1088 = DIRECTION('',(0.,1.,0.));
#1089 = ORIENTED_EDGE('',*,*,#374,.F.);
#1090 = ORIENTED_EDGE('',*,*,#699,.F.);
#1091 = PLANE('',#1092);
#1092 = AXIS2_PLACEMENT_3D('',#1093,#1094,#1095);
#1093 = CARTESIAN_POINT('',(-2.75,8.,5.));
#1094 = DIRECTION('',(-1.,0.,0.));
#1095 = DIRECTION('',(0.,1.,0.));
#1096 = ADVANCED_FACE('',(#1097),#1156,.T.);
#1097 = FACE_BOUND('',#1098,.F.);
#1098 = EDGE_LOOP('',(#1099,#1100,#1101,#1109,#1117,#1125,#1133,#1141,
    #1149,#1155));
#1099 = ORIENTED_EDGE('',*,*,#382,.T.);
#1100 = ORIENTED_EDGE('',*,*,#1053,.T.);
#1101 = ORIENTED_EDGE('',*,*,#1102,.T.);
#1102 = EDGE_CURVE('',#1054,#1103,#1105,.T.);
#1103 = VERTEX_POINT('',#1104);
#1104 = CARTESIAN_POINT('',(4.5,8.,8.));
#1105 = LINE('',#1106,#1107);
#1106 = CARTESIAN_POINT('',(2.75,8.,8.));
#1107 = VECTOR('',#1108,1.);
#1108 = DIRECTION('',(1.,0.,0.));
#1109 = ORIENTED_EDGE('',*,*,#1110,.T.);
#1110 = EDGE_CURVE('',#1103,#1111,#1113,.T.);
#1111 = VERTEX_POINT('',#1112);
#1112 = CARTESIAN_POINT('',(4.5,7.,8.));
#1113 = LINE('',#1114,#1115);
#1114 = CARTESIAN_POINT('',(4.5,8.,8.));
#1115 = VECTOR('',#1116,1.);
#1116 = DIRECTION('',(0.,-1.,0.));
#1117 = ORIENTED_EDGE('',*,*,#1118,.T.);
#1118 = EDGE_CURVE('',#1111,#1119,#1121,.T.);
#1119 = VERTEX_POINT('',#1120);
#1120 = CARTESIAN_POINT('',(2.,5.,8.));
#1121 = LINE('',#1122,#1123);
#1122 = CARTESIAN_POINT('',(4.5,7.,8.));
#1123 = VECTOR('',#1124,1.);
#1124 = DIRECTION('',(-0.780868809443,-0.624695047554,0.));
#1125 = ORIENTED_EDGE('',*,*,#1126,.T.);
#1126 = EDGE_CURVE('',#1119,#1127,#1129,.T.);
#1127 = VERTEX_POINT('',#1128);
#1128 = CARTESIAN_POINT('',(-2.,5.,8.));
#1129 = LINE('',#1130,#1131);
#1130 = CARTESIAN_POINT('',(2.,5.,8.));
#1131 = VECTOR('',#1132,1.);
#1132 = DIRECTION('',(-1.,0.,0.));
#1133 = ORIENTED_EDGE('',*,*,#1134,.T.);
#1134 = EDGE_CURVE('',#1127,#1135,#1137,.T.);
#1135 = VERTEX_POINT('',#1136);
#1136 = CARTESIAN_POINT('',(-4.5,7.,8.));
#1137 = LINE('',#1138,#1139);
#1138 = CARTESIAN_POINT('',(-2.,5.,8.));
#1139 = VECTOR('',#1140,1.);
#1140 = DIRECTION('',(-0.780868809443,0.624695047554,0.));
#1141 = ORIENTED_EDGE('',*,*,#1142,.T.);
#1142 = EDGE_CURVE('',#1135,#1143,#1145,.T.);
#1143 = VERTEX_POINT('',#1144);
#1144 = CARTESIAN_POINT('',(-4.5,8.,8.));
#1145 = LINE('',#1146,#1147);
#1146 = CARTESIAN_POINT('',(-4.5,7.,8.));
#1147 = VECTOR('',#1148,1.);
#1148 = DIRECTION('',(0.,1.,0.));
#1149 = ORIENTED_EDGE('',*,*,#1150,.T.);
#1150 = EDGE_CURVE('',#1143,#1077,#1151,.T.);
#1151 = LINE('',#1152,#1153);
#1152 = CARTESIAN_POINT('',(-4.5,8.,8.));
#1153 = VECTOR('',#1154,1.);
#1154 = DIRECTION('',(1.,0.,0.));
#1155 = ORIENTED_EDGE('',*,*,#1084,.T.);
#1156 = PLANE('',#1157);
#1157 = AXIS2_PLACEMENT_3D('',#1158,#1159,#1160);
#1158 = CARTESIAN_POINT('',(0.,7.574609470321,8.));
#1159 = DIRECTION('',(0.,0.,1.));
#1160 = DIRECTION('',(1.,0.,0.));
#1161 = ADVANCED_FACE('',(#1162),#1173,.T.);
#1162 = FACE_BOUND('',#1163,.T.);
#1163 = EDGE_LOOP('',(#1164,#1170,#1171,#1172));
#1164 = ORIENTED_EDGE('',*,*,#1165,.T.);
#1165 = EDGE_CURVE('',#684,#1143,#1166,.T.);
#1166 = LINE('',#1167,#1168);
#1167 = CARTESIAN_POINT('',(-4.5,8.,5.));
#1168 = VECTOR('',#1169,1.);
#1169 = DIRECTION('',(0.,0.,1.));
#1170 = ORIENTED_EDGE('',*,*,#1150,.T.);
#1171 = ORIENTED_EDGE('',*,*,#1076,.F.);
#1172 = ORIENTED_EDGE('',*,*,#691,.F.);
#1173 = PLANE('',#1174);
#1174 = AXIS2_PLACEMENT_3D('',#1175,#1176,#1177);
#1175 = CARTESIAN_POINT('',(-4.5,8.,5.));
#1176 = DIRECTION('',(0.,1.,0.));
#1177 = DIRECTION('',(1.,0.,0.));
#1178 = ADVANCED_FACE('',(#1179),#1190,.T.);
#1179 = FACE_BOUND('',#1180,.T.);
#1180 = EDGE_LOOP('',(#1181,#1187,#1188,#1189));
#1181 = ORIENTED_EDGE('',*,*,#1182,.T.);
#1182 = EDGE_CURVE('',#676,#1135,#1183,.T.);
#1183 = LINE('',#1184,#1185);
#1184 = CARTESIAN_POINT('',(-4.5,7.,5.));
#1185 = VECTOR('',#1186,1.);
#1186 = DIRECTION('',(0.,0.,1.));
#1187 = ORIENTED_EDGE('',*,*,#1142,.T.);
#1188 = ORIENTED_EDGE('',*,*,#1165,.F.);
#1189 = ORIENTED_EDGE('',*,*,#683,.F.);
#1190 = PLANE('',#1191);
#1191 = AXIS2_PLACEMENT_3D('',#1192,#1193,#1194);
#1192 = CARTESIAN_POINT('',(-4.5,7.,5.));
#1193 = DIRECTION('',(-1.,0.,0.));
#1194 = DIRECTION('',(0.,1.,0.));
#1195 = ADVANCED_FACE('',(#1196),#1207,.T.);
#1196 = FACE_BOUND('',#1197,.T.);
#1197 = EDGE_LOOP('',(#1198,#1199,#1200,#1206));
#1198 = ORIENTED_EDGE('',*,*,#835,.T.);
#1199 = ORIENTED_EDGE('',*,*,#876,.T.);
#1200 = ORIENTED_EDGE('',*,*,#1201,.F.);
#1201 = EDGE_CURVE('',#425,#877,#1202,.T.);
#1202 = LINE('',#1203,#1204);
#1203 = CARTESIAN_POINT('',(-8.,4.5,5.));
#1204 = VECTOR('',#1205,1.);
#1205 = DIRECTION('',(0.,0.,1.));
#1206 = ORIENTED_EDGE('',*,*,#424,.F.);
#1207 = PLANE('',#1208);
#1208 = AXIS2_PLACEMENT_3D('',#1209,#1210,#1211);
#1209 = CARTESIAN_POINT('',(-8.,2.75,5.));
#1210 = DIRECTION('',(-1.,1.110223024625E-16,0.));
#1211 = DIRECTION('',(1.110223024625E-16,1.,0.));
#1212 = ADVANCED_FACE('',(#1213),#1224,.T.);
#1213 = FACE_BOUND('',#1214,.T.);
#1214 = EDGE_LOOP('',(#1215,#1221,#1222,#1223));
#1215 = ORIENTED_EDGE('',*,*,#1216,.T.);
#1216 = EDGE_CURVE('',#668,#1127,#1217,.T.);
#1217 = LINE('',#1218,#1219);
#1218 = CARTESIAN_POINT('',(-2.,5.,5.));
#1219 = VECTOR('',#1220,1.);
#1220 = DIRECTION('',(0.,0.,1.));
#1221 = ORIENTED_EDGE('',*,*,#1134,.T.);
#1222 = ORIENTED_EDGE('',*,*,#1182,.F.);
#1223 = ORIENTED_EDGE('',*,*,#675,.F.);
#1224 = PLANE('',#1225);
#1225 = AXIS2_PLACEMENT_3D('',#1226,#1227,#1228);
#1226 = CARTESIAN_POINT('',(-2.,5.,5.));
#1227 = DIRECTION('',(-0.624695047554,-0.780868809443,0.));
#1228 = DIRECTION('',(-0.780868809443,0.624695047554,0.));
#1229 = ADVANCED_FACE('',(#1230),#1241,.T.);
#1230 = FACE_BOUND('',#1231,.T.);
#1231 = EDGE_LOOP('',(#1232,#1233,#1234,#1240));
#1232 = ORIENTED_EDGE('',*,*,#1201,.T.);
#1233 = ORIENTED_EDGE('',*,*,#884,.T.);
#1234 = ORIENTED_EDGE('',*,*,#1235,.F.);
#1235 = EDGE_CURVE('',#433,#885,#1236,.T.);
#1236 = LINE('',#1237,#1238);
#1237 = CARTESIAN_POINT('',(-7.,4.5,5.));
#1238 = VECTOR('',#1239,1.);
#1239 = DIRECTION('',(0.,0.,1.));
#1240 = ORIENTED_EDGE('',*,*,#432,.F.);
#1241 = PLANE('',#1242);
#1242 = AXIS2_PLACEMENT_3D('',#1243,#1244,#1245);
#1243 = CARTESIAN_POINT('',(-8.,4.5,5.));
#1244 = DIRECTION('',(1.110223024625E-16,1.,0.));
#1245 = DIRECTION('',(1.,-1.110223024625E-16,0.));
#1246 = ADVANCED_FACE('',(#1247),#1258,.T.);
#1247 = FACE_BOUND('',#1248,.T.);
#1248 = EDGE_LOOP('',(#1249,#1255,#1256,#1257));
#1249 = ORIENTED_EDGE('',*,*,#1250,.T.);
#1250 = EDGE_CURVE('',#660,#1119,#1251,.T.);
#1251 = LINE('',#1252,#1253);
#1252 = CARTESIAN_POINT('',(2.,5.,5.));
#1253 = VECTOR('',#1254,1.);
#1254 = DIRECTION('',(0.,0.,1.));
#1255 = ORIENTED_EDGE('',*,*,#1126,.T.);
#1256 = ORIENTED_EDGE('',*,*,#1216,.F.);
#1257 = ORIENTED_EDGE('',*,*,#667,.F.);
#1258 = PLANE('',#1259);
#1259 = AXIS2_PLACEMENT_3D('',#1260,#1261,#1262);
#1260 = CARTESIAN_POINT('',(2.,5.,5.));
#1261 = DIRECTION('',(0.,-1.,0.));
#1262 = DIRECTION('',(-1.,0.,0.));
#1263 = ADVANCED_FACE('',(#1264),#1275,.T.);
#1264 = FACE_BOUND('',#1265,.T.);
#1265 = EDGE_LOOP('',(#1266,#1267,#1268,#1274));
#1266 = ORIENTED_EDGE('',*,*,#1235,.T.);
#1267 = ORIENTED_EDGE('',*,*,#892,.T.);
#1268 = ORIENTED_EDGE('',*,*,#1269,.F.);
#1269 = EDGE_CURVE('',#441,#893,#1270,.T.);
#1270 = LINE('',#1271,#1272);
#1271 = CARTESIAN_POINT('',(-5.,2.,5.));
#1272 = VECTOR('',#1273,1.);
#1273 = DIRECTION('',(0.,0.,1.));
#1274 = ORIENTED_EDGE('',*,*,#440,.F.);
#1275 = PLANE('',#1276);
#1276 = AXIS2_PLACEMENT_3D('',#1277,#1278,#1279);
#1277 = CARTESIAN_POINT('',(-7.,4.5,5.));
#1278 = DIRECTION('',(0.780868809443,0.624695047554,0.));
#1279 = DIRECTION('',(0.624695047554,-0.780868809443,0.));
#1280 = ADVANCED_FACE('',(#1281),#1292,.T.);
#1281 = FACE_BOUND('',#1282,.T.);
#1282 = EDGE_LOOP('',(#1283,#1289,#1290,#1291));
#1283 = ORIENTED_EDGE('',*,*,#1284,.T.);
#1284 = EDGE_CURVE('',#652,#1111,#1285,.T.);
#1285 = LINE('',#1286,#1287);
#1286 = CARTESIAN_POINT('',(4.5,7.,5.));
#1287 = VECTOR('',#1288,1.);
#1288 = DIRECTION('',(0.,0.,1.));
#1289 = ORIENTED_EDGE('',*,*,#1118,.T.);
#1290 = ORIENTED_EDGE('',*,*,#1250,.F.);
#1291 = ORIENTED_EDGE('',*,*,#659,.F.);
#1292 = PLANE('',#1293);
#1293 = AXIS2_PLACEMENT_3D('',#1294,#1295,#1296);
#1294 = CARTESIAN_POINT('',(4.5,7.,5.));
#1295 = DIRECTION('',(0.624695047554,-0.780868809443,0.));
#1296 = DIRECTION('',(-0.780868809443,-0.624695047554,0.));
#1297 = ADVANCED_FACE('',(#1298),#1309,.T.);
#1298 = FACE_BOUND('',#1299,.T.);
#1299 = EDGE_LOOP('',(#1300,#1301,#1302,#1308));
#1300 = ORIENTED_EDGE('',*,*,#1269,.T.);
#1301 = ORIENTED_EDGE('',*,*,#900,.T.);
#1302 = ORIENTED_EDGE('',*,*,#1303,.F.);
#1303 = EDGE_CURVE('',#449,#901,#1304,.T.);
#1304 = LINE('',#1305,#1306);
#1305 = CARTESIAN_POINT('',(-5.,-2.,5.));
#1306 = VECTOR('',#1307,1.);
#1307 = DIRECTION('',(0.,0.,1.));
#1308 = ORIENTED_EDGE('',*,*,#448,.F.);
#1309 = PLANE('',#1310);
#1310 = AXIS2_PLACEMENT_3D('',#1311,#1312,#1313);
#1311 = CARTESIAN_POINT('',(-5.,2.,5.));
#1312 = DIRECTION('',(1.,-1.110223024625E-16,0.));
#1313 = DIRECTION('',(-1.110223024625E-16,-1.,0.));
#1314 = ADVANCED_FACE('',(#1315),#1326,.T.);
#1315 = FACE_BOUND('',#1316,.T.);
#1316 = EDGE_LOOP('',(#1317,#1323,#1324,#1325));
#1317 = ORIENTED_EDGE('',*,*,#1318,.T.);
#1318 = EDGE_CURVE('',#644,#1103,#1319,.T.);
#1319 = LINE('',#1320,#1321);
#1320 = CARTESIAN_POINT('',(4.5,8.,5.));
#1321 = VECTOR('',#1322,1.);
#1322 = DIRECTION('',(0.,0.,1.));
#1323 = ORIENTED_EDGE('',*,*,#1110,.T.);
#1324 = ORIENTED_EDGE('',*,*,#1284,.F.);
#1325 = ORIENTED_EDGE('',*,*,#651,.F.);
#1326 = PLANE('',#1327);
#1327 = AXIS2_PLACEMENT_3D('',#1328,#1329,#1330);
#1328 = CARTESIAN_POINT('',(4.5,8.,5.));
#1329 = DIRECTION('',(1.,0.,0.));
#1330 = DIRECTION('',(0.,-1.,0.));
#1331 = ADVANCED_FACE('',(#1332),#1343,.T.);
#1332 = FACE_BOUND('',#1333,.T.);
#1333 = EDGE_LOOP('',(#1334,#1335,#1336,#1342));
#1334 = ORIENTED_EDGE('',*,*,#1303,.T.);
#1335 = ORIENTED_EDGE('',*,*,#908,.T.);
#1336 = ORIENTED_EDGE('',*,*,#1337,.F.);
#1337 = EDGE_CURVE('',#457,#909,#1338,.T.);
#1338 = LINE('',#1339,#1340);
#1339 = CARTESIAN_POINT('',(-7.,-4.5,5.));
#1340 = VECTOR('',#1341,1.);
#1341 = DIRECTION('',(0.,0.,1.));
#1342 = ORIENTED_EDGE('',*,*,#456,.F.);
#1343 = PLANE('',#1344);
#1344 = AXIS2_PLACEMENT_3D('',#1345,#1346,#1347);
#1345 = CARTESIAN_POINT('',(-5.,-2.,5.));
#1346 = DIRECTION('',(0.780868809443,-0.624695047554,0.));
#1347 = DIRECTION('',(-0.624695047554,-0.780868809443,0.));
#1348 = ADVANCED_FACE('',(#1349),#1355,.T.);
#1349 = FACE_BOUND('',#1350,.T.);
#1350 = EDGE_LOOP('',(#1351,#1352,#1353,#1354));
#1351 = ORIENTED_EDGE('',*,*,#1061,.T.);
#1352 = ORIENTED_EDGE('',*,*,#1102,.T.);
#1353 = ORIENTED_EDGE('',*,*,#1318,.F.);
#1354 = ORIENTED_EDGE('',*,*,#643,.F.);
#1355 = PLANE('',#1356);
#1356 = AXIS2_PLACEMENT_3D('',#1357,#1358,#1359);
#1357 = CARTESIAN_POINT('',(2.75,8.,5.));
#1358 = DIRECTION('',(0.,1.,0.));
#1359 = DIRECTION('',(1.,0.,0.));
#1360 = ADVANCED_FACE('',(#1361),#1372,.T.);
#1361 = FACE_BOUND('',#1362,.T.);
#1362 = EDGE_LOOP('',(#1363,#1364,#1365,#1371));
#1363 = ORIENTED_EDGE('',*,*,#1337,.T.);
#1364 = ORIENTED_EDGE('',*,*,#916,.T.);
#1365 = ORIENTED_EDGE('',*,*,#1366,.F.);
#1366 = EDGE_CURVE('',#465,#917,#1367,.T.);
#1367 = LINE('',#1368,#1369);
#1368 = CARTESIAN_POINT('',(-8.,-4.5,5.));
#1369 = VECTOR('',#1370,1.);
#1370 = DIRECTION('',(0.,0.,1.));
#1371 = ORIENTED_EDGE('',*,*,#464,.F.);
#1372 = PLANE('',#1373);
#1373 = AXIS2_PLACEMENT_3D('',#1374,#1375,#1376);
#1374 = CARTESIAN_POINT('',(-7.,-4.5,5.));
#1375 = DIRECTION('',(-1.110223024625E-16,-1.,0.));
#1376 = DIRECTION('',(-1.,1.110223024625E-16,0.));
#1377 = ADVANCED_FACE('',(#1378),#1384,.T.);
#1378 = FACE_BOUND('',#1379,.T.);
#1379 = EDGE_LOOP('',(#1380,#1381,#1382,#1383));
#1380 = ORIENTED_EDGE('',*,*,#1366,.T.);
#1381 = ORIENTED_EDGE('',*,*,#924,.T.);
#1382 = ORIENTED_EDGE('',*,*,#850,.F.);
#1383 = ORIENTED_EDGE('',*,*,#472,.F.);
#1384 = PLANE('',#1385);
#1385 = AXIS2_PLACEMENT_3D('',#1386,#1387,#1388);
#1386 = CARTESIAN_POINT('',(-8.,-4.5,5.));
#1387 = DIRECTION('',(-1.,1.110223024625E-16,0.));
#1388 = DIRECTION('',(1.110223024625E-16,1.,0.));
#1389 = ADVANCED_FACE('',(#1390),#1401,.T.);
#1390 = FACE_BOUND('',#1391,.T.);
#1391 = EDGE_LOOP('',(#1392,#1398,#1399,#1400));
#1392 = ORIENTED_EDGE('',*,*,#1393,.T.);
#1393 = EDGE_CURVE('',#611,#1030,#1394,.T.);
#1394 = LINE('',#1395,#1396);
#1395 = CARTESIAN_POINT('',(8.,4.5,5.));
#1396 = VECTOR('',#1397,1.);
#1397 = DIRECTION('',(0.,0.,1.));
#1398 = ORIENTED_EDGE('',*,*,#1037,.T.);
#1399 = ORIENTED_EDGE('',*,*,#963,.F.);
#1400 = ORIENTED_EDGE('',*,*,#618,.F.);
#1401 = PLANE('',#1402);
#1402 = AXIS2_PLACEMENT_3D('',#1403,#1404,#1405);
#1403 = CARTESIAN_POINT('',(8.,4.5,5.));
#1404 = DIRECTION('',(1.,-2.22044604925E-16,0.));
#1405 = DIRECTION('',(-2.22044604925E-16,-1.,0.));
#1406 = ADVANCED_FACE('',(#1407),#1418,.T.);
#1407 = FACE_BOUND('',#1408,.T.);
#1408 = EDGE_LOOP('',(#1409,#1415,#1416,#1417));
#1409 = ORIENTED_EDGE('',*,*,#1410,.T.);
#1410 = EDGE_CURVE('',#603,#1022,#1411,.T.);
#1411 = LINE('',#1412,#1413);
#1412 = CARTESIAN_POINT('',(7.,4.5,5.));
#1413 = VECTOR('',#1414,1.);
#1414 = DIRECTION('',(0.,0.,1.));
#1415 = ORIENTED_EDGE('',*,*,#1029,.T.);
#1416 = ORIENTED_EDGE('',*,*,#1393,.F.);
#1417 = ORIENTED_EDGE('',*,*,#610,.F.);
#1418 = PLANE('',#1419);
#1419 = AXIS2_PLACEMENT_3D('',#1420,#1421,#1422);
#1420 = CARTESIAN_POINT('',(7.,4.5,5.));
#1421 = DIRECTION('',(2.22044604925E-16,1.,0.));
#1422 = DIRECTION('',(1.,-2.22044604925E-16,0.));
#1423 = ADVANCED_FACE('',(#1424),#1435,.T.);
#1424 = FACE_BOUND('',#1425,.T.);
#1425 = EDGE_LOOP('',(#1426,#1427,#1428,#1434));
#1426 = ORIENTED_EDGE('',*,*,#722,.T.);
#1427 = ORIENTED_EDGE('',*,*,#763,.T.);
#1428 = ORIENTED_EDGE('',*,*,#1429,.F.);
#1429 = EDGE_CURVE('',#498,#764,#1430,.T.);
#1430 = LINE('',#1431,#1432);
#1431 = CARTESIAN_POINT('',(-4.5,-8.,5.));
#1432 = VECTOR('',#1433,1.);
#1433 = DIRECTION('',(0.,0.,1.));
#1434 = ORIENTED_EDGE('',*,*,#497,.F.);
#1435 = PLANE('',#1436);
#1436 = AXIS2_PLACEMENT_3D('',#1437,#1438,#1439);
#1437 = CARTESIAN_POINT('',(-2.75,-8.,5.));
#1438 = DIRECTION('',(-1.224646799147E-16,-1.,0.));
#1439 = DIRECTION('',(-1.,1.224646799147E-16,0.));
#1440 = ADVANCED_FACE('',(#1441),#1452,.T.);
#1441 = FACE_BOUND('',#1442,.T.);
#1442 = EDGE_LOOP('',(#1443,#1449,#1450,#1451));
#1443 = ORIENTED_EDGE('',*,*,#1444,.T.);
#1444 = EDGE_CURVE('',#595,#1014,#1445,.T.);
#1445 = LINE('',#1446,#1447);
#1446 = CARTESIAN_POINT('',(5.,2.,5.));
#1447 = VECTOR('',#1448,1.);
#1448 = DIRECTION('',(0.,0.,1.));
#1449 = ORIENTED_EDGE('',*,*,#1021,.T.);
#1450 = ORIENTED_EDGE('',*,*,#1410,.F.);
#1451 = ORIENTED_EDGE('',*,*,#602,.F.);
#1452 = PLANE('',#1453);
#1453 = AXIS2_PLACEMENT_3D('',#1454,#1455,#1456);
#1454 = CARTESIAN_POINT('',(5.,2.,5.));
#1455 = DIRECTION('',(-0.780868809443,0.624695047554,0.));
#1456 = DIRECTION('',(0.624695047554,0.780868809443,0.));
#1457 = ADVANCED_FACE('',(#1458),#1469,.T.);
#1458 = FACE_BOUND('',#1459,.T.);
#1459 = EDGE_LOOP('',(#1460,#1461,#1462,#1468));
#1460 = ORIENTED_EDGE('',*,*,#1429,.T.);
#1461 = ORIENTED_EDGE('',*,*,#771,.T.);
#1462 = ORIENTED_EDGE('',*,*,#1463,.F.);
#1463 = EDGE_CURVE('',#506,#772,#1464,.T.);
#1464 = LINE('',#1465,#1466);
#1465 = CARTESIAN_POINT('',(-4.5,-7.,5.));
#1466 = VECTOR('',#1467,1.);
#1467 = DIRECTION('',(0.,0.,1.));
#1468 = ORIENTED_EDGE('',*,*,#505,.F.);
#1469 = PLANE('',#1470);
#1470 = AXIS2_PLACEMENT_3D('',#1471,#1472,#1473);
#1471 = CARTESIAN_POINT('',(-4.5,-8.,5.));
#1472 = DIRECTION('',(-1.,1.224646799147E-16,0.));
#1473 = DIRECTION('',(1.224646799147E-16,1.,0.));
#1474 = ADVANCED_FACE('',(#1475),#1486,.T.);
#1475 = FACE_BOUND('',#1476,.T.);
#1476 = EDGE_LOOP('',(#1477,#1483,#1484,#1485));
#1477 = ORIENTED_EDGE('',*,*,#1478,.T.);
#1478 = EDGE_CURVE('',#587,#1006,#1479,.T.);
#1479 = LINE('',#1480,#1481);
#1480 = CARTESIAN_POINT('',(5.,-2.,5.));
#1481 = VECTOR('',#1482,1.);
#1482 = DIRECTION('',(0.,0.,1.));
#1483 = ORIENTED_EDGE('',*,*,#1013,.T.);
#1484 = ORIENTED_EDGE('',*,*,#1444,.F.);
#1485 = ORIENTED_EDGE('',*,*,#594,.F.);
#1486 = PLANE('',#1487);
#1487 = AXIS2_PLACEMENT_3D('',#1488,#1489,#1490);
#1488 = CARTESIAN_POINT('',(5.,-2.,5.));
#1489 = DIRECTION('',(-1.,2.22044604925E-16,0.));
#1490 = DIRECTION('',(2.22044604925E-16,1.,0.));
#1491 = ADVANCED_FACE('',(#1492),#1503,.T.);
#1492 = FACE_BOUND('',#1493,.T.);
#1493 = EDGE_LOOP('',(#1494,#1495,#1496,#1502));
#1494 = ORIENTED_EDGE('',*,*,#1463,.T.);
#1495 = ORIENTED_EDGE('',*,*,#779,.T.);
#1496 = ORIENTED_EDGE('',*,*,#1497,.F.);
#1497 = EDGE_CURVE('',#514,#780,#1498,.T.);
#1498 = LINE('',#1499,#1500);
#1499 = CARTESIAN_POINT('',(-2.,-5.,5.));
#1500 = VECTOR('',#1501,1.);
#1501 = DIRECTION('',(0.,0.,1.));
#1502 = ORIENTED_EDGE('',*,*,#513,.F.);
#1503 = PLANE('',#1504);
#1504 = AXIS2_PLACEMENT_3D('',#1505,#1506,#1507);
#1505 = CARTESIAN_POINT('',(-4.5,-7.,5.));
#1506 = DIRECTION('',(-0.624695047554,0.780868809443,0.));
#1507 = DIRECTION('',(0.780868809443,0.624695047554,0.));
#1508 = ADVANCED_FACE('',(#1509),#1520,.T.);
#1509 = FACE_BOUND('',#1510,.T.);
#1510 = EDGE_LOOP('',(#1511,#1517,#1518,#1519));
#1511 = ORIENTED_EDGE('',*,*,#1512,.T.);
#1512 = EDGE_CURVE('',#579,#998,#1513,.T.);
#1513 = LINE('',#1514,#1515);
#1514 = CARTESIAN_POINT('',(7.,-4.5,5.));
#1515 = VECTOR('',#1516,1.);
#1516 = DIRECTION('',(0.,0.,1.));
#1517 = ORIENTED_EDGE('',*,*,#1005,.T.);
#1518 = ORIENTED_EDGE('',*,*,#1478,.F.);
#1519 = ORIENTED_EDGE('',*,*,#586,.F.);
#1520 = PLANE('',#1521);
#1521 = AXIS2_PLACEMENT_3D('',#1522,#1523,#1524);
#1522 = CARTESIAN_POINT('',(7.,-4.5,5.));
#1523 = DIRECTION('',(-0.780868809443,-0.624695047554,0.));
#1524 = DIRECTION('',(-0.624695047554,0.780868809443,0.));
#1525 = ADVANCED_FACE('',(#1526),#1537,.T.);
#1526 = FACE_BOUND('',#1527,.T.);
#1527 = EDGE_LOOP('',(#1528,#1529,#1530,#1536));
#1528 = ORIENTED_EDGE('',*,*,#1497,.T.);
#1529 = ORIENTED_EDGE('',*,*,#787,.T.);
#1530 = ORIENTED_EDGE('',*,*,#1531,.F.);
#1531 = EDGE_CURVE('',#522,#788,#1532,.T.);
#1532 = LINE('',#1533,#1534);
#1533 = CARTESIAN_POINT('',(2.,-5.,5.));
#1534 = VECTOR('',#1535,1.);
#1535 = DIRECTION('',(0.,0.,1.));
#1536 = ORIENTED_EDGE('',*,*,#521,.F.);
#1537 = PLANE('',#1538);
#1538 = AXIS2_PLACEMENT_3D('',#1539,#1540,#1541);
#1539 = CARTESIAN_POINT('',(-2.,-5.,5.));
#1540 = DIRECTION('',(1.224646799147E-16,1.,0.));
#1541 = DIRECTION('',(1.,-1.224646799147E-16,0.));
#1542 = ADVANCED_FACE('',(#1543),#1554,.T.);
#1543 = FACE_BOUND('',#1544,.T.);
#1544 = EDGE_LOOP('',(#1545,#1551,#1552,#1553));
#1545 = ORIENTED_EDGE('',*,*,#1546,.T.);
#1546 = EDGE_CURVE('',#571,#990,#1547,.T.);
#1547 = LINE('',#1548,#1549);
#1548 = CARTESIAN_POINT('',(8.,-4.5,5.));
#1549 = VECTOR('',#1550,1.);
#1550 = DIRECTION('',(0.,0.,1.));
#1551 = ORIENTED_EDGE('',*,*,#997,.T.);
#1552 = ORIENTED_EDGE('',*,*,#1512,.F.);
#1553 = ORIENTED_EDGE('',*,*,#578,.F.);
#1554 = PLANE('',#1555);
#1555 = AXIS2_PLACEMENT_3D('',#1556,#1557,#1558);
#1556 = CARTESIAN_POINT('',(8.,-4.5,5.));
#1557 = DIRECTION('',(-2.22044604925E-16,-1.,0.));
#1558 = DIRECTION('',(-1.,2.22044604925E-16,0.));
#1559 = ADVANCED_FACE('',(#1560),#1571,.T.);
#1560 = FACE_BOUND('',#1561,.T.);
#1561 = EDGE_LOOP('',(#1562,#1563,#1564,#1570));
#1562 = ORIENTED_EDGE('',*,*,#1531,.T.);
#1563 = ORIENTED_EDGE('',*,*,#795,.T.);
#1564 = ORIENTED_EDGE('',*,*,#1565,.F.);
#1565 = EDGE_CURVE('',#530,#796,#1566,.T.);
#1566 = LINE('',#1567,#1568);
#1567 = CARTESIAN_POINT('',(4.5,-7.,5.));
#1568 = VECTOR('',#1569,1.);
#1569 = DIRECTION('',(0.,0.,1.));
#1570 = ORIENTED_EDGE('',*,*,#529,.F.);
#1571 = PLANE('',#1572);
#1572 = AXIS2_PLACEMENT_3D('',#1573,#1574,#1575);
#1573 = CARTESIAN_POINT('',(2.,-5.,5.));
#1574 = DIRECTION('',(0.624695047554,0.780868809443,0.));
#1575 = DIRECTION('',(0.780868809443,-0.624695047554,0.));
#1576 = ADVANCED_FACE('',(#1577),#1583,.T.);
#1577 = FACE_BOUND('',#1578,.T.);
#1578 = EDGE_LOOP('',(#1579,#1580,#1581,#1582));
#1579 = ORIENTED_EDGE('',*,*,#948,.T.);
#1580 = ORIENTED_EDGE('',*,*,#989,.T.);
#1581 = ORIENTED_EDGE('',*,*,#1546,.F.);
#1582 = ORIENTED_EDGE('',*,*,#570,.F.);
#1583 = PLANE('',#1584);
#1584 = AXIS2_PLACEMENT_3D('',#1585,#1586,#1587);
#1585 = CARTESIAN_POINT('',(8.,-2.75,5.));
#1586 = DIRECTION('',(1.,-2.22044604925E-16,0.));
#1587 = DIRECTION('',(-2.22044604925E-16,-1.,0.));
#1588 = ADVANCED_FACE('',(#1589),#1600,.T.);
#1589 = FACE_BOUND('',#1590,.T.);
#1590 = EDGE_LOOP('',(#1591,#1592,#1593,#1599));
#1591 = ORIENTED_EDGE('',*,*,#1565,.T.);
#1592 = ORIENTED_EDGE('',*,*,#803,.T.);
#1593 = ORIENTED_EDGE('',*,*,#1594,.F.);
#1594 = EDGE_CURVE('',#538,#804,#1595,.T.);
#1595 = LINE('',#1596,#1597);
#1596 = CARTESIAN_POINT('',(4.5,-8.,5.));
#1597 = VECTOR('',#1598,1.);
#1598 = DIRECTION('',(0.,0.,1.));
#1599 = ORIENTED_EDGE('',*,*,#537,.F.);
#1600 = PLANE('',#1601);
#1601 = AXIS2_PLACEMENT_3D('',#1602,#1603,#1604);
#1602 = CARTESIAN_POINT('',(4.5,-7.,5.));
#1603 = DIRECTION('',(1.,-1.224646799147E-16,0.));
#1604 = DIRECTION('',(-1.224646799147E-16,-1.,0.));
#1605 = ADVANCED_FACE('',(#1606),#1612,.T.);
#1606 = FACE_BOUND('',#1607,.T.);
#1607 = EDGE_LOOP('',(#1608,#1609,#1610,#1611));
#1608 = ORIENTED_EDGE('',*,*,#1594,.T.);
#1609 = ORIENTED_EDGE('',*,*,#811,.T.);
#1610 = ORIENTED_EDGE('',*,*,#737,.F.);
#1611 = ORIENTED_EDGE('',*,*,#545,.F.);
#1612 = PLANE('',#1613);
#1613 = AXIS2_PLACEMENT_3D('',#1614,#1615,#1616);
#1614 = CARTESIAN_POINT('',(4.5,-8.,5.));
#1615 = DIRECTION('',(-1.224646799147E-16,-1.,0.));
#1616 = DIRECTION('',(-1.,1.224646799147E-16,0.));
#1617 = ( GEOMETRIC_REPRESENTATION_CONTEXT(3) 
GLOBAL_UNCERTAINTY_ASSIGNED_CONTEXT((#1621)) 
GLOBAL_UNIT_ASSIGNED_CONTEXT((#1618,#1619,#1620)) REPRESENTATION_CONTEXT
('Context #1','3D Context with UNIT and UNCERTAINTY') );
#1618 = ( LENGTH_UNIT() NAMED_UNIT(*) SI_UNIT(.MILLI.,.METRE.) );
#1619 = ( NAMED_UNIT(*) PLANE_ANGLE_UNIT() SI_UNIT($,.RADIAN.) );
#1620 = ( NAMED_UNIT(*) SI_UNIT($,.STERADIAN.) SOLID_ANGLE_UNIT() );
#1621 = UNCERTAINTY_MEASURE_WITH_UNIT(LENGTH_MEASURE(1.E-05),#1618,
  'distance_accuracy_value','confusion accuracy');
#1622 = PRODUCT_RELATED_PRODUCT_CATEGORY('part',$,(#7));
#1623 = MECHANICAL_DESIGN_GEOMETRIC_PRESENTATION_REPRESENTATION('',(
    #1624),#1617);
#1624 = STYLED_ITEM('color',(#1625),#15);
#1625 = PRESENTATION_STYLE_ASSIGNMENT((#1626,#1632));
#1626 = SURFACE_STYLE_USAGE(.BOTH.,#1627);
#1627 = SURFACE_SIDE_STYLE('',(#1628));
#1628 = SURFACE_STYLE_FILL_AREA(#1629);
#1629 = FILL_AREA_STYLE('',(#1630));
#1630 = FILL_AREA_STYLE_COLOUR('',#1631);
#1631 = COLOUR_RGB('',0.447059003357,0.474510015008,0.501960993452);
#1632 = CURVE_STYLE('',#1633,POSITIVE_LENGTH_MEASURE(0.1),#1634);
#1633 = DRAUGHTING_PRE_DEFINED_CURVE_FONT('continuous');
#1634 = COLOUR_RGB('',9.803921802644E-02,9.803921802644E-02,
  9.803921802644E-02);
ENDSEC;
END-ISO-10303-21;
