ISO-10303-21;
HEADER;
FILE_DESCRIPTION(('FreeCAD Model'),'2;1');
FILE_NAME('Open CASCADE Shape Model','2025-12-12T14:06:00',(''),(''),
  'Open CASCADE STEP processor 7.9','FreeCAD','Unknown');
FILE_SCHEMA(('AUTOMOTIVE_DESIGN { 1 0 10303 214 1 1 1 1 }'));
ENDSEC;
DATA;
#1 = APPLICATION_PROTOCOL_DEFINITION('international standard',
  'automotive_design',2000,#2);
#2 = APPLICATION_CONTEXT(
  'core data for automotive mechanical design processes');
#3 = SHAPE_DEFINITION_REPRESENTATION(#4,#10);
#4 = PRODUCT_DEFINITION_SHAPE('','',#5);
#5 = PRODUCT_DEFINITION('design','',#6,#9);
#6 = PRODUCT_DEFINITION_FORMATION('','',#7);
#7 = PRODUCT('ZBeltAttachmentLeft','ZBeltAttachmentLeft','',(#8));
#8 = PRODUCT_CONTEXT('',#2,'mechanical');
#9 = PRODUCT_DEFINITION_CONTEXT('part definition',#2,'design');
#10 = ADVANCED_BREP_SHAPE_REPRESENTATION('',(#11,#15),#1712);
#11 = AXIS2_PLACEMENT_3D('',#12,#13,#14);
#12 = CARTESIAN_POINT('',(0.,0.,0.));
#13 = DIRECTION('',(0.,0.,1.));
#14 = DIRECTION('',(1.,0.,-0.));
#15 = MANIFOLD_SOLID_BREP('',#16);
#16 = CLOSED_SHELL('',(#17,#108,#164,#189,#335,#398,#430,#464,#495,#531,
    #555,#584,#643,#660,#725,#769,#800,#824,#848,#872,#896,#913,#944,
    #968,#992,#1016,#1040,#1057,#1082,#1107,#1139,#1224,#1249,#1274,
    #1363,#1374,#1386,#1411,#1436,#1467,#1503,#1539,#1556,#1568,#1585,
    #1610,#1622,#1634,#1654,#1666,#1678,#1695));
#17 = ADVANCED_FACE('',(#18,#69),#103,.T.);
#18 = FACE_BOUND('',#19,.T.);
#19 = EDGE_LOOP('',(#20,#30,#39,#47,#55,#63));
#20 = ORIENTED_EDGE('',*,*,#21,.T.);
#21 = EDGE_CURVE('',#22,#24,#26,.T.);
#22 = VERTEX_POINT('',#23);
#23 = CARTESIAN_POINT('',(1.33226762955E-14,4.,-10.));
#24 = VERTEX_POINT('',#25);
#25 = CARTESIAN_POINT('',(31.,4.,-10.));
#26 = LINE('',#27,#28);
#27 = CARTESIAN_POINT('',(2.42017468137E-14,4.,-10.));
#28 = VECTOR('',#29,1.);
#29 = DIRECTION('',(1.,-2.2163568394E-15,-3.340892098501E-16));
#30 = ORIENTED_EDGE('',*,*,#31,.T.);
#31 = EDGE_CURVE('',#24,#32,#34,.T.);
#32 = VERTEX_POINT('',#33);
#33 = CARTESIAN_POINT('',(34.,1.,-10.));
#34 = CIRCLE('',#35,3.);
#35 = AXIS2_PLACEMENT_3D('',#36,#37,#38);
#36 = CARTESIAN_POINT('',(31.,1.,-10.));
#37 = DIRECTION('',(1.55226762955E-15,-4.440892098501E-16,-1.));
#38 = DIRECTION('',(1.,1.723363262707E-31,1.55226762955E-15));
#39 = ORIENTED_EDGE('',*,*,#40,.F.);
#40 = EDGE_CURVE('',#41,#32,#43,.T.);
#41 = VERTEX_POINT('',#42);
#42 = CARTESIAN_POINT('',(34.,-16.,-10.));
#43 = LINE('',#44,#45);
#44 = CARTESIAN_POINT('',(34.,-16.,-10.));
#45 = VECTOR('',#46,1.);
#46 = DIRECTION('',(-8.881784197001E-16,1.,-2.22044604925E-15));
#47 = ORIENTED_EDGE('',*,*,#48,.F.);
#48 = EDGE_CURVE('',#49,#41,#51,.T.);
#49 = VERTEX_POINT('',#50);
#50 = CARTESIAN_POINT('',(10.,-32.,-10.));
#51 = LINE('',#52,#53);
#52 = CARTESIAN_POINT('',(10.,-32.,-10.));
#53 = VECTOR('',#54,1.);
#54 = DIRECTION('',(0.832050294338,0.554700196225,-1.601186416995E-15));
#55 = ORIENTED_EDGE('',*,*,#56,.F.);
#56 = EDGE_CURVE('',#57,#49,#59,.T.);
#57 = VERTEX_POINT('',#58);
#58 = CARTESIAN_POINT('',(1.33226762955E-14,-32.,-10.));
#59 = LINE('',#60,#61);
#60 = CARTESIAN_POINT('',(5.284616992291E-14,-32.,-10.));
#61 = VECTOR('',#62,1.);
#62 = DIRECTION('',(1.,-1.9963568394E-15,-4.440892098501E-16));
#63 = ORIENTED_EDGE('',*,*,#64,.T.);
#64 = EDGE_CURVE('',#57,#22,#65,.T.);
#65 = LINE('',#66,#67);
#66 = CARTESIAN_POINT('',(5.062616992291E-14,-32.,-10.));
#67 = VECTOR('',#68,1.);
#68 = DIRECTION('',(-8.881784197001E-16,1.,-2.22044604925E-15));
#69 = FACE_BOUND('',#70,.T.);
#70 = EDGE_LOOP('',(#71,#81,#89,#97));
#71 = ORIENTED_EDGE('',*,*,#72,.F.);
#72 = EDGE_CURVE('',#73,#75,#77,.T.);
#73 = VERTEX_POINT('',#74);
#74 = CARTESIAN_POINT('',(29.5,-8.,-10.));
#75 = VERTEX_POINT('',#76);
#76 = CARTESIAN_POINT('',(22.5,-8.,-10.));
#77 = LINE('',#78,#79);
#78 = CARTESIAN_POINT('',(29.5,-8.,-10.));
#79 = VECTOR('',#80,1.);
#80 = DIRECTION('',(-1.,1.554312234475E-15,2.22044604925E-16));
#81 = ORIENTED_EDGE('',*,*,#82,.T.);
#82 = EDGE_CURVE('',#73,#83,#85,.T.);
#83 = VERTEX_POINT('',#84);
#84 = CARTESIAN_POINT('',(29.5,-3.812215547965E-14,-10.));
#85 = LINE('',#86,#87);
#86 = CARTESIAN_POINT('',(29.5,-8.,-10.));
#87 = VECTOR('',#88,1.);
#88 = DIRECTION('',(-8.881784197001E-16,1.,-2.22044604925E-15));
#89 = ORIENTED_EDGE('',*,*,#90,.T.);
#90 = EDGE_CURVE('',#83,#91,#93,.T.);
#91 = VERTEX_POINT('',#92);
#92 = CARTESIAN_POINT('',(22.5,-3.190490654175E-14,-10.));
#93 = LINE('',#94,#95);
#94 = CARTESIAN_POINT('',(29.5,-5.111176486777E-14,-10.));
#95 = VECTOR('',#96,1.);
#96 = DIRECTION('',(-1.,1.554312234475E-15,2.22044604925E-16));
#97 = ORIENTED_EDGE('',*,*,#98,.F.);
#98 = EDGE_CURVE('',#75,#91,#99,.T.);
#99 = LINE('',#100,#101);
#100 = CARTESIAN_POINT('',(22.5,-8.,-10.));
#101 = VECTOR('',#102,1.);
#102 = DIRECTION('',(-8.881784197001E-16,1.,-2.22044604925E-15));
#103 = PLANE('',#104);
#104 = AXIS2_PLACEMENT_3D('',#105,#106,#107);
#105 = CARTESIAN_POINT('',(15.076921237098,-11.64401189401,-10.));
#106 = DIRECTION('',(2.22044604925E-15,4.408920985006E-17,-1.));
#107 = DIRECTION('',(8.881784197001E-16,-1.,2.62044604925E-15));
#108 = ADVANCED_FACE('',(#109),#159,.T.);
#109 = FACE_BOUND('',#110,.T.);
#110 = EDGE_LOOP('',(#111,#112,#120,#128,#136,#145,#153));
#111 = ORIENTED_EDGE('',*,*,#21,.F.);
#112 = ORIENTED_EDGE('',*,*,#113,.T.);
#113 = EDGE_CURVE('',#22,#114,#116,.T.);
#114 = VERTEX_POINT('',#115);
#115 = CARTESIAN_POINT('',(-2.6645352591E-14,4.,20.));
#116 = LINE('',#117,#118);
#117 = CARTESIAN_POINT('',(1.86517468137E-14,4.,-10.));
#118 = VECTOR('',#119,1.);
#119 = DIRECTION('',(-2.22044604925E-15,-4.440892098501E-16,1.));
#120 = ORIENTED_EDGE('',*,*,#121,.T.);
#121 = EDGE_CURVE('',#114,#122,#124,.T.);
#122 = VERTEX_POINT('',#123);
#123 = CARTESIAN_POINT('',(10.,4.,20.));
#124 = LINE('',#125,#126);
#125 = CARTESIAN_POINT('',(-5.240163466381E-14,4.,20.));
#126 = VECTOR('',#127,1.);
#127 = DIRECTION('',(1.,-1.9963568394E-15,-4.440892098501E-16));
#128 = ORIENTED_EDGE('',*,*,#129,.F.);
#129 = EDGE_CURVE('',#130,#122,#132,.T.);
#130 = VERTEX_POINT('',#131);
#131 = CARTESIAN_POINT('',(10.,4.,13.));
#132 = LINE('',#133,#134);
#133 = CARTESIAN_POINT('',(10.,4.,-10.));
#134 = VECTOR('',#135,1.);
#135 = DIRECTION('',(-2.22044604925E-15,-4.440892098501E-16,1.));
#136 = ORIENTED_EDGE('',*,*,#137,.T.);
#137 = EDGE_CURVE('',#130,#138,#140,.T.);
#138 = VERTEX_POINT('',#139);
#139 = CARTESIAN_POINT('',(13.,4.,10.));
#140 = CIRCLE('',#141,3.);
#141 = AXIS2_PLACEMENT_3D('',#142,#143,#144);
#142 = CARTESIAN_POINT('',(13.,4.,13.));
#143 = DIRECTION('',(-7.642090019329E-31,-1.,1.33226762955E-15));
#144 = DIRECTION('',(-1.110223024625E-16,1.33226762955E-15,1.));
#145 = ORIENTED_EDGE('',*,*,#146,.T.);
#146 = EDGE_CURVE('',#138,#147,#149,.T.);
#147 = VERTEX_POINT('',#148);
#148 = CARTESIAN_POINT('',(31.,4.,10.));
#149 = LINE('',#150,#151);
#150 = CARTESIAN_POINT('',(10.,4.,10.));
#151 = VECTOR('',#152,1.);
#152 = DIRECTION('',(1.,-1.7763568394E-15,-4.440892098501E-16));
#153 = ORIENTED_EDGE('',*,*,#154,.F.);
#154 = EDGE_CURVE('',#24,#147,#155,.T.);
#155 = LINE('',#156,#157);
#156 = CARTESIAN_POINT('',(31.,4.,-10.));
#157 = VECTOR('',#158,1.);
#158 = DIRECTION('',(-1.55226762955E-15,4.440892098501E-16,1.));
#159 = PLANE('',#160);
#160 = AXIS2_PLACEMENT_3D('',#161,#162,#163);
#161 = CARTESIAN_POINT('',(15.125,4.,3.125));
#162 = DIRECTION('',(-3.181784197001E-16,1.,-2.22044604925E-15));
#163 = DIRECTION('',(1.,-2.3463568394E-15,-4.440892098501E-16));
#164 = ADVANCED_FACE('',(#165),#184,.T.);
#165 = FACE_BOUND('',#166,.F.);
#166 = EDGE_LOOP('',(#167,#168,#176,#183));
#167 = ORIENTED_EDGE('',*,*,#31,.T.);
#168 = ORIENTED_EDGE('',*,*,#169,.T.);
#169 = EDGE_CURVE('',#32,#170,#172,.T.);
#170 = VERTEX_POINT('',#171);
#171 = CARTESIAN_POINT('',(34.,1.,10.));
#172 = LINE('',#173,#174);
#173 = CARTESIAN_POINT('',(34.,1.,-10.));
#174 = VECTOR('',#175,1.);
#175 = DIRECTION('',(-1.55226762955E-15,4.440892098501E-16,1.));
#176 = ORIENTED_EDGE('',*,*,#177,.F.);
#177 = EDGE_CURVE('',#147,#170,#178,.T.);
#178 = CIRCLE('',#179,3.);
#179 = AXIS2_PLACEMENT_3D('',#180,#181,#182);
#180 = CARTESIAN_POINT('',(31.,1.,10.));
#181 = DIRECTION('',(1.55226762955E-15,-4.440892098501E-16,-1.));
#182 = DIRECTION('',(1.,1.723363262707E-31,1.55226762955E-15));
#183 = ORIENTED_EDGE('',*,*,#154,.F.);
#184 = CYLINDRICAL_SURFACE('',#185,3.);
#185 = AXIS2_PLACEMENT_3D('',#186,#187,#188);
#186 = CARTESIAN_POINT('',(31.,1.,-10.));
#187 = DIRECTION('',(-1.55226762955E-15,4.440892098501E-16,1.));
#188 = DIRECTION('',(1.4581784197E-15,1.,-4.440892098501E-16));
#189 = ADVANCED_FACE('',(#190,#208,#258,#308,#319),#330,.F.);
#190 = FACE_BOUND('',#191,.F.);
#191 = EDGE_LOOP('',(#192,#200,#201,#202));
#192 = ORIENTED_EDGE('',*,*,#193,.T.);
#193 = EDGE_CURVE('',#194,#57,#196,.T.);
#194 = VERTEX_POINT('',#195);
#195 = CARTESIAN_POINT('',(-2.6645352591E-14,-32.,20.));
#196 = LINE('',#197,#198);
#197 = CARTESIAN_POINT('',(-1.59872115546E-14,-32.,20.));
#198 = VECTOR('',#199,1.);
#199 = DIRECTION('',(2.22044604925E-15,4.440892098501E-16,-1.));
#200 = ORIENTED_EDGE('',*,*,#64,.T.);
#201 = ORIENTED_EDGE('',*,*,#113,.T.);
#202 = ORIENTED_EDGE('',*,*,#203,.T.);
#203 = EDGE_CURVE('',#114,#194,#204,.T.);
#204 = LINE('',#205,#206);
#205 = CARTESIAN_POINT('',(-4.796163466381E-14,4.,20.));
#206 = VECTOR('',#207,1.);
#207 = DIRECTION('',(8.881784197001E-16,-1.,2.22044604925E-15));
#208 = FACE_BOUND('',#209,.F.);
#209 = EDGE_LOOP('',(#210,#220,#228,#236,#244,#252));
#210 = ORIENTED_EDGE('',*,*,#211,.T.);
#211 = EDGE_CURVE('',#212,#214,#216,.T.);
#212 = VERTEX_POINT('',#213);
#213 = CARTESIAN_POINT('',(8.522420516057E-15,-0.85,-7.587713240271));
#214 = VERTEX_POINT('',#215);
#215 = CARTESIAN_POINT('',(9.051235254812E-15,-3.6,-9.175426480543));
#216 = LINE('',#217,#218);
#217 = CARTESIAN_POINT('',(1.039596921896E-14,-0.85,-7.587713240271));
#218 = VECTOR('',#219,1.);
#219 = DIRECTION('',(4.698520247946E-16,-0.866025403784,-0.5));
#220 = ORIENTED_EDGE('',*,*,#221,.T.);
#221 = EDGE_CURVE('',#214,#222,#224,.T.);
#222 = VERTEX_POINT('',#223);
#223 = CARTESIAN_POINT('',(8.522420516057E-15,-6.35,-7.587713240271));
#224 = LINE('',#225,#226);
#225 = CARTESIAN_POINT('',(1.188794978043E-14,-3.6,-9.175426480543));
#226 = VECTOR('',#227,1.);
#227 = DIRECTION('',(-8.525948751793E-17,-0.866025403784,0.5));
#228 = ORIENTED_EDGE('',*,*,#229,.T.);
#229 = EDGE_CURVE('',#222,#230,#232,.T.);
#230 = VERTEX_POINT('',#231);
#231 = CARTESIAN_POINT('',(7.464791038546E-15,-6.35,-4.412286759729));
#232 = LINE('',#233,#234);
#233 = CARTESIAN_POINT('',(1.161721454605E-14,-6.35,-7.587713240271));
#234 = VECTOR('',#235,1.);
#235 = DIRECTION('',(-5.551115123126E-16,-1.110223024625E-16,1.));
#236 = ORIENTED_EDGE('',*,*,#237,.T.);
#237 = EDGE_CURVE('',#230,#238,#240,.T.);
#238 = VERTEX_POINT('',#239);
#239 = CARTESIAN_POINT('',(6.93597629979E-15,-3.6,-2.824573519457));
#240 = LINE('',#241,#242);
#241 = CARTESIAN_POINT('',(9.854498750199E-15,-6.35,-4.412286759729));
#242 = VECTOR('',#243,1.);
#243 = DIRECTION('',(-4.698520247946E-16,0.866025403784,0.5));
#244 = ORIENTED_EDGE('',*,*,#245,.T.);
#245 = EDGE_CURVE('',#238,#246,#248,.T.);
#246 = VERTEX_POINT('',#247);
#247 = CARTESIAN_POINT('',(7.464791038546E-15,-0.85,-4.412286759729));
#248 = LINE('',#249,#250);
#249 = CARTESIAN_POINT('',(8.36251818873E-15,-3.6,-2.824573519457));
#250 = VECTOR('',#251,1.);
#251 = DIRECTION('',(8.525948751793E-17,0.866025403784,-0.5));
#252 = ORIENTED_EDGE('',*,*,#253,.T.);
#253 = EDGE_CURVE('',#246,#212,#254,.T.);
#254 = LINE('',#255,#256);
#255 = CARTESIAN_POINT('',(8.633253423112E-15,-0.85,-4.412286759729));
#256 = VECTOR('',#257,1.);
#257 = DIRECTION('',(5.551115123126E-16,1.459852603968E-16,-1.));
#258 = FACE_BOUND('',#259,.F.);
#259 = EDGE_LOOP('',(#260,#270,#278,#286,#294,#302));
#260 = ORIENTED_EDGE('',*,*,#261,.T.);
#261 = EDGE_CURVE('',#262,#264,#266,.T.);
#262 = VERTEX_POINT('',#263);
#263 = CARTESIAN_POINT('',(4.525617627406E-15,-0.85,4.412286759729));
#264 = VERTEX_POINT('',#265);
#265 = CARTESIAN_POINT('',(5.054432366162E-15,-3.6,2.824573519457));
#266 = LINE('',#267,#268);
#267 = CARTESIAN_POINT('',(3.734631071212E-15,-0.85,4.412286759729));
#268 = VECTOR('',#269,1.);
#269 = DIRECTION('',(4.698520247946E-16,-0.866025403784,-0.5));
#270 = ORIENTED_EDGE('',*,*,#271,.T.);
#271 = EDGE_CURVE('',#264,#272,#274,.T.);
#272 = VERTEX_POINT('',#273);
#273 = CARTESIAN_POINT('',(4.525617627406E-15,-6.35,4.412286759729));
#274 = LINE('',#275,#276);
#275 = CARTESIAN_POINT('',(5.226611632682E-15,-3.6,2.824573519457));
#276 = VECTOR('',#277,1.);
#277 = DIRECTION('',(-8.525948751793E-17,-0.866025403784,0.5));
#278 = ORIENTED_EDGE('',*,*,#279,.T.);
#279 = EDGE_CURVE('',#272,#280,#282,.T.);
#280 = VERTEX_POINT('',#281);
#281 = CARTESIAN_POINT('',(3.467988149895E-15,-6.35,7.587713240271));
#282 = LINE('',#283,#284);
#283 = CARTESIAN_POINT('',(4.9558763983E-15,-6.35,4.412286759729));
#284 = VECTOR('',#285,1.);
#285 = DIRECTION('',(-5.551115123126E-16,-1.110223024625E-16,1.));
#286 = ORIENTED_EDGE('',*,*,#287,.T.);
#287 = EDGE_CURVE('',#280,#288,#290,.T.);
#288 = VERTEX_POINT('',#289);
#289 = CARTESIAN_POINT('',(2.93917341114E-15,-3.6,9.175426480543));
#290 = LINE('',#291,#292);
#291 = CARTESIAN_POINT('',(3.193160602449E-15,-6.35,7.587713240271));
#292 = VECTOR('',#293,1.);
#293 = DIRECTION('',(-4.698520247946E-16,0.866025403784,0.5));
#294 = ORIENTED_EDGE('',*,*,#295,.T.);
#295 = EDGE_CURVE('',#288,#296,#298,.T.);
#296 = VERTEX_POINT('',#297);
#297 = CARTESIAN_POINT('',(3.467988149895E-15,-0.85,7.587713240271));
#298 = LINE('',#299,#300);
#299 = CARTESIAN_POINT('',(1.701180040979E-15,-3.6,9.175426480543));
#300 = VECTOR('',#301,1.);
#301 = DIRECTION('',(8.525948751793E-17,0.866025403784,-0.5));
#302 = ORIENTED_EDGE('',*,*,#303,.T.);
#303 = EDGE_CURVE('',#296,#262,#304,.T.);
#304 = LINE('',#305,#306);
#305 = CARTESIAN_POINT('',(1.971915275361E-15,-0.85,7.587713240271));
#306 = VECTOR('',#307,1.);
#307 = DIRECTION('',(5.551115123126E-16,1.80948218331E-16,-1.));
#308 = FACE_BOUND('',#309,.F.);
#309 = EDGE_LOOP('',(#310));
#310 = ORIENTED_EDGE('',*,*,#311,.T.);
#311 = EDGE_CURVE('',#312,#312,#314,.T.);
#312 = VERTEX_POINT('',#313);
#313 = CARTESIAN_POINT('',(-1.33226762955E-14,-10.4,10.));
#314 = CIRCLE('',#315,1.6);
#315 = AXIS2_PLACEMENT_3D('',#316,#317,#318);
#316 = CARTESIAN_POINT('',(-7.993605777301E-15,-12.,10.));
#317 = DIRECTION('',(-1.,-2.958228394579E-31,-6.661338147751E-16));
#318 = DIRECTION('',(1.479114197289E-31,1.,-6.661338147751E-16));
#319 = FACE_BOUND('',#320,.F.);
#320 = EDGE_LOOP('',(#321));
#321 = ORIENTED_EDGE('',*,*,#322,.T.);
#322 = EDGE_CURVE('',#323,#323,#325,.T.);
#323 = VERTEX_POINT('',#324);
#324 = CARTESIAN_POINT('',(-1.33226762955E-14,-25.4,10.));
#325 = CIRCLE('',#326,1.6);
#326 = AXIS2_PLACEMENT_3D('',#327,#328,#329);
#327 = CARTESIAN_POINT('',(-1.487698852998E-14,-27.,10.));
#328 = DIRECTION('',(-1.,-2.958228394579E-31,-6.661338147751E-16));
#329 = DIRECTION('',(1.479114197289E-31,1.,-6.661338147751E-16));
#330 = PLANE('',#331);
#331 = AXIS2_PLACEMENT_3D('',#332,#333,#334);
#332 = CARTESIAN_POINT('',(1.33226762955E-15,-14.,5.));
#333 = DIRECTION('',(1.,-1.7763568394E-15,-4.440892098501E-16));
#334 = DIRECTION('',(-2.22044604925E-15,-4.440892098501E-16,1.));
#335 = ADVANCED_FACE('',(#336,#371,#382),#393,.F.);
#336 = FACE_BOUND('',#337,.F.);
#337 = EDGE_LOOP('',(#338,#339,#347,#355,#364,#370));
#338 = ORIENTED_EDGE('',*,*,#40,.F.);
#339 = ORIENTED_EDGE('',*,*,#340,.T.);
#340 = EDGE_CURVE('',#41,#341,#343,.T.);
#341 = VERTEX_POINT('',#342);
#342 = CARTESIAN_POINT('',(34.,-16.,10.));
#343 = LINE('',#344,#345);
#344 = CARTESIAN_POINT('',(34.,-16.,-10.));
#345 = VECTOR('',#346,1.);
#346 = DIRECTION('',(-2.44044604925E-15,-4.440892098501E-16,1.));
#347 = ORIENTED_EDGE('',*,*,#348,.T.);
#348 = EDGE_CURVE('',#341,#349,#351,.T.);
#349 = VERTEX_POINT('',#350);
#350 = CARTESIAN_POINT('',(34.,-15.25,10.));
#351 = LINE('',#352,#353);
#352 = CARTESIAN_POINT('',(34.,-16.,10.));
#353 = VECTOR('',#354,1.);
#354 = DIRECTION('',(-8.881784197001E-16,1.,-2.22044604925E-15));
#355 = ORIENTED_EDGE('',*,*,#356,.T.);
#356 = EDGE_CURVE('',#349,#357,#359,.T.);
#357 = VERTEX_POINT('',#358);
#358 = CARTESIAN_POINT('',(34.,-8.75,10.));
#359 = CIRCLE('',#360,3.25);
#360 = AXIS2_PLACEMENT_3D('',#361,#362,#363);
#361 = CARTESIAN_POINT('',(34.,-12.,10.));
#362 = DIRECTION('',(1.,2.958228394579E-31,6.661338147751E-16));
#363 = DIRECTION('',(1.479114197289E-31,1.,-6.661338147751E-16));
#364 = ORIENTED_EDGE('',*,*,#365,.T.);
#365 = EDGE_CURVE('',#357,#170,#366,.T.);
#366 = LINE('',#367,#368);
#367 = CARTESIAN_POINT('',(34.,-16.,10.));
#368 = VECTOR('',#369,1.);
#369 = DIRECTION('',(-8.881784197001E-16,1.,-2.22044604925E-15));
#370 = ORIENTED_EDGE('',*,*,#169,.F.);
#371 = FACE_BOUND('',#372,.F.);
#372 = EDGE_LOOP('',(#373));
#373 = ORIENTED_EDGE('',*,*,#374,.T.);
#374 = EDGE_CURVE('',#375,#375,#377,.T.);
#375 = VERTEX_POINT('',#376);
#376 = CARTESIAN_POINT('',(34.,-0.35,6.));
#377 = CIRCLE('',#378,3.25);
#378 = AXIS2_PLACEMENT_3D('',#379,#380,#381);
#379 = CARTESIAN_POINT('',(34.,-3.6,6.));
#380 = DIRECTION('',(1.,2.22044604925E-16,1.221245327088E-15));
#381 = DIRECTION('',(-2.22044604925E-16,1.,-1.221245327088E-15));
#382 = FACE_BOUND('',#383,.F.);
#383 = EDGE_LOOP('',(#384));
#384 = ORIENTED_EDGE('',*,*,#385,.T.);
#385 = EDGE_CURVE('',#386,#386,#388,.T.);
#386 = VERTEX_POINT('',#387);
#387 = CARTESIAN_POINT('',(34.,-0.35,-6.));
#388 = CIRCLE('',#389,3.25);
#389 = AXIS2_PLACEMENT_3D('',#390,#391,#392);
#390 = CARTESIAN_POINT('',(34.,-3.6,-6.));
#391 = DIRECTION('',(1.,2.22044604925E-16,1.221245327088E-15));
#392 = DIRECTION('',(-2.22044604925E-16,1.,-1.221245327088E-15));
#393 = PLANE('',#394);
#394 = AXIS2_PLACEMENT_3D('',#395,#396,#397);
#395 = CARTESIAN_POINT('',(34.,-16.,-10.));
#396 = DIRECTION('',(-1.,1.9963568394E-15,2.240892098501E-16));
#397 = DIRECTION('',(-6.681784197001E-16,1.,-2.44044604925E-15));
#398 = ADVANCED_FACE('',(#399),#425,.F.);
#399 = FACE_BOUND('',#400,.F.);
#400 = EDGE_LOOP('',(#401,#409,#417,#423,#424));
#401 = ORIENTED_EDGE('',*,*,#402,.T.);
#402 = EDGE_CURVE('',#194,#403,#405,.T.);
#403 = VERTEX_POINT('',#404);
#404 = CARTESIAN_POINT('',(10.,-32.,20.));
#405 = LINE('',#406,#407);
#406 = CARTESIAN_POINT('',(-2.04272115546E-14,-32.,20.));
#407 = VECTOR('',#408,1.);
#408 = DIRECTION('',(1.,-1.9963568394E-15,-4.440892098501E-16));
#409 = ORIENTED_EDGE('',*,*,#410,.T.);
#410 = EDGE_CURVE('',#403,#411,#413,.T.);
#411 = VERTEX_POINT('',#412);
#412 = CARTESIAN_POINT('',(10.,-32.,10.));
#413 = LINE('',#414,#415);
#414 = CARTESIAN_POINT('',(10.,-32.,20.));
#415 = VECTOR('',#416,1.);
#416 = DIRECTION('',(2.22044604925E-15,4.440892098501E-16,-1.));
#417 = ORIENTED_EDGE('',*,*,#418,.T.);
#418 = EDGE_CURVE('',#411,#49,#419,.T.);
#419 = LINE('',#420,#421);
#420 = CARTESIAN_POINT('',(10.,-32.,20.));
#421 = VECTOR('',#422,1.);
#422 = DIRECTION('',(2.22044604925E-15,4.440892098501E-16,-1.));
#423 = ORIENTED_EDGE('',*,*,#56,.F.);
#424 = ORIENTED_EDGE('',*,*,#193,.F.);
#425 = PLANE('',#426);
#426 = AXIS2_PLACEMENT_3D('',#427,#428,#429);
#427 = CARTESIAN_POINT('',(-2.04272115546E-14,-32.,20.));
#428 = DIRECTION('',(-6.681784197001E-16,1.,-2.22044604925E-15));
#429 = DIRECTION('',(2.44044604925E-15,4.440892098501E-16,-1.));
#430 = ADVANCED_FACE('',(#431),#459,.F.);
#431 = FACE_BOUND('',#432,.F.);
#432 = EDGE_LOOP('',(#433,#434,#442,#451,#457,#458));
#433 = ORIENTED_EDGE('',*,*,#418,.F.);
#434 = ORIENTED_EDGE('',*,*,#435,.T.);
#435 = EDGE_CURVE('',#411,#436,#438,.T.);
#436 = VERTEX_POINT('',#437);
#437 = CARTESIAN_POINT('',(12.625,-30.25,10.));
#438 = LINE('',#439,#440);
#439 = CARTESIAN_POINT('',(10.,-32.,10.));
#440 = VECTOR('',#441,1.);
#441 = DIRECTION('',(0.832050294338,0.554700196225,-1.601186416995E-15)
  );
#442 = ORIENTED_EDGE('',*,*,#443,.F.);
#443 = EDGE_CURVE('',#444,#436,#446,.T.);
#444 = VERTEX_POINT('',#445);
#445 = CARTESIAN_POINT('',(22.375,-23.75,10.));
#446 = ELLIPSE('',#447,5.859020822629,3.25);
#447 = AXIS2_PLACEMENT_3D('',#448,#449,#450);
#448 = CARTESIAN_POINT('',(17.5,-27.,10.));
#449 = DIRECTION('',(-0.554700196225,0.832050294338,-1.351681859227E-15)
  );
#450 = DIRECTION('',(-0.832050294338,-0.554700196225,1.024289425407E-15)
  );
#451 = ORIENTED_EDGE('',*,*,#452,.T.);
#452 = EDGE_CURVE('',#444,#341,#453,.T.);
#453 = LINE('',#454,#455);
#454 = CARTESIAN_POINT('',(10.,-32.,10.));
#455 = VECTOR('',#456,1.);
#456 = DIRECTION('',(0.832050294338,0.554700196225,-1.601186416995E-15)
  );
#457 = ORIENTED_EDGE('',*,*,#340,.F.);
#458 = ORIENTED_EDGE('',*,*,#48,.F.);
#459 = PLANE('',#460);
#460 = AXIS2_PLACEMENT_3D('',#461,#462,#463);
#461 = CARTESIAN_POINT('',(10.,-32.,-10.));
#462 = DIRECTION('',(-0.554700196225,0.832050294338,-1.721186416995E-15)
  );
#463 = DIRECTION('',(0.832050294338,0.554700196225,-1.721186416995E-15)
  );
#464 = ADVANCED_FACE('',(#465),#490,.T.);
#465 = FACE_BOUND('',#466,.T.);
#466 = EDGE_LOOP('',(#467,#468,#476,#484));
#467 = ORIENTED_EDGE('',*,*,#72,.T.);
#468 = ORIENTED_EDGE('',*,*,#469,.T.);
#469 = EDGE_CURVE('',#75,#470,#472,.T.);
#470 = VERTEX_POINT('',#471);
#471 = CARTESIAN_POINT('',(22.5,-8.,-5.));
#472 = LINE('',#473,#474);
#473 = CARTESIAN_POINT('',(22.5,-8.,-10.));
#474 = VECTOR('',#475,1.);
#475 = DIRECTION('',(-2.22044604925E-15,-4.440892098501E-16,1.));
#476 = ORIENTED_EDGE('',*,*,#477,.F.);
#477 = EDGE_CURVE('',#478,#470,#480,.T.);
#478 = VERTEX_POINT('',#479);
#479 = CARTESIAN_POINT('',(29.5,-8.,-5.));
#480 = LINE('',#481,#482);
#481 = CARTESIAN_POINT('',(29.5,-8.,-5.));
#482 = VECTOR('',#483,1.);
#483 = DIRECTION('',(-1.,1.554312234475E-15,2.22044604925E-16));
#484 = ORIENTED_EDGE('',*,*,#485,.F.);
#485 = EDGE_CURVE('',#73,#478,#486,.T.);
#486 = LINE('',#487,#488);
#487 = CARTESIAN_POINT('',(29.5,-8.,-10.));
#488 = VECTOR('',#489,1.);
#489 = DIRECTION('',(-2.22044604925E-15,-4.440892098501E-16,1.));
#490 = PLANE('',#491);
#491 = AXIS2_PLACEMENT_3D('',#492,#493,#494);
#492 = CARTESIAN_POINT('',(29.5,-8.,-10.));
#493 = DIRECTION('',(-4.440892098501E-16,1.,-1.7763568394E-15));
#494 = DIRECTION('',(-1.998401444325E-15,-2.22044604925E-16,1.));
#495 = ADVANCED_FACE('',(#496,#515),#526,.T.);
#496 = FACE_BOUND('',#497,.T.);
#497 = EDGE_LOOP('',(#498,#507,#508,#509));
#498 = ORIENTED_EDGE('',*,*,#499,.T.);
#499 = EDGE_CURVE('',#500,#470,#502,.T.);
#500 = VERTEX_POINT('',#501);
#501 = CARTESIAN_POINT('',(22.5,-2.96844604925E-14,-5.));
#502 = CIRCLE('',#503,4.);
#503 = AXIS2_PLACEMENT_3D('',#504,#505,#506);
#504 = CARTESIAN_POINT('',(22.5,-4.,-5.));
#505 = DIRECTION('',(1.,8.881784197001E-16,2.22044604925E-15));
#506 = DIRECTION('',(-8.881784197001E-16,1.,-2.22044604925E-15));
#507 = ORIENTED_EDGE('',*,*,#469,.F.);
#508 = ORIENTED_EDGE('',*,*,#98,.T.);
#509 = ORIENTED_EDGE('',*,*,#510,.F.);
#510 = EDGE_CURVE('',#500,#91,#511,.T.);
#511 = LINE('',#512,#513);
#512 = CARTESIAN_POINT('',(22.5,-2.5243568394E-14,-5.));
#513 = VECTOR('',#514,1.);
#514 = DIRECTION('',(2.22044604925E-15,4.440892098501E-16,-1.));
#515 = FACE_BOUND('',#516,.T.);
#516 = EDGE_LOOP('',(#517));
#517 = ORIENTED_EDGE('',*,*,#518,.T.);
#518 = EDGE_CURVE('',#519,#519,#521,.T.);
#519 = VERTEX_POINT('',#520);
#520 = CARTESIAN_POINT('',(22.5,-2.,-6.));
#521 = CIRCLE('',#522,1.6);
#522 = AXIS2_PLACEMENT_3D('',#523,#524,#525);
#523 = CARTESIAN_POINT('',(22.5,-3.6,-6.));
#524 = DIRECTION('',(-1.,-2.22044604925E-16,-1.221245327088E-15));
#525 = DIRECTION('',(-2.22044604925E-16,1.,-1.221245327088E-15));
#526 = PLANE('',#527);
#527 = AXIS2_PLACEMENT_3D('',#528,#529,#530);
#528 = CARTESIAN_POINT('',(22.5,-4.,1.50990331349E-14));
#529 = DIRECTION('',(1.,-1.7763568394E-15,-4.440892098501E-16));
#530 = DIRECTION('',(-2.22044604925E-15,-4.440892098501E-16,1.));
#531 = ADVANCED_FACE('',(#532),#550,.T.);
#532 = FACE_BOUND('',#533,.T.);
#533 = EDGE_LOOP('',(#534,#542,#543,#544));
#534 = ORIENTED_EDGE('',*,*,#535,.T.);
#535 = EDGE_CURVE('',#536,#500,#538,.T.);
#536 = VERTEX_POINT('',#537);
#537 = CARTESIAN_POINT('',(29.5,-3.59017094304E-14,-5.));
#538 = LINE('',#539,#540);
#539 = CARTESIAN_POINT('',(29.5,-5.222198789239E-14,-5.));
#540 = VECTOR('',#541,1.);
#541 = DIRECTION('',(-1.,1.554312234475E-15,2.22044604925E-16));
#542 = ORIENTED_EDGE('',*,*,#510,.T.);
#543 = ORIENTED_EDGE('',*,*,#90,.F.);
#544 = ORIENTED_EDGE('',*,*,#545,.F.);
#545 = EDGE_CURVE('',#536,#83,#546,.T.);
#546 = LINE('',#547,#548);
#547 = CARTESIAN_POINT('',(29.5,-3.14608173319E-14,-5.));
#548 = VECTOR('',#549,1.);
#549 = DIRECTION('',(2.22044604925E-15,4.440892098501E-16,-1.));
#550 = PLANE('',#551);
#551 = AXIS2_PLACEMENT_3D('',#552,#553,#554);
#552 = CARTESIAN_POINT('',(29.5,-5.222198789239E-14,-5.));
#553 = DIRECTION('',(4.440892098501E-16,-1.,1.7763568394E-15));
#554 = DIRECTION('',(1.998401444325E-15,2.22044604925E-16,-1.));
#555 = ADVANCED_FACE('',(#556,#568),#579,.F.);
#556 = FACE_BOUND('',#557,.F.);
#557 = EDGE_LOOP('',(#558,#565,#566,#567));
#558 = ORIENTED_EDGE('',*,*,#559,.T.);
#559 = EDGE_CURVE('',#536,#478,#560,.T.);
#560 = CIRCLE('',#561,4.);
#561 = AXIS2_PLACEMENT_3D('',#562,#563,#564);
#562 = CARTESIAN_POINT('',(29.5,-4.,-5.));
#563 = DIRECTION('',(1.,8.881784197001E-16,2.22044604925E-15));
#564 = DIRECTION('',(-8.881784197001E-16,1.,-2.22044604925E-15));
#565 = ORIENTED_EDGE('',*,*,#485,.F.);
#566 = ORIENTED_EDGE('',*,*,#82,.T.);
#567 = ORIENTED_EDGE('',*,*,#545,.F.);
#568 = FACE_BOUND('',#569,.F.);
#569 = EDGE_LOOP('',(#570));
#570 = ORIENTED_EDGE('',*,*,#571,.T.);
#571 = EDGE_CURVE('',#572,#572,#574,.T.);
#572 = VERTEX_POINT('',#573);
#573 = CARTESIAN_POINT('',(29.5,-2.,-6.));
#574 = CIRCLE('',#575,1.6);
#575 = AXIS2_PLACEMENT_3D('',#576,#577,#578);
#576 = CARTESIAN_POINT('',(29.5,-3.6,-6.));
#577 = DIRECTION('',(-1.,-2.22044604925E-16,-1.221245327088E-15));
#578 = DIRECTION('',(-2.22044604925E-16,1.,-1.221245327088E-15));
#579 = PLANE('',#580);
#580 = AXIS2_PLACEMENT_3D('',#581,#582,#583);
#581 = CARTESIAN_POINT('',(29.5,-4.,-1.258252761242E-15));
#582 = DIRECTION('',(1.,-1.7763568394E-15,-4.440892098501E-16));
#583 = DIRECTION('',(-2.22044604925E-15,-4.440892098501E-16,1.));
#584 = ADVANCED_FACE('',(#585,#604),#638,.T.);
#585 = FACE_BOUND('',#586,.T.);
#586 = EDGE_LOOP('',(#587,#588,#596,#602,#603));
#587 = ORIENTED_EDGE('',*,*,#146,.F.);
#588 = ORIENTED_EDGE('',*,*,#589,.F.);
#589 = EDGE_CURVE('',#590,#138,#592,.T.);
#590 = VERTEX_POINT('',#591);
#591 = CARTESIAN_POINT('',(13.,-8.75,10.));
#592 = LINE('',#593,#594);
#593 = CARTESIAN_POINT('',(13.,-8.75,10.));
#594 = VECTOR('',#595,1.);
#595 = DIRECTION('',(7.642090019329E-31,1.,-1.33226762955E-15));
#596 = ORIENTED_EDGE('',*,*,#597,.F.);
#597 = EDGE_CURVE('',#357,#590,#598,.T.);
#598 = LINE('',#599,#600);
#599 = CARTESIAN_POINT('',(34.,-8.75,10.));
#600 = VECTOR('',#601,1.);
#601 = DIRECTION('',(-1.,6.732965439662E-16,-3.622239337986E-31));
#602 = ORIENTED_EDGE('',*,*,#365,.T.);
#603 = ORIENTED_EDGE('',*,*,#177,.F.);
#604 = FACE_BOUND('',#605,.T.);
#605 = EDGE_LOOP('',(#606,#616,#624,#632));
#606 = ORIENTED_EDGE('',*,*,#607,.F.);
#607 = EDGE_CURVE('',#608,#610,#612,.T.);
#608 = VERTEX_POINT('',#609);
#609 = CARTESIAN_POINT('',(29.5,-2.924037128265E-14,10.));
#610 = VERTEX_POINT('',#611);
#611 = CARTESIAN_POINT('',(22.5,-2.302312234475E-14,10.));
#612 = LINE('',#613,#614);
#613 = CARTESIAN_POINT('',(29.5,-5.555265696627E-14,10.));
#614 = VECTOR('',#615,1.);
#615 = DIRECTION('',(-1.,1.554312234475E-15,2.22044604925E-16));
#616 = ORIENTED_EDGE('',*,*,#617,.T.);
#617 = EDGE_CURVE('',#608,#618,#620,.T.);
#618 = VERTEX_POINT('',#619);
#619 = CARTESIAN_POINT('',(29.5,-8.,10.));
#620 = LINE('',#621,#622);
#621 = CARTESIAN_POINT('',(29.5,-3.812215547965E-14,10.));
#622 = VECTOR('',#623,1.);
#623 = DIRECTION('',(8.881784197001E-16,-1.,2.22044604925E-15));
#624 = ORIENTED_EDGE('',*,*,#625,.T.);
#625 = EDGE_CURVE('',#618,#626,#628,.T.);
#626 = VERTEX_POINT('',#627);
#627 = CARTESIAN_POINT('',(22.5,-8.,10.));
#628 = LINE('',#629,#630);
#629 = CARTESIAN_POINT('',(29.5,-8.,10.));
#630 = VECTOR('',#631,1.);
#631 = DIRECTION('',(-1.,1.554312234475E-15,2.22044604925E-16));
#632 = ORIENTED_EDGE('',*,*,#633,.F.);
#633 = EDGE_CURVE('',#610,#626,#634,.T.);
#634 = LINE('',#635,#636);
#635 = CARTESIAN_POINT('',(22.5,-3.190490654175E-14,10.));
#636 = VECTOR('',#637,1.);
#637 = DIRECTION('',(8.881784197001E-16,-1.,2.22044604925E-15));
#638 = PLANE('',#639);
#639 = AXIS2_PLACEMENT_3D('',#640,#641,#642);
#640 = CARTESIAN_POINT('',(20.236014144956,-11.21110255092,10.));
#641 = DIRECTION('',(-2.22044604925E-15,-4.440892098501E-16,1.));
#642 = DIRECTION('',(1.,-1.7763568394E-15,-4.440892098501E-16));
#643 = ADVANCED_FACE('',(#644),#655,.F.);
#644 = FACE_BOUND('',#645,.F.);
#645 = EDGE_LOOP('',(#646,#647,#653,#654));
#646 = ORIENTED_EDGE('',*,*,#121,.T.);
#647 = ORIENTED_EDGE('',*,*,#648,.T.);
#648 = EDGE_CURVE('',#122,#403,#649,.T.);
#649 = LINE('',#650,#651);
#650 = CARTESIAN_POINT('',(10.,4.,20.));
#651 = VECTOR('',#652,1.);
#652 = DIRECTION('',(8.881784197001E-16,-1.,2.22044604925E-15));
#653 = ORIENTED_EDGE('',*,*,#402,.F.);
#654 = ORIENTED_EDGE('',*,*,#203,.F.);
#655 = PLANE('',#656);
#656 = AXIS2_PLACEMENT_3D('',#657,#658,#659);
#657 = CARTESIAN_POINT('',(-5.240163466381E-14,4.,20.));
#658 = DIRECTION('',(2.22044604925E-15,2.240892098501E-16,-1.));
#659 = DIRECTION('',(8.881784197001E-16,-1.,2.44044604925E-15));
#660 = ADVANCED_FACE('',(#661),#720,.F.);
#661 = FACE_BOUND('',#662,.T.);
#662 = EDGE_LOOP('',(#663,#712,#713,#714));
#663 = ORIENTED_EDGE('',*,*,#664,.T.);
#664 = EDGE_CURVE('',#665,#590,#667,.T.);
#665 = VERTEX_POINT('',#666);
#666 = CARTESIAN_POINT('',(10.,-10.75,13.));
#667 = B_SPLINE_CURVE_WITH_KNOTS('',8,(#668,#669,#670,#671,#672,#673,
    #674,#675,#676,#677,#678,#679,#680,#681,#682,#683,#684,#685,#686,
    #687,#688,#689,#690,#691,#692,#693,#694,#695,#696,#697,#698,#699,
    #700,#701,#702,#703,#704,#705,#706,#707,#708,#709,#710,#711),
  .UNSPECIFIED.,.F.,.F.,(9,7,7,7,7,7,9),(0.,0.213698362456,
    0.280116389382,0.39897286252,0.47966826309,0.592047618658,1.),
  .UNSPECIFIED.);
#668 = CARTESIAN_POINT('',(10.,-10.75,13.));
#669 = CARTESIAN_POINT('',(10.,-10.62024422872,12.945935095303));
#670 = CARTESIAN_POINT('',(10.001113583217,-10.49217856165,
    12.885046918721));
#671 = CARTESIAN_POINT('',(10.003832291677,-10.36602127107,
    12.817227101599));
#672 = CARTESIAN_POINT('',(10.008750544938,-10.24211284994,
    12.742373358708));
#673 = CARTESIAN_POINT('',(10.016573445083,-10.12090316038,
    12.660429101954));
#674 = CARTESIAN_POINT('',(10.02812626333,-10.00294040826,
    12.571418778998));
#675 = CARTESIAN_POINT('',(10.044348218231,-9.888854904255,
    12.475493265494));
#676 = CARTESIAN_POINT('',(10.073061268928,-9.745290113824,
    12.341144344497));
#677 = CARTESIAN_POINT('',(10.080416838622,-9.711697906246,
    12.308661737605));
#678 = CARTESIAN_POINT('',(10.088349146164,-9.678577264215,
    12.275565689236));
#679 = CARTESIAN_POINT('',(10.096887743248,-9.645952802825,
    12.241873188854));
#680 = CARTESIAN_POINT('',(10.106061964861,-9.613850106862,
    12.207604648844));
#681 = CARTESIAN_POINT('',(10.115900442562,-9.582295400772,
    12.172784208252));
#682 = CARTESIAN_POINT('',(10.12643061775,-9.551315218635,
    12.137440036532));
#683 = CARTESIAN_POINT('',(10.15780614113,-9.466571948322,
    12.037476427457));
#684 = CARTESIAN_POINT('',(10.180236361985,-9.414119577442,
    11.97175975065));
#685 = CARTESIAN_POINT('',(10.205111949681,-9.363748396424,
    11.904658639534));
#686 = CARTESIAN_POINT('',(10.232557746414,-9.315613911678,
    11.836411509188));
#687 = CARTESIAN_POINT('',(10.262671106479,-9.269851251641,
    11.767291616014));
#688 = CARTESIAN_POINT('',(10.295511265739,-9.226569589757,
    11.697605329856));
#689 = CARTESIAN_POINT('',(10.331087378488,-9.185847439888,
    11.62768821933));
#690 = CARTESIAN_POINT('',(10.395319675603,-9.121848896185,
    11.510516819054));
#691 = CARTESIAN_POINT('',(10.42253450916,-9.097164838402,
    11.463185790133));
#692 = CARTESIAN_POINT('',(10.450975317153,-9.073689413977,
    11.416015100783));
#693 = CARTESIAN_POINT('',(10.480619595677,-9.051423609624,
    11.369109556196));
#694 = CARTESIAN_POINT('',(10.511437313537,-9.030358083312,
    11.322568908907));
#695 = CARTESIAN_POINT('',(10.543391483639,-9.010474611961,
    11.276487238147));
#696 = CARTESIAN_POINT('',(10.576438734388,-8.991747539139,
    11.230952329193));
#697 = CARTESIAN_POINT('',(10.658006454317,-8.949631595509,
    11.12350554297));
#698 = CARTESIAN_POINT('',(10.707510463324,-8.92729790871,
    11.062179644269));
#699 = CARTESIAN_POINT('',(10.758916048242,-8.907055655579,
    11.002278110493));
#700 = CARTESIAN_POINT('',(10.812088471466,-8.888789715128,
    10.943972835162));
#701 = CARTESIAN_POINT('',(10.866890277231,-8.872369675543,
    10.88740025857));
#702 = CARTESIAN_POINT('',(10.923186633241,-8.857658460369,
    10.832665148039));
#703 = CARTESIAN_POINT('',(10.980849854313,-8.844518257518,
    10.779844751282));
#704 = CARTESIAN_POINT('',(11.253626250768,-8.790324797164,
    10.544395705283));
#705 = CARTESIAN_POINT('',(11.482917249596,-8.766963169401,
    10.386647084777));
#706 = CARTESIAN_POINT('',(11.723595419965,-8.75557474788,
    10.256314026614));
#707 = CARTESIAN_POINT('',(11.972178589868,-8.751129851399,
    10.153130498015));
#708 = CARTESIAN_POINT('',(12.225824367851,-8.750003064724,
    10.076489475917));
#709 = CARTESIAN_POINT('',(12.482350315895,-8.750000005525,
    10.025669526814));
#710 = CARTESIAN_POINT('',(12.74027795103,-8.750000000006,
    10.000094637089));
#711 = CARTESIAN_POINT('',(12.998904554895,-8.75,10.0000002));
#712 = ORIENTED_EDGE('',*,*,#589,.T.);
#713 = ORIENTED_EDGE('',*,*,#137,.F.);
#714 = ORIENTED_EDGE('',*,*,#715,.F.);
#715 = EDGE_CURVE('',#665,#130,#716,.T.);
#716 = LINE('',#717,#718);
#717 = CARTESIAN_POINT('',(10.,-8.75,13.));
#718 = VECTOR('',#719,1.);
#719 = DIRECTION('',(7.642090019329E-31,1.,-1.33226762955E-15));
#720 = CYLINDRICAL_SURFACE('',#721,3.);
#721 = AXIS2_PLACEMENT_3D('',#722,#723,#724);
#722 = CARTESIAN_POINT('',(13.,-8.75,13.));
#723 = DIRECTION('',(7.642090019329E-31,1.,-1.33226762955E-15));
#724 = DIRECTION('',(-1.,-1.010728034814E-30,-1.33226762955E-15));
#725 = ADVANCED_FACE('',(#726),#764,.T.);
#726 = FACE_BOUND('',#727,.T.);
#727 = EDGE_LOOP('',(#728,#729,#730,#731,#739,#748,#756,#763));
#728 = ORIENTED_EDGE('',*,*,#129,.T.);
#729 = ORIENTED_EDGE('',*,*,#648,.T.);
#730 = ORIENTED_EDGE('',*,*,#410,.T.);
#731 = ORIENTED_EDGE('',*,*,#732,.T.);
#732 = EDGE_CURVE('',#411,#733,#735,.T.);
#733 = VERTEX_POINT('',#734);
#734 = CARTESIAN_POINT('',(10.,-30.25,10.));
#735 = LINE('',#736,#737);
#736 = CARTESIAN_POINT('',(10.,-32.,10.));
#737 = VECTOR('',#738,1.);
#738 = DIRECTION('',(-8.881784197001E-16,1.,-2.22044604925E-15));
#739 = ORIENTED_EDGE('',*,*,#740,.T.);
#740 = EDGE_CURVE('',#733,#741,#743,.T.);
#741 = VERTEX_POINT('',#742);
#742 = CARTESIAN_POINT('',(10.,-25.75,13.));
#743 = CIRCLE('',#744,3.25);
#744 = AXIS2_PLACEMENT_3D('',#745,#746,#747);
#745 = CARTESIAN_POINT('',(10.,-27.,10.));
#746 = DIRECTION('',(-1.,-2.958228394579E-31,-6.661338147751E-16));
#747 = DIRECTION('',(1.479114197289E-31,1.,-6.661338147751E-16));
#748 = ORIENTED_EDGE('',*,*,#749,.T.);
#749 = EDGE_CURVE('',#741,#750,#752,.T.);
#750 = VERTEX_POINT('',#751);
#751 = CARTESIAN_POINT('',(10.,-13.25,13.));
#752 = LINE('',#753,#754);
#753 = CARTESIAN_POINT('',(10.,-23.75,13.));
#754 = VECTOR('',#755,1.);
#755 = DIRECTION('',(7.642090019329E-31,1.,-1.33226762955E-15));
#756 = ORIENTED_EDGE('',*,*,#757,.T.);
#757 = EDGE_CURVE('',#750,#665,#758,.T.);
#758 = CIRCLE('',#759,3.25);
#759 = AXIS2_PLACEMENT_3D('',#760,#761,#762);
#760 = CARTESIAN_POINT('',(10.,-12.,10.));
#761 = DIRECTION('',(-1.,-2.958228394579E-31,-6.661338147751E-16));
#762 = DIRECTION('',(1.479114197289E-31,1.,-6.661338147751E-16));
#763 = ORIENTED_EDGE('',*,*,#715,.T.);
#764 = PLANE('',#765);
#765 = AXIS2_PLACEMENT_3D('',#766,#767,#768);
#766 = CARTESIAN_POINT('',(10.,-14.,5.));
#767 = DIRECTION('',(1.,-1.7763568394E-15,-4.440892098501E-16));
#768 = DIRECTION('',(-2.22044604925E-15,-4.440892098501E-16,1.));
#769 = ADVANCED_FACE('',(#770),#795,.F.);
#770 = FACE_BOUND('',#771,.F.);
#771 = EDGE_LOOP('',(#772,#780,#788,#794));
#772 = ORIENTED_EDGE('',*,*,#773,.T.);
#773 = EDGE_CURVE('',#212,#774,#776,.T.);
#774 = VERTEX_POINT('',#775);
#775 = CARTESIAN_POINT('',(5.,-0.85,-7.587713240271));
#776 = LINE('',#777,#778);
#777 = CARTESIAN_POINT('',(8.522420516057E-15,-0.85,-7.587713240271));
#778 = VECTOR('',#779,1.);
#779 = DIRECTION('',(1.,-2.22044604925E-16,1.110223024625E-16));
#780 = ORIENTED_EDGE('',*,*,#781,.T.);
#781 = EDGE_CURVE('',#774,#782,#784,.T.);
#782 = VERTEX_POINT('',#783);
#783 = CARTESIAN_POINT('',(5.,-3.6,-9.175426480543));
#784 = LINE('',#785,#786);
#785 = CARTESIAN_POINT('',(5.,-0.85,-7.587713240271));
#786 = VECTOR('',#787,1.);
#787 = DIRECTION('',(4.698520247946E-16,-0.866025403784,-0.5));
#788 = ORIENTED_EDGE('',*,*,#789,.F.);
#789 = EDGE_CURVE('',#214,#782,#790,.T.);
#790 = LINE('',#791,#792);
#791 = CARTESIAN_POINT('',(9.051235254812E-15,-3.6,-9.175426480543));
#792 = VECTOR('',#793,1.);
#793 = DIRECTION('',(1.,-2.22044604925E-16,1.110223024625E-16));
#794 = ORIENTED_EDGE('',*,*,#211,.F.);
#795 = PLANE('',#796);
#796 = AXIS2_PLACEMENT_3D('',#797,#798,#799);
#797 = CARTESIAN_POINT('',(8.522420516057E-15,-0.85,-7.587713240271));
#798 = DIRECTION('',(2.071704367817E-16,0.5,-0.866025403784));
#799 = DIRECTION('',(1.665334536938E-16,-0.866025403784,-0.5));
#800 = ADVANCED_FACE('',(#801),#819,.F.);
#801 = FACE_BOUND('',#802,.F.);
#802 = EDGE_LOOP('',(#803,#811,#817,#818));
#803 = ORIENTED_EDGE('',*,*,#804,.T.);
#804 = EDGE_CURVE('',#246,#805,#807,.T.);
#805 = VERTEX_POINT('',#806);
#806 = CARTESIAN_POINT('',(5.,-0.85,-4.412286759729));
#807 = LINE('',#808,#809);
#808 = CARTESIAN_POINT('',(7.464791038546E-15,-0.85,-4.412286759729));
#809 = VECTOR('',#810,1.);
#810 = DIRECTION('',(1.,-2.22044604925E-16,1.110223024625E-16));
#811 = ORIENTED_EDGE('',*,*,#812,.T.);
#812 = EDGE_CURVE('',#805,#774,#813,.T.);
#813 = LINE('',#814,#815);
#814 = CARTESIAN_POINT('',(5.,-0.85,-4.412286759729));
#815 = VECTOR('',#816,1.);
#816 = DIRECTION('',(5.551115123126E-16,1.459852603968E-16,-1.));
#817 = ORIENTED_EDGE('',*,*,#773,.F.);
#818 = ORIENTED_EDGE('',*,*,#253,.F.);
#819 = PLANE('',#820);
#820 = AXIS2_PLACEMENT_3D('',#821,#822,#823);
#821 = CARTESIAN_POINT('',(7.464791038546E-15,-0.85,-4.412286759729));
#822 = DIRECTION('',(2.22044604925E-16,1.,-7.605934452827E-17));
#823 = DIRECTION('',(3.330669073875E-16,-7.605934452827E-17,-1.));
#824 = ADVANCED_FACE('',(#825),#843,.F.);
#825 = FACE_BOUND('',#826,.F.);
#826 = EDGE_LOOP('',(#827,#835,#841,#842));
#827 = ORIENTED_EDGE('',*,*,#828,.T.);
#828 = EDGE_CURVE('',#238,#829,#831,.T.);
#829 = VERTEX_POINT('',#830);
#830 = CARTESIAN_POINT('',(5.,-3.6,-2.824573519457));
#831 = LINE('',#832,#833);
#832 = CARTESIAN_POINT('',(6.93597629979E-15,-3.6,-2.824573519457));
#833 = VECTOR('',#834,1.);
#834 = DIRECTION('',(1.,-2.22044604925E-16,1.110223024625E-16));
#835 = ORIENTED_EDGE('',*,*,#836,.T.);
#836 = EDGE_CURVE('',#829,#805,#837,.T.);
#837 = LINE('',#838,#839);
#838 = CARTESIAN_POINT('',(5.,-3.6,-2.824573519457));
#839 = VECTOR('',#840,1.);
#840 = DIRECTION('',(8.525948751793E-17,0.866025403784,-0.5));
#841 = ORIENTED_EDGE('',*,*,#804,.F.);
#842 = ORIENTED_EDGE('',*,*,#245,.F.);
#843 = PLANE('',#844);
#844 = AXIS2_PLACEMENT_3D('',#845,#846,#847);
#845 = CARTESIAN_POINT('',(6.93597629979E-15,-3.6,-2.824573519457));
#846 = DIRECTION('',(1.487416814334E-17,0.5,0.866025403784));
#847 = DIRECTION('',(1.665334536938E-16,0.866025403784,-0.5));
#848 = ADVANCED_FACE('',(#849),#867,.F.);
#849 = FACE_BOUND('',#850,.F.);
#850 = EDGE_LOOP('',(#851,#859,#865,#866));
#851 = ORIENTED_EDGE('',*,*,#852,.T.);
#852 = EDGE_CURVE('',#230,#853,#855,.T.);
#853 = VERTEX_POINT('',#854);
#854 = CARTESIAN_POINT('',(5.,-6.35,-4.412286759729));
#855 = LINE('',#856,#857);
#856 = CARTESIAN_POINT('',(7.464791038546E-15,-6.35,-4.412286759729));
#857 = VECTOR('',#858,1.);
#858 = DIRECTION('',(1.,-2.22044604925E-16,1.110223024625E-16));
#859 = ORIENTED_EDGE('',*,*,#860,.T.);
#860 = EDGE_CURVE('',#853,#829,#861,.T.);
#861 = LINE('',#862,#863);
#862 = CARTESIAN_POINT('',(5.,-6.35,-4.412286759729));
#863 = VECTOR('',#864,1.);
#864 = DIRECTION('',(-4.698520247946E-16,0.866025403784,0.5));
#865 = ORIENTED_EDGE('',*,*,#828,.F.);
#866 = ORIENTED_EDGE('',*,*,#237,.F.);
#867 = PLANE('',#868);
#868 = AXIS2_PLACEMENT_3D('',#869,#870,#871);
#869 = CARTESIAN_POINT('',(7.464791038546E-15,-6.35,-4.412286759729));
#870 = DIRECTION('',(-2.071704367817E-16,-0.5,0.866025403784));
#871 = DIRECTION('',(-1.665334536938E-16,0.866025403784,0.5));
#872 = ADVANCED_FACE('',(#873),#891,.F.);
#873 = FACE_BOUND('',#874,.F.);
#874 = EDGE_LOOP('',(#875,#883,#889,#890));
#875 = ORIENTED_EDGE('',*,*,#876,.T.);
#876 = EDGE_CURVE('',#222,#877,#879,.T.);
#877 = VERTEX_POINT('',#878);
#878 = CARTESIAN_POINT('',(5.,-6.35,-7.587713240271));
#879 = LINE('',#880,#881);
#880 = CARTESIAN_POINT('',(8.522420516057E-15,-6.35,-7.587713240271));
#881 = VECTOR('',#882,1.);
#882 = DIRECTION('',(1.,-2.22044604925E-16,1.110223024625E-16));
#883 = ORIENTED_EDGE('',*,*,#884,.T.);
#884 = EDGE_CURVE('',#877,#853,#885,.T.);
#885 = LINE('',#886,#887);
#886 = CARTESIAN_POINT('',(5.,-6.35,-7.587713240271));
#887 = VECTOR('',#888,1.);
#888 = DIRECTION('',(-5.551115123126E-16,-1.110223024625E-16,1.));
#889 = ORIENTED_EDGE('',*,*,#852,.F.);
#890 = ORIENTED_EDGE('',*,*,#229,.F.);
#891 = PLANE('',#892);
#892 = AXIS2_PLACEMENT_3D('',#893,#894,#895);
#893 = CARTESIAN_POINT('',(8.522420516057E-15,-6.35,-7.587713240271));
#894 = DIRECTION('',(-2.22044604925E-16,-1.,1.110223024625E-16));
#895 = DIRECTION('',(-3.330669073875E-16,1.110223024625E-16,1.));
#896 = ADVANCED_FACE('',(#897),#908,.F.);
#897 = FACE_BOUND('',#898,.F.);
#898 = EDGE_LOOP('',(#899,#900,#906,#907));
#899 = ORIENTED_EDGE('',*,*,#789,.T.);
#900 = ORIENTED_EDGE('',*,*,#901,.T.);
#901 = EDGE_CURVE('',#782,#877,#902,.T.);
#902 = LINE('',#903,#904);
#903 = CARTESIAN_POINT('',(5.,-3.6,-9.175426480543));
#904 = VECTOR('',#905,1.);
#905 = DIRECTION('',(-8.525948751793E-17,-0.866025403784,0.5));
#906 = ORIENTED_EDGE('',*,*,#876,.F.);
#907 = ORIENTED_EDGE('',*,*,#221,.F.);
#908 = PLANE('',#909);
#909 = AXIS2_PLACEMENT_3D('',#910,#911,#912);
#910 = CARTESIAN_POINT('',(9.051235254812E-15,-3.6,-9.175426480543));
#911 = DIRECTION('',(-1.487416814334E-17,-0.5,-0.866025403784));
#912 = DIRECTION('',(-1.665334536938E-16,-0.866025403784,0.5));
#913 = ADVANCED_FACE('',(#914),#939,.F.);
#914 = FACE_BOUND('',#915,.F.);
#915 = EDGE_LOOP('',(#916,#924,#932,#938));
#916 = ORIENTED_EDGE('',*,*,#917,.T.);
#917 = EDGE_CURVE('',#262,#918,#920,.T.);
#918 = VERTEX_POINT('',#919);
#919 = CARTESIAN_POINT('',(5.,-0.85,4.412286759729));
#920 = LINE('',#921,#922);
#921 = CARTESIAN_POINT('',(4.525617627406E-15,-0.85,4.412286759729));
#922 = VECTOR('',#923,1.);
#923 = DIRECTION('',(1.,-2.22044604925E-16,1.110223024625E-16));
#924 = ORIENTED_EDGE('',*,*,#925,.T.);
#925 = EDGE_CURVE('',#918,#926,#928,.T.);
#926 = VERTEX_POINT('',#927);
#927 = CARTESIAN_POINT('',(5.,-3.6,2.824573519457));
#928 = LINE('',#929,#930);
#929 = CARTESIAN_POINT('',(5.,-0.85,4.412286759729));
#930 = VECTOR('',#931,1.);
#931 = DIRECTION('',(4.698520247946E-16,-0.866025403784,-0.5));
#932 = ORIENTED_EDGE('',*,*,#933,.F.);
#933 = EDGE_CURVE('',#264,#926,#934,.T.);
#934 = LINE('',#935,#936);
#935 = CARTESIAN_POINT('',(5.054432366162E-15,-3.6,2.824573519457));
#936 = VECTOR('',#937,1.);
#937 = DIRECTION('',(1.,-2.22044604925E-16,1.110223024625E-16));
#938 = ORIENTED_EDGE('',*,*,#261,.F.);
#939 = PLANE('',#940);
#940 = AXIS2_PLACEMENT_3D('',#941,#942,#943);
#941 = CARTESIAN_POINT('',(4.525617627406E-15,-0.85,4.412286759729));
#942 = DIRECTION('',(2.071704367817E-16,0.5,-0.866025403784));
#943 = DIRECTION('',(1.665334536938E-16,-0.866025403784,-0.5));
#944 = ADVANCED_FACE('',(#945),#963,.F.);
#945 = FACE_BOUND('',#946,.F.);
#946 = EDGE_LOOP('',(#947,#955,#961,#962));
#947 = ORIENTED_EDGE('',*,*,#948,.T.);
#948 = EDGE_CURVE('',#296,#949,#951,.T.);
#949 = VERTEX_POINT('',#950);
#950 = CARTESIAN_POINT('',(5.,-0.85,7.587713240271));
#951 = LINE('',#952,#953);
#952 = CARTESIAN_POINT('',(3.467988149895E-15,-0.85,7.587713240271));
#953 = VECTOR('',#954,1.);
#954 = DIRECTION('',(1.,-2.22044604925E-16,1.110223024625E-16));
#955 = ORIENTED_EDGE('',*,*,#956,.T.);
#956 = EDGE_CURVE('',#949,#918,#957,.T.);
#957 = LINE('',#958,#959);
#958 = CARTESIAN_POINT('',(5.,-0.85,7.587713240271));
#959 = VECTOR('',#960,1.);
#960 = DIRECTION('',(5.551115123126E-16,1.80948218331E-16,-1.));
#961 = ORIENTED_EDGE('',*,*,#917,.F.);
#962 = ORIENTED_EDGE('',*,*,#303,.F.);
#963 = PLANE('',#964);
#964 = AXIS2_PLACEMENT_3D('',#965,#966,#967);
#965 = CARTESIAN_POINT('',(3.467988149895E-15,-0.85,7.587713240271));
#966 = DIRECTION('',(2.22044604925E-16,1.,-4.109638659402E-17));
#967 = DIRECTION('',(3.330669073875E-16,-4.109638659402E-17,-1.));
#968 = ADVANCED_FACE('',(#969),#987,.F.);
#969 = FACE_BOUND('',#970,.F.);
#970 = EDGE_LOOP('',(#971,#979,#985,#986));
#971 = ORIENTED_EDGE('',*,*,#972,.T.);
#972 = EDGE_CURVE('',#288,#973,#975,.T.);
#973 = VERTEX_POINT('',#974);
#974 = CARTESIAN_POINT('',(5.,-3.6,9.175426480543));
#975 = LINE('',#976,#977);
#976 = CARTESIAN_POINT('',(2.93917341114E-15,-3.6,9.175426480543));
#977 = VECTOR('',#978,1.);
#978 = DIRECTION('',(1.,-2.22044604925E-16,1.110223024625E-16));
#979 = ORIENTED_EDGE('',*,*,#980,.T.);
#980 = EDGE_CURVE('',#973,#949,#981,.T.);
#981 = LINE('',#982,#983);
#982 = CARTESIAN_POINT('',(5.,-3.6,9.175426480543));
#983 = VECTOR('',#984,1.);
#984 = DIRECTION('',(8.525948751793E-17,0.866025403784,-0.5));
#985 = ORIENTED_EDGE('',*,*,#948,.F.);
#986 = ORIENTED_EDGE('',*,*,#295,.F.);
#987 = PLANE('',#988);
#988 = AXIS2_PLACEMENT_3D('',#989,#990,#991);
#989 = CARTESIAN_POINT('',(2.93917341114E-15,-3.6,9.175426480543));
#990 = DIRECTION('',(1.487416814334E-17,0.5,0.866025403784));
#991 = DIRECTION('',(1.665334536938E-16,0.866025403784,-0.5));
#992 = ADVANCED_FACE('',(#993),#1011,.F.);
#993 = FACE_BOUND('',#994,.F.);
#994 = EDGE_LOOP('',(#995,#1003,#1009,#1010));
#995 = ORIENTED_EDGE('',*,*,#996,.T.);
#996 = EDGE_CURVE('',#280,#997,#999,.T.);
#997 = VERTEX_POINT('',#998);
#998 = CARTESIAN_POINT('',(5.,-6.35,7.587713240271));
#999 = LINE('',#1000,#1001);
#1000 = CARTESIAN_POINT('',(3.467988149895E-15,-6.35,7.587713240271));
#1001 = VECTOR('',#1002,1.);
#1002 = DIRECTION('',(1.,-2.22044604925E-16,1.110223024625E-16));
#1003 = ORIENTED_EDGE('',*,*,#1004,.T.);
#1004 = EDGE_CURVE('',#997,#973,#1005,.T.);
#1005 = LINE('',#1006,#1007);
#1006 = CARTESIAN_POINT('',(5.,-6.35,7.587713240271));
#1007 = VECTOR('',#1008,1.);
#1008 = DIRECTION('',(-4.698520247946E-16,0.866025403784,0.5));
#1009 = ORIENTED_EDGE('',*,*,#972,.F.);
#1010 = ORIENTED_EDGE('',*,*,#287,.F.);
#1011 = PLANE('',#1012);
#1012 = AXIS2_PLACEMENT_3D('',#1013,#1014,#1015);
#1013 = CARTESIAN_POINT('',(3.467988149895E-15,-6.35,7.587713240271));
#1014 = DIRECTION('',(-2.071704367817E-16,-0.5,0.866025403784));
#1015 = DIRECTION('',(-1.665334536938E-16,0.866025403784,0.5));
#1016 = ADVANCED_FACE('',(#1017),#1035,.F.);
#1017 = FACE_BOUND('',#1018,.F.);
#1018 = EDGE_LOOP('',(#1019,#1027,#1033,#1034));
#1019 = ORIENTED_EDGE('',*,*,#1020,.T.);
#1020 = EDGE_CURVE('',#272,#1021,#1023,.T.);
#1021 = VERTEX_POINT('',#1022);
#1022 = CARTESIAN_POINT('',(5.,-6.35,4.412286759729));
#1023 = LINE('',#1024,#1025);
#1024 = CARTESIAN_POINT('',(4.525617627406E-15,-6.35,4.412286759729));
#1025 = VECTOR('',#1026,1.);
#1026 = DIRECTION('',(1.,-2.22044604925E-16,1.110223024625E-16));
#1027 = ORIENTED_EDGE('',*,*,#1028,.T.);
#1028 = EDGE_CURVE('',#1021,#997,#1029,.T.);
#1029 = LINE('',#1030,#1031);
#1030 = CARTESIAN_POINT('',(5.,-6.35,4.412286759729));
#1031 = VECTOR('',#1032,1.);
#1032 = DIRECTION('',(-5.551115123126E-16,-1.110223024625E-16,1.));
#1033 = ORIENTED_EDGE('',*,*,#996,.F.);
#1034 = ORIENTED_EDGE('',*,*,#279,.F.);
#1035 = PLANE('',#1036);
#1036 = AXIS2_PLACEMENT_3D('',#1037,#1038,#1039);
#1037 = CARTESIAN_POINT('',(4.525617627406E-15,-6.35,4.412286759729));
#1038 = DIRECTION('',(-2.22044604925E-16,-1.,1.110223024625E-16));
#1039 = DIRECTION('',(-3.330669073875E-16,1.110223024625E-16,1.));
#1040 = ADVANCED_FACE('',(#1041),#1052,.F.);
#1041 = FACE_BOUND('',#1042,.F.);
#1042 = EDGE_LOOP('',(#1043,#1044,#1050,#1051));
#1043 = ORIENTED_EDGE('',*,*,#933,.T.);
#1044 = ORIENTED_EDGE('',*,*,#1045,.T.);
#1045 = EDGE_CURVE('',#926,#1021,#1046,.T.);
#1046 = LINE('',#1047,#1048);
#1047 = CARTESIAN_POINT('',(5.,-3.6,2.824573519457));
#1048 = VECTOR('',#1049,1.);
#1049 = DIRECTION('',(-8.525948751793E-17,-0.866025403784,0.5));
#1050 = ORIENTED_EDGE('',*,*,#1020,.F.);
#1051 = ORIENTED_EDGE('',*,*,#271,.F.);
#1052 = PLANE('',#1053);
#1053 = AXIS2_PLACEMENT_3D('',#1054,#1055,#1056);
#1054 = CARTESIAN_POINT('',(5.054432366162E-15,-3.6,2.824573519457));
#1055 = DIRECTION('',(-1.487416814334E-17,-0.5,-0.866025403784));
#1056 = DIRECTION('',(-1.665334536938E-16,-0.866025403784,0.5));
#1057 = ADVANCED_FACE('',(#1058),#1077,.F.);
#1058 = FACE_BOUND('',#1059,.T.);
#1059 = EDGE_LOOP('',(#1060,#1068,#1075,#1076));
#1060 = ORIENTED_EDGE('',*,*,#1061,.F.);
#1061 = EDGE_CURVE('',#1062,#312,#1064,.T.);
#1062 = VERTEX_POINT('',#1063);
#1063 = CARTESIAN_POINT('',(3.,-10.4,10.));
#1064 = LINE('',#1065,#1066);
#1065 = CARTESIAN_POINT('',(3.,-10.4,10.));
#1066 = VECTOR('',#1067,1.);
#1067 = DIRECTION('',(-1.,6.016760312472E-16,-3.145150884449E-31));
#1068 = ORIENTED_EDGE('',*,*,#1069,.T.);
#1069 = EDGE_CURVE('',#1062,#1062,#1070,.T.);
#1070 = CIRCLE('',#1071,1.6);
#1071 = AXIS2_PLACEMENT_3D('',#1072,#1073,#1074);
#1072 = CARTESIAN_POINT('',(3.,-12.,10.));
#1073 = DIRECTION('',(1.,2.958228394579E-31,6.661338147751E-16));
#1074 = DIRECTION('',(1.479114197289E-31,1.,-6.661338147751E-16));
#1075 = ORIENTED_EDGE('',*,*,#1061,.T.);
#1076 = ORIENTED_EDGE('',*,*,#311,.T.);
#1077 = CYLINDRICAL_SURFACE('',#1078,1.6);
#1078 = AXIS2_PLACEMENT_3D('',#1079,#1080,#1081);
#1079 = CARTESIAN_POINT('',(3.,-12.,10.));
#1080 = DIRECTION('',(-1.,6.661338147751E-16,-3.574525976783E-31));
#1081 = DIRECTION('',(1.479114197289E-31,1.,-6.661338147751E-16));
#1082 = ADVANCED_FACE('',(#1083),#1102,.F.);
#1083 = FACE_BOUND('',#1084,.T.);
#1084 = EDGE_LOOP('',(#1085,#1093,#1100,#1101));
#1085 = ORIENTED_EDGE('',*,*,#1086,.F.);
#1086 = EDGE_CURVE('',#1087,#323,#1089,.T.);
#1087 = VERTEX_POINT('',#1088);
#1088 = CARTESIAN_POINT('',(3.,-25.4,10.));
#1089 = LINE('',#1090,#1091);
#1090 = CARTESIAN_POINT('',(3.,-25.4,10.));
#1091 = VECTOR('',#1092,1.);
#1092 = DIRECTION('',(-1.,6.016760312472E-16,-3.145150884449E-31));
#1093 = ORIENTED_EDGE('',*,*,#1094,.T.);
#1094 = EDGE_CURVE('',#1087,#1087,#1095,.T.);
#1095 = CIRCLE('',#1096,1.6);
#1096 = AXIS2_PLACEMENT_3D('',#1097,#1098,#1099);
#1097 = CARTESIAN_POINT('',(3.,-27.,10.));
#1098 = DIRECTION('',(1.,2.958228394579E-31,6.661338147751E-16));
#1099 = DIRECTION('',(1.479114197289E-31,1.,-6.661338147751E-16));
#1100 = ORIENTED_EDGE('',*,*,#1086,.T.);
#1101 = ORIENTED_EDGE('',*,*,#322,.T.);
#1102 = CYLINDRICAL_SURFACE('',#1103,1.6);
#1103 = AXIS2_PLACEMENT_3D('',#1104,#1105,#1106);
#1104 = CARTESIAN_POINT('',(3.,-27.,10.));
#1105 = DIRECTION('',(-1.,6.661338147751E-16,-3.574525976783E-31));
#1106 = DIRECTION('',(1.479114197289E-31,1.,-6.661338147751E-16));
#1107 = ADVANCED_FACE('',(#1108),#1134,.T.);
#1108 = FACE_BOUND('',#1109,.T.);
#1109 = EDGE_LOOP('',(#1110,#1118,#1126,#1132,#1133));
#1110 = ORIENTED_EDGE('',*,*,#1111,.T.);
#1111 = EDGE_CURVE('',#349,#1112,#1114,.T.);
#1112 = VERTEX_POINT('',#1113);
#1113 = CARTESIAN_POINT('',(13.,-15.25,10.));
#1114 = LINE('',#1115,#1116);
#1115 = CARTESIAN_POINT('',(34.,-15.25,10.));
#1116 = VECTOR('',#1117,1.);
#1117 = DIRECTION('',(-1.,6.661338147751E-16,-3.574525976783E-31));
#1118 = ORIENTED_EDGE('',*,*,#1119,.F.);
#1119 = EDGE_CURVE('',#1120,#1112,#1122,.T.);
#1120 = VERTEX_POINT('',#1121);
#1121 = CARTESIAN_POINT('',(13.,-23.75,10.));
#1122 = LINE('',#1123,#1124);
#1123 = CARTESIAN_POINT('',(13.,-23.75,10.));
#1124 = VECTOR('',#1125,1.);
#1125 = DIRECTION('',(7.642090019329E-31,1.,-1.33226762955E-15));
#1126 = ORIENTED_EDGE('',*,*,#1127,.F.);
#1127 = EDGE_CURVE('',#444,#1120,#1128,.T.);
#1128 = LINE('',#1129,#1130);
#1129 = CARTESIAN_POINT('',(34.,-23.75,10.));
#1130 = VECTOR('',#1131,1.);
#1131 = DIRECTION('',(-1.,6.732965439662E-16,-3.622239337986E-31));
#1132 = ORIENTED_EDGE('',*,*,#452,.T.);
#1133 = ORIENTED_EDGE('',*,*,#348,.T.);
#1134 = PLANE('',#1135);
#1135 = AXIS2_PLACEMENT_3D('',#1136,#1137,#1138);
#1136 = CARTESIAN_POINT('',(20.236014144956,-11.21110255092,10.));
#1137 = DIRECTION('',(-2.22044604925E-15,-4.440892098501E-16,1.));
#1138 = DIRECTION('',(1.,-1.7763568394E-15,-4.440892098501E-16));
#1139 = ADVANCED_FACE('',(#1140),#1219,.F.);
#1140 = FACE_BOUND('',#1141,.T.);
#1141 = EDGE_LOOP('',(#1142,#1143,#1144,#1145,#1146,#1154,#1162,#1169,
    #1170,#1171,#1172));
#1142 = ORIENTED_EDGE('',*,*,#1111,.F.);
#1143 = ORIENTED_EDGE('',*,*,#356,.T.);
#1144 = ORIENTED_EDGE('',*,*,#597,.T.);
#1145 = ORIENTED_EDGE('',*,*,#664,.F.);
#1146 = ORIENTED_EDGE('',*,*,#1147,.T.);
#1147 = EDGE_CURVE('',#665,#1148,#1150,.T.);
#1148 = VERTEX_POINT('',#1149);
#1149 = CARTESIAN_POINT('',(10.,-8.75,10.));
#1150 = LINE('',#1151,#1152);
#1151 = CARTESIAN_POINT('',(34.,-8.75,10.));
#1152 = VECTOR('',#1153,1.);
#1153 = DIRECTION('',(-1.,4.512519390412E-16,-2.22044604925E-16));
#1154 = ORIENTED_EDGE('',*,*,#1155,.T.);
#1155 = EDGE_CURVE('',#1148,#1156,#1158,.T.);
#1156 = VERTEX_POINT('',#1157);
#1157 = CARTESIAN_POINT('',(3.,-8.75,10.));
#1158 = LINE('',#1159,#1160);
#1159 = CARTESIAN_POINT('',(34.,-8.75,10.));
#1160 = VECTOR('',#1161,1.);
#1161 = DIRECTION('',(-1.,6.732965439662E-16,-3.622239337986E-31));
#1162 = ORIENTED_EDGE('',*,*,#1163,.F.);
#1163 = EDGE_CURVE('',#1156,#1156,#1164,.T.);
#1164 = CIRCLE('',#1165,3.25);
#1165 = AXIS2_PLACEMENT_3D('',#1166,#1167,#1168);
#1166 = CARTESIAN_POINT('',(3.,-12.,10.));
#1167 = DIRECTION('',(1.,2.958228394579E-31,6.661338147751E-16));
#1168 = DIRECTION('',(1.479114197289E-31,1.,-6.661338147751E-16));
#1169 = ORIENTED_EDGE('',*,*,#1155,.F.);
#1170 = ORIENTED_EDGE('',*,*,#1147,.F.);
#1171 = ORIENTED_EDGE('',*,*,#757,.F.);
#1172 = ORIENTED_EDGE('',*,*,#1173,.T.);
#1173 = EDGE_CURVE('',#750,#1112,#1174,.T.);
#1174 = B_SPLINE_CURVE_WITH_KNOTS('',8,(#1175,#1176,#1177,#1178,#1179,
    #1180,#1181,#1182,#1183,#1184,#1185,#1186,#1187,#1188,#1189,#1190,
    #1191,#1192,#1193,#1194,#1195,#1196,#1197,#1198,#1199,#1200,#1201,
    #1202,#1203,#1204,#1205,#1206,#1207,#1208,#1209,#1210,#1211,#1212,
    #1213,#1214,#1215,#1216,#1217,#1218),.UNSPECIFIED.,.F.,.F.,(9,7,7,7,
    7,7,9),(0.,0.213436852531,0.279842908586,0.398662735803,
    0.483058054082,0.592937459328,1.),.UNSPECIFIED.);
#1175 = CARTESIAN_POINT('',(10.,-13.25,13.));
#1176 = CARTESIAN_POINT('',(10.,-13.37962637035,12.94598901235));
#1177 = CARTESIAN_POINT('',(10.001110908367,-13.5075630536,
    12.885170015598));
#1178 = CARTESIAN_POINT('',(10.003824801447,-13.63359425563,
    12.817432859807));
#1179 = CARTESIAN_POINT('',(10.008730565496,-13.7573837193,
    12.742677494729));
#1180 = CARTESIAN_POINT('',(10.016533017007,-13.87848245308,
    12.660845300301));
#1181 = CARTESIAN_POINT('',(10.028056545491,-13.99634238526,
    12.571959319575));
#1182 = CARTESIAN_POINT('',(10.044233278754,-14.11033594348,
    12.47617339409));
#1183 = CARTESIAN_POINT('',(10.072871568654,-14.25383309152,
    12.341988428847));
#1184 = CARTESIAN_POINT('',(10.080214275924,-14.28743680709,
    12.309519041767));
#1185 = CARTESIAN_POINT('',(10.088133174027,-14.32056940895,
    12.276435862196));
#1186 = CARTESIAN_POINT('',(10.096657818837,-14.35320629688,
    12.2427558264));
#1187 = CARTESIAN_POINT('',(10.105817554874,-14.38532189756,
    12.208499289202));
#1188 = CARTESIAN_POINT('',(10.115641029646,-14.41688999403,
    12.173690328036));
#1189 = CARTESIAN_POINT('',(10.126155707999,-14.44788405516,
    12.138357046995));
#1190 = CARTESIAN_POINT('',(10.157484139286,-14.53266043045,
    12.0384301965));
#1191 = CARTESIAN_POINT('',(10.17988113952,-14.58513356239,
    11.972738388879));
#1192 = CARTESIAN_POINT('',(10.204721564748,-14.63552761323,
    11.905659972154));
#1193 = CARTESIAN_POINT('',(10.232130482685,-14.6836870403,
    11.837432861462));
#1194 = CARTESIAN_POINT('',(10.262205560207,-14.72947656259,
    11.768329860068));
#1195 = CARTESIAN_POINT('',(10.295006427557,-14.77278675234,
    11.698656958946));
#1196 = CARTESIAN_POINT('',(10.330542697754,-14.81353876154,
    11.628749448829));
#1197 = CARTESIAN_POINT('',(10.39590607285,-14.87878494545,
    11.509399963219));
#1198 = CARTESIAN_POINT('',(10.424409179365,-14.90457347637,
    11.459887751059));
#1199 = CARTESIAN_POINT('',(10.454253484315,-14.92903881956,
    11.410554614095));
#1200 = CARTESIAN_POINT('',(10.485412838269,-14.95218024638,
    11.361520474859));
#1201 = CARTESIAN_POINT('',(10.517852168444,-14.97400941463,
    11.31289902689));
#1202 = CARTESIAN_POINT('',(10.551528228363,-14.99454852709,
    11.264796989051));
#1203 = CARTESIAN_POINT('',(10.586390347522,-15.0138284901,
    11.217313359838));
#1204 = CARTESIAN_POINT('',(10.669239839351,-15.05539863994,
    11.10963985624));
#1205 = CARTESIAN_POINT('',(10.718014972832,-15.07684142435,
    11.049938779626));
#1206 = CARTESIAN_POINT('',(10.768587484179,-15.09630193699,
    10.99162714791));
#1207 = CARTESIAN_POINT('',(10.820830950766,-15.11388980514,
    10.934861300262));
#1208 = CARTESIAN_POINT('',(10.874617059782,-15.129727854,
    10.879765396609));
#1209 = CARTESIAN_POINT('',(10.929820326785,-15.1439445425,
    10.826434891208));
#1210 = CARTESIAN_POINT('',(10.986322097674,-15.15666875252,
    10.774940292154));
#1211 = CARTESIAN_POINT('',(11.257740371322,-15.2101047833,
    10.541547901129));
#1212 = CARTESIAN_POINT('',(11.486761724423,-15.23323051813,
    10.384533525281));
#1213 = CARTESIAN_POINT('',(11.727073367158,-15.24449813624,
    10.254825810666));
#1214 = CARTESIAN_POINT('',(11.975226476019,-15.24889057414,
    10.152152962603));
#1215 = CARTESIAN_POINT('',(12.228404974128,-15.24999994601,
    10.075909552336));
#1216 = CARTESIAN_POINT('',(12.484445189229,-15.24999999128,
    10.025381420039));
#1217 = CARTESIAN_POINT('',(12.741877727348,-15.25,10.));
#1218 = CARTESIAN_POINT('',(13.,-15.25,10.));
#1219 = CYLINDRICAL_SURFACE('',#1220,3.25);
#1220 = AXIS2_PLACEMENT_3D('',#1221,#1222,#1223);
#1221 = CARTESIAN_POINT('',(34.,-12.,10.));
#1222 = DIRECTION('',(-1.,6.661338147751E-16,-3.574525976783E-31));
#1223 = DIRECTION('',(1.479114197289E-31,1.,-6.661338147751E-16));
#1224 = ADVANCED_FACE('',(#1225),#1244,.F.);
#1225 = FACE_BOUND('',#1226,.T.);
#1226 = EDGE_LOOP('',(#1227,#1235,#1236,#1237));
#1227 = ORIENTED_EDGE('',*,*,#1228,.F.);
#1228 = EDGE_CURVE('',#375,#1229,#1231,.T.);
#1229 = VERTEX_POINT('',#1230);
#1230 = CARTESIAN_POINT('',(32.,-0.35,6.));
#1231 = LINE('',#1232,#1233);
#1232 = CARTESIAN_POINT('',(34.,-0.35,6.));
#1233 = VECTOR('',#1234,1.);
#1234 = DIRECTION('',(-1.,1.110223024625E-15,1.110223024625E-16));
#1235 = ORIENTED_EDGE('',*,*,#374,.T.);
#1236 = ORIENTED_EDGE('',*,*,#1228,.T.);
#1237 = ORIENTED_EDGE('',*,*,#1238,.F.);
#1238 = EDGE_CURVE('',#1229,#1229,#1239,.T.);
#1239 = CIRCLE('',#1240,3.25);
#1240 = AXIS2_PLACEMENT_3D('',#1241,#1242,#1243);
#1241 = CARTESIAN_POINT('',(32.,-3.6,6.));
#1242 = DIRECTION('',(1.,2.22044604925E-16,1.221245327088E-15));
#1243 = DIRECTION('',(-2.22044604925E-16,1.,-1.221245327088E-15));
#1244 = CYLINDRICAL_SURFACE('',#1245,3.25);
#1245 = AXIS2_PLACEMENT_3D('',#1246,#1247,#1248);
#1246 = CARTESIAN_POINT('',(34.,-3.6,6.));
#1247 = DIRECTION('',(-1.,1.110223024625E-15,1.110223024625E-16));
#1248 = DIRECTION('',(-2.22044604925E-16,1.,-1.221245327088E-15));
#1249 = ADVANCED_FACE('',(#1250),#1269,.F.);
#1250 = FACE_BOUND('',#1251,.T.);
#1251 = EDGE_LOOP('',(#1252,#1260,#1261,#1262));
#1252 = ORIENTED_EDGE('',*,*,#1253,.F.);
#1253 = EDGE_CURVE('',#386,#1254,#1256,.T.);
#1254 = VERTEX_POINT('',#1255);
#1255 = CARTESIAN_POINT('',(32.,-0.35,-6.));
#1256 = LINE('',#1257,#1258);
#1257 = CARTESIAN_POINT('',(34.,-0.35,-6.));
#1258 = VECTOR('',#1259,1.);
#1259 = DIRECTION('',(-1.,1.110223024625E-15,1.110223024625E-16));
#1260 = ORIENTED_EDGE('',*,*,#385,.T.);
#1261 = ORIENTED_EDGE('',*,*,#1253,.T.);
#1262 = ORIENTED_EDGE('',*,*,#1263,.F.);
#1263 = EDGE_CURVE('',#1254,#1254,#1264,.T.);
#1264 = CIRCLE('',#1265,3.25);
#1265 = AXIS2_PLACEMENT_3D('',#1266,#1267,#1268);
#1266 = CARTESIAN_POINT('',(32.,-3.6,-6.));
#1267 = DIRECTION('',(1.,2.22044604925E-16,1.221245327088E-15));
#1268 = DIRECTION('',(-2.22044604925E-16,1.,-1.221245327088E-15));
#1269 = CYLINDRICAL_SURFACE('',#1270,3.25);
#1270 = AXIS2_PLACEMENT_3D('',#1271,#1272,#1273);
#1271 = CARTESIAN_POINT('',(34.,-3.6,-6.));
#1272 = DIRECTION('',(-1.,1.110223024625E-15,1.110223024625E-16));
#1273 = DIRECTION('',(-2.22044604925E-16,1.,-1.221245327088E-15));
#1274 = ADVANCED_FACE('',(#1275),#1358,.F.);
#1275 = FACE_BOUND('',#1276,.T.);
#1276 = EDGE_LOOP('',(#1277,#1278,#1284,#1285,#1286,#1333,#1341,#1349,
    #1356,#1357));
#1277 = ORIENTED_EDGE('',*,*,#740,.F.);
#1278 = ORIENTED_EDGE('',*,*,#1279,.F.);
#1279 = EDGE_CURVE('',#436,#733,#1280,.T.);
#1280 = LINE('',#1281,#1282);
#1281 = CARTESIAN_POINT('',(34.,-30.25,10.));
#1282 = VECTOR('',#1283,1.);
#1283 = DIRECTION('',(-1.,6.661338147751E-16,-3.574525976783E-31));
#1284 = ORIENTED_EDGE('',*,*,#443,.F.);
#1285 = ORIENTED_EDGE('',*,*,#1127,.T.);
#1286 = ORIENTED_EDGE('',*,*,#1287,.F.);
#1287 = EDGE_CURVE('',#741,#1120,#1288,.T.);
#1288 = B_SPLINE_CURVE_WITH_KNOTS('',8,(#1289,#1290,#1291,#1292,#1293,
    #1294,#1295,#1296,#1297,#1298,#1299,#1300,#1301,#1302,#1303,#1304,
    #1305,#1306,#1307,#1308,#1309,#1310,#1311,#1312,#1313,#1314,#1315,
    #1316,#1317,#1318,#1319,#1320,#1321,#1322,#1323,#1324,#1325,#1326,
    #1327,#1328,#1329,#1330,#1331,#1332),.UNSPECIFIED.,.F.,.F.,(9,7,7,7,
    7,7,9),(0.,0.213698362456,0.280116389382,0.39897286252,
    0.479668263091,0.592047618659,1.),.UNSPECIFIED.);
#1289 = CARTESIAN_POINT('',(10.,-25.75,13.));
#1290 = CARTESIAN_POINT('',(10.,-25.62024422872,12.945935095303));
#1291 = CARTESIAN_POINT('',(10.001113583217,-25.49217856165,
    12.885046918721));
#1292 = CARTESIAN_POINT('',(10.003832291677,-25.36602127107,
    12.817227101599));
#1293 = CARTESIAN_POINT('',(10.008750544938,-25.24211284994,
    12.742373358708));
#1294 = CARTESIAN_POINT('',(10.016573445083,-25.12090316038,
    12.660429101954));
#1295 = CARTESIAN_POINT('',(10.02812626333,-25.00294040826,
    12.571418778998));
#1296 = CARTESIAN_POINT('',(10.044348218231,-24.88885490425,
    12.475493265494));
#1297 = CARTESIAN_POINT('',(10.073061268928,-24.74529011382,
    12.341144344497));
#1298 = CARTESIAN_POINT('',(10.080416838621,-24.71169790624,
    12.308661737605));
#1299 = CARTESIAN_POINT('',(10.088349146164,-24.67857726421,
    12.275565689236));
#1300 = CARTESIAN_POINT('',(10.096887743248,-24.64595280282,
    12.241873188854));
#1301 = CARTESIAN_POINT('',(10.106061964861,-24.61385010686,
    12.207604648844));
#1302 = CARTESIAN_POINT('',(10.115900442562,-24.58229540077,
    12.172784208252));
#1303 = CARTESIAN_POINT('',(10.12643061775,-24.55131521863,
    12.137440036532));
#1304 = CARTESIAN_POINT('',(10.15780614113,-24.46657194832,
    12.037476427457));
#1305 = CARTESIAN_POINT('',(10.180236361985,-24.41411957744,
    11.97175975065));
#1306 = CARTESIAN_POINT('',(10.205111949681,-24.36374839642,
    11.904658639534));
#1307 = CARTESIAN_POINT('',(10.232557746414,-24.31561391167,
    11.836411509188));
#1308 = CARTESIAN_POINT('',(10.262671106479,-24.26985125164,
    11.767291616014));
#1309 = CARTESIAN_POINT('',(10.295511265739,-24.22656958975,
    11.697605329856));
#1310 = CARTESIAN_POINT('',(10.331087378488,-24.18584743988,
    11.62768821933));
#1311 = CARTESIAN_POINT('',(10.395319675603,-24.12184889618,
    11.510516819054));
#1312 = CARTESIAN_POINT('',(10.42253450916,-24.0971648384,
    11.463185790133));
#1313 = CARTESIAN_POINT('',(10.450975317153,-24.07368941397,
    11.416015100783));
#1314 = CARTESIAN_POINT('',(10.480619595677,-24.05142360962,
    11.369109556196));
#1315 = CARTESIAN_POINT('',(10.511437313537,-24.03035808331,
    11.322568908907));
#1316 = CARTESIAN_POINT('',(10.543391483639,-24.01047461196,
    11.276487238147));
#1317 = CARTESIAN_POINT('',(10.576438734388,-23.99174753913,
    11.230952329193));
#1318 = CARTESIAN_POINT('',(10.658006454317,-23.9496315955,
    11.12350554297));
#1319 = CARTESIAN_POINT('',(10.707510463324,-23.92729790871,
    11.062179644269));
#1320 = CARTESIAN_POINT('',(10.758916048242,-23.90705565557,
    11.002278110493));
#1321 = CARTESIAN_POINT('',(10.812088471466,-23.88878971512,
    10.943972835162));
#1322 = CARTESIAN_POINT('',(10.866890277231,-23.87236967554,
    10.88740025857));
#1323 = CARTESIAN_POINT('',(10.923186633241,-23.85765846036,
    10.832665148039));
#1324 = CARTESIAN_POINT('',(10.980849854313,-23.84451825751,
    10.779844751282));
#1325 = CARTESIAN_POINT('',(11.253626250768,-23.79032479716,
    10.544395705284));
#1326 = CARTESIAN_POINT('',(11.482917249593,-23.7669631694,
    10.386647084779));
#1327 = CARTESIAN_POINT('',(11.723595419968,-23.75557474788,
    10.256314026613));
#1328 = CARTESIAN_POINT('',(11.972178589859,-23.75112985139,
    10.153130498018));
#1329 = CARTESIAN_POINT('',(12.225824367853,-23.75000306472,
    10.076489475917));
#1330 = CARTESIAN_POINT('',(12.48235031589,-23.75000000552,
    10.025669526815));
#1331 = CARTESIAN_POINT('',(12.740277951027,-23.75,10.000094637089));
#1332 = CARTESIAN_POINT('',(12.998904554891,-23.75,10.0000002));
#1333 = ORIENTED_EDGE('',*,*,#1334,.T.);
#1334 = EDGE_CURVE('',#741,#1335,#1337,.T.);
#1335 = VERTEX_POINT('',#1336);
#1336 = CARTESIAN_POINT('',(10.,-23.75,10.));
#1337 = LINE('',#1338,#1339);
#1338 = CARTESIAN_POINT('',(34.,-23.75,10.));
#1339 = VECTOR('',#1340,1.);
#1340 = DIRECTION('',(-1.,4.512519390412E-16,-2.22044604925E-16));
#1341 = ORIENTED_EDGE('',*,*,#1342,.T.);
#1342 = EDGE_CURVE('',#1335,#1343,#1345,.T.);
#1343 = VERTEX_POINT('',#1344);
#1344 = CARTESIAN_POINT('',(3.,-23.75,10.));
#1345 = LINE('',#1346,#1347);
#1346 = CARTESIAN_POINT('',(34.,-23.75,10.));
#1347 = VECTOR('',#1348,1.);
#1348 = DIRECTION('',(-1.,6.732965439662E-16,-3.622239337986E-31));
#1349 = ORIENTED_EDGE('',*,*,#1350,.F.);
#1350 = EDGE_CURVE('',#1343,#1343,#1351,.T.);
#1351 = CIRCLE('',#1352,3.25);
#1352 = AXIS2_PLACEMENT_3D('',#1353,#1354,#1355);
#1353 = CARTESIAN_POINT('',(3.,-27.,10.));
#1354 = DIRECTION('',(1.,2.958228394579E-31,6.661338147751E-16));
#1355 = DIRECTION('',(1.479114197289E-31,1.,-6.661338147751E-16));
#1356 = ORIENTED_EDGE('',*,*,#1342,.F.);
#1357 = ORIENTED_EDGE('',*,*,#1334,.F.);
#1358 = CYLINDRICAL_SURFACE('',#1359,3.25);
#1359 = AXIS2_PLACEMENT_3D('',#1360,#1361,#1362);
#1360 = CARTESIAN_POINT('',(34.,-27.,10.));
#1361 = DIRECTION('',(-1.,6.661338147751E-16,-3.574525976783E-31));
#1362 = DIRECTION('',(1.479114197289E-31,1.,-6.661338147751E-16));
#1363 = ADVANCED_FACE('',(#1364),#1369,.T.);
#1364 = FACE_BOUND('',#1365,.T.);
#1365 = EDGE_LOOP('',(#1366,#1367,#1368));
#1366 = ORIENTED_EDGE('',*,*,#1279,.T.);
#1367 = ORIENTED_EDGE('',*,*,#732,.F.);
#1368 = ORIENTED_EDGE('',*,*,#435,.T.);
#1369 = PLANE('',#1370);
#1370 = AXIS2_PLACEMENT_3D('',#1371,#1372,#1373);
#1371 = CARTESIAN_POINT('',(20.236014144956,-11.21110255092,10.));
#1372 = DIRECTION('',(-2.22044604925E-15,-4.440892098501E-16,1.));
#1373 = DIRECTION('',(1.,-1.7763568394E-15,-4.440892098501E-16));
#1374 = ADVANCED_FACE('',(#1375),#1381,.F.);
#1375 = FACE_BOUND('',#1376,.F.);
#1376 = EDGE_LOOP('',(#1377,#1378,#1379,#1380));
#1377 = ORIENTED_EDGE('',*,*,#535,.T.);
#1378 = ORIENTED_EDGE('',*,*,#499,.T.);
#1379 = ORIENTED_EDGE('',*,*,#477,.F.);
#1380 = ORIENTED_EDGE('',*,*,#559,.F.);
#1381 = CYLINDRICAL_SURFACE('',#1382,4.);
#1382 = AXIS2_PLACEMENT_3D('',#1383,#1384,#1385);
#1383 = CARTESIAN_POINT('',(29.5,-4.,-5.));
#1384 = DIRECTION('',(1.,-1.33226762955E-15,1.084683744679E-30));
#1385 = DIRECTION('',(-6.661338147751E-16,1.,-1.998401444325E-15));
#1386 = ADVANCED_FACE('',(#1387),#1406,.F.);
#1387 = FACE_BOUND('',#1388,.T.);
#1388 = EDGE_LOOP('',(#1389,#1397,#1398,#1399));
#1389 = ORIENTED_EDGE('',*,*,#1390,.F.);
#1390 = EDGE_CURVE('',#519,#1391,#1393,.T.);
#1391 = VERTEX_POINT('',#1392);
#1392 = CARTESIAN_POINT('',(5.,-2.,-6.));
#1393 = LINE('',#1394,#1395);
#1394 = CARTESIAN_POINT('',(32.,-2.,-6.));
#1395 = VECTOR('',#1396,1.);
#1396 = DIRECTION('',(-1.,1.054711873394E-15,1.110223024625E-16));
#1397 = ORIENTED_EDGE('',*,*,#518,.F.);
#1398 = ORIENTED_EDGE('',*,*,#1390,.T.);
#1399 = ORIENTED_EDGE('',*,*,#1400,.T.);
#1400 = EDGE_CURVE('',#1391,#1391,#1401,.T.);
#1401 = CIRCLE('',#1402,1.6);
#1402 = AXIS2_PLACEMENT_3D('',#1403,#1404,#1405);
#1403 = CARTESIAN_POINT('',(5.,-3.6,-6.));
#1404 = DIRECTION('',(-1.,6.661338147751E-16,-3.330669073875E-16));
#1405 = DIRECTION('',(6.661338147751E-16,1.,-7.771561172376E-16));
#1406 = CYLINDRICAL_SURFACE('',#1407,1.6);
#1407 = AXIS2_PLACEMENT_3D('',#1408,#1409,#1410);
#1408 = CARTESIAN_POINT('',(32.,-3.6,-6.));
#1409 = DIRECTION('',(-1.,1.110223024625E-15,1.110223024625E-16));
#1410 = DIRECTION('',(-2.22044604925E-16,1.,-1.221245327088E-15));
#1411 = ADVANCED_FACE('',(#1412),#1431,.F.);
#1412 = FACE_BOUND('',#1413,.T.);
#1413 = EDGE_LOOP('',(#1414,#1422,#1429,#1430));
#1414 = ORIENTED_EDGE('',*,*,#1415,.F.);
#1415 = EDGE_CURVE('',#1416,#572,#1418,.T.);
#1416 = VERTEX_POINT('',#1417);
#1417 = CARTESIAN_POINT('',(32.,-2.,-6.));
#1418 = LINE('',#1419,#1420);
#1419 = CARTESIAN_POINT('',(32.,-2.,-6.));
#1420 = VECTOR('',#1421,1.);
#1421 = DIRECTION('',(-1.,1.054711873394E-15,1.110223024625E-16));
#1422 = ORIENTED_EDGE('',*,*,#1423,.T.);
#1423 = EDGE_CURVE('',#1416,#1416,#1424,.T.);
#1424 = CIRCLE('',#1425,1.6);
#1425 = AXIS2_PLACEMENT_3D('',#1426,#1427,#1428);
#1426 = CARTESIAN_POINT('',(32.,-3.6,-6.));
#1427 = DIRECTION('',(1.,2.22044604925E-16,1.221245327088E-15));
#1428 = DIRECTION('',(-2.22044604925E-16,1.,-1.221245327088E-15));
#1429 = ORIENTED_EDGE('',*,*,#1415,.T.);
#1430 = ORIENTED_EDGE('',*,*,#571,.T.);
#1431 = CYLINDRICAL_SURFACE('',#1432,1.6);
#1432 = AXIS2_PLACEMENT_3D('',#1433,#1434,#1435);
#1433 = CARTESIAN_POINT('',(32.,-3.6,-6.));
#1434 = DIRECTION('',(-1.,1.110223024625E-15,1.110223024625E-16));
#1435 = DIRECTION('',(-2.22044604925E-16,1.,-1.221245327088E-15));
#1436 = ADVANCED_FACE('',(#1437),#1462,.F.);
#1437 = FACE_BOUND('',#1438,.F.);
#1438 = EDGE_LOOP('',(#1439,#1449,#1455,#1456));
#1439 = ORIENTED_EDGE('',*,*,#1440,.T.);
#1440 = EDGE_CURVE('',#1441,#1443,#1445,.T.);
#1441 = VERTEX_POINT('',#1442);
#1442 = CARTESIAN_POINT('',(29.5,-3.14608173319E-14,5.));
#1443 = VERTEX_POINT('',#1444);
#1444 = CARTESIAN_POINT('',(22.5,-2.5243568394E-14,5.));
#1445 = LINE('',#1446,#1447);
#1446 = CARTESIAN_POINT('',(29.5,-5.444243394164E-14,5.));
#1447 = VECTOR('',#1448,1.);
#1448 = DIRECTION('',(-1.,1.554312234475E-15,2.22044604925E-16));
#1449 = ORIENTED_EDGE('',*,*,#1450,.T.);
#1450 = EDGE_CURVE('',#1443,#610,#1451,.T.);
#1451 = LINE('',#1452,#1453);
#1452 = CARTESIAN_POINT('',(22.5,-2.96844604925E-14,5.));
#1453 = VECTOR('',#1454,1.);
#1454 = DIRECTION('',(-2.22044604925E-15,-4.440892098501E-16,1.));
#1455 = ORIENTED_EDGE('',*,*,#607,.F.);
#1456 = ORIENTED_EDGE('',*,*,#1457,.F.);
#1457 = EDGE_CURVE('',#1441,#608,#1458,.T.);
#1458 = LINE('',#1459,#1460);
#1459 = CARTESIAN_POINT('',(29.5,-3.59017094304E-14,5.));
#1460 = VECTOR('',#1461,1.);
#1461 = DIRECTION('',(-2.22044604925E-15,-4.440892098501E-16,1.));
#1462 = PLANE('',#1463);
#1463 = AXIS2_PLACEMENT_3D('',#1464,#1465,#1466);
#1464 = CARTESIAN_POINT('',(29.5,-5.444243394164E-14,5.));
#1465 = DIRECTION('',(-4.440892098501E-16,1.,-1.7763568394E-15));
#1466 = DIRECTION('',(-1.998401444325E-15,-2.22044604925E-16,1.));
#1467 = ADVANCED_FACE('',(#1468,#1487),#1498,.F.);
#1468 = FACE_BOUND('',#1469,.F.);
#1469 = EDGE_LOOP('',(#1470,#1471,#1479,#1486));
#1470 = ORIENTED_EDGE('',*,*,#617,.T.);
#1471 = ORIENTED_EDGE('',*,*,#1472,.F.);
#1472 = EDGE_CURVE('',#1473,#618,#1475,.T.);
#1473 = VERTEX_POINT('',#1474);
#1474 = CARTESIAN_POINT('',(29.5,-8.,5.));
#1475 = LINE('',#1476,#1477);
#1476 = CARTESIAN_POINT('',(29.5,-8.,5.));
#1477 = VECTOR('',#1478,1.);
#1478 = DIRECTION('',(-2.22044604925E-15,-4.440892098501E-16,1.));
#1479 = ORIENTED_EDGE('',*,*,#1480,.T.);
#1480 = EDGE_CURVE('',#1473,#1441,#1481,.T.);
#1481 = CIRCLE('',#1482,4.);
#1482 = AXIS2_PLACEMENT_3D('',#1483,#1484,#1485);
#1483 = CARTESIAN_POINT('',(29.5,-4.,5.));
#1484 = DIRECTION('',(1.,8.881784197001E-16,2.22044604925E-15));
#1485 = DIRECTION('',(-8.881784197001E-16,1.,-2.22044604925E-15));
#1486 = ORIENTED_EDGE('',*,*,#1457,.T.);
#1487 = FACE_BOUND('',#1488,.F.);
#1488 = EDGE_LOOP('',(#1489));
#1489 = ORIENTED_EDGE('',*,*,#1490,.T.);
#1490 = EDGE_CURVE('',#1491,#1491,#1493,.T.);
#1491 = VERTEX_POINT('',#1492);
#1492 = CARTESIAN_POINT('',(29.5,-2.,6.));
#1493 = CIRCLE('',#1494,1.6);
#1494 = AXIS2_PLACEMENT_3D('',#1495,#1496,#1497);
#1495 = CARTESIAN_POINT('',(29.5,-3.6,6.));
#1496 = DIRECTION('',(-1.,-2.22044604925E-16,-1.221245327088E-15));
#1497 = DIRECTION('',(-2.22044604925E-16,1.,-1.221245327088E-15));
#1498 = PLANE('',#1499);
#1499 = AXIS2_PLACEMENT_3D('',#1500,#1501,#1502);
#1500 = CARTESIAN_POINT('',(29.5,-4.,-1.258252761242E-15));
#1501 = DIRECTION('',(1.,-1.7763568394E-15,-4.440892098501E-16));
#1502 = DIRECTION('',(-2.22044604925E-15,-4.440892098501E-16,1.));
#1503 = ADVANCED_FACE('',(#1504,#1523),#1534,.T.);
#1504 = FACE_BOUND('',#1505,.T.);
#1505 = EDGE_LOOP('',(#1506,#1507,#1515,#1522));
#1506 = ORIENTED_EDGE('',*,*,#633,.T.);
#1507 = ORIENTED_EDGE('',*,*,#1508,.F.);
#1508 = EDGE_CURVE('',#1509,#626,#1511,.T.);
#1509 = VERTEX_POINT('',#1510);
#1510 = CARTESIAN_POINT('',(22.5,-8.,5.));
#1511 = LINE('',#1512,#1513);
#1512 = CARTESIAN_POINT('',(22.5,-8.,5.));
#1513 = VECTOR('',#1514,1.);
#1514 = DIRECTION('',(-2.22044604925E-15,-4.440892098501E-16,1.));
#1515 = ORIENTED_EDGE('',*,*,#1516,.T.);
#1516 = EDGE_CURVE('',#1509,#1443,#1517,.T.);
#1517 = CIRCLE('',#1518,4.);
#1518 = AXIS2_PLACEMENT_3D('',#1519,#1520,#1521);
#1519 = CARTESIAN_POINT('',(22.5,-4.,5.));
#1520 = DIRECTION('',(1.,8.881784197001E-16,2.22044604925E-15));
#1521 = DIRECTION('',(-8.881784197001E-16,1.,-2.22044604925E-15));
#1522 = ORIENTED_EDGE('',*,*,#1450,.T.);
#1523 = FACE_BOUND('',#1524,.T.);
#1524 = EDGE_LOOP('',(#1525));
#1525 = ORIENTED_EDGE('',*,*,#1526,.T.);
#1526 = EDGE_CURVE('',#1527,#1527,#1529,.T.);
#1527 = VERTEX_POINT('',#1528);
#1528 = CARTESIAN_POINT('',(22.5,-2.,6.));
#1529 = CIRCLE('',#1530,1.6);
#1530 = AXIS2_PLACEMENT_3D('',#1531,#1532,#1533);
#1531 = CARTESIAN_POINT('',(22.5,-3.6,6.));
#1532 = DIRECTION('',(-1.,-2.22044604925E-16,-1.221245327088E-15));
#1533 = DIRECTION('',(-2.22044604925E-16,1.,-1.221245327088E-15));
#1534 = PLANE('',#1535);
#1535 = AXIS2_PLACEMENT_3D('',#1536,#1537,#1538);
#1536 = CARTESIAN_POINT('',(22.5,-4.,1.50990331349E-14));
#1537 = DIRECTION('',(1.,-1.7763568394E-15,-4.440892098501E-16));
#1538 = DIRECTION('',(-2.22044604925E-15,-4.440892098501E-16,1.));
#1539 = ADVANCED_FACE('',(#1540),#1551,.T.);
#1540 = FACE_BOUND('',#1541,.T.);
#1541 = EDGE_LOOP('',(#1542,#1548,#1549,#1550));
#1542 = ORIENTED_EDGE('',*,*,#1543,.T.);
#1543 = EDGE_CURVE('',#1473,#1509,#1544,.T.);
#1544 = LINE('',#1545,#1546);
#1545 = CARTESIAN_POINT('',(29.5,-8.,5.));
#1546 = VECTOR('',#1547,1.);
#1547 = DIRECTION('',(-1.,1.554312234475E-15,2.22044604925E-16));
#1548 = ORIENTED_EDGE('',*,*,#1508,.T.);
#1549 = ORIENTED_EDGE('',*,*,#625,.F.);
#1550 = ORIENTED_EDGE('',*,*,#1472,.F.);
#1551 = PLANE('',#1552);
#1552 = AXIS2_PLACEMENT_3D('',#1553,#1554,#1555);
#1553 = CARTESIAN_POINT('',(29.5,-8.,5.));
#1554 = DIRECTION('',(-4.440892098501E-16,1.,-1.7763568394E-15));
#1555 = DIRECTION('',(-1.998401444325E-15,-2.22044604925E-16,1.));
#1556 = ADVANCED_FACE('',(#1557),#1563,.F.);
#1557 = FACE_BOUND('',#1558,.T.);
#1558 = EDGE_LOOP('',(#1559,#1560,#1561,#1562));
#1559 = ORIENTED_EDGE('',*,*,#1287,.T.);
#1560 = ORIENTED_EDGE('',*,*,#1119,.T.);
#1561 = ORIENTED_EDGE('',*,*,#1173,.F.);
#1562 = ORIENTED_EDGE('',*,*,#749,.F.);
#1563 = CYLINDRICAL_SURFACE('',#1564,3.);
#1564 = AXIS2_PLACEMENT_3D('',#1565,#1566,#1567);
#1565 = CARTESIAN_POINT('',(13.,-23.75,13.));
#1566 = DIRECTION('',(7.642090019329E-31,1.,-1.33226762955E-15));
#1567 = DIRECTION('',(-1.,-1.010728034814E-30,-1.33226762955E-15));
#1568 = ADVANCED_FACE('',(#1569,#1577),#1580,.F.);
#1569 = FACE_BOUND('',#1570,.F.);
#1570 = EDGE_LOOP('',(#1571,#1572,#1573,#1574,#1575,#1576));
#1571 = ORIENTED_EDGE('',*,*,#901,.F.);
#1572 = ORIENTED_EDGE('',*,*,#781,.F.);
#1573 = ORIENTED_EDGE('',*,*,#812,.F.);
#1574 = ORIENTED_EDGE('',*,*,#836,.F.);
#1575 = ORIENTED_EDGE('',*,*,#860,.F.);
#1576 = ORIENTED_EDGE('',*,*,#884,.F.);
#1577 = FACE_BOUND('',#1578,.F.);
#1578 = EDGE_LOOP('',(#1579));
#1579 = ORIENTED_EDGE('',*,*,#1400,.T.);
#1580 = PLANE('',#1581);
#1581 = AXIS2_PLACEMENT_3D('',#1582,#1583,#1584);
#1582 = CARTESIAN_POINT('',(5.,-3.6,0.));
#1583 = DIRECTION('',(1.,-4.440892098501E-16,-1.110223024625E-16));
#1584 = DIRECTION('',(-5.551115123126E-16,-1.110223024625E-16,1.));
#1585 = ADVANCED_FACE('',(#1586,#1594),#1605,.F.);
#1586 = FACE_BOUND('',#1587,.F.);
#1587 = EDGE_LOOP('',(#1588,#1589,#1590,#1591,#1592,#1593));
#1588 = ORIENTED_EDGE('',*,*,#1045,.F.);
#1589 = ORIENTED_EDGE('',*,*,#925,.F.);
#1590 = ORIENTED_EDGE('',*,*,#956,.F.);
#1591 = ORIENTED_EDGE('',*,*,#980,.F.);
#1592 = ORIENTED_EDGE('',*,*,#1004,.F.);
#1593 = ORIENTED_EDGE('',*,*,#1028,.F.);
#1594 = FACE_BOUND('',#1595,.F.);
#1595 = EDGE_LOOP('',(#1596));
#1596 = ORIENTED_EDGE('',*,*,#1597,.T.);
#1597 = EDGE_CURVE('',#1598,#1598,#1600,.T.);
#1598 = VERTEX_POINT('',#1599);
#1599 = CARTESIAN_POINT('',(5.,-2.,6.));
#1600 = CIRCLE('',#1601,1.6);
#1601 = AXIS2_PLACEMENT_3D('',#1602,#1603,#1604);
#1602 = CARTESIAN_POINT('',(5.,-3.6,6.));
#1603 = DIRECTION('',(-1.,6.661338147751E-16,-3.330669073875E-16));
#1604 = DIRECTION('',(6.661338147751E-16,1.,-7.771561172376E-16));
#1605 = PLANE('',#1606);
#1606 = AXIS2_PLACEMENT_3D('',#1607,#1608,#1609);
#1607 = CARTESIAN_POINT('',(5.,-3.6,0.));
#1608 = DIRECTION('',(1.,-4.440892098501E-16,-1.110223024625E-16));
#1609 = DIRECTION('',(-5.551115123126E-16,-1.110223024625E-16,1.));
#1610 = ADVANCED_FACE('',(#1611,#1614),#1617,.T.);
#1611 = FACE_BOUND('',#1612,.T.);
#1612 = EDGE_LOOP('',(#1613));
#1613 = ORIENTED_EDGE('',*,*,#1163,.T.);
#1614 = FACE_BOUND('',#1615,.T.);
#1615 = EDGE_LOOP('',(#1616));
#1616 = ORIENTED_EDGE('',*,*,#1069,.F.);
#1617 = PLANE('',#1618);
#1618 = AXIS2_PLACEMENT_3D('',#1619,#1620,#1621);
#1619 = CARTESIAN_POINT('',(3.,-12.,10.));
#1620 = DIRECTION('',(1.,-6.661338147751E-16,3.574525976783E-31));
#1621 = DIRECTION('',(1.479114197289E-31,1.,-6.661338147751E-16));
#1622 = ADVANCED_FACE('',(#1623,#1626),#1629,.T.);
#1623 = FACE_BOUND('',#1624,.T.);
#1624 = EDGE_LOOP('',(#1625));
#1625 = ORIENTED_EDGE('',*,*,#1350,.T.);
#1626 = FACE_BOUND('',#1627,.T.);
#1627 = EDGE_LOOP('',(#1628));
#1628 = ORIENTED_EDGE('',*,*,#1094,.F.);
#1629 = PLANE('',#1630);
#1630 = AXIS2_PLACEMENT_3D('',#1631,#1632,#1633);
#1631 = CARTESIAN_POINT('',(3.,-27.,10.));
#1632 = DIRECTION('',(1.,-6.661338147751E-16,3.574525976783E-31));
#1633 = DIRECTION('',(1.479114197289E-31,1.,-6.661338147751E-16));
#1634 = ADVANCED_FACE('',(#1635,#1638),#1649,.T.);
#1635 = FACE_BOUND('',#1636,.T.);
#1636 = EDGE_LOOP('',(#1637));
#1637 = ORIENTED_EDGE('',*,*,#1238,.T.);
#1638 = FACE_BOUND('',#1639,.T.);
#1639 = EDGE_LOOP('',(#1640));
#1640 = ORIENTED_EDGE('',*,*,#1641,.F.);
#1641 = EDGE_CURVE('',#1642,#1642,#1644,.T.);
#1642 = VERTEX_POINT('',#1643);
#1643 = CARTESIAN_POINT('',(32.,-2.,6.));
#1644 = CIRCLE('',#1645,1.6);
#1645 = AXIS2_PLACEMENT_3D('',#1646,#1647,#1648);
#1646 = CARTESIAN_POINT('',(32.,-3.6,6.));
#1647 = DIRECTION('',(1.,2.22044604925E-16,1.221245327088E-15));
#1648 = DIRECTION('',(-2.22044604925E-16,1.,-1.221245327088E-15));
#1649 = PLANE('',#1650);
#1650 = AXIS2_PLACEMENT_3D('',#1651,#1652,#1653);
#1651 = CARTESIAN_POINT('',(32.,-3.6,6.));
#1652 = DIRECTION('',(1.,-1.110223024625E-15,-1.110223024625E-16));
#1653 = DIRECTION('',(-2.22044604925E-16,1.,-1.221245327088E-15));
#1654 = ADVANCED_FACE('',(#1655,#1658),#1661,.T.);
#1655 = FACE_BOUND('',#1656,.T.);
#1656 = EDGE_LOOP('',(#1657));
#1657 = ORIENTED_EDGE('',*,*,#1263,.T.);
#1658 = FACE_BOUND('',#1659,.T.);
#1659 = EDGE_LOOP('',(#1660));
#1660 = ORIENTED_EDGE('',*,*,#1423,.F.);
#1661 = PLANE('',#1662);
#1662 = AXIS2_PLACEMENT_3D('',#1663,#1664,#1665);
#1663 = CARTESIAN_POINT('',(32.,-3.6,-6.));
#1664 = DIRECTION('',(1.,-1.110223024625E-15,-1.110223024625E-16));
#1665 = DIRECTION('',(-2.22044604925E-16,1.,-1.221245327088E-15));
#1666 = ADVANCED_FACE('',(#1667),#1673,.F.);
#1667 = FACE_BOUND('',#1668,.F.);
#1668 = EDGE_LOOP('',(#1669,#1670,#1671,#1672));
#1669 = ORIENTED_EDGE('',*,*,#1543,.T.);
#1670 = ORIENTED_EDGE('',*,*,#1516,.T.);
#1671 = ORIENTED_EDGE('',*,*,#1440,.F.);
#1672 = ORIENTED_EDGE('',*,*,#1480,.F.);
#1673 = CYLINDRICAL_SURFACE('',#1674,4.);
#1674 = AXIS2_PLACEMENT_3D('',#1675,#1676,#1677);
#1675 = CARTESIAN_POINT('',(29.5,-4.,5.));
#1676 = DIRECTION('',(1.,-1.33226762955E-15,1.084683744679E-30));
#1677 = DIRECTION('',(-6.661338147751E-16,1.,-1.998401444325E-15));
#1678 = ADVANCED_FACE('',(#1679),#1690,.F.);
#1679 = FACE_BOUND('',#1680,.T.);
#1680 = EDGE_LOOP('',(#1681,#1687,#1688,#1689));
#1681 = ORIENTED_EDGE('',*,*,#1682,.F.);
#1682 = EDGE_CURVE('',#1642,#1491,#1683,.T.);
#1683 = LINE('',#1684,#1685);
#1684 = CARTESIAN_POINT('',(32.,-2.,6.));
#1685 = VECTOR('',#1686,1.);
#1686 = DIRECTION('',(-1.,1.054711873394E-15,1.110223024625E-16));
#1687 = ORIENTED_EDGE('',*,*,#1641,.T.);
#1688 = ORIENTED_EDGE('',*,*,#1682,.T.);
#1689 = ORIENTED_EDGE('',*,*,#1490,.T.);
#1690 = CYLINDRICAL_SURFACE('',#1691,1.6);
#1691 = AXIS2_PLACEMENT_3D('',#1692,#1693,#1694);
#1692 = CARTESIAN_POINT('',(32.,-3.6,6.));
#1693 = DIRECTION('',(-1.,1.110223024625E-15,1.110223024625E-16));
#1694 = DIRECTION('',(-2.22044604925E-16,1.,-1.221245327088E-15));
#1695 = ADVANCED_FACE('',(#1696),#1707,.F.);
#1696 = FACE_BOUND('',#1697,.T.);
#1697 = EDGE_LOOP('',(#1698,#1704,#1705,#1706));
#1698 = ORIENTED_EDGE('',*,*,#1699,.F.);
#1699 = EDGE_CURVE('',#1527,#1598,#1700,.T.);
#1700 = LINE('',#1701,#1702);
#1701 = CARTESIAN_POINT('',(32.,-2.,6.));
#1702 = VECTOR('',#1703,1.);
#1703 = DIRECTION('',(-1.,1.054711873394E-15,1.110223024625E-16));
#1704 = ORIENTED_EDGE('',*,*,#1526,.F.);
#1705 = ORIENTED_EDGE('',*,*,#1699,.T.);
#1706 = ORIENTED_EDGE('',*,*,#1597,.T.);
#1707 = CYLINDRICAL_SURFACE('',#1708,1.6);
#1708 = AXIS2_PLACEMENT_3D('',#1709,#1710,#1711);
#1709 = CARTESIAN_POINT('',(32.,-3.6,6.));
#1710 = DIRECTION('',(-1.,1.110223024625E-15,1.110223024625E-16));
#1711 = DIRECTION('',(-2.22044604925E-16,1.,-1.221245327088E-15));
#1712 = ( GEOMETRIC_REPRESENTATION_CONTEXT(3) 
GLOBAL_UNCERTAINTY_ASSIGNED_CONTEXT((#1716)) 
GLOBAL_UNIT_ASSIGNED_CONTEXT((#1713,#1714,#1715)) REPRESENTATION_CONTEXT
('Context #1','3D Context with UNIT and UNCERTAINTY') );
#1713 = ( LENGTH_UNIT() NAMED_UNIT(*) SI_UNIT(.MILLI.,.METRE.) );
#1714 = ( NAMED_UNIT(*) PLANE_ANGLE_UNIT() SI_UNIT($,.RADIAN.) );
#1715 = ( NAMED_UNIT(*) SI_UNIT($,.STERADIAN.) SOLID_ANGLE_UNIT() );
#1716 = UNCERTAINTY_MEASURE_WITH_UNIT(LENGTH_MEASURE(1.E-07),#1713,
  'distance_accuracy_value','confusion accuracy');
#1717 = PRODUCT_RELATED_PRODUCT_CATEGORY('part',$,(#7));
#1718 = MECHANICAL_DESIGN_GEOMETRIC_PRESENTATION_REPRESENTATION('',(
    #1719),#1712);
#1719 = STYLED_ITEM('color',(#1720),#15);
#1720 = PRESENTATION_STYLE_ASSIGNMENT((#1721,#1729));
#1721 = SURFACE_STYLE_USAGE(.BOTH.,#1722);
#1722 = SURFACE_SIDE_STYLE('',(#1723,#1727));
#1723 = SURFACE_STYLE_FILL_AREA(#1724);
#1724 = FILL_AREA_STYLE('',(#1725));
#1725 = FILL_AREA_STYLE_COLOUR('',#1726);
#1726 = COLOUR_RGB('',0.447058818107,0.474509808674,0.501960817233);
#1727 = SURFACE_STYLE_RENDERING_WITH_PROPERTIES(.NORMAL_SHADING.,#1726,(
    #1728));
#1728 = SURFACE_STYLE_TRANSPARENT(0.5);
#1729 = CURVE_STYLE('',#1730,POSITIVE_LENGTH_MEASURE(0.1),#1731);
#1730 = DRAUGHTING_PRE_DEFINED_CURVE_FONT('continuous');
#1731 = COLOUR_RGB('',9.803921802644E-02,9.803921802644E-02,
  9.803921802644E-02);
ENDSEC;
END-ISO-10303-21;
