ISO-10303-21;
HEADER;
FILE_DESCRIPTION(('FreeCAD Model'),'2;1');
FILE_NAME('Open CASCADE Shape Model','2025-12-07T23:22:10',(''),(''),
  'Open CASCADE STEP processor 7.9','FreeCAD','Unknown');
FILE_SCHEMA(('AUTOMOTIVE_DESIGN { 1 0 10303 214 1 1 1 1 }'));
ENDSEC;
DATA;
#1 = APPLICATION_PROTOCOL_DEFINITION('international standard',
  'automotive_design',2000,#2);
#2 = APPLICATION_CONTEXT(
  'core data for automotive mechanical design processes');
#3 = SHAPE_DEFINITION_REPRESENTATION(#4,#10);
#4 = PRODUCT_DEFINITION_SHAPE('','',#5);
#5 = PRODUCT_DEFINITION('design','',#6,#9);
#6 = PRODUCT_DEFINITION_FORMATION('','',#7);
#7 = PRODUCT('Body','Body','',(#8));
#8 = PRODUCT_CONTEXT('',#2,'mechanical');
#9 = PRODUCT_DEFINITION_CONTEXT('part definition',#2,'design');
#10 = ADVANCED_BREP_SHAPE_REPRESENTATION('',(#11,#15),#1283);
#11 = AXIS2_PLACEMENT_3D('',#12,#13,#14);
#12 = CARTESIAN_POINT('',(0.,0.,0.));
#13 = DIRECTION('',(0.,0.,1.));
#14 = DIRECTION('',(1.,0.,-0.));
#15 = MANIFOLD_SOLID_BREP('',#16);
#16 = CLOSED_SHELL('',(#17,#115,#146,#171,#348,#581,#605,#623,#648,#666,
    #691,#715,#770,#794,#819,#843,#898,#922,#947,#971,#1026,#1043,#1065,
    #1082,#1099,#1116,#1133,#1145,#1163,#1175,#1187,#1205,#1223,#1241,
    #1253,#1271));
#17 = ADVANCED_FACE('',(#18),#110,.T.);
#18 = FACE_BOUND('',#19,.F.);
#19 = EDGE_LOOP('',(#20,#30,#49,#58,#67,#76,#95,#103));
#20 = ORIENTED_EDGE('',*,*,#21,.T.);
#21 = EDGE_CURVE('',#22,#24,#26,.T.);
#22 = VERTEX_POINT('',#23);
#23 = CARTESIAN_POINT('',(-1.75,4.145780987944,0.));
#24 = VERTEX_POINT('',#25);
#25 = CARTESIAN_POINT('',(-1.75,4.145780987944,2.5));
#26 = LINE('',#27,#28);
#27 = CARTESIAN_POINT('',(-1.75,4.145780987944,0.));
#28 = VECTOR('',#29,1.);
#29 = DIRECTION('',(0.,0.,1.));
#30 = ORIENTED_EDGE('',*,*,#31,.T.);
#31 = EDGE_CURVE('',#24,#32,#34,.T.);
#32 = VERTEX_POINT('',#33);
#33 = CARTESIAN_POINT('',(-1.25,4.322904116448,3.));
#34 = B_SPLINE_CURVE_WITH_KNOTS('',7,(#35,#36,#37,#38,#39,#40,#41,#42,
    #43,#44,#45,#46,#47,#48),.UNSPECIFIED.,.F.,.F.,(8,6,8),(0.,
    0.630237042484,1.),.UNSPECIFIED.);
#35 = CARTESIAN_POINT('',(-1.75,4.145780987944,2.5));
#36 = CARTESIAN_POINT('',(-1.75,4.145780987944,2.568576719622));
#37 = CARTESIAN_POINT('',(-1.739026926066,4.150412941123,2.637144279178)
  );
#38 = CARTESIAN_POINT('',(-1.717085630857,4.15967447809,2.70382256685));
#39 = CARTESIAN_POINT('',(-1.684471389351,4.173226529783,2.766704964237)
  );
#40 = CARTESIAN_POINT('',(-1.641801895537,4.190374780595,2.823876135561)
  );
#41 = CARTESIAN_POINT('',(-1.590114246332,4.210164257473,2.87339461858)
  );
#42 = CARTESIAN_POINT('',(-1.496383549112,4.244077604106,2.937093934633)
  );
#43 = CARTESIAN_POINT('',(-1.459183973274,4.257162424616,2.957420802105)
  );
#44 = CARTESIAN_POINT('',(-1.419795051593,4.270571015811,2.974159373602)
  );
#45 = CARTESIAN_POINT('',(-1.378642921256,4.284068658239,2.986989892061)
  );
#46 = CARTESIAN_POINT('',(-1.336233811828,4.297424660921,2.995656558808)
  );
#47 = CARTESIAN_POINT('',(-1.293144903752,4.310428445409,3.));
#48 = CARTESIAN_POINT('',(-1.25,4.322904116448,3.));
#49 = ORIENTED_EDGE('',*,*,#50,.F.);
#50 = EDGE_CURVE('',#51,#32,#53,.T.);
#51 = VERTEX_POINT('',#52);
#52 = CARTESIAN_POINT('',(-1.75,4.145780987944,3.));
#53 = CIRCLE('',#54,4.5);
#54 = AXIS2_PLACEMENT_3D('',#55,#56,#57);
#55 = CARTESIAN_POINT('',(7.204967679718E-16,-2.68262998534E-15,3.));
#56 = DIRECTION('',(0.,0.,-1.));
#57 = DIRECTION('',(0.,1.,0.));
#58 = ORIENTED_EDGE('',*,*,#59,.T.);
#59 = EDGE_CURVE('',#51,#60,#62,.T.);
#60 = VERTEX_POINT('',#61);
#61 = CARTESIAN_POINT('',(-4.145780987944,1.75,3.));
#62 = CIRCLE('',#63,4.5);
#63 = AXIS2_PLACEMENT_3D('',#64,#65,#66);
#64 = CARTESIAN_POINT('',(7.204967679718E-16,-2.68262998534E-15,3.));
#65 = DIRECTION('',(0.,0.,1.));
#66 = DIRECTION('',(1.,0.,0.));
#67 = ORIENTED_EDGE('',*,*,#68,.T.);
#68 = EDGE_CURVE('',#60,#69,#71,.T.);
#69 = VERTEX_POINT('',#70);
#70 = CARTESIAN_POINT('',(-4.322904116448,1.25,3.));
#71 = CIRCLE('',#72,4.5);
#72 = AXIS2_PLACEMENT_3D('',#73,#74,#75);
#73 = CARTESIAN_POINT('',(7.204967679718E-16,-2.68262998534E-15,3.));
#74 = DIRECTION('',(0.,-0.,1.));
#75 = DIRECTION('',(0.,1.,0.));
#76 = ORIENTED_EDGE('',*,*,#77,.F.);
#77 = EDGE_CURVE('',#78,#69,#80,.T.);
#78 = VERTEX_POINT('',#79);
#79 = CARTESIAN_POINT('',(-4.145780987944,1.75,2.5));
#80 = B_SPLINE_CURVE_WITH_KNOTS('',7,(#81,#82,#83,#84,#85,#86,#87,#88,
    #89,#90,#91,#92,#93,#94),.UNSPECIFIED.,.F.,.F.,(8,6,8),(0.,
    0.630243343539,1.),.UNSPECIFIED.);
#81 = CARTESIAN_POINT('',(-4.145780987944,1.75,2.5));
#82 = CARTESIAN_POINT('',(-4.145780987944,1.75,2.568576137206));
#83 = CARTESIAN_POINT('',(-4.150412859544,1.739027105757,2.637144243476)
  );
#84 = CARTESIAN_POINT('',(-4.159674521267,1.717085568596,2.703822740657)
  );
#85 = CARTESIAN_POINT('',(-4.173226564276,1.684471270904,2.766704579016)
  );
#86 = CARTESIAN_POINT('',(-4.190374446108,1.641802665661,2.823874828764)
  );
#87 = CARTESIAN_POINT('',(-4.210163686544,1.590115824281,2.873393546207)
  );
#88 = CARTESIAN_POINT('',(-4.244077600005,1.496383560449,2.937093926928)
  );
#89 = CARTESIAN_POINT('',(-4.257162363964,1.459184144441,2.957420689531)
  );
#90 = CARTESIAN_POINT('',(-4.270570894013,1.419795405042,2.974159219753)
  );
#91 = CARTESIAN_POINT('',(-4.284068553852,1.37864325654,2.986989844618)
  );
#92 = CARTESIAN_POINT('',(-4.297424663156,1.33623383654,2.995656626146)
  );
#93 = CARTESIAN_POINT('',(-4.310428542912,1.293144566553,3.));
#94 = CARTESIAN_POINT('',(-4.322904116448,1.25,3.));
#95 = ORIENTED_EDGE('',*,*,#96,.F.);
#96 = EDGE_CURVE('',#97,#78,#99,.T.);
#97 = VERTEX_POINT('',#98);
#98 = CARTESIAN_POINT('',(-4.145780987944,1.75,0.));
#99 = LINE('',#100,#101);
#100 = CARTESIAN_POINT('',(-4.145780987944,1.75,0.));
#101 = VECTOR('',#102,1.);
#102 = DIRECTION('',(0.,0.,1.));
#103 = ORIENTED_EDGE('',*,*,#104,.F.);
#104 = EDGE_CURVE('',#22,#97,#105,.T.);
#105 = CIRCLE('',#106,4.5);
#106 = AXIS2_PLACEMENT_3D('',#107,#108,#109);
#107 = CARTESIAN_POINT('',(7.204967679718E-16,-2.68262998534E-15,0.));
#108 = DIRECTION('',(0.,0.,1.));
#109 = DIRECTION('',(1.,0.,0.));
#110 = CYLINDRICAL_SURFACE('',#111,4.5);
#111 = AXIS2_PLACEMENT_3D('',#112,#113,#114);
#112 = CARTESIAN_POINT('',(7.204967679718E-16,-2.68262998534E-15,0.));
#113 = DIRECTION('',(-0.,-0.,-1.));
#114 = DIRECTION('',(1.,0.,0.));
#115 = ADVANCED_FACE('',(#116),#141,.T.);
#116 = FACE_BOUND('',#117,.T.);
#117 = EDGE_LOOP('',(#118,#119,#127,#135));
#118 = ORIENTED_EDGE('',*,*,#21,.T.);
#119 = ORIENTED_EDGE('',*,*,#120,.F.);
#120 = EDGE_CURVE('',#121,#24,#123,.T.);
#121 = VERTEX_POINT('',#122);
#122 = CARTESIAN_POINT('',(-1.75,7.,2.5));
#123 = LINE('',#124,#125);
#124 = CARTESIAN_POINT('',(-1.75,7.,2.5));
#125 = VECTOR('',#126,1.);
#126 = DIRECTION('',(-0.,-1.,-0.));
#127 = ORIENTED_EDGE('',*,*,#128,.F.);
#128 = EDGE_CURVE('',#129,#121,#131,.T.);
#129 = VERTEX_POINT('',#130);
#130 = CARTESIAN_POINT('',(-1.75,7.,0.));
#131 = LINE('',#132,#133);
#132 = CARTESIAN_POINT('',(-1.75,7.,0.));
#133 = VECTOR('',#134,1.);
#134 = DIRECTION('',(0.,0.,1.));
#135 = ORIENTED_EDGE('',*,*,#136,.F.);
#136 = EDGE_CURVE('',#22,#129,#137,.T.);
#137 = LINE('',#138,#139);
#138 = CARTESIAN_POINT('',(-1.75,4.145780987944,0.));
#139 = VECTOR('',#140,1.);
#140 = DIRECTION('',(0.,1.,0.));
#141 = PLANE('',#142);
#142 = AXIS2_PLACEMENT_3D('',#143,#144,#145);
#143 = CARTESIAN_POINT('',(-1.75,4.145780987944,0.));
#144 = DIRECTION('',(-1.,0.,0.));
#145 = DIRECTION('',(0.,1.,0.));
#146 = ADVANCED_FACE('',(#147),#166,.T.);
#147 = FACE_BOUND('',#148,.F.);
#148 = EDGE_LOOP('',(#149,#158,#164,#165));
#149 = ORIENTED_EDGE('',*,*,#150,.T.);
#150 = EDGE_CURVE('',#121,#151,#153,.T.);
#151 = VERTEX_POINT('',#152);
#152 = CARTESIAN_POINT('',(-1.25,7.,3.));
#153 = CIRCLE('',#154,0.5);
#154 = AXIS2_PLACEMENT_3D('',#155,#156,#157);
#155 = CARTESIAN_POINT('',(-1.25,7.,2.5));
#156 = DIRECTION('',(1.224646799147E-16,1.,-0.));
#157 = DIRECTION('',(-1.,1.224646799147E-16,0.));
#158 = ORIENTED_EDGE('',*,*,#159,.T.);
#159 = EDGE_CURVE('',#151,#32,#160,.T.);
#160 = LINE('',#161,#162);
#161 = CARTESIAN_POINT('',(-1.25,7.,3.));
#162 = VECTOR('',#163,1.);
#163 = DIRECTION('',(-0.,-1.,-0.));
#164 = ORIENTED_EDGE('',*,*,#31,.F.);
#165 = ORIENTED_EDGE('',*,*,#120,.F.);
#166 = CYLINDRICAL_SURFACE('',#167,0.5);
#167 = AXIS2_PLACEMENT_3D('',#168,#169,#170);
#168 = CARTESIAN_POINT('',(-1.25,7.,2.5));
#169 = DIRECTION('',(-0.,-1.,-0.));
#170 = DIRECTION('',(-1.,0.,0.));
#171 = ADVANCED_FACE('',(#172,#293),#343,.F.);
#172 = FACE_BOUND('',#173,.F.);
#173 = EDGE_LOOP('',(#174,#175,#183,#192,#200,#209,#217,#226,#234,#243,
    #251,#260,#268,#277,#285,#292));
#174 = ORIENTED_EDGE('',*,*,#104,.T.);
#175 = ORIENTED_EDGE('',*,*,#176,.T.);
#176 = EDGE_CURVE('',#97,#177,#179,.T.);
#177 = VERTEX_POINT('',#178);
#178 = CARTESIAN_POINT('',(-7.,1.75,0.));
#179 = LINE('',#180,#181);
#180 = CARTESIAN_POINT('',(-4.145780987944,1.75,0.));
#181 = VECTOR('',#182,1.);
#182 = DIRECTION('',(-1.,0.,0.));
#183 = ORIENTED_EDGE('',*,*,#184,.T.);
#184 = EDGE_CURVE('',#177,#185,#187,.T.);
#185 = VERTEX_POINT('',#186);
#186 = CARTESIAN_POINT('',(-7.,-1.75,0.));
#187 = CIRCLE('',#188,1.75);
#188 = AXIS2_PLACEMENT_3D('',#189,#190,#191);
#189 = CARTESIAN_POINT('',(-7.,0.,0.));
#190 = DIRECTION('',(0.,0.,1.));
#191 = DIRECTION('',(1.,0.,0.));
#192 = ORIENTED_EDGE('',*,*,#193,.F.);
#193 = EDGE_CURVE('',#194,#185,#196,.T.);
#194 = VERTEX_POINT('',#195);
#195 = CARTESIAN_POINT('',(-4.145780987944,-1.75,0.));
#196 = LINE('',#197,#198);
#197 = CARTESIAN_POINT('',(-4.145780987944,-1.75,0.));
#198 = VECTOR('',#199,1.);
#199 = DIRECTION('',(-1.,0.,0.));
#200 = ORIENTED_EDGE('',*,*,#201,.T.);
#201 = EDGE_CURVE('',#194,#202,#204,.T.);
#202 = VERTEX_POINT('',#203);
#203 = CARTESIAN_POINT('',(-1.75,-4.145780987944,0.));
#204 = CIRCLE('',#205,4.5);
#205 = AXIS2_PLACEMENT_3D('',#206,#207,#208);
#206 = CARTESIAN_POINT('',(7.204967679718E-16,-2.68262998534E-15,0.));
#207 = DIRECTION('',(0.,0.,1.));
#208 = DIRECTION('',(1.,0.,0.));
#209 = ORIENTED_EDGE('',*,*,#210,.T.);
#210 = EDGE_CURVE('',#202,#211,#213,.T.);
#211 = VERTEX_POINT('',#212);
#212 = CARTESIAN_POINT('',(-1.75,-7.,0.));
#213 = LINE('',#214,#215);
#214 = CARTESIAN_POINT('',(-1.75,-4.145780987944,0.));
#215 = VECTOR('',#216,1.);
#216 = DIRECTION('',(0.,-1.,0.));
#217 = ORIENTED_EDGE('',*,*,#218,.T.);
#218 = EDGE_CURVE('',#211,#219,#221,.T.);
#219 = VERTEX_POINT('',#220);
#220 = CARTESIAN_POINT('',(1.75,-7.,0.));
#221 = CIRCLE('',#222,1.75);
#222 = AXIS2_PLACEMENT_3D('',#223,#224,#225);
#223 = CARTESIAN_POINT('',(7.1850313496E-25,-7.,0.));
#224 = DIRECTION('',(0.,0.,1.));
#225 = DIRECTION('',(1.,0.,0.));
#226 = ORIENTED_EDGE('',*,*,#227,.F.);
#227 = EDGE_CURVE('',#228,#219,#230,.T.);
#228 = VERTEX_POINT('',#229);
#229 = CARTESIAN_POINT('',(1.75,-4.145780987944,0.));
#230 = LINE('',#231,#232);
#231 = CARTESIAN_POINT('',(1.75,-4.145780987944,0.));
#232 = VECTOR('',#233,1.);
#233 = DIRECTION('',(0.,-1.,0.));
#234 = ORIENTED_EDGE('',*,*,#235,.T.);
#235 = EDGE_CURVE('',#228,#236,#238,.T.);
#236 = VERTEX_POINT('',#237);
#237 = CARTESIAN_POINT('',(4.145780987944,-1.75,0.));
#238 = CIRCLE('',#239,4.5);
#239 = AXIS2_PLACEMENT_3D('',#240,#241,#242);
#240 = CARTESIAN_POINT('',(-3.011134497202E-16,-8.980818941778E-16,0.));
#241 = DIRECTION('',(0.,0.,1.));
#242 = DIRECTION('',(1.,0.,0.));
#243 = ORIENTED_EDGE('',*,*,#244,.T.);
#244 = EDGE_CURVE('',#236,#245,#247,.T.);
#245 = VERTEX_POINT('',#246);
#246 = CARTESIAN_POINT('',(7.,-1.75,0.));
#247 = LINE('',#248,#249);
#248 = CARTESIAN_POINT('',(4.145780987944,-1.75,0.));
#249 = VECTOR('',#250,1.);
#250 = DIRECTION('',(1.,0.,0.));
#251 = ORIENTED_EDGE('',*,*,#252,.T.);
#252 = EDGE_CURVE('',#245,#253,#255,.T.);
#253 = VERTEX_POINT('',#254);
#254 = CARTESIAN_POINT('',(7.,1.75,0.));
#255 = CIRCLE('',#256,1.75);
#256 = AXIS2_PLACEMENT_3D('',#257,#258,#259);
#257 = CARTESIAN_POINT('',(7.,1.141077359817E-24,0.));
#258 = DIRECTION('',(0.,0.,1.));
#259 = DIRECTION('',(1.,0.,0.));
#260 = ORIENTED_EDGE('',*,*,#261,.F.);
#261 = EDGE_CURVE('',#262,#253,#264,.T.);
#262 = VERTEX_POINT('',#263);
#263 = CARTESIAN_POINT('',(4.145780987944,1.75,0.));
#264 = LINE('',#265,#266);
#265 = CARTESIAN_POINT('',(4.145780987944,1.75,0.));
#266 = VECTOR('',#267,1.);
#267 = DIRECTION('',(1.,0.,0.));
#268 = ORIENTED_EDGE('',*,*,#269,.T.);
#269 = EDGE_CURVE('',#262,#270,#272,.T.);
#270 = VERTEX_POINT('',#271);
#271 = CARTESIAN_POINT('',(1.75,4.145780987944,0.));
#272 = CIRCLE('',#273,4.5);
#273 = AXIS2_PLACEMENT_3D('',#274,#275,#276);
#274 = CARTESIAN_POINT('',(-3.011134497202E-16,-8.980818941778E-16,0.));
#275 = DIRECTION('',(0.,0.,1.));
#276 = DIRECTION('',(1.,0.,0.));
#277 = ORIENTED_EDGE('',*,*,#278,.T.);
#278 = EDGE_CURVE('',#270,#279,#281,.T.);
#279 = VERTEX_POINT('',#280);
#280 = CARTESIAN_POINT('',(1.75,7.,0.));
#281 = LINE('',#282,#283);
#282 = CARTESIAN_POINT('',(1.75,4.145780987944,0.));
#283 = VECTOR('',#284,1.);
#284 = DIRECTION('',(0.,1.,0.));
#285 = ORIENTED_EDGE('',*,*,#286,.T.);
#286 = EDGE_CURVE('',#279,#129,#287,.T.);
#287 = CIRCLE('',#288,1.75);
#288 = AXIS2_PLACEMENT_3D('',#289,#290,#291);
#289 = CARTESIAN_POINT('',(0.,7.,0.));
#290 = DIRECTION('',(0.,0.,1.));
#291 = DIRECTION('',(1.,0.,0.));
#292 = ORIENTED_EDGE('',*,*,#136,.F.);
#293 = FACE_BOUND('',#294,.T.);
#294 = EDGE_LOOP('',(#295,#305,#313,#321,#329,#337));
#295 = ORIENTED_EDGE('',*,*,#296,.T.);
#296 = EDGE_CURVE('',#297,#299,#301,.T.);
#297 = VERTEX_POINT('',#298);
#298 = CARTESIAN_POINT('',(1.587713240271,2.75,0.));
#299 = VERTEX_POINT('',#300);
#300 = CARTESIAN_POINT('',(-1.587713240271,2.75,0.));
#301 = LINE('',#302,#303);
#302 = CARTESIAN_POINT('',(1.587713240271,2.75,0.));
#303 = VECTOR('',#304,1.);
#304 = DIRECTION('',(-1.,0.,0.));
#305 = ORIENTED_EDGE('',*,*,#306,.T.);
#306 = EDGE_CURVE('',#299,#307,#309,.T.);
#307 = VERTEX_POINT('',#308);
#308 = CARTESIAN_POINT('',(-3.175426480543,2.737902764625E-17,0.));
#309 = LINE('',#310,#311);
#310 = CARTESIAN_POINT('',(-1.587713240271,2.75,0.));
#311 = VECTOR('',#312,1.);
#312 = DIRECTION('',(-0.5,-0.866025403784,0.));
#313 = ORIENTED_EDGE('',*,*,#314,.T.);
#314 = EDGE_CURVE('',#307,#315,#317,.T.);
#315 = VERTEX_POINT('',#316);
#316 = CARTESIAN_POINT('',(-1.587713240271,-2.75,0.));
#317 = LINE('',#318,#319);
#318 = CARTESIAN_POINT('',(-3.175426480543,5.475805741216E-17,0.));
#319 = VECTOR('',#320,1.);
#320 = DIRECTION('',(0.5,-0.866025403784,0.));
#321 = ORIENTED_EDGE('',*,*,#322,.T.);
#322 = EDGE_CURVE('',#315,#323,#325,.T.);
#323 = VERTEX_POINT('',#324);
#324 = CARTESIAN_POINT('',(1.587713240271,-2.75,0.));
#325 = LINE('',#326,#327);
#326 = CARTESIAN_POINT('',(-1.587713240271,-2.75,0.));
#327 = VECTOR('',#328,1.);
#328 = DIRECTION('',(1.,0.,0.));
#329 = ORIENTED_EDGE('',*,*,#330,.T.);
#330 = EDGE_CURVE('',#323,#331,#333,.T.);
#331 = VERTEX_POINT('',#332);
#332 = CARTESIAN_POINT('',(3.175426480543,1.084775021394E-16,0.));
#333 = LINE('',#334,#335);
#334 = CARTESIAN_POINT('',(1.587713240271,-2.75,0.));
#335 = VECTOR('',#336,1.);
#336 = DIRECTION('',(0.5,0.866025403784,0.));
#337 = ORIENTED_EDGE('',*,*,#338,.T.);
#338 = EDGE_CURVE('',#331,#297,#339,.T.);
#339 = LINE('',#340,#341);
#340 = CARTESIAN_POINT('',(3.175426480543,2.169550132259E-16,0.));
#341 = VECTOR('',#342,1.);
#342 = DIRECTION('',(-0.5,0.866025403784,0.));
#343 = PLANE('',#344);
#344 = AXIS2_PLACEMENT_3D('',#345,#346,#347);
#345 = CARTESIAN_POINT('',(1.504542992176E-16,-1.157340763212E-16,0.));
#346 = DIRECTION('',(0.,0.,1.));
#347 = DIRECTION('',(1.,0.,0.));
#348 = ADVANCED_FACE('',(#349,#526),#576,.T.);
#349 = FACE_BOUND('',#350,.T.);
#350 = EDGE_LOOP('',(#351,#352,#360,#369,#377,#386,#395,#404,#412,#421,
    #429,#438,#447,#456,#464,#473,#481,#490,#499,#508,#516,#523,#524,
    #525));
#351 = ORIENTED_EDGE('',*,*,#68,.T.);
#352 = ORIENTED_EDGE('',*,*,#353,.T.);
#353 = EDGE_CURVE('',#69,#354,#356,.T.);
#354 = VERTEX_POINT('',#355);
#355 = CARTESIAN_POINT('',(-7.,1.25,3.));
#356 = LINE('',#357,#358);
#357 = CARTESIAN_POINT('',(-4.145780987944,1.25,3.));
#358 = VECTOR('',#359,1.);
#359 = DIRECTION('',(-1.,0.,0.));
#360 = ORIENTED_EDGE('',*,*,#361,.T.);
#361 = EDGE_CURVE('',#354,#362,#364,.T.);
#362 = VERTEX_POINT('',#363);
#363 = CARTESIAN_POINT('',(-7.,-1.25,3.));
#364 = CIRCLE('',#365,1.25);
#365 = AXIS2_PLACEMENT_3D('',#366,#367,#368);
#366 = CARTESIAN_POINT('',(-7.,0.,3.));
#367 = DIRECTION('',(0.,-0.,1.));
#368 = DIRECTION('',(0.,1.,0.));
#369 = ORIENTED_EDGE('',*,*,#370,.T.);
#370 = EDGE_CURVE('',#362,#371,#373,.T.);
#371 = VERTEX_POINT('',#372);
#372 = CARTESIAN_POINT('',(-4.322904116448,-1.25,3.));
#373 = LINE('',#374,#375);
#374 = CARTESIAN_POINT('',(-7.,-1.25,3.));
#375 = VECTOR('',#376,1.);
#376 = DIRECTION('',(1.,0.,0.));
#377 = ORIENTED_EDGE('',*,*,#378,.F.);
#378 = EDGE_CURVE('',#379,#371,#381,.T.);
#379 = VERTEX_POINT('',#380);
#380 = CARTESIAN_POINT('',(-4.145780987944,-1.75,3.));
#381 = CIRCLE('',#382,4.5);
#382 = AXIS2_PLACEMENT_3D('',#383,#384,#385);
#383 = CARTESIAN_POINT('',(7.204967679718E-16,-2.68262998534E-15,3.));
#384 = DIRECTION('',(0.,0.,-1.));
#385 = DIRECTION('',(0.,1.,0.));
#386 = ORIENTED_EDGE('',*,*,#387,.T.);
#387 = EDGE_CURVE('',#379,#388,#390,.T.);
#388 = VERTEX_POINT('',#389);
#389 = CARTESIAN_POINT('',(-1.75,-4.145780987944,3.));
#390 = CIRCLE('',#391,4.5);
#391 = AXIS2_PLACEMENT_3D('',#392,#393,#394);
#392 = CARTESIAN_POINT('',(7.204967679718E-16,-2.68262998534E-15,3.));
#393 = DIRECTION('',(0.,0.,1.));
#394 = DIRECTION('',(1.,0.,0.));
#395 = ORIENTED_EDGE('',*,*,#396,.T.);
#396 = EDGE_CURVE('',#388,#397,#399,.T.);
#397 = VERTEX_POINT('',#398);
#398 = CARTESIAN_POINT('',(-1.25,-4.322904116448,3.));
#399 = CIRCLE('',#400,4.5);
#400 = AXIS2_PLACEMENT_3D('',#401,#402,#403);
#401 = CARTESIAN_POINT('',(7.204967679718E-16,-2.68262998534E-15,3.));
#402 = DIRECTION('',(0.,-0.,1.));
#403 = DIRECTION('',(0.,1.,0.));
#404 = ORIENTED_EDGE('',*,*,#405,.T.);
#405 = EDGE_CURVE('',#397,#406,#408,.T.);
#406 = VERTEX_POINT('',#407);
#407 = CARTESIAN_POINT('',(-1.25,-7.,3.));
#408 = LINE('',#409,#410);
#409 = CARTESIAN_POINT('',(-1.25,-4.145780987944,3.));
#410 = VECTOR('',#411,1.);
#411 = DIRECTION('',(0.,-1.,0.));
#412 = ORIENTED_EDGE('',*,*,#413,.T.);
#413 = EDGE_CURVE('',#406,#414,#416,.T.);
#414 = VERTEX_POINT('',#415);
#415 = CARTESIAN_POINT('',(1.25,-7.,3.));
#416 = CIRCLE('',#417,1.25);
#417 = AXIS2_PLACEMENT_3D('',#418,#419,#420);
#418 = CARTESIAN_POINT('',(7.185031406414E-25,-7.,3.));
#419 = DIRECTION('',(0.,0.,1.));
#420 = DIRECTION('',(-1.,-1.015061051086E-15,0.));
#421 = ORIENTED_EDGE('',*,*,#422,.T.);
#422 = EDGE_CURVE('',#414,#423,#425,.T.);
#423 = VERTEX_POINT('',#424);
#424 = CARTESIAN_POINT('',(1.25,-4.322904116448,3.));
#425 = LINE('',#426,#427);
#426 = CARTESIAN_POINT('',(1.25,-7.,3.));
#427 = VECTOR('',#428,1.);
#428 = DIRECTION('',(0.,1.,0.));
#429 = ORIENTED_EDGE('',*,*,#430,.F.);
#430 = EDGE_CURVE('',#431,#423,#433,.T.);
#431 = VERTEX_POINT('',#432);
#432 = CARTESIAN_POINT('',(1.75,-4.145780987944,3.));
#433 = CIRCLE('',#434,4.5);
#434 = AXIS2_PLACEMENT_3D('',#435,#436,#437);
#435 = CARTESIAN_POINT('',(-3.011134497202E-16,-8.980818941778E-16,3.));
#436 = DIRECTION('',(0.,0.,-1.));
#437 = DIRECTION('',(0.,1.,0.));
#438 = ORIENTED_EDGE('',*,*,#439,.T.);
#439 = EDGE_CURVE('',#431,#440,#442,.T.);
#440 = VERTEX_POINT('',#441);
#441 = CARTESIAN_POINT('',(4.145780987944,-1.75,3.));
#442 = CIRCLE('',#443,4.5);
#443 = AXIS2_PLACEMENT_3D('',#444,#445,#446);
#444 = CARTESIAN_POINT('',(-3.011134497202E-16,-8.980818941778E-16,3.));
#445 = DIRECTION('',(0.,0.,1.));
#446 = DIRECTION('',(1.,0.,0.));
#447 = ORIENTED_EDGE('',*,*,#448,.T.);
#448 = EDGE_CURVE('',#440,#449,#451,.T.);
#449 = VERTEX_POINT('',#450);
#450 = CARTESIAN_POINT('',(4.322904116448,-1.25,3.));
#451 = CIRCLE('',#452,4.5);
#452 = AXIS2_PLACEMENT_3D('',#453,#454,#455);
#453 = CARTESIAN_POINT('',(-3.011134497202E-16,-8.980818941778E-16,3.));
#454 = DIRECTION('',(0.,-0.,1.));
#455 = DIRECTION('',(0.,1.,0.));
#456 = ORIENTED_EDGE('',*,*,#457,.T.);
#457 = EDGE_CURVE('',#449,#458,#460,.T.);
#458 = VERTEX_POINT('',#459);
#459 = CARTESIAN_POINT('',(7.,-1.25,3.));
#460 = LINE('',#461,#462);
#461 = CARTESIAN_POINT('',(4.145780987944,-1.25,3.));
#462 = VECTOR('',#463,1.);
#463 = DIRECTION('',(1.,0.,0.));
#464 = ORIENTED_EDGE('',*,*,#465,.T.);
#465 = EDGE_CURVE('',#458,#466,#468,.T.);
#466 = VERTEX_POINT('',#467);
#467 = CARTESIAN_POINT('',(7.,1.25,3.));
#468 = CIRCLE('',#469,1.25);
#469 = AXIS2_PLACEMENT_3D('',#470,#471,#472);
#470 = CARTESIAN_POINT('',(7.,1.141077364685E-24,3.));
#471 = DIRECTION('',(-0.,0.,1.));
#472 = DIRECTION('',(0.,-1.,0.));
#473 = ORIENTED_EDGE('',*,*,#474,.T.);
#474 = EDGE_CURVE('',#466,#475,#477,.T.);
#475 = VERTEX_POINT('',#476);
#476 = CARTESIAN_POINT('',(4.322904116448,1.25,3.));
#477 = LINE('',#478,#479);
#478 = CARTESIAN_POINT('',(7.,1.25,3.));
#479 = VECTOR('',#480,1.);
#480 = DIRECTION('',(-1.,-0.,-0.));
#481 = ORIENTED_EDGE('',*,*,#482,.F.);
#482 = EDGE_CURVE('',#483,#475,#485,.T.);
#483 = VERTEX_POINT('',#484);
#484 = CARTESIAN_POINT('',(4.145780987944,1.75,3.));
#485 = CIRCLE('',#486,4.5);
#486 = AXIS2_PLACEMENT_3D('',#487,#488,#489);
#487 = CARTESIAN_POINT('',(-3.011134497202E-16,-8.980818941778E-16,3.));
#488 = DIRECTION('',(0.,0.,-1.));
#489 = DIRECTION('',(0.,1.,0.));
#490 = ORIENTED_EDGE('',*,*,#491,.T.);
#491 = EDGE_CURVE('',#483,#492,#494,.T.);
#492 = VERTEX_POINT('',#493);
#493 = CARTESIAN_POINT('',(1.75,4.145780987944,3.));
#494 = CIRCLE('',#495,4.5);
#495 = AXIS2_PLACEMENT_3D('',#496,#497,#498);
#496 = CARTESIAN_POINT('',(-3.011134497202E-16,-8.980818941778E-16,3.));
#497 = DIRECTION('',(0.,0.,1.));
#498 = DIRECTION('',(1.,0.,0.));
#499 = ORIENTED_EDGE('',*,*,#500,.T.);
#500 = EDGE_CURVE('',#492,#501,#503,.T.);
#501 = VERTEX_POINT('',#502);
#502 = CARTESIAN_POINT('',(1.25,4.322904116448,3.));
#503 = CIRCLE('',#504,4.5);
#504 = AXIS2_PLACEMENT_3D('',#505,#506,#507);
#505 = CARTESIAN_POINT('',(-3.011134497202E-16,-8.980818941778E-16,3.));
#506 = DIRECTION('',(0.,-0.,1.));
#507 = DIRECTION('',(0.,1.,0.));
#508 = ORIENTED_EDGE('',*,*,#509,.T.);
#509 = EDGE_CURVE('',#501,#510,#512,.T.);
#510 = VERTEX_POINT('',#511);
#511 = CARTESIAN_POINT('',(1.25,7.,3.));
#512 = LINE('',#513,#514);
#513 = CARTESIAN_POINT('',(1.25,4.145780987944,3.));
#514 = VECTOR('',#515,1.);
#515 = DIRECTION('',(0.,1.,0.));
#516 = ORIENTED_EDGE('',*,*,#517,.T.);
#517 = EDGE_CURVE('',#510,#151,#518,.T.);
#518 = CIRCLE('',#519,1.25);
#519 = AXIS2_PLACEMENT_3D('',#520,#521,#522);
#520 = CARTESIAN_POINT('',(0.,7.,3.));
#521 = DIRECTION('',(0.,0.,1.));
#522 = DIRECTION('',(1.,0.,0.));
#523 = ORIENTED_EDGE('',*,*,#159,.T.);
#524 = ORIENTED_EDGE('',*,*,#50,.F.);
#525 = ORIENTED_EDGE('',*,*,#59,.T.);
#526 = FACE_BOUND('',#527,.F.);
#527 = EDGE_LOOP('',(#528,#538,#546,#554,#562,#570));
#528 = ORIENTED_EDGE('',*,*,#529,.T.);
#529 = EDGE_CURVE('',#530,#532,#534,.T.);
#530 = VERTEX_POINT('',#531);
#531 = CARTESIAN_POINT('',(1.587713240271,2.75,3.));
#532 = VERTEX_POINT('',#533);
#533 = CARTESIAN_POINT('',(-1.587713240271,2.75,3.));
#534 = LINE('',#535,#536);
#535 = CARTESIAN_POINT('',(1.587713240271,2.75,3.));
#536 = VECTOR('',#537,1.);
#537 = DIRECTION('',(-1.,0.,0.));
#538 = ORIENTED_EDGE('',*,*,#539,.T.);
#539 = EDGE_CURVE('',#532,#540,#542,.T.);
#540 = VERTEX_POINT('',#541);
#541 = CARTESIAN_POINT('',(-3.175426480543,2.737902764625E-17,3.));
#542 = LINE('',#543,#544);
#543 = CARTESIAN_POINT('',(-1.587713240271,2.75,3.));
#544 = VECTOR('',#545,1.);
#545 = DIRECTION('',(-0.5,-0.866025403784,0.));
#546 = ORIENTED_EDGE('',*,*,#547,.T.);
#547 = EDGE_CURVE('',#540,#548,#550,.T.);
#548 = VERTEX_POINT('',#549);
#549 = CARTESIAN_POINT('',(-1.587713240271,-2.75,3.));
#550 = LINE('',#551,#552);
#551 = CARTESIAN_POINT('',(-3.175426480543,5.475805741216E-17,3.));
#552 = VECTOR('',#553,1.);
#553 = DIRECTION('',(0.5,-0.866025403784,0.));
#554 = ORIENTED_EDGE('',*,*,#555,.T.);
#555 = EDGE_CURVE('',#548,#556,#558,.T.);
#556 = VERTEX_POINT('',#557);
#557 = CARTESIAN_POINT('',(1.587713240271,-2.75,3.));
#558 = LINE('',#559,#560);
#559 = CARTESIAN_POINT('',(-1.587713240271,-2.75,3.));
#560 = VECTOR('',#561,1.);
#561 = DIRECTION('',(1.,0.,0.));
#562 = ORIENTED_EDGE('',*,*,#563,.T.);
#563 = EDGE_CURVE('',#556,#564,#566,.T.);
#564 = VERTEX_POINT('',#565);
#565 = CARTESIAN_POINT('',(3.175426480543,1.084775021394E-16,3.));
#566 = LINE('',#567,#568);
#567 = CARTESIAN_POINT('',(1.587713240271,-2.75,3.));
#568 = VECTOR('',#569,1.);
#569 = DIRECTION('',(0.5,0.866025403784,0.));
#570 = ORIENTED_EDGE('',*,*,#571,.T.);
#571 = EDGE_CURVE('',#564,#530,#572,.T.);
#572 = LINE('',#573,#574);
#573 = CARTESIAN_POINT('',(3.175426480543,2.169550132259E-16,3.));
#574 = VECTOR('',#575,1.);
#575 = DIRECTION('',(-0.5,0.866025403784,0.));
#576 = PLANE('',#577);
#577 = AXIS2_PLACEMENT_3D('',#578,#579,#580);
#578 = CARTESIAN_POINT('',(1.504542992176E-16,-1.157340763212E-16,3.));
#579 = DIRECTION('',(0.,0.,1.));
#580 = DIRECTION('',(1.,0.,0.));
#581 = ADVANCED_FACE('',(#582),#600,.F.);
#582 = FACE_BOUND('',#583,.F.);
#583 = EDGE_LOOP('',(#584,#585,#593,#599));
#584 = ORIENTED_EDGE('',*,*,#96,.T.);
#585 = ORIENTED_EDGE('',*,*,#586,.T.);
#586 = EDGE_CURVE('',#78,#587,#589,.T.);
#587 = VERTEX_POINT('',#588);
#588 = CARTESIAN_POINT('',(-7.,1.75,2.5));
#589 = LINE('',#590,#591);
#590 = CARTESIAN_POINT('',(-4.145780987944,1.75,2.5));
#591 = VECTOR('',#592,1.);
#592 = DIRECTION('',(-1.,0.,0.));
#593 = ORIENTED_EDGE('',*,*,#594,.F.);
#594 = EDGE_CURVE('',#177,#587,#595,.T.);
#595 = LINE('',#596,#597);
#596 = CARTESIAN_POINT('',(-7.,1.75,0.));
#597 = VECTOR('',#598,1.);
#598 = DIRECTION('',(0.,0.,1.));
#599 = ORIENTED_EDGE('',*,*,#176,.F.);
#600 = PLANE('',#601);
#601 = AXIS2_PLACEMENT_3D('',#602,#603,#604);
#602 = CARTESIAN_POINT('',(-4.145780987944,1.75,0.));
#603 = DIRECTION('',(0.,-1.,0.));
#604 = DIRECTION('',(-1.,0.,0.));
#605 = ADVANCED_FACE('',(#606),#618,.T.);
#606 = FACE_BOUND('',#607,.F.);
#607 = EDGE_LOOP('',(#608,#609,#610,#617));
#608 = ORIENTED_EDGE('',*,*,#77,.T.);
#609 = ORIENTED_EDGE('',*,*,#353,.T.);
#610 = ORIENTED_EDGE('',*,*,#611,.F.);
#611 = EDGE_CURVE('',#587,#354,#612,.T.);
#612 = CIRCLE('',#613,0.5);
#613 = AXIS2_PLACEMENT_3D('',#614,#615,#616);
#614 = CARTESIAN_POINT('',(-7.,1.25,2.5));
#615 = DIRECTION('',(1.,0.,0.));
#616 = DIRECTION('',(0.,1.,0.));
#617 = ORIENTED_EDGE('',*,*,#586,.F.);
#618 = CYLINDRICAL_SURFACE('',#619,0.5);
#619 = AXIS2_PLACEMENT_3D('',#620,#621,#622);
#620 = CARTESIAN_POINT('',(-4.145780987944,1.25,2.5));
#621 = DIRECTION('',(-1.,0.,0.));
#622 = DIRECTION('',(0.,1.,0.));
#623 = ADVANCED_FACE('',(#624),#643,.T.);
#624 = FACE_BOUND('',#625,.F.);
#625 = EDGE_LOOP('',(#626,#634,#641,#642));
#626 = ORIENTED_EDGE('',*,*,#627,.T.);
#627 = EDGE_CURVE('',#279,#628,#630,.T.);
#628 = VERTEX_POINT('',#629);
#629 = CARTESIAN_POINT('',(1.75,7.,2.5));
#630 = LINE('',#631,#632);
#631 = CARTESIAN_POINT('',(1.75,7.,0.));
#632 = VECTOR('',#633,1.);
#633 = DIRECTION('',(0.,0.,1.));
#634 = ORIENTED_EDGE('',*,*,#635,.T.);
#635 = EDGE_CURVE('',#628,#121,#636,.T.);
#636 = CIRCLE('',#637,1.75);
#637 = AXIS2_PLACEMENT_3D('',#638,#639,#640);
#638 = CARTESIAN_POINT('',(0.,7.,2.5));
#639 = DIRECTION('',(0.,0.,1.));
#640 = DIRECTION('',(1.,0.,0.));
#641 = ORIENTED_EDGE('',*,*,#128,.F.);
#642 = ORIENTED_EDGE('',*,*,#286,.F.);
#643 = CYLINDRICAL_SURFACE('',#644,1.75);
#644 = AXIS2_PLACEMENT_3D('',#645,#646,#647);
#645 = CARTESIAN_POINT('',(0.,7.,0.));
#646 = DIRECTION('',(-0.,-0.,-1.));
#647 = DIRECTION('',(1.,0.,0.));
#648 = ADVANCED_FACE('',(#649),#661,.T.);
#649 = FACE_BOUND('',#650,.T.);
#650 = EDGE_LOOP('',(#651,#658,#659,#660));
#651 = ORIENTED_EDGE('',*,*,#652,.F.);
#652 = EDGE_CURVE('',#628,#510,#653,.T.);
#653 = CIRCLE('',#654,0.5);
#654 = AXIS2_PLACEMENT_3D('',#655,#656,#657);
#655 = CARTESIAN_POINT('',(1.25,7.,2.5));
#656 = DIRECTION('',(0.,-1.,0.));
#657 = DIRECTION('',(1.,0.,0.));
#658 = ORIENTED_EDGE('',*,*,#635,.T.);
#659 = ORIENTED_EDGE('',*,*,#150,.T.);
#660 = ORIENTED_EDGE('',*,*,#517,.F.);
#661 = TOROIDAL_SURFACE('',#662,1.25,0.5);
#662 = AXIS2_PLACEMENT_3D('',#663,#664,#665);
#663 = CARTESIAN_POINT('',(0.,7.,2.5));
#664 = DIRECTION('',(0.,0.,1.));
#665 = DIRECTION('',(1.,0.,0.));
#666 = ADVANCED_FACE('',(#667),#686,.T.);
#667 = FACE_BOUND('',#668,.F.);
#668 = EDGE_LOOP('',(#669,#670,#679,#685));
#669 = ORIENTED_EDGE('',*,*,#594,.T.);
#670 = ORIENTED_EDGE('',*,*,#671,.T.);
#671 = EDGE_CURVE('',#587,#672,#674,.T.);
#672 = VERTEX_POINT('',#673);
#673 = CARTESIAN_POINT('',(-7.,-1.75,2.5));
#674 = CIRCLE('',#675,1.75);
#675 = AXIS2_PLACEMENT_3D('',#676,#677,#678);
#676 = CARTESIAN_POINT('',(-7.,0.,2.5));
#677 = DIRECTION('',(0.,-0.,1.));
#678 = DIRECTION('',(0.,1.,0.));
#679 = ORIENTED_EDGE('',*,*,#680,.F.);
#680 = EDGE_CURVE('',#185,#672,#681,.T.);
#681 = LINE('',#682,#683);
#682 = CARTESIAN_POINT('',(-7.,-1.75,0.));
#683 = VECTOR('',#684,1.);
#684 = DIRECTION('',(0.,0.,1.));
#685 = ORIENTED_EDGE('',*,*,#184,.F.);
#686 = CYLINDRICAL_SURFACE('',#687,1.75);
#687 = AXIS2_PLACEMENT_3D('',#688,#689,#690);
#688 = CARTESIAN_POINT('',(-7.,0.,0.));
#689 = DIRECTION('',(-0.,-0.,-1.));
#690 = DIRECTION('',(1.,0.,0.));
#691 = ADVANCED_FACE('',(#692),#710,.T.);
#692 = FACE_BOUND('',#693,.T.);
#693 = EDGE_LOOP('',(#694,#702,#708,#709));
#694 = ORIENTED_EDGE('',*,*,#695,.T.);
#695 = EDGE_CURVE('',#194,#696,#698,.T.);
#696 = VERTEX_POINT('',#697);
#697 = CARTESIAN_POINT('',(-4.145780987944,-1.75,2.5));
#698 = LINE('',#699,#700);
#699 = CARTESIAN_POINT('',(-4.145780987944,-1.75,0.));
#700 = VECTOR('',#701,1.);
#701 = DIRECTION('',(0.,0.,1.));
#702 = ORIENTED_EDGE('',*,*,#703,.F.);
#703 = EDGE_CURVE('',#672,#696,#704,.T.);
#704 = LINE('',#705,#706);
#705 = CARTESIAN_POINT('',(-7.,-1.75,2.5));
#706 = VECTOR('',#707,1.);
#707 = DIRECTION('',(1.,0.,0.));
#708 = ORIENTED_EDGE('',*,*,#680,.F.);
#709 = ORIENTED_EDGE('',*,*,#193,.F.);
#710 = PLANE('',#711);
#711 = AXIS2_PLACEMENT_3D('',#712,#713,#714);
#712 = CARTESIAN_POINT('',(-4.145780987944,-1.75,0.));
#713 = DIRECTION('',(0.,-1.,0.));
#714 = DIRECTION('',(-1.,0.,0.));
#715 = ADVANCED_FACE('',(#716),#765,.T.);
#716 = FACE_BOUND('',#717,.F.);
#717 = EDGE_LOOP('',(#718,#719,#736,#737,#738,#739,#758,#764));
#718 = ORIENTED_EDGE('',*,*,#695,.T.);
#719 = ORIENTED_EDGE('',*,*,#720,.T.);
#720 = EDGE_CURVE('',#696,#371,#721,.T.);
#721 = B_SPLINE_CURVE_WITH_KNOTS('',7,(#722,#723,#724,#725,#726,#727,
    #728,#729,#730,#731,#732,#733,#734,#735),.UNSPECIFIED.,.F.,.F.,(8,6,
    8),(0.,0.630237042484,1.),.UNSPECIFIED.);
#722 = CARTESIAN_POINT('',(-4.145780987944,-1.75,2.5));
#723 = CARTESIAN_POINT('',(-4.145780987944,-1.75,2.568576719622));
#724 = CARTESIAN_POINT('',(-4.150412941123,-1.739026926066,
    2.637144279178));
#725 = CARTESIAN_POINT('',(-4.15967447809,-1.717085630857,2.703822566849
    ));
#726 = CARTESIAN_POINT('',(-4.173226529783,-1.684471389351,
    2.766704964237));
#727 = CARTESIAN_POINT('',(-4.190374780595,-1.641801895537,
    2.823876135561));
#728 = CARTESIAN_POINT('',(-4.210164257473,-1.590114246332,2.87339461858
    ));
#729 = CARTESIAN_POINT('',(-4.244077604106,-1.496383549112,
    2.937093934633));
#730 = CARTESIAN_POINT('',(-4.257162424616,-1.459183973274,
    2.957420802105));
#731 = CARTESIAN_POINT('',(-4.270571015811,-1.419795051593,
    2.974159373602));
#732 = CARTESIAN_POINT('',(-4.284068658239,-1.378642921256,
    2.986989892061));
#733 = CARTESIAN_POINT('',(-4.297424660921,-1.336233811828,
    2.995656558808));
#734 = CARTESIAN_POINT('',(-4.310428445409,-1.293144903752,3.));
#735 = CARTESIAN_POINT('',(-4.322904116448,-1.25,3.));
#736 = ORIENTED_EDGE('',*,*,#378,.F.);
#737 = ORIENTED_EDGE('',*,*,#387,.T.);
#738 = ORIENTED_EDGE('',*,*,#396,.T.);
#739 = ORIENTED_EDGE('',*,*,#740,.F.);
#740 = EDGE_CURVE('',#741,#397,#743,.T.);
#741 = VERTEX_POINT('',#742);
#742 = CARTESIAN_POINT('',(-1.75,-4.145780987944,2.5));
#743 = B_SPLINE_CURVE_WITH_KNOTS('',7,(#744,#745,#746,#747,#748,#749,
    #750,#751,#752,#753,#754,#755,#756,#757),.UNSPECIFIED.,.F.,.F.,(8,6,
    8),(0.,0.630237042484,1.),.UNSPECIFIED.);
#744 = CARTESIAN_POINT('',(-1.75,-4.145780987944,2.5));
#745 = CARTESIAN_POINT('',(-1.75,-4.145780987944,2.568576719622));
#746 = CARTESIAN_POINT('',(-1.739026926066,-4.150412941123,
    2.637144279178));
#747 = CARTESIAN_POINT('',(-1.717085630857,-4.15967447809,2.70382256685)
  );
#748 = CARTESIAN_POINT('',(-1.684471389351,-4.173226529783,
    2.766704964237));
#749 = CARTESIAN_POINT('',(-1.641801895537,-4.190374780595,
    2.823876135561));
#750 = CARTESIAN_POINT('',(-1.590114246332,-4.210164257473,2.87339461858
    ));
#751 = CARTESIAN_POINT('',(-1.496383549112,-4.244077604106,
    2.937093934633));
#752 = CARTESIAN_POINT('',(-1.459183973274,-4.257162424616,
    2.957420802105));
#753 = CARTESIAN_POINT('',(-1.419795051592,-4.270571015811,
    2.974159373602));
#754 = CARTESIAN_POINT('',(-1.378642921256,-4.284068658239,
    2.986989892061));
#755 = CARTESIAN_POINT('',(-1.336233811828,-4.297424660921,
    2.995656558808));
#756 = CARTESIAN_POINT('',(-1.293144903752,-4.310428445409,3.));
#757 = CARTESIAN_POINT('',(-1.25,-4.322904116448,3.));
#758 = ORIENTED_EDGE('',*,*,#759,.F.);
#759 = EDGE_CURVE('',#202,#741,#760,.T.);
#760 = LINE('',#761,#762);
#761 = CARTESIAN_POINT('',(-1.75,-4.145780987944,0.));
#762 = VECTOR('',#763,1.);
#763 = DIRECTION('',(0.,0.,1.));
#764 = ORIENTED_EDGE('',*,*,#201,.F.);
#765 = CYLINDRICAL_SURFACE('',#766,4.5);
#766 = AXIS2_PLACEMENT_3D('',#767,#768,#769);
#767 = CARTESIAN_POINT('',(7.204967679718E-16,-2.68262998534E-15,0.));
#768 = DIRECTION('',(-0.,-0.,-1.));
#769 = DIRECTION('',(1.,0.,0.));
#770 = ADVANCED_FACE('',(#771),#789,.F.);
#771 = FACE_BOUND('',#772,.F.);
#772 = EDGE_LOOP('',(#773,#774,#782,#788));
#773 = ORIENTED_EDGE('',*,*,#759,.T.);
#774 = ORIENTED_EDGE('',*,*,#775,.T.);
#775 = EDGE_CURVE('',#741,#776,#778,.T.);
#776 = VERTEX_POINT('',#777);
#777 = CARTESIAN_POINT('',(-1.75,-7.,2.5));
#778 = LINE('',#779,#780);
#779 = CARTESIAN_POINT('',(-1.75,-4.145780987944,2.5));
#780 = VECTOR('',#781,1.);
#781 = DIRECTION('',(0.,-1.,0.));
#782 = ORIENTED_EDGE('',*,*,#783,.F.);
#783 = EDGE_CURVE('',#211,#776,#784,.T.);
#784 = LINE('',#785,#786);
#785 = CARTESIAN_POINT('',(-1.75,-7.,0.));
#786 = VECTOR('',#787,1.);
#787 = DIRECTION('',(0.,0.,1.));
#788 = ORIENTED_EDGE('',*,*,#210,.F.);
#789 = PLANE('',#790);
#790 = AXIS2_PLACEMENT_3D('',#791,#792,#793);
#791 = CARTESIAN_POINT('',(-1.75,-4.145780987944,0.));
#792 = DIRECTION('',(1.,0.,0.));
#793 = DIRECTION('',(0.,-1.,0.));
#794 = ADVANCED_FACE('',(#795),#814,.T.);
#795 = FACE_BOUND('',#796,.F.);
#796 = EDGE_LOOP('',(#797,#798,#807,#813));
#797 = ORIENTED_EDGE('',*,*,#783,.T.);
#798 = ORIENTED_EDGE('',*,*,#799,.T.);
#799 = EDGE_CURVE('',#776,#800,#802,.T.);
#800 = VERTEX_POINT('',#801);
#801 = CARTESIAN_POINT('',(1.75,-7.,2.5));
#802 = CIRCLE('',#803,1.75);
#803 = AXIS2_PLACEMENT_3D('',#804,#805,#806);
#804 = CARTESIAN_POINT('',(7.185031406414E-25,-7.,2.5));
#805 = DIRECTION('',(0.,0.,1.));
#806 = DIRECTION('',(-1.,-1.015061051086E-15,0.));
#807 = ORIENTED_EDGE('',*,*,#808,.F.);
#808 = EDGE_CURVE('',#219,#800,#809,.T.);
#809 = LINE('',#810,#811);
#810 = CARTESIAN_POINT('',(1.75,-7.,0.));
#811 = VECTOR('',#812,1.);
#812 = DIRECTION('',(0.,0.,1.));
#813 = ORIENTED_EDGE('',*,*,#218,.F.);
#814 = CYLINDRICAL_SURFACE('',#815,1.75);
#815 = AXIS2_PLACEMENT_3D('',#816,#817,#818);
#816 = CARTESIAN_POINT('',(7.1850313496E-25,-7.,0.));
#817 = DIRECTION('',(-0.,-0.,-1.));
#818 = DIRECTION('',(1.,0.,0.));
#819 = ADVANCED_FACE('',(#820),#838,.T.);
#820 = FACE_BOUND('',#821,.T.);
#821 = EDGE_LOOP('',(#822,#830,#836,#837));
#822 = ORIENTED_EDGE('',*,*,#823,.T.);
#823 = EDGE_CURVE('',#228,#824,#826,.T.);
#824 = VERTEX_POINT('',#825);
#825 = CARTESIAN_POINT('',(1.75,-4.145780987944,2.5));
#826 = LINE('',#827,#828);
#827 = CARTESIAN_POINT('',(1.75,-4.145780987944,0.));
#828 = VECTOR('',#829,1.);
#829 = DIRECTION('',(0.,0.,1.));
#830 = ORIENTED_EDGE('',*,*,#831,.F.);
#831 = EDGE_CURVE('',#800,#824,#832,.T.);
#832 = LINE('',#833,#834);
#833 = CARTESIAN_POINT('',(1.75,-7.,2.5));
#834 = VECTOR('',#835,1.);
#835 = DIRECTION('',(0.,1.,0.));
#836 = ORIENTED_EDGE('',*,*,#808,.F.);
#837 = ORIENTED_EDGE('',*,*,#227,.F.);
#838 = PLANE('',#839);
#839 = AXIS2_PLACEMENT_3D('',#840,#841,#842);
#840 = CARTESIAN_POINT('',(1.75,-4.145780987944,0.));
#841 = DIRECTION('',(1.,0.,0.));
#842 = DIRECTION('',(0.,-1.,0.));
#843 = ADVANCED_FACE('',(#844),#893,.T.);
#844 = FACE_BOUND('',#845,.F.);
#845 = EDGE_LOOP('',(#846,#847,#864,#865,#866,#867,#886,#892));
#846 = ORIENTED_EDGE('',*,*,#823,.T.);
#847 = ORIENTED_EDGE('',*,*,#848,.T.);
#848 = EDGE_CURVE('',#824,#423,#849,.T.);
#849 = B_SPLINE_CURVE_WITH_KNOTS('',7,(#850,#851,#852,#853,#854,#855,
    #856,#857,#858,#859,#860,#861,#862,#863),.UNSPECIFIED.,.F.,.F.,(8,6,
    8),(0.,0.630243343539,1.),.UNSPECIFIED.);
#850 = CARTESIAN_POINT('',(1.75,-4.145780987944,2.5));
#851 = CARTESIAN_POINT('',(1.75,-4.145780987944,2.568576137206));
#852 = CARTESIAN_POINT('',(1.739027105757,-4.150412859544,2.637144243476
    ));
#853 = CARTESIAN_POINT('',(1.717085568596,-4.159674521267,2.703822740657
    ));
#854 = CARTESIAN_POINT('',(1.684471270904,-4.173226564276,2.766704579016
    ));
#855 = CARTESIAN_POINT('',(1.641802665661,-4.190374446108,2.823874828764
    ));
#856 = CARTESIAN_POINT('',(1.590115824281,-4.210163686544,2.873393546207
    ));
#857 = CARTESIAN_POINT('',(1.496383560449,-4.244077600005,2.937093926928
    ));
#858 = CARTESIAN_POINT('',(1.459184144441,-4.257162363964,2.957420689531
    ));
#859 = CARTESIAN_POINT('',(1.419795405042,-4.270570894013,2.974159219753
    ));
#860 = CARTESIAN_POINT('',(1.37864325654,-4.284068553852,2.986989844618)
  );
#861 = CARTESIAN_POINT('',(1.33623383654,-4.297424663156,2.995656626146)
  );
#862 = CARTESIAN_POINT('',(1.293144566553,-4.310428542912,3.));
#863 = CARTESIAN_POINT('',(1.25,-4.322904116448,3.));
#864 = ORIENTED_EDGE('',*,*,#430,.F.);
#865 = ORIENTED_EDGE('',*,*,#439,.T.);
#866 = ORIENTED_EDGE('',*,*,#448,.T.);
#867 = ORIENTED_EDGE('',*,*,#868,.F.);
#868 = EDGE_CURVE('',#869,#449,#871,.T.);
#869 = VERTEX_POINT('',#870);
#870 = CARTESIAN_POINT('',(4.145780987944,-1.75,2.5));
#871 = B_SPLINE_CURVE_WITH_KNOTS('',7,(#872,#873,#874,#875,#876,#877,
    #878,#879,#880,#881,#882,#883,#884,#885),.UNSPECIFIED.,.F.,.F.,(8,6,
    8),(0.,0.630237042484,1.),.UNSPECIFIED.);
#872 = CARTESIAN_POINT('',(4.145780987944,-1.75,2.5));
#873 = CARTESIAN_POINT('',(4.145780987944,-1.75,2.568576719622));
#874 = CARTESIAN_POINT('',(4.150412941123,-1.739026926066,2.637144279178
    ));
#875 = CARTESIAN_POINT('',(4.15967447809,-1.717085630857,2.70382256685)
  );
#876 = CARTESIAN_POINT('',(4.173226529783,-1.684471389351,2.766704964237
    ));
#877 = CARTESIAN_POINT('',(4.190374780595,-1.641801895537,2.823876135561
    ));
#878 = CARTESIAN_POINT('',(4.210164257473,-1.590114246332,2.87339461858)
  );
#879 = CARTESIAN_POINT('',(4.244077604106,-1.496383549112,2.937093934633
    ));
#880 = CARTESIAN_POINT('',(4.257162424616,-1.459183973274,2.957420802105
    ));
#881 = CARTESIAN_POINT('',(4.270571015811,-1.419795051593,2.974159373602
    ));
#882 = CARTESIAN_POINT('',(4.284068658239,-1.378642921256,2.986989892061
    ));
#883 = CARTESIAN_POINT('',(4.297424660921,-1.336233811828,2.995656558808
    ));
#884 = CARTESIAN_POINT('',(4.310428445409,-1.293144903752,3.));
#885 = CARTESIAN_POINT('',(4.322904116448,-1.25,3.));
#886 = ORIENTED_EDGE('',*,*,#887,.F.);
#887 = EDGE_CURVE('',#236,#869,#888,.T.);
#888 = LINE('',#889,#890);
#889 = CARTESIAN_POINT('',(4.145780987944,-1.75,0.));
#890 = VECTOR('',#891,1.);
#891 = DIRECTION('',(0.,0.,1.));
#892 = ORIENTED_EDGE('',*,*,#235,.F.);
#893 = CYLINDRICAL_SURFACE('',#894,4.5);
#894 = AXIS2_PLACEMENT_3D('',#895,#896,#897);
#895 = CARTESIAN_POINT('',(-3.011134497202E-16,-8.980818941778E-16,0.));
#896 = DIRECTION('',(-0.,-0.,-1.));
#897 = DIRECTION('',(1.,0.,0.));
#898 = ADVANCED_FACE('',(#899),#917,.F.);
#899 = FACE_BOUND('',#900,.F.);
#900 = EDGE_LOOP('',(#901,#902,#910,#916));
#901 = ORIENTED_EDGE('',*,*,#887,.T.);
#902 = ORIENTED_EDGE('',*,*,#903,.T.);
#903 = EDGE_CURVE('',#869,#904,#906,.T.);
#904 = VERTEX_POINT('',#905);
#905 = CARTESIAN_POINT('',(7.,-1.75,2.5));
#906 = LINE('',#907,#908);
#907 = CARTESIAN_POINT('',(4.145780987944,-1.75,2.5));
#908 = VECTOR('',#909,1.);
#909 = DIRECTION('',(1.,0.,0.));
#910 = ORIENTED_EDGE('',*,*,#911,.F.);
#911 = EDGE_CURVE('',#245,#904,#912,.T.);
#912 = LINE('',#913,#914);
#913 = CARTESIAN_POINT('',(7.,-1.75,0.));
#914 = VECTOR('',#915,1.);
#915 = DIRECTION('',(0.,0.,1.));
#916 = ORIENTED_EDGE('',*,*,#244,.F.);
#917 = PLANE('',#918);
#918 = AXIS2_PLACEMENT_3D('',#919,#920,#921);
#919 = CARTESIAN_POINT('',(4.145780987944,-1.75,0.));
#920 = DIRECTION('',(0.,1.,0.));
#921 = DIRECTION('',(1.,0.,0.));
#922 = ADVANCED_FACE('',(#923),#942,.T.);
#923 = FACE_BOUND('',#924,.F.);
#924 = EDGE_LOOP('',(#925,#926,#935,#941));
#925 = ORIENTED_EDGE('',*,*,#911,.T.);
#926 = ORIENTED_EDGE('',*,*,#927,.T.);
#927 = EDGE_CURVE('',#904,#928,#930,.T.);
#928 = VERTEX_POINT('',#929);
#929 = CARTESIAN_POINT('',(7.,1.75,2.5));
#930 = CIRCLE('',#931,1.75);
#931 = AXIS2_PLACEMENT_3D('',#932,#933,#934);
#932 = CARTESIAN_POINT('',(7.,1.141077364685E-24,2.5));
#933 = DIRECTION('',(-0.,0.,1.));
#934 = DIRECTION('',(0.,-1.,0.));
#935 = ORIENTED_EDGE('',*,*,#936,.F.);
#936 = EDGE_CURVE('',#253,#928,#937,.T.);
#937 = LINE('',#938,#939);
#938 = CARTESIAN_POINT('',(7.,1.75,0.));
#939 = VECTOR('',#940,1.);
#940 = DIRECTION('',(0.,0.,1.));
#941 = ORIENTED_EDGE('',*,*,#252,.F.);
#942 = CYLINDRICAL_SURFACE('',#943,1.75);
#943 = AXIS2_PLACEMENT_3D('',#944,#945,#946);
#944 = CARTESIAN_POINT('',(7.,1.141077359817E-24,0.));
#945 = DIRECTION('',(-0.,-0.,-1.));
#946 = DIRECTION('',(1.,0.,0.));
#947 = ADVANCED_FACE('',(#948),#966,.T.);
#948 = FACE_BOUND('',#949,.T.);
#949 = EDGE_LOOP('',(#950,#958,#964,#965));
#950 = ORIENTED_EDGE('',*,*,#951,.T.);
#951 = EDGE_CURVE('',#262,#952,#954,.T.);
#952 = VERTEX_POINT('',#953);
#953 = CARTESIAN_POINT('',(4.145780987944,1.75,2.5));
#954 = LINE('',#955,#956);
#955 = CARTESIAN_POINT('',(4.145780987944,1.75,0.));
#956 = VECTOR('',#957,1.);
#957 = DIRECTION('',(0.,0.,1.));
#958 = ORIENTED_EDGE('',*,*,#959,.F.);
#959 = EDGE_CURVE('',#928,#952,#960,.T.);
#960 = LINE('',#961,#962);
#961 = CARTESIAN_POINT('',(7.,1.75,2.5));
#962 = VECTOR('',#963,1.);
#963 = DIRECTION('',(-1.,-0.,-0.));
#964 = ORIENTED_EDGE('',*,*,#936,.F.);
#965 = ORIENTED_EDGE('',*,*,#261,.F.);
#966 = PLANE('',#967);
#967 = AXIS2_PLACEMENT_3D('',#968,#969,#970);
#968 = CARTESIAN_POINT('',(4.145780987944,1.75,0.));
#969 = DIRECTION('',(0.,1.,0.));
#970 = DIRECTION('',(1.,0.,0.));
#971 = ADVANCED_FACE('',(#972),#1021,.T.);
#972 = FACE_BOUND('',#973,.F.);
#973 = EDGE_LOOP('',(#974,#975,#992,#993,#994,#995,#1014,#1020));
#974 = ORIENTED_EDGE('',*,*,#951,.T.);
#975 = ORIENTED_EDGE('',*,*,#976,.T.);
#976 = EDGE_CURVE('',#952,#475,#977,.T.);
#977 = B_SPLINE_CURVE_WITH_KNOTS('',7,(#978,#979,#980,#981,#982,#983,
    #984,#985,#986,#987,#988,#989,#990,#991),.UNSPECIFIED.,.F.,.F.,(8,6,
    8),(0.,0.630243343539,1.),.UNSPECIFIED.);
#978 = CARTESIAN_POINT('',(4.145780987944,1.75,2.5));
#979 = CARTESIAN_POINT('',(4.145780987944,1.75,2.568576137206));
#980 = CARTESIAN_POINT('',(4.150412859544,1.739027105757,2.637144243476)
  );
#981 = CARTESIAN_POINT('',(4.159674521267,1.717085568596,2.703822740657)
  );
#982 = CARTESIAN_POINT('',(4.173226564276,1.684471270904,2.766704579016)
  );
#983 = CARTESIAN_POINT('',(4.190374446108,1.641802665661,2.823874828764)
  );
#984 = CARTESIAN_POINT('',(4.210163686544,1.590115824281,2.873393546207)
  );
#985 = CARTESIAN_POINT('',(4.244077600005,1.496383560449,2.937093926928)
  );
#986 = CARTESIAN_POINT('',(4.257162363964,1.459184144441,2.957420689531)
  );
#987 = CARTESIAN_POINT('',(4.270570894013,1.419795405042,2.974159219753)
  );
#988 = CARTESIAN_POINT('',(4.284068553852,1.37864325654,2.986989844618)
  );
#989 = CARTESIAN_POINT('',(4.297424663156,1.33623383654,2.995656626146)
  );
#990 = CARTESIAN_POINT('',(4.310428542912,1.293144566553,3.));
#991 = CARTESIAN_POINT('',(4.322904116448,1.25,3.));
#992 = ORIENTED_EDGE('',*,*,#482,.F.);
#993 = ORIENTED_EDGE('',*,*,#491,.T.);
#994 = ORIENTED_EDGE('',*,*,#500,.T.);
#995 = ORIENTED_EDGE('',*,*,#996,.F.);
#996 = EDGE_CURVE('',#997,#501,#999,.T.);
#997 = VERTEX_POINT('',#998);
#998 = CARTESIAN_POINT('',(1.75,4.145780987944,2.5));
#999 = B_SPLINE_CURVE_WITH_KNOTS('',7,(#1000,#1001,#1002,#1003,#1004,
    #1005,#1006,#1007,#1008,#1009,#1010,#1011,#1012,#1013),
  .UNSPECIFIED.,.F.,.F.,(8,6,8),(0.,0.630243343539,1.),.UNSPECIFIED.);
#1000 = CARTESIAN_POINT('',(1.75,4.145780987944,2.5));
#1001 = CARTESIAN_POINT('',(1.75,4.145780987944,2.568576137206));
#1002 = CARTESIAN_POINT('',(1.739027105757,4.150412859544,2.637144243476
    ));
#1003 = CARTESIAN_POINT('',(1.717085568596,4.159674521267,2.703822740657
    ));
#1004 = CARTESIAN_POINT('',(1.684471270904,4.173226564276,2.766704579016
    ));
#1005 = CARTESIAN_POINT('',(1.641802665661,4.190374446108,2.823874828764
    ));
#1006 = CARTESIAN_POINT('',(1.590115824281,4.210163686544,2.873393546207
    ));
#1007 = CARTESIAN_POINT('',(1.496383560449,4.244077600005,2.937093926928
    ));
#1008 = CARTESIAN_POINT('',(1.459184144441,4.257162363964,2.957420689531
    ));
#1009 = CARTESIAN_POINT('',(1.419795405042,4.270570894013,2.974159219753
    ));
#1010 = CARTESIAN_POINT('',(1.37864325654,4.284068553852,2.986989844618)
  );
#1011 = CARTESIAN_POINT('',(1.33623383654,4.297424663156,2.995656626146)
  );
#1012 = CARTESIAN_POINT('',(1.293144566553,4.310428542912,3.));
#1013 = CARTESIAN_POINT('',(1.25,4.322904116448,3.));
#1014 = ORIENTED_EDGE('',*,*,#1015,.F.);
#1015 = EDGE_CURVE('',#270,#997,#1016,.T.);
#1016 = LINE('',#1017,#1018);
#1017 = CARTESIAN_POINT('',(1.75,4.145780987944,0.));
#1018 = VECTOR('',#1019,1.);
#1019 = DIRECTION('',(0.,0.,1.));
#1020 = ORIENTED_EDGE('',*,*,#269,.F.);
#1021 = CYLINDRICAL_SURFACE('',#1022,4.5);
#1022 = AXIS2_PLACEMENT_3D('',#1023,#1024,#1025);
#1023 = CARTESIAN_POINT('',(-3.011134497202E-16,-8.980818941778E-16,0.)
  );
#1024 = DIRECTION('',(-0.,-0.,-1.));
#1025 = DIRECTION('',(1.,0.,0.));
#1026 = ADVANCED_FACE('',(#1027),#1038,.F.);
#1027 = FACE_BOUND('',#1028,.F.);
#1028 = EDGE_LOOP('',(#1029,#1030,#1036,#1037));
#1029 = ORIENTED_EDGE('',*,*,#1015,.T.);
#1030 = ORIENTED_EDGE('',*,*,#1031,.T.);
#1031 = EDGE_CURVE('',#997,#628,#1032,.T.);
#1032 = LINE('',#1033,#1034);
#1033 = CARTESIAN_POINT('',(1.75,4.145780987944,2.5));
#1034 = VECTOR('',#1035,1.);
#1035 = DIRECTION('',(0.,1.,0.));
#1036 = ORIENTED_EDGE('',*,*,#627,.F.);
#1037 = ORIENTED_EDGE('',*,*,#278,.F.);
#1038 = PLANE('',#1039);
#1039 = AXIS2_PLACEMENT_3D('',#1040,#1041,#1042);
#1040 = CARTESIAN_POINT('',(1.75,4.145780987944,0.));
#1041 = DIRECTION('',(-1.,0.,0.));
#1042 = DIRECTION('',(0.,1.,0.));
#1043 = ADVANCED_FACE('',(#1044),#1060,.T.);
#1044 = FACE_BOUND('',#1045,.T.);
#1045 = EDGE_LOOP('',(#1046,#1052,#1053,#1059));
#1046 = ORIENTED_EDGE('',*,*,#1047,.T.);
#1047 = EDGE_CURVE('',#297,#530,#1048,.T.);
#1048 = LINE('',#1049,#1050);
#1049 = CARTESIAN_POINT('',(1.587713240271,2.75,0.));
#1050 = VECTOR('',#1051,1.);
#1051 = DIRECTION('',(0.,0.,1.));
#1052 = ORIENTED_EDGE('',*,*,#529,.T.);
#1053 = ORIENTED_EDGE('',*,*,#1054,.F.);
#1054 = EDGE_CURVE('',#299,#532,#1055,.T.);
#1055 = LINE('',#1056,#1057);
#1056 = CARTESIAN_POINT('',(-1.587713240271,2.75,0.));
#1057 = VECTOR('',#1058,1.);
#1058 = DIRECTION('',(0.,0.,1.));
#1059 = ORIENTED_EDGE('',*,*,#296,.F.);
#1060 = PLANE('',#1061);
#1061 = AXIS2_PLACEMENT_3D('',#1062,#1063,#1064);
#1062 = CARTESIAN_POINT('',(1.587713240271,2.75,0.));
#1063 = DIRECTION('',(0.,-1.,0.));
#1064 = DIRECTION('',(-1.,0.,0.));
#1065 = ADVANCED_FACE('',(#1066),#1077,.T.);
#1066 = FACE_BOUND('',#1067,.T.);
#1067 = EDGE_LOOP('',(#1068,#1069,#1070,#1076));
#1068 = ORIENTED_EDGE('',*,*,#1054,.T.);
#1069 = ORIENTED_EDGE('',*,*,#539,.T.);
#1070 = ORIENTED_EDGE('',*,*,#1071,.F.);
#1071 = EDGE_CURVE('',#307,#540,#1072,.T.);
#1072 = LINE('',#1073,#1074);
#1073 = CARTESIAN_POINT('',(-3.175426480543,2.737902764625E-17,0.));
#1074 = VECTOR('',#1075,1.);
#1075 = DIRECTION('',(0.,0.,1.));
#1076 = ORIENTED_EDGE('',*,*,#306,.F.);
#1077 = PLANE('',#1078);
#1078 = AXIS2_PLACEMENT_3D('',#1079,#1080,#1081);
#1079 = CARTESIAN_POINT('',(-1.587713240271,2.75,0.));
#1080 = DIRECTION('',(0.866025403784,-0.5,0.));
#1081 = DIRECTION('',(-0.5,-0.866025403784,0.));
#1082 = ADVANCED_FACE('',(#1083),#1094,.T.);
#1083 = FACE_BOUND('',#1084,.T.);
#1084 = EDGE_LOOP('',(#1085,#1086,#1087,#1093));
#1085 = ORIENTED_EDGE('',*,*,#1071,.T.);
#1086 = ORIENTED_EDGE('',*,*,#547,.T.);
#1087 = ORIENTED_EDGE('',*,*,#1088,.F.);
#1088 = EDGE_CURVE('',#315,#548,#1089,.T.);
#1089 = LINE('',#1090,#1091);
#1090 = CARTESIAN_POINT('',(-1.587713240271,-2.75,0.));
#1091 = VECTOR('',#1092,1.);
#1092 = DIRECTION('',(0.,0.,1.));
#1093 = ORIENTED_EDGE('',*,*,#314,.F.);
#1094 = PLANE('',#1095);
#1095 = AXIS2_PLACEMENT_3D('',#1096,#1097,#1098);
#1096 = CARTESIAN_POINT('',(-3.175426480543,5.475805741216E-17,0.));
#1097 = DIRECTION('',(0.866025403784,0.5,0.));
#1098 = DIRECTION('',(0.5,-0.866025403784,0.));
#1099 = ADVANCED_FACE('',(#1100),#1111,.T.);
#1100 = FACE_BOUND('',#1101,.T.);
#1101 = EDGE_LOOP('',(#1102,#1103,#1104,#1110));
#1102 = ORIENTED_EDGE('',*,*,#1088,.T.);
#1103 = ORIENTED_EDGE('',*,*,#555,.T.);
#1104 = ORIENTED_EDGE('',*,*,#1105,.F.);
#1105 = EDGE_CURVE('',#323,#556,#1106,.T.);
#1106 = LINE('',#1107,#1108);
#1107 = CARTESIAN_POINT('',(1.587713240271,-2.75,0.));
#1108 = VECTOR('',#1109,1.);
#1109 = DIRECTION('',(0.,0.,1.));
#1110 = ORIENTED_EDGE('',*,*,#322,.F.);
#1111 = PLANE('',#1112);
#1112 = AXIS2_PLACEMENT_3D('',#1113,#1114,#1115);
#1113 = CARTESIAN_POINT('',(-1.587713240271,-2.75,0.));
#1114 = DIRECTION('',(0.,1.,0.));
#1115 = DIRECTION('',(1.,0.,0.));
#1116 = ADVANCED_FACE('',(#1117),#1128,.T.);
#1117 = FACE_BOUND('',#1118,.T.);
#1118 = EDGE_LOOP('',(#1119,#1120,#1121,#1127));
#1119 = ORIENTED_EDGE('',*,*,#1105,.T.);
#1120 = ORIENTED_EDGE('',*,*,#563,.T.);
#1121 = ORIENTED_EDGE('',*,*,#1122,.F.);
#1122 = EDGE_CURVE('',#331,#564,#1123,.T.);
#1123 = LINE('',#1124,#1125);
#1124 = CARTESIAN_POINT('',(3.175426480543,1.084775021394E-16,0.));
#1125 = VECTOR('',#1126,1.);
#1126 = DIRECTION('',(0.,0.,1.));
#1127 = ORIENTED_EDGE('',*,*,#330,.F.);
#1128 = PLANE('',#1129);
#1129 = AXIS2_PLACEMENT_3D('',#1130,#1131,#1132);
#1130 = CARTESIAN_POINT('',(1.587713240271,-2.75,0.));
#1131 = DIRECTION('',(-0.866025403784,0.5,0.));
#1132 = DIRECTION('',(0.5,0.866025403784,0.));
#1133 = ADVANCED_FACE('',(#1134),#1140,.T.);
#1134 = FACE_BOUND('',#1135,.T.);
#1135 = EDGE_LOOP('',(#1136,#1137,#1138,#1139));
#1136 = ORIENTED_EDGE('',*,*,#1122,.T.);
#1137 = ORIENTED_EDGE('',*,*,#571,.T.);
#1138 = ORIENTED_EDGE('',*,*,#1047,.F.);
#1139 = ORIENTED_EDGE('',*,*,#338,.F.);
#1140 = PLANE('',#1141);
#1141 = AXIS2_PLACEMENT_3D('',#1142,#1143,#1144);
#1142 = CARTESIAN_POINT('',(3.175426480543,2.169550132259E-16,0.));
#1143 = DIRECTION('',(-0.866025403784,-0.5,0.));
#1144 = DIRECTION('',(-0.5,0.866025403784,0.));
#1145 = ADVANCED_FACE('',(#1146),#1158,.T.);
#1146 = FACE_BOUND('',#1147,.T.);
#1147 = EDGE_LOOP('',(#1148,#1149,#1150,#1157));
#1148 = ORIENTED_EDGE('',*,*,#611,.F.);
#1149 = ORIENTED_EDGE('',*,*,#671,.T.);
#1150 = ORIENTED_EDGE('',*,*,#1151,.T.);
#1151 = EDGE_CURVE('',#672,#362,#1152,.T.);
#1152 = CIRCLE('',#1153,0.5);
#1153 = AXIS2_PLACEMENT_3D('',#1154,#1155,#1156);
#1154 = CARTESIAN_POINT('',(-7.,-1.25,2.5));
#1155 = DIRECTION('',(-1.,1.224646799147E-16,0.));
#1156 = DIRECTION('',(-1.224646799147E-16,-1.,0.));
#1157 = ORIENTED_EDGE('',*,*,#361,.F.);
#1158 = TOROIDAL_SURFACE('',#1159,1.25,0.5);
#1159 = AXIS2_PLACEMENT_3D('',#1160,#1161,#1162);
#1160 = CARTESIAN_POINT('',(-7.,0.,2.5));
#1161 = DIRECTION('',(0.,0.,1.));
#1162 = DIRECTION('',(0.,1.,0.));
#1163 = ADVANCED_FACE('',(#1164),#1170,.T.);
#1164 = FACE_BOUND('',#1165,.F.);
#1165 = EDGE_LOOP('',(#1166,#1167,#1168,#1169));
#1166 = ORIENTED_EDGE('',*,*,#1151,.T.);
#1167 = ORIENTED_EDGE('',*,*,#370,.T.);
#1168 = ORIENTED_EDGE('',*,*,#720,.F.);
#1169 = ORIENTED_EDGE('',*,*,#703,.F.);
#1170 = CYLINDRICAL_SURFACE('',#1171,0.5);
#1171 = AXIS2_PLACEMENT_3D('',#1172,#1173,#1174);
#1172 = CARTESIAN_POINT('',(-7.,-1.25,2.5));
#1173 = DIRECTION('',(1.,0.,0.));
#1174 = DIRECTION('',(0.,-1.,0.));
#1175 = ADVANCED_FACE('',(#1176),#1182,.T.);
#1176 = FACE_BOUND('',#1177,.F.);
#1177 = EDGE_LOOP('',(#1178,#1179,#1180,#1181));
#1178 = ORIENTED_EDGE('',*,*,#996,.T.);
#1179 = ORIENTED_EDGE('',*,*,#509,.T.);
#1180 = ORIENTED_EDGE('',*,*,#652,.F.);
#1181 = ORIENTED_EDGE('',*,*,#1031,.F.);
#1182 = CYLINDRICAL_SURFACE('',#1183,0.5);
#1183 = AXIS2_PLACEMENT_3D('',#1184,#1185,#1186);
#1184 = CARTESIAN_POINT('',(1.25,4.145780987944,2.5));
#1185 = DIRECTION('',(0.,1.,0.));
#1186 = DIRECTION('',(1.,0.,0.));
#1187 = ADVANCED_FACE('',(#1188),#1200,.T.);
#1188 = FACE_BOUND('',#1189,.F.);
#1189 = EDGE_LOOP('',(#1190,#1191,#1192,#1199));
#1190 = ORIENTED_EDGE('',*,*,#740,.T.);
#1191 = ORIENTED_EDGE('',*,*,#405,.T.);
#1192 = ORIENTED_EDGE('',*,*,#1193,.F.);
#1193 = EDGE_CURVE('',#776,#406,#1194,.T.);
#1194 = CIRCLE('',#1195,0.5);
#1195 = AXIS2_PLACEMENT_3D('',#1196,#1197,#1198);
#1196 = CARTESIAN_POINT('',(-1.25,-7.,2.5));
#1197 = DIRECTION('',(0.,1.,-0.));
#1198 = DIRECTION('',(-1.,0.,0.));
#1199 = ORIENTED_EDGE('',*,*,#775,.F.);
#1200 = CYLINDRICAL_SURFACE('',#1201,0.5);
#1201 = AXIS2_PLACEMENT_3D('',#1202,#1203,#1204);
#1202 = CARTESIAN_POINT('',(-1.25,-4.145780987944,2.5));
#1203 = DIRECTION('',(0.,-1.,0.));
#1204 = DIRECTION('',(-1.,0.,0.));
#1205 = ADVANCED_FACE('',(#1206),#1218,.T.);
#1206 = FACE_BOUND('',#1207,.T.);
#1207 = EDGE_LOOP('',(#1208,#1209,#1210,#1217));
#1208 = ORIENTED_EDGE('',*,*,#1193,.F.);
#1209 = ORIENTED_EDGE('',*,*,#799,.T.);
#1210 = ORIENTED_EDGE('',*,*,#1211,.T.);
#1211 = EDGE_CURVE('',#800,#414,#1212,.T.);
#1212 = CIRCLE('',#1213,0.5);
#1213 = AXIS2_PLACEMENT_3D('',#1214,#1215,#1216);
#1214 = CARTESIAN_POINT('',(1.25,-7.,2.5));
#1215 = DIRECTION('',(4.417951470997E-18,-1.,0.));
#1216 = DIRECTION('',(1.,4.417951470997E-18,0.));
#1217 = ORIENTED_EDGE('',*,*,#413,.F.);
#1218 = TOROIDAL_SURFACE('',#1219,1.25,0.5);
#1219 = AXIS2_PLACEMENT_3D('',#1220,#1221,#1222);
#1220 = CARTESIAN_POINT('',(7.185031406414E-25,-7.,2.5));
#1221 = DIRECTION('',(0.,0.,1.));
#1222 = DIRECTION('',(-1.,-1.015061051086E-15,0.));
#1223 = ADVANCED_FACE('',(#1224),#1236,.T.);
#1224 = FACE_BOUND('',#1225,.F.);
#1225 = EDGE_LOOP('',(#1226,#1233,#1234,#1235));
#1226 = ORIENTED_EDGE('',*,*,#1227,.T.);
#1227 = EDGE_CURVE('',#928,#466,#1228,.T.);
#1228 = CIRCLE('',#1229,0.5);
#1229 = AXIS2_PLACEMENT_3D('',#1230,#1231,#1232);
#1230 = CARTESIAN_POINT('',(7.,1.25,2.5));
#1231 = DIRECTION('',(1.,-1.224646799147E-16,0.));
#1232 = DIRECTION('',(1.224646799147E-16,1.,0.));
#1233 = ORIENTED_EDGE('',*,*,#474,.T.);
#1234 = ORIENTED_EDGE('',*,*,#976,.F.);
#1235 = ORIENTED_EDGE('',*,*,#959,.F.);
#1236 = CYLINDRICAL_SURFACE('',#1237,0.5);
#1237 = AXIS2_PLACEMENT_3D('',#1238,#1239,#1240);
#1238 = CARTESIAN_POINT('',(7.,1.25,2.5));
#1239 = DIRECTION('',(-1.,-0.,-0.));
#1240 = DIRECTION('',(0.,1.,0.));
#1241 = ADVANCED_FACE('',(#1242),#1248,.T.);
#1242 = FACE_BOUND('',#1243,.F.);
#1243 = EDGE_LOOP('',(#1244,#1245,#1246,#1247));
#1244 = ORIENTED_EDGE('',*,*,#1211,.T.);
#1245 = ORIENTED_EDGE('',*,*,#422,.T.);
#1246 = ORIENTED_EDGE('',*,*,#848,.F.);
#1247 = ORIENTED_EDGE('',*,*,#831,.F.);
#1248 = CYLINDRICAL_SURFACE('',#1249,0.5);
#1249 = AXIS2_PLACEMENT_3D('',#1250,#1251,#1252);
#1250 = CARTESIAN_POINT('',(1.25,-7.,2.5));
#1251 = DIRECTION('',(0.,1.,0.));
#1252 = DIRECTION('',(1.,0.,0.));
#1253 = ADVANCED_FACE('',(#1254),#1266,.T.);
#1254 = FACE_BOUND('',#1255,.T.);
#1255 = EDGE_LOOP('',(#1256,#1263,#1264,#1265));
#1256 = ORIENTED_EDGE('',*,*,#1257,.F.);
#1257 = EDGE_CURVE('',#904,#458,#1258,.T.);
#1258 = CIRCLE('',#1259,0.5);
#1259 = AXIS2_PLACEMENT_3D('',#1260,#1261,#1262);
#1260 = CARTESIAN_POINT('',(7.,-1.25,2.5));
#1261 = DIRECTION('',(-1.,0.,0.));
#1262 = DIRECTION('',(0.,-1.,0.));
#1263 = ORIENTED_EDGE('',*,*,#927,.T.);
#1264 = ORIENTED_EDGE('',*,*,#1227,.T.);
#1265 = ORIENTED_EDGE('',*,*,#465,.F.);
#1266 = TOROIDAL_SURFACE('',#1267,1.25,0.5);
#1267 = AXIS2_PLACEMENT_3D('',#1268,#1269,#1270);
#1268 = CARTESIAN_POINT('',(7.,1.141077364685E-24,2.5));
#1269 = DIRECTION('',(0.,0.,1.));
#1270 = DIRECTION('',(0.,-1.,0.));
#1271 = ADVANCED_FACE('',(#1272),#1278,.T.);
#1272 = FACE_BOUND('',#1273,.F.);
#1273 = EDGE_LOOP('',(#1274,#1275,#1276,#1277));
#1274 = ORIENTED_EDGE('',*,*,#868,.T.);
#1275 = ORIENTED_EDGE('',*,*,#457,.T.);
#1276 = ORIENTED_EDGE('',*,*,#1257,.F.);
#1277 = ORIENTED_EDGE('',*,*,#903,.F.);
#1278 = CYLINDRICAL_SURFACE('',#1279,0.5);
#1279 = AXIS2_PLACEMENT_3D('',#1280,#1281,#1282);
#1280 = CARTESIAN_POINT('',(4.145780987944,-1.25,2.5));
#1281 = DIRECTION('',(1.,0.,0.));
#1282 = DIRECTION('',(0.,-1.,0.));
#1283 = ( GEOMETRIC_REPRESENTATION_CONTEXT(3) 
GLOBAL_UNCERTAINTY_ASSIGNED_CONTEXT((#1287)) 
GLOBAL_UNIT_ASSIGNED_CONTEXT((#1284,#1285,#1286)) REPRESENTATION_CONTEXT
('Context #1','3D Context with UNIT and UNCERTAINTY') );
#1284 = ( LENGTH_UNIT() NAMED_UNIT(*) SI_UNIT(.MILLI.,.METRE.) );
#1285 = ( NAMED_UNIT(*) PLANE_ANGLE_UNIT() SI_UNIT($,.RADIAN.) );
#1286 = ( NAMED_UNIT(*) SI_UNIT($,.STERADIAN.) SOLID_ANGLE_UNIT() );
#1287 = UNCERTAINTY_MEASURE_WITH_UNIT(LENGTH_MEASURE(1.E-07),#1284,
  'distance_accuracy_value','confusion accuracy');
#1288 = PRODUCT_RELATED_PRODUCT_CATEGORY('part',$,(#7));
#1289 = MECHANICAL_DESIGN_GEOMETRIC_PRESENTATION_REPRESENTATION('',(
    #1290),#1283);
#1290 = STYLED_ITEM('color',(#1291),#15);
#1291 = PRESENTATION_STYLE_ASSIGNMENT((#1292,#1298));
#1292 = SURFACE_STYLE_USAGE(.BOTH.,#1293);
#1293 = SURFACE_SIDE_STYLE('',(#1294));
#1294 = SURFACE_STYLE_FILL_AREA(#1295);
#1295 = FILL_AREA_STYLE('',(#1296));
#1296 = FILL_AREA_STYLE_COLOUR('',#1297);
#1297 = COLOUR_RGB('',0.447059003357,0.474510015008,0.501960993452);
#1298 = CURVE_STYLE('',#1299,POSITIVE_LENGTH_MEASURE(0.1),#1300);
#1299 = DRAUGHTING_PRE_DEFINED_CURVE_FONT('continuous');
#1300 = COLOUR_RGB('',9.803921802644E-02,9.803921802644E-02,
  9.803921802644E-02);
ENDSEC;
END-ISO-10303-21;
