ISO-10303-21;
HEADER;
FILE_DESCRIPTION(('FreeCAD Model'),'2;1');
FILE_NAME('Open CASCADE Shape Model','2025-09-10T22:37:23',(''),(''),
  'Open CASCADE STEP processor 7.9','FreeCAD','Unknown');
FILE_SCHEMA(('AUTOMOTIVE_DESIGN { 1 0 10303 214 1 1 1 1 }'));
ENDSEC;
DATA;
#1 = APPLICATION_PROTOCOL_DEFINITION('international standard',
  'automotive_design',2000,#2);
#2 = APPLICATION_CONTEXT(
  'core data for automotive mechanical design processes');
#3 = SHAPE_DEFINITION_REPRESENTATION(#4,#10);
#4 = PRODUCT_DEFINITION_SHAPE('','',#5);
#5 = PRODUCT_DEFINITION('design','',#6,#9);
#6 = PRODUCT_DEFINITION_FORMATION('','',#7);
#7 = PRODUCT('ZRodMountBottom000','ZRodMountBottom000','',(#8));
#8 = PRODUCT_CONTEXT('',#2,'mechanical');
#9 = PRODUCT_DEFINITION_CONTEXT('part definition',#2,'design');
#10 = ADVANCED_BREP_SHAPE_REPRESENTATION('',(#11,#15),#1906);
#11 = AXIS2_PLACEMENT_3D('',#12,#13,#14);
#12 = CARTESIAN_POINT('',(0.,0.,0.));
#13 = DIRECTION('',(0.,0.,1.));
#14 = DIRECTION('',(1.,0.,-0.));
#15 = MANIFOLD_SOLID_BREP('',#16);
#16 = CLOSED_SHELL('',(#17,#182,#214,#238,#263,#304,#322,#385,#410,#435,
    #459,#491,#516,#549,#581,#606,#631,#656,#674,#770,#788,#821,#855,
    #891,#938,#1034,#1050,#1107,#1131,#1186,#1196,#1213,#1231,#1293,
    #1345,#1393,#1409,#1464,#1488,#1541,#1551,#1568,#1591,#1602,#1618,
    #1636,#1647,#1658,#1689,#1713,#1737,#1761,#1785,#1802,#1818,#1834,
    #1850,#1866,#1879,#1892));
#17 = ADVANCED_FACE('',(#18,#69,#130),#177,.F.);
#18 = FACE_BOUND('',#19,.F.);
#19 = EDGE_LOOP('',(#20,#31,#40,#49,#62));
#20 = ORIENTED_EDGE('',*,*,#21,.T.);
#21 = EDGE_CURVE('',#22,#24,#26,.T.);
#22 = VERTEX_POINT('',#23);
#23 = CARTESIAN_POINT('',(-26.11612903225,11.488305548765,0.));
#24 = VERTEX_POINT('',#25);
#25 = CARTESIAN_POINT('',(-28.1,15.,0.));
#26 = CIRCLE('',#27,4.1);
#27 = AXIS2_PLACEMENT_3D('',#28,#29,#30);
#28 = CARTESIAN_POINT('',(-24.,15.,0.));
#29 = DIRECTION('',(-0.,0.,-1.));
#30 = DIRECTION('',(-0.516129032258,-0.856510841765,0.));
#31 = ORIENTED_EDGE('',*,*,#32,.T.);
#32 = EDGE_CURVE('',#24,#33,#35,.T.);
#33 = VERTEX_POINT('',#34);
#34 = CARTESIAN_POINT('',(-26.11612903225,18.511694451235,0.));
#35 = CIRCLE('',#36,4.1);
#36 = AXIS2_PLACEMENT_3D('',#37,#38,#39);
#37 = CARTESIAN_POINT('',(-24.,15.,0.));
#38 = DIRECTION('',(0.,0.,-1.));
#39 = DIRECTION('',(-1.,0.,0.));
#40 = ORIENTED_EDGE('',*,*,#41,.T.);
#41 = EDGE_CURVE('',#33,#42,#44,.T.);
#42 = VERTEX_POINT('',#43);
#43 = CARTESIAN_POINT('',(-21.88387096774,18.511694451235,0.));
#44 = CIRCLE('',#45,4.1);
#45 = AXIS2_PLACEMENT_3D('',#46,#47,#48);
#46 = CARTESIAN_POINT('',(-24.,15.,0.));
#47 = DIRECTION('',(0.,0.,-1.));
#48 = DIRECTION('',(-0.516129032258,0.856510841765,0.));
#49 = ORIENTED_EDGE('',*,*,#50,.T.);
#50 = EDGE_CURVE('',#42,#51,#53,.T.);
#51 = VERTEX_POINT('',#52);
#52 = CARTESIAN_POINT('',(-21.88387096774,11.488305548765,0.));
#53 = B_SPLINE_CURVE_WITH_KNOTS('',7,(#54,#55,#56,#57,#58,#59,#60,#61),
  .UNSPECIFIED.,.F.,.F.,(8,8),(9.738937226128,16.115457575053),
  .PIECEWISE_BEZIER_KNOTS.);
#54 = CARTESIAN_POINT('',(-21.88387096774,18.511694451235,0.));
#55 = CARTESIAN_POINT('',(-20.85198707077,17.889886517029,0.));
#56 = CARTESIAN_POINT('',(-20.03325450397,16.914268780753,0.));
#57 = CARTESIAN_POINT('',(-19.57297232395,15.672680984465,0.));
#58 = CARTESIAN_POINT('',(-19.57297232395,14.327319015535,0.));
#59 = CARTESIAN_POINT('',(-20.03325450397,13.085731219247,0.));
#60 = CARTESIAN_POINT('',(-20.85198707077,12.110113482971,0.));
#61 = CARTESIAN_POINT('',(-21.88387096774,11.488305548765,0.));
#62 = ORIENTED_EDGE('',*,*,#63,.T.);
#63 = EDGE_CURVE('',#51,#22,#64,.T.);
#64 = CIRCLE('',#65,4.1);
#65 = AXIS2_PLACEMENT_3D('',#66,#67,#68);
#66 = CARTESIAN_POINT('',(-24.,15.,0.));
#67 = DIRECTION('',(0.,-0.,-1.));
#68 = DIRECTION('',(0.516129032258,-0.856510841765,0.));
#69 = FACE_BOUND('',#70,.F.);
#70 = EDGE_LOOP('',(#71,#81,#90,#98,#106,#115,#123));
#71 = ORIENTED_EDGE('',*,*,#72,.F.);
#72 = EDGE_CURVE('',#73,#75,#77,.T.);
#73 = VERTEX_POINT('',#74);
#74 = CARTESIAN_POINT('',(1.E-15,-10.,0.));
#75 = VERTEX_POINT('',#76);
#76 = CARTESIAN_POINT('',(-30.99999999999,-9.999999999998,-1.E-15));
#77 = LINE('',#78,#79);
#78 = CARTESIAN_POINT('',(2.06E-15,-10.,0.));
#79 = VECTOR('',#80,1.);
#80 = DIRECTION('',(-1.,0.,0.));
#81 = ORIENTED_EDGE('',*,*,#82,.T.);
#82 = EDGE_CURVE('',#73,#83,#85,.T.);
#83 = VERTEX_POINT('',#84);
#84 = CARTESIAN_POINT('',(3.E-15,10.,0.));
#85 = CIRCLE('',#86,10.);
#86 = AXIS2_PLACEMENT_3D('',#87,#88,#89);
#87 = CARTESIAN_POINT('',(2.06E-15,8.9E-16,0.));
#88 = DIRECTION('',(0.,0.,1.));
#89 = DIRECTION('',(1.,0.,0.));
#90 = ORIENTED_EDGE('',*,*,#91,.F.);
#91 = EDGE_CURVE('',#92,#83,#94,.T.);
#92 = VERTEX_POINT('',#93);
#93 = CARTESIAN_POINT('',(-14.,20.,0.));
#94 = LINE('',#95,#96);
#95 = CARTESIAN_POINT('',(-14.,20.,0.));
#96 = VECTOR('',#97,1.);
#97 = DIRECTION('',(0.813733471207,-0.581238193719,0.));
#98 = ORIENTED_EDGE('',*,*,#99,.F.);
#99 = EDGE_CURVE('',#100,#92,#102,.T.);
#100 = VERTEX_POINT('',#101);
#101 = CARTESIAN_POINT('',(-31.,20.,0.));
#102 = LINE('',#103,#104);
#103 = CARTESIAN_POINT('',(-34.,20.,0.));
#104 = VECTOR('',#105,1.);
#105 = DIRECTION('',(1.,0.,0.));
#106 = ORIENTED_EDGE('',*,*,#107,.F.);
#107 = EDGE_CURVE('',#108,#100,#110,.T.);
#108 = VERTEX_POINT('',#109);
#109 = CARTESIAN_POINT('',(-34.,17.,0.));
#110 = CIRCLE('',#111,3.);
#111 = AXIS2_PLACEMENT_3D('',#112,#113,#114);
#112 = CARTESIAN_POINT('',(-31.,17.,0.));
#113 = DIRECTION('',(-0.,-0.,-1.));
#114 = DIRECTION('',(0.,-1.,0.));
#115 = ORIENTED_EDGE('',*,*,#116,.F.);
#116 = EDGE_CURVE('',#117,#108,#119,.T.);
#117 = VERTEX_POINT('',#118);
#118 = CARTESIAN_POINT('',(-34.,-6.999999999998,-1.E-15));
#119 = LINE('',#120,#121);
#120 = CARTESIAN_POINT('',(-34.,-10.,0.));
#121 = VECTOR('',#122,1.);
#122 = DIRECTION('',(0.,1.,0.));
#123 = ORIENTED_EDGE('',*,*,#124,.F.);
#124 = EDGE_CURVE('',#75,#117,#125,.T.);
#125 = CIRCLE('',#126,3.);
#126 = AXIS2_PLACEMENT_3D('',#127,#128,#129);
#127 = CARTESIAN_POINT('',(-31.,-6.999999999998,0.));
#128 = DIRECTION('',(-0.,-0.,-1.));
#129 = DIRECTION('',(0.,-1.,0.));
#130 = FACE_BOUND('',#131,.F.);
#131 = EDGE_LOOP('',(#132,#143,#152,#161,#170));
#132 = ORIENTED_EDGE('',*,*,#133,.T.);
#133 = EDGE_CURVE('',#134,#136,#138,.T.);
#134 = VERTEX_POINT('',#135);
#135 = CARTESIAN_POINT('',(-28.1,-5.,0.));
#136 = VERTEX_POINT('',#137);
#137 = CARTESIAN_POINT('',(-26.11612903225,-1.488305548765,0.));
#138 = CIRCLE('',#139,4.1);
#139 = AXIS2_PLACEMENT_3D('',#140,#141,#142);
#140 = CARTESIAN_POINT('',(-24.,-5.,0.));
#141 = DIRECTION('',(0.,0.,-1.));
#142 = DIRECTION('',(-1.,0.,0.));
#143 = ORIENTED_EDGE('',*,*,#144,.T.);
#144 = EDGE_CURVE('',#136,#145,#147,.T.);
#145 = VERTEX_POINT('',#146);
#146 = CARTESIAN_POINT('',(-21.88387096774,-1.488305548765,0.));
#147 = CIRCLE('',#148,4.1);
#148 = AXIS2_PLACEMENT_3D('',#149,#150,#151);
#149 = CARTESIAN_POINT('',(-24.,-5.,0.));
#150 = DIRECTION('',(0.,0.,-1.));
#151 = DIRECTION('',(-0.516129032258,0.856510841765,0.));
#152 = ORIENTED_EDGE('',*,*,#153,.T.);
#153 = EDGE_CURVE('',#145,#154,#156,.T.);
#154 = VERTEX_POINT('',#155);
#155 = CARTESIAN_POINT('',(-21.88387096774,-8.511694451235,0.));
#156 = CIRCLE('',#157,4.1);
#157 = AXIS2_PLACEMENT_3D('',#158,#159,#160);
#158 = CARTESIAN_POINT('',(-24.,-5.,0.));
#159 = DIRECTION('',(0.,0.,-1.));
#160 = DIRECTION('',(0.516129032258,0.856510841765,0.));
#161 = ORIENTED_EDGE('',*,*,#162,.T.);
#162 = EDGE_CURVE('',#154,#163,#165,.T.);
#163 = VERTEX_POINT('',#164);
#164 = CARTESIAN_POINT('',(-26.11612903225,-8.511694451235,0.));
#165 = CIRCLE('',#166,4.1);
#166 = AXIS2_PLACEMENT_3D('',#167,#168,#169);
#167 = CARTESIAN_POINT('',(-24.,-5.,0.));
#168 = DIRECTION('',(0.,-0.,-1.));
#169 = DIRECTION('',(0.516129032258,-0.856510841765,0.));
#170 = ORIENTED_EDGE('',*,*,#171,.T.);
#171 = EDGE_CURVE('',#163,#134,#172,.T.);
#172 = CIRCLE('',#173,4.1);
#173 = AXIS2_PLACEMENT_3D('',#174,#175,#176);
#174 = CARTESIAN_POINT('',(-24.,-5.,0.));
#175 = DIRECTION('',(-0.,0.,-1.));
#176 = DIRECTION('',(-0.516129032258,-0.856510841765,0.));
#177 = PLANE('',#178);
#178 = AXIS2_PLACEMENT_3D('',#179,#180,#181);
#179 = CARTESIAN_POINT('',(-15.43563787364,3.567478409538,0.));
#180 = DIRECTION('',(0.,0.,1.));
#181 = DIRECTION('',(1.,0.,0.));
#182 = ADVANCED_FACE('',(#183),#209,.F.);
#183 = FACE_BOUND('',#184,.T.);
#184 = EDGE_LOOP('',(#185,#193,#194,#202));
#185 = ORIENTED_EDGE('',*,*,#186,.F.);
#186 = EDGE_CURVE('',#22,#187,#189,.T.);
#187 = VERTEX_POINT('',#188);
#188 = CARTESIAN_POINT('',(-25.6,12.34481639053,1.));
#189 = LINE('',#190,#191);
#190 = CARTESIAN_POINT('',(-25.6,12.34481639053,1.));
#191 = VECTOR('',#192,1.);
#192 = DIRECTION('',(0.364958338677,0.605644624372,0.707106781187));
#193 = ORIENTED_EDGE('',*,*,#21,.T.);
#194 = ORIENTED_EDGE('',*,*,#195,.T.);
#195 = EDGE_CURVE('',#24,#196,#198,.T.);
#196 = VERTEX_POINT('',#197);
#197 = CARTESIAN_POINT('',(-27.1,15.,1.));
#198 = LINE('',#199,#200);
#199 = CARTESIAN_POINT('',(-27.1,15.,1.));
#200 = VECTOR('',#201,1.);
#201 = DIRECTION('',(0.707106781187,-6.E-17,0.707106781187));
#202 = ORIENTED_EDGE('',*,*,#203,.F.);
#203 = EDGE_CURVE('',#187,#196,#204,.T.);
#204 = CIRCLE('',#205,3.1);
#205 = AXIS2_PLACEMENT_3D('',#206,#207,#208);
#206 = CARTESIAN_POINT('',(-24.,15.,1.));
#207 = DIRECTION('',(-0.,0.,-1.));
#208 = DIRECTION('',(-0.516129032258,-0.856510841765,0.));
#209 = CONICAL_SURFACE('',#210,3.1,0.785398163397);
#210 = AXIS2_PLACEMENT_3D('',#211,#212,#213);
#211 = CARTESIAN_POINT('',(-24.,15.,1.));
#212 = DIRECTION('',(-0.,-0.,-1.));
#213 = DIRECTION('',(-0.516129032258,-0.856510841765,0.));
#214 = ADVANCED_FACE('',(#215),#233,.F.);
#215 = FACE_BOUND('',#216,.T.);
#216 = EDGE_LOOP('',(#217,#224,#225,#226));
#217 = ORIENTED_EDGE('',*,*,#218,.F.);
#218 = EDGE_CURVE('',#51,#219,#221,.T.);
#219 = VERTEX_POINT('',#220);
#220 = CARTESIAN_POINT('',(-22.4,12.34481639053,1.));
#221 = B_SPLINE_CURVE_WITH_KNOTS('',1,(#222,#223),.UNSPECIFIED.,.F.,.F.,
  (2,2),(0.,6.376520348924),.PIECEWISE_BEZIER_KNOTS.);
#222 = CARTESIAN_POINT('',(-21.88387096774,11.488305548765,0.));
#223 = CARTESIAN_POINT('',(-22.4,12.34481639053,1.));
#224 = ORIENTED_EDGE('',*,*,#63,.T.);
#225 = ORIENTED_EDGE('',*,*,#186,.T.);
#226 = ORIENTED_EDGE('',*,*,#227,.F.);
#227 = EDGE_CURVE('',#219,#187,#228,.T.);
#228 = CIRCLE('',#229,3.1);
#229 = AXIS2_PLACEMENT_3D('',#230,#231,#232);
#230 = CARTESIAN_POINT('',(-24.,15.,1.));
#231 = DIRECTION('',(0.,-0.,-1.));
#232 = DIRECTION('',(0.516129032258,-0.856510841765,0.));
#233 = CONICAL_SURFACE('',#234,3.1,0.785398163397);
#234 = AXIS2_PLACEMENT_3D('',#235,#236,#237);
#235 = CARTESIAN_POINT('',(-24.,15.,1.));
#236 = DIRECTION('',(-0.,-0.,-1.));
#237 = DIRECTION('',(0.516129032258,-0.856510841765,0.));
#238 = ADVANCED_FACE('',(#239),#258,.F.);
#239 = FACE_BOUND('',#240,.T.);
#240 = EDGE_LOOP('',(#241,#242,#243,#251));
#241 = ORIENTED_EDGE('',*,*,#195,.F.);
#242 = ORIENTED_EDGE('',*,*,#32,.T.);
#243 = ORIENTED_EDGE('',*,*,#244,.T.);
#244 = EDGE_CURVE('',#33,#245,#247,.T.);
#245 = VERTEX_POINT('',#246);
#246 = CARTESIAN_POINT('',(-25.6,17.65518360947,1.));
#247 = LINE('',#248,#249);
#248 = CARTESIAN_POINT('',(-25.6,17.65518360947,1.));
#249 = VECTOR('',#250,1.);
#250 = DIRECTION('',(0.364958338677,-0.605644624372,0.707106781187));
#251 = ORIENTED_EDGE('',*,*,#252,.F.);
#252 = EDGE_CURVE('',#196,#245,#253,.T.);
#253 = CIRCLE('',#254,3.1);
#254 = AXIS2_PLACEMENT_3D('',#255,#256,#257);
#255 = CARTESIAN_POINT('',(-24.,15.,1.));
#256 = DIRECTION('',(0.,0.,-1.));
#257 = DIRECTION('',(-1.,0.,0.));
#258 = CONICAL_SURFACE('',#259,3.1,0.785398163397);
#259 = AXIS2_PLACEMENT_3D('',#260,#261,#262);
#260 = CARTESIAN_POINT('',(-24.,15.,1.));
#261 = DIRECTION('',(-0.,-0.,-1.));
#262 = DIRECTION('',(-1.,0.,0.));
#263 = ADVANCED_FACE('',(#264),#287,.F.);
#264 = FACE_BOUND('',#265,.F.);
#265 = EDGE_LOOP('',(#266,#274,#285,#286));
#266 = ORIENTED_EDGE('',*,*,#267,.T.);
#267 = EDGE_CURVE('',#42,#268,#270,.T.);
#268 = VERTEX_POINT('',#269);
#269 = CARTESIAN_POINT('',(-22.4,17.65518360947,1.));
#270 = LINE('',#271,#272);
#271 = CARTESIAN_POINT('',(-22.4,17.65518360947,1.));
#272 = VECTOR('',#273,1.);
#273 = DIRECTION('',(-0.364958338677,-0.605644624372,0.707106781187));
#274 = ORIENTED_EDGE('',*,*,#275,.T.);
#275 = EDGE_CURVE('',#268,#219,#276,.T.);
#276 = B_SPLINE_CURVE_WITH_KNOTS('',7,(#277,#278,#279,#280,#281,#282,
    #283,#284),.UNSPECIFIED.,.F.,.F.,(8,8),(9.738937226128,
    16.115457575053),.PIECEWISE_BEZIER_KNOTS.);
#277 = CARTESIAN_POINT('',(-22.4,17.65518360947,1.));
#278 = CARTESIAN_POINT('',(-21.61979510229,17.185036147022,1.));
#279 = CARTESIAN_POINT('',(-21.00075340544,16.447373956179,1.));
#280 = CARTESIAN_POINT('',(-20.65273517177,15.508612451669,1.));
#281 = CARTESIAN_POINT('',(-20.65273517177,14.491387548331,1.));
#282 = CARTESIAN_POINT('',(-21.00075340544,13.552626043821,1.));
#283 = CARTESIAN_POINT('',(-21.61979510229,12.814963852978,1.));
#284 = CARTESIAN_POINT('',(-22.4,12.34481639053,1.));
#285 = ORIENTED_EDGE('',*,*,#218,.F.);
#286 = ORIENTED_EDGE('',*,*,#50,.F.);
#287 = B_SPLINE_SURFACE_WITH_KNOTS('',1,7,(
    (#288,#289,#290,#291,#292,#293,#294,#295)
    ,(#296,#297,#298,#299,#300,#301,#302,#303
  )),.UNSPECIFIED.,.F.,.F.,.F.,(2,2),(8,8),(0.,6.376520348924),(
    9.738937226128,16.115457575053),.PIECEWISE_BEZIER_KNOTS.);
#288 = CARTESIAN_POINT('',(-21.88387096774,18.511694451235,0.));
#289 = CARTESIAN_POINT('',(-20.85198707077,17.889886517029,0.));
#290 = CARTESIAN_POINT('',(-20.03325450397,16.914268780753,0.));
#291 = CARTESIAN_POINT('',(-19.57297232395,15.672680984465,0.));
#292 = CARTESIAN_POINT('',(-19.57297232395,14.327319015535,0.));
#293 = CARTESIAN_POINT('',(-20.03325450397,13.085731219247,0.));
#294 = CARTESIAN_POINT('',(-20.85198707077,12.110113482971,0.));
#295 = CARTESIAN_POINT('',(-21.88387096774,11.488305548765,0.));
#296 = CARTESIAN_POINT('',(-22.4,17.65518360947,1.));
#297 = CARTESIAN_POINT('',(-21.61979510229,17.185036147022,1.));
#298 = CARTESIAN_POINT('',(-21.00075340544,16.447373956179,1.));
#299 = CARTESIAN_POINT('',(-20.65273517177,15.508612451669,1.));
#300 = CARTESIAN_POINT('',(-20.65273517177,14.491387548331,1.));
#301 = CARTESIAN_POINT('',(-21.00075340544,13.552626043821,1.));
#302 = CARTESIAN_POINT('',(-21.61979510229,12.814963852978,1.));
#303 = CARTESIAN_POINT('',(-22.4,12.34481639053,1.));
#304 = ADVANCED_FACE('',(#305),#317,.F.);
#305 = FACE_BOUND('',#306,.T.);
#306 = EDGE_LOOP('',(#307,#308,#309,#310));
#307 = ORIENTED_EDGE('',*,*,#244,.F.);
#308 = ORIENTED_EDGE('',*,*,#41,.T.);
#309 = ORIENTED_EDGE('',*,*,#267,.T.);
#310 = ORIENTED_EDGE('',*,*,#311,.F.);
#311 = EDGE_CURVE('',#245,#268,#312,.T.);
#312 = CIRCLE('',#313,3.1);
#313 = AXIS2_PLACEMENT_3D('',#314,#315,#316);
#314 = CARTESIAN_POINT('',(-24.,15.,1.));
#315 = DIRECTION('',(0.,0.,-1.));
#316 = DIRECTION('',(-0.516129032258,0.856510841765,0.));
#317 = CONICAL_SURFACE('',#318,3.1,0.785398163397);
#318 = AXIS2_PLACEMENT_3D('',#319,#320,#321);
#319 = CARTESIAN_POINT('',(-24.,15.,1.));
#320 = DIRECTION('',(-0.,-0.,-1.));
#321 = DIRECTION('',(-0.516129032258,0.856510841765,0.));
#322 = ADVANCED_FACE('',(#323),#380,.T.);
#323 = FACE_BOUND('',#324,.T.);
#324 = EDGE_LOOP('',(#325,#335,#343,#351,#359,#367,#373,#374));
#325 = ORIENTED_EDGE('',*,*,#326,.T.);
#326 = EDGE_CURVE('',#327,#329,#331,.T.);
#327 = VERTEX_POINT('',#328);
#328 = CARTESIAN_POINT('',(1.E-15,-9.999999999978,3.));
#329 = VERTEX_POINT('',#330);
#330 = CARTESIAN_POINT('',(2.E-15,-9.999999999972,10.));
#331 = LINE('',#332,#333);
#332 = CARTESIAN_POINT('',(1.36E-15,-9.999999999955,3.));
#333 = VECTOR('',#334,1.);
#334 = DIRECTION('',(0.,0.,1.));
#335 = ORIENTED_EDGE('',*,*,#336,.F.);
#336 = EDGE_CURVE('',#337,#329,#339,.T.);
#337 = VERTEX_POINT('',#338);
#338 = CARTESIAN_POINT('',(-14.,-9.99999999999,10.));
#339 = LINE('',#340,#341);
#340 = CARTESIAN_POINT('',(-13.99999999999,-9.99999999999,10.));
#341 = VECTOR('',#342,1.);
#342 = DIRECTION('',(1.,1.31686E-12,0.));
#343 = ORIENTED_EDGE('',*,*,#344,.F.);
#344 = EDGE_CURVE('',#345,#337,#347,.T.);
#345 = VERTEX_POINT('',#346);
#346 = CARTESIAN_POINT('',(-14.,-10.,13.));
#347 = LINE('',#348,#349);
#348 = CARTESIAN_POINT('',(-14.,-9.999999999991,15.222972972973));
#349 = VECTOR('',#350,1.);
#350 = DIRECTION('',(0.,6.85E-14,-1.));
#351 = ORIENTED_EDGE('',*,*,#352,.T.);
#352 = EDGE_CURVE('',#345,#353,#355,.T.);
#353 = VERTEX_POINT('',#354);
#354 = CARTESIAN_POINT('',(-14.,-10.,40.));
#355 = LINE('',#356,#357);
#356 = CARTESIAN_POINT('',(-14.,-10.,13.));
#357 = VECTOR('',#358,1.);
#358 = DIRECTION('',(0.,0.,1.));
#359 = ORIENTED_EDGE('',*,*,#360,.F.);
#360 = EDGE_CURVE('',#361,#353,#363,.T.);
#361 = VERTEX_POINT('',#362);
#362 = CARTESIAN_POINT('',(-30.99999999999,-9.999999999998,40.));
#363 = LINE('',#364,#365);
#364 = CARTESIAN_POINT('',(-34.,-10.,40.));
#365 = VECTOR('',#366,1.);
#366 = DIRECTION('',(1.,0.,0.));
#367 = ORIENTED_EDGE('',*,*,#368,.F.);
#368 = EDGE_CURVE('',#75,#361,#369,.T.);
#369 = LINE('',#370,#371);
#370 = CARTESIAN_POINT('',(-30.99999999999,-9.999999999998,2.0549E-13));
#371 = VECTOR('',#372,1.);
#372 = DIRECTION('',(0.,0.,1.));
#373 = ORIENTED_EDGE('',*,*,#72,.F.);
#374 = ORIENTED_EDGE('',*,*,#375,.T.);
#375 = EDGE_CURVE('',#73,#327,#376,.T.);
#376 = LINE('',#377,#378);
#377 = CARTESIAN_POINT('',(1.14E-15,-10.,0.));
#378 = VECTOR('',#379,1.);
#379 = DIRECTION('',(0.,0.,1.));
#380 = PLANE('',#381);
#381 = AXIS2_PLACEMENT_3D('',#382,#383,#384);
#382 = CARTESIAN_POINT('',(-19.55405405405,-9.999999999994,
    17.445945945946));
#383 = DIRECTION('',(5.2275E-13,-1.,-6.85E-14));
#384 = DIRECTION('',(-1.,-5.2275E-13,0.));
#385 = ADVANCED_FACE('',(#386),#405,.T.);
#386 = FACE_BOUND('',#387,.F.);
#387 = EDGE_LOOP('',(#388,#389,#397,#404));
#388 = ORIENTED_EDGE('',*,*,#124,.T.);
#389 = ORIENTED_EDGE('',*,*,#390,.T.);
#390 = EDGE_CURVE('',#117,#391,#393,.T.);
#391 = VERTEX_POINT('',#392);
#392 = CARTESIAN_POINT('',(-34.,-6.999999999998,40.));
#393 = LINE('',#394,#395);
#394 = CARTESIAN_POINT('',(-34.,-6.999999999998,2.0549E-13));
#395 = VECTOR('',#396,1.);
#396 = DIRECTION('',(0.,0.,1.));
#397 = ORIENTED_EDGE('',*,*,#398,.F.);
#398 = EDGE_CURVE('',#361,#391,#399,.T.);
#399 = CIRCLE('',#400,3.);
#400 = AXIS2_PLACEMENT_3D('',#401,#402,#403);
#401 = CARTESIAN_POINT('',(-31.,-6.999999999998,40.));
#402 = DIRECTION('',(-0.,-0.,-1.));
#403 = DIRECTION('',(0.,-1.,0.));
#404 = ORIENTED_EDGE('',*,*,#368,.F.);
#405 = CYLINDRICAL_SURFACE('',#406,3.);
#406 = AXIS2_PLACEMENT_3D('',#407,#408,#409);
#407 = CARTESIAN_POINT('',(-31.,-6.999999999998,2.0549E-13));
#408 = DIRECTION('',(0.,0.,1.));
#409 = DIRECTION('',(5.2275E-13,-1.,0.));
#410 = ADVANCED_FACE('',(#411),#430,.T.);
#411 = FACE_BOUND('',#412,.F.);
#412 = EDGE_LOOP('',(#413,#414,#423,#429));
#413 = ORIENTED_EDGE('',*,*,#375,.T.);
#414 = ORIENTED_EDGE('',*,*,#415,.T.);
#415 = EDGE_CURVE('',#327,#416,#418,.T.);
#416 = VERTEX_POINT('',#417);
#417 = CARTESIAN_POINT('',(6.E-15,9.999999999978,3.));
#418 = CIRCLE('',#419,10.);
#419 = AXIS2_PLACEMENT_3D('',#420,#421,#422);
#420 = CARTESIAN_POINT('',(2.06E-15,8.9E-16,3.));
#421 = DIRECTION('',(0.,0.,1.));
#422 = DIRECTION('',(1.,0.,0.));
#423 = ORIENTED_EDGE('',*,*,#424,.F.);
#424 = EDGE_CURVE('',#83,#416,#425,.T.);
#425 = LINE('',#426,#427);
#426 = CARTESIAN_POINT('',(3.45E-15,10.,0.));
#427 = VECTOR('',#428,1.);
#428 = DIRECTION('',(0.,0.,1.));
#429 = ORIENTED_EDGE('',*,*,#82,.F.);
#430 = CYLINDRICAL_SURFACE('',#431,10.);
#431 = AXIS2_PLACEMENT_3D('',#432,#433,#434);
#432 = CARTESIAN_POINT('',(2.06E-15,8.9E-16,0.));
#433 = DIRECTION('',(-0.,-0.,-1.));
#434 = DIRECTION('',(1.,0.,0.));
#435 = ADVANCED_FACE('',(#436),#454,.T.);
#436 = FACE_BOUND('',#437,.T.);
#437 = EDGE_LOOP('',(#438,#446,#452,#453));
#438 = ORIENTED_EDGE('',*,*,#439,.F.);
#439 = EDGE_CURVE('',#440,#391,#442,.T.);
#440 = VERTEX_POINT('',#441);
#441 = CARTESIAN_POINT('',(-34.,17.,40.));
#442 = LINE('',#443,#444);
#443 = CARTESIAN_POINT('',(-34.,20.,40.));
#444 = VECTOR('',#445,1.);
#445 = DIRECTION('',(0.,-1.,0.));
#446 = ORIENTED_EDGE('',*,*,#447,.F.);
#447 = EDGE_CURVE('',#108,#440,#448,.T.);
#448 = LINE('',#449,#450);
#449 = CARTESIAN_POINT('',(-34.,17.,0.));
#450 = VECTOR('',#451,1.);
#451 = DIRECTION('',(0.,0.,1.));
#452 = ORIENTED_EDGE('',*,*,#116,.F.);
#453 = ORIENTED_EDGE('',*,*,#390,.T.);
#454 = PLANE('',#455);
#455 = AXIS2_PLACEMENT_3D('',#456,#457,#458);
#456 = CARTESIAN_POINT('',(-34.,5.,20.));
#457 = DIRECTION('',(-1.,-0.,-0.));
#458 = DIRECTION('',(0.,0.,-1.));
#459 = ADVANCED_FACE('',(#460),#486,.T.);
#460 = FACE_BOUND('',#461,.T.);
#461 = EDGE_LOOP('',(#462,#470,#478,#484,#485));
#462 = ORIENTED_EDGE('',*,*,#463,.T.);
#463 = EDGE_CURVE('',#92,#464,#466,.T.);
#464 = VERTEX_POINT('',#465);
#465 = CARTESIAN_POINT('',(-13.99999999999,20.000000000008,
    10.000000000004));
#466 = LINE('',#467,#468);
#467 = CARTESIAN_POINT('',(-14.,20.,0.));
#468 = VECTOR('',#469,1.);
#469 = DIRECTION('',(0.,0.,1.));
#470 = ORIENTED_EDGE('',*,*,#471,.F.);
#471 = EDGE_CURVE('',#472,#464,#474,.T.);
#472 = VERTEX_POINT('',#473);
#473 = CARTESIAN_POINT('',(9.E-15,9.999999999955,10.));
#474 = LINE('',#475,#476);
#475 = CARTESIAN_POINT('',(7.69629E-12,9.999999999962,10.000000000004));
#476 = VECTOR('',#477,1.);
#477 = DIRECTION('',(-0.813733471206,0.581238193721,0.));
#478 = ORIENTED_EDGE('',*,*,#479,.F.);
#479 = EDGE_CURVE('',#416,#472,#480,.T.);
#480 = LINE('',#481,#482);
#481 = CARTESIAN_POINT('',(7.62E-15,9.999999999955,3.));
#482 = VECTOR('',#483,1.);
#483 = DIRECTION('',(0.,0.,1.));
#484 = ORIENTED_EDGE('',*,*,#424,.F.);
#485 = ORIENTED_EDGE('',*,*,#91,.F.);
#486 = PLANE('',#487);
#487 = AXIS2_PLACEMENT_3D('',#488,#489,#490);
#488 = CARTESIAN_POINT('',(-7.,14.999999999986,6.500000000003));
#489 = DIRECTION('',(0.58123819372,0.813733471206,1.19479E-12));
#490 = DIRECTION('',(0.813733471206,-0.58123819372,-1.009741958683E-28)
  );
#491 = ADVANCED_FACE('',(#492),#511,.T.);
#492 = FACE_BOUND('',#493,.F.);
#493 = EDGE_LOOP('',(#494,#495,#503,#510));
#494 = ORIENTED_EDGE('',*,*,#107,.T.);
#495 = ORIENTED_EDGE('',*,*,#496,.T.);
#496 = EDGE_CURVE('',#100,#497,#499,.T.);
#497 = VERTEX_POINT('',#498);
#498 = CARTESIAN_POINT('',(-31.,20.,40.));
#499 = LINE('',#500,#501);
#500 = CARTESIAN_POINT('',(-31.,20.,0.));
#501 = VECTOR('',#502,1.);
#502 = DIRECTION('',(0.,0.,1.));
#503 = ORIENTED_EDGE('',*,*,#504,.F.);
#504 = EDGE_CURVE('',#440,#497,#505,.T.);
#505 = CIRCLE('',#506,3.);
#506 = AXIS2_PLACEMENT_3D('',#507,#508,#509);
#507 = CARTESIAN_POINT('',(-31.,17.,40.));
#508 = DIRECTION('',(-0.,-0.,-1.));
#509 = DIRECTION('',(0.,-1.,0.));
#510 = ORIENTED_EDGE('',*,*,#447,.F.);
#511 = CYLINDRICAL_SURFACE('',#512,3.);
#512 = AXIS2_PLACEMENT_3D('',#513,#514,#515);
#513 = CARTESIAN_POINT('',(-31.,17.,0.));
#514 = DIRECTION('',(0.,0.,1.));
#515 = DIRECTION('',(-1.,0.,0.));
#516 = ADVANCED_FACE('',(#517),#544,.T.);
#517 = FACE_BOUND('',#518,.T.);
#518 = EDGE_LOOP('',(#519,#527,#535,#541,#542,#543));
#519 = ORIENTED_EDGE('',*,*,#520,.F.);
#520 = EDGE_CURVE('',#521,#497,#523,.T.);
#521 = VERTEX_POINT('',#522);
#522 = CARTESIAN_POINT('',(-14.,20.,40.));
#523 = LINE('',#524,#525);
#524 = CARTESIAN_POINT('',(-14.,20.,40.));
#525 = VECTOR('',#526,1.);
#526 = DIRECTION('',(-1.,0.,0.));
#527 = ORIENTED_EDGE('',*,*,#528,.F.);
#528 = EDGE_CURVE('',#529,#521,#531,.T.);
#529 = VERTEX_POINT('',#530);
#530 = CARTESIAN_POINT('',(-14.,20.,13.));
#531 = LINE('',#532,#533);
#532 = CARTESIAN_POINT('',(-14.,20.,13.));
#533 = VECTOR('',#534,1.);
#534 = DIRECTION('',(0.,0.,1.));
#535 = ORIENTED_EDGE('',*,*,#536,.F.);
#536 = EDGE_CURVE('',#464,#529,#537,.T.);
#537 = LINE('',#538,#539);
#538 = CARTESIAN_POINT('',(-14.,20.,13.));
#539 = VECTOR('',#540,1.);
#540 = DIRECTION('',(0.,0.,1.));
#541 = ORIENTED_EDGE('',*,*,#463,.F.);
#542 = ORIENTED_EDGE('',*,*,#99,.F.);
#543 = ORIENTED_EDGE('',*,*,#496,.T.);
#544 = PLANE('',#545);
#545 = AXIS2_PLACEMENT_3D('',#546,#547,#548);
#546 = CARTESIAN_POINT('',(-24.,20.,20.));
#547 = DIRECTION('',(0.,1.,0.));
#548 = DIRECTION('',(0.,0.,1.));
#549 = ADVANCED_FACE('',(#550),#576,.F.);
#550 = FACE_BOUND('',#551,.T.);
#551 = EDGE_LOOP('',(#552,#560,#561,#569));
#552 = ORIENTED_EDGE('',*,*,#553,.F.);
#553 = EDGE_CURVE('',#134,#554,#556,.T.);
#554 = VERTEX_POINT('',#555);
#555 = CARTESIAN_POINT('',(-27.1,-5.,1.));
#556 = LINE('',#557,#558);
#557 = CARTESIAN_POINT('',(-27.1,-5.,1.));
#558 = VECTOR('',#559,1.);
#559 = DIRECTION('',(0.707106781187,0.,0.707106781187));
#560 = ORIENTED_EDGE('',*,*,#133,.T.);
#561 = ORIENTED_EDGE('',*,*,#562,.T.);
#562 = EDGE_CURVE('',#136,#563,#565,.T.);
#563 = VERTEX_POINT('',#564);
#564 = CARTESIAN_POINT('',(-25.6,-2.34481639053,1.));
#565 = LINE('',#566,#567);
#566 = CARTESIAN_POINT('',(-25.6,-2.34481639053,1.));
#567 = VECTOR('',#568,1.);
#568 = DIRECTION('',(0.364958338677,-0.605644624372,0.707106781187));
#569 = ORIENTED_EDGE('',*,*,#570,.F.);
#570 = EDGE_CURVE('',#554,#563,#571,.T.);
#571 = CIRCLE('',#572,3.1);
#572 = AXIS2_PLACEMENT_3D('',#573,#574,#575);
#573 = CARTESIAN_POINT('',(-24.,-5.,1.));
#574 = DIRECTION('',(0.,0.,-1.));
#575 = DIRECTION('',(-1.,0.,0.));
#576 = CONICAL_SURFACE('',#577,3.1,0.785398163397);
#577 = AXIS2_PLACEMENT_3D('',#578,#579,#580);
#578 = CARTESIAN_POINT('',(-24.,-5.,1.));
#579 = DIRECTION('',(-0.,-0.,-1.));
#580 = DIRECTION('',(-1.,0.,0.));
#581 = ADVANCED_FACE('',(#582),#601,.F.);
#582 = FACE_BOUND('',#583,.T.);
#583 = EDGE_LOOP('',(#584,#592,#593,#594));
#584 = ORIENTED_EDGE('',*,*,#585,.F.);
#585 = EDGE_CURVE('',#163,#586,#588,.T.);
#586 = VERTEX_POINT('',#587);
#587 = CARTESIAN_POINT('',(-25.6,-7.65518360947,1.));
#588 = LINE('',#589,#590);
#589 = CARTESIAN_POINT('',(-25.6,-7.65518360947,1.));
#590 = VECTOR('',#591,1.);
#591 = DIRECTION('',(0.364958338677,0.605644624372,0.707106781187));
#592 = ORIENTED_EDGE('',*,*,#171,.T.);
#593 = ORIENTED_EDGE('',*,*,#553,.T.);
#594 = ORIENTED_EDGE('',*,*,#595,.F.);
#595 = EDGE_CURVE('',#586,#554,#596,.T.);
#596 = CIRCLE('',#597,3.1);
#597 = AXIS2_PLACEMENT_3D('',#598,#599,#600);
#598 = CARTESIAN_POINT('',(-24.,-5.,1.));
#599 = DIRECTION('',(-0.,0.,-1.));
#600 = DIRECTION('',(-0.516129032258,-0.856510841765,0.));
#601 = CONICAL_SURFACE('',#602,3.1,0.785398163397);
#602 = AXIS2_PLACEMENT_3D('',#603,#604,#605);
#603 = CARTESIAN_POINT('',(-24.,-5.,1.));
#604 = DIRECTION('',(-0.,-0.,-1.));
#605 = DIRECTION('',(-0.516129032258,-0.856510841765,0.));
#606 = ADVANCED_FACE('',(#607),#626,.F.);
#607 = FACE_BOUND('',#608,.T.);
#608 = EDGE_LOOP('',(#609,#610,#611,#619));
#609 = ORIENTED_EDGE('',*,*,#562,.F.);
#610 = ORIENTED_EDGE('',*,*,#144,.T.);
#611 = ORIENTED_EDGE('',*,*,#612,.T.);
#612 = EDGE_CURVE('',#145,#613,#615,.T.);
#613 = VERTEX_POINT('',#614);
#614 = CARTESIAN_POINT('',(-22.4,-2.34481639053,1.));
#615 = LINE('',#616,#617);
#616 = CARTESIAN_POINT('',(-22.4,-2.34481639053,1.));
#617 = VECTOR('',#618,1.);
#618 = DIRECTION('',(-0.364958338677,-0.605644624372,0.707106781187));
#619 = ORIENTED_EDGE('',*,*,#620,.F.);
#620 = EDGE_CURVE('',#563,#613,#621,.T.);
#621 = CIRCLE('',#622,3.1);
#622 = AXIS2_PLACEMENT_3D('',#623,#624,#625);
#623 = CARTESIAN_POINT('',(-24.,-5.,1.));
#624 = DIRECTION('',(0.,0.,-1.));
#625 = DIRECTION('',(-0.516129032258,0.856510841765,0.));
#626 = CONICAL_SURFACE('',#627,3.1,0.785398163397);
#627 = AXIS2_PLACEMENT_3D('',#628,#629,#630);
#628 = CARTESIAN_POINT('',(-24.,-5.,1.));
#629 = DIRECTION('',(-0.,-0.,-1.));
#630 = DIRECTION('',(-0.516129032258,0.856510841765,0.));
#631 = ADVANCED_FACE('',(#632),#651,.F.);
#632 = FACE_BOUND('',#633,.T.);
#633 = EDGE_LOOP('',(#634,#642,#643,#644));
#634 = ORIENTED_EDGE('',*,*,#635,.F.);
#635 = EDGE_CURVE('',#154,#636,#638,.T.);
#636 = VERTEX_POINT('',#637);
#637 = CARTESIAN_POINT('',(-22.4,-7.65518360947,1.));
#638 = LINE('',#639,#640);
#639 = CARTESIAN_POINT('',(-22.4,-7.65518360947,1.));
#640 = VECTOR('',#641,1.);
#641 = DIRECTION('',(-0.364958338677,0.605644624372,0.707106781187));
#642 = ORIENTED_EDGE('',*,*,#162,.T.);
#643 = ORIENTED_EDGE('',*,*,#585,.T.);
#644 = ORIENTED_EDGE('',*,*,#645,.F.);
#645 = EDGE_CURVE('',#636,#586,#646,.T.);
#646 = CIRCLE('',#647,3.1);
#647 = AXIS2_PLACEMENT_3D('',#648,#649,#650);
#648 = CARTESIAN_POINT('',(-24.,-5.,1.));
#649 = DIRECTION('',(0.,-0.,-1.));
#650 = DIRECTION('',(0.516129032258,-0.856510841765,0.));
#651 = CONICAL_SURFACE('',#652,3.1,0.785398163397);
#652 = AXIS2_PLACEMENT_3D('',#653,#654,#655);
#653 = CARTESIAN_POINT('',(-24.,-5.,1.));
#654 = DIRECTION('',(-0.,-0.,-1.));
#655 = DIRECTION('',(0.516129032258,-0.856510841765,0.));
#656 = ADVANCED_FACE('',(#657),#669,.F.);
#657 = FACE_BOUND('',#658,.T.);
#658 = EDGE_LOOP('',(#659,#660,#661,#662));
#659 = ORIENTED_EDGE('',*,*,#612,.F.);
#660 = ORIENTED_EDGE('',*,*,#153,.T.);
#661 = ORIENTED_EDGE('',*,*,#635,.T.);
#662 = ORIENTED_EDGE('',*,*,#663,.F.);
#663 = EDGE_CURVE('',#613,#636,#664,.T.);
#664 = CIRCLE('',#665,3.1);
#665 = AXIS2_PLACEMENT_3D('',#666,#667,#668);
#666 = CARTESIAN_POINT('',(-24.,-5.,1.));
#667 = DIRECTION('',(0.,0.,-1.));
#668 = DIRECTION('',(0.516129032258,0.856510841765,0.));
#669 = CONICAL_SURFACE('',#670,3.1,0.785398163397);
#670 = AXIS2_PLACEMENT_3D('',#671,#672,#673);
#671 = CARTESIAN_POINT('',(-24.,-5.,1.));
#672 = DIRECTION('',(-0.,-0.,-1.));
#673 = DIRECTION('',(0.516129032258,0.856510841765,-0.));
#674 = ADVANCED_FACE('',(#675),#765,.F.);
#675 = FACE_BOUND('',#676,.T.);
#676 = EDGE_LOOP('',(#677,#684,#685,#686,#687,#688,#689,#690,#699,#707,
    #716,#724,#733,#741,#750,#758));
#677 = ORIENTED_EDGE('',*,*,#678,.F.);
#678 = EDGE_CURVE('',#196,#679,#681,.T.);
#679 = VERTEX_POINT('',#680);
#680 = CARTESIAN_POINT('',(-27.1,15.,37.));
#681 = B_SPLINE_CURVE_WITH_KNOTS('',1,(#682,#683),.UNSPECIFIED.,.F.,.F.,
  (2,2),(0.,37.),.PIECEWISE_BEZIER_KNOTS.);
#682 = CARTESIAN_POINT('',(-27.1,15.,0.));
#683 = CARTESIAN_POINT('',(-27.1,15.,37.));
#684 = ORIENTED_EDGE('',*,*,#252,.T.);
#685 = ORIENTED_EDGE('',*,*,#311,.T.);
#686 = ORIENTED_EDGE('',*,*,#275,.T.);
#687 = ORIENTED_EDGE('',*,*,#227,.T.);
#688 = ORIENTED_EDGE('',*,*,#203,.T.);
#689 = ORIENTED_EDGE('',*,*,#678,.T.);
#690 = ORIENTED_EDGE('',*,*,#691,.F.);
#691 = EDGE_CURVE('',#692,#679,#694,.T.);
#692 = VERTEX_POINT('',#693);
#693 = CARTESIAN_POINT('',(-25.6,12.34481639053,37.));
#694 = CIRCLE('',#695,3.1);
#695 = AXIS2_PLACEMENT_3D('',#696,#697,#698);
#696 = CARTESIAN_POINT('',(-24.,15.,37.));
#697 = DIRECTION('',(0.,0.,-1.));
#698 = DIRECTION('',(-1.,0.,0.));
#699 = ORIENTED_EDGE('',*,*,#700,.T.);
#700 = EDGE_CURVE('',#692,#701,#703,.T.);
#701 = VERTEX_POINT('',#702);
#702 = CARTESIAN_POINT('',(-25.6,12.34481639053,37.2));
#703 = LINE('',#704,#705);
#704 = CARTESIAN_POINT('',(-25.6,12.34481639053,0.));
#705 = VECTOR('',#706,1.);
#706 = DIRECTION('',(0.,0.,1.));
#707 = ORIENTED_EDGE('',*,*,#708,.F.);
#708 = EDGE_CURVE('',#709,#701,#711,.T.);
#709 = VERTEX_POINT('',#710);
#710 = CARTESIAN_POINT('',(-22.4,12.34481639053,37.2));
#711 = CIRCLE('',#712,3.1);
#712 = AXIS2_PLACEMENT_3D('',#713,#714,#715);
#713 = CARTESIAN_POINT('',(-24.,15.,37.2));
#714 = DIRECTION('',(0.,0.,-1.));
#715 = DIRECTION('',(1.,0.,0.));
#716 = ORIENTED_EDGE('',*,*,#717,.F.);
#717 = EDGE_CURVE('',#718,#709,#720,.T.);
#718 = VERTEX_POINT('',#719);
#719 = CARTESIAN_POINT('',(-22.4,12.34481639053,37.));
#720 = LINE('',#721,#722);
#721 = CARTESIAN_POINT('',(-22.4,12.34481639053,0.));
#722 = VECTOR('',#723,1.);
#723 = DIRECTION('',(0.,0.,1.));
#724 = ORIENTED_EDGE('',*,*,#725,.F.);
#725 = EDGE_CURVE('',#726,#718,#728,.T.);
#726 = VERTEX_POINT('',#727);
#727 = CARTESIAN_POINT('',(-22.4,17.65518360947,37.));
#728 = CIRCLE('',#729,3.1);
#729 = AXIS2_PLACEMENT_3D('',#730,#731,#732);
#730 = CARTESIAN_POINT('',(-24.,15.,37.));
#731 = DIRECTION('',(0.,0.,-1.));
#732 = DIRECTION('',(-1.,0.,0.));
#733 = ORIENTED_EDGE('',*,*,#734,.T.);
#734 = EDGE_CURVE('',#726,#735,#737,.T.);
#735 = VERTEX_POINT('',#736);
#736 = CARTESIAN_POINT('',(-22.4,17.65518360947,37.2));
#737 = LINE('',#738,#739);
#738 = CARTESIAN_POINT('',(-22.4,17.65518360947,0.));
#739 = VECTOR('',#740,1.);
#740 = DIRECTION('',(0.,0.,1.));
#741 = ORIENTED_EDGE('',*,*,#742,.F.);
#742 = EDGE_CURVE('',#743,#735,#745,.T.);
#743 = VERTEX_POINT('',#744);
#744 = CARTESIAN_POINT('',(-25.6,17.65518360947,37.2));
#745 = CIRCLE('',#746,3.1);
#746 = AXIS2_PLACEMENT_3D('',#747,#748,#749);
#747 = CARTESIAN_POINT('',(-24.,15.,37.2));
#748 = DIRECTION('',(0.,0.,-1.));
#749 = DIRECTION('',(1.,0.,0.));
#750 = ORIENTED_EDGE('',*,*,#751,.F.);
#751 = EDGE_CURVE('',#752,#743,#754,.T.);
#752 = VERTEX_POINT('',#753);
#753 = CARTESIAN_POINT('',(-25.6,17.65518360947,37.));
#754 = LINE('',#755,#756);
#755 = CARTESIAN_POINT('',(-25.6,17.65518360947,0.));
#756 = VECTOR('',#757,1.);
#757 = DIRECTION('',(0.,0.,1.));
#758 = ORIENTED_EDGE('',*,*,#759,.F.);
#759 = EDGE_CURVE('',#679,#752,#760,.T.);
#760 = CIRCLE('',#761,3.1);
#761 = AXIS2_PLACEMENT_3D('',#762,#763,#764);
#762 = CARTESIAN_POINT('',(-24.,15.,37.));
#763 = DIRECTION('',(0.,0.,-1.));
#764 = DIRECTION('',(-1.,0.,0.));
#765 = CYLINDRICAL_SURFACE('',#766,3.1);
#766 = AXIS2_PLACEMENT_3D('',#767,#768,#769);
#767 = CARTESIAN_POINT('',(-24.,15.,0.));
#768 = DIRECTION('',(0.,0.,1.));
#769 = DIRECTION('',(-1.,0.,0.));
#770 = ADVANCED_FACE('',(#771),#783,.T.);
#771 = FACE_BOUND('',#772,.F.);
#772 = EDGE_LOOP('',(#773,#774,#781,#782));
#773 = ORIENTED_EDGE('',*,*,#326,.T.);
#774 = ORIENTED_EDGE('',*,*,#775,.T.);
#775 = EDGE_CURVE('',#329,#472,#776,.T.);
#776 = CIRCLE('',#777,10.);
#777 = AXIS2_PLACEMENT_3D('',#778,#779,#780);
#778 = CARTESIAN_POINT('',(2.99241188948E-05,0.,10.));
#779 = DIRECTION('',(0.,0.,1.));
#780 = DIRECTION('',(-2.99241188921E-06,-0.999999999996,0.));
#781 = ORIENTED_EDGE('',*,*,#479,.F.);
#782 = ORIENTED_EDGE('',*,*,#415,.F.);
#783 = CYLINDRICAL_SURFACE('',#784,10.);
#784 = AXIS2_PLACEMENT_3D('',#785,#786,#787);
#785 = CARTESIAN_POINT('',(2.992411889399E-05,1.5E-16,3.));
#786 = DIRECTION('',(-0.,-0.,-1.));
#787 = DIRECTION('',(1.,0.,0.));
#788 = ADVANCED_FACE('',(#789),#816,.T.);
#789 = FACE_BOUND('',#790,.F.);
#790 = EDGE_LOOP('',(#791,#800,#808,#815));
#791 = ORIENTED_EDGE('',*,*,#792,.T.);
#792 = EDGE_CURVE('',#337,#793,#795,.T.);
#793 = VERTEX_POINT('',#794);
#794 = CARTESIAN_POINT('',(-14.,-6.99999999999,13.));
#795 = CIRCLE('',#796,3.);
#796 = AXIS2_PLACEMENT_3D('',#797,#798,#799);
#797 = CARTESIAN_POINT('',(-14.,-6.99999999999,10.));
#798 = DIRECTION('',(-1.,-1.31686E-12,-0.));
#799 = DIRECTION('',(-1.31686E-12,1.,0.));
#800 = ORIENTED_EDGE('',*,*,#801,.T.);
#801 = EDGE_CURVE('',#793,#802,#804,.T.);
#802 = VERTEX_POINT('',#803);
#803 = CARTESIAN_POINT('',(-3.949E-12,-6.999999999972,13.));
#804 = LINE('',#805,#806);
#805 = CARTESIAN_POINT('',(-14.,-6.99999999999,13.));
#806 = VECTOR('',#807,1.);
#807 = DIRECTION('',(1.,1.31686E-12,0.));
#808 = ORIENTED_EDGE('',*,*,#809,.F.);
#809 = EDGE_CURVE('',#329,#802,#810,.T.);
#810 = CIRCLE('',#811,3.);
#811 = AXIS2_PLACEMENT_3D('',#812,#813,#814);
#812 = CARTESIAN_POINT('',(-3.94884E-12,-6.999999999972,10.));
#813 = DIRECTION('',(-1.,-1.31686E-12,0.));
#814 = DIRECTION('',(1.31686E-12,-1.,-6.85E-14));
#815 = ORIENTED_EDGE('',*,*,#336,.F.);
#816 = CYLINDRICAL_SURFACE('',#817,3.);
#817 = AXIS2_PLACEMENT_3D('',#818,#819,#820);
#818 = CARTESIAN_POINT('',(-14.,-6.99999999999,10.));
#819 = DIRECTION('',(1.,1.31686E-12,0.));
#820 = DIRECTION('',(1.31686E-12,-1.,-6.85E-14));
#821 = ADVANCED_FACE('',(#822),#850,.F.);
#822 = FACE_BOUND('',#823,.F.);
#823 = EDGE_LOOP('',(#824,#832,#833,#834,#835,#841,#842,#843));
#824 = ORIENTED_EDGE('',*,*,#825,.F.);
#825 = EDGE_CURVE('',#793,#826,#828,.T.);
#826 = VERTEX_POINT('',#827);
#827 = CARTESIAN_POINT('',(-14.,16.313289171274,13.));
#828 = LINE('',#829,#830);
#829 = CARTESIAN_POINT('',(-14.,-10.,13.));
#830 = VECTOR('',#831,1.);
#831 = DIRECTION('',(0.,1.,0.));
#832 = ORIENTED_EDGE('',*,*,#792,.F.);
#833 = ORIENTED_EDGE('',*,*,#344,.F.);
#834 = ORIENTED_EDGE('',*,*,#352,.T.);
#835 = ORIENTED_EDGE('',*,*,#836,.T.);
#836 = EDGE_CURVE('',#353,#521,#837,.T.);
#837 = LINE('',#838,#839);
#838 = CARTESIAN_POINT('',(-14.,-10.,40.));
#839 = VECTOR('',#840,1.);
#840 = DIRECTION('',(0.,1.,0.));
#841 = ORIENTED_EDGE('',*,*,#528,.F.);
#842 = ORIENTED_EDGE('',*,*,#536,.F.);
#843 = ORIENTED_EDGE('',*,*,#844,.T.);
#844 = EDGE_CURVE('',#464,#826,#845,.T.);
#845 = ELLIPSE('',#846,3.686710828738,3.);
#846 = AXIS2_PLACEMENT_3D('',#847,#848,#849);
#847 = CARTESIAN_POINT('',(-14.,16.313289171274,10.));
#848 = DIRECTION('',(1.,0.,0.));
#849 = DIRECTION('',(0.,1.,0.));
#850 = PLANE('',#851);
#851 = AXIS2_PLACEMENT_3D('',#852,#853,#854);
#852 = CARTESIAN_POINT('',(-14.,-10.,13.));
#853 = DIRECTION('',(-1.,0.,0.));
#854 = DIRECTION('',(0.,1.,0.));
#855 = ADVANCED_FACE('',(#856,#864,#875),#886,.T.);
#856 = FACE_BOUND('',#857,.T.);
#857 = EDGE_LOOP('',(#858,#859,#860,#861,#862,#863));
#858 = ORIENTED_EDGE('',*,*,#520,.T.);
#859 = ORIENTED_EDGE('',*,*,#504,.F.);
#860 = ORIENTED_EDGE('',*,*,#439,.T.);
#861 = ORIENTED_EDGE('',*,*,#398,.F.);
#862 = ORIENTED_EDGE('',*,*,#360,.T.);
#863 = ORIENTED_EDGE('',*,*,#836,.T.);
#864 = FACE_BOUND('',#865,.T.);
#865 = EDGE_LOOP('',(#866));
#866 = ORIENTED_EDGE('',*,*,#867,.F.);
#867 = EDGE_CURVE('',#868,#868,#870,.T.);
#868 = VERTEX_POINT('',#869);
#869 = CARTESIAN_POINT('',(-25.6,-5.,40.));
#870 = CIRCLE('',#871,1.6);
#871 = AXIS2_PLACEMENT_3D('',#872,#873,#874);
#872 = CARTESIAN_POINT('',(-24.,-5.,40.));
#873 = DIRECTION('',(0.,0.,1.));
#874 = DIRECTION('',(-1.,0.,0.));
#875 = FACE_BOUND('',#876,.T.);
#876 = EDGE_LOOP('',(#877));
#877 = ORIENTED_EDGE('',*,*,#878,.F.);
#878 = EDGE_CURVE('',#879,#879,#881,.T.);
#879 = VERTEX_POINT('',#880);
#880 = CARTESIAN_POINT('',(-25.6,15.,40.));
#881 = CIRCLE('',#882,1.6);
#882 = AXIS2_PLACEMENT_3D('',#883,#884,#885);
#883 = CARTESIAN_POINT('',(-24.,15.,40.));
#884 = DIRECTION('',(0.,0.,1.));
#885 = DIRECTION('',(-1.,0.,0.));
#886 = PLANE('',#887);
#887 = AXIS2_PLACEMENT_3D('',#888,#889,#890);
#888 = CARTESIAN_POINT('',(-24.,5.,40.));
#889 = DIRECTION('',(0.,0.,1.));
#890 = DIRECTION('',(1.,0.,0.));
#891 = ADVANCED_FACE('',(#892),#933,.T.);
#892 = FACE_BOUND('',#893,.F.);
#893 = EDGE_LOOP('',(#894,#895,#896,#927));
#894 = ORIENTED_EDGE('',*,*,#844,.F.);
#895 = ORIENTED_EDGE('',*,*,#471,.F.);
#896 = ORIENTED_EDGE('',*,*,#897,.T.);
#897 = EDGE_CURVE('',#472,#898,#900,.T.);
#898 = VERTEX_POINT('',#899);
#899 = CARTESIAN_POINT('',(-0.883091915481,6.944069110862,13.));
#900 = B_SPLINE_CURVE_WITH_KNOTS('',7,(#901,#902,#903,#904,#905,#906,
    #907,#908,#909,#910,#911,#912,#913,#914,#915,#916,#917,#918,#919,
    #920,#921,#922,#923,#924,#925,#926),.UNSPECIFIED.,.F.,.F.,(8,6,6,6,8
    ),(0.,0.351939975233,0.538981740776,0.968732872935,1.),
  .UNSPECIFIED.);
#901 = CARTESIAN_POINT('',(1.690481E-11,9.999999999955,10.));
#902 = CARTESIAN_POINT('',(1.690481E-11,9.999999999955,10.248998069391)
  );
#903 = CARTESIAN_POINT('',(-7.726783156763E-03,9.975888661848,
    10.498110452385));
#904 = CARTESIAN_POINT('',(-2.319279892591E-02,9.927627571489,
    10.743821660874));
#905 = CARTESIAN_POINT('',(-4.609608679026E-02,9.855955390449,
    10.982948824562));
#906 = CARTESIAN_POINT('',(-7.59188175376E-02,9.762087056956,
    11.212623481777));
#907 = CARTESIAN_POINT('',(-0.111957129999,9.64767940518,11.430293490336
    ));
#908 = CARTESIAN_POINT('',(-0.175338321641,9.44427453307,11.741931766649
    ));
#909 = CARTESIAN_POINT('',(-0.198851678112,9.368462392515,
    11.846112287285));
#910 = CARTESIAN_POINT('',(-0.223760492512,9.287720680772,
    11.946023282194));
#911 = CARTESIAN_POINT('',(-0.249935607959,9.202360182509,
    12.041405599478));
#912 = CARTESIAN_POINT('',(-0.277243900929,9.112702521901,12.13203999178
    ));
#913 = CARTESIAN_POINT('',(-0.305550622307,9.019075597108,
    12.217743339908));
#914 = CARTESIAN_POINT('',(-0.401745914287,8.698327249767,
    12.483602630734));
#915 = CARTESIAN_POINT('',(-0.473317914326,8.455682644792,
    12.641971601805));
#916 = CARTESIAN_POINT('',(-0.547832168367,8.19780766588,12.771742651309
    ));
#917 = CARTESIAN_POINT('',(-0.623732909573,7.928571168545,
    12.872109762851));
#918 = CARTESIAN_POINT('',(-0.699604524447,7.651629166439,
    12.942858923194));
#919 = CARTESIAN_POINT('',(-0.774210553951,7.370397049159,
    12.984256402727));
#920 = CARTESIAN_POINT('',(-0.851789493511,7.067443630391,12.99772060941
    ));
#921 = CARTESIAN_POINT('',(-0.857038979461,7.046890329341,
    12.998481088667));
#922 = CARTESIAN_POINT('',(-0.862276013871,7.02633179707,12.999089068721
    ));
#923 = CARTESIAN_POINT('',(-0.86750020961,7.005769225816,12.99954474512)
  );
#924 = CARTESIAN_POINT('',(-0.872711180038,6.985203801964,
    12.999848319556));
#925 = CARTESIAN_POINT('',(-0.877908539007,6.964636706041,
    12.999999999858));
#926 = CARTESIAN_POINT('',(-0.883091900862,6.944069112721,13.));
#927 = ORIENTED_EDGE('',*,*,#928,.T.);
#928 = EDGE_CURVE('',#898,#826,#929,.T.);
#929 = LINE('',#930,#931);
#930 = CARTESIAN_POINT('',(-1.743714581155,7.558799586345,13.));
#931 = VECTOR('',#932,1.);
#932 = DIRECTION('',(-0.813733471206,0.581238193721,0.));
#933 = CYLINDRICAL_SURFACE('',#934,3.);
#934 = AXIS2_PLACEMENT_3D('',#935,#936,#937);
#935 = CARTESIAN_POINT('',(-1.743714581155,7.558799586345,10.));
#936 = DIRECTION('',(-0.813733471206,0.581238193721,0.));
#937 = DIRECTION('',(0.581238193721,0.813733471206,1.19479E-12));
#938 = ADVANCED_FACE('',(#939),#1029,.F.);
#939 = FACE_BOUND('',#940,.T.);
#940 = EDGE_LOOP('',(#941,#948,#949,#950,#951,#952,#953,#954,#963,#971,
    #980,#988,#997,#1005,#1014,#1022));
#941 = ORIENTED_EDGE('',*,*,#942,.F.);
#942 = EDGE_CURVE('',#554,#943,#945,.T.);
#943 = VERTEX_POINT('',#944);
#944 = CARTESIAN_POINT('',(-27.1,-5.,37.));
#945 = B_SPLINE_CURVE_WITH_KNOTS('',1,(#946,#947),.UNSPECIFIED.,.F.,.F.,
  (2,2),(0.,37.),.PIECEWISE_BEZIER_KNOTS.);
#946 = CARTESIAN_POINT('',(-27.1,-5.,0.));
#947 = CARTESIAN_POINT('',(-27.1,-5.,37.));
#948 = ORIENTED_EDGE('',*,*,#570,.T.);
#949 = ORIENTED_EDGE('',*,*,#620,.T.);
#950 = ORIENTED_EDGE('',*,*,#663,.T.);
#951 = ORIENTED_EDGE('',*,*,#645,.T.);
#952 = ORIENTED_EDGE('',*,*,#595,.T.);
#953 = ORIENTED_EDGE('',*,*,#942,.T.);
#954 = ORIENTED_EDGE('',*,*,#955,.F.);
#955 = EDGE_CURVE('',#956,#943,#958,.T.);
#956 = VERTEX_POINT('',#957);
#957 = CARTESIAN_POINT('',(-25.6,-7.65518360947,37.));
#958 = CIRCLE('',#959,3.1);
#959 = AXIS2_PLACEMENT_3D('',#960,#961,#962);
#960 = CARTESIAN_POINT('',(-24.,-5.,37.));
#961 = DIRECTION('',(0.,0.,-1.));
#962 = DIRECTION('',(-1.,0.,0.));
#963 = ORIENTED_EDGE('',*,*,#964,.T.);
#964 = EDGE_CURVE('',#956,#965,#967,.T.);
#965 = VERTEX_POINT('',#966);
#966 = CARTESIAN_POINT('',(-25.6,-7.65518360947,37.2));
#967 = LINE('',#968,#969);
#968 = CARTESIAN_POINT('',(-25.6,-7.65518360947,0.));
#969 = VECTOR('',#970,1.);
#970 = DIRECTION('',(0.,0.,1.));
#971 = ORIENTED_EDGE('',*,*,#972,.F.);
#972 = EDGE_CURVE('',#973,#965,#975,.T.);
#973 = VERTEX_POINT('',#974);
#974 = CARTESIAN_POINT('',(-22.4,-7.65518360947,37.2));
#975 = CIRCLE('',#976,3.1);
#976 = AXIS2_PLACEMENT_3D('',#977,#978,#979);
#977 = CARTESIAN_POINT('',(-24.,-5.,37.2));
#978 = DIRECTION('',(0.,0.,-1.));
#979 = DIRECTION('',(1.,0.,0.));
#980 = ORIENTED_EDGE('',*,*,#981,.F.);
#981 = EDGE_CURVE('',#982,#973,#984,.T.);
#982 = VERTEX_POINT('',#983);
#983 = CARTESIAN_POINT('',(-22.4,-7.65518360947,37.));
#984 = LINE('',#985,#986);
#985 = CARTESIAN_POINT('',(-22.4,-7.65518360947,0.));
#986 = VECTOR('',#987,1.);
#987 = DIRECTION('',(0.,0.,1.));
#988 = ORIENTED_EDGE('',*,*,#989,.F.);
#989 = EDGE_CURVE('',#990,#982,#992,.T.);
#990 = VERTEX_POINT('',#991);
#991 = CARTESIAN_POINT('',(-22.4,-2.34481639053,37.));
#992 = CIRCLE('',#993,3.1);
#993 = AXIS2_PLACEMENT_3D('',#994,#995,#996);
#994 = CARTESIAN_POINT('',(-24.,-5.,37.));
#995 = DIRECTION('',(0.,0.,-1.));
#996 = DIRECTION('',(-1.,0.,0.));
#997 = ORIENTED_EDGE('',*,*,#998,.T.);
#998 = EDGE_CURVE('',#990,#999,#1001,.T.);
#999 = VERTEX_POINT('',#1000);
#1000 = CARTESIAN_POINT('',(-22.4,-2.34481639053,37.2));
#1001 = LINE('',#1002,#1003);
#1002 = CARTESIAN_POINT('',(-22.4,-2.34481639053,0.));
#1003 = VECTOR('',#1004,1.);
#1004 = DIRECTION('',(0.,0.,1.));
#1005 = ORIENTED_EDGE('',*,*,#1006,.F.);
#1006 = EDGE_CURVE('',#1007,#999,#1009,.T.);
#1007 = VERTEX_POINT('',#1008);
#1008 = CARTESIAN_POINT('',(-25.6,-2.34481639053,37.2));
#1009 = CIRCLE('',#1010,3.1);
#1010 = AXIS2_PLACEMENT_3D('',#1011,#1012,#1013);
#1011 = CARTESIAN_POINT('',(-24.,-5.,37.2));
#1012 = DIRECTION('',(0.,0.,-1.));
#1013 = DIRECTION('',(1.,0.,0.));
#1014 = ORIENTED_EDGE('',*,*,#1015,.F.);
#1015 = EDGE_CURVE('',#1016,#1007,#1018,.T.);
#1016 = VERTEX_POINT('',#1017);
#1017 = CARTESIAN_POINT('',(-25.6,-2.34481639053,37.));
#1018 = LINE('',#1019,#1020);
#1019 = CARTESIAN_POINT('',(-25.6,-2.34481639053,0.));
#1020 = VECTOR('',#1021,1.);
#1021 = DIRECTION('',(0.,0.,1.));
#1022 = ORIENTED_EDGE('',*,*,#1023,.F.);
#1023 = EDGE_CURVE('',#943,#1016,#1024,.T.);
#1024 = CIRCLE('',#1025,3.1);
#1025 = AXIS2_PLACEMENT_3D('',#1026,#1027,#1028);
#1026 = CARTESIAN_POINT('',(-24.,-5.,37.));
#1027 = DIRECTION('',(0.,0.,-1.));
#1028 = DIRECTION('',(-1.,0.,0.));
#1029 = CYLINDRICAL_SURFACE('',#1030,3.1);
#1030 = AXIS2_PLACEMENT_3D('',#1031,#1032,#1033);
#1031 = CARTESIAN_POINT('',(-24.,-5.,0.));
#1032 = DIRECTION('',(0.,0.,1.));
#1033 = DIRECTION('',(-1.,0.,0.));
#1034 = ADVANCED_FACE('',(#1035),#1045,.T.);
#1035 = FACE_BOUND('',#1036,.T.);
#1036 = EDGE_LOOP('',(#1037,#1038,#1039));
#1037 = ORIENTED_EDGE('',*,*,#691,.T.);
#1038 = ORIENTED_EDGE('',*,*,#759,.T.);
#1039 = ORIENTED_EDGE('',*,*,#1040,.F.);
#1040 = EDGE_CURVE('',#692,#752,#1041,.T.);
#1041 = LINE('',#1042,#1043);
#1042 = CARTESIAN_POINT('',(-25.6,13.672408195265,37.));
#1043 = VECTOR('',#1044,1.);
#1044 = DIRECTION('',(0.,1.,0.));
#1045 = PLANE('',#1046);
#1046 = AXIS2_PLACEMENT_3D('',#1047,#1048,#1049);
#1047 = CARTESIAN_POINT('',(-24.,15.,37.));
#1048 = DIRECTION('',(0.,0.,-1.));
#1049 = DIRECTION('',(-1.,0.,0.));
#1050 = ADVANCED_FACE('',(#1051),#1102,.T.);
#1051 = FACE_BOUND('',#1052,.T.);
#1052 = EDGE_LOOP('',(#1053,#1061,#1069,#1077,#1085,#1093,#1099,#1100,
    #1101));
#1053 = ORIENTED_EDGE('',*,*,#1054,.F.);
#1054 = EDGE_CURVE('',#1055,#743,#1057,.T.);
#1055 = VERTEX_POINT('',#1056);
#1056 = CARTESIAN_POINT('',(-25.6,16.6,37.2));
#1057 = LINE('',#1058,#1059);
#1058 = CARTESIAN_POINT('',(-25.6,12.34481639053,37.2));
#1059 = VECTOR('',#1060,1.);
#1060 = DIRECTION('',(0.,1.,0.));
#1061 = ORIENTED_EDGE('',*,*,#1062,.T.);
#1062 = EDGE_CURVE('',#1055,#1063,#1065,.T.);
#1063 = VERTEX_POINT('',#1064);
#1064 = CARTESIAN_POINT('',(-25.6,16.6,37.4));
#1065 = LINE('',#1066,#1067);
#1066 = CARTESIAN_POINT('',(-25.6,16.6,0.));
#1067 = VECTOR('',#1068,1.);
#1068 = DIRECTION('',(0.,0.,1.));
#1069 = ORIENTED_EDGE('',*,*,#1070,.T.);
#1070 = EDGE_CURVE('',#1063,#1071,#1073,.T.);
#1071 = VERTEX_POINT('',#1072);
#1072 = CARTESIAN_POINT('',(-25.6,15.,37.4));
#1073 = LINE('',#1074,#1075);
#1074 = CARTESIAN_POINT('',(-25.6,16.6,37.4));
#1075 = VECTOR('',#1076,1.);
#1076 = DIRECTION('',(0.,-1.,0.));
#1077 = ORIENTED_EDGE('',*,*,#1078,.T.);
#1078 = EDGE_CURVE('',#1071,#1079,#1081,.T.);
#1079 = VERTEX_POINT('',#1080);
#1080 = CARTESIAN_POINT('',(-25.6,13.4,37.4));
#1081 = LINE('',#1082,#1083);
#1082 = CARTESIAN_POINT('',(-25.6,16.6,37.4));
#1083 = VECTOR('',#1084,1.);
#1084 = DIRECTION('',(0.,-1.,0.));
#1085 = ORIENTED_EDGE('',*,*,#1086,.F.);
#1086 = EDGE_CURVE('',#1087,#1079,#1089,.T.);
#1087 = VERTEX_POINT('',#1088);
#1088 = CARTESIAN_POINT('',(-25.6,13.4,37.2));
#1089 = LINE('',#1090,#1091);
#1090 = CARTESIAN_POINT('',(-25.6,13.4,0.));
#1091 = VECTOR('',#1092,1.);
#1092 = DIRECTION('',(0.,0.,1.));
#1093 = ORIENTED_EDGE('',*,*,#1094,.F.);
#1094 = EDGE_CURVE('',#701,#1087,#1095,.T.);
#1095 = LINE('',#1096,#1097);
#1096 = CARTESIAN_POINT('',(-25.6,12.34481639053,37.2));
#1097 = VECTOR('',#1098,1.);
#1098 = DIRECTION('',(0.,1.,0.));
#1099 = ORIENTED_EDGE('',*,*,#700,.F.);
#1100 = ORIENTED_EDGE('',*,*,#1040,.T.);
#1101 = ORIENTED_EDGE('',*,*,#751,.T.);
#1102 = PLANE('',#1103);
#1103 = AXIS2_PLACEMENT_3D('',#1104,#1105,#1106);
#1104 = CARTESIAN_POINT('',(-25.6,15.,37.163043231056));
#1105 = DIRECTION('',(1.,0.,0.));
#1106 = DIRECTION('',(0.,0.,1.));
#1107 = ADVANCED_FACE('',(#1108),#1126,.F.);
#1108 = FACE_BOUND('',#1109,.F.);
#1109 = EDGE_LOOP('',(#1110,#1111,#1119,#1125));
#1110 = ORIENTED_EDGE('',*,*,#1054,.F.);
#1111 = ORIENTED_EDGE('',*,*,#1112,.T.);
#1112 = EDGE_CURVE('',#1055,#1113,#1115,.T.);
#1113 = VERTEX_POINT('',#1114);
#1114 = CARTESIAN_POINT('',(-22.4,16.6,37.2));
#1115 = LINE('',#1116,#1117);
#1116 = CARTESIAN_POINT('',(-23.2,16.6,37.2));
#1117 = VECTOR('',#1118,1.);
#1118 = DIRECTION('',(1.,0.,0.));
#1119 = ORIENTED_EDGE('',*,*,#1120,.T.);
#1120 = EDGE_CURVE('',#1113,#735,#1121,.T.);
#1121 = LINE('',#1122,#1123);
#1122 = CARTESIAN_POINT('',(-22.4,12.34481639053,37.2));
#1123 = VECTOR('',#1124,1.);
#1124 = DIRECTION('',(0.,1.,0.));
#1125 = ORIENTED_EDGE('',*,*,#742,.F.);
#1126 = PLANE('',#1127);
#1127 = AXIS2_PLACEMENT_3D('',#1128,#1129,#1130);
#1128 = CARTESIAN_POINT('',(-24.,5.,37.2));
#1129 = DIRECTION('',(0.,0.,1.));
#1130 = DIRECTION('',(1.,0.,0.));
#1131 = ADVANCED_FACE('',(#1132),#1181,.T.);
#1132 = FACE_BOUND('',#1133,.T.);
#1133 = EDGE_LOOP('',(#1134,#1140,#1141,#1149,#1157,#1165,#1173,#1179,
    #1180));
#1134 = ORIENTED_EDGE('',*,*,#1135,.F.);
#1135 = EDGE_CURVE('',#718,#726,#1136,.T.);
#1136 = LINE('',#1137,#1138);
#1137 = CARTESIAN_POINT('',(-22.4,13.672408195265,37.));
#1138 = VECTOR('',#1139,1.);
#1139 = DIRECTION('',(0.,1.,0.));
#1140 = ORIENTED_EDGE('',*,*,#717,.T.);
#1141 = ORIENTED_EDGE('',*,*,#1142,.T.);
#1142 = EDGE_CURVE('',#709,#1143,#1145,.T.);
#1143 = VERTEX_POINT('',#1144);
#1144 = CARTESIAN_POINT('',(-22.4,13.4,37.2));
#1145 = LINE('',#1146,#1147);
#1146 = CARTESIAN_POINT('',(-22.4,12.34481639053,37.2));
#1147 = VECTOR('',#1148,1.);
#1148 = DIRECTION('',(0.,1.,0.));
#1149 = ORIENTED_EDGE('',*,*,#1150,.T.);
#1150 = EDGE_CURVE('',#1143,#1151,#1153,.T.);
#1151 = VERTEX_POINT('',#1152);
#1152 = CARTESIAN_POINT('',(-22.4,13.4,37.4));
#1153 = LINE('',#1154,#1155);
#1154 = CARTESIAN_POINT('',(-22.4,13.4,0.));
#1155 = VECTOR('',#1156,1.);
#1156 = DIRECTION('',(0.,0.,1.));
#1157 = ORIENTED_EDGE('',*,*,#1158,.T.);
#1158 = EDGE_CURVE('',#1151,#1159,#1161,.T.);
#1159 = VERTEX_POINT('',#1160);
#1160 = CARTESIAN_POINT('',(-22.4,15.,37.4));
#1161 = LINE('',#1162,#1163);
#1162 = CARTESIAN_POINT('',(-22.4,13.4,37.4));
#1163 = VECTOR('',#1164,1.);
#1164 = DIRECTION('',(0.,1.,0.));
#1165 = ORIENTED_EDGE('',*,*,#1166,.T.);
#1166 = EDGE_CURVE('',#1159,#1167,#1169,.T.);
#1167 = VERTEX_POINT('',#1168);
#1168 = CARTESIAN_POINT('',(-22.4,16.6,37.4));
#1169 = LINE('',#1170,#1171);
#1170 = CARTESIAN_POINT('',(-22.4,13.4,37.4));
#1171 = VECTOR('',#1172,1.);
#1172 = DIRECTION('',(0.,1.,0.));
#1173 = ORIENTED_EDGE('',*,*,#1174,.F.);
#1174 = EDGE_CURVE('',#1113,#1167,#1175,.T.);
#1175 = LINE('',#1176,#1177);
#1176 = CARTESIAN_POINT('',(-22.4,16.6,0.));
#1177 = VECTOR('',#1178,1.);
#1178 = DIRECTION('',(0.,0.,1.));
#1179 = ORIENTED_EDGE('',*,*,#1120,.T.);
#1180 = ORIENTED_EDGE('',*,*,#734,.F.);
#1181 = PLANE('',#1182);
#1182 = AXIS2_PLACEMENT_3D('',#1183,#1184,#1185);
#1183 = CARTESIAN_POINT('',(-22.4,15.,37.163043231056));
#1184 = DIRECTION('',(-1.,-0.,-0.));
#1185 = DIRECTION('',(0.,0.,-1.));
#1186 = ADVANCED_FACE('',(#1187),#1191,.T.);
#1187 = FACE_BOUND('',#1188,.T.);
#1188 = EDGE_LOOP('',(#1189,#1190));
#1189 = ORIENTED_EDGE('',*,*,#1135,.T.);
#1190 = ORIENTED_EDGE('',*,*,#725,.T.);
#1191 = PLANE('',#1192);
#1192 = AXIS2_PLACEMENT_3D('',#1193,#1194,#1195);
#1193 = CARTESIAN_POINT('',(-24.,15.,37.));
#1194 = DIRECTION('',(0.,0.,-1.));
#1195 = DIRECTION('',(-1.,0.,0.));
#1196 = ADVANCED_FACE('',(#1197),#1208,.F.);
#1197 = FACE_BOUND('',#1198,.F.);
#1198 = EDGE_LOOP('',(#1199,#1200,#1201,#1207));
#1199 = ORIENTED_EDGE('',*,*,#708,.F.);
#1200 = ORIENTED_EDGE('',*,*,#1142,.T.);
#1201 = ORIENTED_EDGE('',*,*,#1202,.T.);
#1202 = EDGE_CURVE('',#1143,#1087,#1203,.T.);
#1203 = LINE('',#1204,#1205);
#1204 = CARTESIAN_POINT('',(-24.8,13.4,37.2));
#1205 = VECTOR('',#1206,1.);
#1206 = DIRECTION('',(-1.,0.,0.));
#1207 = ORIENTED_EDGE('',*,*,#1094,.F.);
#1208 = PLANE('',#1209);
#1209 = AXIS2_PLACEMENT_3D('',#1210,#1211,#1212);
#1210 = CARTESIAN_POINT('',(-24.,5.,37.2));
#1211 = DIRECTION('',(0.,0.,1.));
#1212 = DIRECTION('',(1.,0.,0.));
#1213 = ADVANCED_FACE('',(#1214),#1226,.T.);
#1214 = FACE_BOUND('',#1215,.T.);
#1215 = EDGE_LOOP('',(#1216,#1223,#1224,#1225));
#1216 = ORIENTED_EDGE('',*,*,#1217,.F.);
#1217 = EDGE_CURVE('',#802,#898,#1218,.T.);
#1218 = CIRCLE('',#1219,7.);
#1219 = AXIS2_PLACEMENT_3D('',#1220,#1221,#1222);
#1220 = CARTESIAN_POINT('',(2.99241188948E-05,0.,13.));
#1221 = DIRECTION('',(0.,0.,1.));
#1222 = DIRECTION('',(-2.99241188921E-06,-0.999999999996,0.));
#1223 = ORIENTED_EDGE('',*,*,#809,.F.);
#1224 = ORIENTED_EDGE('',*,*,#775,.T.);
#1225 = ORIENTED_EDGE('',*,*,#897,.T.);
#1226 = TOROIDAL_SURFACE('',#1227,7.,3.);
#1227 = AXIS2_PLACEMENT_3D('',#1228,#1229,#1230);
#1228 = CARTESIAN_POINT('',(2.99241188948E-05,0.,10.));
#1229 = DIRECTION('',(0.,0.,1.));
#1230 = DIRECTION('',(-2.99241188921E-06,-0.999999999996,0.));
#1231 = ADVANCED_FACE('',(#1232,#1238),#1288,.T.);
#1232 = FACE_BOUND('',#1233,.T.);
#1233 = EDGE_LOOP('',(#1234,#1235,#1236,#1237));
#1234 = ORIENTED_EDGE('',*,*,#825,.F.);
#1235 = ORIENTED_EDGE('',*,*,#801,.T.);
#1236 = ORIENTED_EDGE('',*,*,#1217,.T.);
#1237 = ORIENTED_EDGE('',*,*,#928,.T.);
#1238 = FACE_BOUND('',#1239,.T.);
#1239 = EDGE_LOOP('',(#1240,#1250,#1258,#1266,#1274,#1282));
#1240 = ORIENTED_EDGE('',*,*,#1241,.F.);
#1241 = EDGE_CURVE('',#1242,#1244,#1246,.T.);
#1242 = VERTEX_POINT('',#1243);
#1243 = CARTESIAN_POINT('',(4.000029924119,2.309401076759,13.));
#1244 = VERTEX_POINT('',#1245);
#1245 = CARTESIAN_POINT('',(2.9924118896E-05,4.618802153517,13.));
#1246 = LINE('',#1247,#1248);
#1247 = CARTESIAN_POINT('',(4.000029924119,2.309401076759,13.));
#1248 = VECTOR('',#1249,1.);
#1249 = DIRECTION('',(-0.866025403784,0.5,0.));
#1250 = ORIENTED_EDGE('',*,*,#1251,.F.);
#1251 = EDGE_CURVE('',#1252,#1242,#1254,.T.);
#1252 = VERTEX_POINT('',#1253);
#1253 = CARTESIAN_POINT('',(4.000029924119,-2.309401076759,13.));
#1254 = LINE('',#1255,#1256);
#1255 = CARTESIAN_POINT('',(4.000029924119,-2.309401076759,13.));
#1256 = VECTOR('',#1257,1.);
#1257 = DIRECTION('',(1.9E-16,1.,0.));
#1258 = ORIENTED_EDGE('',*,*,#1259,.F.);
#1259 = EDGE_CURVE('',#1260,#1252,#1262,.T.);
#1260 = VERTEX_POINT('',#1261);
#1261 = CARTESIAN_POINT('',(2.9924118896E-05,-4.618802153517,13.));
#1262 = LINE('',#1263,#1264);
#1263 = CARTESIAN_POINT('',(2.992411889613E-05,-4.618802153517,13.));
#1264 = VECTOR('',#1265,1.);
#1265 = DIRECTION('',(0.866025403784,0.5,0.));
#1266 = ORIENTED_EDGE('',*,*,#1267,.F.);
#1267 = EDGE_CURVE('',#1268,#1260,#1270,.T.);
#1268 = VERTEX_POINT('',#1269);
#1269 = CARTESIAN_POINT('',(-3.999970075881,-2.309401076759,13.));
#1270 = LINE('',#1271,#1272);
#1271 = CARTESIAN_POINT('',(-3.999970075881,-2.309401076759,13.));
#1272 = VECTOR('',#1273,1.);
#1273 = DIRECTION('',(0.866025403784,-0.5,0.));
#1274 = ORIENTED_EDGE('',*,*,#1275,.F.);
#1275 = EDGE_CURVE('',#1276,#1268,#1278,.T.);
#1276 = VERTEX_POINT('',#1277);
#1277 = CARTESIAN_POINT('',(-3.999970075881,2.309401076759,13.));
#1278 = LINE('',#1279,#1280);
#1279 = CARTESIAN_POINT('',(-3.999970075881,2.309401076759,13.));
#1280 = VECTOR('',#1281,1.);
#1281 = DIRECTION('',(0.,-1.,0.));
#1282 = ORIENTED_EDGE('',*,*,#1283,.F.);
#1283 = EDGE_CURVE('',#1244,#1276,#1284,.T.);
#1284 = LINE('',#1285,#1286);
#1285 = CARTESIAN_POINT('',(2.992411889599E-05,4.618802153517,13.));
#1286 = VECTOR('',#1287,1.);
#1287 = DIRECTION('',(-0.866025403784,-0.5,0.));
#1288 = PLANE('',#1289);
#1289 = AXIS2_PLACEMENT_3D('',#1290,#1291,#1292);
#1290 = CARTESIAN_POINT('',(-12.74388063573,2.94536292725,13.));
#1291 = DIRECTION('',(0.,0.,1.));
#1292 = DIRECTION('',(1.,0.,0.));
#1293 = ADVANCED_FACE('',(#1294),#1340,.F.);
#1294 = FACE_BOUND('',#1295,.T.);
#1295 = EDGE_LOOP('',(#1296,#1307,#1313,#1314,#1315,#1324,#1333));
#1296 = ORIENTED_EDGE('',*,*,#1297,.F.);
#1297 = EDGE_CURVE('',#1298,#1300,#1302,.T.);
#1298 = VERTEX_POINT('',#1299);
#1299 = CARTESIAN_POINT('',(-25.6,-5.,37.4));
#1300 = VERTEX_POINT('',#1301);
#1301 = CARTESIAN_POINT('',(-24.,-6.6,37.4));
#1302 = CIRCLE('',#1303,1.6);
#1303 = AXIS2_PLACEMENT_3D('',#1304,#1305,#1306);
#1304 = CARTESIAN_POINT('',(-24.,-5.,37.4));
#1305 = DIRECTION('',(0.,0.,1.));
#1306 = DIRECTION('',(-1.,0.,0.));
#1307 = ORIENTED_EDGE('',*,*,#1308,.T.);
#1308 = EDGE_CURVE('',#1298,#868,#1309,.T.);
#1309 = LINE('',#1310,#1311);
#1310 = CARTESIAN_POINT('',(-25.6,-5.,37.));
#1311 = VECTOR('',#1312,1.);
#1312 = DIRECTION('',(6.E-17,0.,1.));
#1313 = ORIENTED_EDGE('',*,*,#867,.T.);
#1314 = ORIENTED_EDGE('',*,*,#1308,.F.);
#1315 = ORIENTED_EDGE('',*,*,#1316,.F.);
#1316 = EDGE_CURVE('',#1317,#1298,#1319,.T.);
#1317 = VERTEX_POINT('',#1318);
#1318 = CARTESIAN_POINT('',(-24.,-3.4,37.4));
#1319 = CIRCLE('',#1320,1.6);
#1320 = AXIS2_PLACEMENT_3D('',#1321,#1322,#1323);
#1321 = CARTESIAN_POINT('',(-24.,-5.,37.4));
#1322 = DIRECTION('',(0.,0.,1.));
#1323 = DIRECTION('',(-1.,0.,0.));
#1324 = ORIENTED_EDGE('',*,*,#1325,.F.);
#1325 = EDGE_CURVE('',#1326,#1317,#1328,.T.);
#1326 = VERTEX_POINT('',#1327);
#1327 = CARTESIAN_POINT('',(-22.4,-5.,37.4));
#1328 = CIRCLE('',#1329,1.6);
#1329 = AXIS2_PLACEMENT_3D('',#1330,#1331,#1332);
#1330 = CARTESIAN_POINT('',(-24.,-5.,37.4));
#1331 = DIRECTION('',(0.,0.,1.));
#1332 = DIRECTION('',(-1.,0.,0.));
#1333 = ORIENTED_EDGE('',*,*,#1334,.F.);
#1334 = EDGE_CURVE('',#1300,#1326,#1335,.T.);
#1335 = CIRCLE('',#1336,1.6);
#1336 = AXIS2_PLACEMENT_3D('',#1337,#1338,#1339);
#1337 = CARTESIAN_POINT('',(-24.,-5.,37.4));
#1338 = DIRECTION('',(0.,0.,1.));
#1339 = DIRECTION('',(-1.,0.,0.));
#1340 = CYLINDRICAL_SURFACE('',#1341,1.6);
#1341 = AXIS2_PLACEMENT_3D('',#1342,#1343,#1344);
#1342 = CARTESIAN_POINT('',(-24.,-5.,37.));
#1343 = DIRECTION('',(0.,0.,1.));
#1344 = DIRECTION('',(-1.,0.,0.));
#1345 = ADVANCED_FACE('',(#1346),#1388,.F.);
#1346 = FACE_BOUND('',#1347,.T.);
#1347 = EDGE_LOOP('',(#1348,#1357,#1363,#1364,#1365,#1374,#1381));
#1348 = ORIENTED_EDGE('',*,*,#1349,.F.);
#1349 = EDGE_CURVE('',#1071,#1350,#1352,.T.);
#1350 = VERTEX_POINT('',#1351);
#1351 = CARTESIAN_POINT('',(-24.,13.4,37.4));
#1352 = CIRCLE('',#1353,1.6);
#1353 = AXIS2_PLACEMENT_3D('',#1354,#1355,#1356);
#1354 = CARTESIAN_POINT('',(-24.,15.,37.4));
#1355 = DIRECTION('',(0.,0.,1.));
#1356 = DIRECTION('',(-1.,0.,0.));
#1357 = ORIENTED_EDGE('',*,*,#1358,.T.);
#1358 = EDGE_CURVE('',#1071,#879,#1359,.T.);
#1359 = LINE('',#1360,#1361);
#1360 = CARTESIAN_POINT('',(-25.6,15.,37.));
#1361 = VECTOR('',#1362,1.);
#1362 = DIRECTION('',(6.E-17,0.,1.));
#1363 = ORIENTED_EDGE('',*,*,#878,.T.);
#1364 = ORIENTED_EDGE('',*,*,#1358,.F.);
#1365 = ORIENTED_EDGE('',*,*,#1366,.F.);
#1366 = EDGE_CURVE('',#1367,#1071,#1369,.T.);
#1367 = VERTEX_POINT('',#1368);
#1368 = CARTESIAN_POINT('',(-24.,16.6,37.4));
#1369 = CIRCLE('',#1370,1.6);
#1370 = AXIS2_PLACEMENT_3D('',#1371,#1372,#1373);
#1371 = CARTESIAN_POINT('',(-24.,15.,37.4));
#1372 = DIRECTION('',(0.,0.,1.));
#1373 = DIRECTION('',(-1.,0.,0.));
#1374 = ORIENTED_EDGE('',*,*,#1375,.F.);
#1375 = EDGE_CURVE('',#1159,#1367,#1376,.T.);
#1376 = CIRCLE('',#1377,1.6);
#1377 = AXIS2_PLACEMENT_3D('',#1378,#1379,#1380);
#1378 = CARTESIAN_POINT('',(-24.,15.,37.4));
#1379 = DIRECTION('',(0.,0.,1.));
#1380 = DIRECTION('',(-1.,0.,0.));
#1381 = ORIENTED_EDGE('',*,*,#1382,.F.);
#1382 = EDGE_CURVE('',#1350,#1159,#1383,.T.);
#1383 = CIRCLE('',#1384,1.6);
#1384 = AXIS2_PLACEMENT_3D('',#1385,#1386,#1387);
#1385 = CARTESIAN_POINT('',(-24.,15.,37.4));
#1386 = DIRECTION('',(0.,0.,1.));
#1387 = DIRECTION('',(-1.,0.,0.));
#1388 = CYLINDRICAL_SURFACE('',#1389,1.6);
#1389 = AXIS2_PLACEMENT_3D('',#1390,#1391,#1392);
#1390 = CARTESIAN_POINT('',(-24.,15.,37.));
#1391 = DIRECTION('',(0.,0.,1.));
#1392 = DIRECTION('',(-1.,0.,0.));
#1393 = ADVANCED_FACE('',(#1394),#1404,.T.);
#1394 = FACE_BOUND('',#1395,.T.);
#1395 = EDGE_LOOP('',(#1396,#1397,#1398));
#1396 = ORIENTED_EDGE('',*,*,#955,.T.);
#1397 = ORIENTED_EDGE('',*,*,#1023,.T.);
#1398 = ORIENTED_EDGE('',*,*,#1399,.F.);
#1399 = EDGE_CURVE('',#956,#1016,#1400,.T.);
#1400 = LINE('',#1401,#1402);
#1401 = CARTESIAN_POINT('',(-25.6,-6.327591804735,37.));
#1402 = VECTOR('',#1403,1.);
#1403 = DIRECTION('',(0.,1.,0.));
#1404 = PLANE('',#1405);
#1405 = AXIS2_PLACEMENT_3D('',#1406,#1407,#1408);
#1406 = CARTESIAN_POINT('',(-24.,-5.,37.));
#1407 = DIRECTION('',(0.,0.,-1.));
#1408 = DIRECTION('',(-1.,0.,0.));
#1409 = ADVANCED_FACE('',(#1410),#1459,.T.);
#1410 = FACE_BOUND('',#1411,.T.);
#1411 = EDGE_LOOP('',(#1412,#1420,#1428,#1434,#1442,#1450,#1456,#1457,
    #1458));
#1412 = ORIENTED_EDGE('',*,*,#1413,.F.);
#1413 = EDGE_CURVE('',#1414,#1007,#1416,.T.);
#1414 = VERTEX_POINT('',#1415);
#1415 = CARTESIAN_POINT('',(-25.6,-3.4,37.2));
#1416 = LINE('',#1417,#1418);
#1417 = CARTESIAN_POINT('',(-25.6,-7.65518360947,37.2));
#1418 = VECTOR('',#1419,1.);
#1419 = DIRECTION('',(0.,1.,0.));
#1420 = ORIENTED_EDGE('',*,*,#1421,.T.);
#1421 = EDGE_CURVE('',#1414,#1422,#1424,.T.);
#1422 = VERTEX_POINT('',#1423);
#1423 = CARTESIAN_POINT('',(-25.6,-3.4,37.4));
#1424 = LINE('',#1425,#1426);
#1425 = CARTESIAN_POINT('',(-25.6,-3.4,0.));
#1426 = VECTOR('',#1427,1.);
#1427 = DIRECTION('',(0.,0.,1.));
#1428 = ORIENTED_EDGE('',*,*,#1429,.T.);
#1429 = EDGE_CURVE('',#1422,#1298,#1430,.T.);
#1430 = LINE('',#1431,#1432);
#1431 = CARTESIAN_POINT('',(-25.6,-3.4,37.4));
#1432 = VECTOR('',#1433,1.);
#1433 = DIRECTION('',(0.,-1.,0.));
#1434 = ORIENTED_EDGE('',*,*,#1435,.T.);
#1435 = EDGE_CURVE('',#1298,#1436,#1438,.T.);
#1436 = VERTEX_POINT('',#1437);
#1437 = CARTESIAN_POINT('',(-25.6,-6.6,37.4));
#1438 = LINE('',#1439,#1440);
#1439 = CARTESIAN_POINT('',(-25.6,-3.4,37.4));
#1440 = VECTOR('',#1441,1.);
#1441 = DIRECTION('',(0.,-1.,0.));
#1442 = ORIENTED_EDGE('',*,*,#1443,.F.);
#1443 = EDGE_CURVE('',#1444,#1436,#1446,.T.);
#1444 = VERTEX_POINT('',#1445);
#1445 = CARTESIAN_POINT('',(-25.6,-6.6,37.2));
#1446 = LINE('',#1447,#1448);
#1447 = CARTESIAN_POINT('',(-25.6,-6.6,0.));
#1448 = VECTOR('',#1449,1.);
#1449 = DIRECTION('',(0.,0.,1.));
#1450 = ORIENTED_EDGE('',*,*,#1451,.F.);
#1451 = EDGE_CURVE('',#965,#1444,#1452,.T.);
#1452 = LINE('',#1453,#1454);
#1453 = CARTESIAN_POINT('',(-25.6,-7.65518360947,37.2));
#1454 = VECTOR('',#1455,1.);
#1455 = DIRECTION('',(0.,1.,0.));
#1456 = ORIENTED_EDGE('',*,*,#964,.F.);
#1457 = ORIENTED_EDGE('',*,*,#1399,.T.);
#1458 = ORIENTED_EDGE('',*,*,#1015,.T.);
#1459 = PLANE('',#1460);
#1460 = AXIS2_PLACEMENT_3D('',#1461,#1462,#1463);
#1461 = CARTESIAN_POINT('',(-25.6,-5.,37.163043231056));
#1462 = DIRECTION('',(1.,0.,0.));
#1463 = DIRECTION('',(0.,0.,1.));
#1464 = ADVANCED_FACE('',(#1465),#1483,.F.);
#1465 = FACE_BOUND('',#1466,.F.);
#1466 = EDGE_LOOP('',(#1467,#1468,#1476,#1482));
#1467 = ORIENTED_EDGE('',*,*,#1413,.F.);
#1468 = ORIENTED_EDGE('',*,*,#1469,.T.);
#1469 = EDGE_CURVE('',#1414,#1470,#1472,.T.);
#1470 = VERTEX_POINT('',#1471);
#1471 = CARTESIAN_POINT('',(-22.4,-3.4,37.2));
#1472 = LINE('',#1473,#1474);
#1473 = CARTESIAN_POINT('',(-23.2,-3.4,37.2));
#1474 = VECTOR('',#1475,1.);
#1475 = DIRECTION('',(1.,0.,0.));
#1476 = ORIENTED_EDGE('',*,*,#1477,.T.);
#1477 = EDGE_CURVE('',#1470,#999,#1478,.T.);
#1478 = LINE('',#1479,#1480);
#1479 = CARTESIAN_POINT('',(-22.4,-7.65518360947,37.2));
#1480 = VECTOR('',#1481,1.);
#1481 = DIRECTION('',(0.,1.,0.));
#1482 = ORIENTED_EDGE('',*,*,#1006,.F.);
#1483 = PLANE('',#1484);
#1484 = AXIS2_PLACEMENT_3D('',#1485,#1486,#1487);
#1485 = CARTESIAN_POINT('',(-24.,5.,37.2));
#1486 = DIRECTION('',(0.,0.,1.));
#1487 = DIRECTION('',(1.,0.,0.));
#1488 = ADVANCED_FACE('',(#1489),#1536,.T.);
#1489 = FACE_BOUND('',#1490,.T.);
#1490 = EDGE_LOOP('',(#1491,#1497,#1498,#1506,#1514,#1520,#1528,#1534,
    #1535));
#1491 = ORIENTED_EDGE('',*,*,#1492,.F.);
#1492 = EDGE_CURVE('',#982,#990,#1493,.T.);
#1493 = LINE('',#1494,#1495);
#1494 = CARTESIAN_POINT('',(-22.4,-6.327591804735,37.));
#1495 = VECTOR('',#1496,1.);
#1496 = DIRECTION('',(0.,1.,0.));
#1497 = ORIENTED_EDGE('',*,*,#981,.T.);
#1498 = ORIENTED_EDGE('',*,*,#1499,.T.);
#1499 = EDGE_CURVE('',#973,#1500,#1502,.T.);
#1500 = VERTEX_POINT('',#1501);
#1501 = CARTESIAN_POINT('',(-22.4,-6.6,37.2));
#1502 = LINE('',#1503,#1504);
#1503 = CARTESIAN_POINT('',(-22.4,-7.65518360947,37.2));
#1504 = VECTOR('',#1505,1.);
#1505 = DIRECTION('',(0.,1.,0.));
#1506 = ORIENTED_EDGE('',*,*,#1507,.T.);
#1507 = EDGE_CURVE('',#1500,#1508,#1510,.T.);
#1508 = VERTEX_POINT('',#1509);
#1509 = CARTESIAN_POINT('',(-22.4,-6.6,37.4));
#1510 = LINE('',#1511,#1512);
#1511 = CARTESIAN_POINT('',(-22.4,-6.6,0.));
#1512 = VECTOR('',#1513,1.);
#1513 = DIRECTION('',(0.,0.,1.));
#1514 = ORIENTED_EDGE('',*,*,#1515,.T.);
#1515 = EDGE_CURVE('',#1508,#1326,#1516,.T.);
#1516 = LINE('',#1517,#1518);
#1517 = CARTESIAN_POINT('',(-22.4,-6.6,37.4));
#1518 = VECTOR('',#1519,1.);
#1519 = DIRECTION('',(0.,1.,0.));
#1520 = ORIENTED_EDGE('',*,*,#1521,.T.);
#1521 = EDGE_CURVE('',#1326,#1522,#1524,.T.);
#1522 = VERTEX_POINT('',#1523);
#1523 = CARTESIAN_POINT('',(-22.4,-3.4,37.4));
#1524 = LINE('',#1525,#1526);
#1525 = CARTESIAN_POINT('',(-22.4,-6.6,37.4));
#1526 = VECTOR('',#1527,1.);
#1527 = DIRECTION('',(0.,1.,0.));
#1528 = ORIENTED_EDGE('',*,*,#1529,.F.);
#1529 = EDGE_CURVE('',#1470,#1522,#1530,.T.);
#1530 = LINE('',#1531,#1532);
#1531 = CARTESIAN_POINT('',(-22.4,-3.4,0.));
#1532 = VECTOR('',#1533,1.);
#1533 = DIRECTION('',(0.,0.,1.));
#1534 = ORIENTED_EDGE('',*,*,#1477,.T.);
#1535 = ORIENTED_EDGE('',*,*,#998,.F.);
#1536 = PLANE('',#1537);
#1537 = AXIS2_PLACEMENT_3D('',#1538,#1539,#1540);
#1538 = CARTESIAN_POINT('',(-22.4,-5.,37.163043231056));
#1539 = DIRECTION('',(-1.,-0.,-0.));
#1540 = DIRECTION('',(0.,0.,-1.));
#1541 = ADVANCED_FACE('',(#1542),#1546,.T.);
#1542 = FACE_BOUND('',#1543,.T.);
#1543 = EDGE_LOOP('',(#1544,#1545));
#1544 = ORIENTED_EDGE('',*,*,#1492,.T.);
#1545 = ORIENTED_EDGE('',*,*,#989,.T.);
#1546 = PLANE('',#1547);
#1547 = AXIS2_PLACEMENT_3D('',#1548,#1549,#1550);
#1548 = CARTESIAN_POINT('',(-24.,-5.,37.));
#1549 = DIRECTION('',(0.,0.,-1.));
#1550 = DIRECTION('',(-1.,0.,0.));
#1551 = ADVANCED_FACE('',(#1552),#1563,.F.);
#1552 = FACE_BOUND('',#1553,.F.);
#1553 = EDGE_LOOP('',(#1554,#1555,#1556,#1562));
#1554 = ORIENTED_EDGE('',*,*,#972,.F.);
#1555 = ORIENTED_EDGE('',*,*,#1499,.T.);
#1556 = ORIENTED_EDGE('',*,*,#1557,.T.);
#1557 = EDGE_CURVE('',#1500,#1444,#1558,.T.);
#1558 = LINE('',#1559,#1560);
#1559 = CARTESIAN_POINT('',(-24.8,-6.6,37.2));
#1560 = VECTOR('',#1561,1.);
#1561 = DIRECTION('',(-1.,0.,0.));
#1562 = ORIENTED_EDGE('',*,*,#1451,.F.);
#1563 = PLANE('',#1564);
#1564 = AXIS2_PLACEMENT_3D('',#1565,#1566,#1567);
#1565 = CARTESIAN_POINT('',(-24.,5.,37.2));
#1566 = DIRECTION('',(0.,0.,1.));
#1567 = DIRECTION('',(1.,0.,0.));
#1568 = ADVANCED_FACE('',(#1569),#1586,.T.);
#1569 = FACE_BOUND('',#1570,.T.);
#1570 = EDGE_LOOP('',(#1571,#1572,#1573,#1579,#1585));
#1571 = ORIENTED_EDGE('',*,*,#1112,.T.);
#1572 = ORIENTED_EDGE('',*,*,#1174,.T.);
#1573 = ORIENTED_EDGE('',*,*,#1574,.T.);
#1574 = EDGE_CURVE('',#1167,#1367,#1575,.T.);
#1575 = LINE('',#1576,#1577);
#1576 = CARTESIAN_POINT('',(-22.4,16.6,37.4));
#1577 = VECTOR('',#1578,1.);
#1578 = DIRECTION('',(-1.,0.,0.));
#1579 = ORIENTED_EDGE('',*,*,#1580,.T.);
#1580 = EDGE_CURVE('',#1367,#1063,#1581,.T.);
#1581 = LINE('',#1582,#1583);
#1582 = CARTESIAN_POINT('',(-22.4,16.6,37.4));
#1583 = VECTOR('',#1584,1.);
#1584 = DIRECTION('',(-1.,0.,0.));
#1585 = ORIENTED_EDGE('',*,*,#1062,.F.);
#1586 = PLANE('',#1587);
#1587 = AXIS2_PLACEMENT_3D('',#1588,#1589,#1590);
#1588 = CARTESIAN_POINT('',(-24.,16.6,37.3));
#1589 = DIRECTION('',(-0.,-1.,-0.));
#1590 = DIRECTION('',(0.,0.,-1.));
#1591 = ADVANCED_FACE('',(#1592),#1597,.F.);
#1592 = FACE_BOUND('',#1593,.F.);
#1593 = EDGE_LOOP('',(#1594,#1595,#1596));
#1594 = ORIENTED_EDGE('',*,*,#1070,.T.);
#1595 = ORIENTED_EDGE('',*,*,#1366,.F.);
#1596 = ORIENTED_EDGE('',*,*,#1580,.T.);
#1597 = PLANE('',#1598);
#1598 = AXIS2_PLACEMENT_3D('',#1599,#1600,#1601);
#1599 = CARTESIAN_POINT('',(-24.,5.,37.4));
#1600 = DIRECTION('',(0.,0.,1.));
#1601 = DIRECTION('',(1.,0.,0.));
#1602 = ADVANCED_FACE('',(#1603),#1613,.F.);
#1603 = FACE_BOUND('',#1604,.F.);
#1604 = EDGE_LOOP('',(#1605,#1606,#1612));
#1605 = ORIENTED_EDGE('',*,*,#1078,.T.);
#1606 = ORIENTED_EDGE('',*,*,#1607,.T.);
#1607 = EDGE_CURVE('',#1079,#1350,#1608,.T.);
#1608 = LINE('',#1609,#1610);
#1609 = CARTESIAN_POINT('',(-25.6,13.4,37.4));
#1610 = VECTOR('',#1611,1.);
#1611 = DIRECTION('',(1.,0.,0.));
#1612 = ORIENTED_EDGE('',*,*,#1349,.F.);
#1613 = PLANE('',#1614);
#1614 = AXIS2_PLACEMENT_3D('',#1615,#1616,#1617);
#1615 = CARTESIAN_POINT('',(-24.,5.,37.4));
#1616 = DIRECTION('',(0.,0.,1.));
#1617 = DIRECTION('',(1.,0.,0.));
#1618 = ADVANCED_FACE('',(#1619),#1631,.T.);
#1619 = FACE_BOUND('',#1620,.T.);
#1620 = EDGE_LOOP('',(#1621,#1622,#1623,#1624,#1630));
#1621 = ORIENTED_EDGE('',*,*,#1202,.T.);
#1622 = ORIENTED_EDGE('',*,*,#1086,.T.);
#1623 = ORIENTED_EDGE('',*,*,#1607,.T.);
#1624 = ORIENTED_EDGE('',*,*,#1625,.T.);
#1625 = EDGE_CURVE('',#1350,#1151,#1626,.T.);
#1626 = LINE('',#1627,#1628);
#1627 = CARTESIAN_POINT('',(-25.6,13.4,37.4));
#1628 = VECTOR('',#1629,1.);
#1629 = DIRECTION('',(1.,0.,0.));
#1630 = ORIENTED_EDGE('',*,*,#1150,.F.);
#1631 = PLANE('',#1632);
#1632 = AXIS2_PLACEMENT_3D('',#1633,#1634,#1635);
#1633 = CARTESIAN_POINT('',(-24.,13.4,37.3));
#1634 = DIRECTION('',(0.,1.,-8.36E-15));
#1635 = DIRECTION('',(0.,8.36E-15,1.));
#1636 = ADVANCED_FACE('',(#1637),#1642,.F.);
#1637 = FACE_BOUND('',#1638,.F.);
#1638 = EDGE_LOOP('',(#1639,#1640,#1641));
#1639 = ORIENTED_EDGE('',*,*,#1382,.F.);
#1640 = ORIENTED_EDGE('',*,*,#1625,.T.);
#1641 = ORIENTED_EDGE('',*,*,#1158,.T.);
#1642 = PLANE('',#1643);
#1643 = AXIS2_PLACEMENT_3D('',#1644,#1645,#1646);
#1644 = CARTESIAN_POINT('',(-24.,5.,37.4));
#1645 = DIRECTION('',(0.,0.,1.));
#1646 = DIRECTION('',(1.,0.,0.));
#1647 = ADVANCED_FACE('',(#1648),#1653,.F.);
#1648 = FACE_BOUND('',#1649,.F.);
#1649 = EDGE_LOOP('',(#1650,#1651,#1652));
#1650 = ORIENTED_EDGE('',*,*,#1375,.F.);
#1651 = ORIENTED_EDGE('',*,*,#1166,.T.);
#1652 = ORIENTED_EDGE('',*,*,#1574,.T.);
#1653 = PLANE('',#1654);
#1654 = AXIS2_PLACEMENT_3D('',#1655,#1656,#1657);
#1655 = CARTESIAN_POINT('',(-24.,5.,37.4));
#1656 = DIRECTION('',(0.,0.,1.));
#1657 = DIRECTION('',(1.,0.,0.));
#1658 = ADVANCED_FACE('',(#1659),#1684,.T.);
#1659 = FACE_BOUND('',#1660,.T.);
#1660 = EDGE_LOOP('',(#1661,#1669,#1670,#1678));
#1661 = ORIENTED_EDGE('',*,*,#1662,.T.);
#1662 = EDGE_CURVE('',#1663,#1242,#1665,.T.);
#1663 = VERTEX_POINT('',#1664);
#1664 = CARTESIAN_POINT('',(4.000029924119,2.309401076759,3.));
#1665 = LINE('',#1666,#1667);
#1666 = CARTESIAN_POINT('',(4.000029924119,2.309401076759,3.));
#1667 = VECTOR('',#1668,1.);
#1668 = DIRECTION('',(0.,0.,1.));
#1669 = ORIENTED_EDGE('',*,*,#1241,.T.);
#1670 = ORIENTED_EDGE('',*,*,#1671,.F.);
#1671 = EDGE_CURVE('',#1672,#1244,#1674,.T.);
#1672 = VERTEX_POINT('',#1673);
#1673 = CARTESIAN_POINT('',(2.9924118896E-05,4.618802153517,3.));
#1674 = LINE('',#1675,#1676);
#1675 = CARTESIAN_POINT('',(2.992411889606E-05,4.618802153517,3.));
#1676 = VECTOR('',#1677,1.);
#1677 = DIRECTION('',(0.,0.,1.));
#1678 = ORIENTED_EDGE('',*,*,#1679,.F.);
#1679 = EDGE_CURVE('',#1663,#1672,#1680,.T.);
#1680 = LINE('',#1681,#1682);
#1681 = CARTESIAN_POINT('',(4.000029924119,2.309401076759,3.));
#1682 = VECTOR('',#1683,1.);
#1683 = DIRECTION('',(-0.866025403784,0.5,0.));
#1684 = PLANE('',#1685);
#1685 = AXIS2_PLACEMENT_3D('',#1686,#1687,#1688);
#1686 = CARTESIAN_POINT('',(4.000029924119,2.309401076759,3.));
#1687 = DIRECTION('',(-0.5,-0.866025403784,0.));
#1688 = DIRECTION('',(-0.866025403784,0.5,0.));
#1689 = ADVANCED_FACE('',(#1690),#1708,.T.);
#1690 = FACE_BOUND('',#1691,.T.);
#1691 = EDGE_LOOP('',(#1692,#1700,#1701,#1702));
#1692 = ORIENTED_EDGE('',*,*,#1693,.T.);
#1693 = EDGE_CURVE('',#1694,#1252,#1696,.T.);
#1694 = VERTEX_POINT('',#1695);
#1695 = CARTESIAN_POINT('',(4.000029924119,-2.309401076759,3.));
#1696 = LINE('',#1697,#1698);
#1697 = CARTESIAN_POINT('',(4.000029924119,-2.309401076759,3.));
#1698 = VECTOR('',#1699,1.);
#1699 = DIRECTION('',(0.,0.,1.));
#1700 = ORIENTED_EDGE('',*,*,#1251,.T.);
#1701 = ORIENTED_EDGE('',*,*,#1662,.F.);
#1702 = ORIENTED_EDGE('',*,*,#1703,.F.);
#1703 = EDGE_CURVE('',#1694,#1663,#1704,.T.);
#1704 = LINE('',#1705,#1706);
#1705 = CARTESIAN_POINT('',(4.000029924119,-2.309401076759,3.));
#1706 = VECTOR('',#1707,1.);
#1707 = DIRECTION('',(1.9E-16,1.,0.));
#1708 = PLANE('',#1709);
#1709 = AXIS2_PLACEMENT_3D('',#1710,#1711,#1712);
#1710 = CARTESIAN_POINT('',(4.000029924119,-2.309401076759,3.));
#1711 = DIRECTION('',(-1.,1.9E-16,0.));
#1712 = DIRECTION('',(1.9E-16,1.,0.));
#1713 = ADVANCED_FACE('',(#1714),#1732,.T.);
#1714 = FACE_BOUND('',#1715,.T.);
#1715 = EDGE_LOOP('',(#1716,#1717,#1718,#1726));
#1716 = ORIENTED_EDGE('',*,*,#1671,.T.);
#1717 = ORIENTED_EDGE('',*,*,#1283,.T.);
#1718 = ORIENTED_EDGE('',*,*,#1719,.F.);
#1719 = EDGE_CURVE('',#1720,#1276,#1722,.T.);
#1720 = VERTEX_POINT('',#1721);
#1721 = CARTESIAN_POINT('',(-3.999970075881,2.309401076759,3.));
#1722 = LINE('',#1723,#1724);
#1723 = CARTESIAN_POINT('',(-3.999970075881,2.309401076759,3.));
#1724 = VECTOR('',#1725,1.);
#1725 = DIRECTION('',(0.,0.,1.));
#1726 = ORIENTED_EDGE('',*,*,#1727,.F.);
#1727 = EDGE_CURVE('',#1672,#1720,#1728,.T.);
#1728 = LINE('',#1729,#1730);
#1729 = CARTESIAN_POINT('',(2.992411889599E-05,4.618802153517,3.));
#1730 = VECTOR('',#1731,1.);
#1731 = DIRECTION('',(-0.866025403784,-0.5,0.));
#1732 = PLANE('',#1733);
#1733 = AXIS2_PLACEMENT_3D('',#1734,#1735,#1736);
#1734 = CARTESIAN_POINT('',(2.992411889599E-05,4.618802153517,3.));
#1735 = DIRECTION('',(0.5,-0.866025403784,0.));
#1736 = DIRECTION('',(-0.866025403784,-0.5,0.));
#1737 = ADVANCED_FACE('',(#1738),#1756,.T.);
#1738 = FACE_BOUND('',#1739,.T.);
#1739 = EDGE_LOOP('',(#1740,#1748,#1749,#1750));
#1740 = ORIENTED_EDGE('',*,*,#1741,.T.);
#1741 = EDGE_CURVE('',#1742,#1260,#1744,.T.);
#1742 = VERTEX_POINT('',#1743);
#1743 = CARTESIAN_POINT('',(2.9924118896E-05,-4.618802153517,3.));
#1744 = LINE('',#1745,#1746);
#1745 = CARTESIAN_POINT('',(2.992411889613E-05,-4.618802153517,3.));
#1746 = VECTOR('',#1747,1.);
#1747 = DIRECTION('',(0.,0.,1.));
#1748 = ORIENTED_EDGE('',*,*,#1259,.T.);
#1749 = ORIENTED_EDGE('',*,*,#1693,.F.);
#1750 = ORIENTED_EDGE('',*,*,#1751,.F.);
#1751 = EDGE_CURVE('',#1742,#1694,#1752,.T.);
#1752 = LINE('',#1753,#1754);
#1753 = CARTESIAN_POINT('',(2.992411889613E-05,-4.618802153517,3.));
#1754 = VECTOR('',#1755,1.);
#1755 = DIRECTION('',(0.866025403784,0.5,0.));
#1756 = PLANE('',#1757);
#1757 = AXIS2_PLACEMENT_3D('',#1758,#1759,#1760);
#1758 = CARTESIAN_POINT('',(2.992411889613E-05,-4.618802153517,3.));
#1759 = DIRECTION('',(-0.5,0.866025403784,0.));
#1760 = DIRECTION('',(0.866025403784,0.5,0.));
#1761 = ADVANCED_FACE('',(#1762),#1780,.T.);
#1762 = FACE_BOUND('',#1763,.T.);
#1763 = EDGE_LOOP('',(#1764,#1765,#1766,#1774));
#1764 = ORIENTED_EDGE('',*,*,#1719,.T.);
#1765 = ORIENTED_EDGE('',*,*,#1275,.T.);
#1766 = ORIENTED_EDGE('',*,*,#1767,.F.);
#1767 = EDGE_CURVE('',#1768,#1268,#1770,.T.);
#1768 = VERTEX_POINT('',#1769);
#1769 = CARTESIAN_POINT('',(-3.999970075881,-2.309401076759,3.));
#1770 = LINE('',#1771,#1772);
#1771 = CARTESIAN_POINT('',(-3.999970075881,-2.309401076759,3.));
#1772 = VECTOR('',#1773,1.);
#1773 = DIRECTION('',(0.,0.,1.));
#1774 = ORIENTED_EDGE('',*,*,#1775,.F.);
#1775 = EDGE_CURVE('',#1720,#1768,#1776,.T.);
#1776 = LINE('',#1777,#1778);
#1777 = CARTESIAN_POINT('',(-3.999970075881,2.309401076759,3.));
#1778 = VECTOR('',#1779,1.);
#1779 = DIRECTION('',(0.,-1.,0.));
#1780 = PLANE('',#1781);
#1781 = AXIS2_PLACEMENT_3D('',#1782,#1783,#1784);
#1782 = CARTESIAN_POINT('',(-3.999970075881,2.309401076759,3.));
#1783 = DIRECTION('',(1.,0.,0.));
#1784 = DIRECTION('',(0.,-1.,0.));
#1785 = ADVANCED_FACE('',(#1786),#1797,.T.);
#1786 = FACE_BOUND('',#1787,.T.);
#1787 = EDGE_LOOP('',(#1788,#1789,#1790,#1791));
#1788 = ORIENTED_EDGE('',*,*,#1767,.T.);
#1789 = ORIENTED_EDGE('',*,*,#1267,.T.);
#1790 = ORIENTED_EDGE('',*,*,#1741,.F.);
#1791 = ORIENTED_EDGE('',*,*,#1792,.F.);
#1792 = EDGE_CURVE('',#1768,#1742,#1793,.T.);
#1793 = LINE('',#1794,#1795);
#1794 = CARTESIAN_POINT('',(-3.999970075881,-2.309401076759,3.));
#1795 = VECTOR('',#1796,1.);
#1796 = DIRECTION('',(0.866025403784,-0.5,0.));
#1797 = PLANE('',#1798);
#1798 = AXIS2_PLACEMENT_3D('',#1799,#1800,#1801);
#1799 = CARTESIAN_POINT('',(-3.999970075881,-2.309401076759,3.));
#1800 = DIRECTION('',(0.5,0.866025403784,0.));
#1801 = DIRECTION('',(0.866025403784,-0.5,0.));
#1802 = ADVANCED_FACE('',(#1803),#1813,.F.);
#1803 = FACE_BOUND('',#1804,.F.);
#1804 = EDGE_LOOP('',(#1805,#1806,#1812));
#1805 = ORIENTED_EDGE('',*,*,#1435,.T.);
#1806 = ORIENTED_EDGE('',*,*,#1807,.T.);
#1807 = EDGE_CURVE('',#1436,#1300,#1808,.T.);
#1808 = LINE('',#1809,#1810);
#1809 = CARTESIAN_POINT('',(-25.6,-6.6,37.4));
#1810 = VECTOR('',#1811,1.);
#1811 = DIRECTION('',(1.,0.,0.));
#1812 = ORIENTED_EDGE('',*,*,#1297,.F.);
#1813 = PLANE('',#1814);
#1814 = AXIS2_PLACEMENT_3D('',#1815,#1816,#1817);
#1815 = CARTESIAN_POINT('',(-24.,5.,37.4));
#1816 = DIRECTION('',(0.,0.,1.));
#1817 = DIRECTION('',(1.,0.,0.));
#1818 = ADVANCED_FACE('',(#1819),#1829,.F.);
#1819 = FACE_BOUND('',#1820,.F.);
#1820 = EDGE_LOOP('',(#1821,#1822,#1828));
#1821 = ORIENTED_EDGE('',*,*,#1334,.F.);
#1822 = ORIENTED_EDGE('',*,*,#1823,.T.);
#1823 = EDGE_CURVE('',#1300,#1508,#1824,.T.);
#1824 = LINE('',#1825,#1826);
#1825 = CARTESIAN_POINT('',(-25.6,-6.6,37.4));
#1826 = VECTOR('',#1827,1.);
#1827 = DIRECTION('',(1.,0.,0.));
#1828 = ORIENTED_EDGE('',*,*,#1515,.T.);
#1829 = PLANE('',#1830);
#1830 = AXIS2_PLACEMENT_3D('',#1831,#1832,#1833);
#1831 = CARTESIAN_POINT('',(-24.,5.,37.4));
#1832 = DIRECTION('',(0.,0.,1.));
#1833 = DIRECTION('',(1.,0.,0.));
#1834 = ADVANCED_FACE('',(#1835),#1845,.F.);
#1835 = FACE_BOUND('',#1836,.F.);
#1836 = EDGE_LOOP('',(#1837,#1838,#1839));
#1837 = ORIENTED_EDGE('',*,*,#1325,.F.);
#1838 = ORIENTED_EDGE('',*,*,#1521,.T.);
#1839 = ORIENTED_EDGE('',*,*,#1840,.T.);
#1840 = EDGE_CURVE('',#1522,#1317,#1841,.T.);
#1841 = LINE('',#1842,#1843);
#1842 = CARTESIAN_POINT('',(-22.4,-3.4,37.4));
#1843 = VECTOR('',#1844,1.);
#1844 = DIRECTION('',(-1.,0.,0.));
#1845 = PLANE('',#1846);
#1846 = AXIS2_PLACEMENT_3D('',#1847,#1848,#1849);
#1847 = CARTESIAN_POINT('',(-24.,5.,37.4));
#1848 = DIRECTION('',(0.,0.,1.));
#1849 = DIRECTION('',(1.,0.,0.));
#1850 = ADVANCED_FACE('',(#1851),#1861,.F.);
#1851 = FACE_BOUND('',#1852,.F.);
#1852 = EDGE_LOOP('',(#1853,#1854,#1855));
#1853 = ORIENTED_EDGE('',*,*,#1429,.T.);
#1854 = ORIENTED_EDGE('',*,*,#1316,.F.);
#1855 = ORIENTED_EDGE('',*,*,#1856,.T.);
#1856 = EDGE_CURVE('',#1317,#1422,#1857,.T.);
#1857 = LINE('',#1858,#1859);
#1858 = CARTESIAN_POINT('',(-22.4,-3.4,37.4));
#1859 = VECTOR('',#1860,1.);
#1860 = DIRECTION('',(-1.,0.,0.));
#1861 = PLANE('',#1862);
#1862 = AXIS2_PLACEMENT_3D('',#1863,#1864,#1865);
#1863 = CARTESIAN_POINT('',(-24.,5.,37.4));
#1864 = DIRECTION('',(0.,0.,1.));
#1865 = DIRECTION('',(1.,0.,0.));
#1866 = ADVANCED_FACE('',(#1867),#1874,.T.);
#1867 = FACE_BOUND('',#1868,.T.);
#1868 = EDGE_LOOP('',(#1869,#1870,#1871,#1872,#1873));
#1869 = ORIENTED_EDGE('',*,*,#1469,.T.);
#1870 = ORIENTED_EDGE('',*,*,#1529,.T.);
#1871 = ORIENTED_EDGE('',*,*,#1840,.T.);
#1872 = ORIENTED_EDGE('',*,*,#1856,.T.);
#1873 = ORIENTED_EDGE('',*,*,#1421,.F.);
#1874 = PLANE('',#1875);
#1875 = AXIS2_PLACEMENT_3D('',#1876,#1877,#1878);
#1876 = CARTESIAN_POINT('',(-24.,-3.4,37.3));
#1877 = DIRECTION('',(-0.,-1.,-2.09E-15));
#1878 = DIRECTION('',(0.,2.09E-15,-1.));
#1879 = ADVANCED_FACE('',(#1880),#1887,.T.);
#1880 = FACE_BOUND('',#1881,.T.);
#1881 = EDGE_LOOP('',(#1882,#1883,#1884,#1885,#1886));
#1882 = ORIENTED_EDGE('',*,*,#1557,.T.);
#1883 = ORIENTED_EDGE('',*,*,#1443,.T.);
#1884 = ORIENTED_EDGE('',*,*,#1807,.T.);
#1885 = ORIENTED_EDGE('',*,*,#1823,.T.);
#1886 = ORIENTED_EDGE('',*,*,#1507,.F.);
#1887 = PLANE('',#1888);
#1888 = AXIS2_PLACEMENT_3D('',#1889,#1890,#1891);
#1889 = CARTESIAN_POINT('',(-24.,-6.6,37.3));
#1890 = DIRECTION('',(0.,1.,0.));
#1891 = DIRECTION('',(0.,0.,1.));
#1892 = ADVANCED_FACE('',(#1893),#1901,.T.);
#1893 = FACE_BOUND('',#1894,.T.);
#1894 = EDGE_LOOP('',(#1895,#1896,#1897,#1898,#1899,#1900));
#1895 = ORIENTED_EDGE('',*,*,#1703,.T.);
#1896 = ORIENTED_EDGE('',*,*,#1679,.T.);
#1897 = ORIENTED_EDGE('',*,*,#1727,.T.);
#1898 = ORIENTED_EDGE('',*,*,#1775,.T.);
#1899 = ORIENTED_EDGE('',*,*,#1792,.T.);
#1900 = ORIENTED_EDGE('',*,*,#1751,.T.);
#1901 = PLANE('',#1902);
#1902 = AXIS2_PLACEMENT_3D('',#1903,#1904,#1905);
#1903 = CARTESIAN_POINT('',(-15.43563787364,3.567478409538,3.));
#1904 = DIRECTION('',(0.,0.,1.));
#1905 = DIRECTION('',(1.,0.,0.));
#1906 = ( GEOMETRIC_REPRESENTATION_CONTEXT(3) 
GLOBAL_UNCERTAINTY_ASSIGNED_CONTEXT((#1910)) 
GLOBAL_UNIT_ASSIGNED_CONTEXT((#1907,#1908,#1909)) REPRESENTATION_CONTEXT
('Context #1','3D Context with UNIT and UNCERTAINTY') );
#1907 = ( LENGTH_UNIT() NAMED_UNIT(*) SI_UNIT(.MILLI.,.METRE.) );
#1908 = ( NAMED_UNIT(*) PLANE_ANGLE_UNIT() SI_UNIT($,.RADIAN.) );
#1909 = ( NAMED_UNIT(*) SI_UNIT($,.STERADIAN.) SOLID_ANGLE_UNIT() );
#1910 = UNCERTAINTY_MEASURE_WITH_UNIT(LENGTH_MEASURE(2.E-05),#1907,
  'distance_accuracy_value','confusion accuracy');
#1911 = PRODUCT_RELATED_PRODUCT_CATEGORY('part',$,(#7));
#1912 = MECHANICAL_DESIGN_GEOMETRIC_PRESENTATION_REPRESENTATION('',(
    #1913),#1906);
#1913 = STYLED_ITEM('color',(#1914),#15);
#1914 = PRESENTATION_STYLE_ASSIGNMENT((#1915,#1921));
#1915 = SURFACE_STYLE_USAGE(.BOTH.,#1916);
#1916 = SURFACE_SIDE_STYLE('',(#1917));
#1917 = SURFACE_STYLE_FILL_AREA(#1918);
#1918 = FILL_AREA_STYLE('',(#1919));
#1919 = FILL_AREA_STYLE_COLOUR('',#1920);
#1920 = COLOUR_RGB('',0.596078458879,0.,0.584313743644);
#1921 = CURVE_STYLE('',#1922,POSITIVE_LENGTH_MEASURE(0.1),#1923);
#1922 = DRAUGHTING_PRE_DEFINED_CURVE_FONT('continuous');
#1923 = COLOUR_RGB('',9.803921802644E-02,9.803921802644E-02,
  9.803921802644E-02);
ENDSEC;
END-ISO-10303-21;
