ISO-10303-21;
HEADER;
FILE_DESCRIPTION(('FreeCAD Model'),'2;1');
FILE_NAME('Open CASCADE Shape Model','2025-09-10T22:37:46',(''),(''),
  'Open CASCADE STEP processor 7.9','FreeCAD','Unknown');
FILE_SCHEMA(('AUTOMOTIVE_DESIGN { 1 0 10303 214 1 1 1 1 }'));
ENDSEC;
DATA;
#1 = APPLICATION_PROTOCOL_DEFINITION('international standard',
  'automotive_design',2000,#2);
#2 = APPLICATION_CONTEXT(
  'core data for automotive mechanical design processes');
#3 = SHAPE_DEFINITION_REPRESENTATION(#4,#10);
#4 = PRODUCT_DEFINITION_SHAPE('','',#5);
#5 = PRODUCT_DEFINITION('design','',#6,#9);
#6 = PRODUCT_DEFINITION_FORMATION('','',#7);
#7 = PRODUCT('ZRodMountBottom003','ZRodMountBottom003','',(#8));
#8 = PRODUCT_CONTEXT('',#2,'mechanical');
#9 = PRODUCT_DEFINITION_CONTEXT('part definition',#2,'design');
#10 = ADVANCED_BREP_SHAPE_REPRESENTATION('',(#11,#15),#1900);
#11 = AXIS2_PLACEMENT_3D('',#12,#13,#14);
#12 = CARTESIAN_POINT('',(0.,0.,0.));
#13 = DIRECTION('',(0.,0.,1.));
#14 = DIRECTION('',(1.,0.,-0.));
#15 = MANIFOLD_SOLID_BREP('',#16);
#16 = CLOSED_SHELL('',(#17,#182,#214,#238,#263,#304,#322,#385,#410,#435,
    #459,#491,#516,#549,#581,#606,#631,#656,#674,#770,#788,#821,#855,
    #891,#932,#1028,#1044,#1101,#1125,#1180,#1190,#1207,#1225,#1287,
    #1339,#1387,#1403,#1458,#1482,#1535,#1545,#1562,#1585,#1596,#1612,
    #1630,#1641,#1652,#1683,#1707,#1731,#1755,#1779,#1796,#1812,#1828,
    #1844,#1860,#1873,#1886));
#17 = ADVANCED_FACE('',(#18,#69,#130),#177,.F.);
#18 = FACE_BOUND('',#19,.F.);
#19 = EDGE_LOOP('',(#20,#31,#40,#49,#62));
#20 = ORIENTED_EDGE('',*,*,#21,.T.);
#21 = EDGE_CURVE('',#22,#24,#26,.T.);
#22 = VERTEX_POINT('',#23);
#23 = CARTESIAN_POINT('',(142.11612044918,73.511694451235,
    -40.00003388312));
#24 = VERTEX_POINT('',#25);
#25 = CARTESIAN_POINT('',(144.09999141692,70.,-40.00003435611));
#26 = CIRCLE('',#27,4.1);
#27 = AXIS2_PLACEMENT_3D('',#28,#29,#30);
#28 = CARTESIAN_POINT('',(139.99999141692,70.,-40.0000333786));
#29 = DIRECTION('',(-2.384185933124E-07,0.,-1.));
#30 = DIRECTION('',(0.516129032258,0.856510841765,-1.230547578387E-07));
#31 = ORIENTED_EDGE('',*,*,#32,.T.);
#32 = EDGE_CURVE('',#24,#33,#35,.T.);
#33 = VERTEX_POINT('',#34);
#34 = CARTESIAN_POINT('',(142.11612044918,66.488305548765,
    -40.00003388312));
#35 = CIRCLE('',#36,4.1);
#36 = AXIS2_PLACEMENT_3D('',#37,#38,#39);
#37 = CARTESIAN_POINT('',(139.99999141692,70.,-40.0000333786));
#38 = DIRECTION('',(-2.384185933124E-07,0.,-1.));
#39 = DIRECTION('',(1.,-0.,-2.384185933124E-07));
#40 = ORIENTED_EDGE('',*,*,#41,.T.);
#41 = EDGE_CURVE('',#33,#42,#44,.T.);
#42 = VERTEX_POINT('',#43);
#43 = CARTESIAN_POINT('',(137.88386238466,66.488305548765,
    -40.00003287407));
#44 = CIRCLE('',#45,4.1);
#45 = AXIS2_PLACEMENT_3D('',#46,#47,#48);
#46 = CARTESIAN_POINT('',(139.99999141692,70.,-40.0000333786));
#47 = DIRECTION('',(-2.384185933124E-07,0.,-1.));
#48 = DIRECTION('',(0.516129032258,-0.856510841765,-1.230547578387E-07)
  );
#49 = ORIENTED_EDGE('',*,*,#50,.T.);
#50 = EDGE_CURVE('',#42,#51,#53,.T.);
#51 = VERTEX_POINT('',#52);
#52 = CARTESIAN_POINT('',(137.88386238466,73.511694451235,
    -40.00003287407));
#53 = B_SPLINE_CURVE_WITH_KNOTS('',7,(#54,#55,#56,#57,#58,#59,#60,#61),
  .UNSPECIFIED.,.F.,.F.,(8,8),(9.738937226128,16.115457575053),
  .PIECEWISE_BEZIER_KNOTS.);
#54 = CARTESIAN_POINT('',(137.88386238466,66.488305548765,
    -40.00003287407));
#55 = CARTESIAN_POINT('',(136.8519784877,67.110113482971,-40.00003262805
    ));
#56 = CARTESIAN_POINT('',(136.03324592089,68.085731219247,
    -40.00003243285));
#57 = CARTESIAN_POINT('',(135.57296374088,69.327319015535,
    -40.00003232311));
#58 = CARTESIAN_POINT('',(135.57296374088,70.672680984465,
    -40.00003232311));
#59 = CARTESIAN_POINT('',(136.03324592089,71.914268780753,
    -40.00003243285));
#60 = CARTESIAN_POINT('',(136.8519784877,72.889886517029,-40.00003262805
    ));
#61 = CARTESIAN_POINT('',(137.88386238466,73.511694451235,
    -40.00003287407));
#62 = ORIENTED_EDGE('',*,*,#63,.T.);
#63 = EDGE_CURVE('',#51,#22,#64,.T.);
#64 = CIRCLE('',#65,4.1);
#65 = AXIS2_PLACEMENT_3D('',#66,#67,#68);
#66 = CARTESIAN_POINT('',(139.99999141692,70.,-40.0000333786));
#67 = DIRECTION('',(-2.384185933124E-07,0.,-1.));
#68 = DIRECTION('',(-0.516129032258,0.856510841765,1.230547578387E-07));
#69 = FACE_BOUND('',#70,.F.);
#70 = EDGE_LOOP('',(#71,#81,#90,#98,#106,#115,#123));
#71 = ORIENTED_EDGE('',*,*,#72,.F.);
#72 = EDGE_CURVE('',#73,#75,#77,.T.);
#73 = VERTEX_POINT('',#74);
#74 = CARTESIAN_POINT('',(115.99999141692,95.,-40.00002765655));
#75 = VERTEX_POINT('',#76);
#76 = CARTESIAN_POINT('',(146.99999141692,95.,-40.00003504753));
#77 = LINE('',#78,#79);
#78 = CARTESIAN_POINT('',(115.99999141692,95.,-40.00002765655));
#79 = VECTOR('',#80,1.);
#80 = DIRECTION('',(1.,0.,-2.384185933124E-07));
#81 = ORIENTED_EDGE('',*,*,#82,.T.);
#82 = EDGE_CURVE('',#73,#83,#85,.T.);
#83 = VERTEX_POINT('',#84);
#84 = CARTESIAN_POINT('',(115.99999141692,75.,-40.00002765655));
#85 = CIRCLE('',#86,10.);
#86 = AXIS2_PLACEMENT_3D('',#87,#88,#89);
#87 = CARTESIAN_POINT('',(115.99999141692,85.,-40.00002765655));
#88 = DIRECTION('',(2.384185933124E-07,-0.,1.));
#89 = DIRECTION('',(-1.,0.,2.384185933124E-07));
#90 = ORIENTED_EDGE('',*,*,#91,.F.);
#91 = EDGE_CURVE('',#92,#83,#94,.T.);
#92 = VERTEX_POINT('',#93);
#93 = CARTESIAN_POINT('',(129.99999141692,65.,-40.00003099441));
#94 = LINE('',#95,#96);
#95 = CARTESIAN_POINT('',(129.99999141692,65.,-40.00003099441));
#96 = VECTOR('',#97,1.);
#97 = DIRECTION('',(-0.813733471207,0.581238193719,1.940091895363E-07));
#98 = ORIENTED_EDGE('',*,*,#99,.F.);
#99 = EDGE_CURVE('',#100,#92,#102,.T.);
#100 = VERTEX_POINT('',#101);
#101 = CARTESIAN_POINT('',(146.99999141692,65.,-40.00003504753));
#102 = LINE('',#103,#104);
#103 = CARTESIAN_POINT('',(149.99999141692,65.,-40.00003576278));
#104 = VECTOR('',#105,1.);
#105 = DIRECTION('',(-1.,0.,2.384185933124E-07));
#106 = ORIENTED_EDGE('',*,*,#107,.F.);
#107 = EDGE_CURVE('',#108,#100,#110,.T.);
#108 = VERTEX_POINT('',#109);
#109 = CARTESIAN_POINT('',(149.99999141692,68.,-40.00003576278));
#110 = CIRCLE('',#111,3.);
#111 = AXIS2_PLACEMENT_3D('',#112,#113,#114);
#112 = CARTESIAN_POINT('',(146.99999141692,68.,-40.00003504753));
#113 = DIRECTION('',(-2.384185933124E-07,0.,-1.));
#114 = DIRECTION('',(0.,1.,0.));
#115 = ORIENTED_EDGE('',*,*,#116,.F.);
#116 = EDGE_CURVE('',#117,#108,#119,.T.);
#117 = VERTEX_POINT('',#118);
#118 = CARTESIAN_POINT('',(149.99999141692,92.,-40.00003576278));
#119 = LINE('',#120,#121);
#120 = CARTESIAN_POINT('',(149.99999141692,95.,-40.00003576278));
#121 = VECTOR('',#122,1.);
#122 = DIRECTION('',(-0.,-1.,-0.));
#123 = ORIENTED_EDGE('',*,*,#124,.F.);
#124 = EDGE_CURVE('',#75,#117,#125,.T.);
#125 = CIRCLE('',#126,3.);
#126 = AXIS2_PLACEMENT_3D('',#127,#128,#129);
#127 = CARTESIAN_POINT('',(146.99999141692,92.,-40.00003504753));
#128 = DIRECTION('',(-2.384185933124E-07,0.,-1.));
#129 = DIRECTION('',(0.,1.,0.));
#130 = FACE_BOUND('',#131,.F.);
#131 = EDGE_LOOP('',(#132,#143,#152,#161,#170));
#132 = ORIENTED_EDGE('',*,*,#133,.T.);
#133 = EDGE_CURVE('',#134,#136,#138,.T.);
#134 = VERTEX_POINT('',#135);
#135 = CARTESIAN_POINT('',(144.09999141692,90.,-40.00003435611));
#136 = VERTEX_POINT('',#137);
#137 = CARTESIAN_POINT('',(142.11612044918,86.488305548765,
    -40.00003388312));
#138 = CIRCLE('',#139,4.1);
#139 = AXIS2_PLACEMENT_3D('',#140,#141,#142);
#140 = CARTESIAN_POINT('',(139.99999141692,90.,-40.0000333786));
#141 = DIRECTION('',(-2.384185933124E-07,0.,-1.));
#142 = DIRECTION('',(1.,-0.,-2.384185933124E-07));
#143 = ORIENTED_EDGE('',*,*,#144,.T.);
#144 = EDGE_CURVE('',#136,#145,#147,.T.);
#145 = VERTEX_POINT('',#146);
#146 = CARTESIAN_POINT('',(137.88386238466,86.488305548765,
    -40.00003287407));
#147 = CIRCLE('',#148,4.1);
#148 = AXIS2_PLACEMENT_3D('',#149,#150,#151);
#149 = CARTESIAN_POINT('',(139.99999141692,90.,-40.0000333786));
#150 = DIRECTION('',(-2.384185933124E-07,0.,-1.));
#151 = DIRECTION('',(0.516129032258,-0.856510841765,-1.230547578387E-07)
  );
#152 = ORIENTED_EDGE('',*,*,#153,.T.);
#153 = EDGE_CURVE('',#145,#154,#156,.T.);
#154 = VERTEX_POINT('',#155);
#155 = CARTESIAN_POINT('',(137.88386238466,93.511694451235,
    -40.00003287407));
#156 = CIRCLE('',#157,4.1);
#157 = AXIS2_PLACEMENT_3D('',#158,#159,#160);
#158 = CARTESIAN_POINT('',(139.99999141692,90.,-40.0000333786));
#159 = DIRECTION('',(-2.384185933124E-07,0.,-1.));
#160 = DIRECTION('',(-0.516129032258,-0.856510841765,1.230547578387E-07)
  );
#161 = ORIENTED_EDGE('',*,*,#162,.T.);
#162 = EDGE_CURVE('',#154,#163,#165,.T.);
#163 = VERTEX_POINT('',#164);
#164 = CARTESIAN_POINT('',(142.11612044918,93.511694451235,
    -40.00003388312));
#165 = CIRCLE('',#166,4.1);
#166 = AXIS2_PLACEMENT_3D('',#167,#168,#169);
#167 = CARTESIAN_POINT('',(139.99999141692,90.,-40.0000333786));
#168 = DIRECTION('',(-2.384185933124E-07,0.,-1.));
#169 = DIRECTION('',(-0.516129032258,0.856510841765,1.230547578387E-07)
  );
#170 = ORIENTED_EDGE('',*,*,#171,.T.);
#171 = EDGE_CURVE('',#163,#134,#172,.T.);
#172 = CIRCLE('',#173,4.1);
#173 = AXIS2_PLACEMENT_3D('',#174,#175,#176);
#174 = CARTESIAN_POINT('',(139.99999141692,90.,-40.0000333786));
#175 = DIRECTION('',(-2.384185933124E-07,0.,-1.));
#176 = DIRECTION('',(0.516129032258,0.856510841765,-1.230547578387E-07)
  );
#177 = PLANE('',#178);
#178 = AXIS2_PLACEMENT_3D('',#179,#180,#181);
#179 = CARTESIAN_POINT('',(131.43562929056,81.432521590462,
    -40.00003133669));
#180 = DIRECTION('',(2.384185933124E-07,0.,1.));
#181 = DIRECTION('',(-1.,0.,2.384185933124E-07));
#182 = ADVANCED_FACE('',(#183),#209,.F.);
#183 = FACE_BOUND('',#184,.T.);
#184 = EDGE_LOOP('',(#185,#193,#194,#202));
#185 = ORIENTED_EDGE('',*,*,#186,.F.);
#186 = EDGE_CURVE('',#22,#187,#189,.T.);
#187 = VERTEX_POINT('',#188);
#188 = CARTESIAN_POINT('',(141.59999165534,72.65518360947,
    -39.00003376007));
#189 = LINE('',#190,#191);
#190 = CARTESIAN_POINT('',(141.59999165534,72.65518360947,
    -39.00003376007));
#191 = VECTOR('',#192,1.);
#192 = DIRECTION('',(-0.36495817009,-0.605644624372,0.707106868199));
#193 = ORIENTED_EDGE('',*,*,#21,.T.);
#194 = ORIENTED_EDGE('',*,*,#195,.T.);
#195 = EDGE_CURVE('',#24,#196,#198,.T.);
#196 = VERTEX_POINT('',#197);
#197 = CARTESIAN_POINT('',(143.09999165534,70.,-39.0000341177));
#198 = LINE('',#199,#200);
#199 = CARTESIAN_POINT('',(143.09999165534,70.,-39.0000341177));
#200 = VECTOR('',#201,1.);
#201 = DIRECTION('',(-0.707106612599,6.E-17,0.707106949774));
#202 = ORIENTED_EDGE('',*,*,#203,.F.);
#203 = EDGE_CURVE('',#187,#196,#204,.T.);
#204 = CIRCLE('',#205,3.1);
#205 = AXIS2_PLACEMENT_3D('',#206,#207,#208);
#206 = CARTESIAN_POINT('',(139.99999165534,70.,-39.0000333786));
#207 = DIRECTION('',(-2.384185933124E-07,0.,-1.));
#208 = DIRECTION('',(0.516129032258,0.856510841765,-1.230547578387E-07)
  );
#209 = CONICAL_SURFACE('',#210,3.1,0.785398163397);
#210 = AXIS2_PLACEMENT_3D('',#211,#212,#213);
#211 = CARTESIAN_POINT('',(139.99999165534,70.,-39.0000333786));
#212 = DIRECTION('',(-2.384185933124E-07,0.,-1.));
#213 = DIRECTION('',(0.516129032258,0.856510841765,-1.230547578387E-07)
  );
#214 = ADVANCED_FACE('',(#215),#233,.F.);
#215 = FACE_BOUND('',#216,.T.);
#216 = EDGE_LOOP('',(#217,#224,#225,#226));
#217 = ORIENTED_EDGE('',*,*,#218,.F.);
#218 = EDGE_CURVE('',#51,#219,#221,.T.);
#219 = VERTEX_POINT('',#220);
#220 = CARTESIAN_POINT('',(138.39999165534,72.65518360947,
    -39.00003299713));
#221 = B_SPLINE_CURVE_WITH_KNOTS('',1,(#222,#223),.UNSPECIFIED.,.F.,.F.,
  (2,2),(0.,6.376520348924),.PIECEWISE_BEZIER_KNOTS.);
#222 = CARTESIAN_POINT('',(137.88386238466,73.511694451235,
    -40.00003287407));
#223 = CARTESIAN_POINT('',(138.39999165534,72.65518360947,
    -39.00003299713));
#224 = ORIENTED_EDGE('',*,*,#63,.T.);
#225 = ORIENTED_EDGE('',*,*,#186,.T.);
#226 = ORIENTED_EDGE('',*,*,#227,.F.);
#227 = EDGE_CURVE('',#219,#187,#228,.T.);
#228 = CIRCLE('',#229,3.1);
#229 = AXIS2_PLACEMENT_3D('',#230,#231,#232);
#230 = CARTESIAN_POINT('',(139.99999165534,70.,-39.0000333786));
#231 = DIRECTION('',(-2.384185933124E-07,0.,-1.));
#232 = DIRECTION('',(-0.516129032258,0.856510841765,1.230547578387E-07)
  );
#233 = CONICAL_SURFACE('',#234,3.1,0.785398163397);
#234 = AXIS2_PLACEMENT_3D('',#235,#236,#237);
#235 = CARTESIAN_POINT('',(139.99999165534,70.,-39.0000333786));
#236 = DIRECTION('',(-2.384185933124E-07,0.,-1.));
#237 = DIRECTION('',(-0.516129032258,0.856510841765,1.230547578387E-07)
  );
#238 = ADVANCED_FACE('',(#239),#258,.F.);
#239 = FACE_BOUND('',#240,.T.);
#240 = EDGE_LOOP('',(#241,#242,#243,#251));
#241 = ORIENTED_EDGE('',*,*,#195,.F.);
#242 = ORIENTED_EDGE('',*,*,#32,.T.);
#243 = ORIENTED_EDGE('',*,*,#244,.T.);
#244 = EDGE_CURVE('',#33,#245,#247,.T.);
#245 = VERTEX_POINT('',#246);
#246 = CARTESIAN_POINT('',(141.59999165534,67.34481639053,
    -39.00003376007));
#247 = LINE('',#248,#249);
#248 = CARTESIAN_POINT('',(141.59999165534,67.34481639053,
    -39.00003376007));
#249 = VECTOR('',#250,1.);
#250 = DIRECTION('',(-0.36495817009,0.605644624372,0.707106868199));
#251 = ORIENTED_EDGE('',*,*,#252,.F.);
#252 = EDGE_CURVE('',#196,#245,#253,.T.);
#253 = CIRCLE('',#254,3.1);
#254 = AXIS2_PLACEMENT_3D('',#255,#256,#257);
#255 = CARTESIAN_POINT('',(139.99999165534,70.,-39.0000333786));
#256 = DIRECTION('',(-2.384185933124E-07,0.,-1.));
#257 = DIRECTION('',(1.,-0.,-2.384185933124E-07));
#258 = CONICAL_SURFACE('',#259,3.1,0.785398163397);
#259 = AXIS2_PLACEMENT_3D('',#260,#261,#262);
#260 = CARTESIAN_POINT('',(139.99999165534,70.,-39.0000333786));
#261 = DIRECTION('',(-2.384185933124E-07,0.,-1.));
#262 = DIRECTION('',(1.,0.,-2.384185933124E-07));
#263 = ADVANCED_FACE('',(#264),#287,.F.);
#264 = FACE_BOUND('',#265,.F.);
#265 = EDGE_LOOP('',(#266,#274,#285,#286));
#266 = ORIENTED_EDGE('',*,*,#267,.T.);
#267 = EDGE_CURVE('',#42,#268,#270,.T.);
#268 = VERTEX_POINT('',#269);
#269 = CARTESIAN_POINT('',(138.39999165534,67.34481639053,
    -39.00003299713));
#270 = LINE('',#271,#272);
#271 = CARTESIAN_POINT('',(138.39999165534,67.34481639053,
    -39.00003299713));
#272 = VECTOR('',#273,1.);
#273 = DIRECTION('',(0.364958507264,0.605644624372,0.707106694174));
#274 = ORIENTED_EDGE('',*,*,#275,.T.);
#275 = EDGE_CURVE('',#268,#219,#276,.T.);
#276 = B_SPLINE_CURVE_WITH_KNOTS('',7,(#277,#278,#279,#280,#281,#282,
    #283,#284),.UNSPECIFIED.,.F.,.F.,(8,8),(9.738937226128,
    16.115457575053),.PIECEWISE_BEZIER_KNOTS.);
#277 = CARTESIAN_POINT('',(138.39999165534,67.34481639053,
    -39.00003299713));
#278 = CARTESIAN_POINT('',(137.61978675764,67.814963852978,
    -39.00003281111));
#279 = CARTESIAN_POINT('',(137.00074506078,68.552626043821,
    -39.00003266352));
#280 = CARTESIAN_POINT('',(136.65272682712,69.491387548331,
    -39.00003258055));
#281 = CARTESIAN_POINT('',(136.65272682712,70.508612451669,
    -39.00003258055));
#282 = CARTESIAN_POINT('',(137.00074506078,71.447373956179,
    -39.00003266352));
#283 = CARTESIAN_POINT('',(137.61978675764,72.185036147022,
    -39.00003281111));
#284 = CARTESIAN_POINT('',(138.39999165534,72.65518360947,
    -39.00003299713));
#285 = ORIENTED_EDGE('',*,*,#218,.F.);
#286 = ORIENTED_EDGE('',*,*,#50,.F.);
#287 = B_SPLINE_SURFACE_WITH_KNOTS('',1,7,(
    (#288,#289,#290,#291,#292,#293,#294,#295)
    ,(#296,#297,#298,#299,#300,#301,#302,#303
  )),.UNSPECIFIED.,.F.,.F.,.F.,(2,2),(8,8),(0.,6.376520348924),(
    9.738937226128,16.115457575053),.PIECEWISE_BEZIER_KNOTS.);
#288 = CARTESIAN_POINT('',(137.88386238466,66.488305548765,
    -40.00003287407));
#289 = CARTESIAN_POINT('',(136.8519784877,67.110113482971,
    -40.00003262805));
#290 = CARTESIAN_POINT('',(136.03324592089,68.085731219247,
    -40.00003243285));
#291 = CARTESIAN_POINT('',(135.57296374088,69.327319015535,
    -40.00003232311));
#292 = CARTESIAN_POINT('',(135.57296374088,70.672680984465,
    -40.00003232311));
#293 = CARTESIAN_POINT('',(136.03324592089,71.914268780753,
    -40.00003243285));
#294 = CARTESIAN_POINT('',(136.8519784877,72.889886517029,
    -40.00003262805));
#295 = CARTESIAN_POINT('',(137.88386238466,73.511694451235,
    -40.00003287407));
#296 = CARTESIAN_POINT('',(138.39999165534,67.34481639053,
    -39.00003299713));
#297 = CARTESIAN_POINT('',(137.61978675764,67.814963852978,
    -39.00003281111));
#298 = CARTESIAN_POINT('',(137.00074506078,68.552626043821,
    -39.00003266352));
#299 = CARTESIAN_POINT('',(136.65272682712,69.491387548331,
    -39.00003258055));
#300 = CARTESIAN_POINT('',(136.65272682712,70.508612451669,
    -39.00003258055));
#301 = CARTESIAN_POINT('',(137.00074506078,71.447373956179,
    -39.00003266352));
#302 = CARTESIAN_POINT('',(137.61978675764,72.185036147022,
    -39.00003281111));
#303 = CARTESIAN_POINT('',(138.39999165534,72.65518360947,
    -39.00003299713));
#304 = ADVANCED_FACE('',(#305),#317,.F.);
#305 = FACE_BOUND('',#306,.T.);
#306 = EDGE_LOOP('',(#307,#308,#309,#310));
#307 = ORIENTED_EDGE('',*,*,#244,.F.);
#308 = ORIENTED_EDGE('',*,*,#41,.T.);
#309 = ORIENTED_EDGE('',*,*,#267,.T.);
#310 = ORIENTED_EDGE('',*,*,#311,.F.);
#311 = EDGE_CURVE('',#245,#268,#312,.T.);
#312 = CIRCLE('',#313,3.1);
#313 = AXIS2_PLACEMENT_3D('',#314,#315,#316);
#314 = CARTESIAN_POINT('',(139.99999165534,70.,-39.0000333786));
#315 = DIRECTION('',(-2.384185933124E-07,0.,-1.));
#316 = DIRECTION('',(0.516129032258,-0.856510841765,-1.230547578387E-07)
  );
#317 = CONICAL_SURFACE('',#318,3.1,0.785398163397);
#318 = AXIS2_PLACEMENT_3D('',#319,#320,#321);
#319 = CARTESIAN_POINT('',(139.99999165534,70.,-39.0000333786));
#320 = DIRECTION('',(-2.384185933124E-07,0.,-1.));
#321 = DIRECTION('',(0.516129032258,-0.856510841765,-1.230547578387E-07)
  );
#322 = ADVANCED_FACE('',(#323),#380,.T.);
#323 = FACE_BOUND('',#324,.T.);
#324 = EDGE_LOOP('',(#325,#335,#343,#351,#359,#367,#373,#374));
#325 = ORIENTED_EDGE('',*,*,#326,.T.);
#326 = EDGE_CURVE('',#327,#329,#331,.T.);
#327 = VERTEX_POINT('',#328);
#328 = CARTESIAN_POINT('',(115.99999213218,94.999999999985,
    -37.00002765655));
#329 = VERTEX_POINT('',#330);
#330 = CARTESIAN_POINT('',(115.99999380111,94.999999999997,
    -30.00002765655));
#331 = LINE('',#332,#333);
#332 = CARTESIAN_POINT('',(115.99999213218,94.999999999978,
    -37.00002765655));
#333 = VECTOR('',#334,1.);
#334 = DIRECTION('',(2.384185933124E-07,0.,1.));
#335 = ORIENTED_EDGE('',*,*,#336,.F.);
#336 = EDGE_CURVE('',#337,#329,#339,.T.);
#337 = VERTEX_POINT('',#338);
#338 = CARTESIAN_POINT('',(129.99999380111,94.999999999997,
    -30.00003099441));
#339 = LINE('',#340,#341);
#340 = CARTESIAN_POINT('',(129.99999380111,94.999999999997,
    -30.00003099441));
#341 = VECTOR('',#342,1.);
#342 = DIRECTION('',(-1.,0.,2.384185933124E-07));
#343 = ORIENTED_EDGE('',*,*,#344,.F.);
#344 = EDGE_CURVE('',#345,#337,#347,.T.);
#345 = VERTEX_POINT('',#346);
#346 = CARTESIAN_POINT('',(129.99999451636,95.,-27.00003099441));
#347 = LINE('',#348,#349);
#348 = CARTESIAN_POINT('',(129.99999504636,94.999999999998,
    -24.77705802144));
#349 = VECTOR('',#350,1.);
#350 = DIRECTION('',(-2.384185933124E-07,-2.801E-14,-1.));
#351 = ORIENTED_EDGE('',*,*,#352,.T.);
#352 = EDGE_CURVE('',#345,#353,#355,.T.);
#353 = VERTEX_POINT('',#354);
#354 = CARTESIAN_POINT('',(130.00000095367,95.,-3.09944172443E-05));
#355 = LINE('',#356,#357);
#356 = CARTESIAN_POINT('',(129.99999451636,95.,-27.00003099441));
#357 = VECTOR('',#358,1.);
#358 = DIRECTION('',(2.384185933124E-07,0.,1.));
#359 = ORIENTED_EDGE('',*,*,#360,.F.);
#360 = EDGE_CURVE('',#361,#353,#363,.T.);
#361 = VERTEX_POINT('',#362);
#362 = CARTESIAN_POINT('',(147.00000095367,95.,-3.504753333061E-05));
#363 = LINE('',#364,#365);
#364 = CARTESIAN_POINT('',(150.00000095367,95.,-3.576278911055E-05));
#365 = VECTOR('',#366,1.);
#366 = DIRECTION('',(-1.,0.,2.384185933124E-07));
#367 = ORIENTED_EDGE('',*,*,#368,.F.);
#368 = EDGE_CURVE('',#75,#361,#369,.T.);
#369 = LINE('',#370,#371);
#370 = CARTESIAN_POINT('',(146.99999141692,95.,-40.00003504753));
#371 = VECTOR('',#372,1.);
#372 = DIRECTION('',(2.384185933124E-07,0.,1.));
#373 = ORIENTED_EDGE('',*,*,#72,.F.);
#374 = ORIENTED_EDGE('',*,*,#375,.T.);
#375 = EDGE_CURVE('',#73,#327,#376,.T.);
#376 = LINE('',#377,#378);
#377 = CARTESIAN_POINT('',(115.99999141692,95.,-40.00002765655));
#378 = VECTOR('',#379,1.);
#379 = DIRECTION('',(2.384185933124E-07,0.,1.));
#380 = PLANE('',#381);
#381 = AXIS2_PLACEMENT_3D('',#382,#383,#384);
#382 = CARTESIAN_POINT('',(135.55404963041,94.999999999998,
    -22.55408637266));
#383 = DIRECTION('',(-1.416200066781E-13,1.,-2.800996623516E-14));
#384 = DIRECTION('',(1.,1.4162E-13,-2.384185933124E-07));
#385 = ADVANCED_FACE('',(#386),#405,.T.);
#386 = FACE_BOUND('',#387,.F.);
#387 = EDGE_LOOP('',(#388,#389,#397,#404));
#388 = ORIENTED_EDGE('',*,*,#124,.T.);
#389 = ORIENTED_EDGE('',*,*,#390,.T.);
#390 = EDGE_CURVE('',#117,#391,#393,.T.);
#391 = VERTEX_POINT('',#392);
#392 = CARTESIAN_POINT('',(150.00000095367,92.,-3.576278911055E-05));
#393 = LINE('',#394,#395);
#394 = CARTESIAN_POINT('',(149.99999141692,92.,-40.00003576278));
#395 = VECTOR('',#396,1.);
#396 = DIRECTION('',(2.384185933124E-07,0.,1.));
#397 = ORIENTED_EDGE('',*,*,#398,.F.);
#398 = EDGE_CURVE('',#361,#391,#399,.T.);
#399 = CIRCLE('',#400,3.);
#400 = AXIS2_PLACEMENT_3D('',#401,#402,#403);
#401 = CARTESIAN_POINT('',(147.00000095367,92.,-3.504753333061E-05));
#402 = DIRECTION('',(-2.384185933124E-07,0.,-1.));
#403 = DIRECTION('',(0.,1.,0.));
#404 = ORIENTED_EDGE('',*,*,#368,.F.);
#405 = CYLINDRICAL_SURFACE('',#406,3.);
#406 = AXIS2_PLACEMENT_3D('',#407,#408,#409);
#407 = CARTESIAN_POINT('',(146.99999141692,92.,-40.00003504753));
#408 = DIRECTION('',(2.384185933124E-07,0.,1.));
#409 = DIRECTION('',(-1.4162E-13,1.,3.37648411849E-20));
#410 = ADVANCED_FACE('',(#411),#430,.T.);
#411 = FACE_BOUND('',#412,.F.);
#412 = EDGE_LOOP('',(#413,#414,#423,#429));
#413 = ORIENTED_EDGE('',*,*,#375,.T.);
#414 = ORIENTED_EDGE('',*,*,#415,.T.);
#415 = EDGE_CURVE('',#327,#416,#418,.T.);
#416 = VERTEX_POINT('',#417);
#417 = CARTESIAN_POINT('',(115.99999213218,75.000000000022,
    -37.00002765655));
#418 = CIRCLE('',#419,10.);
#419 = AXIS2_PLACEMENT_3D('',#420,#421,#422);
#420 = CARTESIAN_POINT('',(115.99999213218,85.,-37.00002765655));
#421 = DIRECTION('',(2.384185933124E-07,-0.,1.));
#422 = DIRECTION('',(-1.,0.,2.384185933124E-07));
#423 = ORIENTED_EDGE('',*,*,#424,.F.);
#424 = EDGE_CURVE('',#83,#416,#425,.T.);
#425 = LINE('',#426,#427);
#426 = CARTESIAN_POINT('',(115.99999141692,75.,-40.00002765655));
#427 = VECTOR('',#428,1.);
#428 = DIRECTION('',(2.384185933124E-07,0.,1.));
#429 = ORIENTED_EDGE('',*,*,#82,.F.);
#430 = CYLINDRICAL_SURFACE('',#431,10.);
#431 = AXIS2_PLACEMENT_3D('',#432,#433,#434);
#432 = CARTESIAN_POINT('',(115.99999141692,85.,-40.00002765655));
#433 = DIRECTION('',(-2.384185933124E-07,0.,-1.));
#434 = DIRECTION('',(-1.,0.,2.384185933124E-07));
#435 = ADVANCED_FACE('',(#436),#454,.T.);
#436 = FACE_BOUND('',#437,.T.);
#437 = EDGE_LOOP('',(#438,#446,#452,#453));
#438 = ORIENTED_EDGE('',*,*,#439,.F.);
#439 = EDGE_CURVE('',#440,#391,#442,.T.);
#440 = VERTEX_POINT('',#441);
#441 = CARTESIAN_POINT('',(150.00000095367,68.,-3.576278911055E-05));
#442 = LINE('',#443,#444);
#443 = CARTESIAN_POINT('',(150.00000095367,65.,-3.576278911055E-05));
#444 = VECTOR('',#445,1.);
#445 = DIRECTION('',(0.,1.,0.));
#446 = ORIENTED_EDGE('',*,*,#447,.F.);
#447 = EDGE_CURVE('',#108,#440,#448,.T.);
#448 = LINE('',#449,#450);
#449 = CARTESIAN_POINT('',(149.99999141692,68.,-40.00003576278));
#450 = VECTOR('',#451,1.);
#451 = DIRECTION('',(2.384185933124E-07,0.,1.));
#452 = ORIENTED_EDGE('',*,*,#116,.F.);
#453 = ORIENTED_EDGE('',*,*,#390,.T.);
#454 = PLANE('',#455);
#455 = AXIS2_PLACEMENT_3D('',#456,#457,#458);
#456 = CARTESIAN_POINT('',(149.99999618529,80.,-20.00003576278));
#457 = DIRECTION('',(1.,0.,-2.384185933124E-07));
#458 = DIRECTION('',(-2.384185933124E-07,-0.,-1.));
#459 = ADVANCED_FACE('',(#460),#486,.T.);
#460 = FACE_BOUND('',#461,.T.);
#461 = EDGE_LOOP('',(#462,#470,#478,#484,#485));
#462 = ORIENTED_EDGE('',*,*,#463,.T.);
#463 = EDGE_CURVE('',#92,#464,#466,.T.);
#464 = VERTEX_POINT('',#465);
#465 = CARTESIAN_POINT('',(129.9999938011,64.999999999992,
    -30.00003099441));
#466 = LINE('',#467,#468);
#467 = CARTESIAN_POINT('',(129.99999141692,65.,-40.00003099441));
#468 = VECTOR('',#469,1.);
#469 = DIRECTION('',(2.384185933124E-07,0.,1.));
#470 = ORIENTED_EDGE('',*,*,#471,.F.);
#471 = EDGE_CURVE('',#472,#464,#474,.T.);
#472 = VERTEX_POINT('',#473);
#473 = CARTESIAN_POINT('',(115.99999380111,75.000000000045,
    -30.00002765655));
#474 = LINE('',#475,#476);
#475 = CARTESIAN_POINT('',(115.9999938011,75.000000000038,
    -30.00002765655));
#476 = VECTOR('',#477,1.);
#477 = DIRECTION('',(0.813733471205,-0.581238193721,-1.94009189536E-07)
  );
#478 = ORIENTED_EDGE('',*,*,#479,.F.);
#479 = EDGE_CURVE('',#416,#472,#480,.T.);
#480 = LINE('',#481,#482);
#481 = CARTESIAN_POINT('',(115.99999213218,75.000000000045,
    -37.00002765655));
#482 = VECTOR('',#483,1.);
#483 = DIRECTION('',(2.384185933124E-07,0.,1.));
#484 = ORIENTED_EDGE('',*,*,#424,.F.);
#485 = ORIENTED_EDGE('',*,*,#91,.F.);
#486 = PLANE('',#487);
#487 = AXIS2_PLACEMENT_3D('',#488,#489,#490);
#488 = CARTESIAN_POINT('',(122.99999296664,70.000000000014,
    -33.50002932548));
#489 = DIRECTION('',(-0.58123819372,-0.813733471206,1.385791873362E-07)
  );
#490 = DIRECTION('',(-0.813733471206,0.58123819372,1.940091895362E-07));
#491 = ADVANCED_FACE('',(#492),#511,.T.);
#492 = FACE_BOUND('',#493,.F.);
#493 = EDGE_LOOP('',(#494,#495,#503,#510));
#494 = ORIENTED_EDGE('',*,*,#107,.T.);
#495 = ORIENTED_EDGE('',*,*,#496,.T.);
#496 = EDGE_CURVE('',#100,#497,#499,.T.);
#497 = VERTEX_POINT('',#498);
#498 = CARTESIAN_POINT('',(147.00000095367,65.,-3.504753333061E-05));
#499 = LINE('',#500,#501);
#500 = CARTESIAN_POINT('',(146.99999141692,65.,-40.00003504753));
#501 = VECTOR('',#502,1.);
#502 = DIRECTION('',(2.384185933124E-07,0.,1.));
#503 = ORIENTED_EDGE('',*,*,#504,.F.);
#504 = EDGE_CURVE('',#440,#497,#505,.T.);
#505 = CIRCLE('',#506,3.);
#506 = AXIS2_PLACEMENT_3D('',#507,#508,#509);
#507 = CARTESIAN_POINT('',(147.00000095367,68.,-3.504753333061E-05));
#508 = DIRECTION('',(-2.384185933124E-07,0.,-1.));
#509 = DIRECTION('',(0.,1.,0.));
#510 = ORIENTED_EDGE('',*,*,#447,.F.);
#511 = CYLINDRICAL_SURFACE('',#512,3.);
#512 = AXIS2_PLACEMENT_3D('',#513,#514,#515);
#513 = CARTESIAN_POINT('',(146.99999141692,68.,-40.00003504753));
#514 = DIRECTION('',(2.384185933124E-07,0.,1.));
#515 = DIRECTION('',(1.,0.,-2.384185933124E-07));
#516 = ADVANCED_FACE('',(#517),#544,.T.);
#517 = FACE_BOUND('',#518,.T.);
#518 = EDGE_LOOP('',(#519,#527,#535,#541,#542,#543));
#519 = ORIENTED_EDGE('',*,*,#520,.F.);
#520 = EDGE_CURVE('',#521,#497,#523,.T.);
#521 = VERTEX_POINT('',#522);
#522 = CARTESIAN_POINT('',(130.00000095367,65.,-3.09944172443E-05));
#523 = LINE('',#524,#525);
#524 = CARTESIAN_POINT('',(130.00000095367,65.,-3.09944172443E-05));
#525 = VECTOR('',#526,1.);
#526 = DIRECTION('',(1.,0.,-2.384185933124E-07));
#527 = ORIENTED_EDGE('',*,*,#528,.F.);
#528 = EDGE_CURVE('',#529,#521,#531,.T.);
#529 = VERTEX_POINT('',#530);
#530 = CARTESIAN_POINT('',(129.99999451636,65.,-27.00003099441));
#531 = LINE('',#532,#533);
#532 = CARTESIAN_POINT('',(129.99999451636,65.,-27.00003099441));
#533 = VECTOR('',#534,1.);
#534 = DIRECTION('',(2.384185933124E-07,0.,1.));
#535 = ORIENTED_EDGE('',*,*,#536,.F.);
#536 = EDGE_CURVE('',#464,#529,#537,.T.);
#537 = LINE('',#538,#539);
#538 = CARTESIAN_POINT('',(129.99999451636,65.,-27.00003099441));
#539 = VECTOR('',#540,1.);
#540 = DIRECTION('',(2.384185933124E-07,0.,1.));
#541 = ORIENTED_EDGE('',*,*,#463,.F.);
#542 = ORIENTED_EDGE('',*,*,#99,.F.);
#543 = ORIENTED_EDGE('',*,*,#496,.T.);
#544 = PLANE('',#545);
#545 = AXIS2_PLACEMENT_3D('',#546,#547,#548);
#546 = CARTESIAN_POINT('',(139.99999618529,65.,-20.0000333786));
#547 = DIRECTION('',(-0.,-1.,-0.));
#548 = DIRECTION('',(2.384185933124E-07,0.,1.));
#549 = ADVANCED_FACE('',(#550),#576,.F.);
#550 = FACE_BOUND('',#551,.T.);
#551 = EDGE_LOOP('',(#552,#560,#561,#569));
#552 = ORIENTED_EDGE('',*,*,#553,.F.);
#553 = EDGE_CURVE('',#134,#554,#556,.T.);
#554 = VERTEX_POINT('',#555);
#555 = CARTESIAN_POINT('',(143.09999165534,90.,-39.0000341177));
#556 = LINE('',#557,#558);
#557 = CARTESIAN_POINT('',(143.09999165534,90.,-39.0000341177));
#558 = VECTOR('',#559,1.);
#559 = DIRECTION('',(-0.707106612599,-0.,0.707106949774));
#560 = ORIENTED_EDGE('',*,*,#133,.T.);
#561 = ORIENTED_EDGE('',*,*,#562,.T.);
#562 = EDGE_CURVE('',#136,#563,#565,.T.);
#563 = VERTEX_POINT('',#564);
#564 = CARTESIAN_POINT('',(141.59999165534,87.34481639053,
    -39.00003376007));
#565 = LINE('',#566,#567);
#566 = CARTESIAN_POINT('',(141.59999165534,87.34481639053,
    -39.00003376007));
#567 = VECTOR('',#568,1.);
#568 = DIRECTION('',(-0.36495817009,0.605644624372,0.707106868199));
#569 = ORIENTED_EDGE('',*,*,#570,.F.);
#570 = EDGE_CURVE('',#554,#563,#571,.T.);
#571 = CIRCLE('',#572,3.1);
#572 = AXIS2_PLACEMENT_3D('',#573,#574,#575);
#573 = CARTESIAN_POINT('',(139.99999165534,90.,-39.0000333786));
#574 = DIRECTION('',(-2.384185933124E-07,0.,-1.));
#575 = DIRECTION('',(1.,-0.,-2.384185933124E-07));
#576 = CONICAL_SURFACE('',#577,3.1,0.785398163397);
#577 = AXIS2_PLACEMENT_3D('',#578,#579,#580);
#578 = CARTESIAN_POINT('',(139.99999165534,90.,-39.0000333786));
#579 = DIRECTION('',(-2.384185933124E-07,0.,-1.));
#580 = DIRECTION('',(1.,0.,-2.384185933124E-07));
#581 = ADVANCED_FACE('',(#582),#601,.F.);
#582 = FACE_BOUND('',#583,.T.);
#583 = EDGE_LOOP('',(#584,#592,#593,#594));
#584 = ORIENTED_EDGE('',*,*,#585,.F.);
#585 = EDGE_CURVE('',#163,#586,#588,.T.);
#586 = VERTEX_POINT('',#587);
#587 = CARTESIAN_POINT('',(141.59999165534,92.65518360947,
    -39.00003376007));
#588 = LINE('',#589,#590);
#589 = CARTESIAN_POINT('',(141.59999165534,92.65518360947,
    -39.00003376007));
#590 = VECTOR('',#591,1.);
#591 = DIRECTION('',(-0.36495817009,-0.605644624372,0.707106868199));
#592 = ORIENTED_EDGE('',*,*,#171,.T.);
#593 = ORIENTED_EDGE('',*,*,#553,.T.);
#594 = ORIENTED_EDGE('',*,*,#595,.F.);
#595 = EDGE_CURVE('',#586,#554,#596,.T.);
#596 = CIRCLE('',#597,3.1);
#597 = AXIS2_PLACEMENT_3D('',#598,#599,#600);
#598 = CARTESIAN_POINT('',(139.99999165534,90.,-39.0000333786));
#599 = DIRECTION('',(-2.384185933124E-07,0.,-1.));
#600 = DIRECTION('',(0.516129032258,0.856510841765,-1.230547578387E-07)
  );
#601 = CONICAL_SURFACE('',#602,3.1,0.785398163397);
#602 = AXIS2_PLACEMENT_3D('',#603,#604,#605);
#603 = CARTESIAN_POINT('',(139.99999165534,90.,-39.0000333786));
#604 = DIRECTION('',(-2.384185933124E-07,0.,-1.));
#605 = DIRECTION('',(0.516129032258,0.856510841765,-1.230547578387E-07)
  );
#606 = ADVANCED_FACE('',(#607),#626,.F.);
#607 = FACE_BOUND('',#608,.T.);
#608 = EDGE_LOOP('',(#609,#610,#611,#619));
#609 = ORIENTED_EDGE('',*,*,#562,.F.);
#610 = ORIENTED_EDGE('',*,*,#144,.T.);
#611 = ORIENTED_EDGE('',*,*,#612,.T.);
#612 = EDGE_CURVE('',#145,#613,#615,.T.);
#613 = VERTEX_POINT('',#614);
#614 = CARTESIAN_POINT('',(138.39999165534,87.34481639053,
    -39.00003299713));
#615 = LINE('',#616,#617);
#616 = CARTESIAN_POINT('',(138.39999165534,87.34481639053,
    -39.00003299713));
#617 = VECTOR('',#618,1.);
#618 = DIRECTION('',(0.364958507264,0.605644624372,0.707106694174));
#619 = ORIENTED_EDGE('',*,*,#620,.F.);
#620 = EDGE_CURVE('',#563,#613,#621,.T.);
#621 = CIRCLE('',#622,3.1);
#622 = AXIS2_PLACEMENT_3D('',#623,#624,#625);
#623 = CARTESIAN_POINT('',(139.99999165534,90.,-39.0000333786));
#624 = DIRECTION('',(-2.384185933124E-07,0.,-1.));
#625 = DIRECTION('',(0.516129032258,-0.856510841765,-1.230547578387E-07)
  );
#626 = CONICAL_SURFACE('',#627,3.1,0.785398163397);
#627 = AXIS2_PLACEMENT_3D('',#628,#629,#630);
#628 = CARTESIAN_POINT('',(139.99999165534,90.,-39.0000333786));
#629 = DIRECTION('',(-2.384185933124E-07,0.,-1.));
#630 = DIRECTION('',(0.516129032258,-0.856510841765,-1.230547578387E-07)
  );
#631 = ADVANCED_FACE('',(#632),#651,.F.);
#632 = FACE_BOUND('',#633,.T.);
#633 = EDGE_LOOP('',(#634,#642,#643,#644));
#634 = ORIENTED_EDGE('',*,*,#635,.F.);
#635 = EDGE_CURVE('',#154,#636,#638,.T.);
#636 = VERTEX_POINT('',#637);
#637 = CARTESIAN_POINT('',(138.39999165534,92.65518360947,
    -39.00003299713));
#638 = LINE('',#639,#640);
#639 = CARTESIAN_POINT('',(138.39999165534,92.65518360947,
    -39.00003299713));
#640 = VECTOR('',#641,1.);
#641 = DIRECTION('',(0.364958507264,-0.605644624372,0.707106694174));
#642 = ORIENTED_EDGE('',*,*,#162,.T.);
#643 = ORIENTED_EDGE('',*,*,#585,.T.);
#644 = ORIENTED_EDGE('',*,*,#645,.F.);
#645 = EDGE_CURVE('',#636,#586,#646,.T.);
#646 = CIRCLE('',#647,3.1);
#647 = AXIS2_PLACEMENT_3D('',#648,#649,#650);
#648 = CARTESIAN_POINT('',(139.99999165534,90.,-39.0000333786));
#649 = DIRECTION('',(-2.384185933124E-07,0.,-1.));
#650 = DIRECTION('',(-0.516129032258,0.856510841765,1.230547578387E-07)
  );
#651 = CONICAL_SURFACE('',#652,3.1,0.785398163397);
#652 = AXIS2_PLACEMENT_3D('',#653,#654,#655);
#653 = CARTESIAN_POINT('',(139.99999165534,90.,-39.0000333786));
#654 = DIRECTION('',(-2.384185933124E-07,0.,-1.));
#655 = DIRECTION('',(-0.516129032258,0.856510841765,1.230547578387E-07)
  );
#656 = ADVANCED_FACE('',(#657),#669,.F.);
#657 = FACE_BOUND('',#658,.T.);
#658 = EDGE_LOOP('',(#659,#660,#661,#662));
#659 = ORIENTED_EDGE('',*,*,#612,.F.);
#660 = ORIENTED_EDGE('',*,*,#153,.T.);
#661 = ORIENTED_EDGE('',*,*,#635,.T.);
#662 = ORIENTED_EDGE('',*,*,#663,.F.);
#663 = EDGE_CURVE('',#613,#636,#664,.T.);
#664 = CIRCLE('',#665,3.1);
#665 = AXIS2_PLACEMENT_3D('',#666,#667,#668);
#666 = CARTESIAN_POINT('',(139.99999165534,90.,-39.0000333786));
#667 = DIRECTION('',(-2.384185933124E-07,0.,-1.));
#668 = DIRECTION('',(-0.516129032258,-0.856510841765,1.230547578387E-07)
  );
#669 = CONICAL_SURFACE('',#670,3.1,0.785398163397);
#670 = AXIS2_PLACEMENT_3D('',#671,#672,#673);
#671 = CARTESIAN_POINT('',(139.99999165534,90.,-39.0000333786));
#672 = DIRECTION('',(-2.384185933124E-07,0.,-1.));
#673 = DIRECTION('',(-0.516129032258,-0.856510841765,1.230547578387E-07)
  );
#674 = ADVANCED_FACE('',(#675),#765,.F.);
#675 = FACE_BOUND('',#676,.T.);
#676 = EDGE_LOOP('',(#677,#684,#685,#686,#687,#688,#689,#690,#699,#707,
    #716,#724,#733,#741,#750,#758));
#677 = ORIENTED_EDGE('',*,*,#678,.F.);
#678 = EDGE_CURVE('',#196,#679,#681,.T.);
#679 = VERTEX_POINT('',#680);
#680 = CARTESIAN_POINT('',(143.10000023841,70.,-3.000034117701));
#681 = B_SPLINE_CURVE_WITH_KNOTS('',1,(#682,#683),.UNSPECIFIED.,.F.,.F.,
  (2,2),(0.,37.),.PIECEWISE_BEZIER_KNOTS.);
#682 = CARTESIAN_POINT('',(143.09999141692,70.,-40.0000341177));
#683 = CARTESIAN_POINT('',(143.10000023841,70.,-3.000034117701));
#684 = ORIENTED_EDGE('',*,*,#252,.T.);
#685 = ORIENTED_EDGE('',*,*,#311,.T.);
#686 = ORIENTED_EDGE('',*,*,#275,.T.);
#687 = ORIENTED_EDGE('',*,*,#227,.T.);
#688 = ORIENTED_EDGE('',*,*,#203,.T.);
#689 = ORIENTED_EDGE('',*,*,#678,.T.);
#690 = ORIENTED_EDGE('',*,*,#691,.F.);
#691 = EDGE_CURVE('',#692,#679,#694,.T.);
#692 = VERTEX_POINT('',#693);
#693 = CARTESIAN_POINT('',(141.60000023841,72.65518360947,
    -3.000033760073));
#694 = CIRCLE('',#695,3.1);
#695 = AXIS2_PLACEMENT_3D('',#696,#697,#698);
#696 = CARTESIAN_POINT('',(140.00000023841,70.,-3.000033378603));
#697 = DIRECTION('',(-2.384185933124E-07,-0.,-1.));
#698 = DIRECTION('',(1.,0.,-2.384185933124E-07));
#699 = ORIENTED_EDGE('',*,*,#700,.T.);
#700 = EDGE_CURVE('',#692,#701,#703,.T.);
#701 = VERTEX_POINT('',#702);
#702 = CARTESIAN_POINT('',(141.60000028609,72.65518360947,
    -2.800033760073));
#703 = LINE('',#704,#705);
#704 = CARTESIAN_POINT('',(141.59999141692,72.65518360947,
    -40.00003376007));
#705 = VECTOR('',#706,1.);
#706 = DIRECTION('',(2.384185933124E-07,0.,1.));
#707 = ORIENTED_EDGE('',*,*,#708,.F.);
#708 = EDGE_CURVE('',#709,#701,#711,.T.);
#709 = VERTEX_POINT('',#710);
#710 = CARTESIAN_POINT('',(138.40000028609,72.65518360947,
    -2.800032997133));
#711 = CIRCLE('',#712,3.1);
#712 = AXIS2_PLACEMENT_3D('',#713,#714,#715);
#713 = CARTESIAN_POINT('',(140.00000028609,70.,-2.800033378603));
#714 = DIRECTION('',(-2.384185933124E-07,0.,-1.));
#715 = DIRECTION('',(-1.,0.,2.384185933124E-07));
#716 = ORIENTED_EDGE('',*,*,#717,.F.);
#717 = EDGE_CURVE('',#718,#709,#720,.T.);
#718 = VERTEX_POINT('',#719);
#719 = CARTESIAN_POINT('',(138.40000023841,72.65518360947,
    -3.000032997133));
#720 = LINE('',#721,#722);
#721 = CARTESIAN_POINT('',(138.39999141692,72.65518360947,
    -40.00003299713));
#722 = VECTOR('',#723,1.);
#723 = DIRECTION('',(2.384185933124E-07,0.,1.));
#724 = ORIENTED_EDGE('',*,*,#725,.F.);
#725 = EDGE_CURVE('',#726,#718,#728,.T.);
#726 = VERTEX_POINT('',#727);
#727 = CARTESIAN_POINT('',(138.40000023841,67.34481639053,
    -3.000032997133));
#728 = CIRCLE('',#729,3.1);
#729 = AXIS2_PLACEMENT_3D('',#730,#731,#732);
#730 = CARTESIAN_POINT('',(140.00000023841,70.,-3.000033378603));
#731 = DIRECTION('',(-2.384185933124E-07,-0.,-1.));
#732 = DIRECTION('',(1.,0.,-2.384185933124E-07));
#733 = ORIENTED_EDGE('',*,*,#734,.T.);
#734 = EDGE_CURVE('',#726,#735,#737,.T.);
#735 = VERTEX_POINT('',#736);
#736 = CARTESIAN_POINT('',(138.40000028609,67.34481639053,
    -2.800032997133));
#737 = LINE('',#738,#739);
#738 = CARTESIAN_POINT('',(138.39999141692,67.34481639053,
    -40.00003299713));
#739 = VECTOR('',#740,1.);
#740 = DIRECTION('',(2.384185933124E-07,0.,1.));
#741 = ORIENTED_EDGE('',*,*,#742,.F.);
#742 = EDGE_CURVE('',#743,#735,#745,.T.);
#743 = VERTEX_POINT('',#744);
#744 = CARTESIAN_POINT('',(141.60000028609,67.34481639053,
    -2.800033760073));
#745 = CIRCLE('',#746,3.1);
#746 = AXIS2_PLACEMENT_3D('',#747,#748,#749);
#747 = CARTESIAN_POINT('',(140.00000028609,70.,-2.800033378603));
#748 = DIRECTION('',(-2.384185933124E-07,0.,-1.));
#749 = DIRECTION('',(-1.,0.,2.384185933124E-07));
#750 = ORIENTED_EDGE('',*,*,#751,.F.);
#751 = EDGE_CURVE('',#752,#743,#754,.T.);
#752 = VERTEX_POINT('',#753);
#753 = CARTESIAN_POINT('',(141.60000023841,67.34481639053,
    -3.000033760073));
#754 = LINE('',#755,#756);
#755 = CARTESIAN_POINT('',(141.59999141692,67.34481639053,
    -40.00003376007));
#756 = VECTOR('',#757,1.);
#757 = DIRECTION('',(2.384185933124E-07,0.,1.));
#758 = ORIENTED_EDGE('',*,*,#759,.F.);
#759 = EDGE_CURVE('',#679,#752,#760,.T.);
#760 = CIRCLE('',#761,3.1);
#761 = AXIS2_PLACEMENT_3D('',#762,#763,#764);
#762 = CARTESIAN_POINT('',(140.00000023841,70.,-3.000033378603));
#763 = DIRECTION('',(-2.384185933124E-07,-0.,-1.));
#764 = DIRECTION('',(1.,0.,-2.384185933124E-07));
#765 = CYLINDRICAL_SURFACE('',#766,3.1);
#766 = AXIS2_PLACEMENT_3D('',#767,#768,#769);
#767 = CARTESIAN_POINT('',(139.99999141692,70.,-40.0000333786));
#768 = DIRECTION('',(2.384185933124E-07,0.,1.));
#769 = DIRECTION('',(1.,0.,-2.384185933124E-07));
#770 = ADVANCED_FACE('',(#771),#783,.T.);
#771 = FACE_BOUND('',#772,.F.);
#772 = EDGE_LOOP('',(#773,#774,#781,#782));
#773 = ORIENTED_EDGE('',*,*,#326,.T.);
#774 = ORIENTED_EDGE('',*,*,#775,.T.);
#775 = EDGE_CURVE('',#329,#472,#776,.T.);
#776 = CIRCLE('',#777,10.);
#777 = AXIS2_PLACEMENT_3D('',#778,#779,#780);
#778 = CARTESIAN_POINT('',(115.99996387699,85.,-30.00002765654));
#779 = DIRECTION('',(2.384185933124E-07,1.009741958683E-28,1.));
#780 = DIRECTION('',(2.99241188921E-06,0.999999999996,
    -7.134466332368E-13));
#781 = ORIENTED_EDGE('',*,*,#479,.F.);
#782 = ORIENTED_EDGE('',*,*,#415,.F.);
#783 = CYLINDRICAL_SURFACE('',#784,10.);
#784 = AXIS2_PLACEMENT_3D('',#785,#786,#787);
#785 = CARTESIAN_POINT('',(115.99996220806,85.,-37.00002765654));
#786 = DIRECTION('',(-2.384185933124E-07,0.,-1.));
#787 = DIRECTION('',(-1.,0.,2.384185933124E-07));
#788 = ADVANCED_FACE('',(#789),#816,.T.);
#789 = FACE_BOUND('',#790,.F.);
#790 = EDGE_LOOP('',(#791,#800,#808,#815));
#791 = ORIENTED_EDGE('',*,*,#792,.T.);
#792 = EDGE_CURVE('',#337,#793,#795,.T.);
#793 = VERTEX_POINT('',#794);
#794 = CARTESIAN_POINT('',(129.99999451636,91.999999999997,
    -27.00003099441));
#795 = CIRCLE('',#796,3.);
#796 = AXIS2_PLACEMENT_3D('',#797,#798,#799);
#797 = CARTESIAN_POINT('',(129.99999380111,91.999999999997,
    -30.00003099441));
#798 = DIRECTION('',(1.,0.,-2.384185933124E-07));
#799 = DIRECTION('',(2.384185933124E-07,0.,1.));
#800 = ORIENTED_EDGE('',*,*,#801,.T.);
#801 = EDGE_CURVE('',#793,#802,#804,.T.);
#802 = VERTEX_POINT('',#803);
#803 = CARTESIAN_POINT('',(115.99999451636,91.999999999997,
    -27.00002765655));
#804 = LINE('',#805,#806);
#805 = CARTESIAN_POINT('',(129.99999451636,91.999999999997,
    -27.00003099441));
#806 = VECTOR('',#807,1.);
#807 = DIRECTION('',(-1.,0.,2.384185933124E-07));
#808 = ORIENTED_EDGE('',*,*,#809,.F.);
#809 = EDGE_CURVE('',#329,#802,#810,.T.);
#810 = CIRCLE('',#811,3.);
#811 = AXIS2_PLACEMENT_3D('',#812,#813,#814);
#812 = CARTESIAN_POINT('',(115.99999380111,91.999999999997,
    -30.00002765655));
#813 = DIRECTION('',(1.,0.,-2.384185933124E-07));
#814 = DIRECTION('',(-6.678104798681E-21,1.,-2.801E-14));
#815 = ORIENTED_EDGE('',*,*,#336,.F.);
#816 = CYLINDRICAL_SURFACE('',#817,3.);
#817 = AXIS2_PLACEMENT_3D('',#818,#819,#820);
#818 = CARTESIAN_POINT('',(129.99999380111,91.999999999997,
    -30.00003099441));
#819 = DIRECTION('',(-1.,0.,2.384185933124E-07));
#820 = DIRECTION('',(-6.678104798681E-21,1.,-2.801E-14));
#821 = ADVANCED_FACE('',(#822),#850,.F.);
#822 = FACE_BOUND('',#823,.F.);
#823 = EDGE_LOOP('',(#824,#832,#833,#834,#835,#841,#842,#843));
#824 = ORIENTED_EDGE('',*,*,#825,.F.);
#825 = EDGE_CURVE('',#793,#826,#828,.T.);
#826 = VERTEX_POINT('',#827);
#827 = CARTESIAN_POINT('',(129.99999451636,68.686710828726,
    -27.00003099441));
#828 = LINE('',#829,#830);
#829 = CARTESIAN_POINT('',(129.99999451636,95.,-27.00003099441));
#830 = VECTOR('',#831,1.);
#831 = DIRECTION('',(-0.,-1.,-0.));
#832 = ORIENTED_EDGE('',*,*,#792,.F.);
#833 = ORIENTED_EDGE('',*,*,#344,.F.);
#834 = ORIENTED_EDGE('',*,*,#352,.T.);
#835 = ORIENTED_EDGE('',*,*,#836,.T.);
#836 = EDGE_CURVE('',#353,#521,#837,.T.);
#837 = LINE('',#838,#839);
#838 = CARTESIAN_POINT('',(130.00000095367,95.,-3.09944172443E-05));
#839 = VECTOR('',#840,1.);
#840 = DIRECTION('',(-0.,-1.,-0.));
#841 = ORIENTED_EDGE('',*,*,#528,.F.);
#842 = ORIENTED_EDGE('',*,*,#536,.F.);
#843 = ORIENTED_EDGE('',*,*,#844,.T.);
#844 = EDGE_CURVE('',#464,#826,#845,.T.);
#845 = ELLIPSE('',#846,3.686710828738,3.);
#846 = AXIS2_PLACEMENT_3D('',#847,#848,#849);
#847 = CARTESIAN_POINT('',(129.99999380111,68.686710828726,
    -30.00003099441));
#848 = DIRECTION('',(-1.,0.,2.384185933124E-07));
#849 = DIRECTION('',(-0.,-1.,-0.));
#850 = PLANE('',#851);
#851 = AXIS2_PLACEMENT_3D('',#852,#853,#854);
#852 = CARTESIAN_POINT('',(129.99999451636,95.,-27.00003099441));
#853 = DIRECTION('',(1.,0.,-2.384185933124E-07));
#854 = DIRECTION('',(0.,-1.,0.));
#855 = ADVANCED_FACE('',(#856,#864,#875),#886,.T.);
#856 = FACE_BOUND('',#857,.T.);
#857 = EDGE_LOOP('',(#858,#859,#860,#861,#862,#863));
#858 = ORIENTED_EDGE('',*,*,#520,.T.);
#859 = ORIENTED_EDGE('',*,*,#504,.F.);
#860 = ORIENTED_EDGE('',*,*,#439,.T.);
#861 = ORIENTED_EDGE('',*,*,#398,.F.);
#862 = ORIENTED_EDGE('',*,*,#360,.T.);
#863 = ORIENTED_EDGE('',*,*,#836,.T.);
#864 = FACE_BOUND('',#865,.T.);
#865 = EDGE_LOOP('',(#866));
#866 = ORIENTED_EDGE('',*,*,#867,.F.);
#867 = EDGE_CURVE('',#868,#868,#870,.T.);
#868 = VERTEX_POINT('',#869);
#869 = CARTESIAN_POINT('',(141.60000095367,90.,-3.376007292672E-05));
#870 = CIRCLE('',#871,1.6);
#871 = AXIS2_PLACEMENT_3D('',#872,#873,#874);
#872 = CARTESIAN_POINT('',(140.00000095367,90.,-3.337860317742E-05));
#873 = DIRECTION('',(2.384185933124E-07,-0.,1.));
#874 = DIRECTION('',(1.,0.,-2.384185933124E-07));
#875 = FACE_BOUND('',#876,.T.);
#876 = EDGE_LOOP('',(#877));
#877 = ORIENTED_EDGE('',*,*,#878,.F.);
#878 = EDGE_CURVE('',#879,#879,#881,.T.);
#879 = VERTEX_POINT('',#880);
#880 = CARTESIAN_POINT('',(141.60000095367,70.,-3.376007292672E-05));
#881 = CIRCLE('',#882,1.6);
#882 = AXIS2_PLACEMENT_3D('',#883,#884,#885);
#883 = CARTESIAN_POINT('',(140.00000095367,70.,-3.337860317742E-05));
#884 = DIRECTION('',(2.384185933124E-07,-0.,1.));
#885 = DIRECTION('',(1.,0.,-2.384185933124E-07));
#886 = PLANE('',#887);
#887 = AXIS2_PLACEMENT_3D('',#888,#889,#890);
#888 = CARTESIAN_POINT('',(140.00000095367,80.,-3.337860317743E-05));
#889 = DIRECTION('',(2.384185933124E-07,0.,1.));
#890 = DIRECTION('',(-1.,0.,2.384185933124E-07));
#891 = ADVANCED_FACE('',(#892),#927,.T.);
#892 = FACE_BOUND('',#893,.F.);
#893 = EDGE_LOOP('',(#894,#895,#896,#921));
#894 = ORIENTED_EDGE('',*,*,#844,.F.);
#895 = ORIENTED_EDGE('',*,*,#471,.F.);
#896 = ORIENTED_EDGE('',*,*,#897,.T.);
#897 = EDGE_CURVE('',#472,#898,#900,.T.);
#898 = VERTEX_POINT('',#899);
#899 = CARTESIAN_POINT('',(116.88308643185,78.055930889138,
    -27.0000278671));
#900 = B_SPLINE_CURVE_WITH_KNOTS('',7,(#901,#902,#903,#904,#905,#906,
    #907,#908,#909,#910,#911,#912,#913,#914,#915,#916,#917,#918,#919,
    #920),.UNSPECIFIED.,.F.,.F.,(8,6,6,8),(0.,0.35195891157,
    0.539010741017,1.),.UNSPECIFIED.);
#901 = CARTESIAN_POINT('',(115.99999380109,75.000000000045,
    -30.00002765655));
#902 = CARTESIAN_POINT('',(115.99999386046,75.000000000045,
    -29.75102958718));
#903 = CARTESIAN_POINT('',(116.00772070302,75.024111338149,
    -29.50191720604));
#904 = CARTESIAN_POINT('',(116.02318677737,75.072372428501,
    -29.25620600126));
#905 = CARTESIAN_POINT('',(116.04609012225,75.144044609531,
    -29.01707884305));
#906 = CARTESIAN_POINT('',(116.07591290775,75.237912943012,
    -28.78740419295));
#907 = CARTESIAN_POINT('',(116.1119512721,75.352320594773,-28.569734193)
  );
#908 = CARTESIAN_POINT('',(116.17533253804,75.555725466861,
    -28.2580959318));
#909 = CARTESIAN_POINT('',(116.19884591935,75.631537607413,
    -28.15391541677));
#910 = CARTESIAN_POINT('',(116.22375475757,75.712279319152,
    -28.0540044278));
#911 = CARTESIAN_POINT('',(116.24992989575,75.797639817411,
    -27.95862211675));
#912 = CARTESIAN_POINT('',(116.27723821033,75.887297478015,
    -27.86798773095));
#913 = CARTESIAN_POINT('',(116.30554495214,75.980924402804,
    -27.78228438957));
#914 = CARTESIAN_POINT('',(116.40660835452,76.317904490532,
    -27.50297108939));
#915 = CARTESIAN_POINT('',(116.48375352162,76.579733806383,
    -27.33513668193));
#916 = CARTESIAN_POINT('',(116.56414307856,76.858740276504,
    -27.20041176204));
#917 = CARTESIAN_POINT('',(116.6458562724,77.150134434194,
    -27.09965189895));
#918 = CARTESIAN_POINT('',(116.72718364598,77.44947727591,
    -27.03300721992));
#919 = CARTESIAN_POINT('',(116.80665618053,77.752656723322,
    -27.00002770822));
#920 = CARTESIAN_POINT('',(116.88308643541,78.055930889591,
    -27.0000278671));
#921 = ORIENTED_EDGE('',*,*,#922,.T.);
#922 = EDGE_CURVE('',#898,#826,#923,.T.);
#923 = LINE('',#924,#925);
#924 = CARTESIAN_POINT('',(117.74370909752,77.441200413655,
    -27.00002807229));
#925 = VECTOR('',#926,1.);
#926 = DIRECTION('',(0.813733471205,-0.581238193721,-1.94009189536E-07)
  );
#927 = CYLINDRICAL_SURFACE('',#928,3.);
#928 = AXIS2_PLACEMENT_3D('',#929,#930,#931);
#929 = CARTESIAN_POINT('',(117.74370838226,77.441200413655,
    -30.00002807229));
#930 = DIRECTION('',(0.813733471205,-0.581238193721,-1.94009189536E-07)
  );
#931 = DIRECTION('',(-0.581238193721,-0.813733471206,1.385791873364E-07)
  );
#932 = ADVANCED_FACE('',(#933),#1023,.F.);
#933 = FACE_BOUND('',#934,.T.);
#934 = EDGE_LOOP('',(#935,#942,#943,#944,#945,#946,#947,#948,#957,#965,
    #974,#982,#991,#999,#1008,#1016));
#935 = ORIENTED_EDGE('',*,*,#936,.F.);
#936 = EDGE_CURVE('',#554,#937,#939,.T.);
#937 = VERTEX_POINT('',#938);
#938 = CARTESIAN_POINT('',(143.10000023841,90.,-3.000034117701));
#939 = B_SPLINE_CURVE_WITH_KNOTS('',1,(#940,#941),.UNSPECIFIED.,.F.,.F.,
  (2,2),(0.,37.),.PIECEWISE_BEZIER_KNOTS.);
#940 = CARTESIAN_POINT('',(143.09999141692,90.,-40.0000341177));
#941 = CARTESIAN_POINT('',(143.10000023841,90.,-3.000034117701));
#942 = ORIENTED_EDGE('',*,*,#570,.T.);
#943 = ORIENTED_EDGE('',*,*,#620,.T.);
#944 = ORIENTED_EDGE('',*,*,#663,.T.);
#945 = ORIENTED_EDGE('',*,*,#645,.T.);
#946 = ORIENTED_EDGE('',*,*,#595,.T.);
#947 = ORIENTED_EDGE('',*,*,#936,.T.);
#948 = ORIENTED_EDGE('',*,*,#949,.F.);
#949 = EDGE_CURVE('',#950,#937,#952,.T.);
#950 = VERTEX_POINT('',#951);
#951 = CARTESIAN_POINT('',(141.60000023841,92.65518360947,
    -3.000033760073));
#952 = CIRCLE('',#953,3.1);
#953 = AXIS2_PLACEMENT_3D('',#954,#955,#956);
#954 = CARTESIAN_POINT('',(140.00000023841,90.,-3.000033378603));
#955 = DIRECTION('',(-2.384185933124E-07,-0.,-1.));
#956 = DIRECTION('',(1.,0.,-2.384185933124E-07));
#957 = ORIENTED_EDGE('',*,*,#958,.T.);
#958 = EDGE_CURVE('',#950,#959,#961,.T.);
#959 = VERTEX_POINT('',#960);
#960 = CARTESIAN_POINT('',(141.60000028609,92.65518360947,
    -2.800033760073));
#961 = LINE('',#962,#963);
#962 = CARTESIAN_POINT('',(141.59999141692,92.65518360947,
    -40.00003376007));
#963 = VECTOR('',#964,1.);
#964 = DIRECTION('',(2.384185933124E-07,0.,1.));
#965 = ORIENTED_EDGE('',*,*,#966,.F.);
#966 = EDGE_CURVE('',#967,#959,#969,.T.);
#967 = VERTEX_POINT('',#968);
#968 = CARTESIAN_POINT('',(138.40000028609,92.65518360947,
    -2.800032997133));
#969 = CIRCLE('',#970,3.1);
#970 = AXIS2_PLACEMENT_3D('',#971,#972,#973);
#971 = CARTESIAN_POINT('',(140.00000028609,90.,-2.800033378603));
#972 = DIRECTION('',(-2.384185933124E-07,0.,-1.));
#973 = DIRECTION('',(-1.,0.,2.384185933124E-07));
#974 = ORIENTED_EDGE('',*,*,#975,.F.);
#975 = EDGE_CURVE('',#976,#967,#978,.T.);
#976 = VERTEX_POINT('',#977);
#977 = CARTESIAN_POINT('',(138.40000023841,92.65518360947,
    -3.000032997133));
#978 = LINE('',#979,#980);
#979 = CARTESIAN_POINT('',(138.39999141692,92.65518360947,
    -40.00003299713));
#980 = VECTOR('',#981,1.);
#981 = DIRECTION('',(2.384185933124E-07,0.,1.));
#982 = ORIENTED_EDGE('',*,*,#983,.F.);
#983 = EDGE_CURVE('',#984,#976,#986,.T.);
#984 = VERTEX_POINT('',#985);
#985 = CARTESIAN_POINT('',(138.40000023841,87.34481639053,
    -3.000032997133));
#986 = CIRCLE('',#987,3.1);
#987 = AXIS2_PLACEMENT_3D('',#988,#989,#990);
#988 = CARTESIAN_POINT('',(140.00000023841,90.,-3.000033378603));
#989 = DIRECTION('',(-2.384185933124E-07,-0.,-1.));
#990 = DIRECTION('',(1.,0.,-2.384185933124E-07));
#991 = ORIENTED_EDGE('',*,*,#992,.T.);
#992 = EDGE_CURVE('',#984,#993,#995,.T.);
#993 = VERTEX_POINT('',#994);
#994 = CARTESIAN_POINT('',(138.40000028609,87.34481639053,
    -2.800032997133));
#995 = LINE('',#996,#997);
#996 = CARTESIAN_POINT('',(138.39999141692,87.34481639053,
    -40.00003299713));
#997 = VECTOR('',#998,1.);
#998 = DIRECTION('',(2.384185933124E-07,0.,1.));
#999 = ORIENTED_EDGE('',*,*,#1000,.F.);
#1000 = EDGE_CURVE('',#1001,#993,#1003,.T.);
#1001 = VERTEX_POINT('',#1002);
#1002 = CARTESIAN_POINT('',(141.60000028609,87.34481639053,
    -2.800033760073));
#1003 = CIRCLE('',#1004,3.1);
#1004 = AXIS2_PLACEMENT_3D('',#1005,#1006,#1007);
#1005 = CARTESIAN_POINT('',(140.00000028609,90.,-2.800033378603));
#1006 = DIRECTION('',(-2.384185933124E-07,0.,-1.));
#1007 = DIRECTION('',(-1.,0.,2.384185933124E-07));
#1008 = ORIENTED_EDGE('',*,*,#1009,.F.);
#1009 = EDGE_CURVE('',#1010,#1001,#1012,.T.);
#1010 = VERTEX_POINT('',#1011);
#1011 = CARTESIAN_POINT('',(141.60000023841,87.34481639053,
    -3.000033760073));
#1012 = LINE('',#1013,#1014);
#1013 = CARTESIAN_POINT('',(141.59999141692,87.34481639053,
    -40.00003376007));
#1014 = VECTOR('',#1015,1.);
#1015 = DIRECTION('',(2.384185933124E-07,0.,1.));
#1016 = ORIENTED_EDGE('',*,*,#1017,.F.);
#1017 = EDGE_CURVE('',#937,#1010,#1018,.T.);
#1018 = CIRCLE('',#1019,3.1);
#1019 = AXIS2_PLACEMENT_3D('',#1020,#1021,#1022);
#1020 = CARTESIAN_POINT('',(140.00000023841,90.,-3.000033378603));
#1021 = DIRECTION('',(-2.384185933124E-07,-0.,-1.));
#1022 = DIRECTION('',(1.,0.,-2.384185933124E-07));
#1023 = CYLINDRICAL_SURFACE('',#1024,3.1);
#1024 = AXIS2_PLACEMENT_3D('',#1025,#1026,#1027);
#1025 = CARTESIAN_POINT('',(139.99999141692,90.,-40.0000333786));
#1026 = DIRECTION('',(2.384185933124E-07,0.,1.));
#1027 = DIRECTION('',(1.,0.,-2.384185933124E-07));
#1028 = ADVANCED_FACE('',(#1029),#1039,.T.);
#1029 = FACE_BOUND('',#1030,.T.);
#1030 = EDGE_LOOP('',(#1031,#1032,#1033));
#1031 = ORIENTED_EDGE('',*,*,#691,.T.);
#1032 = ORIENTED_EDGE('',*,*,#759,.T.);
#1033 = ORIENTED_EDGE('',*,*,#1034,.F.);
#1034 = EDGE_CURVE('',#692,#752,#1035,.T.);
#1035 = LINE('',#1036,#1037);
#1036 = CARTESIAN_POINT('',(141.60000023841,71.327591804735,
    -3.000033760073));
#1037 = VECTOR('',#1038,1.);
#1038 = DIRECTION('',(-0.,-1.,-0.));
#1039 = PLANE('',#1040);
#1040 = AXIS2_PLACEMENT_3D('',#1041,#1042,#1043);
#1041 = CARTESIAN_POINT('',(140.00000023841,70.,-3.000033378603));
#1042 = DIRECTION('',(-2.384185933124E-07,-0.,-1.));
#1043 = DIRECTION('',(1.,0.,-2.384185933124E-07));
#1044 = ADVANCED_FACE('',(#1045),#1096,.T.);
#1045 = FACE_BOUND('',#1046,.T.);
#1046 = EDGE_LOOP('',(#1047,#1055,#1063,#1071,#1079,#1087,#1093,#1094,
    #1095));
#1047 = ORIENTED_EDGE('',*,*,#1048,.F.);
#1048 = EDGE_CURVE('',#1049,#743,#1051,.T.);
#1049 = VERTEX_POINT('',#1050);
#1050 = CARTESIAN_POINT('',(141.60000028609,68.4,-2.800033760073));
#1051 = LINE('',#1052,#1053);
#1052 = CARTESIAN_POINT('',(141.60000028609,72.65518360947,
    -2.800033760073));
#1053 = VECTOR('',#1054,1.);
#1054 = DIRECTION('',(0.,-1.,0.));
#1055 = ORIENTED_EDGE('',*,*,#1056,.T.);
#1056 = EDGE_CURVE('',#1049,#1057,#1059,.T.);
#1057 = VERTEX_POINT('',#1058);
#1058 = CARTESIAN_POINT('',(141.60000033378,68.4,-2.600033760073));
#1059 = LINE('',#1060,#1061);
#1060 = CARTESIAN_POINT('',(141.59999141692,68.4,-40.00003376007));
#1061 = VECTOR('',#1062,1.);
#1062 = DIRECTION('',(2.384185933124E-07,0.,1.));
#1063 = ORIENTED_EDGE('',*,*,#1064,.T.);
#1064 = EDGE_CURVE('',#1057,#1065,#1067,.T.);
#1065 = VERTEX_POINT('',#1066);
#1066 = CARTESIAN_POINT('',(141.60000033378,70.,-2.600033760073));
#1067 = LINE('',#1068,#1069);
#1068 = CARTESIAN_POINT('',(141.60000033378,68.4,-2.600033760073));
#1069 = VECTOR('',#1070,1.);
#1070 = DIRECTION('',(0.,1.,0.));
#1071 = ORIENTED_EDGE('',*,*,#1072,.T.);
#1072 = EDGE_CURVE('',#1065,#1073,#1075,.T.);
#1073 = VERTEX_POINT('',#1074);
#1074 = CARTESIAN_POINT('',(141.60000033378,71.6,-2.600033760073));
#1075 = LINE('',#1076,#1077);
#1076 = CARTESIAN_POINT('',(141.60000033378,68.4,-2.600033760073));
#1077 = VECTOR('',#1078,1.);
#1078 = DIRECTION('',(0.,1.,0.));
#1079 = ORIENTED_EDGE('',*,*,#1080,.F.);
#1080 = EDGE_CURVE('',#1081,#1073,#1083,.T.);
#1081 = VERTEX_POINT('',#1082);
#1082 = CARTESIAN_POINT('',(141.60000028609,71.6,-2.800033760073));
#1083 = LINE('',#1084,#1085);
#1084 = CARTESIAN_POINT('',(141.59999141692,71.6,-40.00003376007));
#1085 = VECTOR('',#1086,1.);
#1086 = DIRECTION('',(2.384185933124E-07,0.,1.));
#1087 = ORIENTED_EDGE('',*,*,#1088,.F.);
#1088 = EDGE_CURVE('',#701,#1081,#1089,.T.);
#1089 = LINE('',#1090,#1091);
#1090 = CARTESIAN_POINT('',(141.60000028609,72.65518360947,
    -2.800033760073));
#1091 = VECTOR('',#1092,1.);
#1092 = DIRECTION('',(0.,-1.,0.));
#1093 = ORIENTED_EDGE('',*,*,#700,.F.);
#1094 = ORIENTED_EDGE('',*,*,#1034,.T.);
#1095 = ORIENTED_EDGE('',*,*,#751,.T.);
#1096 = PLANE('',#1097);
#1097 = AXIS2_PLACEMENT_3D('',#1098,#1099,#1100);
#1098 = CARTESIAN_POINT('',(141.60000027728,70.,-2.836990529017));
#1099 = DIRECTION('',(-1.,0.,2.384185933124E-07));
#1100 = DIRECTION('',(2.384185933124E-07,0.,1.));
#1101 = ADVANCED_FACE('',(#1102),#1120,.F.);
#1102 = FACE_BOUND('',#1103,.F.);
#1103 = EDGE_LOOP('',(#1104,#1105,#1113,#1119));
#1104 = ORIENTED_EDGE('',*,*,#1048,.F.);
#1105 = ORIENTED_EDGE('',*,*,#1106,.T.);
#1106 = EDGE_CURVE('',#1049,#1107,#1109,.T.);
#1107 = VERTEX_POINT('',#1108);
#1108 = CARTESIAN_POINT('',(138.40000028609,68.4,-2.800032997133));
#1109 = LINE('',#1110,#1111);
#1110 = CARTESIAN_POINT('',(139.20000028609,68.4,-2.800033187868));
#1111 = VECTOR('',#1112,1.);
#1112 = DIRECTION('',(-1.,0.,2.384185933124E-07));
#1113 = ORIENTED_EDGE('',*,*,#1114,.T.);
#1114 = EDGE_CURVE('',#1107,#735,#1115,.T.);
#1115 = LINE('',#1116,#1117);
#1116 = CARTESIAN_POINT('',(138.40000028609,72.65518360947,
    -2.800032997133));
#1117 = VECTOR('',#1118,1.);
#1118 = DIRECTION('',(0.,-1.,0.));
#1119 = ORIENTED_EDGE('',*,*,#742,.F.);
#1120 = PLANE('',#1121);
#1121 = AXIS2_PLACEMENT_3D('',#1122,#1123,#1124);
#1122 = CARTESIAN_POINT('',(140.00000028609,80.,-2.800033378603));
#1123 = DIRECTION('',(2.384185933124E-07,0.,1.));
#1124 = DIRECTION('',(-1.,0.,2.384185933124E-07));
#1125 = ADVANCED_FACE('',(#1126),#1175,.T.);
#1126 = FACE_BOUND('',#1127,.T.);
#1127 = EDGE_LOOP('',(#1128,#1134,#1135,#1143,#1151,#1159,#1167,#1173,
    #1174));
#1128 = ORIENTED_EDGE('',*,*,#1129,.F.);
#1129 = EDGE_CURVE('',#718,#726,#1130,.T.);
#1130 = LINE('',#1131,#1132);
#1131 = CARTESIAN_POINT('',(138.40000023841,71.327591804735,
    -3.000032997133));
#1132 = VECTOR('',#1133,1.);
#1133 = DIRECTION('',(-0.,-1.,-0.));
#1134 = ORIENTED_EDGE('',*,*,#717,.T.);
#1135 = ORIENTED_EDGE('',*,*,#1136,.T.);
#1136 = EDGE_CURVE('',#709,#1137,#1139,.T.);
#1137 = VERTEX_POINT('',#1138);
#1138 = CARTESIAN_POINT('',(138.40000028609,71.6,-2.800032997133));
#1139 = LINE('',#1140,#1141);
#1140 = CARTESIAN_POINT('',(138.40000028609,72.65518360947,
    -2.800032997133));
#1141 = VECTOR('',#1142,1.);
#1142 = DIRECTION('',(0.,-1.,0.));
#1143 = ORIENTED_EDGE('',*,*,#1144,.T.);
#1144 = EDGE_CURVE('',#1137,#1145,#1147,.T.);
#1145 = VERTEX_POINT('',#1146);
#1146 = CARTESIAN_POINT('',(138.40000033378,71.6,-2.600032997133));
#1147 = LINE('',#1148,#1149);
#1148 = CARTESIAN_POINT('',(138.39999141692,71.6,-40.00003299713));
#1149 = VECTOR('',#1150,1.);
#1150 = DIRECTION('',(2.384185933124E-07,0.,1.));
#1151 = ORIENTED_EDGE('',*,*,#1152,.T.);
#1152 = EDGE_CURVE('',#1145,#1153,#1155,.T.);
#1153 = VERTEX_POINT('',#1154);
#1154 = CARTESIAN_POINT('',(138.40000033378,70.,-2.600032997133));
#1155 = LINE('',#1156,#1157);
#1156 = CARTESIAN_POINT('',(138.40000033378,71.6,-2.600032997133));
#1157 = VECTOR('',#1158,1.);
#1158 = DIRECTION('',(0.,-1.,0.));
#1159 = ORIENTED_EDGE('',*,*,#1160,.T.);
#1160 = EDGE_CURVE('',#1153,#1161,#1163,.T.);
#1161 = VERTEX_POINT('',#1162);
#1162 = CARTESIAN_POINT('',(138.40000033378,68.4,-2.600032997133));
#1163 = LINE('',#1164,#1165);
#1164 = CARTESIAN_POINT('',(138.40000033378,71.6,-2.600032997133));
#1165 = VECTOR('',#1166,1.);
#1166 = DIRECTION('',(0.,-1.,0.));
#1167 = ORIENTED_EDGE('',*,*,#1168,.F.);
#1168 = EDGE_CURVE('',#1107,#1161,#1169,.T.);
#1169 = LINE('',#1170,#1171);
#1170 = CARTESIAN_POINT('',(138.39999141692,68.4,-40.00003299713));
#1171 = VECTOR('',#1172,1.);
#1172 = DIRECTION('',(2.384185933124E-07,0.,1.));
#1173 = ORIENTED_EDGE('',*,*,#1114,.T.);
#1174 = ORIENTED_EDGE('',*,*,#734,.F.);
#1175 = PLANE('',#1176);
#1176 = AXIS2_PLACEMENT_3D('',#1177,#1178,#1179);
#1177 = CARTESIAN_POINT('',(138.40000027728,70.,-2.836989766077));
#1178 = DIRECTION('',(1.,0.,-2.384185933124E-07));
#1179 = DIRECTION('',(-2.384185933124E-07,-0.,-1.));
#1180 = ADVANCED_FACE('',(#1181),#1185,.T.);
#1181 = FACE_BOUND('',#1182,.T.);
#1182 = EDGE_LOOP('',(#1183,#1184));
#1183 = ORIENTED_EDGE('',*,*,#1129,.T.);
#1184 = ORIENTED_EDGE('',*,*,#725,.T.);
#1185 = PLANE('',#1186);
#1186 = AXIS2_PLACEMENT_3D('',#1187,#1188,#1189);
#1187 = CARTESIAN_POINT('',(140.00000023841,70.,-3.000033378603));
#1188 = DIRECTION('',(-2.384185933124E-07,-0.,-1.));
#1189 = DIRECTION('',(1.,0.,-2.384185933124E-07));
#1190 = ADVANCED_FACE('',(#1191),#1202,.F.);
#1191 = FACE_BOUND('',#1192,.F.);
#1192 = EDGE_LOOP('',(#1193,#1194,#1195,#1201));
#1193 = ORIENTED_EDGE('',*,*,#708,.F.);
#1194 = ORIENTED_EDGE('',*,*,#1136,.T.);
#1195 = ORIENTED_EDGE('',*,*,#1196,.T.);
#1196 = EDGE_CURVE('',#1137,#1081,#1197,.T.);
#1197 = LINE('',#1198,#1199);
#1198 = CARTESIAN_POINT('',(140.80000028609,71.6,-2.800033569338));
#1199 = VECTOR('',#1200,1.);
#1200 = DIRECTION('',(1.,0.,-2.384185933124E-07));
#1201 = ORIENTED_EDGE('',*,*,#1088,.F.);
#1202 = PLANE('',#1203);
#1203 = AXIS2_PLACEMENT_3D('',#1204,#1205,#1206);
#1204 = CARTESIAN_POINT('',(140.00000028609,80.,-2.800033378603));
#1205 = DIRECTION('',(2.384185933124E-07,0.,1.));
#1206 = DIRECTION('',(-1.,0.,2.384185933124E-07));
#1207 = ADVANCED_FACE('',(#1208),#1220,.T.);
#1208 = FACE_BOUND('',#1209,.T.);
#1209 = EDGE_LOOP('',(#1210,#1211,#1212,#1213));
#1210 = ORIENTED_EDGE('',*,*,#809,.F.);
#1211 = ORIENTED_EDGE('',*,*,#775,.T.);
#1212 = ORIENTED_EDGE('',*,*,#897,.T.);
#1213 = ORIENTED_EDGE('',*,*,#1214,.F.);
#1214 = EDGE_CURVE('',#802,#898,#1215,.T.);
#1215 = CIRCLE('',#1216,7.);
#1216 = AXIS2_PLACEMENT_3D('',#1217,#1218,#1219);
#1217 = CARTESIAN_POINT('',(115.99996459225,85.,-27.00002765654));
#1218 = DIRECTION('',(2.384185933124E-07,1.009741958683E-28,1.));
#1219 = DIRECTION('',(2.99241188921E-06,0.999999999996,
    -7.134466332368E-13));
#1220 = TOROIDAL_SURFACE('',#1221,7.,3.);
#1221 = AXIS2_PLACEMENT_3D('',#1222,#1223,#1224);
#1222 = CARTESIAN_POINT('',(115.99996387699,85.,-30.00002765654));
#1223 = DIRECTION('',(2.384185933124E-07,0.,1.));
#1224 = DIRECTION('',(2.99241188921E-06,0.999999999996,
    -7.134466332368E-13));
#1225 = ADVANCED_FACE('',(#1226,#1232),#1282,.T.);
#1226 = FACE_BOUND('',#1227,.T.);
#1227 = EDGE_LOOP('',(#1228,#1229,#1230,#1231));
#1228 = ORIENTED_EDGE('',*,*,#825,.F.);
#1229 = ORIENTED_EDGE('',*,*,#801,.T.);
#1230 = ORIENTED_EDGE('',*,*,#1214,.T.);
#1231 = ORIENTED_EDGE('',*,*,#922,.T.);
#1232 = FACE_BOUND('',#1233,.T.);
#1233 = EDGE_LOOP('',(#1234,#1244,#1252,#1260,#1268,#1276));
#1234 = ORIENTED_EDGE('',*,*,#1235,.F.);
#1235 = EDGE_CURVE('',#1236,#1238,#1240,.T.);
#1236 = VERTEX_POINT('',#1237);
#1237 = CARTESIAN_POINT('',(111.99996459225,82.690598923241,
    -27.00002670287));
#1238 = VERTEX_POINT('',#1239);
#1239 = CARTESIAN_POINT('',(115.99996459225,80.381197846483,
    -27.00002765654));
#1240 = LINE('',#1241,#1242);
#1241 = CARTESIAN_POINT('',(111.99996459225,82.690598923241,
    -27.00002670287));
#1242 = VECTOR('',#1243,1.);
#1243 = DIRECTION('',(0.866025403784,-0.5,-2.064765585431E-07));
#1244 = ORIENTED_EDGE('',*,*,#1245,.F.);
#1245 = EDGE_CURVE('',#1246,#1236,#1248,.T.);
#1246 = VERTEX_POINT('',#1247);
#1247 = CARTESIAN_POINT('',(111.99996459225,87.309401076759,
    -27.00002670287));
#1248 = LINE('',#1249,#1250);
#1249 = CARTESIAN_POINT('',(111.99996459225,87.309401076759,
    -27.00002670287));
#1250 = VECTOR('',#1251,1.);
#1251 = DIRECTION('',(-1.9E-16,-1.,4.529953272936E-23));
#1252 = ORIENTED_EDGE('',*,*,#1253,.F.);
#1253 = EDGE_CURVE('',#1254,#1246,#1256,.T.);
#1254 = VERTEX_POINT('',#1255);
#1255 = CARTESIAN_POINT('',(115.99996459225,89.618802153517,
    -27.00002765654));
#1256 = LINE('',#1257,#1258);
#1257 = CARTESIAN_POINT('',(115.99996459225,89.618802153517,
    -27.00002765654));
#1258 = VECTOR('',#1259,1.);
#1259 = DIRECTION('',(-0.866025403784,-0.5,2.064765585431E-07));
#1260 = ORIENTED_EDGE('',*,*,#1261,.F.);
#1261 = EDGE_CURVE('',#1262,#1254,#1264,.T.);
#1262 = VERTEX_POINT('',#1263);
#1263 = CARTESIAN_POINT('',(119.99996459225,87.309401076759,
    -27.00002861022));
#1264 = LINE('',#1265,#1266);
#1265 = CARTESIAN_POINT('',(119.99996459225,87.309401076759,
    -27.00002861022));
#1266 = VECTOR('',#1267,1.);
#1267 = DIRECTION('',(-0.866025403784,0.5,2.064765585431E-07));
#1268 = ORIENTED_EDGE('',*,*,#1269,.F.);
#1269 = EDGE_CURVE('',#1270,#1262,#1272,.T.);
#1270 = VERTEX_POINT('',#1271);
#1271 = CARTESIAN_POINT('',(119.99996459225,82.690598923241,
    -27.00002861022));
#1272 = LINE('',#1273,#1274);
#1273 = CARTESIAN_POINT('',(119.99996459225,82.690598923241,
    -27.00002861022));
#1274 = VECTOR('',#1275,1.);
#1275 = DIRECTION('',(0.,1.,0.));
#1276 = ORIENTED_EDGE('',*,*,#1277,.F.);
#1277 = EDGE_CURVE('',#1238,#1270,#1278,.T.);
#1278 = LINE('',#1279,#1280);
#1279 = CARTESIAN_POINT('',(115.99996459225,80.381197846483,
    -27.00002765654));
#1280 = VECTOR('',#1281,1.);
#1281 = DIRECTION('',(0.866025403784,0.5,-2.064765585431E-07));
#1282 = PLANE('',#1283);
#1283 = AXIS2_PLACEMENT_3D('',#1284,#1285,#1286);
#1284 = CARTESIAN_POINT('',(128.7438751521,82.054637072754,
    -27.00003069493));
#1285 = DIRECTION('',(2.384185933124E-07,0.,1.));
#1286 = DIRECTION('',(-1.,0.,2.384185933124E-07));
#1287 = ADVANCED_FACE('',(#1288),#1334,.F.);
#1288 = FACE_BOUND('',#1289,.T.);
#1289 = EDGE_LOOP('',(#1290,#1301,#1307,#1308,#1309,#1318,#1327));
#1290 = ORIENTED_EDGE('',*,*,#1291,.F.);
#1291 = EDGE_CURVE('',#1292,#1294,#1296,.T.);
#1292 = VERTEX_POINT('',#1293);
#1293 = CARTESIAN_POINT('',(141.60000033378,90.,-2.600033760073));
#1294 = VERTEX_POINT('',#1295);
#1295 = CARTESIAN_POINT('',(140.00000033378,91.6,-2.600033378603));
#1296 = CIRCLE('',#1297,1.6);
#1297 = AXIS2_PLACEMENT_3D('',#1298,#1299,#1300);
#1298 = CARTESIAN_POINT('',(140.00000033378,90.,-2.600033378603));
#1299 = DIRECTION('',(2.384185933124E-07,-0.,1.));
#1300 = DIRECTION('',(1.,0.,-2.384185933124E-07));
#1301 = ORIENTED_EDGE('',*,*,#1302,.T.);
#1302 = EDGE_CURVE('',#1292,#868,#1303,.T.);
#1303 = LINE('',#1304,#1305);
#1304 = CARTESIAN_POINT('',(141.60000023841,90.,-3.000033760073));
#1305 = VECTOR('',#1306,1.);
#1306 = DIRECTION('',(2.384185932524E-07,0.,1.));
#1307 = ORIENTED_EDGE('',*,*,#867,.T.);
#1308 = ORIENTED_EDGE('',*,*,#1302,.F.);
#1309 = ORIENTED_EDGE('',*,*,#1310,.F.);
#1310 = EDGE_CURVE('',#1311,#1292,#1313,.T.);
#1311 = VERTEX_POINT('',#1312);
#1312 = CARTESIAN_POINT('',(140.00000033378,88.4,-2.600033378603));
#1313 = CIRCLE('',#1314,1.6);
#1314 = AXIS2_PLACEMENT_3D('',#1315,#1316,#1317);
#1315 = CARTESIAN_POINT('',(140.00000033378,90.,-2.600033378603));
#1316 = DIRECTION('',(2.384185933124E-07,-0.,1.));
#1317 = DIRECTION('',(1.,0.,-2.384185933124E-07));
#1318 = ORIENTED_EDGE('',*,*,#1319,.F.);
#1319 = EDGE_CURVE('',#1320,#1311,#1322,.T.);
#1320 = VERTEX_POINT('',#1321);
#1321 = CARTESIAN_POINT('',(138.40000033378,90.,-2.600032997133));
#1322 = CIRCLE('',#1323,1.6);
#1323 = AXIS2_PLACEMENT_3D('',#1324,#1325,#1326);
#1324 = CARTESIAN_POINT('',(140.00000033378,90.,-2.600033378603));
#1325 = DIRECTION('',(2.384185933124E-07,-0.,1.));
#1326 = DIRECTION('',(1.,0.,-2.384185933124E-07));
#1327 = ORIENTED_EDGE('',*,*,#1328,.F.);
#1328 = EDGE_CURVE('',#1294,#1320,#1329,.T.);
#1329 = CIRCLE('',#1330,1.6);
#1330 = AXIS2_PLACEMENT_3D('',#1331,#1332,#1333);
#1331 = CARTESIAN_POINT('',(140.00000033378,90.,-2.600033378603));
#1332 = DIRECTION('',(2.384185933124E-07,-0.,1.));
#1333 = DIRECTION('',(1.,0.,-2.384185933124E-07));
#1334 = CYLINDRICAL_SURFACE('',#1335,1.6);
#1335 = AXIS2_PLACEMENT_3D('',#1336,#1337,#1338);
#1336 = CARTESIAN_POINT('',(140.00000023841,90.,-3.000033378603));
#1337 = DIRECTION('',(2.384185933124E-07,0.,1.));
#1338 = DIRECTION('',(1.,0.,-2.384185933124E-07));
#1339 = ADVANCED_FACE('',(#1340),#1382,.F.);
#1340 = FACE_BOUND('',#1341,.T.);
#1341 = EDGE_LOOP('',(#1342,#1351,#1357,#1358,#1359,#1368,#1375));
#1342 = ORIENTED_EDGE('',*,*,#1343,.F.);
#1343 = EDGE_CURVE('',#1065,#1344,#1346,.T.);
#1344 = VERTEX_POINT('',#1345);
#1345 = CARTESIAN_POINT('',(140.00000033378,71.6,-2.600033378603));
#1346 = CIRCLE('',#1347,1.6);
#1347 = AXIS2_PLACEMENT_3D('',#1348,#1349,#1350);
#1348 = CARTESIAN_POINT('',(140.00000033378,70.,-2.600033378603));
#1349 = DIRECTION('',(2.384185933124E-07,-0.,1.));
#1350 = DIRECTION('',(1.,0.,-2.384185933124E-07));
#1351 = ORIENTED_EDGE('',*,*,#1352,.T.);
#1352 = EDGE_CURVE('',#1065,#879,#1353,.T.);
#1353 = LINE('',#1354,#1355);
#1354 = CARTESIAN_POINT('',(141.60000023841,70.,-3.000033760073));
#1355 = VECTOR('',#1356,1.);
#1356 = DIRECTION('',(2.384185932524E-07,0.,1.));
#1357 = ORIENTED_EDGE('',*,*,#878,.T.);
#1358 = ORIENTED_EDGE('',*,*,#1352,.F.);
#1359 = ORIENTED_EDGE('',*,*,#1360,.F.);
#1360 = EDGE_CURVE('',#1361,#1065,#1363,.T.);
#1361 = VERTEX_POINT('',#1362);
#1362 = CARTESIAN_POINT('',(140.00000033378,68.4,-2.600033378603));
#1363 = CIRCLE('',#1364,1.6);
#1364 = AXIS2_PLACEMENT_3D('',#1365,#1366,#1367);
#1365 = CARTESIAN_POINT('',(140.00000033378,70.,-2.600033378603));
#1366 = DIRECTION('',(2.384185933124E-07,-0.,1.));
#1367 = DIRECTION('',(1.,0.,-2.384185933124E-07));
#1368 = ORIENTED_EDGE('',*,*,#1369,.F.);
#1369 = EDGE_CURVE('',#1153,#1361,#1370,.T.);
#1370 = CIRCLE('',#1371,1.6);
#1371 = AXIS2_PLACEMENT_3D('',#1372,#1373,#1374);
#1372 = CARTESIAN_POINT('',(140.00000033378,70.,-2.600033378603));
#1373 = DIRECTION('',(2.384185933124E-07,-0.,1.));
#1374 = DIRECTION('',(1.,0.,-2.384185933124E-07));
#1375 = ORIENTED_EDGE('',*,*,#1376,.F.);
#1376 = EDGE_CURVE('',#1344,#1153,#1377,.T.);
#1377 = CIRCLE('',#1378,1.6);
#1378 = AXIS2_PLACEMENT_3D('',#1379,#1380,#1381);
#1379 = CARTESIAN_POINT('',(140.00000033378,70.,-2.600033378603));
#1380 = DIRECTION('',(2.384185933124E-07,-0.,1.));
#1381 = DIRECTION('',(1.,0.,-2.384185933124E-07));
#1382 = CYLINDRICAL_SURFACE('',#1383,1.6);
#1383 = AXIS2_PLACEMENT_3D('',#1384,#1385,#1386);
#1384 = CARTESIAN_POINT('',(140.00000023841,70.,-3.000033378603));
#1385 = DIRECTION('',(2.384185933124E-07,0.,1.));
#1386 = DIRECTION('',(1.,0.,-2.384185933124E-07));
#1387 = ADVANCED_FACE('',(#1388),#1398,.T.);
#1388 = FACE_BOUND('',#1389,.T.);
#1389 = EDGE_LOOP('',(#1390,#1391,#1392));
#1390 = ORIENTED_EDGE('',*,*,#949,.T.);
#1391 = ORIENTED_EDGE('',*,*,#1017,.T.);
#1392 = ORIENTED_EDGE('',*,*,#1393,.F.);
#1393 = EDGE_CURVE('',#950,#1010,#1394,.T.);
#1394 = LINE('',#1395,#1396);
#1395 = CARTESIAN_POINT('',(141.60000023841,91.327591804735,
    -3.000033760073));
#1396 = VECTOR('',#1397,1.);
#1397 = DIRECTION('',(-0.,-1.,-0.));
#1398 = PLANE('',#1399);
#1399 = AXIS2_PLACEMENT_3D('',#1400,#1401,#1402);
#1400 = CARTESIAN_POINT('',(140.00000023841,90.,-3.000033378603));
#1401 = DIRECTION('',(-2.384185933124E-07,-0.,-1.));
#1402 = DIRECTION('',(1.,0.,-2.384185933124E-07));
#1403 = ADVANCED_FACE('',(#1404),#1453,.T.);
#1404 = FACE_BOUND('',#1405,.T.);
#1405 = EDGE_LOOP('',(#1406,#1414,#1422,#1428,#1436,#1444,#1450,#1451,
    #1452));
#1406 = ORIENTED_EDGE('',*,*,#1407,.F.);
#1407 = EDGE_CURVE('',#1408,#1001,#1410,.T.);
#1408 = VERTEX_POINT('',#1409);
#1409 = CARTESIAN_POINT('',(141.60000028609,88.4,-2.800033760073));
#1410 = LINE('',#1411,#1412);
#1411 = CARTESIAN_POINT('',(141.60000028609,92.65518360947,
    -2.800033760073));
#1412 = VECTOR('',#1413,1.);
#1413 = DIRECTION('',(0.,-1.,0.));
#1414 = ORIENTED_EDGE('',*,*,#1415,.T.);
#1415 = EDGE_CURVE('',#1408,#1416,#1418,.T.);
#1416 = VERTEX_POINT('',#1417);
#1417 = CARTESIAN_POINT('',(141.60000033378,88.4,-2.600033760073));
#1418 = LINE('',#1419,#1420);
#1419 = CARTESIAN_POINT('',(141.59999141692,88.4,-40.00003376007));
#1420 = VECTOR('',#1421,1.);
#1421 = DIRECTION('',(2.384185933124E-07,0.,1.));
#1422 = ORIENTED_EDGE('',*,*,#1423,.T.);
#1423 = EDGE_CURVE('',#1416,#1292,#1424,.T.);
#1424 = LINE('',#1425,#1426);
#1425 = CARTESIAN_POINT('',(141.60000033378,88.4,-2.600033760073));
#1426 = VECTOR('',#1427,1.);
#1427 = DIRECTION('',(0.,1.,0.));
#1428 = ORIENTED_EDGE('',*,*,#1429,.T.);
#1429 = EDGE_CURVE('',#1292,#1430,#1432,.T.);
#1430 = VERTEX_POINT('',#1431);
#1431 = CARTESIAN_POINT('',(141.60000033378,91.6,-2.600033760073));
#1432 = LINE('',#1433,#1434);
#1433 = CARTESIAN_POINT('',(141.60000033378,88.4,-2.600033760073));
#1434 = VECTOR('',#1435,1.);
#1435 = DIRECTION('',(0.,1.,0.));
#1436 = ORIENTED_EDGE('',*,*,#1437,.F.);
#1437 = EDGE_CURVE('',#1438,#1430,#1440,.T.);
#1438 = VERTEX_POINT('',#1439);
#1439 = CARTESIAN_POINT('',(141.60000028609,91.6,-2.800033760073));
#1440 = LINE('',#1441,#1442);
#1441 = CARTESIAN_POINT('',(141.59999141692,91.6,-40.00003376007));
#1442 = VECTOR('',#1443,1.);
#1443 = DIRECTION('',(2.384185933124E-07,0.,1.));
#1444 = ORIENTED_EDGE('',*,*,#1445,.F.);
#1445 = EDGE_CURVE('',#959,#1438,#1446,.T.);
#1446 = LINE('',#1447,#1448);
#1447 = CARTESIAN_POINT('',(141.60000028609,92.65518360947,
    -2.800033760073));
#1448 = VECTOR('',#1449,1.);
#1449 = DIRECTION('',(0.,-1.,0.));
#1450 = ORIENTED_EDGE('',*,*,#958,.F.);
#1451 = ORIENTED_EDGE('',*,*,#1393,.T.);
#1452 = ORIENTED_EDGE('',*,*,#1009,.T.);
#1453 = PLANE('',#1454);
#1454 = AXIS2_PLACEMENT_3D('',#1455,#1456,#1457);
#1455 = CARTESIAN_POINT('',(141.60000027728,90.,-2.836990529017));
#1456 = DIRECTION('',(-1.,0.,2.384185933124E-07));
#1457 = DIRECTION('',(2.384185933124E-07,0.,1.));
#1458 = ADVANCED_FACE('',(#1459),#1477,.F.);
#1459 = FACE_BOUND('',#1460,.F.);
#1460 = EDGE_LOOP('',(#1461,#1462,#1470,#1476));
#1461 = ORIENTED_EDGE('',*,*,#1407,.F.);
#1462 = ORIENTED_EDGE('',*,*,#1463,.T.);
#1463 = EDGE_CURVE('',#1408,#1464,#1466,.T.);
#1464 = VERTEX_POINT('',#1465);
#1465 = CARTESIAN_POINT('',(138.40000028609,88.4,-2.800032997133));
#1466 = LINE('',#1467,#1468);
#1467 = CARTESIAN_POINT('',(139.20000028609,88.4,-2.800033187868));
#1468 = VECTOR('',#1469,1.);
#1469 = DIRECTION('',(-1.,0.,2.384185933124E-07));
#1470 = ORIENTED_EDGE('',*,*,#1471,.T.);
#1471 = EDGE_CURVE('',#1464,#993,#1472,.T.);
#1472 = LINE('',#1473,#1474);
#1473 = CARTESIAN_POINT('',(138.40000028609,92.65518360947,
    -2.800032997133));
#1474 = VECTOR('',#1475,1.);
#1475 = DIRECTION('',(0.,-1.,0.));
#1476 = ORIENTED_EDGE('',*,*,#1000,.F.);
#1477 = PLANE('',#1478);
#1478 = AXIS2_PLACEMENT_3D('',#1479,#1480,#1481);
#1479 = CARTESIAN_POINT('',(140.00000028609,80.,-2.800033378603));
#1480 = DIRECTION('',(2.384185933124E-07,0.,1.));
#1481 = DIRECTION('',(-1.,0.,2.384185933124E-07));
#1482 = ADVANCED_FACE('',(#1483),#1530,.T.);
#1483 = FACE_BOUND('',#1484,.T.);
#1484 = EDGE_LOOP('',(#1485,#1491,#1492,#1500,#1508,#1514,#1522,#1528,
    #1529));
#1485 = ORIENTED_EDGE('',*,*,#1486,.F.);
#1486 = EDGE_CURVE('',#976,#984,#1487,.T.);
#1487 = LINE('',#1488,#1489);
#1488 = CARTESIAN_POINT('',(138.40000023841,91.327591804735,
    -3.000032997133));
#1489 = VECTOR('',#1490,1.);
#1490 = DIRECTION('',(-0.,-1.,-0.));
#1491 = ORIENTED_EDGE('',*,*,#975,.T.);
#1492 = ORIENTED_EDGE('',*,*,#1493,.T.);
#1493 = EDGE_CURVE('',#967,#1494,#1496,.T.);
#1494 = VERTEX_POINT('',#1495);
#1495 = CARTESIAN_POINT('',(138.40000028609,91.6,-2.800032997133));
#1496 = LINE('',#1497,#1498);
#1497 = CARTESIAN_POINT('',(138.40000028609,92.65518360947,
    -2.800032997133));
#1498 = VECTOR('',#1499,1.);
#1499 = DIRECTION('',(0.,-1.,0.));
#1500 = ORIENTED_EDGE('',*,*,#1501,.T.);
#1501 = EDGE_CURVE('',#1494,#1502,#1504,.T.);
#1502 = VERTEX_POINT('',#1503);
#1503 = CARTESIAN_POINT('',(138.40000033378,91.6,-2.600032997133));
#1504 = LINE('',#1505,#1506);
#1505 = CARTESIAN_POINT('',(138.39999141692,91.6,-40.00003299713));
#1506 = VECTOR('',#1507,1.);
#1507 = DIRECTION('',(2.384185933124E-07,0.,1.));
#1508 = ORIENTED_EDGE('',*,*,#1509,.T.);
#1509 = EDGE_CURVE('',#1502,#1320,#1510,.T.);
#1510 = LINE('',#1511,#1512);
#1511 = CARTESIAN_POINT('',(138.40000033378,91.6,-2.600032997133));
#1512 = VECTOR('',#1513,1.);
#1513 = DIRECTION('',(0.,-1.,0.));
#1514 = ORIENTED_EDGE('',*,*,#1515,.T.);
#1515 = EDGE_CURVE('',#1320,#1516,#1518,.T.);
#1516 = VERTEX_POINT('',#1517);
#1517 = CARTESIAN_POINT('',(138.40000033378,88.4,-2.600032997133));
#1518 = LINE('',#1519,#1520);
#1519 = CARTESIAN_POINT('',(138.40000033378,91.6,-2.600032997133));
#1520 = VECTOR('',#1521,1.);
#1521 = DIRECTION('',(0.,-1.,0.));
#1522 = ORIENTED_EDGE('',*,*,#1523,.F.);
#1523 = EDGE_CURVE('',#1464,#1516,#1524,.T.);
#1524 = LINE('',#1525,#1526);
#1525 = CARTESIAN_POINT('',(138.39999141692,88.4,-40.00003299713));
#1526 = VECTOR('',#1527,1.);
#1527 = DIRECTION('',(2.384185933124E-07,0.,1.));
#1528 = ORIENTED_EDGE('',*,*,#1471,.T.);
#1529 = ORIENTED_EDGE('',*,*,#992,.F.);
#1530 = PLANE('',#1531);
#1531 = AXIS2_PLACEMENT_3D('',#1532,#1533,#1534);
#1532 = CARTESIAN_POINT('',(138.40000027728,90.,-2.836989766077));
#1533 = DIRECTION('',(1.,0.,-2.384185933124E-07));
#1534 = DIRECTION('',(-2.384185933124E-07,-0.,-1.));
#1535 = ADVANCED_FACE('',(#1536),#1540,.T.);
#1536 = FACE_BOUND('',#1537,.T.);
#1537 = EDGE_LOOP('',(#1538,#1539));
#1538 = ORIENTED_EDGE('',*,*,#1486,.T.);
#1539 = ORIENTED_EDGE('',*,*,#983,.T.);
#1540 = PLANE('',#1541);
#1541 = AXIS2_PLACEMENT_3D('',#1542,#1543,#1544);
#1542 = CARTESIAN_POINT('',(140.00000023841,90.,-3.000033378603));
#1543 = DIRECTION('',(-2.384185933124E-07,-0.,-1.));
#1544 = DIRECTION('',(1.,0.,-2.384185933124E-07));
#1545 = ADVANCED_FACE('',(#1546),#1557,.F.);
#1546 = FACE_BOUND('',#1547,.F.);
#1547 = EDGE_LOOP('',(#1548,#1549,#1550,#1556));
#1548 = ORIENTED_EDGE('',*,*,#966,.F.);
#1549 = ORIENTED_EDGE('',*,*,#1493,.T.);
#1550 = ORIENTED_EDGE('',*,*,#1551,.T.);
#1551 = EDGE_CURVE('',#1494,#1438,#1552,.T.);
#1552 = LINE('',#1553,#1554);
#1553 = CARTESIAN_POINT('',(140.80000028609,91.6,-2.800033569338));
#1554 = VECTOR('',#1555,1.);
#1555 = DIRECTION('',(1.,0.,-2.384185933124E-07));
#1556 = ORIENTED_EDGE('',*,*,#1445,.F.);
#1557 = PLANE('',#1558);
#1558 = AXIS2_PLACEMENT_3D('',#1559,#1560,#1561);
#1559 = CARTESIAN_POINT('',(140.00000028609,80.,-2.800033378603));
#1560 = DIRECTION('',(2.384185933124E-07,0.,1.));
#1561 = DIRECTION('',(-1.,0.,2.384185933124E-07));
#1562 = ADVANCED_FACE('',(#1563),#1580,.T.);
#1563 = FACE_BOUND('',#1564,.T.);
#1564 = EDGE_LOOP('',(#1565,#1566,#1567,#1573,#1579));
#1565 = ORIENTED_EDGE('',*,*,#1106,.T.);
#1566 = ORIENTED_EDGE('',*,*,#1168,.T.);
#1567 = ORIENTED_EDGE('',*,*,#1568,.T.);
#1568 = EDGE_CURVE('',#1161,#1361,#1569,.T.);
#1569 = LINE('',#1570,#1571);
#1570 = CARTESIAN_POINT('',(138.40000033378,68.4,-2.600032997133));
#1571 = VECTOR('',#1572,1.);
#1572 = DIRECTION('',(1.,0.,-2.384185933124E-07));
#1573 = ORIENTED_EDGE('',*,*,#1574,.T.);
#1574 = EDGE_CURVE('',#1361,#1057,#1575,.T.);
#1575 = LINE('',#1576,#1577);
#1576 = CARTESIAN_POINT('',(138.40000033378,68.4,-2.600032997133));
#1577 = VECTOR('',#1578,1.);
#1578 = DIRECTION('',(1.,0.,-2.384185933124E-07));
#1579 = ORIENTED_EDGE('',*,*,#1056,.F.);
#1580 = PLANE('',#1581);
#1581 = AXIS2_PLACEMENT_3D('',#1582,#1583,#1584);
#1582 = CARTESIAN_POINT('',(140.00000030994,68.4,-2.700033378603));
#1583 = DIRECTION('',(0.,1.,0.));
#1584 = DIRECTION('',(-2.384185933124E-07,-0.,-1.));
#1585 = ADVANCED_FACE('',(#1586),#1591,.F.);
#1586 = FACE_BOUND('',#1587,.F.);
#1587 = EDGE_LOOP('',(#1588,#1589,#1590));
#1588 = ORIENTED_EDGE('',*,*,#1064,.T.);
#1589 = ORIENTED_EDGE('',*,*,#1360,.F.);
#1590 = ORIENTED_EDGE('',*,*,#1574,.T.);
#1591 = PLANE('',#1592);
#1592 = AXIS2_PLACEMENT_3D('',#1593,#1594,#1595);
#1593 = CARTESIAN_POINT('',(140.00000033378,80.,-2.600033378603));
#1594 = DIRECTION('',(2.384185933124E-07,0.,1.));
#1595 = DIRECTION('',(-1.,0.,2.384185933124E-07));
#1596 = ADVANCED_FACE('',(#1597),#1607,.F.);
#1597 = FACE_BOUND('',#1598,.F.);
#1598 = EDGE_LOOP('',(#1599,#1600,#1606));
#1599 = ORIENTED_EDGE('',*,*,#1072,.T.);
#1600 = ORIENTED_EDGE('',*,*,#1601,.T.);
#1601 = EDGE_CURVE('',#1073,#1344,#1602,.T.);
#1602 = LINE('',#1603,#1604);
#1603 = CARTESIAN_POINT('',(141.60000033378,71.6,-2.600033760073));
#1604 = VECTOR('',#1605,1.);
#1605 = DIRECTION('',(-1.,0.,2.384185933124E-07));
#1606 = ORIENTED_EDGE('',*,*,#1343,.F.);
#1607 = PLANE('',#1608);
#1608 = AXIS2_PLACEMENT_3D('',#1609,#1610,#1611);
#1609 = CARTESIAN_POINT('',(140.00000033378,80.,-2.600033378603));
#1610 = DIRECTION('',(2.384185933124E-07,0.,1.));
#1611 = DIRECTION('',(-1.,0.,2.384185933124E-07));
#1612 = ADVANCED_FACE('',(#1613),#1625,.T.);
#1613 = FACE_BOUND('',#1614,.T.);
#1614 = EDGE_LOOP('',(#1615,#1616,#1617,#1618,#1624));
#1615 = ORIENTED_EDGE('',*,*,#1196,.T.);
#1616 = ORIENTED_EDGE('',*,*,#1080,.T.);
#1617 = ORIENTED_EDGE('',*,*,#1601,.T.);
#1618 = ORIENTED_EDGE('',*,*,#1619,.T.);
#1619 = EDGE_CURVE('',#1344,#1145,#1620,.T.);
#1620 = LINE('',#1621,#1622);
#1621 = CARTESIAN_POINT('',(141.60000033378,71.6,-2.600033760073));
#1622 = VECTOR('',#1623,1.);
#1623 = DIRECTION('',(-1.,0.,2.384185933124E-07));
#1624 = ORIENTED_EDGE('',*,*,#1144,.F.);
#1625 = PLANE('',#1626);
#1626 = AXIS2_PLACEMENT_3D('',#1627,#1628,#1629);
#1627 = CARTESIAN_POINT('',(140.00000030994,71.6,-2.700033378603));
#1628 = DIRECTION('',(-1.993179440092E-21,-1.,-8.36E-15));
#1629 = DIRECTION('',(2.384185933124E-07,-8.36E-15,1.));
#1630 = ADVANCED_FACE('',(#1631),#1636,.F.);
#1631 = FACE_BOUND('',#1632,.F.);
#1632 = EDGE_LOOP('',(#1633,#1634,#1635));
#1633 = ORIENTED_EDGE('',*,*,#1376,.F.);
#1634 = ORIENTED_EDGE('',*,*,#1619,.T.);
#1635 = ORIENTED_EDGE('',*,*,#1152,.T.);
#1636 = PLANE('',#1637);
#1637 = AXIS2_PLACEMENT_3D('',#1638,#1639,#1640);
#1638 = CARTESIAN_POINT('',(140.00000033378,80.,-2.600033378603));
#1639 = DIRECTION('',(2.384185933124E-07,0.,1.));
#1640 = DIRECTION('',(-1.,0.,2.384185933124E-07));
#1641 = ADVANCED_FACE('',(#1642),#1647,.F.);
#1642 = FACE_BOUND('',#1643,.F.);
#1643 = EDGE_LOOP('',(#1644,#1645,#1646));
#1644 = ORIENTED_EDGE('',*,*,#1369,.F.);
#1645 = ORIENTED_EDGE('',*,*,#1160,.T.);
#1646 = ORIENTED_EDGE('',*,*,#1568,.T.);
#1647 = PLANE('',#1648);
#1648 = AXIS2_PLACEMENT_3D('',#1649,#1650,#1651);
#1649 = CARTESIAN_POINT('',(140.00000033378,80.,-2.600033378603));
#1650 = DIRECTION('',(2.384185933124E-07,0.,1.));
#1651 = DIRECTION('',(-1.,0.,2.384185933124E-07));
#1652 = ADVANCED_FACE('',(#1653),#1678,.T.);
#1653 = FACE_BOUND('',#1654,.T.);
#1654 = EDGE_LOOP('',(#1655,#1663,#1664,#1672));
#1655 = ORIENTED_EDGE('',*,*,#1656,.T.);
#1656 = EDGE_CURVE('',#1657,#1236,#1659,.T.);
#1657 = VERTEX_POINT('',#1658);
#1658 = CARTESIAN_POINT('',(111.99996220806,82.690598923241,
    -37.00002670287));
#1659 = LINE('',#1660,#1661);
#1660 = CARTESIAN_POINT('',(111.99996220806,82.690598923241,
    -37.00002670287));
#1661 = VECTOR('',#1662,1.);
#1662 = DIRECTION('',(2.384185933124E-07,0.,1.));
#1663 = ORIENTED_EDGE('',*,*,#1235,.T.);
#1664 = ORIENTED_EDGE('',*,*,#1665,.F.);
#1665 = EDGE_CURVE('',#1666,#1238,#1668,.T.);
#1666 = VERTEX_POINT('',#1667);
#1667 = CARTESIAN_POINT('',(115.99996220806,80.381197846483,
    -37.00002765654));
#1668 = LINE('',#1669,#1670);
#1669 = CARTESIAN_POINT('',(115.99996220806,80.381197846483,
    -37.00002765654));
#1670 = VECTOR('',#1671,1.);
#1671 = DIRECTION('',(2.384185933124E-07,0.,1.));
#1672 = ORIENTED_EDGE('',*,*,#1673,.F.);
#1673 = EDGE_CURVE('',#1657,#1666,#1674,.T.);
#1674 = LINE('',#1675,#1676);
#1675 = CARTESIAN_POINT('',(111.99996220806,82.690598923241,
    -37.00002670287));
#1676 = VECTOR('',#1677,1.);
#1677 = DIRECTION('',(0.866025403784,-0.5,-2.064765585431E-07));
#1678 = PLANE('',#1679);
#1679 = AXIS2_PLACEMENT_3D('',#1680,#1681,#1682);
#1680 = CARTESIAN_POINT('',(111.99996220806,82.690598923241,
    -37.00002670287));
#1681 = DIRECTION('',(0.5,0.866025403784,-1.192092966562E-07));
#1682 = DIRECTION('',(0.866025403784,-0.5,-2.064765585431E-07));
#1683 = ADVANCED_FACE('',(#1684),#1702,.T.);
#1684 = FACE_BOUND('',#1685,.T.);
#1685 = EDGE_LOOP('',(#1686,#1694,#1695,#1696));
#1686 = ORIENTED_EDGE('',*,*,#1687,.T.);
#1687 = EDGE_CURVE('',#1688,#1246,#1690,.T.);
#1688 = VERTEX_POINT('',#1689);
#1689 = CARTESIAN_POINT('',(111.99996220806,87.309401076759,
    -37.00002670287));
#1690 = LINE('',#1691,#1692);
#1691 = CARTESIAN_POINT('',(111.99996220806,87.309401076759,
    -37.00002670287));
#1692 = VECTOR('',#1693,1.);
#1693 = DIRECTION('',(2.384185933124E-07,0.,1.));
#1694 = ORIENTED_EDGE('',*,*,#1245,.T.);
#1695 = ORIENTED_EDGE('',*,*,#1656,.F.);
#1696 = ORIENTED_EDGE('',*,*,#1697,.F.);
#1697 = EDGE_CURVE('',#1688,#1657,#1698,.T.);
#1698 = LINE('',#1699,#1700);
#1699 = CARTESIAN_POINT('',(111.99996220806,87.309401076759,
    -37.00002670287));
#1700 = VECTOR('',#1701,1.);
#1701 = DIRECTION('',(-1.9E-16,-1.,4.529953272936E-23));
#1702 = PLANE('',#1703);
#1703 = AXIS2_PLACEMENT_3D('',#1704,#1705,#1706);
#1704 = CARTESIAN_POINT('',(111.99996220806,87.309401076759,
    -37.00002670287));
#1705 = DIRECTION('',(1.,-1.9E-16,-2.384185933124E-07));
#1706 = DIRECTION('',(-1.9E-16,-1.,4.529953272936E-23));
#1707 = ADVANCED_FACE('',(#1708),#1726,.T.);
#1708 = FACE_BOUND('',#1709,.T.);
#1709 = EDGE_LOOP('',(#1710,#1711,#1712,#1720));
#1710 = ORIENTED_EDGE('',*,*,#1665,.T.);
#1711 = ORIENTED_EDGE('',*,*,#1277,.T.);
#1712 = ORIENTED_EDGE('',*,*,#1713,.F.);
#1713 = EDGE_CURVE('',#1714,#1270,#1716,.T.);
#1714 = VERTEX_POINT('',#1715);
#1715 = CARTESIAN_POINT('',(119.99996220806,82.690598923241,
    -37.00002861022));
#1716 = LINE('',#1717,#1718);
#1717 = CARTESIAN_POINT('',(119.99996220806,82.690598923241,
    -37.00002861022));
#1718 = VECTOR('',#1719,1.);
#1719 = DIRECTION('',(2.384185933124E-07,0.,1.));
#1720 = ORIENTED_EDGE('',*,*,#1721,.F.);
#1721 = EDGE_CURVE('',#1666,#1714,#1722,.T.);
#1722 = LINE('',#1723,#1724);
#1723 = CARTESIAN_POINT('',(115.99996220806,80.381197846483,
    -37.00002765654));
#1724 = VECTOR('',#1725,1.);
#1725 = DIRECTION('',(0.866025403784,0.5,-2.064765585431E-07));
#1726 = PLANE('',#1727);
#1727 = AXIS2_PLACEMENT_3D('',#1728,#1729,#1730);
#1728 = CARTESIAN_POINT('',(115.99996220806,80.381197846483,
    -37.00002765654));
#1729 = DIRECTION('',(-0.5,0.866025403784,1.192092966562E-07));
#1730 = DIRECTION('',(0.866025403784,0.5,-2.064765585431E-07));
#1731 = ADVANCED_FACE('',(#1732),#1750,.T.);
#1732 = FACE_BOUND('',#1733,.T.);
#1733 = EDGE_LOOP('',(#1734,#1742,#1743,#1744));
#1734 = ORIENTED_EDGE('',*,*,#1735,.T.);
#1735 = EDGE_CURVE('',#1736,#1254,#1738,.T.);
#1736 = VERTEX_POINT('',#1737);
#1737 = CARTESIAN_POINT('',(115.99996220806,89.618802153517,
    -37.00002765654));
#1738 = LINE('',#1739,#1740);
#1739 = CARTESIAN_POINT('',(115.99996220806,89.618802153517,
    -37.00002765654));
#1740 = VECTOR('',#1741,1.);
#1741 = DIRECTION('',(2.384185933124E-07,0.,1.));
#1742 = ORIENTED_EDGE('',*,*,#1253,.T.);
#1743 = ORIENTED_EDGE('',*,*,#1687,.F.);
#1744 = ORIENTED_EDGE('',*,*,#1745,.F.);
#1745 = EDGE_CURVE('',#1736,#1688,#1746,.T.);
#1746 = LINE('',#1747,#1748);
#1747 = CARTESIAN_POINT('',(115.99996220806,89.618802153517,
    -37.00002765654));
#1748 = VECTOR('',#1749,1.);
#1749 = DIRECTION('',(-0.866025403784,-0.5,2.064765585431E-07));
#1750 = PLANE('',#1751);
#1751 = AXIS2_PLACEMENT_3D('',#1752,#1753,#1754);
#1752 = CARTESIAN_POINT('',(115.99996220806,89.618802153517,
    -37.00002765654));
#1753 = DIRECTION('',(0.5,-0.866025403784,-1.192092966562E-07));
#1754 = DIRECTION('',(-0.866025403784,-0.5,2.064765585431E-07));
#1755 = ADVANCED_FACE('',(#1756),#1774,.T.);
#1756 = FACE_BOUND('',#1757,.T.);
#1757 = EDGE_LOOP('',(#1758,#1759,#1760,#1768));
#1758 = ORIENTED_EDGE('',*,*,#1713,.T.);
#1759 = ORIENTED_EDGE('',*,*,#1269,.T.);
#1760 = ORIENTED_EDGE('',*,*,#1761,.F.);
#1761 = EDGE_CURVE('',#1762,#1262,#1764,.T.);
#1762 = VERTEX_POINT('',#1763);
#1763 = CARTESIAN_POINT('',(119.99996220806,87.309401076759,
    -37.00002861022));
#1764 = LINE('',#1765,#1766);
#1765 = CARTESIAN_POINT('',(119.99996220806,87.309401076759,
    -37.00002861022));
#1766 = VECTOR('',#1767,1.);
#1767 = DIRECTION('',(2.384185933124E-07,0.,1.));
#1768 = ORIENTED_EDGE('',*,*,#1769,.F.);
#1769 = EDGE_CURVE('',#1714,#1762,#1770,.T.);
#1770 = LINE('',#1771,#1772);
#1771 = CARTESIAN_POINT('',(119.99996220806,82.690598923241,
    -37.00002861022));
#1772 = VECTOR('',#1773,1.);
#1773 = DIRECTION('',(0.,1.,0.));
#1774 = PLANE('',#1775);
#1775 = AXIS2_PLACEMENT_3D('',#1776,#1777,#1778);
#1776 = CARTESIAN_POINT('',(119.99996220806,82.690598923241,
    -37.00002861022));
#1777 = DIRECTION('',(-1.,0.,2.384185933124E-07));
#1778 = DIRECTION('',(0.,1.,0.));
#1779 = ADVANCED_FACE('',(#1780),#1791,.T.);
#1780 = FACE_BOUND('',#1781,.T.);
#1781 = EDGE_LOOP('',(#1782,#1783,#1784,#1785));
#1782 = ORIENTED_EDGE('',*,*,#1761,.T.);
#1783 = ORIENTED_EDGE('',*,*,#1261,.T.);
#1784 = ORIENTED_EDGE('',*,*,#1735,.F.);
#1785 = ORIENTED_EDGE('',*,*,#1786,.F.);
#1786 = EDGE_CURVE('',#1762,#1736,#1787,.T.);
#1787 = LINE('',#1788,#1789);
#1788 = CARTESIAN_POINT('',(119.99996220806,87.309401076759,
    -37.00002861022));
#1789 = VECTOR('',#1790,1.);
#1790 = DIRECTION('',(-0.866025403784,0.5,2.064765585431E-07));
#1791 = PLANE('',#1792);
#1792 = AXIS2_PLACEMENT_3D('',#1793,#1794,#1795);
#1793 = CARTESIAN_POINT('',(119.99996220806,87.309401076759,
    -37.00002861022));
#1794 = DIRECTION('',(-0.5,-0.866025403784,1.192092966562E-07));
#1795 = DIRECTION('',(-0.866025403784,0.5,2.064765585431E-07));
#1796 = ADVANCED_FACE('',(#1797),#1807,.F.);
#1797 = FACE_BOUND('',#1798,.F.);
#1798 = EDGE_LOOP('',(#1799,#1800,#1806));
#1799 = ORIENTED_EDGE('',*,*,#1429,.T.);
#1800 = ORIENTED_EDGE('',*,*,#1801,.T.);
#1801 = EDGE_CURVE('',#1430,#1294,#1802,.T.);
#1802 = LINE('',#1803,#1804);
#1803 = CARTESIAN_POINT('',(141.60000033378,91.6,-2.600033760073));
#1804 = VECTOR('',#1805,1.);
#1805 = DIRECTION('',(-1.,0.,2.384185933124E-07));
#1806 = ORIENTED_EDGE('',*,*,#1291,.F.);
#1807 = PLANE('',#1808);
#1808 = AXIS2_PLACEMENT_3D('',#1809,#1810,#1811);
#1809 = CARTESIAN_POINT('',(140.00000033378,80.,-2.600033378603));
#1810 = DIRECTION('',(2.384185933124E-07,0.,1.));
#1811 = DIRECTION('',(-1.,0.,2.384185933124E-07));
#1812 = ADVANCED_FACE('',(#1813),#1823,.F.);
#1813 = FACE_BOUND('',#1814,.F.);
#1814 = EDGE_LOOP('',(#1815,#1816,#1822));
#1815 = ORIENTED_EDGE('',*,*,#1328,.F.);
#1816 = ORIENTED_EDGE('',*,*,#1817,.T.);
#1817 = EDGE_CURVE('',#1294,#1502,#1818,.T.);
#1818 = LINE('',#1819,#1820);
#1819 = CARTESIAN_POINT('',(141.60000033378,91.6,-2.600033760073));
#1820 = VECTOR('',#1821,1.);
#1821 = DIRECTION('',(-1.,0.,2.384185933124E-07));
#1822 = ORIENTED_EDGE('',*,*,#1509,.T.);
#1823 = PLANE('',#1824);
#1824 = AXIS2_PLACEMENT_3D('',#1825,#1826,#1827);
#1825 = CARTESIAN_POINT('',(140.00000033378,80.,-2.600033378603));
#1826 = DIRECTION('',(2.384185933124E-07,0.,1.));
#1827 = DIRECTION('',(-1.,0.,2.384185933124E-07));
#1828 = ADVANCED_FACE('',(#1829),#1839,.F.);
#1829 = FACE_BOUND('',#1830,.F.);
#1830 = EDGE_LOOP('',(#1831,#1832,#1833));
#1831 = ORIENTED_EDGE('',*,*,#1319,.F.);
#1832 = ORIENTED_EDGE('',*,*,#1515,.T.);
#1833 = ORIENTED_EDGE('',*,*,#1834,.T.);
#1834 = EDGE_CURVE('',#1516,#1311,#1835,.T.);
#1835 = LINE('',#1836,#1837);
#1836 = CARTESIAN_POINT('',(138.40000033378,88.4,-2.600032997133));
#1837 = VECTOR('',#1838,1.);
#1838 = DIRECTION('',(1.,0.,-2.384185933124E-07));
#1839 = PLANE('',#1840);
#1840 = AXIS2_PLACEMENT_3D('',#1841,#1842,#1843);
#1841 = CARTESIAN_POINT('',(140.00000033378,80.,-2.600033378603));
#1842 = DIRECTION('',(2.384185933124E-07,0.,1.));
#1843 = DIRECTION('',(-1.,0.,2.384185933124E-07));
#1844 = ADVANCED_FACE('',(#1845),#1855,.F.);
#1845 = FACE_BOUND('',#1846,.F.);
#1846 = EDGE_LOOP('',(#1847,#1848,#1849));
#1847 = ORIENTED_EDGE('',*,*,#1423,.T.);
#1848 = ORIENTED_EDGE('',*,*,#1310,.F.);
#1849 = ORIENTED_EDGE('',*,*,#1850,.T.);
#1850 = EDGE_CURVE('',#1311,#1416,#1851,.T.);
#1851 = LINE('',#1852,#1853);
#1852 = CARTESIAN_POINT('',(138.40000033378,88.4,-2.600032997133));
#1853 = VECTOR('',#1854,1.);
#1854 = DIRECTION('',(1.,0.,-2.384185933124E-07));
#1855 = PLANE('',#1856);
#1856 = AXIS2_PLACEMENT_3D('',#1857,#1858,#1859);
#1857 = CARTESIAN_POINT('',(140.00000033378,80.,-2.600033378603));
#1858 = DIRECTION('',(2.384185933124E-07,0.,1.));
#1859 = DIRECTION('',(-1.,0.,2.384185933124E-07));
#1860 = ADVANCED_FACE('',(#1861),#1868,.T.);
#1861 = FACE_BOUND('',#1862,.T.);
#1862 = EDGE_LOOP('',(#1863,#1864,#1865,#1866,#1867));
#1863 = ORIENTED_EDGE('',*,*,#1463,.T.);
#1864 = ORIENTED_EDGE('',*,*,#1523,.T.);
#1865 = ORIENTED_EDGE('',*,*,#1834,.T.);
#1866 = ORIENTED_EDGE('',*,*,#1850,.T.);
#1867 = ORIENTED_EDGE('',*,*,#1415,.F.);
#1868 = PLANE('',#1869);
#1869 = AXIS2_PLACEMENT_3D('',#1870,#1871,#1872);
#1870 = CARTESIAN_POINT('',(140.00000030994,88.4,-2.700033378603));
#1871 = DIRECTION('',(-4.982948600229E-22,1.,-2.09E-15));
#1872 = DIRECTION('',(-2.384185933124E-07,-2.09E-15,-1.));
#1873 = ADVANCED_FACE('',(#1874),#1881,.T.);
#1874 = FACE_BOUND('',#1875,.T.);
#1875 = EDGE_LOOP('',(#1876,#1877,#1878,#1879,#1880));
#1876 = ORIENTED_EDGE('',*,*,#1551,.T.);
#1877 = ORIENTED_EDGE('',*,*,#1437,.T.);
#1878 = ORIENTED_EDGE('',*,*,#1801,.T.);
#1879 = ORIENTED_EDGE('',*,*,#1817,.T.);
#1880 = ORIENTED_EDGE('',*,*,#1501,.F.);
#1881 = PLANE('',#1882);
#1882 = AXIS2_PLACEMENT_3D('',#1883,#1884,#1885);
#1883 = CARTESIAN_POINT('',(140.00000030994,91.6,-2.700033378603));
#1884 = DIRECTION('',(-0.,-1.,-0.));
#1885 = DIRECTION('',(2.384185933124E-07,0.,1.));
#1886 = ADVANCED_FACE('',(#1887),#1895,.T.);
#1887 = FACE_BOUND('',#1888,.T.);
#1888 = EDGE_LOOP('',(#1889,#1890,#1891,#1892,#1893,#1894));
#1889 = ORIENTED_EDGE('',*,*,#1697,.T.);
#1890 = ORIENTED_EDGE('',*,*,#1673,.T.);
#1891 = ORIENTED_EDGE('',*,*,#1721,.T.);
#1892 = ORIENTED_EDGE('',*,*,#1769,.T.);
#1893 = ORIENTED_EDGE('',*,*,#1786,.T.);
#1894 = ORIENTED_EDGE('',*,*,#1745,.T.);
#1895 = PLANE('',#1896);
#1896 = AXIS2_PLACEMENT_3D('',#1897,#1898,#1899);
#1897 = CARTESIAN_POINT('',(131.43563000582,81.432521590462,
    -37.00003133669));
#1898 = DIRECTION('',(2.384185933124E-07,0.,1.));
#1899 = DIRECTION('',(-1.,0.,2.384185933124E-07));
#1900 = ( GEOMETRIC_REPRESENTATION_CONTEXT(3) 
GLOBAL_UNCERTAINTY_ASSIGNED_CONTEXT((#1904)) 
GLOBAL_UNIT_ASSIGNED_CONTEXT((#1901,#1902,#1903)) REPRESENTATION_CONTEXT
('Context #1','3D Context with UNIT and UNCERTAINTY') );
#1901 = ( LENGTH_UNIT() NAMED_UNIT(*) SI_UNIT(.MILLI.,.METRE.) );
#1902 = ( NAMED_UNIT(*) PLANE_ANGLE_UNIT() SI_UNIT($,.RADIAN.) );
#1903 = ( NAMED_UNIT(*) SI_UNIT($,.STERADIAN.) SOLID_ANGLE_UNIT() );
#1904 = UNCERTAINTY_MEASURE_WITH_UNIT(LENGTH_MEASURE(2.E-05),#1901,
  'distance_accuracy_value','confusion accuracy');
#1905 = PRODUCT_RELATED_PRODUCT_CATEGORY('part',$,(#7));
#1906 = MECHANICAL_DESIGN_GEOMETRIC_PRESENTATION_REPRESENTATION('',(
    #1907),#1900);
#1907 = STYLED_ITEM('color',(#1908),#15);
#1908 = PRESENTATION_STYLE_ASSIGNMENT((#1909,#1915));
#1909 = SURFACE_STYLE_USAGE(.BOTH.,#1910);
#1910 = SURFACE_SIDE_STYLE('',(#1911));
#1911 = SURFACE_STYLE_FILL_AREA(#1912);
#1912 = FILL_AREA_STYLE('',(#1913));
#1913 = FILL_AREA_STYLE_COLOUR('',#1914);
#1914 = COLOUR_RGB('',0.596078458879,0.,0.584313743644);
#1915 = CURVE_STYLE('',#1916,POSITIVE_LENGTH_MEASURE(0.1),#1917);
#1916 = DRAUGHTING_PRE_DEFINED_CURVE_FONT('continuous');
#1917 = COLOUR_RGB('',9.803921802644E-02,9.803921802644E-02,
  9.803921802644E-02);
ENDSEC;
END-ISO-10303-21;
