ISO-10303-21;
HEADER;
FILE_DESCRIPTION(('FreeCAD Model'),'2;1');
FILE_NAME('Open CASCADE Shape Model','2025-10-09T22:20:12',(''),(''),
  'Open CASCADE STEP processor 7.9','FreeCAD','Unknown');
FILE_SCHEMA(('AUTOMOTIVE_DESIGN { 1 0 10303 214 1 1 1 1 }'));
ENDSEC;
DATA;
#1 = APPLICATION_PROTOCOL_DEFINITION('international standard',
  'automotive_design',2000,#2);
#2 = APPLICATION_CONTEXT(
  'core data for automotive mechanical design processes');
#3 = SHAPE_DEFINITION_REPRESENTATION(#4,#10);
#4 = PRODUCT_DEFINITION_SHAPE('','',#5);
#5 = PRODUCT_DEFINITION('design','',#6,#9);
#6 = PRODUCT_DEFINITION_FORMATION('','',#7);
#7 = PRODUCT('ZRodMountTop000','ZRodMountTop000','',(#8));
#8 = PRODUCT_CONTEXT('',#2,'mechanical');
#9 = PRODUCT_DEFINITION_CONTEXT('part definition',#2,'design');
#10 = ADVANCED_BREP_SHAPE_REPRESENTATION('',(#11,#15),#1382);
#11 = AXIS2_PLACEMENT_3D('',#12,#13,#14);
#12 = CARTESIAN_POINT('',(0.,0.,0.));
#13 = DIRECTION('',(0.,0.,1.));
#14 = DIRECTION('',(1.,0.,-0.));
#15 = MANIFOLD_SOLID_BREP('',#16);
#16 = CLOSED_SHELL('',(#17,#42,#168,#199,#230,#246,#391,#423,#447,#471,
    #488,#584,#615,#639,#663,#687,#711,#728,#773,#806,#848,#871,#894,
    #917,#932,#963,#979,#1010,#1035,#1087,#1113,#1130,#1153,#1176,#1199,
    #1222,#1249,#1276,#1303,#1330,#1343,#1356,#1369));
#17 = ADVANCED_FACE('',(#18),#37,.T.);
#18 = FACE_BOUND('',#19,.T.);
#19 = EDGE_LOOP('',(#20,#30));
#20 = ORIENTED_EDGE('',*,*,#21,.T.);
#21 = EDGE_CURVE('',#22,#24,#26,.T.);
#22 = VERTEX_POINT('',#23);
#23 = CARTESIAN_POINT('',(25.6,5.40336756548,3.));
#24 = VERTEX_POINT('',#25);
#25 = CARTESIAN_POINT('',(25.6,10.59663243452,3.));
#26 = LINE('',#27,#28);
#27 = CARTESIAN_POINT('',(25.6,6.70168378274,3.));
#28 = VECTOR('',#29,1.);
#29 = DIRECTION('',(6.841002275814E-16,1.,0.));
#30 = ORIENTED_EDGE('',*,*,#31,.T.);
#31 = EDGE_CURVE('',#24,#22,#32,.T.);
#32 = CIRCLE('',#33,3.05);
#33 = AXIS2_PLACEMENT_3D('',#34,#35,#36);
#34 = CARTESIAN_POINT('',(24.,8.,3.));
#35 = DIRECTION('',(0.,0.,-1.));
#36 = DIRECTION('',(-1.,0.,0.));
#37 = PLANE('',#38);
#38 = AXIS2_PLACEMENT_3D('',#39,#40,#41);
#39 = CARTESIAN_POINT('',(24.,8.,3.));
#40 = DIRECTION('',(0.,0.,-1.));
#41 = DIRECTION('',(-1.,0.,0.));
#42 = ADVANCED_FACE('',(#43),#163,.F.);
#43 = FACE_BOUND('',#44,.T.);
#44 = EDGE_LOOP('',(#45,#53,#54,#62,#71,#79,#88,#95,#104,#113,#122,#131,
    #138,#139,#148,#156));
#45 = ORIENTED_EDGE('',*,*,#46,.F.);
#46 = EDGE_CURVE('',#22,#47,#49,.T.);
#47 = VERTEX_POINT('',#48);
#48 = CARTESIAN_POINT('',(25.6,5.40336756548,3.2));
#49 = LINE('',#50,#51);
#50 = CARTESIAN_POINT('',(25.6,5.40336756548,0.));
#51 = VECTOR('',#52,1.);
#52 = DIRECTION('',(0.,0.,1.));
#53 = ORIENTED_EDGE('',*,*,#31,.F.);
#54 = ORIENTED_EDGE('',*,*,#55,.T.);
#55 = EDGE_CURVE('',#24,#56,#58,.T.);
#56 = VERTEX_POINT('',#57);
#57 = CARTESIAN_POINT('',(25.6,10.59663243452,3.2));
#58 = LINE('',#59,#60);
#59 = CARTESIAN_POINT('',(25.6,10.59663243452,0.));
#60 = VECTOR('',#61,1.);
#61 = DIRECTION('',(0.,0.,1.));
#62 = ORIENTED_EDGE('',*,*,#63,.F.);
#63 = EDGE_CURVE('',#64,#56,#66,.T.);
#64 = VERTEX_POINT('',#65);
#65 = CARTESIAN_POINT('',(22.4,10.59663243452,3.2));
#66 = CIRCLE('',#67,3.05);
#67 = AXIS2_PLACEMENT_3D('',#68,#69,#70);
#68 = CARTESIAN_POINT('',(24.,8.,3.2));
#69 = DIRECTION('',(0.,0.,-1.));
#70 = DIRECTION('',(1.,0.,0.));
#71 = ORIENTED_EDGE('',*,*,#72,.F.);
#72 = EDGE_CURVE('',#73,#64,#75,.T.);
#73 = VERTEX_POINT('',#74);
#74 = CARTESIAN_POINT('',(22.4,10.59663243452,3.));
#75 = LINE('',#76,#77);
#76 = CARTESIAN_POINT('',(22.4,10.59663243452,0.));
#77 = VECTOR('',#78,1.);
#78 = DIRECTION('',(0.,0.,1.));
#79 = ORIENTED_EDGE('',*,*,#80,.F.);
#80 = EDGE_CURVE('',#81,#73,#83,.T.);
#81 = VERTEX_POINT('',#82);
#82 = CARTESIAN_POINT('',(20.95,8.,3.));
#83 = CIRCLE('',#84,3.05);
#84 = AXIS2_PLACEMENT_3D('',#85,#86,#87);
#85 = CARTESIAN_POINT('',(24.,8.,3.));
#86 = DIRECTION('',(0.,0.,-1.));
#87 = DIRECTION('',(-1.,0.,0.));
#88 = ORIENTED_EDGE('',*,*,#89,.F.);
#89 = EDGE_CURVE('',#90,#81,#92,.T.);
#90 = VERTEX_POINT('',#91);
#91 = CARTESIAN_POINT('',(20.95,8.,0.));
#92 = B_SPLINE_CURVE_WITH_KNOTS('',1,(#93,#94),.UNSPECIFIED.,.F.,.F.,(2,
    2),(0.,3.),.PIECEWISE_BEZIER_KNOTS.);
#93 = CARTESIAN_POINT('',(20.95,8.,0.));
#94 = CARTESIAN_POINT('',(20.95,8.,3.));
#95 = ORIENTED_EDGE('',*,*,#96,.T.);
#96 = EDGE_CURVE('',#90,#97,#99,.T.);
#97 = VERTEX_POINT('',#98);
#98 = CARTESIAN_POINT('',(22.4,10.59663243452,0.));
#99 = CIRCLE('',#100,3.05);
#100 = AXIS2_PLACEMENT_3D('',#101,#102,#103);
#101 = CARTESIAN_POINT('',(24.,8.,0.));
#102 = DIRECTION('',(0.,0.,-1.));
#103 = DIRECTION('',(-1.,0.,0.));
#104 = ORIENTED_EDGE('',*,*,#105,.T.);
#105 = EDGE_CURVE('',#97,#106,#108,.T.);
#106 = VERTEX_POINT('',#107);
#107 = CARTESIAN_POINT('',(25.6,10.59663243452,0.));
#108 = CIRCLE('',#109,3.05);
#109 = AXIS2_PLACEMENT_3D('',#110,#111,#112);
#110 = CARTESIAN_POINT('',(24.,8.,0.));
#111 = DIRECTION('',(0.,0.,-1.));
#112 = DIRECTION('',(-1.,0.,0.));
#113 = ORIENTED_EDGE('',*,*,#114,.T.);
#114 = EDGE_CURVE('',#106,#115,#117,.T.);
#115 = VERTEX_POINT('',#116);
#116 = CARTESIAN_POINT('',(25.6,5.40336756548,0.));
#117 = CIRCLE('',#118,3.05);
#118 = AXIS2_PLACEMENT_3D('',#119,#120,#121);
#119 = CARTESIAN_POINT('',(24.,8.,0.));
#120 = DIRECTION('',(0.,0.,-1.));
#121 = DIRECTION('',(-1.,0.,0.));
#122 = ORIENTED_EDGE('',*,*,#123,.T.);
#123 = EDGE_CURVE('',#115,#124,#126,.T.);
#124 = VERTEX_POINT('',#125);
#125 = CARTESIAN_POINT('',(22.4,5.40336756548,0.));
#126 = CIRCLE('',#127,3.05);
#127 = AXIS2_PLACEMENT_3D('',#128,#129,#130);
#128 = CARTESIAN_POINT('',(24.,8.,0.));
#129 = DIRECTION('',(0.,0.,-1.));
#130 = DIRECTION('',(-1.,0.,0.));
#131 = ORIENTED_EDGE('',*,*,#132,.T.);
#132 = EDGE_CURVE('',#124,#90,#133,.T.);
#133 = CIRCLE('',#134,3.05);
#134 = AXIS2_PLACEMENT_3D('',#135,#136,#137);
#135 = CARTESIAN_POINT('',(24.,8.,0.));
#136 = DIRECTION('',(0.,0.,-1.));
#137 = DIRECTION('',(-1.,0.,0.));
#138 = ORIENTED_EDGE('',*,*,#89,.T.);
#139 = ORIENTED_EDGE('',*,*,#140,.F.);
#140 = EDGE_CURVE('',#141,#81,#143,.T.);
#141 = VERTEX_POINT('',#142);
#142 = CARTESIAN_POINT('',(22.4,5.40336756548,3.));
#143 = CIRCLE('',#144,3.05);
#144 = AXIS2_PLACEMENT_3D('',#145,#146,#147);
#145 = CARTESIAN_POINT('',(24.,8.,3.));
#146 = DIRECTION('',(0.,0.,-1.));
#147 = DIRECTION('',(-1.,0.,0.));
#148 = ORIENTED_EDGE('',*,*,#149,.T.);
#149 = EDGE_CURVE('',#141,#150,#152,.T.);
#150 = VERTEX_POINT('',#151);
#151 = CARTESIAN_POINT('',(22.4,5.40336756548,3.2));
#152 = LINE('',#153,#154);
#153 = CARTESIAN_POINT('',(22.4,5.40336756548,0.));
#154 = VECTOR('',#155,1.);
#155 = DIRECTION('',(0.,0.,1.));
#156 = ORIENTED_EDGE('',*,*,#157,.F.);
#157 = EDGE_CURVE('',#47,#150,#158,.T.);
#158 = CIRCLE('',#159,3.05);
#159 = AXIS2_PLACEMENT_3D('',#160,#161,#162);
#160 = CARTESIAN_POINT('',(24.,8.,3.2));
#161 = DIRECTION('',(0.,0.,-1.));
#162 = DIRECTION('',(1.,0.,0.));
#163 = CYLINDRICAL_SURFACE('',#164,3.05);
#164 = AXIS2_PLACEMENT_3D('',#165,#166,#167);
#165 = CARTESIAN_POINT('',(24.,8.,0.));
#166 = DIRECTION('',(0.,0.,1.));
#167 = DIRECTION('',(-1.,0.,0.));
#168 = ADVANCED_FACE('',(#169),#194,.F.);
#169 = FACE_BOUND('',#170,.F.);
#170 = EDGE_LOOP('',(#171,#172,#180,#188));
#171 = ORIENTED_EDGE('',*,*,#157,.F.);
#172 = ORIENTED_EDGE('',*,*,#173,.T.);
#173 = EDGE_CURVE('',#47,#174,#176,.T.);
#174 = VERTEX_POINT('',#175);
#175 = CARTESIAN_POINT('',(25.6,6.4,3.2));
#176 = LINE('',#177,#178);
#177 = CARTESIAN_POINT('',(25.6,5.40336756548,3.2));
#178 = VECTOR('',#179,1.);
#179 = DIRECTION('',(6.841002275814E-16,1.,0.));
#180 = ORIENTED_EDGE('',*,*,#181,.T.);
#181 = EDGE_CURVE('',#174,#182,#184,.T.);
#182 = VERTEX_POINT('',#183);
#183 = CARTESIAN_POINT('',(22.4,6.4,3.2));
#184 = LINE('',#185,#186);
#185 = CARTESIAN_POINT('',(23.2,6.4,3.2));
#186 = VECTOR('',#187,1.);
#187 = DIRECTION('',(-1.,0.,0.));
#188 = ORIENTED_EDGE('',*,*,#189,.F.);
#189 = EDGE_CURVE('',#150,#182,#190,.T.);
#190 = LINE('',#191,#192);
#191 = CARTESIAN_POINT('',(22.4,5.40336756548,3.2));
#192 = VECTOR('',#193,1.);
#193 = DIRECTION('',(-6.841002275814E-16,1.,-0.));
#194 = PLANE('',#195);
#195 = AXIS2_PLACEMENT_3D('',#196,#197,#198);
#196 = CARTESIAN_POINT('',(24.,8.317349901771E-16,3.2));
#197 = DIRECTION('',(0.,0.,1.));
#198 = DIRECTION('',(1.,0.,0.));
#199 = ADVANCED_FACE('',(#200),#225,.F.);
#200 = FACE_BOUND('',#201,.F.);
#201 = EDGE_LOOP('',(#202,#210,#218,#224));
#202 = ORIENTED_EDGE('',*,*,#203,.F.);
#203 = EDGE_CURVE('',#204,#64,#206,.T.);
#204 = VERTEX_POINT('',#205);
#205 = CARTESIAN_POINT('',(22.4,9.6,3.2));
#206 = LINE('',#207,#208);
#207 = CARTESIAN_POINT('',(22.4,5.40336756548,3.2));
#208 = VECTOR('',#209,1.);
#209 = DIRECTION('',(-6.841002275814E-16,1.,-0.));
#210 = ORIENTED_EDGE('',*,*,#211,.T.);
#211 = EDGE_CURVE('',#204,#212,#214,.T.);
#212 = VERTEX_POINT('',#213);
#213 = CARTESIAN_POINT('',(25.6,9.6,3.2));
#214 = LINE('',#215,#216);
#215 = CARTESIAN_POINT('',(24.8,9.6,3.2));
#216 = VECTOR('',#217,1.);
#217 = DIRECTION('',(1.,0.,0.));
#218 = ORIENTED_EDGE('',*,*,#219,.T.);
#219 = EDGE_CURVE('',#212,#56,#220,.T.);
#220 = LINE('',#221,#222);
#221 = CARTESIAN_POINT('',(25.6,5.40336756548,3.2));
#222 = VECTOR('',#223,1.);
#223 = DIRECTION('',(6.841002275814E-16,1.,0.));
#224 = ORIENTED_EDGE('',*,*,#63,.F.);
#225 = PLANE('',#226);
#226 = AXIS2_PLACEMENT_3D('',#227,#228,#229);
#227 = CARTESIAN_POINT('',(24.,8.317349901771E-16,3.2));
#228 = DIRECTION('',(0.,0.,1.));
#229 = DIRECTION('',(1.,0.,0.));
#230 = ADVANCED_FACE('',(#231),#241,.T.);
#231 = FACE_BOUND('',#232,.T.);
#232 = EDGE_LOOP('',(#233,#234,#235));
#233 = ORIENTED_EDGE('',*,*,#140,.T.);
#234 = ORIENTED_EDGE('',*,*,#80,.T.);
#235 = ORIENTED_EDGE('',*,*,#236,.F.);
#236 = EDGE_CURVE('',#141,#73,#237,.T.);
#237 = LINE('',#238,#239);
#238 = CARTESIAN_POINT('',(22.4,6.70168378274,3.));
#239 = VECTOR('',#240,1.);
#240 = DIRECTION('',(-6.841002275814E-16,1.,0.));
#241 = PLANE('',#242);
#242 = AXIS2_PLACEMENT_3D('',#243,#244,#245);
#243 = CARTESIAN_POINT('',(24.,8.,3.));
#244 = DIRECTION('',(0.,0.,-1.));
#245 = DIRECTION('',(-1.,0.,0.));
#246 = ADVANCED_FACE('',(#247,#282,#329,#379),#386,.F.);
#247 = FACE_BOUND('',#248,.F.);
#248 = EDGE_LOOP('',(#249,#260,#268,#276));
#249 = ORIENTED_EDGE('',*,*,#250,.T.);
#250 = EDGE_CURVE('',#251,#253,#255,.T.);
#251 = VERTEX_POINT('',#252);
#252 = CARTESIAN_POINT('',(-2.090559444595E-15,13.,0.));
#253 = VERTEX_POINT('',#254);
#254 = CARTESIAN_POINT('',(-1.194030634948E-15,-13.,0.));
#255 = CIRCLE('',#256,13.);
#256 = AXIS2_PLACEMENT_3D('',#257,#258,#259);
#257 = CARTESIAN_POINT('',(-1.578491702228E-26,-5.241192099715E-31,0.));
#258 = DIRECTION('',(0.,0.,1.));
#259 = DIRECTION('',(1.,0.,0.));
#260 = ORIENTED_EDGE('',*,*,#261,.F.);
#261 = EDGE_CURVE('',#262,#253,#264,.T.);
#262 = VERTEX_POINT('',#263);
#263 = CARTESIAN_POINT('',(34.,-13.,0.));
#264 = LINE('',#265,#266);
#265 = CARTESIAN_POINT('',(34.,-13.,0.));
#266 = VECTOR('',#267,1.);
#267 = DIRECTION('',(-1.,0.,0.));
#268 = ORIENTED_EDGE('',*,*,#269,.F.);
#269 = EDGE_CURVE('',#270,#262,#272,.T.);
#270 = VERTEX_POINT('',#271);
#271 = CARTESIAN_POINT('',(34.,13.,0.));
#272 = LINE('',#273,#274);
#273 = CARTESIAN_POINT('',(34.,13.,0.));
#274 = VECTOR('',#275,1.);
#275 = DIRECTION('',(0.,-1.,0.));
#276 = ORIENTED_EDGE('',*,*,#277,.F.);
#277 = EDGE_CURVE('',#251,#270,#278,.T.);
#278 = LINE('',#279,#280);
#279 = CARTESIAN_POINT('',(-2.090559444595E-15,13.,0.));
#280 = VECTOR('',#281,1.);
#281 = DIRECTION('',(1.,0.,0.));
#282 = FACE_BOUND('',#283,.F.);
#283 = EDGE_LOOP('',(#284,#295,#304,#313,#322));
#284 = ORIENTED_EDGE('',*,*,#285,.T.);
#285 = EDGE_CURVE('',#286,#288,#290,.T.);
#286 = VERTEX_POINT('',#287);
#287 = CARTESIAN_POINT('',(20.95,-8.,0.));
#288 = VERTEX_POINT('',#289);
#289 = CARTESIAN_POINT('',(22.4,-5.40336756548,0.));
#290 = CIRCLE('',#291,3.05);
#291 = AXIS2_PLACEMENT_3D('',#292,#293,#294);
#292 = CARTESIAN_POINT('',(24.,-8.,0.));
#293 = DIRECTION('',(0.,0.,-1.));
#294 = DIRECTION('',(-1.,0.,0.));
#295 = ORIENTED_EDGE('',*,*,#296,.T.);
#296 = EDGE_CURVE('',#288,#297,#299,.T.);
#297 = VERTEX_POINT('',#298);
#298 = CARTESIAN_POINT('',(25.6,-5.40336756548,0.));
#299 = CIRCLE('',#300,3.05);
#300 = AXIS2_PLACEMENT_3D('',#301,#302,#303);
#301 = CARTESIAN_POINT('',(24.,-8.,0.));
#302 = DIRECTION('',(0.,0.,-1.));
#303 = DIRECTION('',(-1.,0.,0.));
#304 = ORIENTED_EDGE('',*,*,#305,.T.);
#305 = EDGE_CURVE('',#297,#306,#308,.T.);
#306 = VERTEX_POINT('',#307);
#307 = CARTESIAN_POINT('',(25.6,-10.59663243452,0.));
#308 = CIRCLE('',#309,3.05);
#309 = AXIS2_PLACEMENT_3D('',#310,#311,#312);
#310 = CARTESIAN_POINT('',(24.,-8.,0.));
#311 = DIRECTION('',(0.,0.,-1.));
#312 = DIRECTION('',(-1.,0.,0.));
#313 = ORIENTED_EDGE('',*,*,#314,.T.);
#314 = EDGE_CURVE('',#306,#315,#317,.T.);
#315 = VERTEX_POINT('',#316);
#316 = CARTESIAN_POINT('',(22.4,-10.59663243452,0.));
#317 = CIRCLE('',#318,3.05);
#318 = AXIS2_PLACEMENT_3D('',#319,#320,#321);
#319 = CARTESIAN_POINT('',(24.,-8.,0.));
#320 = DIRECTION('',(0.,0.,-1.));
#321 = DIRECTION('',(-1.,0.,0.));
#322 = ORIENTED_EDGE('',*,*,#323,.T.);
#323 = EDGE_CURVE('',#315,#286,#324,.T.);
#324 = CIRCLE('',#325,3.05);
#325 = AXIS2_PLACEMENT_3D('',#326,#327,#328);
#326 = CARTESIAN_POINT('',(24.,-8.,0.));
#327 = DIRECTION('',(0.,0.,-1.));
#328 = DIRECTION('',(-1.,0.,0.));
#329 = FACE_BOUND('',#330,.F.);
#330 = EDGE_LOOP('',(#331,#341,#349,#357,#365,#373));
#331 = ORIENTED_EDGE('',*,*,#332,.F.);
#332 = EDGE_CURVE('',#333,#335,#337,.T.);
#333 = VERTEX_POINT('',#334);
#334 = CARTESIAN_POINT('',(4.618802153517,-4.440892098501E-16,0.));
#335 = VERTEX_POINT('',#336);
#336 = CARTESIAN_POINT('',(2.309401076759,4.,0.));
#337 = LINE('',#338,#339);
#338 = CARTESIAN_POINT('',(4.618802153517,-4.440892098501E-16,0.));
#339 = VECTOR('',#340,1.);
#340 = DIRECTION('',(-0.5,0.866025403784,0.));
#341 = ORIENTED_EDGE('',*,*,#342,.F.);
#342 = EDGE_CURVE('',#343,#333,#345,.T.);
#343 = VERTEX_POINT('',#344);
#344 = CARTESIAN_POINT('',(2.309401076759,-4.,0.));
#345 = LINE('',#346,#347);
#346 = CARTESIAN_POINT('',(2.309401076759,-4.,0.));
#347 = VECTOR('',#348,1.);
#348 = DIRECTION('',(0.5,0.866025403784,0.));
#349 = ORIENTED_EDGE('',*,*,#350,.F.);
#350 = EDGE_CURVE('',#351,#343,#353,.T.);
#351 = VERTEX_POINT('',#352);
#352 = CARTESIAN_POINT('',(-2.309401076759,-4.,0.));
#353 = LINE('',#354,#355);
#354 = CARTESIAN_POINT('',(-2.309401076759,-4.,0.));
#355 = VECTOR('',#356,1.);
#356 = DIRECTION('',(1.,-9.614813431918E-17,0.));
#357 = ORIENTED_EDGE('',*,*,#358,.F.);
#358 = EDGE_CURVE('',#359,#351,#361,.T.);
#359 = VERTEX_POINT('',#360);
#360 = CARTESIAN_POINT('',(-4.618802153517,4.440892098501E-16,0.));
#361 = LINE('',#362,#363);
#362 = CARTESIAN_POINT('',(-4.618802153517,4.440892098501E-16,0.));
#363 = VECTOR('',#364,1.);
#364 = DIRECTION('',(0.5,-0.866025403784,0.));
#365 = ORIENTED_EDGE('',*,*,#366,.F.);
#366 = EDGE_CURVE('',#367,#359,#369,.T.);
#367 = VERTEX_POINT('',#368);
#368 = CARTESIAN_POINT('',(-2.309401076759,4.,0.));
#369 = LINE('',#370,#371);
#370 = CARTESIAN_POINT('',(-2.309401076759,4.,0.));
#371 = VECTOR('',#372,1.);
#372 = DIRECTION('',(-0.5,-0.866025403784,0.));
#373 = ORIENTED_EDGE('',*,*,#374,.F.);
#374 = EDGE_CURVE('',#335,#367,#375,.T.);
#375 = LINE('',#376,#377);
#376 = CARTESIAN_POINT('',(2.309401076759,4.,0.));
#377 = VECTOR('',#378,1.);
#378 = DIRECTION('',(-1.,0.,0.));
#379 = FACE_BOUND('',#380,.F.);
#380 = EDGE_LOOP('',(#381,#382,#383,#384,#385));
#381 = ORIENTED_EDGE('',*,*,#96,.T.);
#382 = ORIENTED_EDGE('',*,*,#105,.T.);
#383 = ORIENTED_EDGE('',*,*,#114,.T.);
#384 = ORIENTED_EDGE('',*,*,#123,.T.);
#385 = ORIENTED_EDGE('',*,*,#132,.T.);
#386 = PLANE('',#387);
#387 = AXIS2_PLACEMENT_3D('',#388,#389,#390);
#388 = CARTESIAN_POINT('',(10.872085316425,-5.059339892829E-17,0.));
#389 = DIRECTION('',(0.,0.,1.));
#390 = DIRECTION('',(1.,0.,0.));
#391 = ADVANCED_FACE('',(#392),#418,.T.);
#392 = FACE_BOUND('',#393,.F.);
#393 = EDGE_LOOP('',(#394,#402,#411,#417));
#394 = ORIENTED_EDGE('',*,*,#395,.T.);
#395 = EDGE_CURVE('',#251,#396,#398,.T.);
#396 = VERTEX_POINT('',#397);
#397 = CARTESIAN_POINT('',(-2.090559444595E-15,13.,5.));
#398 = LINE('',#399,#400);
#399 = CARTESIAN_POINT('',(-2.090559444595E-15,13.,0.));
#400 = VECTOR('',#401,1.);
#401 = DIRECTION('',(0.,0.,1.));
#402 = ORIENTED_EDGE('',*,*,#403,.T.);
#403 = EDGE_CURVE('',#396,#404,#406,.T.);
#404 = VERTEX_POINT('',#405);
#405 = CARTESIAN_POINT('',(-1.194030634948E-15,-13.,5.));
#406 = CIRCLE('',#407,13.);
#407 = AXIS2_PLACEMENT_3D('',#408,#409,#410);
#408 = CARTESIAN_POINT('',(-1.578491702228E-26,-5.241192099715E-31,5.));
#409 = DIRECTION('',(0.,0.,1.));
#410 = DIRECTION('',(1.,0.,0.));
#411 = ORIENTED_EDGE('',*,*,#412,.F.);
#412 = EDGE_CURVE('',#253,#404,#413,.T.);
#413 = LINE('',#414,#415);
#414 = CARTESIAN_POINT('',(-1.194030634948E-15,-13.,0.));
#415 = VECTOR('',#416,1.);
#416 = DIRECTION('',(0.,0.,1.));
#417 = ORIENTED_EDGE('',*,*,#250,.F.);
#418 = CYLINDRICAL_SURFACE('',#419,13.);
#419 = AXIS2_PLACEMENT_3D('',#420,#421,#422);
#420 = CARTESIAN_POINT('',(-1.578491702228E-26,-5.241192099715E-31,0.));
#421 = DIRECTION('',(-0.,-0.,-1.));
#422 = DIRECTION('',(1.,0.,0.));
#423 = ADVANCED_FACE('',(#424),#442,.T.);
#424 = FACE_BOUND('',#425,.T.);
#425 = EDGE_LOOP('',(#426,#427,#435,#441));
#426 = ORIENTED_EDGE('',*,*,#395,.T.);
#427 = ORIENTED_EDGE('',*,*,#428,.T.);
#428 = EDGE_CURVE('',#396,#429,#431,.T.);
#429 = VERTEX_POINT('',#430);
#430 = CARTESIAN_POINT('',(34.,13.,5.));
#431 = LINE('',#432,#433);
#432 = CARTESIAN_POINT('',(-2.090559444595E-15,13.,5.));
#433 = VECTOR('',#434,1.);
#434 = DIRECTION('',(1.,0.,0.));
#435 = ORIENTED_EDGE('',*,*,#436,.F.);
#436 = EDGE_CURVE('',#270,#429,#437,.T.);
#437 = LINE('',#438,#439);
#438 = CARTESIAN_POINT('',(34.,13.,0.));
#439 = VECTOR('',#440,1.);
#440 = DIRECTION('',(0.,0.,1.));
#441 = ORIENTED_EDGE('',*,*,#277,.F.);
#442 = PLANE('',#443);
#443 = AXIS2_PLACEMENT_3D('',#444,#445,#446);
#444 = CARTESIAN_POINT('',(-2.090559444595E-15,13.,0.));
#445 = DIRECTION('',(0.,1.,0.));
#446 = DIRECTION('',(1.,0.,0.));
#447 = ADVANCED_FACE('',(#448),#466,.T.);
#448 = FACE_BOUND('',#449,.T.);
#449 = EDGE_LOOP('',(#450,#458,#464,#465));
#450 = ORIENTED_EDGE('',*,*,#451,.T.);
#451 = EDGE_CURVE('',#262,#452,#454,.T.);
#452 = VERTEX_POINT('',#453);
#453 = CARTESIAN_POINT('',(34.,-13.,5.));
#454 = LINE('',#455,#456);
#455 = CARTESIAN_POINT('',(34.,-13.,0.));
#456 = VECTOR('',#457,1.);
#457 = DIRECTION('',(0.,0.,1.));
#458 = ORIENTED_EDGE('',*,*,#459,.T.);
#459 = EDGE_CURVE('',#452,#404,#460,.T.);
#460 = LINE('',#461,#462);
#461 = CARTESIAN_POINT('',(34.,-13.,5.));
#462 = VECTOR('',#463,1.);
#463 = DIRECTION('',(-1.,0.,0.));
#464 = ORIENTED_EDGE('',*,*,#412,.F.);
#465 = ORIENTED_EDGE('',*,*,#261,.F.);
#466 = PLANE('',#467);
#467 = AXIS2_PLACEMENT_3D('',#468,#469,#470);
#468 = CARTESIAN_POINT('',(34.,-13.,0.));
#469 = DIRECTION('',(0.,-1.,0.));
#470 = DIRECTION('',(-1.,0.,0.));
#471 = ADVANCED_FACE('',(#472),#483,.T.);
#472 = FACE_BOUND('',#473,.T.);
#473 = EDGE_LOOP('',(#474,#475,#481,#482));
#474 = ORIENTED_EDGE('',*,*,#436,.T.);
#475 = ORIENTED_EDGE('',*,*,#476,.T.);
#476 = EDGE_CURVE('',#429,#452,#477,.T.);
#477 = LINE('',#478,#479);
#478 = CARTESIAN_POINT('',(34.,13.,5.));
#479 = VECTOR('',#480,1.);
#480 = DIRECTION('',(0.,-1.,0.));
#481 = ORIENTED_EDGE('',*,*,#451,.F.);
#482 = ORIENTED_EDGE('',*,*,#269,.F.);
#483 = PLANE('',#484);
#484 = AXIS2_PLACEMENT_3D('',#485,#486,#487);
#485 = CARTESIAN_POINT('',(34.,13.,0.));
#486 = DIRECTION('',(1.,0.,0.));
#487 = DIRECTION('',(0.,-1.,0.));
#488 = ADVANCED_FACE('',(#489),#579,.F.);
#489 = FACE_BOUND('',#490,.T.);
#490 = EDGE_LOOP('',(#491,#501,#510,#518,#527,#535,#544,#549,#550,#551,
    #552,#553,#554,#555,#564,#572));
#491 = ORIENTED_EDGE('',*,*,#492,.F.);
#492 = EDGE_CURVE('',#493,#495,#497,.T.);
#493 = VERTEX_POINT('',#494);
#494 = CARTESIAN_POINT('',(25.6,-10.59663243452,3.));
#495 = VERTEX_POINT('',#496);
#496 = CARTESIAN_POINT('',(25.6,-10.59663243452,3.2));
#497 = LINE('',#498,#499);
#498 = CARTESIAN_POINT('',(25.6,-10.59663243452,0.));
#499 = VECTOR('',#500,1.);
#500 = DIRECTION('',(0.,0.,1.));
#501 = ORIENTED_EDGE('',*,*,#502,.F.);
#502 = EDGE_CURVE('',#503,#493,#505,.T.);
#503 = VERTEX_POINT('',#504);
#504 = CARTESIAN_POINT('',(25.6,-5.40336756548,3.));
#505 = CIRCLE('',#506,3.05);
#506 = AXIS2_PLACEMENT_3D('',#507,#508,#509);
#507 = CARTESIAN_POINT('',(24.,-8.,3.));
#508 = DIRECTION('',(0.,0.,-1.));
#509 = DIRECTION('',(-1.,0.,0.));
#510 = ORIENTED_EDGE('',*,*,#511,.T.);
#511 = EDGE_CURVE('',#503,#512,#514,.T.);
#512 = VERTEX_POINT('',#513);
#513 = CARTESIAN_POINT('',(25.6,-5.40336756548,3.2));
#514 = LINE('',#515,#516);
#515 = CARTESIAN_POINT('',(25.6,-5.40336756548,0.));
#516 = VECTOR('',#517,1.);
#517 = DIRECTION('',(0.,0.,1.));
#518 = ORIENTED_EDGE('',*,*,#519,.F.);
#519 = EDGE_CURVE('',#520,#512,#522,.T.);
#520 = VERTEX_POINT('',#521);
#521 = CARTESIAN_POINT('',(22.4,-5.40336756548,3.2));
#522 = CIRCLE('',#523,3.05);
#523 = AXIS2_PLACEMENT_3D('',#524,#525,#526);
#524 = CARTESIAN_POINT('',(24.,-8.,3.2));
#525 = DIRECTION('',(0.,0.,-1.));
#526 = DIRECTION('',(1.,0.,0.));
#527 = ORIENTED_EDGE('',*,*,#528,.F.);
#528 = EDGE_CURVE('',#529,#520,#531,.T.);
#529 = VERTEX_POINT('',#530);
#530 = CARTESIAN_POINT('',(22.4,-5.40336756548,3.));
#531 = LINE('',#532,#533);
#532 = CARTESIAN_POINT('',(22.4,-5.40336756548,0.));
#533 = VECTOR('',#534,1.);
#534 = DIRECTION('',(0.,0.,1.));
#535 = ORIENTED_EDGE('',*,*,#536,.F.);
#536 = EDGE_CURVE('',#537,#529,#539,.T.);
#537 = VERTEX_POINT('',#538);
#538 = CARTESIAN_POINT('',(20.95,-8.,3.));
#539 = CIRCLE('',#540,3.05);
#540 = AXIS2_PLACEMENT_3D('',#541,#542,#543);
#541 = CARTESIAN_POINT('',(24.,-8.,3.));
#542 = DIRECTION('',(0.,0.,-1.));
#543 = DIRECTION('',(-1.,0.,0.));
#544 = ORIENTED_EDGE('',*,*,#545,.F.);
#545 = EDGE_CURVE('',#286,#537,#546,.T.);
#546 = B_SPLINE_CURVE_WITH_KNOTS('',1,(#547,#548),.UNSPECIFIED.,.F.,.F.,
  (2,2),(0.,3.),.PIECEWISE_BEZIER_KNOTS.);
#547 = CARTESIAN_POINT('',(20.95,-8.,0.));
#548 = CARTESIAN_POINT('',(20.95,-8.,3.));
#549 = ORIENTED_EDGE('',*,*,#285,.T.);
#550 = ORIENTED_EDGE('',*,*,#296,.T.);
#551 = ORIENTED_EDGE('',*,*,#305,.T.);
#552 = ORIENTED_EDGE('',*,*,#314,.T.);
#553 = ORIENTED_EDGE('',*,*,#323,.T.);
#554 = ORIENTED_EDGE('',*,*,#545,.T.);
#555 = ORIENTED_EDGE('',*,*,#556,.F.);
#556 = EDGE_CURVE('',#557,#537,#559,.T.);
#557 = VERTEX_POINT('',#558);
#558 = CARTESIAN_POINT('',(22.4,-10.59663243452,3.));
#559 = CIRCLE('',#560,3.05);
#560 = AXIS2_PLACEMENT_3D('',#561,#562,#563);
#561 = CARTESIAN_POINT('',(24.,-8.,3.));
#562 = DIRECTION('',(0.,0.,-1.));
#563 = DIRECTION('',(-1.,0.,0.));
#564 = ORIENTED_EDGE('',*,*,#565,.T.);
#565 = EDGE_CURVE('',#557,#566,#568,.T.);
#566 = VERTEX_POINT('',#567);
#567 = CARTESIAN_POINT('',(22.4,-10.59663243452,3.2));
#568 = LINE('',#569,#570);
#569 = CARTESIAN_POINT('',(22.4,-10.59663243452,0.));
#570 = VECTOR('',#571,1.);
#571 = DIRECTION('',(0.,0.,1.));
#572 = ORIENTED_EDGE('',*,*,#573,.F.);
#573 = EDGE_CURVE('',#495,#566,#574,.T.);
#574 = CIRCLE('',#575,3.05);
#575 = AXIS2_PLACEMENT_3D('',#576,#577,#578);
#576 = CARTESIAN_POINT('',(24.,-8.,3.2));
#577 = DIRECTION('',(0.,0.,-1.));
#578 = DIRECTION('',(1.,0.,0.));
#579 = CYLINDRICAL_SURFACE('',#580,3.05);
#580 = AXIS2_PLACEMENT_3D('',#581,#582,#583);
#581 = CARTESIAN_POINT('',(24.,-8.,0.));
#582 = DIRECTION('',(0.,0.,1.));
#583 = DIRECTION('',(-1.,0.,0.));
#584 = ADVANCED_FACE('',(#585),#610,.T.);
#585 = FACE_BOUND('',#586,.T.);
#586 = EDGE_LOOP('',(#587,#595,#603,#609));
#587 = ORIENTED_EDGE('',*,*,#588,.T.);
#588 = EDGE_CURVE('',#333,#589,#591,.T.);
#589 = VERTEX_POINT('',#590);
#590 = CARTESIAN_POINT('',(4.618802153517,-4.440892098501E-16,8.));
#591 = LINE('',#592,#593);
#592 = CARTESIAN_POINT('',(4.618802153517,-4.440892098501E-16,0.));
#593 = VECTOR('',#594,1.);
#594 = DIRECTION('',(0.,0.,1.));
#595 = ORIENTED_EDGE('',*,*,#596,.T.);
#596 = EDGE_CURVE('',#589,#597,#599,.T.);
#597 = VERTEX_POINT('',#598);
#598 = CARTESIAN_POINT('',(2.309401076759,4.,8.));
#599 = LINE('',#600,#601);
#600 = CARTESIAN_POINT('',(4.618802153517,-4.440892098501E-16,8.));
#601 = VECTOR('',#602,1.);
#602 = DIRECTION('',(-0.5,0.866025403784,0.));
#603 = ORIENTED_EDGE('',*,*,#604,.F.);
#604 = EDGE_CURVE('',#335,#597,#605,.T.);
#605 = LINE('',#606,#607);
#606 = CARTESIAN_POINT('',(2.309401076759,4.,5.));
#607 = VECTOR('',#608,1.);
#608 = DIRECTION('',(0.,0.,1.));
#609 = ORIENTED_EDGE('',*,*,#332,.F.);
#610 = PLANE('',#611);
#611 = AXIS2_PLACEMENT_3D('',#612,#613,#614);
#612 = CARTESIAN_POINT('',(3.464101615138,2.,4.));
#613 = DIRECTION('',(-0.866025403784,-0.5,-0.));
#614 = DIRECTION('',(0.5,-0.866025403784,0.));
#615 = ADVANCED_FACE('',(#616),#634,.T.);
#616 = FACE_BOUND('',#617,.T.);
#617 = EDGE_LOOP('',(#618,#626,#632,#633));
#618 = ORIENTED_EDGE('',*,*,#619,.T.);
#619 = EDGE_CURVE('',#343,#620,#622,.T.);
#620 = VERTEX_POINT('',#621);
#621 = CARTESIAN_POINT('',(2.309401076759,-4.,8.));
#622 = LINE('',#623,#624);
#623 = CARTESIAN_POINT('',(2.309401076759,-4.,5.));
#624 = VECTOR('',#625,1.);
#625 = DIRECTION('',(0.,0.,1.));
#626 = ORIENTED_EDGE('',*,*,#627,.T.);
#627 = EDGE_CURVE('',#620,#589,#628,.T.);
#628 = LINE('',#629,#630);
#629 = CARTESIAN_POINT('',(2.309401076759,-4.,8.));
#630 = VECTOR('',#631,1.);
#631 = DIRECTION('',(0.5,0.866025403784,0.));
#632 = ORIENTED_EDGE('',*,*,#588,.F.);
#633 = ORIENTED_EDGE('',*,*,#342,.F.);
#634 = PLANE('',#635);
#635 = AXIS2_PLACEMENT_3D('',#636,#637,#638);
#636 = CARTESIAN_POINT('',(3.464101615138,-2.,4.));
#637 = DIRECTION('',(-0.866025403784,0.5,0.));
#638 = DIRECTION('',(-0.5,-0.866025403784,0.));
#639 = ADVANCED_FACE('',(#640),#658,.T.);
#640 = FACE_BOUND('',#641,.T.);
#641 = EDGE_LOOP('',(#642,#643,#651,#657));
#642 = ORIENTED_EDGE('',*,*,#604,.T.);
#643 = ORIENTED_EDGE('',*,*,#644,.T.);
#644 = EDGE_CURVE('',#597,#645,#647,.T.);
#645 = VERTEX_POINT('',#646);
#646 = CARTESIAN_POINT('',(-2.309401076759,4.,8.));
#647 = LINE('',#648,#649);
#648 = CARTESIAN_POINT('',(2.309401076759,4.,8.));
#649 = VECTOR('',#650,1.);
#650 = DIRECTION('',(-1.,9.614813431918E-17,0.));
#651 = ORIENTED_EDGE('',*,*,#652,.F.);
#652 = EDGE_CURVE('',#367,#645,#653,.T.);
#653 = LINE('',#654,#655);
#654 = CARTESIAN_POINT('',(-2.309401076759,4.,5.));
#655 = VECTOR('',#656,1.);
#656 = DIRECTION('',(0.,0.,1.));
#657 = ORIENTED_EDGE('',*,*,#374,.F.);
#658 = PLANE('',#659);
#659 = AXIS2_PLACEMENT_3D('',#660,#661,#662);
#660 = CARTESIAN_POINT('',(3.871192565603E-16,4.,4.));
#661 = DIRECTION('',(-0.,-1.,-0.));
#662 = DIRECTION('',(0.,0.,-1.));
#663 = ADVANCED_FACE('',(#664),#682,.T.);
#664 = FACE_BOUND('',#665,.T.);
#665 = EDGE_LOOP('',(#666,#674,#680,#681));
#666 = ORIENTED_EDGE('',*,*,#667,.T.);
#667 = EDGE_CURVE('',#351,#668,#670,.T.);
#668 = VERTEX_POINT('',#669);
#669 = CARTESIAN_POINT('',(-2.309401076759,-4.,8.));
#670 = LINE('',#671,#672);
#671 = CARTESIAN_POINT('',(-2.309401076759,-4.,5.));
#672 = VECTOR('',#673,1.);
#673 = DIRECTION('',(0.,0.,1.));
#674 = ORIENTED_EDGE('',*,*,#675,.T.);
#675 = EDGE_CURVE('',#668,#620,#676,.T.);
#676 = LINE('',#677,#678);
#677 = CARTESIAN_POINT('',(-2.309401076759,-4.,8.));
#678 = VECTOR('',#679,1.);
#679 = DIRECTION('',(1.,-9.614813431918E-17,0.));
#680 = ORIENTED_EDGE('',*,*,#619,.F.);
#681 = ORIENTED_EDGE('',*,*,#350,.F.);
#682 = PLANE('',#683);
#683 = AXIS2_PLACEMENT_3D('',#684,#685,#686);
#684 = CARTESIAN_POINT('',(-8.798164921824E-16,-4.,4.));
#685 = DIRECTION('',(0.,1.,0.));
#686 = DIRECTION('',(0.,0.,1.));
#687 = ADVANCED_FACE('',(#688),#706,.T.);
#688 = FACE_BOUND('',#689,.T.);
#689 = EDGE_LOOP('',(#690,#691,#699,#705));
#690 = ORIENTED_EDGE('',*,*,#652,.T.);
#691 = ORIENTED_EDGE('',*,*,#692,.T.);
#692 = EDGE_CURVE('',#645,#693,#695,.T.);
#693 = VERTEX_POINT('',#694);
#694 = CARTESIAN_POINT('',(-4.618802153517,4.440892098501E-16,8.));
#695 = LINE('',#696,#697);
#696 = CARTESIAN_POINT('',(-2.309401076759,4.,8.));
#697 = VECTOR('',#698,1.);
#698 = DIRECTION('',(-0.5,-0.866025403784,0.));
#699 = ORIENTED_EDGE('',*,*,#700,.F.);
#700 = EDGE_CURVE('',#359,#693,#701,.T.);
#701 = LINE('',#702,#703);
#702 = CARTESIAN_POINT('',(-4.618802153517,4.440892098501E-16,5.));
#703 = VECTOR('',#704,1.);
#704 = DIRECTION('',(0.,0.,1.));
#705 = ORIENTED_EDGE('',*,*,#366,.F.);
#706 = PLANE('',#707);
#707 = AXIS2_PLACEMENT_3D('',#708,#709,#710);
#708 = CARTESIAN_POINT('',(-3.464101615138,2.,4.));
#709 = DIRECTION('',(0.866025403784,-0.5,0.));
#710 = DIRECTION('',(0.5,0.866025403784,0.));
#711 = ADVANCED_FACE('',(#712),#723,.T.);
#712 = FACE_BOUND('',#713,.T.);
#713 = EDGE_LOOP('',(#714,#715,#721,#722));
#714 = ORIENTED_EDGE('',*,*,#700,.T.);
#715 = ORIENTED_EDGE('',*,*,#716,.T.);
#716 = EDGE_CURVE('',#693,#668,#717,.T.);
#717 = LINE('',#718,#719);
#718 = CARTESIAN_POINT('',(-4.618802153517,4.440892098501E-16,8.));
#719 = VECTOR('',#720,1.);
#720 = DIRECTION('',(0.5,-0.866025403784,0.));
#721 = ORIENTED_EDGE('',*,*,#667,.F.);
#722 = ORIENTED_EDGE('',*,*,#358,.F.);
#723 = PLANE('',#724);
#724 = AXIS2_PLACEMENT_3D('',#725,#726,#727);
#725 = CARTESIAN_POINT('',(-3.464101615138,-2.,4.));
#726 = DIRECTION('',(0.866025403784,0.5,0.));
#727 = DIRECTION('',(-0.5,0.866025403784,0.));
#728 = ADVANCED_FACE('',(#729,#735,#746,#757),#768,.T.);
#729 = FACE_BOUND('',#730,.T.);
#730 = EDGE_LOOP('',(#731,#732,#733,#734));
#731 = ORIENTED_EDGE('',*,*,#403,.T.);
#732 = ORIENTED_EDGE('',*,*,#459,.F.);
#733 = ORIENTED_EDGE('',*,*,#476,.F.);
#734 = ORIENTED_EDGE('',*,*,#428,.F.);
#735 = FACE_BOUND('',#736,.T.);
#736 = EDGE_LOOP('',(#737));
#737 = ORIENTED_EDGE('',*,*,#738,.F.);
#738 = EDGE_CURVE('',#739,#739,#741,.T.);
#739 = VERTEX_POINT('',#740);
#740 = CARTESIAN_POINT('',(22.4,-8.,5.));
#741 = CIRCLE('',#742,1.6);
#742 = AXIS2_PLACEMENT_3D('',#743,#744,#745);
#743 = CARTESIAN_POINT('',(24.,-8.,5.));
#744 = DIRECTION('',(0.,-0.,1.));
#745 = DIRECTION('',(-1.,0.,0.));
#746 = FACE_BOUND('',#747,.T.);
#747 = EDGE_LOOP('',(#748));
#748 = ORIENTED_EDGE('',*,*,#749,.F.);
#749 = EDGE_CURVE('',#750,#750,#752,.T.);
#750 = VERTEX_POINT('',#751);
#751 = CARTESIAN_POINT('',(8.95,0.,5.));
#752 = CIRCLE('',#753,8.95);
#753 = AXIS2_PLACEMENT_3D('',#754,#755,#756);
#754 = CARTESIAN_POINT('',(0.,0.,5.));
#755 = DIRECTION('',(0.,0.,1.));
#756 = DIRECTION('',(1.,0.,0.));
#757 = FACE_BOUND('',#758,.T.);
#758 = EDGE_LOOP('',(#759));
#759 = ORIENTED_EDGE('',*,*,#760,.F.);
#760 = EDGE_CURVE('',#761,#761,#763,.T.);
#761 = VERTEX_POINT('',#762);
#762 = CARTESIAN_POINT('',(22.4,8.,5.));
#763 = CIRCLE('',#764,1.6);
#764 = AXIS2_PLACEMENT_3D('',#765,#766,#767);
#765 = CARTESIAN_POINT('',(24.,8.,5.));
#766 = DIRECTION('',(0.,-0.,1.));
#767 = DIRECTION('',(-1.,0.,0.));
#768 = PLANE('',#769);
#769 = AXIS2_PLACEMENT_3D('',#770,#771,#772);
#770 = CARTESIAN_POINT('',(10.872085316425,-5.059339892829E-17,5.));
#771 = DIRECTION('',(0.,0.,1.));
#772 = DIRECTION('',(1.,0.,0.));
#773 = ADVANCED_FACE('',(#774),#801,.F.);
#774 = FACE_BOUND('',#775,.F.);
#775 = EDGE_LOOP('',(#776,#786,#794));
#776 = ORIENTED_EDGE('',*,*,#777,.T.);
#777 = EDGE_CURVE('',#778,#780,#782,.T.);
#778 = VERTEX_POINT('',#779);
#779 = CARTESIAN_POINT('',(22.4,8.,3.4));
#780 = VERTEX_POINT('',#781);
#781 = CARTESIAN_POINT('',(22.4,6.4,3.4));
#782 = LINE('',#783,#784);
#783 = CARTESIAN_POINT('',(22.4,9.6,3.4));
#784 = VECTOR('',#785,1.);
#785 = DIRECTION('',(0.,-1.,0.));
#786 = ORIENTED_EDGE('',*,*,#787,.T.);
#787 = EDGE_CURVE('',#780,#788,#790,.T.);
#788 = VERTEX_POINT('',#789);
#789 = CARTESIAN_POINT('',(24.,6.4,3.4));
#790 = LINE('',#791,#792);
#791 = CARTESIAN_POINT('',(22.4,6.4,3.4));
#792 = VECTOR('',#793,1.);
#793 = DIRECTION('',(1.,0.,0.));
#794 = ORIENTED_EDGE('',*,*,#795,.F.);
#795 = EDGE_CURVE('',#778,#788,#796,.T.);
#796 = CIRCLE('',#797,1.6);
#797 = AXIS2_PLACEMENT_3D('',#798,#799,#800);
#798 = CARTESIAN_POINT('',(24.,8.,3.4));
#799 = DIRECTION('',(0.,0.,1.));
#800 = DIRECTION('',(-1.,0.,0.));
#801 = PLANE('',#802);
#802 = AXIS2_PLACEMENT_3D('',#803,#804,#805);
#803 = CARTESIAN_POINT('',(24.,0.,3.4));
#804 = DIRECTION('',(0.,0.,1.));
#805 = DIRECTION('',(1.,0.,0.));
#806 = ADVANCED_FACE('',(#807),#843,.F.);
#807 = FACE_BOUND('',#808,.T.);
#808 = EDGE_LOOP('',(#809,#810,#816,#817,#818,#827,#836));
#809 = ORIENTED_EDGE('',*,*,#795,.F.);
#810 = ORIENTED_EDGE('',*,*,#811,.T.);
#811 = EDGE_CURVE('',#778,#761,#812,.T.);
#812 = LINE('',#813,#814);
#813 = CARTESIAN_POINT('',(22.4,8.,3.));
#814 = VECTOR('',#815,1.);
#815 = DIRECTION('',(6.035695270416E-17,0.,1.));
#816 = ORIENTED_EDGE('',*,*,#760,.T.);
#817 = ORIENTED_EDGE('',*,*,#811,.F.);
#818 = ORIENTED_EDGE('',*,*,#819,.F.);
#819 = EDGE_CURVE('',#820,#778,#822,.T.);
#820 = VERTEX_POINT('',#821);
#821 = CARTESIAN_POINT('',(24.,9.6,3.4));
#822 = CIRCLE('',#823,1.6);
#823 = AXIS2_PLACEMENT_3D('',#824,#825,#826);
#824 = CARTESIAN_POINT('',(24.,8.,3.4));
#825 = DIRECTION('',(0.,0.,1.));
#826 = DIRECTION('',(-1.,0.,0.));
#827 = ORIENTED_EDGE('',*,*,#828,.F.);
#828 = EDGE_CURVE('',#829,#820,#831,.T.);
#829 = VERTEX_POINT('',#830);
#830 = CARTESIAN_POINT('',(25.6,8.,3.4));
#831 = CIRCLE('',#832,1.6);
#832 = AXIS2_PLACEMENT_3D('',#833,#834,#835);
#833 = CARTESIAN_POINT('',(24.,8.,3.4));
#834 = DIRECTION('',(0.,0.,1.));
#835 = DIRECTION('',(-1.,0.,0.));
#836 = ORIENTED_EDGE('',*,*,#837,.F.);
#837 = EDGE_CURVE('',#788,#829,#838,.T.);
#838 = CIRCLE('',#839,1.6);
#839 = AXIS2_PLACEMENT_3D('',#840,#841,#842);
#840 = CARTESIAN_POINT('',(24.,8.,3.4));
#841 = DIRECTION('',(0.,0.,1.));
#842 = DIRECTION('',(-1.,0.,0.));
#843 = CYLINDRICAL_SURFACE('',#844,1.6);
#844 = AXIS2_PLACEMENT_3D('',#845,#846,#847);
#845 = CARTESIAN_POINT('',(24.,8.,3.));
#846 = DIRECTION('',(0.,0.,1.));
#847 = DIRECTION('',(-1.,0.,0.));
#848 = ADVANCED_FACE('',(#849),#866,.F.);
#849 = FACE_BOUND('',#850,.F.);
#850 = EDGE_LOOP('',(#851,#852,#860));
#851 = ORIENTED_EDGE('',*,*,#837,.F.);
#852 = ORIENTED_EDGE('',*,*,#853,.T.);
#853 = EDGE_CURVE('',#788,#854,#856,.T.);
#854 = VERTEX_POINT('',#855);
#855 = CARTESIAN_POINT('',(25.6,6.4,3.4));
#856 = LINE('',#857,#858);
#857 = CARTESIAN_POINT('',(22.4,6.4,3.4));
#858 = VECTOR('',#859,1.);
#859 = DIRECTION('',(1.,0.,0.));
#860 = ORIENTED_EDGE('',*,*,#861,.T.);
#861 = EDGE_CURVE('',#854,#829,#862,.T.);
#862 = LINE('',#863,#864);
#863 = CARTESIAN_POINT('',(25.6,6.4,3.4));
#864 = VECTOR('',#865,1.);
#865 = DIRECTION('',(0.,1.,0.));
#866 = PLANE('',#867);
#867 = AXIS2_PLACEMENT_3D('',#868,#869,#870);
#868 = CARTESIAN_POINT('',(24.,0.,3.4));
#869 = DIRECTION('',(0.,0.,1.));
#870 = DIRECTION('',(1.,0.,0.));
#871 = ADVANCED_FACE('',(#872),#889,.F.);
#872 = FACE_BOUND('',#873,.F.);
#873 = EDGE_LOOP('',(#874,#875,#883));
#874 = ORIENTED_EDGE('',*,*,#828,.F.);
#875 = ORIENTED_EDGE('',*,*,#876,.T.);
#876 = EDGE_CURVE('',#829,#877,#879,.T.);
#877 = VERTEX_POINT('',#878);
#878 = CARTESIAN_POINT('',(25.6,9.6,3.4));
#879 = LINE('',#880,#881);
#880 = CARTESIAN_POINT('',(25.6,6.4,3.4));
#881 = VECTOR('',#882,1.);
#882 = DIRECTION('',(0.,1.,0.));
#883 = ORIENTED_EDGE('',*,*,#884,.T.);
#884 = EDGE_CURVE('',#877,#820,#885,.T.);
#885 = LINE('',#886,#887);
#886 = CARTESIAN_POINT('',(25.6,9.6,3.4));
#887 = VECTOR('',#888,1.);
#888 = DIRECTION('',(-1.,0.,0.));
#889 = PLANE('',#890);
#890 = AXIS2_PLACEMENT_3D('',#891,#892,#893);
#891 = CARTESIAN_POINT('',(24.,0.,3.4));
#892 = DIRECTION('',(0.,0.,1.));
#893 = DIRECTION('',(1.,0.,0.));
#894 = ADVANCED_FACE('',(#895),#912,.F.);
#895 = FACE_BOUND('',#896,.F.);
#896 = EDGE_LOOP('',(#897,#905,#906));
#897 = ORIENTED_EDGE('',*,*,#898,.T.);
#898 = EDGE_CURVE('',#899,#778,#901,.T.);
#899 = VERTEX_POINT('',#900);
#900 = CARTESIAN_POINT('',(22.4,9.6,3.4));
#901 = LINE('',#902,#903);
#902 = CARTESIAN_POINT('',(22.4,9.6,3.4));
#903 = VECTOR('',#904,1.);
#904 = DIRECTION('',(0.,-1.,0.));
#905 = ORIENTED_EDGE('',*,*,#819,.F.);
#906 = ORIENTED_EDGE('',*,*,#907,.T.);
#907 = EDGE_CURVE('',#820,#899,#908,.T.);
#908 = LINE('',#909,#910);
#909 = CARTESIAN_POINT('',(25.6,9.6,3.4));
#910 = VECTOR('',#911,1.);
#911 = DIRECTION('',(-1.,0.,0.));
#912 = PLANE('',#913);
#913 = AXIS2_PLACEMENT_3D('',#914,#915,#916);
#914 = CARTESIAN_POINT('',(24.,0.,3.4));
#915 = DIRECTION('',(0.,0.,1.));
#916 = DIRECTION('',(1.,0.,0.));
#917 = ADVANCED_FACE('',(#918),#927,.T.);
#918 = FACE_BOUND('',#919,.T.);
#919 = EDGE_LOOP('',(#920,#926));
#920 = ORIENTED_EDGE('',*,*,#921,.T.);
#921 = EDGE_CURVE('',#493,#503,#922,.T.);
#922 = LINE('',#923,#924);
#923 = CARTESIAN_POINT('',(25.6,-9.29831621726,3.));
#924 = VECTOR('',#925,1.);
#925 = DIRECTION('',(0.,1.,0.));
#926 = ORIENTED_EDGE('',*,*,#502,.T.);
#927 = PLANE('',#928);
#928 = AXIS2_PLACEMENT_3D('',#929,#930,#931);
#929 = CARTESIAN_POINT('',(24.,-8.,3.));
#930 = DIRECTION('',(0.,0.,-1.));
#931 = DIRECTION('',(-1.,0.,0.));
#932 = ADVANCED_FACE('',(#933),#958,.F.);
#933 = FACE_BOUND('',#934,.F.);
#934 = EDGE_LOOP('',(#935,#943,#951,#957));
#935 = ORIENTED_EDGE('',*,*,#936,.F.);
#936 = EDGE_CURVE('',#937,#520,#939,.T.);
#937 = VERTEX_POINT('',#938);
#938 = CARTESIAN_POINT('',(22.4,-6.4,3.2));
#939 = LINE('',#940,#941);
#940 = CARTESIAN_POINT('',(22.4,-10.59663243452,3.2));
#941 = VECTOR('',#942,1.);
#942 = DIRECTION('',(0.,1.,0.));
#943 = ORIENTED_EDGE('',*,*,#944,.T.);
#944 = EDGE_CURVE('',#937,#945,#947,.T.);
#945 = VERTEX_POINT('',#946);
#946 = CARTESIAN_POINT('',(25.6,-6.4,3.2));
#947 = LINE('',#948,#949);
#948 = CARTESIAN_POINT('',(24.8,-6.4,3.2));
#949 = VECTOR('',#950,1.);
#950 = DIRECTION('',(1.,0.,0.));
#951 = ORIENTED_EDGE('',*,*,#952,.T.);
#952 = EDGE_CURVE('',#945,#512,#953,.T.);
#953 = LINE('',#954,#955);
#954 = CARTESIAN_POINT('',(25.6,-10.59663243452,3.2));
#955 = VECTOR('',#956,1.);
#956 = DIRECTION('',(0.,1.,0.));
#957 = ORIENTED_EDGE('',*,*,#519,.F.);
#958 = PLANE('',#959);
#959 = AXIS2_PLACEMENT_3D('',#960,#961,#962);
#960 = CARTESIAN_POINT('',(24.,8.317349901771E-16,3.2));
#961 = DIRECTION('',(0.,0.,1.));
#962 = DIRECTION('',(1.,0.,0.));
#963 = ADVANCED_FACE('',(#964),#974,.T.);
#964 = FACE_BOUND('',#965,.T.);
#965 = EDGE_LOOP('',(#966,#967,#968));
#966 = ORIENTED_EDGE('',*,*,#556,.T.);
#967 = ORIENTED_EDGE('',*,*,#536,.T.);
#968 = ORIENTED_EDGE('',*,*,#969,.F.);
#969 = EDGE_CURVE('',#557,#529,#970,.T.);
#970 = LINE('',#971,#972);
#971 = CARTESIAN_POINT('',(22.4,-9.29831621726,3.));
#972 = VECTOR('',#973,1.);
#973 = DIRECTION('',(0.,1.,0.));
#974 = PLANE('',#975);
#975 = AXIS2_PLACEMENT_3D('',#976,#977,#978);
#976 = CARTESIAN_POINT('',(24.,-8.,3.));
#977 = DIRECTION('',(0.,0.,-1.));
#978 = DIRECTION('',(-1.,0.,0.));
#979 = ADVANCED_FACE('',(#980),#1005,.F.);
#980 = FACE_BOUND('',#981,.F.);
#981 = EDGE_LOOP('',(#982,#983,#991,#999));
#982 = ORIENTED_EDGE('',*,*,#573,.F.);
#983 = ORIENTED_EDGE('',*,*,#984,.T.);
#984 = EDGE_CURVE('',#495,#985,#987,.T.);
#985 = VERTEX_POINT('',#986);
#986 = CARTESIAN_POINT('',(25.6,-9.6,3.2));
#987 = LINE('',#988,#989);
#988 = CARTESIAN_POINT('',(25.6,-10.59663243452,3.2));
#989 = VECTOR('',#990,1.);
#990 = DIRECTION('',(0.,1.,0.));
#991 = ORIENTED_EDGE('',*,*,#992,.T.);
#992 = EDGE_CURVE('',#985,#993,#995,.T.);
#993 = VERTEX_POINT('',#994);
#994 = CARTESIAN_POINT('',(22.4,-9.6,3.2));
#995 = LINE('',#996,#997);
#996 = CARTESIAN_POINT('',(23.2,-9.6,3.2));
#997 = VECTOR('',#998,1.);
#998 = DIRECTION('',(-1.,0.,0.));
#999 = ORIENTED_EDGE('',*,*,#1000,.F.);
#1000 = EDGE_CURVE('',#566,#993,#1001,.T.);
#1001 = LINE('',#1002,#1003);
#1002 = CARTESIAN_POINT('',(22.4,-10.59663243452,3.2));
#1003 = VECTOR('',#1004,1.);
#1004 = DIRECTION('',(0.,1.,0.));
#1005 = PLANE('',#1006);
#1006 = AXIS2_PLACEMENT_3D('',#1007,#1008,#1009);
#1007 = CARTESIAN_POINT('',(24.,8.317349901771E-16,3.2));
#1008 = DIRECTION('',(0.,0.,1.));
#1009 = DIRECTION('',(1.,0.,0.));
#1010 = ADVANCED_FACE('',(#1011,#1022),#1030,.T.);
#1011 = FACE_BOUND('',#1012,.T.);
#1012 = EDGE_LOOP('',(#1013));
#1013 = ORIENTED_EDGE('',*,*,#1014,.T.);
#1014 = EDGE_CURVE('',#1015,#1015,#1017,.T.);
#1015 = VERTEX_POINT('',#1016);
#1016 = CARTESIAN_POINT('',(6.,0.,8.));
#1017 = CIRCLE('',#1018,6.);
#1018 = AXIS2_PLACEMENT_3D('',#1019,#1020,#1021);
#1019 = CARTESIAN_POINT('',(0.,0.,8.));
#1020 = DIRECTION('',(0.,0.,1.));
#1021 = DIRECTION('',(1.,0.,0.));
#1022 = FACE_BOUND('',#1023,.F.);
#1023 = EDGE_LOOP('',(#1024,#1025,#1026,#1027,#1028,#1029));
#1024 = ORIENTED_EDGE('',*,*,#692,.T.);
#1025 = ORIENTED_EDGE('',*,*,#716,.T.);
#1026 = ORIENTED_EDGE('',*,*,#675,.T.);
#1027 = ORIENTED_EDGE('',*,*,#627,.T.);
#1028 = ORIENTED_EDGE('',*,*,#596,.T.);
#1029 = ORIENTED_EDGE('',*,*,#644,.T.);
#1030 = PLANE('',#1031);
#1031 = AXIS2_PLACEMENT_3D('',#1032,#1033,#1034);
#1032 = CARTESIAN_POINT('',(-1.960667837097E-16,6.032824114145E-17,8.));
#1033 = DIRECTION('',(0.,0.,1.));
#1034 = DIRECTION('',(1.,0.,0.));
#1035 = ADVANCED_FACE('',(#1036),#1082,.F.);
#1036 = FACE_BOUND('',#1037,.T.);
#1037 = EDGE_LOOP('',(#1038,#1049,#1055,#1056,#1057,#1066,#1075));
#1038 = ORIENTED_EDGE('',*,*,#1039,.F.);
#1039 = EDGE_CURVE('',#1040,#1042,#1044,.T.);
#1040 = VERTEX_POINT('',#1041);
#1041 = CARTESIAN_POINT('',(22.4,-8.,3.4));
#1042 = VERTEX_POINT('',#1043);
#1043 = CARTESIAN_POINT('',(24.,-9.6,3.4));
#1044 = CIRCLE('',#1045,1.6);
#1045 = AXIS2_PLACEMENT_3D('',#1046,#1047,#1048);
#1046 = CARTESIAN_POINT('',(24.,-8.,3.4));
#1047 = DIRECTION('',(0.,0.,1.));
#1048 = DIRECTION('',(-1.,0.,0.));
#1049 = ORIENTED_EDGE('',*,*,#1050,.T.);
#1050 = EDGE_CURVE('',#1040,#739,#1051,.T.);
#1051 = LINE('',#1052,#1053);
#1052 = CARTESIAN_POINT('',(22.4,-8.,3.));
#1053 = VECTOR('',#1054,1.);
#1054 = DIRECTION('',(6.035695270416E-17,0.,1.));
#1055 = ORIENTED_EDGE('',*,*,#738,.T.);
#1056 = ORIENTED_EDGE('',*,*,#1050,.F.);
#1057 = ORIENTED_EDGE('',*,*,#1058,.F.);
#1058 = EDGE_CURVE('',#1059,#1040,#1061,.T.);
#1059 = VERTEX_POINT('',#1060);
#1060 = CARTESIAN_POINT('',(24.,-6.4,3.4));
#1061 = CIRCLE('',#1062,1.6);
#1062 = AXIS2_PLACEMENT_3D('',#1063,#1064,#1065);
#1063 = CARTESIAN_POINT('',(24.,-8.,3.4));
#1064 = DIRECTION('',(0.,0.,1.));
#1065 = DIRECTION('',(-1.,0.,0.));
#1066 = ORIENTED_EDGE('',*,*,#1067,.F.);
#1067 = EDGE_CURVE('',#1068,#1059,#1070,.T.);
#1068 = VERTEX_POINT('',#1069);
#1069 = CARTESIAN_POINT('',(25.6,-8.,3.4));
#1070 = CIRCLE('',#1071,1.6);
#1071 = AXIS2_PLACEMENT_3D('',#1072,#1073,#1074);
#1072 = CARTESIAN_POINT('',(24.,-8.,3.4));
#1073 = DIRECTION('',(0.,0.,1.));
#1074 = DIRECTION('',(-1.,0.,0.));
#1075 = ORIENTED_EDGE('',*,*,#1076,.F.);
#1076 = EDGE_CURVE('',#1042,#1068,#1077,.T.);
#1077 = CIRCLE('',#1078,1.6);
#1078 = AXIS2_PLACEMENT_3D('',#1079,#1080,#1081);
#1079 = CARTESIAN_POINT('',(24.,-8.,3.4));
#1080 = DIRECTION('',(0.,0.,1.));
#1081 = DIRECTION('',(-1.,0.,0.));
#1082 = CYLINDRICAL_SURFACE('',#1083,1.6);
#1083 = AXIS2_PLACEMENT_3D('',#1084,#1085,#1086);
#1084 = CARTESIAN_POINT('',(24.,-8.,3.));
#1085 = DIRECTION('',(0.,0.,1.));
#1086 = DIRECTION('',(-1.,0.,0.));
#1087 = ADVANCED_FACE('',(#1088),#1108,.F.);
#1088 = FACE_BOUND('',#1089,.T.);
#1089 = EDGE_LOOP('',(#1090,#1099,#1100,#1101));
#1090 = ORIENTED_EDGE('',*,*,#1091,.F.);
#1091 = EDGE_CURVE('',#750,#1092,#1094,.T.);
#1092 = VERTEX_POINT('',#1093);
#1093 = CARTESIAN_POINT('',(6.,0.,7.95));
#1094 = CIRCLE('',#1095,2.95);
#1095 = AXIS2_PLACEMENT_3D('',#1096,#1097,#1098);
#1096 = CARTESIAN_POINT('',(8.95,0.,7.95));
#1097 = DIRECTION('',(-0.,1.,0.));
#1098 = DIRECTION('',(1.,0.,0.));
#1099 = ORIENTED_EDGE('',*,*,#749,.F.);
#1100 = ORIENTED_EDGE('',*,*,#1091,.T.);
#1101 = ORIENTED_EDGE('',*,*,#1102,.T.);
#1102 = EDGE_CURVE('',#1092,#1092,#1103,.T.);
#1103 = CIRCLE('',#1104,6.);
#1104 = AXIS2_PLACEMENT_3D('',#1105,#1106,#1107);
#1105 = CARTESIAN_POINT('',(0.,0.,7.95));
#1106 = DIRECTION('',(0.,0.,1.));
#1107 = DIRECTION('',(1.,0.,0.));
#1108 = TOROIDAL_SURFACE('',#1109,8.95,2.95);
#1109 = AXIS2_PLACEMENT_3D('',#1110,#1111,#1112);
#1110 = CARTESIAN_POINT('',(0.,0.,7.95));
#1111 = DIRECTION('',(-0.,-0.,-1.));
#1112 = DIRECTION('',(1.,0.,0.));
#1113 = ADVANCED_FACE('',(#1114),#1125,.T.);
#1114 = FACE_BOUND('',#1115,.F.);
#1115 = EDGE_LOOP('',(#1116,#1122,#1123,#1124));
#1116 = ORIENTED_EDGE('',*,*,#1117,.T.);
#1117 = EDGE_CURVE('',#1092,#1015,#1118,.T.);
#1118 = LINE('',#1119,#1120);
#1119 = CARTESIAN_POINT('',(6.,0.,5.));
#1120 = VECTOR('',#1121,1.);
#1121 = DIRECTION('',(0.,0.,1.));
#1122 = ORIENTED_EDGE('',*,*,#1014,.T.);
#1123 = ORIENTED_EDGE('',*,*,#1117,.F.);
#1124 = ORIENTED_EDGE('',*,*,#1102,.F.);
#1125 = CYLINDRICAL_SURFACE('',#1126,6.);
#1126 = AXIS2_PLACEMENT_3D('',#1127,#1128,#1129);
#1127 = CARTESIAN_POINT('',(0.,0.,5.));
#1128 = DIRECTION('',(-0.,-0.,-1.));
#1129 = DIRECTION('',(1.,0.,0.));
#1130 = ADVANCED_FACE('',(#1131),#1148,.F.);
#1131 = FACE_BOUND('',#1132,.F.);
#1132 = EDGE_LOOP('',(#1133,#1141,#1147));
#1133 = ORIENTED_EDGE('',*,*,#1134,.T.);
#1134 = EDGE_CURVE('',#1040,#1135,#1137,.T.);
#1135 = VERTEX_POINT('',#1136);
#1136 = CARTESIAN_POINT('',(22.4,-9.6,3.4));
#1137 = LINE('',#1138,#1139);
#1138 = CARTESIAN_POINT('',(22.4,-6.4,3.4));
#1139 = VECTOR('',#1140,1.);
#1140 = DIRECTION('',(0.,-1.,0.));
#1141 = ORIENTED_EDGE('',*,*,#1142,.T.);
#1142 = EDGE_CURVE('',#1135,#1042,#1143,.T.);
#1143 = LINE('',#1144,#1145);
#1144 = CARTESIAN_POINT('',(22.4,-9.6,3.4));
#1145 = VECTOR('',#1146,1.);
#1146 = DIRECTION('',(1.,0.,0.));
#1147 = ORIENTED_EDGE('',*,*,#1039,.F.);
#1148 = PLANE('',#1149);
#1149 = AXIS2_PLACEMENT_3D('',#1150,#1151,#1152);
#1150 = CARTESIAN_POINT('',(24.,0.,3.4));
#1151 = DIRECTION('',(0.,0.,1.));
#1152 = DIRECTION('',(1.,0.,0.));
#1153 = ADVANCED_FACE('',(#1154),#1171,.F.);
#1154 = FACE_BOUND('',#1155,.F.);
#1155 = EDGE_LOOP('',(#1156,#1157,#1165));
#1156 = ORIENTED_EDGE('',*,*,#1076,.F.);
#1157 = ORIENTED_EDGE('',*,*,#1158,.T.);
#1158 = EDGE_CURVE('',#1042,#1159,#1161,.T.);
#1159 = VERTEX_POINT('',#1160);
#1160 = CARTESIAN_POINT('',(25.6,-9.6,3.4));
#1161 = LINE('',#1162,#1163);
#1162 = CARTESIAN_POINT('',(22.4,-9.6,3.4));
#1163 = VECTOR('',#1164,1.);
#1164 = DIRECTION('',(1.,0.,0.));
#1165 = ORIENTED_EDGE('',*,*,#1166,.T.);
#1166 = EDGE_CURVE('',#1159,#1068,#1167,.T.);
#1167 = LINE('',#1168,#1169);
#1168 = CARTESIAN_POINT('',(25.6,-9.6,3.4));
#1169 = VECTOR('',#1170,1.);
#1170 = DIRECTION('',(0.,1.,0.));
#1171 = PLANE('',#1172);
#1172 = AXIS2_PLACEMENT_3D('',#1173,#1174,#1175);
#1173 = CARTESIAN_POINT('',(24.,0.,3.4));
#1174 = DIRECTION('',(0.,0.,1.));
#1175 = DIRECTION('',(1.,0.,0.));
#1176 = ADVANCED_FACE('',(#1177),#1194,.F.);
#1177 = FACE_BOUND('',#1178,.F.);
#1178 = EDGE_LOOP('',(#1179,#1180,#1188));
#1179 = ORIENTED_EDGE('',*,*,#1067,.F.);
#1180 = ORIENTED_EDGE('',*,*,#1181,.T.);
#1181 = EDGE_CURVE('',#1068,#1182,#1184,.T.);
#1182 = VERTEX_POINT('',#1183);
#1183 = CARTESIAN_POINT('',(25.6,-6.4,3.4));
#1184 = LINE('',#1185,#1186);
#1185 = CARTESIAN_POINT('',(25.6,-9.6,3.4));
#1186 = VECTOR('',#1187,1.);
#1187 = DIRECTION('',(0.,1.,0.));
#1188 = ORIENTED_EDGE('',*,*,#1189,.T.);
#1189 = EDGE_CURVE('',#1182,#1059,#1190,.T.);
#1190 = LINE('',#1191,#1192);
#1191 = CARTESIAN_POINT('',(25.6,-6.4,3.4));
#1192 = VECTOR('',#1193,1.);
#1193 = DIRECTION('',(-1.,0.,0.));
#1194 = PLANE('',#1195);
#1195 = AXIS2_PLACEMENT_3D('',#1196,#1197,#1198);
#1196 = CARTESIAN_POINT('',(24.,0.,3.4));
#1197 = DIRECTION('',(0.,0.,1.));
#1198 = DIRECTION('',(1.,0.,0.));
#1199 = ADVANCED_FACE('',(#1200),#1217,.F.);
#1200 = FACE_BOUND('',#1201,.F.);
#1201 = EDGE_LOOP('',(#1202,#1210,#1211));
#1202 = ORIENTED_EDGE('',*,*,#1203,.T.);
#1203 = EDGE_CURVE('',#1204,#1040,#1206,.T.);
#1204 = VERTEX_POINT('',#1205);
#1205 = CARTESIAN_POINT('',(22.4,-6.4,3.4));
#1206 = LINE('',#1207,#1208);
#1207 = CARTESIAN_POINT('',(22.4,-6.4,3.4));
#1208 = VECTOR('',#1209,1.);
#1209 = DIRECTION('',(0.,-1.,0.));
#1210 = ORIENTED_EDGE('',*,*,#1058,.F.);
#1211 = ORIENTED_EDGE('',*,*,#1212,.T.);
#1212 = EDGE_CURVE('',#1059,#1204,#1213,.T.);
#1213 = LINE('',#1214,#1215);
#1214 = CARTESIAN_POINT('',(25.6,-6.4,3.4));
#1215 = VECTOR('',#1216,1.);
#1216 = DIRECTION('',(-1.,0.,0.));
#1217 = PLANE('',#1218);
#1218 = AXIS2_PLACEMENT_3D('',#1219,#1220,#1221);
#1219 = CARTESIAN_POINT('',(24.,0.,3.4));
#1220 = DIRECTION('',(0.,0.,1.));
#1221 = DIRECTION('',(1.,0.,0.));
#1222 = ADVANCED_FACE('',(#1223),#1244,.T.);
#1223 = FACE_BOUND('',#1224,.T.);
#1224 = EDGE_LOOP('',(#1225,#1226,#1227,#1228,#1234,#1235,#1236,#1242,
    #1243));
#1225 = ORIENTED_EDGE('',*,*,#21,.F.);
#1226 = ORIENTED_EDGE('',*,*,#46,.T.);
#1227 = ORIENTED_EDGE('',*,*,#173,.T.);
#1228 = ORIENTED_EDGE('',*,*,#1229,.T.);
#1229 = EDGE_CURVE('',#174,#854,#1230,.T.);
#1230 = LINE('',#1231,#1232);
#1231 = CARTESIAN_POINT('',(25.6,6.4,0.));
#1232 = VECTOR('',#1233,1.);
#1233 = DIRECTION('',(0.,0.,1.));
#1234 = ORIENTED_EDGE('',*,*,#861,.T.);
#1235 = ORIENTED_EDGE('',*,*,#876,.T.);
#1236 = ORIENTED_EDGE('',*,*,#1237,.F.);
#1237 = EDGE_CURVE('',#212,#877,#1238,.T.);
#1238 = LINE('',#1239,#1240);
#1239 = CARTESIAN_POINT('',(25.6,9.6,0.));
#1240 = VECTOR('',#1241,1.);
#1241 = DIRECTION('',(0.,0.,1.));
#1242 = ORIENTED_EDGE('',*,*,#219,.T.);
#1243 = ORIENTED_EDGE('',*,*,#55,.F.);
#1244 = PLANE('',#1245);
#1245 = AXIS2_PLACEMENT_3D('',#1246,#1247,#1248);
#1246 = CARTESIAN_POINT('',(25.6,8.,3.164363123941));
#1247 = DIRECTION('',(-1.,7.466913144683E-16,-4.730668322049E-15));
#1248 = DIRECTION('',(4.730668322049E-15,0.,-1.));
#1249 = ADVANCED_FACE('',(#1250),#1271,.T.);
#1250 = FACE_BOUND('',#1251,.T.);
#1251 = EDGE_LOOP('',(#1252,#1253,#1254,#1255,#1261,#1262,#1263,#1269,
    #1270));
#1252 = ORIENTED_EDGE('',*,*,#921,.F.);
#1253 = ORIENTED_EDGE('',*,*,#492,.T.);
#1254 = ORIENTED_EDGE('',*,*,#984,.T.);
#1255 = ORIENTED_EDGE('',*,*,#1256,.T.);
#1256 = EDGE_CURVE('',#985,#1159,#1257,.T.);
#1257 = LINE('',#1258,#1259);
#1258 = CARTESIAN_POINT('',(25.6,-9.6,0.));
#1259 = VECTOR('',#1260,1.);
#1260 = DIRECTION('',(0.,0.,1.));
#1261 = ORIENTED_EDGE('',*,*,#1166,.T.);
#1262 = ORIENTED_EDGE('',*,*,#1181,.T.);
#1263 = ORIENTED_EDGE('',*,*,#1264,.F.);
#1264 = EDGE_CURVE('',#945,#1182,#1265,.T.);
#1265 = LINE('',#1266,#1267);
#1266 = CARTESIAN_POINT('',(25.6,-6.4,0.));
#1267 = VECTOR('',#1268,1.);
#1268 = DIRECTION('',(0.,0.,1.));
#1269 = ORIENTED_EDGE('',*,*,#952,.T.);
#1270 = ORIENTED_EDGE('',*,*,#511,.F.);
#1271 = PLANE('',#1272);
#1272 = AXIS2_PLACEMENT_3D('',#1273,#1274,#1275);
#1273 = CARTESIAN_POINT('',(25.6,-8.,3.164363123941));
#1274 = DIRECTION('',(-1.,-0.,-0.));
#1275 = DIRECTION('',(0.,0.,-1.));
#1276 = ADVANCED_FACE('',(#1277),#1298,.T.);
#1277 = FACE_BOUND('',#1278,.T.);
#1278 = EDGE_LOOP('',(#1279,#1280,#1286,#1287,#1288,#1294,#1295,#1296,
    #1297));
#1279 = ORIENTED_EDGE('',*,*,#203,.F.);
#1280 = ORIENTED_EDGE('',*,*,#1281,.T.);
#1281 = EDGE_CURVE('',#204,#899,#1282,.T.);
#1282 = LINE('',#1283,#1284);
#1283 = CARTESIAN_POINT('',(22.4,9.6,0.));
#1284 = VECTOR('',#1285,1.);
#1285 = DIRECTION('',(0.,0.,1.));
#1286 = ORIENTED_EDGE('',*,*,#898,.T.);
#1287 = ORIENTED_EDGE('',*,*,#777,.T.);
#1288 = ORIENTED_EDGE('',*,*,#1289,.F.);
#1289 = EDGE_CURVE('',#182,#780,#1290,.T.);
#1290 = LINE('',#1291,#1292);
#1291 = CARTESIAN_POINT('',(22.4,6.4,0.));
#1292 = VECTOR('',#1293,1.);
#1293 = DIRECTION('',(0.,0.,1.));
#1294 = ORIENTED_EDGE('',*,*,#189,.F.);
#1295 = ORIENTED_EDGE('',*,*,#149,.F.);
#1296 = ORIENTED_EDGE('',*,*,#236,.T.);
#1297 = ORIENTED_EDGE('',*,*,#72,.T.);
#1298 = PLANE('',#1299);
#1299 = AXIS2_PLACEMENT_3D('',#1300,#1301,#1302);
#1300 = CARTESIAN_POINT('',(22.4,8.,3.164363123941));
#1301 = DIRECTION('',(1.,7.466913144683E-16,-4.730668322049E-15));
#1302 = DIRECTION('',(4.730668322049E-15,0.,1.));
#1303 = ADVANCED_FACE('',(#1304),#1325,.T.);
#1304 = FACE_BOUND('',#1305,.T.);
#1305 = EDGE_LOOP('',(#1306,#1307,#1313,#1314,#1315,#1321,#1322,#1323,
    #1324));
#1306 = ORIENTED_EDGE('',*,*,#936,.F.);
#1307 = ORIENTED_EDGE('',*,*,#1308,.T.);
#1308 = EDGE_CURVE('',#937,#1204,#1309,.T.);
#1309 = LINE('',#1310,#1311);
#1310 = CARTESIAN_POINT('',(22.4,-6.4,0.));
#1311 = VECTOR('',#1312,1.);
#1312 = DIRECTION('',(0.,0.,1.));
#1313 = ORIENTED_EDGE('',*,*,#1203,.T.);
#1314 = ORIENTED_EDGE('',*,*,#1134,.T.);
#1315 = ORIENTED_EDGE('',*,*,#1316,.F.);
#1316 = EDGE_CURVE('',#993,#1135,#1317,.T.);
#1317 = LINE('',#1318,#1319);
#1318 = CARTESIAN_POINT('',(22.4,-9.6,0.));
#1319 = VECTOR('',#1320,1.);
#1320 = DIRECTION('',(0.,0.,1.));
#1321 = ORIENTED_EDGE('',*,*,#1000,.F.);
#1322 = ORIENTED_EDGE('',*,*,#565,.F.);
#1323 = ORIENTED_EDGE('',*,*,#969,.T.);
#1324 = ORIENTED_EDGE('',*,*,#528,.T.);
#1325 = PLANE('',#1326);
#1326 = AXIS2_PLACEMENT_3D('',#1327,#1328,#1329);
#1327 = CARTESIAN_POINT('',(22.4,-8.,3.164363123941));
#1328 = DIRECTION('',(1.,0.,0.));
#1329 = DIRECTION('',(0.,0.,1.));
#1330 = ADVANCED_FACE('',(#1331),#1338,.T.);
#1331 = FACE_BOUND('',#1332,.T.);
#1332 = EDGE_LOOP('',(#1333,#1334,#1335,#1336,#1337));
#1333 = ORIENTED_EDGE('',*,*,#181,.T.);
#1334 = ORIENTED_EDGE('',*,*,#1289,.T.);
#1335 = ORIENTED_EDGE('',*,*,#787,.T.);
#1336 = ORIENTED_EDGE('',*,*,#853,.T.);
#1337 = ORIENTED_EDGE('',*,*,#1229,.F.);
#1338 = PLANE('',#1339);
#1339 = AXIS2_PLACEMENT_3D('',#1340,#1341,#1342);
#1340 = CARTESIAN_POINT('',(24.,6.4,3.3));
#1341 = DIRECTION('',(0.,1.,0.));
#1342 = DIRECTION('',(0.,0.,1.));
#1343 = ADVANCED_FACE('',(#1344),#1351,.T.);
#1344 = FACE_BOUND('',#1345,.T.);
#1345 = EDGE_LOOP('',(#1346,#1347,#1348,#1349,#1350));
#1346 = ORIENTED_EDGE('',*,*,#211,.T.);
#1347 = ORIENTED_EDGE('',*,*,#1237,.T.);
#1348 = ORIENTED_EDGE('',*,*,#884,.T.);
#1349 = ORIENTED_EDGE('',*,*,#907,.T.);
#1350 = ORIENTED_EDGE('',*,*,#1281,.F.);
#1351 = PLANE('',#1352);
#1352 = AXIS2_PLACEMENT_3D('',#1353,#1354,#1355);
#1353 = CARTESIAN_POINT('',(24.,9.6,3.3));
#1354 = DIRECTION('',(-0.,-1.,-0.));
#1355 = DIRECTION('',(0.,0.,-1.));
#1356 = ADVANCED_FACE('',(#1357),#1364,.T.);
#1357 = FACE_BOUND('',#1358,.T.);
#1358 = EDGE_LOOP('',(#1359,#1360,#1361,#1362,#1363));
#1359 = ORIENTED_EDGE('',*,*,#944,.T.);
#1360 = ORIENTED_EDGE('',*,*,#1264,.T.);
#1361 = ORIENTED_EDGE('',*,*,#1189,.T.);
#1362 = ORIENTED_EDGE('',*,*,#1212,.T.);
#1363 = ORIENTED_EDGE('',*,*,#1308,.F.);
#1364 = PLANE('',#1365);
#1365 = AXIS2_PLACEMENT_3D('',#1366,#1367,#1368);
#1366 = CARTESIAN_POINT('',(24.,-6.4,3.3));
#1367 = DIRECTION('',(-0.,-1.,-0.));
#1368 = DIRECTION('',(0.,0.,-1.));
#1369 = ADVANCED_FACE('',(#1370),#1377,.T.);
#1370 = FACE_BOUND('',#1371,.T.);
#1371 = EDGE_LOOP('',(#1372,#1373,#1374,#1375,#1376));
#1372 = ORIENTED_EDGE('',*,*,#992,.T.);
#1373 = ORIENTED_EDGE('',*,*,#1316,.T.);
#1374 = ORIENTED_EDGE('',*,*,#1142,.T.);
#1375 = ORIENTED_EDGE('',*,*,#1158,.T.);
#1376 = ORIENTED_EDGE('',*,*,#1256,.F.);
#1377 = PLANE('',#1378);
#1378 = AXIS2_PLACEMENT_3D('',#1379,#1380,#1381);
#1379 = CARTESIAN_POINT('',(24.,-9.6,3.3));
#1380 = DIRECTION('',(0.,1.,0.));
#1381 = DIRECTION('',(0.,0.,1.));
#1382 = ( GEOMETRIC_REPRESENTATION_CONTEXT(3) 
GLOBAL_UNCERTAINTY_ASSIGNED_CONTEXT((#1386)) 
GLOBAL_UNIT_ASSIGNED_CONTEXT((#1383,#1384,#1385)) REPRESENTATION_CONTEXT
('Context #1','3D Context with UNIT and UNCERTAINTY') );
#1383 = ( LENGTH_UNIT() NAMED_UNIT(*) SI_UNIT(.MILLI.,.METRE.) );
#1384 = ( NAMED_UNIT(*) PLANE_ANGLE_UNIT() SI_UNIT($,.RADIAN.) );
#1385 = ( NAMED_UNIT(*) SI_UNIT($,.STERADIAN.) SOLID_ANGLE_UNIT() );
#1386 = UNCERTAINTY_MEASURE_WITH_UNIT(LENGTH_MEASURE(1.E-05),#1383,
  'distance_accuracy_value','confusion accuracy');
#1387 = PRODUCT_RELATED_PRODUCT_CATEGORY('part',$,(#7));
#1388 = MECHANICAL_DESIGN_GEOMETRIC_PRESENTATION_REPRESENTATION('',(
    #1389),#1382);
#1389 = STYLED_ITEM('color',(#1390),#15);
#1390 = PRESENTATION_STYLE_ASSIGNMENT((#1391,#1397));
#1391 = SURFACE_STYLE_USAGE(.BOTH.,#1392);
#1392 = SURFACE_SIDE_STYLE('',(#1393));
#1393 = SURFACE_STYLE_FILL_AREA(#1394);
#1394 = FILL_AREA_STYLE('',(#1395));
#1395 = FILL_AREA_STYLE_COLOUR('',#1396);
#1396 = COLOUR_RGB('',0.596078458879,0.,0.584313743644);
#1397 = CURVE_STYLE('',#1398,POSITIVE_LENGTH_MEASURE(0.1),#1399);
#1398 = DRAUGHTING_PRE_DEFINED_CURVE_FONT('continuous');
#1399 = COLOUR_RGB('',9.803921802644E-02,9.803921802644E-02,
  9.803921802644E-02);
ENDSEC;
END-ISO-10303-21;
