ISO-10303-21;
HEADER;
FILE_DESCRIPTION(('FreeCAD Model'),'2;1');
FILE_NAME('Open CASCADE Shape Model','2025-11-17T16:07:32',(''),(''),
  'Open CASCADE STEP processor 7.9','FreeCAD','Unknown');
FILE_SCHEMA(('AUTOMOTIVE_DESIGN { 1 0 10303 214 1 1 1 1 }'));
ENDSEC;
DATA;
#1 = APPLICATION_PROTOCOL_DEFINITION('international standard',
  'automotive_design',2000,#2);
#2 = APPLICATION_CONTEXT(
  'core data for automotive mechanical design processes');
#3 = SHAPE_DEFINITION_REPRESENTATION(#4,#10);
#4 = PRODUCT_DEFINITION_SHAPE('','',#5);
#5 = PRODUCT_DEFINITION('design','',#6,#9);
#6 = PRODUCT_DEFINITION_FORMATION('','',#7);
#7 = PRODUCT('ZSyncRod_unpowered','ZSyncRod_unpowered','',(#8));
#8 = PRODUCT_CONTEXT('',#2,'mechanical');
#9 = PRODUCT_DEFINITION_CONTEXT('part definition',#2,'design');
#10 = ADVANCED_BREP_SHAPE_REPRESENTATION('',(#11,#15),#1253);
#11 = AXIS2_PLACEMENT_3D('',#12,#13,#14);
#12 = CARTESIAN_POINT('',(0.,0.,0.));
#13 = DIRECTION('',(0.,0.,1.));
#14 = DIRECTION('',(1.,0.,-0.));
#15 = MANIFOLD_SOLID_BREP('',#16);
#16 = CLOSED_SHELL('',(#17,#263,#294,#328,#362,#393,#649,#893,#918,#943,
    #1007,#1024,#1063,#1080,#1119,#1150,#1170,#1190,#1207,#1224,#1241));
#17 = ADVANCED_FACE('',(#18,#54,#159),#258,.T.);
#18 = FACE_BOUND('',#19,.F.);
#19 = EDGE_LOOP('',(#20,#30,#39,#47));
#20 = ORIENTED_EDGE('',*,*,#21,.T.);
#21 = EDGE_CURVE('',#22,#24,#26,.T.);
#22 = VERTEX_POINT('',#23);
#23 = CARTESIAN_POINT('',(3.,-17.,-40.));
#24 = VERTEX_POINT('',#25);
#25 = CARTESIAN_POINT('',(17.,-17.,-40.));
#26 = LINE('',#27,#28);
#27 = CARTESIAN_POINT('',(3.930189507173E-14,-17.,-40.));
#28 = VECTOR('',#29,1.);
#29 = DIRECTION('',(1.,-6.661338147751E-16,3.574525976783E-31));
#30 = ORIENTED_EDGE('',*,*,#31,.F.);
#31 = EDGE_CURVE('',#32,#24,#34,.T.);
#32 = VERTEX_POINT('',#33);
#33 = CARTESIAN_POINT('',(17.,17.,-40.));
#34 = CIRCLE('',#35,17.);
#35 = AXIS2_PLACEMENT_3D('',#36,#37,#38);
#36 = CARTESIAN_POINT('',(17.,-4.246127267518E-15,-40.));
#37 = DIRECTION('',(-1.,-2.834968878138E-31,-6.661338147751E-16));
#38 = DIRECTION('',(1.247821339968E-30,1.,-2.298814733342E-15));
#39 = ORIENTED_EDGE('',*,*,#40,.F.);
#40 = EDGE_CURVE('',#41,#32,#43,.T.);
#41 = VERTEX_POINT('',#42);
#42 = CARTESIAN_POINT('',(3.,17.,-40.));
#43 = LINE('',#44,#45);
#44 = CARTESIAN_POINT('',(3.175237850428E-14,17.,-40.));
#45 = VECTOR('',#46,1.);
#46 = DIRECTION('',(1.,-6.661338147751E-16,3.574525976783E-31));
#47 = ORIENTED_EDGE('',*,*,#48,.T.);
#48 = EDGE_CURVE('',#41,#22,#49,.T.);
#49 = CIRCLE('',#50,17.);
#50 = AXIS2_PLACEMENT_3D('',#51,#52,#53);
#51 = CARTESIAN_POINT('',(3.,-4.246127267518E-15,-40.));
#52 = DIRECTION('',(-1.,-2.834968878138E-31,-6.661338147751E-16));
#53 = DIRECTION('',(5.60468271816E-31,1.,-1.266960392808E-15));
#54 = FACE_BOUND('',#55,.F.);
#55 = EDGE_LOOP('',(#56));
#56 = ORIENTED_EDGE('',*,*,#57,.T.);
#57 = EDGE_CURVE('',#58,#58,#60,.T.);
#58 = VERTEX_POINT('',#59);
#59 = CARTESIAN_POINT('',(10.,6.75,-55.60248377663));
#60 = B_SPLINE_CURVE_WITH_KNOTS('',7,(#61,#62,#63,#64,#65,#66,#67,#68,
    #69,#70,#71,#72,#73,#74,#75,#76,#77,#78,#79,#80,#81,#82,#83,#84,#85,
    #86,#87,#88,#89,#90,#91,#92,#93,#94,#95,#96,#97,#98,#99,#100,#101,
    #102,#103,#104,#105,#106,#107,#108,#109,#110,#111,#112,#113,#114,
    #115,#116,#117,#118,#119,#120,#121,#122,#123,#124,#125,#126,#127,
    #128,#129,#130,#131,#132,#133,#134,#135,#136,#137,#138,#139,#140,
    #141,#142,#143,#144,#145,#146,#147,#148,#149,#150,#151,#152,#153,
    #154,#155,#156,#157,#158),.UNSPECIFIED.,.T.,.F.,(8,6,6,6,6,6,6,6,6,6
    ,6,6,6,6,6,6,8),(0.,9.307573597337E-02,0.164841663543,0.216848935274
    ,0.274774679132,0.339481168884,0.391405904561,0.437306437195,
    0.500771528548,0.540315404575,0.59078611032,0.660735512582,
    0.726108211963,0.783837248108,0.835548673156,0.882097927482,1.),
  .UNSPECIFIED.);
#61 = CARTESIAN_POINT('',(10.,6.75,-55.60248377663));
#62 = CARTESIAN_POINT('',(9.723630891751,6.75,-55.60248377663));
#63 = CARTESIAN_POINT('',(9.446849559088,6.777418661526,-55.59062186562)
  );
#64 = CARTESIAN_POINT('',(9.172242473685,6.832402022742,-55.56683460311)
  );
#65 = CARTESIAN_POINT('',(8.902453721433,6.915017401659,-55.53073319091)
  );
#66 = CARTESIAN_POINT('',(8.640247892135,7.025222571032,-55.48160330931)
  );
#67 = CARTESIAN_POINT('',(8.388577307295,7.162830515074,-55.41840296752)
  );
#68 = CARTESIAN_POINT('',(7.967202803986,7.454414654073,-55.2791195504)
  );
#69 = CARTESIAN_POINT('',(7.791653109502,7.597618688919,-55.20920845029)
  );
#70 = CARTESIAN_POINT('',(7.626624728594,7.756232777262,-55.12971352314)
  );
#71 = CARTESIAN_POINT('',(7.474359671464,7.928904258667,-55.04045396637)
  );
#72 = CARTESIAN_POINT('',(7.336691313435,8.11389793489,-54.94141849865)
  );
#73 = CARTESIAN_POINT('',(7.215018589129,8.309214320864,-54.83280903346)
  );
#74 = CARTESIAN_POINT('',(7.034386405985,8.660170659142,-54.6297801719)
  );
#75 = CARTESIAN_POINT('',(6.967590918327,8.811526630285,-54.53991935266)
  );
#76 = CARTESIAN_POINT('',(6.910212982262,8.965831013754,-54.44577725533)
  );
#77 = CARTESIAN_POINT('',(6.862408364897,9.122098544781,-54.34771077354)
  );
#78 = CARTESIAN_POINT('',(6.824175255337,9.279325956931,-54.24617200352)
  );
#79 = CARTESIAN_POINT('',(6.795354278253,9.436511251313,-54.14171245838)
  );
#80 = CARTESIAN_POINT('',(6.753655207138,9.766593387613,-53.91610704967)
  );
#81 = CARTESIAN_POINT('',(6.742967910907,9.939216969606,-53.79443270427)
  );
#82 = CARTESIAN_POINT('',(6.74304326156,10.109777166809,-53.67044721464)
  );
#83 = CARTESIAN_POINT('',(6.753339159148,10.277589065405,-53.54467828817
    ));
#84 = CARTESIAN_POINT('',(6.773292001237,10.442037539137,-53.41768963263
    ));
#85 = CARTESIAN_POINT('',(6.8023152099,10.6025713806,-53.29007677801));
#86 = CARTESIAN_POINT('',(6.881667987707,10.933099487756,-53.01991063014
    ));
#87 = CARTESIAN_POINT('',(6.934135763009,11.10217607246,-52.87721409658)
  );
#88 = CARTESIAN_POINT('',(6.996488850735,11.265646219828,-52.73489299005
    ));
#89 = CARTESIAN_POINT('',(7.068137535638,11.423296954057,-52.59346252711
    ));
#90 = CARTESIAN_POINT('',(7.148600834731,11.574946183264,-52.45345087985
    ));
#91 = CARTESIAN_POINT('',(7.237494342841,11.720412681979,-52.31542158049
    ));
#92 = CARTESIAN_POINT('',(7.41237923495,11.971100472686,-52.07133045401)
  );
#93 = CARTESIAN_POINT('',(7.495489940397,12.078616506666,-51.9643193674)
  );
#94 = CARTESIAN_POINT('',(7.583729946786,12.181974284501,-51.85925245052
    ));
#95 = CARTESIAN_POINT('',(7.677017372021,12.281078313766,-51.75645424344
    ));
#96 = CARTESIAN_POINT('',(7.77530099147,12.375797533264,-51.65630135727)
  );
#97 = CARTESIAN_POINT('',(7.878550897889,12.465958256027,-51.559234816)
  );
#98 = CARTESIAN_POINT('',(8.082394480624,12.626810485988,-51.38315330197
    ));
#99 = CARTESIAN_POINT('',(8.181956131915,12.698586576291,-51.30330771016
    ));
#100 = CARTESIAN_POINT('',(8.285390044305,12.766472287573,
    -51.22663194686));
#101 = CARTESIAN_POINT('',(8.392649584734,12.830254634701,
    -51.15356384739));
#102 = CARTESIAN_POINT('',(8.503685207983,12.889697982466,
    -51.08458151283));
#103 = CARTESIAN_POINT('',(8.618444106655,12.944541284992,
    -51.02020206408));
#104 = CARTESIAN_POINT('',(8.900613088035,13.063565062265,
    -50.87909662812));
#105 = CARTESIAN_POINT('',(9.072253146923,13.123660970409,
    -50.80663054178));
#106 = CARTESIAN_POINT('',(9.250402122894,13.173254407144,
    -50.74592489053));
#107 = CARTESIAN_POINT('',(9.433652011594,13.211282324013,
    -50.69887177598));
#108 = CARTESIAN_POINT('',(9.620595150561,13.237018921824,
    -50.66685293238));
#109 = CARTESIAN_POINT('',(9.80983681814,13.25,-50.65070420207));
#110 = CARTESIAN_POINT('',(10.118487015901,13.25,-50.65070420207));
#111 = CARTESIAN_POINT('',(10.236863531327,13.244960300767,
    -50.65697382174));
#112 = CARTESIAN_POINT('',(10.354699624667,13.234897801608,
    -50.66949211275));
#113 = CARTESIAN_POINT('',(10.471563971295,13.219889926627,
    -50.68812431666));
#114 = CARTESIAN_POINT('',(10.587023353215,13.20007547875,
    -50.71262208021));
#115 = CARTESIAN_POINT('',(10.700642419415,13.175660942065,
    -50.74262594395));
#116 = CARTESIAN_POINT('',(10.95409098186,13.110265158006,
    -50.82239772514));
#117 = CARTESIAN_POINT('',(11.092445196551,13.066581602507,
    -50.87532261099));
#118 = CARTESIAN_POINT('',(11.226810494997,13.016309586166,
    -50.93567780497));
#119 = CARTESIAN_POINT('',(11.356953779957,12.959862383481,
    -51.00268256975));
#120 = CARTESIAN_POINT('',(11.482649013974,12.897651101353,
    -51.07555133503));
#121 = CARTESIAN_POINT('',(11.603681530355,12.830097257168,
    -51.15350264516));
#122 = CARTESIAN_POINT('',(11.880858196257,12.657231323771,
    -51.34978315323));
#123 = CARTESIAN_POINT('',(12.032870445919,12.547193381297,
    -51.47232914784));
#124 = CARTESIAN_POINT('',(12.175861378289,12.428282658534,
    -51.60182698545));
#125 = CARTESIAN_POINT('',(12.309801893866,12.301056847748,
    -51.73698854719));
#126 = CARTESIAN_POINT('',(12.434619497299,12.165914478348,
    -51.87677395663));
#127 = CARTESIAN_POINT('',(12.55015622248,12.023121468892,
    -52.02034301477));
#128 = CARTESIAN_POINT('',(12.755163261566,11.732371833086,
    -52.30406297491));
#129 = CARTESIAN_POINT('',(12.84586286465,11.58533817032,-52.44384867106
    ));
#130 = CARTESIAN_POINT('',(12.927919740071,11.431942367012,
    -52.58570170088));
#131 = CARTESIAN_POINT('',(13.000938309491,11.272372853241,
    -52.72903397512));
#132 = CARTESIAN_POINT('',(13.064421380477,11.106817462811,
    -52.87329591084));
#133 = CARTESIAN_POINT('',(13.117756783002,10.93549549019,
    -53.01795219231));
#134 = CARTESIAN_POINT('',(13.197684790109,10.602571380563,
    -53.29007677804));
#135 = CARTESIAN_POINT('',(13.226707998759,10.442037539132,
    -53.41768963263));
#136 = CARTESIAN_POINT('',(13.246660840847,10.277589065436,
    -53.54467828815));
#137 = CARTESIAN_POINT('',(13.256956738442,10.109777166842,
    -53.67044721461));
#138 = CARTESIAN_POINT('',(13.257032089098,9.939216969603,
    -53.79443270428));
#139 = CARTESIAN_POINT('',(13.246344792857,9.766593387572,-53.9161070497
    ));
#140 = CARTESIAN_POINT('',(13.204691104165,9.43687049014,-54.14146692488
    ));
#141 = CARTESIAN_POINT('',(13.175957848866,9.280053482344,
    -54.24568841871));
#142 = CARTESIAN_POINT('',(13.137857624472,9.123194596704,
    -54.34700277201));
#143 = CARTESIAN_POINT('',(13.090231817197,8.967286918542,
    -54.44486343747));
#144 = CARTESIAN_POINT('',(13.033077304149,8.81332492798,-54.53882207953
    ));
#145 = CARTESIAN_POINT('',(12.966546434115,8.662285553919,-54.6285244211
    ));
#146 = CARTESIAN_POINT('',(12.82289681258,8.382613818186,-54.79037585694
    ));
#147 = CARTESIAN_POINT('',(12.747586992117,8.25342309908,-54.86328312067
    ));
#148 = CARTESIAN_POINT('',(12.665279353648,8.128199290456,
    -54.93224360575));
#149 = CARTESIAN_POINT('',(12.576336377204,8.007577636058,
    -54.99713538572));
#150 = CARTESIAN_POINT('',(12.481220152971,7.892144090782,
    -55.05788826725));
#151 = CARTESIAN_POINT('',(12.380490053106,7.782418892505,
    -55.11447765469));
#152 = CARTESIAN_POINT('',(12.007104843102,7.41649113423,-55.29974276125
    ));
#153 = CARTESIAN_POINT('',(11.709251322629,7.195198223722,
    -55.40512950291));
#154 = CARTESIAN_POINT('',(11.388270787612,7.016975155791,
    -55.48605095374));
#155 = CARTESIAN_POINT('',(11.050688134831,6.883090052068,
    -55.54490581022));
#156 = CARTESIAN_POINT('',(10.702775588618,6.794126590142,-55.5833935996
    ));
#157 = CARTESIAN_POINT('',(10.350606608135,6.75,-55.60248377663));
#158 = CARTESIAN_POINT('',(10.,6.75,-55.60248377663));
#159 = FACE_BOUND('',#160,.F.);
#160 = EDGE_LOOP('',(#161));
#161 = ORIENTED_EDGE('',*,*,#162,.T.);
#162 = EDGE_CURVE('',#163,#163,#165,.T.);
#163 = VERTEX_POINT('',#164);
#164 = CARTESIAN_POINT('',(10.,-13.25,-50.65070420207));
#165 = B_SPLINE_CURVE_WITH_KNOTS('',6,(#166,#167,#168,#169,#170,#171,
    #172,#173,#174,#175,#176,#177,#178,#179,#180,#181,#182,#183,#184,
    #185,#186,#187,#188,#189,#190,#191,#192,#193,#194,#195,#196,#197,
    #198,#199,#200,#201,#202,#203,#204,#205,#206,#207,#208,#209,#210,
    #211,#212,#213,#214,#215,#216,#217,#218,#219,#220,#221,#222,#223,
    #224,#225,#226,#227,#228,#229,#230,#231,#232,#233,#234,#235,#236,
    #237,#238,#239,#240,#241,#242,#243,#244,#245,#246,#247,#248,#249,
    #250,#251,#252,#253,#254,#255,#256,#257),.UNSPECIFIED.,.T.,.F.,(7,5,
    5,5,5,5,5,5,5,5,5,5,5,5,5,5,5,5,7),(0.,6.361183170082E-02,
    0.109182258911,0.160349068218,0.225921743434,0.283827373357,
    0.335696984242,0.382388633674,0.435238539572,0.500285498084,
    0.545899959337,0.593092324778,0.664719521233,0.716626257419,
    0.774440024704,0.839021429989,0.89084579192,0.936657593723,1.),
  .UNSPECIFIED.);
#166 = CARTESIAN_POINT('',(10.,-13.25,-50.65070420207));
#167 = CARTESIAN_POINT('',(9.777549537073,-13.25,-50.65070420207));
#168 = CARTESIAN_POINT('',(9.556404411698,-13.23172914404,
    -50.67343351934));
#169 = CARTESIAN_POINT('',(9.338988493959,-13.19558787393,
    -50.71839752557));
#170 = CARTESIAN_POINT('',(9.127767506366,-13.14253656566,
    -50.78379091605));
#171 = CARTESIAN_POINT('',(8.925232000608,-13.07417737041,
    -50.86653816441));
#172 = CARTESIAN_POINT('',(8.596703309966,-12.93520444163,
    -51.03125455353));
#173 = CARTESIAN_POINT('',(8.464647621067,-12.87045632358,
    -51.10711147248));
#174 = CARTESIAN_POINT('',(8.337753755376,-12.79945962995,
    -51.18912577222));
#175 = CARTESIAN_POINT('',(8.216109933121,-12.72264554047,
    -51.27643301549));
#176 = CARTESIAN_POINT('',(8.099797376937,-12.64039062563,
    -51.36825883955));
#177 = CARTESIAN_POINT('',(7.864365556389,-12.45493269957,
    -51.57133575878));
#178 = CARTESIAN_POINT('',(7.746570875109,-12.35033030278,
    -51.68366083187));
#179 = CARTESIAN_POINT('',(7.635537102445,-12.23959424545,
    -51.80002915166));
#180 = CARTESIAN_POINT('',(7.531320119472,-12.12299021793,
    -51.91974081287));
#181 = CARTESIAN_POINT('',(7.434032421904,-12.00069713698,-52.0422251765
    ));
#182 = CARTESIAN_POINT('',(7.228330610486,-11.70896214573,-52.3269066684
    ));
#183 = CARTESIAN_POINT('',(7.124459745308,-11.53588858016,-52.4906254721
    ));
#184 = CARTESIAN_POINT('',(7.032795645897,-11.35398270716,
    -52.65700887246));
#185 = CARTESIAN_POINT('',(6.95408308331,-11.16355971465,-52.82506744535
    ));
#186 = CARTESIAN_POINT('',(6.88931746005,-10.96496183314,-52.9938670746)
  );
#187 = CARTESIAN_POINT('',(6.796068118421,-10.5765503719,-53.31134575796
    ));
#188 = CARTESIAN_POINT('',(6.764181554368,-10.38823240602,-53.4602271825
    ));
#189 = CARTESIAN_POINT('',(6.745207362742,-10.19460655999,
    -53.60801661739));
#190 = CARTESIAN_POINT('',(6.740157793312,-9.996671309305,
    -53.75368801092));
#191 = CARTESIAN_POINT('',(6.749993204879,-9.795581120348,
    -53.89629443768));
#192 = CARTESIAN_POINT('',(6.79858917502,-9.410904406678,-54.15921429205
    ));
#193 = CARTESIAN_POINT('',(6.834223341581,-9.227713112611,
    -54.28027806938));
#194 = CARTESIAN_POINT('',(6.883081650988,-9.044805709773,
    -54.39704629899));
#195 = CARTESIAN_POINT('',(6.945350225223,-8.863928530234,
    -54.50861962212));
#196 = CARTESIAN_POINT('',(7.020853872422,-8.686815922344,
    -54.61432822304));
#197 = CARTESIAN_POINT('',(7.188445098241,-8.360532229304,
    -54.80315489897));
#198 = CARTESIAN_POINT('',(7.278000170655,-8.210579448402,
    -54.88733440859));
#199 = CARTESIAN_POINT('',(7.377261002322,-8.066414173536,
    -54.96592550272));
#200 = CARTESIAN_POINT('',(7.485533785194,-7.929128917572,-55.038748564)
  );
#201 = CARTESIAN_POINT('',(7.60189500416,-7.799682020058,-55.10573752745
    ));
#202 = CARTESIAN_POINT('',(7.86476708181,-7.542060165978,-55.23616857339
    ));
#203 = CARTESIAN_POINT('',(8.013204980185,-7.416329839213,
    -55.29796447057));
#204 = CARTESIAN_POINT('',(8.169356217651,-7.302251257119,
    -55.35260424917));
#205 = CARTESIAN_POINT('',(8.332009545717,-7.200293021071,
    -55.40039434215));
#206 = CARTESIAN_POINT('',(8.499900839132,-7.110771350043,
    -55.44163441307));
#207 = CARTESIAN_POINT('',(8.883180222556,-6.939134291406,-55.5196403006
    ));
#208 = CARTESIAN_POINT('',(9.100768244507,-6.863415029563,
    -55.55321472334));
#209 = CARTESIAN_POINT('',(9.322770860747,-6.806674967942,
    -55.57796421737));
#210 = CARTESIAN_POINT('',(9.547626130185,-6.7688832309,-55.5943147925)
  );
#211 = CARTESIAN_POINT('',(9.773855243969,-6.75,-55.60248377663));
#212 = CARTESIAN_POINT('',(10.158584989177,-6.75,-55.60248377663));
#213 = CARTESIAN_POINT('',(10.31717979258,-6.759285591729,
    -55.59846667139));
#214 = CARTESIAN_POINT('',(10.47530260764,-6.777860204666,
    -55.59043069305));
#215 = CARTESIAN_POINT('',(10.632457137329,-6.805734415181,
    -55.57832261832));
#216 = CARTESIAN_POINT('',(10.788131339278,-6.842924370889,
    -55.56203637343));
#217 = CARTESIAN_POINT('',(11.10077661399,-6.937585490041,
    -55.52007344993));
#218 = CARTESIAN_POINT('',(11.257663948503,-6.995731451014,
    -55.49408343679));
#219 = CARTESIAN_POINT('',(11.411721446578,-7.06388091517,
    -55.46327683235));
#220 = CARTESIAN_POINT('',(11.56219902256,-7.141972324782,
    -55.42745159053));
#221 = CARTESIAN_POINT('',(11.708333089894,-7.229890896048,
    -55.38636967844));
#222 = CARTESIAN_POINT('',(12.063372326349,-7.475572135087,
    -55.26901308074));
#223 = CARTESIAN_POINT('',(12.266336716157,-7.646437310452,
    -55.18528659811));
#224 = CARTESIAN_POINT('',(12.453654187844,-7.838579377369,
    -55.08803371692));
#225 = CARTESIAN_POINT('',(12.621621849459,-8.049337433731,
    -54.97701429897));
#226 = CARTESIAN_POINT('',(12.767525779327,-8.275299187789,
    -54.85242899784));
#227 = CARTESIAN_POINT('',(12.978263326331,-8.684748249119,
    -54.61556199269));
#228 = CARTESIAN_POINT('',(13.05406738381,-8.862237982752,
    -54.50966229665));
#229 = CARTESIAN_POINT('',(13.11657674318,-9.043525786996,
    -54.39786347434));
#230 = CARTESIAN_POINT('',(13.165611490999,-9.226862221816,
    -54.28084050581));
#231 = CARTESIAN_POINT('',(13.201357878827,-9.410485294721,
    -54.1595007478));
#232 = CARTESIAN_POINT('',(13.250006795127,-9.795581120396,
    -53.89629443764));
#233 = CARTESIAN_POINT('',(13.25984220668,-9.996671309291,
    -53.75368801092));
#234 = CARTESIAN_POINT('',(13.25479263726,-10.19460655994,
    -53.60801661742));
#235 = CARTESIAN_POINT('',(13.235818445641,-10.38823240601,
    -53.46022718251));
#236 = CARTESIAN_POINT('',(13.203931881568,-10.57655037194,
    -53.31134575793));
#237 = CARTESIAN_POINT('',(13.11135364079,-10.96216649697,
    -52.99615191873));
#238 = CARTESIAN_POINT('',(13.047668475474,-11.15817990263,
    -52.82963896773));
#239 = CARTESIAN_POINT('',(12.970393154617,-11.3462459577,
    -52.66383350681));
#240 = CARTESIAN_POINT('',(12.880488210684,-11.52603161587,
    -52.49963455418));
#241 = CARTESIAN_POINT('',(12.778676551706,-11.69723260176,-52.337991694
    ));
#242 = CARTESIAN_POINT('',(12.574644173639,-11.98970169656,
    -52.05321870761));
#243 = CARTESIAN_POINT('',(12.476456420582,-12.11418242395,
    -51.9287596383));
#244 = CARTESIAN_POINT('',(12.371130282787,-12.23281817273,
    -51.8071220667));
#245 = CARTESIAN_POINT('',(12.258785744898,-12.34542517665,
    -51.68889713687));
#246 = CARTESIAN_POINT('',(12.139482152203,-12.45172844176,
    -51.57481189094));
#247 = CARTESIAN_POINT('',(11.901664632829,-12.6393893816,
    -51.36938345255));
#248 = CARTESIAN_POINT('',(11.784595562187,-12.72226545416,
    -51.27687741321));
#249 = CARTESIAN_POINT('',(11.662120750827,-12.79962741262,
    -51.18894784709));
#250 = CARTESIAN_POINT('',(11.534323301186,-12.87109093079,
    -51.10638518113));
#251 = CARTESIAN_POINT('',(11.401293519097,-12.93621561163,
    -51.03007234207));
#252 = CARTESIAN_POINT('',(11.072096374154,-13.07507668511,
    -50.86544933345));
#253 = CARTESIAN_POINT('',(10.870007044646,-13.14309468452,
    -50.78310302511));
#254 = CARTESIAN_POINT('',(10.659291001451,-13.1958741991,
    -50.71804128959));
#255 = CARTESIAN_POINT('',(10.442423971013,-13.23182649055,
    -50.6733124245));
#256 = CARTESIAN_POINT('',(10.221857045503,-13.25,-50.65070420207));
#257 = CARTESIAN_POINT('',(10.,-13.25,-50.65070420207));
#258 = CYLINDRICAL_SURFACE('',#259,17.);
#259 = AXIS2_PLACEMENT_3D('',#260,#261,#262);
#260 = CARTESIAN_POINT('',(3.552713678801E-14,-1.262177448354E-29,-40.)
  );
#261 = DIRECTION('',(-1.,4.440892098501E-16,-2.22044604925E-16));
#262 = DIRECTION('',(-2.22044604925E-16,1.,-8.881784197001E-16));
#263 = ADVANCED_FACE('',(#264),#289,.T.);
#264 = FACE_BOUND('',#265,.T.);
#265 = EDGE_LOOP('',(#266,#267,#275,#283));
#266 = ORIENTED_EDGE('',*,*,#21,.T.);
#267 = ORIENTED_EDGE('',*,*,#268,.T.);
#268 = EDGE_CURVE('',#24,#269,#271,.T.);
#269 = VERTEX_POINT('',#270);
#270 = CARTESIAN_POINT('',(17.,-17.,1.088018564133E-14));
#271 = LINE('',#272,#273);
#272 = CARTESIAN_POINT('',(17.,-17.,-40.));
#273 = VECTOR('',#274,1.);
#274 = DIRECTION('',(-6.661338147751E-16,2.22044604925E-16,1.));
#275 = ORIENTED_EDGE('',*,*,#276,.F.);
#276 = EDGE_CURVE('',#277,#269,#279,.T.);
#277 = VERTEX_POINT('',#278);
#278 = CARTESIAN_POINT('',(3.,-17.,9.325873406851E-15));
#279 = LINE('',#280,#281);
#280 = CARTESIAN_POINT('',(3.774758283726E-15,-17.,1.50990331349E-14));
#281 = VECTOR('',#282,1.);
#282 = DIRECTION('',(1.,-6.661338147751E-16,3.574525976783E-31));
#283 = ORIENTED_EDGE('',*,*,#284,.F.);
#284 = EDGE_CURVE('',#22,#277,#285,.T.);
#285 = LINE('',#286,#287);
#286 = CARTESIAN_POINT('',(3.,-17.,-40.));
#287 = VECTOR('',#288,1.);
#288 = DIRECTION('',(-6.661338147751E-16,2.22044604925E-16,1.));
#289 = PLANE('',#290);
#290 = AXIS2_PLACEMENT_3D('',#291,#292,#293);
#291 = CARTESIAN_POINT('',(3.930189507173E-14,-17.,-40.));
#292 = DIRECTION('',(-1.479114197289E-31,-1.,6.661338147751E-16));
#293 = DIRECTION('',(-8.881784197001E-16,2.958228394579E-31,1.));
#294 = ADVANCED_FACE('',(#295),#323,.T.);
#295 = FACE_BOUND('',#296,.T.);
#296 = EDGE_LOOP('',(#297,#306,#307,#316));
#297 = ORIENTED_EDGE('',*,*,#298,.F.);
#298 = EDGE_CURVE('',#41,#299,#301,.T.);
#299 = VERTEX_POINT('',#300);
#300 = CARTESIAN_POINT('',(4.796163466381E-14,14.,-40.));
#301 = CIRCLE('',#302,3.);
#302 = AXIS2_PLACEMENT_3D('',#303,#304,#305);
#303 = CARTESIAN_POINT('',(3.,14.,-40.));
#304 = DIRECTION('',(-6.661338147751E-16,2.22044604925E-16,1.));
#305 = DIRECTION('',(4.440892098501E-16,1.,-2.22044604925E-16));
#306 = ORIENTED_EDGE('',*,*,#48,.T.);
#307 = ORIENTED_EDGE('',*,*,#308,.T.);
#308 = EDGE_CURVE('',#22,#309,#311,.T.);
#309 = VERTEX_POINT('',#310);
#310 = CARTESIAN_POINT('',(2.6645352591E-14,-14.,-40.));
#311 = CIRCLE('',#312,3.);
#312 = AXIS2_PLACEMENT_3D('',#313,#314,#315);
#313 = CARTESIAN_POINT('',(3.,-14.,-40.));
#314 = DIRECTION('',(6.661338147751E-16,-2.563172931927E-16,-1.));
#315 = DIRECTION('',(1.127552715065E-31,-1.,2.563172931927E-16));
#316 = ORIENTED_EDGE('',*,*,#317,.F.);
#317 = EDGE_CURVE('',#299,#309,#318,.T.);
#318 = CIRCLE('',#319,14.);
#319 = AXIS2_PLACEMENT_3D('',#320,#321,#322);
#320 = CARTESIAN_POINT('',(2.6645352591E-14,-4.246127267518E-15,-40.));
#321 = DIRECTION('',(-1.,-2.834968878138E-31,-6.661338147751E-16));
#322 = DIRECTION('',(5.60468271816E-31,1.,-1.266960392808E-15));
#323 = TOROIDAL_SURFACE('',#324,14.,3.);
#324 = AXIS2_PLACEMENT_3D('',#325,#326,#327);
#325 = CARTESIAN_POINT('',(3.,-4.246127267518E-15,-40.));
#326 = DIRECTION('',(-1.,-2.834968878138E-31,-6.661338147751E-16));
#327 = DIRECTION('',(5.60468271816E-31,1.,-1.266960392808E-15));
#328 = ADVANCED_FACE('',(#329),#357,.T.);
#329 = FACE_BOUND('',#330,.F.);
#330 = EDGE_LOOP('',(#331,#340,#341,#350));
#331 = ORIENTED_EDGE('',*,*,#332,.F.);
#332 = EDGE_CURVE('',#32,#333,#335,.T.);
#333 = VERTEX_POINT('',#334);
#334 = CARTESIAN_POINT('',(20.,14.,-40.));
#335 = CIRCLE('',#336,3.);
#336 = AXIS2_PLACEMENT_3D('',#337,#338,#339);
#337 = CARTESIAN_POINT('',(17.,14.,-40.));
#338 = DIRECTION('',(6.661338147751E-16,-2.22044604925E-16,-1.));
#339 = DIRECTION('',(4.440892098501E-16,1.,-2.22044604925E-16));
#340 = ORIENTED_EDGE('',*,*,#31,.T.);
#341 = ORIENTED_EDGE('',*,*,#342,.T.);
#342 = EDGE_CURVE('',#24,#343,#345,.T.);
#343 = VERTEX_POINT('',#344);
#344 = CARTESIAN_POINT('',(20.,-14.,-40.));
#345 = CIRCLE('',#346,3.);
#346 = AXIS2_PLACEMENT_3D('',#347,#348,#349);
#347 = CARTESIAN_POINT('',(17.,-14.,-40.));
#348 = DIRECTION('',(-6.661338147751E-16,3.999932140265E-16,1.));
#349 = DIRECTION('',(1.704788227017E-32,-1.,3.999932140265E-16));
#350 = ORIENTED_EDGE('',*,*,#351,.F.);
#351 = EDGE_CURVE('',#333,#343,#352,.T.);
#352 = CIRCLE('',#353,14.);
#353 = AXIS2_PLACEMENT_3D('',#354,#355,#356);
#354 = CARTESIAN_POINT('',(20.,-4.246127267518E-15,-40.));
#355 = DIRECTION('',(-1.,-2.834968878138E-31,-6.661338147751E-16));
#356 = DIRECTION('',(1.247821339968E-30,1.,-2.298814733342E-15));
#357 = TOROIDAL_SURFACE('',#358,14.,3.);
#358 = AXIS2_PLACEMENT_3D('',#359,#360,#361);
#359 = CARTESIAN_POINT('',(17.,-4.246127267518E-15,-40.));
#360 = DIRECTION('',(1.,2.834968878138E-31,6.661338147751E-16));
#361 = DIRECTION('',(1.247821339968E-30,1.,-2.298814733342E-15));
#362 = ADVANCED_FACE('',(#363),#388,.T.);
#363 = FACE_BOUND('',#364,.T.);
#364 = EDGE_LOOP('',(#365,#375,#381,#382));
#365 = ORIENTED_EDGE('',*,*,#366,.T.);
#366 = EDGE_CURVE('',#367,#369,#371,.T.);
#367 = VERTEX_POINT('',#368);
#368 = CARTESIAN_POINT('',(3.,17.,-9.992007221626E-15));
#369 = VERTEX_POINT('',#370);
#370 = CARTESIAN_POINT('',(17.,17.,-3.774758283726E-15));
#371 = LINE('',#372,#373);
#372 = CARTESIAN_POINT('',(-3.774758283726E-15,17.,-1.50990331349E-14));
#373 = VECTOR('',#374,1.);
#374 = DIRECTION('',(1.,-6.661338147751E-16,3.574525976783E-31));
#375 = ORIENTED_EDGE('',*,*,#376,.T.);
#376 = EDGE_CURVE('',#369,#32,#377,.T.);
#377 = LINE('',#378,#379);
#378 = CARTESIAN_POINT('',(17.,17.,-8.770761894539E-15));
#379 = VECTOR('',#380,1.);
#380 = DIRECTION('',(6.661338147751E-16,-2.22044604925E-16,-1.));
#381 = ORIENTED_EDGE('',*,*,#40,.F.);
#382 = ORIENTED_EDGE('',*,*,#383,.F.);
#383 = EDGE_CURVE('',#367,#41,#384,.T.);
#384 = LINE('',#385,#386);
#385 = CARTESIAN_POINT('',(3.,17.,-8.770761894539E-15));
#386 = VECTOR('',#387,1.);
#387 = DIRECTION('',(6.661338147751E-16,-2.22044604925E-16,-1.));
#388 = PLANE('',#389);
#389 = AXIS2_PLACEMENT_3D('',#390,#391,#392);
#390 = CARTESIAN_POINT('',(-3.774758283726E-15,17.,-1.50990331349E-14));
#391 = DIRECTION('',(1.479114197289E-31,1.,-6.661338147751E-16));
#392 = DIRECTION('',(8.881784197001E-16,-2.958228394579E-31,-1.));
#393 = ADVANCED_FACE('',(#394),#644,.F.);
#394 = FACE_BOUND('',#395,.T.);
#395 = EDGE_LOOP('',(#396,#397,#405,#461,#517,#525,#532,#533,#589,#643)
  );
#396 = ORIENTED_EDGE('',*,*,#57,.T.);
#397 = ORIENTED_EDGE('',*,*,#398,.T.);
#398 = EDGE_CURVE('',#58,#399,#401,.T.);
#399 = VERTEX_POINT('',#400);
#400 = CARTESIAN_POINT('',(10.,6.75,-48.68547638302));
#401 = LINE('',#402,#403);
#402 = CARTESIAN_POINT('',(10.,6.75,-57.));
#403 = VECTOR('',#404,1.);
#404 = DIRECTION('',(-3.330669073875E-16,1.110223024625E-16,1.));
#405 = ORIENTED_EDGE('',*,*,#406,.F.);
#406 = EDGE_CURVE('',#407,#399,#409,.T.);
#407 = VERTEX_POINT('',#408);
#408 = CARTESIAN_POINT('',(13.092329219213,11.,-40.));
#409 = B_SPLINE_CURVE_WITH_KNOTS('',8,(#410,#411,#412,#413,#414,#415,
    #416,#417,#418,#419,#420,#421,#422,#423,#424,#425,#426,#427,#428,
    #429,#430,#431,#432,#433,#434,#435,#436,#437,#438,#439,#440,#441,
    #442,#443,#444,#445,#446,#447,#448,#449,#450,#451,#452,#453,#454,
    #455,#456,#457,#458,#459,#460),.UNSPECIFIED.,.F.,.F.,(9,7,7,7,7,7,7,
    9),(0.,0.207449347001,0.606808236943,0.687450704969,0.757792256243,
    0.829735291146,0.908381182574,1.),.UNSPECIFIED.);
#410 = CARTESIAN_POINT('',(13.092329219213,11.,-40.));
#411 = CARTESIAN_POINT('',(13.092329219213,11.,-40.29240512495));
#412 = CARTESIAN_POINT('',(13.09520171849,10.99111682281,-40.58472128211
    ));
#413 = CARTESIAN_POINT('',(13.100944355615,10.973359845134,
    -40.87680333673));
#414 = CARTESIAN_POINT('',(13.109400150088,10.946723175216,
    -41.16849693954));
#415 = CARTESIAN_POINT('',(13.120260605565,10.911187881174,
    -41.45963242241));
#416 = CARTESIAN_POINT('',(13.133071808247,10.866726350444,
    -41.75001875905));
#417 = CARTESIAN_POINT('',(13.147243520396,10.813308780346,
    -42.03943759053));
#418 = CARTESIAN_POINT('',(13.190586784877,10.630791928257,
    -42.88244803957));
#419 = CARTESIAN_POINT('',(13.221345876708,10.478067993286,
    -43.42963301371));
#420 = CARTESIAN_POINT('',(13.249463751737,10.292064163885,
    -43.97283672539));
#421 = CARTESIAN_POINT('',(13.268561884605,10.070990996023,
    -44.51245339456));
#422 = CARTESIAN_POINT('',(13.269986064401,9.81339126083,-45.04584374109
    ));
#423 = CARTESIAN_POINT('',(13.242148571604,9.519365875782,-45.5680266073
    ));
#424 = CARTESIAN_POINT('',(13.170382447567,9.191438663457,
    -46.07194317986));
#425 = CARTESIAN_POINT('',(13.008210186743,8.767528527974,
    -46.64415211612));
#426 = CARTESIAN_POINT('',(12.97838054921,8.695277412775,-46.73918101618
    ));
#427 = CARTESIAN_POINT('',(12.94582706999,8.622124992666,-46.83294815138
    ));
#428 = CARTESIAN_POINT('',(12.910412062021,8.548213430011,
    -46.92530359901));
#429 = CARTESIAN_POINT('',(12.872000157714,8.473696033358,
    -47.01610430532));
#430 = CARTESIAN_POINT('',(12.830458414761,8.398737170629,
    -47.10521398385));
#431 = CARTESIAN_POINT('',(12.785656421928,8.323512182326,
    -47.19250301363));
#432 = CARTESIAN_POINT('',(12.695431970158,8.182521524656,
    -47.35229202229));
#433 = CARTESIAN_POINT('',(12.650822225453,8.116778822031,-47.4252525074
    ));
#434 = CARTESIAN_POINT('',(12.603585496398,8.051154539498,
    -47.49658948904));
#435 = CARTESIAN_POINT('',(12.55368178956,7.985828664642,-47.56617538994
    ));
#436 = CARTESIAN_POINT('',(12.501083053042,7.920984465529,
    -47.63389481823));
#437 = CARTESIAN_POINT('',(12.445773437119,7.856807136252,
    -47.69964402646));
#438 = CARTESIAN_POINT('',(12.387749554864,7.793482442482,
    -47.76333037054));
#439 = CARTESIAN_POINT('',(12.264909302693,7.667490186166,
    -47.88781429527));
#440 = CARTESIAN_POINT('',(12.199988436468,7.604891055632,
    -47.94849266353));
#441 = CARTESIAN_POINT('',(12.132297495036,7.543621853355,
    -48.00679446232));
#442 = CARTESIAN_POINT('',(12.061896768938,7.4839030964,-48.06262367985)
  );
#443 = CARTESIAN_POINT('',(11.988867683231,7.425949385656,
    -48.11589958621));
#444 = CARTESIAN_POINT('',(11.913312992386,7.369966850538,
    -48.16655561574));
#445 = CARTESIAN_POINT('',(11.835356975197,7.316150593697,
    -48.21453824949));
#446 = CARTESIAN_POINT('',(11.66746107788,7.208418415925,-48.30929108473
    ));
#447 = CARTESIAN_POINT('',(11.577111363031,7.154979750388,
    -48.35551464162));
#448 = CARTESIAN_POINT('',(11.484255163674,7.104576830493,
    -48.39844672046));
#449 = CARTESIAN_POINT('',(11.389072031237,7.057405039186,-48.438068107)
  );
#450 = CARTESIAN_POINT('',(11.291762262734,7.01364189831,-48.47436897765
    ));
#451 = CARTESIAN_POINT('',(11.192546773456,6.973444515943,
    -48.50734765667));
#452 = CARTESIAN_POINT('',(11.091666969671,6.936947033728,
    -48.53700937327));
#453 = CARTESIAN_POINT('',(10.870230427373,6.866176951854,-48.5940681239
    ));
#454 = CARTESIAN_POINT('',(10.749155461171,6.833258551369,
    -48.62028921375));
#455 = CARTESIAN_POINT('',(10.626458988059,6.805640697951,-48.6420738938
    ));
#456 = CARTESIAN_POINT('',(10.502455472676,6.783435509443,
    -48.65945975419));
#457 = CARTESIAN_POINT('',(10.377471145804,6.766727896262,
    -48.67247619328));
#458 = CARTESIAN_POINT('',(10.251840571215,6.755574061329,
    -48.68114424112));
#459 = CARTESIAN_POINT('',(10.125903212516,6.75,-48.68547638302));
#460 = CARTESIAN_POINT('',(10.,6.75,-48.68547638302));
#461 = ORIENTED_EDGE('',*,*,#462,.T.);
#462 = EDGE_CURVE('',#407,#463,#465,.T.);
#463 = VERTEX_POINT('',#464);
#464 = CARTESIAN_POINT('',(10.,6.75,-31.31452361698));
#465 = B_SPLINE_CURVE_WITH_KNOTS('',8,(#466,#467,#468,#469,#470,#471,
    #472,#473,#474,#475,#476,#477,#478,#479,#480,#481,#482,#483,#484,
    #485,#486,#487,#488,#489,#490,#491,#492,#493,#494,#495,#496,#497,
    #498,#499,#500,#501,#502,#503,#504,#505,#506,#507,#508,#509,#510,
    #511,#512,#513,#514,#515,#516),.UNSPECIFIED.,.F.,.F.,(9,7,7,7,7,7,7,
    9),(0.,0.207449345614,0.606808232881,0.687450700367,0.757792251169,
    0.829735286627,0.908381180141,1.),.UNSPECIFIED.);
#466 = CARTESIAN_POINT('',(13.092329219213,11.,-40.));
#467 = CARTESIAN_POINT('',(13.092329219213,11.,-39.70759487504));
#468 = CARTESIAN_POINT('',(13.09520171849,10.99111682281,-39.41527871788
    ));
#469 = CARTESIAN_POINT('',(13.100944355615,10.973359845134,
    -39.12319666326));
#470 = CARTESIAN_POINT('',(13.109400150088,10.946723175216,
    -38.83150306045));
#471 = CARTESIAN_POINT('',(13.120260605566,10.911187881174,
    -38.54036757758));
#472 = CARTESIAN_POINT('',(13.133071808247,10.866726350444,
    -38.24998124094));
#473 = CARTESIAN_POINT('',(13.147243520396,10.813308780347,
    -37.96056240946));
#474 = CARTESIAN_POINT('',(13.190586784877,10.630791928258,
    -37.11755196042));
#475 = CARTESIAN_POINT('',(13.221345876708,10.478067993283,
    -36.57036698628));
#476 = CARTESIAN_POINT('',(13.249463751738,10.292064163893,
    -36.02716327462));
#477 = CARTESIAN_POINT('',(13.268561884602,10.070990996013,
    -35.48754660541));
#478 = CARTESIAN_POINT('',(13.269986064405,9.813391260838,
    -34.95415625891));
#479 = CARTESIAN_POINT('',(13.242148571601,9.519365875776,
    -34.43197339268));
#480 = CARTESIAN_POINT('',(13.170382447568,9.191438663459,
    -33.92805682013));
#481 = CARTESIAN_POINT('',(13.008210186743,8.767528527974,
    -33.35584788387));
#482 = CARTESIAN_POINT('',(12.97838054921,8.695277412775,-33.26081898381
    ));
#483 = CARTESIAN_POINT('',(12.94582706999,8.622124992666,-33.16705184861
    ));
#484 = CARTESIAN_POINT('',(12.910412062021,8.548213430011,
    -33.07469640098));
#485 = CARTESIAN_POINT('',(12.872000157714,8.473696033358,
    -32.98389569467));
#486 = CARTESIAN_POINT('',(12.830458414761,8.398737170629,
    -32.89478601614));
#487 = CARTESIAN_POINT('',(12.785656421928,8.323512182326,
    -32.80749698637));
#488 = CARTESIAN_POINT('',(12.695431970158,8.182521524656,-32.6477079777
    ));
#489 = CARTESIAN_POINT('',(12.650822225453,8.116778822031,
    -32.57474749259));
#490 = CARTESIAN_POINT('',(12.603585496398,8.051154539498,
    -32.50341051095));
#491 = CARTESIAN_POINT('',(12.55368178956,7.985828664642,-32.43382461006
    ));
#492 = CARTESIAN_POINT('',(12.501083053042,7.920984465529,
    -32.36610518176));
#493 = CARTESIAN_POINT('',(12.445773437119,7.856807136252,
    -32.30035597353));
#494 = CARTESIAN_POINT('',(12.387749554864,7.793482442482,
    -32.23666962945));
#495 = CARTESIAN_POINT('',(12.264909301797,7.667490185247,
    -32.11218570381));
#496 = CARTESIAN_POINT('',(12.199988436193,7.604891055473,
    -32.05150733632));
#497 = CARTESIAN_POINT('',(12.132297495717,7.543621854046,
    -31.99320553835));
#498 = CARTESIAN_POINT('',(12.061896770038,7.48390309728,-31.93737632096
    ));
#499 = CARTESIAN_POINT('',(11.98886768381,7.425949385982,-31.88410041406
    ));
#500 = CARTESIAN_POINT('',(11.913312991746,7.369966849992,
    -31.83344438373));
#501 = CARTESIAN_POINT('',(11.835356973689,7.31615059273,-31.78546174965
    ));
#502 = CARTESIAN_POINT('',(11.66746107788,7.208418415925,-31.69070891526
    ));
#503 = CARTESIAN_POINT('',(11.577111363031,7.154979750388,
    -31.64448535838));
#504 = CARTESIAN_POINT('',(11.484255163674,7.104576830493,
    -31.60155327953));
#505 = CARTESIAN_POINT('',(11.389072031237,7.057405039186,
    -31.56193189299));
#506 = CARTESIAN_POINT('',(11.291762262734,7.01364189831,-31.52563102234
    ));
#507 = CARTESIAN_POINT('',(11.192546773456,6.973444515943,
    -31.49265234332));
#508 = CARTESIAN_POINT('',(11.091666969671,6.936947033728,
    -31.46299062672));
#509 = CARTESIAN_POINT('',(10.87023042737,6.866176951854,-31.40593187609
    ));
#510 = CARTESIAN_POINT('',(10.74915546117,6.833258551369,-31.37971078624
    ));
#511 = CARTESIAN_POINT('',(10.62645898806,6.805640697951,-31.35792610619
    ));
#512 = CARTESIAN_POINT('',(10.502455472678,6.783435509444,-31.3405402458
    ));
#513 = CARTESIAN_POINT('',(10.377471145806,6.766727896262,
    -31.32752380671));
#514 = CARTESIAN_POINT('',(10.251840571214,6.755574061328,
    -31.31885575887));
#515 = CARTESIAN_POINT('',(10.125903212513,6.75,-31.31452361698));
#516 = CARTESIAN_POINT('',(10.,6.75,-31.31452361698));
#517 = ORIENTED_EDGE('',*,*,#518,.T.);
#518 = EDGE_CURVE('',#463,#519,#521,.T.);
#519 = VERTEX_POINT('',#520);
#520 = CARTESIAN_POINT('',(10.,6.75,-3.));
#521 = LINE('',#522,#523);
#522 = CARTESIAN_POINT('',(10.,6.75,-57.));
#523 = VECTOR('',#524,1.);
#524 = DIRECTION('',(-3.330669073875E-16,1.110223024625E-16,1.));
#525 = ORIENTED_EDGE('',*,*,#526,.F.);
#526 = EDGE_CURVE('',#519,#519,#527,.T.);
#527 = CIRCLE('',#528,3.25);
#528 = AXIS2_PLACEMENT_3D('',#529,#530,#531);
#529 = CARTESIAN_POINT('',(10.,10.,-3.));
#530 = DIRECTION('',(3.330669073875E-16,-1.110223024625E-16,-1.));
#531 = DIRECTION('',(0.,-1.,1.110223024625E-16));
#532 = ORIENTED_EDGE('',*,*,#518,.F.);
#533 = ORIENTED_EDGE('',*,*,#534,.T.);
#534 = EDGE_CURVE('',#463,#535,#537,.T.);
#535 = VERTEX_POINT('',#536);
#536 = CARTESIAN_POINT('',(6.907670780787,11.,-40.));
#537 = B_SPLINE_CURVE_WITH_KNOTS('',8,(#538,#539,#540,#541,#542,#543,
    #544,#545,#546,#547,#548,#549,#550,#551,#552,#553,#554,#555,#556,
    #557,#558,#559,#560,#561,#562,#563,#564,#565,#566,#567,#568,#569,
    #570,#571,#572,#573,#574,#575,#576,#577,#578,#579,#580,#581,#582,
    #583,#584,#585,#586,#587,#588),.UNSPECIFIED.,.F.,.F.,(9,7,7,7,7,7,7,
    9),(0.,9.178923175056E-02,0.170058934279,0.241088372885,
    0.312556960883,0.388935500601,0.786307749579,1.),.UNSPECIFIED.);
#538 = CARTESIAN_POINT('',(10.,6.75,-31.31452361698));
#539 = CARTESIAN_POINT('',(9.87395213006,6.75,-31.31452361698));
#540 = CARTESIAN_POINT('',(9.747869882341,6.75558687627,-31.31886571972)
  );
#541 = CARTESIAN_POINT('',(9.622095425441,6.766766387578,-31.32755372022
    ));
#542 = CARTESIAN_POINT('',(9.496969456181,6.783512419455,-31.3406001634)
  );
#543 = CARTESIAN_POINT('',(9.37282774239,6.80576849665,-31.35802616723)
  );
#544 = CARTESIAN_POINT('',(9.2499976657,6.833449295584,-31.37986124588)
  );
#545 = CARTESIAN_POINT('',(9.128794764332,6.8664421568,-31.40614313287)
  );
#546 = CARTESIAN_POINT('',(8.907811735457,6.937153547377,-31.46315933951
    ));
#547 = CARTESIAN_POINT('',(8.807493640944,6.973464381221,-31.49267097313
    ));
#548 = CARTESIAN_POINT('',(8.708822212173,7.013434103244,-31.52546319269
    ));
#549 = CARTESIAN_POINT('',(8.612034768976,7.056930786516,-31.56154115267
    ));
#550 = CARTESIAN_POINT('',(8.517348607932,7.103800052548,-31.6009032663)
  );
#551 = CARTESIAN_POINT('',(8.4249608791,7.153867550968,-31.64353999721)
  );
#552 = CARTESIAN_POINT('',(8.335048462767,7.206941439195,-31.68943265123
    ));
#553 = CARTESIAN_POINT('',(8.168561039485,7.313519767509,-31.78312793112
    ));
#554 = CARTESIAN_POINT('',(8.091545769818,7.366514671912,-31.83034740803
    ));
#555 = CARTESIAN_POINT('',(8.016862596623,7.421625601732,-31.88017094922
    ));
#556 = CARTESIAN_POINT('',(7.94463155673,7.478665668474,-31.93254763429)
  );
#557 = CARTESIAN_POINT('',(7.874952340204,7.537437437662,-31.98741420059
    ));
#558 = CARTESIAN_POINT('',(7.807904466189,7.597735297773,-32.0446939718)
  );
#559 = CARTESIAN_POINT('',(7.743547458763,7.659347829166,-32.10429578639
    ));
#560 = CARTESIAN_POINT('',(7.619913572788,7.785160244646,-32.22831225915
    ));
#561 = CARTESIAN_POINT('',(7.560691460631,7.849352438302,-32.29273332877
    ));
#562 = CARTESIAN_POINT('',(7.504266388033,7.914442857366,-32.35929093929
    ));
#563 = CARTESIAN_POINT('',(7.45063640134,7.980236607887,-32.42788864427)
  );
#564 = CARTESIAN_POINT('',(7.399786174347,8.04653927498,-32.49841815548)
  );
#565 = CARTESIAN_POINT('',(7.351687291132,8.113158399243,-32.57075875161
    ));
#566 = CARTESIAN_POINT('',(7.306298528887,8.179904953162,-32.6447766871)
  );
#567 = CARTESIAN_POINT('',(7.217898001832,8.3178663313,-32.8010627196));
#568 = CARTESIAN_POINT('',(7.17526373003,8.389073160513,-32.88354837701)
  );
#569 = CARTESIAN_POINT('',(7.135556623244,8.460055712667,-32.96767587905
    ));
#570 = CARTESIAN_POINT('',(7.098667524361,8.530663024263,-33.05333396869
    ));
#571 = CARTESIAN_POINT('',(7.064484911087,8.600752867954,-33.14040573753
    ));
#572 = CARTESIAN_POINT('',(7.032894985777,8.670191859687,-33.22876853726
    ));
#573 = CARTESIAN_POINT('',(7.003781765268,8.738855565859,-33.31829389125
    ));
#574 = CARTESIAN_POINT('',(6.837831875145,9.159229318124,-33.87996735594
    ));
#575 = CARTESIAN_POINT('',(6.762183738841,9.488473721263,-34.37992312018
    ));
#576 = CARTESIAN_POINT('',(6.731362373357,9.784554338237,-34.89885594815
    ));
#577 = CARTESIAN_POINT('',(6.730606490452,10.044424293263,
    -35.42924420819));
#578 = CARTESIAN_POINT('',(6.748159233812,10.267825473999,
    -35.96566956252));
#579 = CARTESIAN_POINT('',(6.775265825679,10.456277575834,
    -36.50530243632));
#580 = CARTESIAN_POINT('',(6.80559335537,10.611808000894,-37.04880871454
    ));
#581 = CARTESIAN_POINT('',(6.849653254186,10.8015327828,-37.89775598504)
  );
#582 = CARTESIAN_POINT('',(6.864517101671,10.85832641703,-38.19596923345
    ));
#583 = CARTESIAN_POINT('',(6.878032719748,10.905593241062,
    -38.49523860646));
#584 = CARTESIAN_POINT('',(6.889535258638,10.943367694275,
    -38.79532512099));
#585 = CARTESIAN_POINT('',(6.898512874034,10.971681619205,
    -39.09602049464));
#586 = CARTESIAN_POINT('',(6.904617232417,10.990556823735,
    -39.39714063183));
#587 = CARTESIAN_POINT('',(6.907670780787,11.,-39.69851901489));
#588 = CARTESIAN_POINT('',(6.907670780787,11.,-40.));
#589 = ORIENTED_EDGE('',*,*,#590,.F.);
#590 = EDGE_CURVE('',#399,#535,#591,.T.);
#591 = B_SPLINE_CURVE_WITH_KNOTS('',8,(#592,#593,#594,#595,#596,#597,
    #598,#599,#600,#601,#602,#603,#604,#605,#606,#607,#608,#609,#610,
    #611,#612,#613,#614,#615,#616,#617,#618,#619,#620,#621,#622,#623,
    #624,#625,#626,#627,#628,#629,#630,#631,#632,#633,#634,#635,#636,
    #637,#638,#639,#640,#641,#642),.UNSPECIFIED.,.F.,.F.,(9,7,7,7,7,7,7,
    9),(0.,9.178923051522E-02,0.170058933133,0.241088371822,
    0.312556959913,0.388935499741,0.786307749286,1.),.UNSPECIFIED.);
#592 = CARTESIAN_POINT('',(10.,6.75,-48.68547638302));
#593 = CARTESIAN_POINT('',(9.873952131859,6.75,-48.68547638302));
#594 = CARTESIAN_POINT('',(9.747869881327,6.755586876545,-48.68113428005
    ));
#595 = CARTESIAN_POINT('',(9.622095423645,6.766766387729,-48.67244627965
    ));
#596 = CARTESIAN_POINT('',(9.49696945616,6.783512419223,-48.65939983678)
  );
#597 = CARTESIAN_POINT('',(9.372827744165,6.805768496245,-48.64197383309
    ));
#598 = CARTESIAN_POINT('',(9.249997666739,6.833449295541,-48.62013875415
    ));
#599 = CARTESIAN_POINT('',(9.12879476259,6.866442157358,-48.59385686667)
  );
#600 = CARTESIAN_POINT('',(8.907811735457,6.937153547377,-48.53684066048
    ));
#601 = CARTESIAN_POINT('',(8.807493640944,6.97346438122,-48.50732902686)
  );
#602 = CARTESIAN_POINT('',(8.708822212173,7.013434103244,-48.4745368073)
  );
#603 = CARTESIAN_POINT('',(8.612034768976,7.056930786516,-48.43845884732
    ));
#604 = CARTESIAN_POINT('',(8.517348607932,7.103800052548,-48.39909673369
    ));
#605 = CARTESIAN_POINT('',(8.4249608791,7.153867550968,-48.35646000278)
  );
#606 = CARTESIAN_POINT('',(8.335048462766,7.206941439195,-48.31056734876
    ));
#607 = CARTESIAN_POINT('',(8.168561039485,7.313519767509,-48.21687206888
    ));
#608 = CARTESIAN_POINT('',(8.091545769818,7.366514671913,-48.16965259196
    ));
#609 = CARTESIAN_POINT('',(8.016862596622,7.421625601732,-48.11982905077
    ));
#610 = CARTESIAN_POINT('',(7.94463155673,7.478665668474,-48.0674523657)
  );
#611 = CARTESIAN_POINT('',(7.874952340204,7.537437437662,-48.0125857994)
  );
#612 = CARTESIAN_POINT('',(7.807904466189,7.597735297773,-47.9553060282)
  );
#613 = CARTESIAN_POINT('',(7.743547458764,7.659347829166,-47.8957042136)
  );
#614 = CARTESIAN_POINT('',(7.619913572779,7.785160244655,-47.77168774083
    ));
#615 = CARTESIAN_POINT('',(7.560691460628,7.849352438305,-47.70726667122
    ));
#616 = CARTESIAN_POINT('',(7.504266388038,7.914442857361,-47.64070906071
    ));
#617 = CARTESIAN_POINT('',(7.450636401347,7.980236607878,-47.57211135573
    ));
#618 = CARTESIAN_POINT('',(7.39978617435,8.046539274975,-47.50158184452)
  );
#619 = CARTESIAN_POINT('',(7.351687291128,8.113158399247,-47.42924124838
    ));
#620 = CARTESIAN_POINT('',(7.30629852888,8.179904953172,-47.35522331288)
  );
#621 = CARTESIAN_POINT('',(7.217898001832,8.3178663313,-47.19893728039)
  );
#622 = CARTESIAN_POINT('',(7.17526373003,8.389073160513,-47.11645162299)
  );
#623 = CARTESIAN_POINT('',(7.135556623244,8.460055712667,-47.03232412094
    ));
#624 = CARTESIAN_POINT('',(7.098667524361,8.530663024263,-46.9466660313)
  );
#625 = CARTESIAN_POINT('',(7.064484911087,8.600752867954,-46.85959426246
    ));
#626 = CARTESIAN_POINT('',(7.032894985777,8.670191859687,-46.77123146273
    ));
#627 = CARTESIAN_POINT('',(7.003781765268,8.738855565859,-46.68170610874
    ));
#628 = CARTESIAN_POINT('',(6.837831875149,9.159229318115,-46.12003264406
    ));
#629 = CARTESIAN_POINT('',(6.762183738842,9.488473721253,-45.62007687982
    ));
#630 = CARTESIAN_POINT('',(6.731362373354,9.784554338241,-45.10114405184
    ));
#631 = CARTESIAN_POINT('',(6.730606490452,10.044424293271,
    -44.57075579179));
#632 = CARTESIAN_POINT('',(6.748159233814,10.267825474008,
    -44.03433043745));
#633 = CARTESIAN_POINT('',(6.775265825679,10.45627757583,-43.49469756367
    ));
#634 = CARTESIAN_POINT('',(6.805593355368,10.611808000886,
    -42.95119128548));
#635 = CARTESIAN_POINT('',(6.849653254186,10.8015327828,-42.10224401495)
  );
#636 = CARTESIAN_POINT('',(6.864517101671,10.85832641703,-41.80403076654
    ));
#637 = CARTESIAN_POINT('',(6.878032719748,10.905593241062,
    -41.50476139354));
#638 = CARTESIAN_POINT('',(6.889535258638,10.943367694274,-41.204674879)
  );
#639 = CARTESIAN_POINT('',(6.898512874034,10.971681619205,
    -40.90397950535));
#640 = CARTESIAN_POINT('',(6.904617232418,10.990556823735,
    -40.60285936816));
#641 = CARTESIAN_POINT('',(6.907670780787,11.,-40.3014809851));
#642 = CARTESIAN_POINT('',(6.907670780787,11.,-40.));
#643 = ORIENTED_EDGE('',*,*,#398,.F.);
#644 = CYLINDRICAL_SURFACE('',#645,3.25);
#645 = AXIS2_PLACEMENT_3D('',#646,#647,#648);
#646 = CARTESIAN_POINT('',(10.,10.,-57.));
#647 = DIRECTION('',(-3.330669073875E-16,1.110223024625E-16,1.));
#648 = DIRECTION('',(0.,-1.,1.110223024625E-16));
#649 = ADVANCED_FACE('',(#650,#669),#888,.F.);
#650 = FACE_BOUND('',#651,.T.);
#651 = EDGE_LOOP('',(#652,#653,#661,#668));
#652 = ORIENTED_EDGE('',*,*,#162,.T.);
#653 = ORIENTED_EDGE('',*,*,#654,.T.);
#654 = EDGE_CURVE('',#163,#655,#657,.T.);
#655 = VERTEX_POINT('',#656);
#656 = CARTESIAN_POINT('',(10.,-13.25,-3.));
#657 = LINE('',#658,#659);
#658 = CARTESIAN_POINT('',(10.,-13.25,-57.));
#659 = VECTOR('',#660,1.);
#660 = DIRECTION('',(-3.330669073875E-16,1.110223024625E-16,1.));
#661 = ORIENTED_EDGE('',*,*,#662,.F.);
#662 = EDGE_CURVE('',#655,#655,#663,.T.);
#663 = CIRCLE('',#664,3.25);
#664 = AXIS2_PLACEMENT_3D('',#665,#666,#667);
#665 = CARTESIAN_POINT('',(10.,-10.,-3.));
#666 = DIRECTION('',(3.330669073875E-16,-1.110223024625E-16,-1.));
#667 = DIRECTION('',(0.,-1.,1.110223024625E-16));
#668 = ORIENTED_EDGE('',*,*,#654,.F.);
#669 = FACE_BOUND('',#670,.T.);
#670 = EDGE_LOOP('',(#671));
#671 = ORIENTED_EDGE('',*,*,#672,.F.);
#672 = EDGE_CURVE('',#673,#673,#675,.T.);
#673 = VERTEX_POINT('',#674);
#674 = CARTESIAN_POINT('',(13.092329219213,-11.,-40.));
#675 = B_SPLINE_CURVE_WITH_KNOTS('',8,(#676,#677,#678,#679,#680,#681,
    #682,#683,#684,#685,#686,#687,#688,#689,#690,#691,#692,#693,#694,
    #695,#696,#697,#698,#699,#700,#701,#702,#703,#704,#705,#706,#707,
    #708,#709,#710,#711,#712,#713,#714,#715,#716,#717,#718,#719,#720,
    #721,#722,#723,#724,#725,#726,#727,#728,#729,#730,#731,#732,#733,
    #734,#735,#736,#737,#738,#739,#740,#741,#742,#743,#744,#745,#746,
    #747,#748,#749,#750,#751,#752,#753,#754,#755,#756,#757,#758,#759,
    #760,#761,#762,#763,#764,#765,#766,#767,#768,#769,#770,#771,#772,
    #773,#774,#775,#776,#777,#778,#779,#780,#781,#782,#783,#784,#785,
    #786,#787,#788,#789,#790,#791,#792,#793,#794,#795,#796,#797,#798,
    #799,#800,#801,#802,#803,#804,#805,#806,#807,#808,#809,#810,#811,
    #812,#813,#814,#815,#816,#817,#818,#819,#820,#821,#822,#823,#824,
    #825,#826,#827,#828,#829,#830,#831,#832,#833,#834,#835,#836,#837,
    #838,#839,#840,#841,#842,#843,#844,#845,#846,#847,#848,#849,#850,
    #851,#852,#853,#854,#855,#856,#857,#858,#859,#860,#861,#862,#863,
    #864,#865,#866,#867,#868,#869,#870,#871,#872,#873,#874,#875,#876,
    #877,#878,#879,#880,#881,#882,#883,#884,#885,#886,#887),
  .UNSPECIFIED.,.T.,.F.,(9,7,7,7,7,7,7,7,7,7,7,7,7,7,7,7,7,7,7,7,7,7,7,7
    ,7,7,7,7,7,7,9),(0.,5.341350573261E-02,0.15273879649,0.171830015582,
    0.189693966329,0.207448149442,0.227012075028,0.234306160179,
    0.249950500803,0.272859739956,0.292525105497,0.31051442514,
    0.328103294608,0.348267903122,0.448127392415,0.499999997152,
    0.551872603093,0.651732092377,0.67189670089,0.689485570359,
    0.707474890006,0.727140255552,0.750049495041,0.765693835673,
    0.772987920827,0.792551846422,0.810306029805,0.828169980898,
    0.847261200369,0.946586493159,1.),.UNSPECIFIED.);
#676 = CARTESIAN_POINT('',(13.092329219213,-11.,-40.));
#677 = CARTESIAN_POINT('',(13.092329219213,-11.,-39.69851901489));
#678 = CARTESIAN_POINT('',(13.095382767583,-10.99055682373,
    -39.39714063183));
#679 = CARTESIAN_POINT('',(13.101487125966,-10.9716816192,
    -39.09602049464));
#680 = CARTESIAN_POINT('',(13.110464741362,-10.94336769427,
    -38.79532512099));
#681 = CARTESIAN_POINT('',(13.121967280252,-10.90559324106,
    -38.49523860646));
#682 = CARTESIAN_POINT('',(13.135482898329,-10.85832641703,
    -38.19596923345));
#683 = CARTESIAN_POINT('',(13.150346745814,-10.8015327828,
    -37.89775598504));
#684 = CARTESIAN_POINT('',(13.194406644639,-10.61180800085,
    -37.04880871437));
#685 = CARTESIAN_POINT('',(13.224734174323,-10.45627757581,
    -36.50530243632));
#686 = CARTESIAN_POINT('',(13.251840766176,-10.26782547403,
    -35.96566956263));
#687 = CARTESIAN_POINT('',(13.269393509546,-10.04442429332,
    -35.42924420832));
#688 = CARTESIAN_POINT('',(13.268637626658,-9.784554338257,
    -34.89885594815));
#689 = CARTESIAN_POINT('',(13.237816261161,-9.488473721219,
    -34.37992312011));
#690 = CARTESIAN_POINT('',(13.16216812483,-9.159229318062,
    -33.87996735586));
#691 = CARTESIAN_POINT('',(12.996218234732,-8.738855565859,
    -33.31829389125));
#692 = CARTESIAN_POINT('',(12.967105014223,-8.670191859687,
    -33.22876853726));
#693 = CARTESIAN_POINT('',(12.935515088913,-8.600752867954,
    -33.14040573753));
#694 = CARTESIAN_POINT('',(12.901332475639,-8.530663024263,
    -33.05333396869));
#695 = CARTESIAN_POINT('',(12.864443376756,-8.460055712667,
    -32.96767587905));
#696 = CARTESIAN_POINT('',(12.82473626997,-8.389073160513,
    -32.88354837701));
#697 = CARTESIAN_POINT('',(12.782101998169,-8.3178663313,-32.8010627196)
  );
#698 = CARTESIAN_POINT('',(12.693701471114,-8.179904953162,
    -32.6447766871));
#699 = CARTESIAN_POINT('',(12.648312708868,-8.113158399243,
    -32.57075875161));
#700 = CARTESIAN_POINT('',(12.600213825653,-8.04653927498,
    -32.49841815548));
#701 = CARTESIAN_POINT('',(12.54936359866,-7.980236607886,
    -32.42788864427));
#702 = CARTESIAN_POINT('',(12.495733611967,-7.914442857366,
    -32.35929093929));
#703 = CARTESIAN_POINT('',(12.43930853937,-7.849352438302,
    -32.29273332877));
#704 = CARTESIAN_POINT('',(12.380086427212,-7.785160244646,
    -32.22831225915));
#705 = CARTESIAN_POINT('',(12.256452540981,-7.659347828906,
    -32.10429578614));
#706 = CARTESIAN_POINT('',(12.192095534017,-7.59773529801,
    -32.04469397203));
#707 = CARTESIAN_POINT('',(12.12504766045,-7.537437438264,
    -31.98741420117));
#708 = CARTESIAN_POINT('',(12.05536844392,-7.478665668969,
    -31.93254763474));
#709 = CARTESIAN_POINT('',(11.983137403469,-7.421625601717,
    -31.88017094919));
#710 = CARTESIAN_POINT('',(11.908454229435,-7.366514671322,
    -31.83034740748));
#711 = CARTESIAN_POINT('',(11.831438959349,-7.313519766763,
    -31.78312793046));
#712 = CARTESIAN_POINT('',(11.664951537234,-7.206941439195,
    -31.68943265123));
#713 = CARTESIAN_POINT('',(11.5750391209,-7.153867550968,-31.64353999721
    ));
#714 = CARTESIAN_POINT('',(11.482651392068,-7.103800052548,
    -31.6009032663));
#715 = CARTESIAN_POINT('',(11.387965231024,-7.056930786516,
    -31.56154115267));
#716 = CARTESIAN_POINT('',(11.291177787827,-7.013434103244,
    -31.52546319269));
#717 = CARTESIAN_POINT('',(11.192506359056,-6.973464381221,
    -31.49267097313));
#718 = CARTESIAN_POINT('',(11.092188264543,-6.937153547377,
    -31.46315933951));
#719 = CARTESIAN_POINT('',(10.952560754673,-6.892474752648,
    -31.42713380852));
#720 = CARTESIAN_POINT('',(10.914440951031,-6.880862246487,
    -31.4178028164));
#721 = CARTESIAN_POINT('',(10.876132352567,-6.869776180706,
    -31.40892369453));
#722 = CARTESIAN_POINT('',(10.837645944012,-6.859221259527,
    -31.40049548501));
#723 = CARTESIAN_POINT('',(10.798992655445,-6.849201789617,
    -31.3925172054));
#724 = CARTESIAN_POINT('',(10.760183362296,-6.839721680095,
    -31.38498784875));
#725 = CARTESIAN_POINT('',(10.721228885345,-6.830784442527,
    -31.37790638353));
#726 = CARTESIAN_POINT('',(10.598302200296,-6.804395649691,
    -31.35704181167));
#727 = CARTESIAN_POINT('',(10.513853083169,-6.788911368867,
    -31.34486874454));
#728 = CARTESIAN_POINT('',(10.428892582692,-6.775969287603,
    -31.33474083751));
#729 = CARTESIAN_POINT('',(10.343521855134,-6.76559263513,
    -31.32664854761));
#730 = CARTESIAN_POINT('',(10.257843229473,-6.757798840569,
    -31.32058455551));
#731 = CARTESIAN_POINT('',(10.171960167194,-6.752599442745,
    -31.31654381743));
#732 = CARTESIAN_POINT('',(10.085977222077,-6.75,-31.31452361698));
#733 = CARTESIAN_POINT('',(9.874096787484,-6.75,-31.31452361698));
#734 = CARTESIAN_POINT('',(9.748159428785,-6.755574061329,
    -31.31885575887));
#735 = CARTESIAN_POINT('',(9.622528854196,-6.766727896262,
    -31.32752380671));
#736 = CARTESIAN_POINT('',(9.497544527324,-6.783435509443,-31.3405402458
    ));
#737 = CARTESIAN_POINT('',(9.373541011942,-6.805640697951,
    -31.35792610619));
#738 = CARTESIAN_POINT('',(9.250844538829,-6.833258551369,
    -31.37971078624));
#739 = CARTESIAN_POINT('',(9.129769572627,-6.866176951854,
    -31.40593187609));
#740 = CARTESIAN_POINT('',(8.908333030329,-6.936947033728,
    -31.46299062672));
#741 = CARTESIAN_POINT('',(8.807453226544,-6.973444515943,
    -31.49265234332));
#742 = CARTESIAN_POINT('',(8.708237737267,-7.01364189831,-31.52563102234
    ));
#743 = CARTESIAN_POINT('',(8.610927968763,-7.057405039186,
    -31.56193189299));
#744 = CARTESIAN_POINT('',(8.515744836326,-7.104576830493,
    -31.60155327953));
#745 = CARTESIAN_POINT('',(8.422888636969,-7.154979750388,
    -31.64448535838));
#746 = CARTESIAN_POINT('',(8.332538922121,-7.208418415925,
    -31.69070891526));
#747 = CARTESIAN_POINT('',(8.164643024803,-7.316150593697,-31.7854617505
    ));
#748 = CARTESIAN_POINT('',(8.086687007615,-7.369966850537,
    -31.83344438425));
#749 = CARTESIAN_POINT('',(8.01113231677,-7.425949385656,-31.88410041378
    ));
#750 = CARTESIAN_POINT('',(7.938103231062,-7.4839030964,-31.93737632014)
  );
#751 = CARTESIAN_POINT('',(7.867702504964,-7.543621853355,
    -31.99320553767));
#752 = CARTESIAN_POINT('',(7.800011563532,-7.604891055632,
    -32.05150733646));
#753 = CARTESIAN_POINT('',(7.735090697308,-7.667490186166,
    -32.11218570472));
#754 = CARTESIAN_POINT('',(7.612250445136,-7.793482442482,
    -32.23666962945));
#755 = CARTESIAN_POINT('',(7.554226562881,-7.856807136252,
    -32.30035597353));
#756 = CARTESIAN_POINT('',(7.498916946958,-7.920984465529,
    -32.36610518176));
#757 = CARTESIAN_POINT('',(7.446318210441,-7.985828664642,
    -32.43382461006));
#758 = CARTESIAN_POINT('',(7.396414503602,-8.051154539498,
    -32.50341051095));
#759 = CARTESIAN_POINT('',(7.349177774548,-8.11677882203,-32.57474749259
    ));
#760 = CARTESIAN_POINT('',(7.304568029842,-8.182521524655,-32.6477079777
    ));
#761 = CARTESIAN_POINT('',(7.214343578072,-8.323512182325,
    -32.80749698637));
#762 = CARTESIAN_POINT('',(7.169541585239,-8.398737170629,
    -32.89478601614));
#763 = CARTESIAN_POINT('',(7.127999842286,-8.473696033357,
    -32.98389569467));
#764 = CARTESIAN_POINT('',(7.08958793798,-8.548213430011,-33.07469640098
    ));
#765 = CARTESIAN_POINT('',(7.05417293001,-8.622124992665,-33.16705184861
    ));
#766 = CARTESIAN_POINT('',(7.02161945079,-8.695277412775,-33.26081898381
    ));
#767 = CARTESIAN_POINT('',(6.991789813258,-8.767528527974,
    -33.35584788387));
#768 = CARTESIAN_POINT('',(6.82961755243,-9.191438663464,-33.92805682014
    ));
#769 = CARTESIAN_POINT('',(6.7578514284,-9.519365875774,-34.43197339268)
  );
#770 = CARTESIAN_POINT('',(6.730013935597,-9.813391260833,
    -34.95415625892));
#771 = CARTESIAN_POINT('',(6.731438115395,-10.07099099601,
    -35.48754660539));
#772 = CARTESIAN_POINT('',(6.750536248264,-10.29206416389,
    -36.02716327463));
#773 = CARTESIAN_POINT('',(6.778654123292,-10.47806799328,
    -36.57036698627));
#774 = CARTESIAN_POINT('',(6.809413215124,-10.63079192825,
    -37.11755196043));
#775 = CARTESIAN_POINT('',(6.852756479604,-10.81330878034,
    -37.96056240946));
#776 = CARTESIAN_POINT('',(6.866928191753,-10.86672635044,
    -38.24998124094));
#777 = CARTESIAN_POINT('',(6.879739394435,-10.91118788117,
    -38.54036757758));
#778 = CARTESIAN_POINT('',(6.890599849912,-10.94672317521,
    -38.83150306045));
#779 = CARTESIAN_POINT('',(6.899055644385,-10.97335984513,
    -39.12319666326));
#780 = CARTESIAN_POINT('',(6.90479828151,-10.99111682281,-39.41527871788
    ));
#781 = CARTESIAN_POINT('',(6.907670780787,-11.,-39.70759487504));
#782 = CARTESIAN_POINT('',(6.907670780787,-11.,-40.29240513174));
#783 = CARTESIAN_POINT('',(6.90479828142,-10.99111682239,-40.58472127802
    ));
#784 = CARTESIAN_POINT('',(6.899055644545,-10.97335984577,-40.8768033298
    ));
#785 = CARTESIAN_POINT('',(6.890599850073,-10.94672317589,
    -41.16849693956));
#786 = CARTESIAN_POINT('',(6.879739394225,-10.91118788033,
    -41.45963242929));
#787 = CARTESIAN_POINT('',(6.866928191442,-10.86672634916,-41.750018763)
  );
#788 = CARTESIAN_POINT('',(6.85275647995,-10.8133087818,-42.03943758381)
  );
#789 = CARTESIAN_POINT('',(6.809413215123,-10.63079192825,
    -42.88244803957));
#790 = CARTESIAN_POINT('',(6.778654123292,-10.47806799328,
    -43.42963301371));
#791 = CARTESIAN_POINT('',(6.750536248265,-10.29206416388,
    -43.97283672539));
#792 = CARTESIAN_POINT('',(6.731438115393,-10.07099099602,
    -44.51245339456));
#793 = CARTESIAN_POINT('',(6.730013935599,-9.813391260829,
    -45.04584374109));
#794 = CARTESIAN_POINT('',(6.757851428397,-9.51936587578,-45.5680266073)
  );
#795 = CARTESIAN_POINT('',(6.829617552432,-9.191438663459,
    -46.07194317986));
#796 = CARTESIAN_POINT('',(6.991789813258,-8.767528527974,
    -46.64415211612));
#797 = CARTESIAN_POINT('',(7.02161945079,-8.695277412775,-46.73918101618
    ));
#798 = CARTESIAN_POINT('',(7.05417293001,-8.622124992665,-46.83294815139
    ));
#799 = CARTESIAN_POINT('',(7.08958793798,-8.548213430011,-46.92530359901
    ));
#800 = CARTESIAN_POINT('',(7.127999842286,-8.473696033358,
    -47.01610430533));
#801 = CARTESIAN_POINT('',(7.169541585239,-8.398737170629,
    -47.10521398385));
#802 = CARTESIAN_POINT('',(7.214343578072,-8.323512182325,
    -47.19250301363));
#803 = CARTESIAN_POINT('',(7.304568029849,-8.182521524645,
    -47.35229202231));
#804 = CARTESIAN_POINT('',(7.349177774551,-8.116778822027,-47.4252525074
    ));
#805 = CARTESIAN_POINT('',(7.396414503599,-8.051154539503,
    -47.49658948903));
#806 = CARTESIAN_POINT('',(7.446318210434,-7.985828664651,
    -47.56617538993));
#807 = CARTESIAN_POINT('',(7.498916946953,-7.920984465534,
    -47.63389481822));
#808 = CARTESIAN_POINT('',(7.554226562884,-7.856807136249,
    -47.69964402646));
#809 = CARTESIAN_POINT('',(7.612250445145,-7.793482442473,
    -47.76333037055));
#810 = CARTESIAN_POINT('',(7.735090697308,-7.667490186166,
    -47.88781429527));
#811 = CARTESIAN_POINT('',(7.800011563532,-7.604891055631,
    -47.94849266353));
#812 = CARTESIAN_POINT('',(7.867702504964,-7.543621853355,
    -48.00679446232));
#813 = CARTESIAN_POINT('',(7.938103231062,-7.4839030964,-48.06262367985)
  );
#814 = CARTESIAN_POINT('',(8.01113231677,-7.425949385656,-48.11589958621
    ));
#815 = CARTESIAN_POINT('',(8.086687007614,-7.369966850538,
    -48.16655561574));
#816 = CARTESIAN_POINT('',(8.164643024803,-7.316150593697,
    -48.21453824949));
#817 = CARTESIAN_POINT('',(8.332538922121,-7.208418415925,
    -48.30929108473));
#818 = CARTESIAN_POINT('',(8.42288863697,-7.154979750388,-48.35551464162
    ));
#819 = CARTESIAN_POINT('',(8.515744836326,-7.104576830493,
    -48.39844672046));
#820 = CARTESIAN_POINT('',(8.610927968763,-7.057405039186,-48.438068107)
  );
#821 = CARTESIAN_POINT('',(8.708237737267,-7.01364189831,-48.47436897765
    ));
#822 = CARTESIAN_POINT('',(8.807453226544,-6.973444515943,
    -48.50734765667));
#823 = CARTESIAN_POINT('',(8.908333030329,-6.936947033728,
    -48.53700937327));
#824 = CARTESIAN_POINT('',(9.129769574347,-6.866176951305,
    -48.59406812435));
#825 = CARTESIAN_POINT('',(9.250844537801,-6.833258551411,
    -48.62028921372));
#826 = CARTESIAN_POINT('',(9.37354101019,-6.80564069835,-48.64207389348)
  );
#827 = CARTESIAN_POINT('',(9.497544527349,-6.783435509672,
    -48.65945975401));
#828 = CARTESIAN_POINT('',(9.622528855973,-6.766727896113,-48.6724761934
    ));
#829 = CARTESIAN_POINT('',(9.748159429785,-6.755574061058,
    -48.68114424134));
#830 = CARTESIAN_POINT('',(9.874096785701,-6.75,-48.68547638302));
#831 = CARTESIAN_POINT('',(10.085977222077,-6.75,-48.68547638302));
#832 = CARTESIAN_POINT('',(10.171960167194,-6.752599442745,
    -48.68345618256));
#833 = CARTESIAN_POINT('',(10.257843229473,-6.757798840569,
    -48.67941544448));
#834 = CARTESIAN_POINT('',(10.343521855134,-6.76559263513,
    -48.67335145239));
#835 = CARTESIAN_POINT('',(10.428892582692,-6.775969287603,
    -48.66525916248));
#836 = CARTESIAN_POINT('',(10.513853083169,-6.788911368867,
    -48.65513125546));
#837 = CARTESIAN_POINT('',(10.598302200296,-6.804395649691,
    -48.64295818832));
#838 = CARTESIAN_POINT('',(10.721228885345,-6.830784442527,
    -48.62209361646));
#839 = CARTESIAN_POINT('',(10.760183362296,-6.839721680095,
    -48.61501215125));
#840 = CARTESIAN_POINT('',(10.798992655445,-6.849201789617,
    -48.60748279459));
#841 = CARTESIAN_POINT('',(10.837645944012,-6.859221259527,
    -48.59950451498));
#842 = CARTESIAN_POINT('',(10.876132352567,-6.869776180706,
    -48.59107630546));
#843 = CARTESIAN_POINT('',(10.914440951031,-6.880862246487,
    -48.58219718359));
#844 = CARTESIAN_POINT('',(10.952560754673,-6.892474752648,
    -48.57286619147));
#845 = CARTESIAN_POINT('',(11.092188264543,-6.937153547377,
    -48.53684066048));
#846 = CARTESIAN_POINT('',(11.192506359056,-6.973464381221,
    -48.50732902686));
#847 = CARTESIAN_POINT('',(11.291177787827,-7.013434103244,
    -48.4745368073));
#848 = CARTESIAN_POINT('',(11.387965231024,-7.056930786516,
    -48.43845884732));
#849 = CARTESIAN_POINT('',(11.482651392068,-7.103800052548,
    -48.39909673369));
#850 = CARTESIAN_POINT('',(11.5750391209,-7.153867550968,-48.35646000278
    ));
#851 = CARTESIAN_POINT('',(11.664951537234,-7.206941439195,
    -48.31056734876));
#852 = CARTESIAN_POINT('',(11.831438960515,-7.313519767509,
    -48.21687206888));
#853 = CARTESIAN_POINT('',(11.908454230182,-7.366514671913,
    -48.16965259196));
#854 = CARTESIAN_POINT('',(11.983137403378,-7.421625601732,
    -48.11982905077));
#855 = CARTESIAN_POINT('',(12.05536844327,-7.478665668474,-48.0674523657
    ));
#856 = CARTESIAN_POINT('',(12.125047659796,-7.537437437662,
    -48.0125857994));
#857 = CARTESIAN_POINT('',(12.192095533811,-7.597735297773,
    -47.9553060282));
#858 = CARTESIAN_POINT('',(12.256452541237,-7.659347829166,
    -47.8957042136));
#859 = CARTESIAN_POINT('',(12.380086427212,-7.785160244646,
    -47.77168774084));
#860 = CARTESIAN_POINT('',(12.43930853937,-7.849352438302,
    -47.70726667122));
#861 = CARTESIAN_POINT('',(12.495733611967,-7.914442857366,
    -47.64070906071));
#862 = CARTESIAN_POINT('',(12.54936359866,-7.980236607887,
    -47.57211135572));
#863 = CARTESIAN_POINT('',(12.600213825653,-8.04653927498,
    -47.50158184451));
#864 = CARTESIAN_POINT('',(12.648312708868,-8.113158399243,
    -47.42924124838));
#865 = CARTESIAN_POINT('',(12.693701471114,-8.179904953162,
    -47.35522331289));
#866 = CARTESIAN_POINT('',(12.78210199819,-8.317866331333,
    -47.19893728036));
#867 = CARTESIAN_POINT('',(12.824736269975,-8.389073160524,
    -47.11645162297));
#868 = CARTESIAN_POINT('',(12.864443376743,-8.460055712648,
    -47.03232412097));
#869 = CARTESIAN_POINT('',(12.901332475623,-8.530663024233,
    -46.94666603133));
#870 = CARTESIAN_POINT('',(12.935515088907,-8.600752867938,
    -46.85959426248));
#871 = CARTESIAN_POINT('',(12.967105014231,-8.670191859701,
    -46.77123146271));
#872 = CARTESIAN_POINT('',(12.996218234745,-8.738855565893,
    -46.6817061087));
#873 = CARTESIAN_POINT('',(13.162168124852,-9.159229318117,
    -46.12003264406));
#874 = CARTESIAN_POINT('',(13.237816261157,-9.488473721253,
    -45.62007687982));
#875 = CARTESIAN_POINT('',(13.268637626649,-9.784554338241,
    -45.10114405184));
#876 = CARTESIAN_POINT('',(13.269393509545,-10.04442429327,
    -44.57075579179));
#877 = CARTESIAN_POINT('',(13.251840766187,-10.267825474,-44.03433043744
    ));
#878 = CARTESIAN_POINT('',(13.224734174321,-10.45627757583,
    -43.49469756367));
#879 = CARTESIAN_POINT('',(13.194406644632,-10.61180800088,
    -42.95119128547));
#880 = CARTESIAN_POINT('',(13.150346745814,-10.8015327828,
    -42.10224401495));
#881 = CARTESIAN_POINT('',(13.135482898329,-10.85832641703,
    -41.80403076654));
#882 = CARTESIAN_POINT('',(13.121967280252,-10.90559324106,
    -41.50476139354));
#883 = CARTESIAN_POINT('',(13.110464741362,-10.94336769427,-41.204674879
    ));
#884 = CARTESIAN_POINT('',(13.101487125966,-10.9716816192,
    -40.90397950535));
#885 = CARTESIAN_POINT('',(13.095382767583,-10.99055682373,
    -40.60285936816));
#886 = CARTESIAN_POINT('',(13.092329219213,-11.,-40.3014809851));
#887 = CARTESIAN_POINT('',(13.092329219213,-11.,-40.));
#888 = CYLINDRICAL_SURFACE('',#889,3.25);
#889 = AXIS2_PLACEMENT_3D('',#890,#891,#892);
#890 = CARTESIAN_POINT('',(10.,-10.,-57.));
#891 = DIRECTION('',(-3.330669073875E-16,1.110223024625E-16,1.));
#892 = DIRECTION('',(0.,-1.,1.110223024625E-16));
#893 = ADVANCED_FACE('',(#894),#913,.T.);
#894 = FACE_BOUND('',#895,.F.);
#895 = EDGE_LOOP('',(#896,#897,#905,#912));
#896 = ORIENTED_EDGE('',*,*,#308,.T.);
#897 = ORIENTED_EDGE('',*,*,#898,.T.);
#898 = EDGE_CURVE('',#309,#899,#901,.T.);
#899 = VERTEX_POINT('',#900);
#900 = CARTESIAN_POINT('',(-1.199040866595E-14,-14.,-1.265654248073E-14)
  );
#901 = LINE('',#902,#903);
#902 = CARTESIAN_POINT('',(1.465494392505E-14,-14.,-40.));
#903 = VECTOR('',#904,1.);
#904 = DIRECTION('',(-6.661338147751E-16,2.22044604925E-16,1.));
#905 = ORIENTED_EDGE('',*,*,#906,.F.);
#906 = EDGE_CURVE('',#277,#899,#907,.T.);
#907 = CIRCLE('',#908,3.);
#908 = AXIS2_PLACEMENT_3D('',#909,#910,#911);
#909 = CARTESIAN_POINT('',(3.,-14.,1.609823385706E-14));
#910 = DIRECTION('',(6.661338147751E-16,-2.22044604925E-16,-1.));
#911 = DIRECTION('',(1.,7.395570986447E-32,6.661338147751E-16));
#912 = ORIENTED_EDGE('',*,*,#284,.F.);
#913 = CYLINDRICAL_SURFACE('',#914,3.);
#914 = AXIS2_PLACEMENT_3D('',#915,#916,#917);
#915 = CARTESIAN_POINT('',(3.,-14.,-40.));
#916 = DIRECTION('',(-6.661338147751E-16,2.22044604925E-16,1.));
#917 = DIRECTION('',(-4.440892098501E-16,-1.,2.22044604925E-16));
#918 = ADVANCED_FACE('',(#919),#938,.T.);
#919 = FACE_BOUND('',#920,.T.);
#920 = EDGE_LOOP('',(#921,#922,#930,#937));
#921 = ORIENTED_EDGE('',*,*,#342,.T.);
#922 = ORIENTED_EDGE('',*,*,#923,.T.);
#923 = EDGE_CURVE('',#343,#924,#926,.T.);
#924 = VERTEX_POINT('',#925);
#925 = CARTESIAN_POINT('',(20.,-14.,-3.330669073875E-15));
#926 = LINE('',#927,#928);
#927 = CARTESIAN_POINT('',(20.,-14.,-40.));
#928 = VECTOR('',#929,1.);
#929 = DIRECTION('',(-6.661338147751E-16,2.22044604925E-16,1.));
#930 = ORIENTED_EDGE('',*,*,#931,.F.);
#931 = EDGE_CURVE('',#269,#924,#932,.T.);
#932 = CIRCLE('',#933,3.);
#933 = AXIS2_PLACEMENT_3D('',#934,#935,#936);
#934 = CARTESIAN_POINT('',(17.,-14.,2.475797344914E-14));
#935 = DIRECTION('',(-6.661338147751E-16,2.22044604925E-16,1.));
#936 = DIRECTION('',(1.,7.395570986447E-32,6.661338147751E-16));
#937 = ORIENTED_EDGE('',*,*,#268,.F.);
#938 = CYLINDRICAL_SURFACE('',#939,3.);
#939 = AXIS2_PLACEMENT_3D('',#940,#941,#942);
#940 = CARTESIAN_POINT('',(17.,-14.,-40.));
#941 = DIRECTION('',(-6.661338147751E-16,2.22044604925E-16,1.));
#942 = DIRECTION('',(-4.440892098501E-16,-1.,2.22044604925E-16));
#943 = ADVANCED_FACE('',(#944,#980,#991),#1002,.T.);
#944 = FACE_BOUND('',#945,.T.);
#945 = EDGE_LOOP('',(#946,#947,#948,#956,#963,#964,#973,#979));
#946 = ORIENTED_EDGE('',*,*,#276,.T.);
#947 = ORIENTED_EDGE('',*,*,#931,.T.);
#948 = ORIENTED_EDGE('',*,*,#949,.T.);
#949 = EDGE_CURVE('',#924,#950,#952,.T.);
#950 = VERTEX_POINT('',#951);
#951 = CARTESIAN_POINT('',(20.,14.,-9.658940314239E-15));
#952 = LINE('',#953,#954);
#953 = CARTESIAN_POINT('',(20.,-17.,-3.552713678801E-15));
#954 = VECTOR('',#955,1.);
#955 = DIRECTION('',(-4.440892098501E-16,1.,-1.110223024625E-15));
#956 = ORIENTED_EDGE('',*,*,#957,.F.);
#957 = EDGE_CURVE('',#369,#950,#958,.T.);
#958 = CIRCLE('',#959,3.);
#959 = AXIS2_PLACEMENT_3D('',#960,#961,#962);
#960 = CARTESIAN_POINT('',(17.,14.,5.107025913276E-15));
#961 = DIRECTION('',(6.661338147751E-16,-2.22044604925E-16,-1.));
#962 = DIRECTION('',(-1.,-7.395570986447E-32,-6.661338147751E-16));
#963 = ORIENTED_EDGE('',*,*,#366,.F.);
#964 = ORIENTED_EDGE('',*,*,#965,.T.);
#965 = EDGE_CURVE('',#367,#966,#968,.T.);
#966 = VERTEX_POINT('',#967);
#967 = CARTESIAN_POINT('',(2.13162820728E-14,14.,-1.720845688169E-14));
#968 = CIRCLE('',#969,3.);
#969 = AXIS2_PLACEMENT_3D('',#970,#971,#972);
#970 = CARTESIAN_POINT('',(3.,14.,-1.110223024625E-15));
#971 = DIRECTION('',(-6.661338147751E-16,2.22044604925E-16,1.));
#972 = DIRECTION('',(-1.,-7.395570986447E-32,-6.661338147751E-16));
#973 = ORIENTED_EDGE('',*,*,#974,.F.);
#974 = EDGE_CURVE('',#899,#966,#975,.T.);
#975 = LINE('',#976,#977);
#976 = CARTESIAN_POINT('',(7.549516567451E-15,-17.,1.887379141863E-14));
#977 = VECTOR('',#978,1.);
#978 = DIRECTION('',(-4.440892098501E-16,1.,-1.110223024625E-15));
#979 = ORIENTED_EDGE('',*,*,#906,.F.);
#980 = FACE_BOUND('',#981,.T.);
#981 = EDGE_LOOP('',(#982));
#982 = ORIENTED_EDGE('',*,*,#983,.F.);
#983 = EDGE_CURVE('',#984,#984,#986,.T.);
#984 = VERTEX_POINT('',#985);
#985 = CARTESIAN_POINT('',(10.,-11.6,9.947598300641E-15));
#986 = CIRCLE('',#987,1.6);
#987 = AXIS2_PLACEMENT_3D('',#988,#989,#990);
#988 = CARTESIAN_POINT('',(10.,-10.,1.287858708565E-14));
#989 = DIRECTION('',(-3.330669073875E-16,1.110223024625E-16,1.));
#990 = DIRECTION('',(0.,-1.,1.110223024625E-16));
#991 = FACE_BOUND('',#992,.T.);
#992 = EDGE_LOOP('',(#993));
#993 = ORIENTED_EDGE('',*,*,#994,.F.);
#994 = EDGE_CURVE('',#995,#995,#997,.T.);
#995 = VERTEX_POINT('',#996);
#996 = CARTESIAN_POINT('',(10.,8.4,-3.37507799486E-15));
#997 = CIRCLE('',#998,1.6);
#998 = AXIS2_PLACEMENT_3D('',#999,#1000,#1001);
#999 = CARTESIAN_POINT('',(10.,10.,3.552713678801E-15));
#1000 = DIRECTION('',(-3.330669073875E-16,1.110223024625E-16,1.));
#1001 = DIRECTION('',(0.,-1.,1.110223024625E-16));
#1002 = PLANE('',#1003);
#1003 = AXIS2_PLACEMENT_3D('',#1004,#1005,#1006);
#1004 = CARTESIAN_POINT('',(3.774758283726E-15,-17.,1.50990331349E-14));
#1005 = DIRECTION('',(-6.661338147751E-16,2.22044604925E-16,1.));
#1006 = DIRECTION('',(-2.22044604925E-16,1.,-8.881784197001E-16));
#1007 = ADVANCED_FACE('',(#1008),#1019,.T.);
#1008 = FACE_BOUND('',#1009,.F.);
#1009 = EDGE_LOOP('',(#1010,#1011,#1017,#1018));
#1010 = ORIENTED_EDGE('',*,*,#965,.T.);
#1011 = ORIENTED_EDGE('',*,*,#1012,.T.);
#1012 = EDGE_CURVE('',#966,#299,#1013,.T.);
#1013 = LINE('',#1014,#1015);
#1014 = CARTESIAN_POINT('',(2.13162820728E-14,14.,-1.010302952409E-14));
#1015 = VECTOR('',#1016,1.);
#1016 = DIRECTION('',(6.661338147751E-16,-2.22044604925E-16,-1.));
#1017 = ORIENTED_EDGE('',*,*,#298,.F.);
#1018 = ORIENTED_EDGE('',*,*,#383,.F.);
#1019 = CYLINDRICAL_SURFACE('',#1020,3.);
#1020 = AXIS2_PLACEMENT_3D('',#1021,#1022,#1023);
#1021 = CARTESIAN_POINT('',(3.,14.,-8.104628079764E-15));
#1022 = DIRECTION('',(6.661338147751E-16,-2.22044604925E-16,-1.));
#1023 = DIRECTION('',(4.440892098501E-16,1.,-2.22044604925E-16));
#1024 = ADVANCED_FACE('',(#1025,#1031),#1058,.F.);
#1025 = FACE_BOUND('',#1026,.F.);
#1026 = EDGE_LOOP('',(#1027,#1028,#1029,#1030));
#1027 = ORIENTED_EDGE('',*,*,#974,.F.);
#1028 = ORIENTED_EDGE('',*,*,#898,.F.);
#1029 = ORIENTED_EDGE('',*,*,#317,.F.);
#1030 = ORIENTED_EDGE('',*,*,#1012,.F.);
#1031 = FACE_BOUND('',#1032,.T.);
#1032 = EDGE_LOOP('',(#1033,#1044,#1052));
#1033 = ORIENTED_EDGE('',*,*,#1034,.T.);
#1034 = EDGE_CURVE('',#1035,#1037,#1039,.T.);
#1035 = VERTEX_POINT('',#1036);
#1036 = CARTESIAN_POINT('',(3.284552117468E-14,5.862325810233,
    -49.30769230769));
#1037 = VERTEX_POINT('',#1038);
#1038 = CARTESIAN_POINT('',(3.284552117468E-14,-5.862325810233,
    -49.30769230769));
#1039 = CIRCLE('',#1040,11.);
#1040 = AXIS2_PLACEMENT_3D('',#1041,#1042,#1043);
#1041 = CARTESIAN_POINT('',(4.440892098501E-14,8.881784197001E-15,-40.)
  );
#1042 = DIRECTION('',(1.,4.440892098501E-16,1.110223024625E-15));
#1043 = DIRECTION('',(-4.440892098501E-16,1.,-1.110223024625E-15));
#1044 = ORIENTED_EDGE('',*,*,#1045,.T.);
#1045 = EDGE_CURVE('',#1037,#1046,#1048,.T.);
#1046 = VERTEX_POINT('',#1047);
#1047 = CARTESIAN_POINT('',(3.530509218308E-14,-1.176836406103E-14,-53.)
  );
#1048 = LINE('',#1049,#1050);
#1049 = CARTESIAN_POINT('',(5.734593092808E-14,-5.862325810233,
    -49.30769230769));
#1050 = VECTOR('',#1051,1.);
#1051 = DIRECTION('',(2.159130336295E-16,0.846153846154,-0.532938710021)
  );
#1052 = ORIENTED_EDGE('',*,*,#1053,.T.);
#1053 = EDGE_CURVE('',#1046,#1035,#1054,.T.);
#1054 = LINE('',#1055,#1056);
#1055 = CARTESIAN_POINT('',(5.884182030513E-14,1.176836406103E-14,-53.)
  );
#1056 = VECTOR('',#1057,1.);
#1057 = DIRECTION('',(-9.674486195296E-16,0.846153846154,0.532938710021)
  );
#1058 = PLANE('',#1059);
#1059 = AXIS2_PLACEMENT_3D('',#1060,#1061,#1062);
#1060 = CARTESIAN_POINT('',(3.28197786613E-14,5.896465105471E-15,
    -29.56142858988));
#1061 = DIRECTION('',(1.,-8.881784197001E-16,-2.22044604925E-16));
#1062 = DIRECTION('',(-1.110223024625E-15,-2.22044604925E-16,1.));
#1063 = ADVANCED_FACE('',(#1064),#1075,.T.);
#1064 = FACE_BOUND('',#1065,.T.);
#1065 = EDGE_LOOP('',(#1066,#1067,#1073,#1074));
#1066 = ORIENTED_EDGE('',*,*,#957,.T.);
#1067 = ORIENTED_EDGE('',*,*,#1068,.T.);
#1068 = EDGE_CURVE('',#950,#333,#1069,.T.);
#1069 = LINE('',#1070,#1071);
#1070 = CARTESIAN_POINT('',(20.,14.,-6.106226635438E-15));
#1071 = VECTOR('',#1072,1.);
#1072 = DIRECTION('',(6.661338147751E-16,-2.22044604925E-16,-1.));
#1073 = ORIENTED_EDGE('',*,*,#332,.F.);
#1074 = ORIENTED_EDGE('',*,*,#376,.F.);
#1075 = CYLINDRICAL_SURFACE('',#1076,3.);
#1076 = AXIS2_PLACEMENT_3D('',#1077,#1078,#1079);
#1077 = CARTESIAN_POINT('',(17.,14.,-8.104628079764E-15));
#1078 = DIRECTION('',(6.661338147751E-16,-2.22044604925E-16,-1.));
#1079 = DIRECTION('',(4.440892098501E-16,1.,-2.22044604925E-16));
#1080 = ADVANCED_FACE('',(#1081,#1087),#1114,.T.);
#1081 = FACE_BOUND('',#1082,.T.);
#1082 = EDGE_LOOP('',(#1083,#1084,#1085,#1086));
#1083 = ORIENTED_EDGE('',*,*,#949,.F.);
#1084 = ORIENTED_EDGE('',*,*,#923,.F.);
#1085 = ORIENTED_EDGE('',*,*,#351,.F.);
#1086 = ORIENTED_EDGE('',*,*,#1068,.F.);
#1087 = FACE_BOUND('',#1088,.F.);
#1088 = EDGE_LOOP('',(#1089,#1100,#1108));
#1089 = ORIENTED_EDGE('',*,*,#1090,.T.);
#1090 = EDGE_CURVE('',#1091,#1093,#1095,.T.);
#1091 = VERTEX_POINT('',#1092);
#1092 = CARTESIAN_POINT('',(20.,5.862325810233,-49.30769230769));
#1093 = VERTEX_POINT('',#1094);
#1094 = CARTESIAN_POINT('',(20.,-5.862325810233,-49.30769230769));
#1095 = CIRCLE('',#1096,11.);
#1096 = AXIS2_PLACEMENT_3D('',#1097,#1098,#1099);
#1097 = CARTESIAN_POINT('',(20.,-2.24825357988E-29,-40.));
#1098 = DIRECTION('',(1.,4.440892098501E-16,1.110223024625E-15));
#1099 = DIRECTION('',(-4.440892098501E-16,1.,-1.110223024625E-15));
#1100 = ORIENTED_EDGE('',*,*,#1101,.T.);
#1101 = EDGE_CURVE('',#1093,#1102,#1104,.T.);
#1102 = VERTEX_POINT('',#1103);
#1103 = CARTESIAN_POINT('',(20.,-2.065014825803E-14,-53.));
#1104 = LINE('',#1105,#1106);
#1105 = CARTESIAN_POINT('',(20.,-5.862325810233,-49.30769230769));
#1106 = VECTOR('',#1107,1.);
#1107 = DIRECTION('',(2.159130336295E-16,0.846153846154,-0.532938710021)
  );
#1108 = ORIENTED_EDGE('',*,*,#1109,.T.);
#1109 = EDGE_CURVE('',#1102,#1091,#1110,.T.);
#1110 = LINE('',#1111,#1112);
#1111 = CARTESIAN_POINT('',(20.,2.886579864025E-15,-53.));
#1112 = VECTOR('',#1113,1.);
#1113 = DIRECTION('',(-9.674486195296E-16,0.846153846154,0.532938710021)
  );
#1114 = PLANE('',#1115);
#1115 = AXIS2_PLACEMENT_3D('',#1116,#1117,#1118);
#1116 = CARTESIAN_POINT('',(20.,-2.98531909153E-15,-29.56142858988));
#1117 = DIRECTION('',(1.,-8.881784197001E-16,-2.22044604925E-16));
#1118 = DIRECTION('',(-1.110223024625E-15,-2.22044604925E-16,1.));
#1119 = ADVANCED_FACE('',(#1120,#1136,#1142),#1145,.F.);
#1120 = FACE_BOUND('',#1121,.T.);
#1121 = EDGE_LOOP('',(#1122,#1128,#1129,#1135));
#1122 = ORIENTED_EDGE('',*,*,#1123,.T.);
#1123 = EDGE_CURVE('',#1035,#1091,#1124,.T.);
#1124 = LINE('',#1125,#1126);
#1125 = CARTESIAN_POINT('',(4.249233041443E-14,5.862325810233,
    -49.30769230769));
#1126 = VECTOR('',#1127,1.);
#1127 = DIRECTION('',(1.,-6.661338147751E-16,3.574525976783E-31));
#1128 = ORIENTED_EDGE('',*,*,#1090,.T.);
#1129 = ORIENTED_EDGE('',*,*,#1130,.F.);
#1130 = EDGE_CURVE('',#1037,#1093,#1131,.T.);
#1131 = LINE('',#1132,#1133);
#1132 = CARTESIAN_POINT('',(4.509572605138E-14,-5.862325810233,
    -49.30769230769));
#1133 = VECTOR('',#1134,1.);
#1134 = DIRECTION('',(1.,-6.661338147751E-16,3.574525976783E-31));
#1135 = ORIENTED_EDGE('',*,*,#1034,.F.);
#1136 = FACE_BOUND('',#1137,.T.);
#1137 = EDGE_LOOP('',(#1138,#1139,#1140,#1141));
#1138 = ORIENTED_EDGE('',*,*,#406,.T.);
#1139 = ORIENTED_EDGE('',*,*,#590,.T.);
#1140 = ORIENTED_EDGE('',*,*,#534,.F.);
#1141 = ORIENTED_EDGE('',*,*,#462,.F.);
#1142 = FACE_BOUND('',#1143,.T.);
#1143 = EDGE_LOOP('',(#1144));
#1144 = ORIENTED_EDGE('',*,*,#672,.T.);
#1145 = CYLINDRICAL_SURFACE('',#1146,11.);
#1146 = AXIS2_PLACEMENT_3D('',#1147,#1148,#1149);
#1147 = CARTESIAN_POINT('',(3.552713678801E-14,-1.262177448354E-29,-40.)
  );
#1148 = DIRECTION('',(-1.,4.440892098501E-16,-2.22044604925E-16));
#1149 = DIRECTION('',(-2.22044604925E-16,1.,-8.881784197001E-16));
#1150 = ADVANCED_FACE('',(#1151,#1154),#1165,.T.);
#1151 = FACE_BOUND('',#1152,.T.);
#1152 = EDGE_LOOP('',(#1153));
#1153 = ORIENTED_EDGE('',*,*,#526,.T.);
#1154 = FACE_BOUND('',#1155,.T.);
#1155 = EDGE_LOOP('',(#1156));
#1156 = ORIENTED_EDGE('',*,*,#1157,.F.);
#1157 = EDGE_CURVE('',#1158,#1158,#1160,.T.);
#1158 = VERTEX_POINT('',#1159);
#1159 = CARTESIAN_POINT('',(10.,8.4,-3.));
#1160 = CIRCLE('',#1161,1.6);
#1161 = AXIS2_PLACEMENT_3D('',#1162,#1163,#1164);
#1162 = CARTESIAN_POINT('',(10.,10.,-3.));
#1163 = DIRECTION('',(3.330669073875E-16,-1.110223024625E-16,-1.));
#1164 = DIRECTION('',(0.,-1.,1.110223024625E-16));
#1165 = PLANE('',#1166);
#1166 = AXIS2_PLACEMENT_3D('',#1167,#1168,#1169);
#1167 = CARTESIAN_POINT('',(10.,10.,-3.));
#1168 = DIRECTION('',(3.330669073875E-16,-1.110223024625E-16,-1.));
#1169 = DIRECTION('',(0.,-1.,1.110223024625E-16));
#1170 = ADVANCED_FACE('',(#1171,#1174),#1185,.T.);
#1171 = FACE_BOUND('',#1172,.T.);
#1172 = EDGE_LOOP('',(#1173));
#1173 = ORIENTED_EDGE('',*,*,#662,.T.);
#1174 = FACE_BOUND('',#1175,.T.);
#1175 = EDGE_LOOP('',(#1176));
#1176 = ORIENTED_EDGE('',*,*,#1177,.F.);
#1177 = EDGE_CURVE('',#1178,#1178,#1180,.T.);
#1178 = VERTEX_POINT('',#1179);
#1179 = CARTESIAN_POINT('',(10.,-11.6,-3.));
#1180 = CIRCLE('',#1181,1.6);
#1181 = AXIS2_PLACEMENT_3D('',#1182,#1183,#1184);
#1182 = CARTESIAN_POINT('',(10.,-10.,-3.));
#1183 = DIRECTION('',(3.330669073875E-16,-1.110223024625E-16,-1.));
#1184 = DIRECTION('',(0.,-1.,1.110223024625E-16));
#1185 = PLANE('',#1186);
#1186 = AXIS2_PLACEMENT_3D('',#1187,#1188,#1189);
#1187 = CARTESIAN_POINT('',(10.,-10.,-3.));
#1188 = DIRECTION('',(3.330669073875E-16,-1.110223024625E-16,-1.));
#1189 = DIRECTION('',(0.,-1.,1.110223024625E-16));
#1190 = ADVANCED_FACE('',(#1191),#1202,.F.);
#1191 = FACE_BOUND('',#1192,.T.);
#1192 = EDGE_LOOP('',(#1193,#1199,#1200,#1201));
#1193 = ORIENTED_EDGE('',*,*,#1194,.F.);
#1194 = EDGE_CURVE('',#1178,#984,#1195,.T.);
#1195 = LINE('',#1196,#1197);
#1196 = CARTESIAN_POINT('',(10.,-11.6,-3.));
#1197 = VECTOR('',#1198,1.);
#1198 = DIRECTION('',(-3.330669073875E-16,1.729719756701E-16,1.));
#1199 = ORIENTED_EDGE('',*,*,#1177,.T.);
#1200 = ORIENTED_EDGE('',*,*,#1194,.T.);
#1201 = ORIENTED_EDGE('',*,*,#983,.T.);
#1202 = CYLINDRICAL_SURFACE('',#1203,1.6);
#1203 = AXIS2_PLACEMENT_3D('',#1204,#1205,#1206);
#1204 = CARTESIAN_POINT('',(10.,-10.,-3.));
#1205 = DIRECTION('',(-3.330669073875E-16,1.110223024625E-16,1.));
#1206 = DIRECTION('',(0.,-1.,1.110223024625E-16));
#1207 = ADVANCED_FACE('',(#1208),#1219,.F.);
#1208 = FACE_BOUND('',#1209,.T.);
#1209 = EDGE_LOOP('',(#1210,#1216,#1217,#1218));
#1210 = ORIENTED_EDGE('',*,*,#1211,.F.);
#1211 = EDGE_CURVE('',#1158,#995,#1212,.T.);
#1212 = LINE('',#1213,#1214);
#1213 = CARTESIAN_POINT('',(10.,8.4,-3.));
#1214 = VECTOR('',#1215,1.);
#1215 = DIRECTION('',(-3.330669073875E-16,1.729719756701E-16,1.));
#1216 = ORIENTED_EDGE('',*,*,#1157,.T.);
#1217 = ORIENTED_EDGE('',*,*,#1211,.T.);
#1218 = ORIENTED_EDGE('',*,*,#994,.T.);
#1219 = CYLINDRICAL_SURFACE('',#1220,1.6);
#1220 = AXIS2_PLACEMENT_3D('',#1221,#1222,#1223);
#1221 = CARTESIAN_POINT('',(10.,10.,-3.));
#1222 = DIRECTION('',(-3.330669073875E-16,1.110223024625E-16,1.));
#1223 = DIRECTION('',(0.,-1.,1.110223024625E-16));
#1224 = ADVANCED_FACE('',(#1225),#1236,.T.);
#1225 = FACE_BOUND('',#1226,.T.);
#1226 = EDGE_LOOP('',(#1227,#1228,#1229,#1235));
#1227 = ORIENTED_EDGE('',*,*,#1130,.T.);
#1228 = ORIENTED_EDGE('',*,*,#1101,.T.);
#1229 = ORIENTED_EDGE('',*,*,#1230,.F.);
#1230 = EDGE_CURVE('',#1046,#1102,#1231,.T.);
#1231 = LINE('',#1232,#1233);
#1232 = CARTESIAN_POINT('',(4.707345624411E-14,-1.577721810442E-29,-53.)
  );
#1233 = VECTOR('',#1234,1.);
#1234 = DIRECTION('',(1.,-6.661338147751E-16,3.574525976783E-31));
#1235 = ORIENTED_EDGE('',*,*,#1045,.F.);
#1236 = PLANE('',#1237);
#1237 = AXIS2_PLACEMENT_3D('',#1238,#1239,#1240);
#1238 = CARTESIAN_POINT('',(4.509572605138E-14,-5.862325810233,
    -49.30769230769));
#1239 = DIRECTION('',(-5.636516894251E-16,0.532938710021,0.846153846154)
  );
#1240 = DIRECTION('',(2.854607647886E-16,0.846153846154,-0.532938710021)
  );
#1241 = ADVANCED_FACE('',(#1242),#1248,.T.);
#1242 = FACE_BOUND('',#1243,.T.);
#1243 = EDGE_LOOP('',(#1244,#1245,#1246,#1247));
#1244 = ORIENTED_EDGE('',*,*,#1230,.T.);
#1245 = ORIENTED_EDGE('',*,*,#1109,.T.);
#1246 = ORIENTED_EDGE('',*,*,#1123,.F.);
#1247 = ORIENTED_EDGE('',*,*,#1053,.F.);
#1248 = PLANE('',#1249);
#1249 = AXIS2_PLACEMENT_3D('',#1250,#1251,#1252);
#1250 = CARTESIAN_POINT('',(4.707345624411E-14,-1.577721810442E-29,-53.)
  );
#1251 = DIRECTION('',(-5.636516894251E-16,-0.532938710021,0.846153846154
    ));
#1252 = DIRECTION('',(-6.612285577387E-16,0.846153846154,0.532938710021)
  );
#1253 = ( GEOMETRIC_REPRESENTATION_CONTEXT(3) 
GLOBAL_UNCERTAINTY_ASSIGNED_CONTEXT((#1257)) 
GLOBAL_UNIT_ASSIGNED_CONTEXT((#1254,#1255,#1256)) REPRESENTATION_CONTEXT
('Context #1','3D Context with UNIT and UNCERTAINTY') );
#1254 = ( LENGTH_UNIT() NAMED_UNIT(*) SI_UNIT(.MILLI.,.METRE.) );
#1255 = ( NAMED_UNIT(*) PLANE_ANGLE_UNIT() SI_UNIT($,.RADIAN.) );
#1256 = ( NAMED_UNIT(*) SI_UNIT($,.STERADIAN.) SOLID_ANGLE_UNIT() );
#1257 = UNCERTAINTY_MEASURE_WITH_UNIT(LENGTH_MEASURE(1.E-07),#1254,
  'distance_accuracy_value','confusion accuracy');
#1258 = PRODUCT_RELATED_PRODUCT_CATEGORY('part',$,(#7));
#1259 = MECHANICAL_DESIGN_GEOMETRIC_PRESENTATION_REPRESENTATION('',(
    #1260),#1253);
#1260 = STYLED_ITEM('color',(#1261),#15);
#1261 = PRESENTATION_STYLE_ASSIGNMENT((#1262,#1268));
#1262 = SURFACE_STYLE_USAGE(.BOTH.,#1263);
#1263 = SURFACE_SIDE_STYLE('',(#1264));
#1264 = SURFACE_STYLE_FILL_AREA(#1265);
#1265 = FILL_AREA_STYLE('',(#1266));
#1266 = FILL_AREA_STYLE_COLOUR('',#1267);
#1267 = COLOUR_RGB('',0.447059003357,0.474510015008,0.501960993452);
#1268 = CURVE_STYLE('',#1269,POSITIVE_LENGTH_MEASURE(0.1),#1270);
#1269 = DRAUGHTING_PRE_DEFINED_CURVE_FONT('continuous');
#1270 = COLOUR_RGB('',9.803921802644E-02,9.803921802644E-02,
  9.803921802644E-02);
ENDSEC;
END-ISO-10303-21;
