ISO-10303-21;
HEADER;
FILE_DESCRIPTION(('FreeCAD Model'),'2;1');
FILE_NAME('Open CASCADE Shape Model','2025-12-07T18:58:23',(''),(''),
  'Open CASCADE STEP processor 7.9','FreeCAD','Unknown');
FILE_SCHEMA(('AUTOMOTIVE_DESIGN { 1 0 10303 214 1 1 1 1 }'));
ENDSEC;
DATA;
#1 = APPLICATION_PROTOCOL_DEFINITION('international standard',
  'automotive_design',2000,#2);
#2 = APPLICATION_CONTEXT(
  'core data for automotive mechanical design processes');
#3 = SHAPE_DEFINITION_REPRESENTATION(#4,#10);
#4 = PRODUCT_DEFINITION_SHAPE('','',#5);
#5 = PRODUCT_DEFINITION('design','',#6,#9);
#6 = PRODUCT_DEFINITION_FORMATION('','',#7);
#7 = PRODUCT('ZTensionerShell','ZTensionerShell','',(#8));
#8 = PRODUCT_CONTEXT('',#2,'mechanical');
#9 = PRODUCT_DEFINITION_CONTEXT('part definition',#2,'design');
#10 = ADVANCED_BREP_SHAPE_REPRESENTATION('',(#11,#15),#790);
#11 = AXIS2_PLACEMENT_3D('',#12,#13,#14);
#12 = CARTESIAN_POINT('',(0.,0.,0.));
#13 = DIRECTION('',(0.,0.,1.));
#14 = DIRECTION('',(1.,0.,-0.));
#15 = MANIFOLD_SOLID_BREP('',#16);
#16 = CLOSED_SHELL('',(#17,#68,#149,#174,#199,#264,#289,#339,#392,#431,
    #451,#494,#528,#545,#562,#579,#630,#642,#654,#679,#704,#716,#741,
    #766,#778));
#17 = ADVANCED_FACE('',(#18,#52),#63,.F.);
#18 = FACE_BOUND('',#19,.F.);
#19 = EDGE_LOOP('',(#20,#30,#38,#46));
#20 = ORIENTED_EDGE('',*,*,#21,.F.);
#21 = EDGE_CURVE('',#22,#24,#26,.T.);
#22 = VERTEX_POINT('',#23);
#23 = CARTESIAN_POINT('',(-2.4E-14,9.5,17.5));
#24 = VERTEX_POINT('',#25);
#25 = CARTESIAN_POINT('',(-3.9E-14,-9.5,17.5));
#26 = LINE('',#27,#28);
#27 = CARTESIAN_POINT('',(-3.858E-14,12.5,17.5));
#28 = VECTOR('',#29,1.);
#29 = DIRECTION('',(1.22E-15,-1.,1.E-15));
#30 = ORIENTED_EDGE('',*,*,#31,.T.);
#31 = EDGE_CURVE('',#22,#32,#34,.T.);
#32 = VERTEX_POINT('',#33);
#33 = CARTESIAN_POINT('',(16.,9.5,17.5));
#34 = LINE('',#35,#36);
#35 = CARTESIAN_POINT('',(-2.47E-14,9.5,17.5));
#36 = VECTOR('',#37,1.);
#37 = DIRECTION('',(1.,-8.9E-16,4.4E-16));
#38 = ORIENTED_EDGE('',*,*,#39,.T.);
#39 = EDGE_CURVE('',#32,#40,#42,.T.);
#40 = VERTEX_POINT('',#41);
#41 = CARTESIAN_POINT('',(16.,-9.5,17.5));
#42 = LINE('',#43,#44);
#43 = CARTESIAN_POINT('',(16.,12.5,17.5));
#44 = VECTOR('',#45,1.);
#45 = DIRECTION('',(1.22E-15,-1.,1.E-15));
#46 = ORIENTED_EDGE('',*,*,#47,.F.);
#47 = EDGE_CURVE('',#24,#40,#48,.T.);
#48 = LINE('',#49,#50);
#49 = CARTESIAN_POINT('',(-2.119E-14,-9.5,17.5));
#50 = VECTOR('',#51,1.);
#51 = DIRECTION('',(1.,-8.9E-16,4.4E-16));
#52 = FACE_BOUND('',#53,.F.);
#53 = EDGE_LOOP('',(#54));
#54 = ORIENTED_EDGE('',*,*,#55,.T.);
#55 = EDGE_CURVE('',#56,#56,#58,.T.);
#56 = VERTEX_POINT('',#57);
#57 = CARTESIAN_POINT('',(9.,-1.7,17.5));
#58 = CIRCLE('',#59,1.7);
#59 = AXIS2_PLACEMENT_3D('',#60,#61,#62);
#60 = CARTESIAN_POINT('',(9.,-1.06581410364E-14,17.5));
#61 = DIRECTION('',(0.,5.6E-16,1.));
#62 = DIRECTION('',(7.8E-16,-1.,5.6E-16));
#63 = PLANE('',#64);
#64 = AXIS2_PLACEMENT_3D('',#65,#66,#67);
#65 = CARTESIAN_POINT('',(-3.58E-14,12.5,17.5));
#66 = DIRECTION('',(1.11E-15,3.3E-16,-1.));
#67 = DIRECTION('',(1.E-15,-1.,-3.3E-16));
#68 = ADVANCED_FACE('',(#69),#144,.F.);
#69 = FACE_BOUND('',#70,.F.);
#70 = EDGE_LOOP('',(#71,#81,#89,#97,#105,#113,#121,#129,#136,#137));
#71 = ORIENTED_EDGE('',*,*,#72,.T.);
#72 = EDGE_CURVE('',#73,#75,#77,.T.);
#73 = VERTEX_POINT('',#74);
#74 = CARTESIAN_POINT('',(-1.5E-14,-12.5,14.5));
#75 = VERTEX_POINT('',#76);
#76 = CARTESIAN_POINT('',(-9.E-15,-12.5,5.));
#77 = LINE('',#78,#79);
#78 = CARTESIAN_POINT('',(-8.05E-15,-12.5,17.5));
#79 = VECTOR('',#80,1.);
#80 = DIRECTION('',(1.33E-15,7.8E-16,-1.));
#81 = ORIENTED_EDGE('',*,*,#82,.T.);
#82 = EDGE_CURVE('',#75,#83,#85,.T.);
#83 = VERTEX_POINT('',#84);
#84 = CARTESIAN_POINT('',(-8.E-15,-8.5,5.));
#85 = LINE('',#86,#87);
#86 = CARTESIAN_POINT('',(5.6E-16,-12.5,5.));
#87 = VECTOR('',#88,1.);
#88 = DIRECTION('',(-6.7E-16,1.,-7.8E-16));
#89 = ORIENTED_EDGE('',*,*,#90,.T.);
#90 = EDGE_CURVE('',#83,#91,#93,.T.);
#91 = VERTEX_POINT('',#92);
#92 = CARTESIAN_POINT('',(-2.E-14,-8.5,14.5));
#93 = LINE('',#94,#95);
#94 = CARTESIAN_POINT('',(2.104E-14,-8.5,-8.));
#95 = VECTOR('',#96,1.);
#96 = DIRECTION('',(-1.33E-15,-7.8E-16,1.));
#97 = ORIENTED_EDGE('',*,*,#98,.T.);
#98 = EDGE_CURVE('',#91,#99,#101,.T.);
#99 = VERTEX_POINT('',#100);
#100 = CARTESIAN_POINT('',(-1.8E-14,8.5,14.5));
#101 = LINE('',#102,#103);
#102 = CARTESIAN_POINT('',(-8.94E-15,-8.5,14.5));
#103 = VECTOR('',#104,1.);
#104 = DIRECTION('',(-1.22E-15,1.,-1.E-15));
#105 = ORIENTED_EDGE('',*,*,#106,.F.);
#106 = EDGE_CURVE('',#107,#99,#109,.T.);
#107 = VERTEX_POINT('',#108);
#108 = CARTESIAN_POINT('',(-6.E-15,8.5,5.));
#109 = LINE('',#110,#111);
#110 = CARTESIAN_POINT('',(2.8E-16,8.5,-8.));
#111 = VECTOR('',#112,1.);
#112 = DIRECTION('',(-1.33E-15,-7.8E-16,1.));
#113 = ORIENTED_EDGE('',*,*,#114,.T.);
#114 = EDGE_CURVE('',#107,#115,#117,.T.);
#115 = VERTEX_POINT('',#116);
#116 = CARTESIAN_POINT('',(-6.E-15,12.5,5.));
#117 = LINE('',#118,#119);
#118 = CARTESIAN_POINT('',(5.6E-16,-12.5,5.));
#119 = VECTOR('',#120,1.);
#120 = DIRECTION('',(-6.7E-16,1.,-7.8E-16));
#121 = ORIENTED_EDGE('',*,*,#122,.T.);
#122 = EDGE_CURVE('',#115,#123,#125,.T.);
#123 = VERTEX_POINT('',#124);
#124 = CARTESIAN_POINT('',(-1.2E-14,12.5,14.5));
#125 = LINE('',#126,#127);
#126 = CARTESIAN_POINT('',(-4.61E-15,12.5,-8.));
#127 = VECTOR('',#128,1.);
#128 = DIRECTION('',(-1.33E-15,-7.8E-16,1.));
#129 = ORIENTED_EDGE('',*,*,#130,.F.);
#130 = EDGE_CURVE('',#22,#123,#131,.T.);
#131 = CIRCLE('',#132,3.);
#132 = AXIS2_PLACEMENT_3D('',#133,#134,#135);
#133 = CARTESIAN_POINT('',(-4.14E-15,9.5,14.5));
#134 = DIRECTION('',(-1.,8.9E-16,-4.4E-16));
#135 = DIRECTION('',(-8.9E-16,-1.,1.1E-16));
#136 = ORIENTED_EDGE('',*,*,#21,.T.);
#137 = ORIENTED_EDGE('',*,*,#138,.T.);
#138 = EDGE_CURVE('',#24,#73,#139,.T.);
#139 = CIRCLE('',#140,3.);
#140 = AXIS2_PLACEMENT_3D('',#141,#142,#143);
#141 = CARTESIAN_POINT('',(-2.101E-14,-9.5,14.5));
#142 = DIRECTION('',(1.,-8.9E-16,4.4E-16));
#143 = DIRECTION('',(-8.9E-16,-1.,1.1E-16));
#144 = PLANE('',#145);
#145 = AXIS2_PLACEMENT_3D('',#146,#147,#148);
#146 = CARTESIAN_POINT('',(-9.2E-15,-5.37E-15,6.907534246575));
#147 = DIRECTION('',(1.,-5.6E-16,-4.4E-16));
#148 = DIRECTION('',(4.4E-16,-7.8E-16,1.));
#149 = ADVANCED_FACE('',(#150),#169,.T.);
#150 = FACE_BOUND('',#151,.F.);
#151 = EDGE_LOOP('',(#152,#153,#161,#168));
#152 = ORIENTED_EDGE('',*,*,#130,.T.);
#153 = ORIENTED_EDGE('',*,*,#154,.T.);
#154 = EDGE_CURVE('',#123,#155,#157,.T.);
#155 = VERTEX_POINT('',#156);
#156 = CARTESIAN_POINT('',(16.,12.5,14.5));
#157 = LINE('',#158,#159);
#158 = CARTESIAN_POINT('',(-2.071E-14,12.5,14.5));
#159 = VECTOR('',#160,1.);
#160 = DIRECTION('',(1.,-8.9E-16,4.4E-16));
#161 = ORIENTED_EDGE('',*,*,#162,.F.);
#162 = EDGE_CURVE('',#32,#155,#163,.T.);
#163 = CIRCLE('',#164,3.);
#164 = AXIS2_PLACEMENT_3D('',#165,#166,#167);
#165 = CARTESIAN_POINT('',(16.,9.5,14.5));
#166 = DIRECTION('',(-1.,8.9E-16,-4.4E-16));
#167 = DIRECTION('',(-8.9E-16,-1.,1.1E-16));
#168 = ORIENTED_EDGE('',*,*,#31,.F.);
#169 = CYLINDRICAL_SURFACE('',#170,3.);
#170 = AXIS2_PLACEMENT_3D('',#171,#172,#173);
#171 = CARTESIAN_POINT('',(-2.337E-14,9.5,14.5));
#172 = DIRECTION('',(1.,-8.9E-16,4.4E-16));
#173 = DIRECTION('',(-4.4E-16,1.33E-15,1.));
#174 = ADVANCED_FACE('',(#175),#194,.T.);
#175 = FACE_BOUND('',#176,.T.);
#176 = EDGE_LOOP('',(#177,#178,#186,#193));
#177 = ORIENTED_EDGE('',*,*,#138,.T.);
#178 = ORIENTED_EDGE('',*,*,#179,.T.);
#179 = EDGE_CURVE('',#73,#180,#182,.T.);
#180 = VERTEX_POINT('',#181);
#181 = CARTESIAN_POINT('',(16.,-12.5,14.5));
#182 = LINE('',#183,#184);
#183 = CARTESIAN_POINT('',(-2.253E-14,-12.5,14.5));
#184 = VECTOR('',#185,1.);
#185 = DIRECTION('',(1.,-8.9E-16,4.4E-16));
#186 = ORIENTED_EDGE('',*,*,#187,.F.);
#187 = EDGE_CURVE('',#40,#180,#188,.T.);
#188 = CIRCLE('',#189,3.);
#189 = AXIS2_PLACEMENT_3D('',#190,#191,#192);
#190 = CARTESIAN_POINT('',(16.,-9.5,14.5));
#191 = DIRECTION('',(1.,-8.9E-16,4.4E-16));
#192 = DIRECTION('',(-8.9E-16,-1.,1.1E-16));
#193 = ORIENTED_EDGE('',*,*,#47,.F.);
#194 = CYLINDRICAL_SURFACE('',#195,3.);
#195 = AXIS2_PLACEMENT_3D('',#196,#197,#198);
#196 = CARTESIAN_POINT('',(-1.986E-14,-9.5,14.5));
#197 = DIRECTION('',(1.,-8.9E-16,4.4E-16));
#198 = DIRECTION('',(-4.4E-16,1.33E-15,1.));
#199 = ADVANCED_FACE('',(#200),#259,.T.);
#200 = FACE_BOUND('',#201,.T.);
#201 = EDGE_LOOP('',(#202,#210,#211,#212,#213,#221,#229,#237,#245,#253)
  );
#202 = ORIENTED_EDGE('',*,*,#203,.T.);
#203 = EDGE_CURVE('',#204,#155,#206,.T.);
#204 = VERTEX_POINT('',#205);
#205 = CARTESIAN_POINT('',(16.,12.5,-5.));
#206 = LINE('',#207,#208);
#207 = CARTESIAN_POINT('',(16.,12.5,-8.));
#208 = VECTOR('',#209,1.);
#209 = DIRECTION('',(-1.33E-15,-7.8E-16,1.));
#210 = ORIENTED_EDGE('',*,*,#162,.F.);
#211 = ORIENTED_EDGE('',*,*,#39,.T.);
#212 = ORIENTED_EDGE('',*,*,#187,.T.);
#213 = ORIENTED_EDGE('',*,*,#214,.T.);
#214 = EDGE_CURVE('',#180,#215,#217,.T.);
#215 = VERTEX_POINT('',#216);
#216 = CARTESIAN_POINT('',(16.,-12.5,-5.));
#217 = LINE('',#218,#219);
#218 = CARTESIAN_POINT('',(16.,-12.5,17.5));
#219 = VECTOR('',#220,1.);
#220 = DIRECTION('',(1.33E-15,7.8E-16,-1.));
#221 = ORIENTED_EDGE('',*,*,#222,.T.);
#222 = EDGE_CURVE('',#215,#223,#225,.T.);
#223 = VERTEX_POINT('',#224);
#224 = CARTESIAN_POINT('',(16.,-8.5,-5.));
#225 = LINE('',#226,#227);
#226 = CARTESIAN_POINT('',(16.,-12.5,-5.));
#227 = VECTOR('',#228,1.);
#228 = DIRECTION('',(0.,1.,-1.33E-15));
#229 = ORIENTED_EDGE('',*,*,#230,.T.);
#230 = EDGE_CURVE('',#223,#231,#233,.T.);
#231 = VERTEX_POINT('',#232);
#232 = CARTESIAN_POINT('',(16.,-8.5,14.5));
#233 = LINE('',#234,#235);
#234 = CARTESIAN_POINT('',(16.,-8.5,-8.));
#235 = VECTOR('',#236,1.);
#236 = DIRECTION('',(-1.33E-15,-7.8E-16,1.));
#237 = ORIENTED_EDGE('',*,*,#238,.T.);
#238 = EDGE_CURVE('',#231,#239,#241,.T.);
#239 = VERTEX_POINT('',#240);
#240 = CARTESIAN_POINT('',(16.,8.5,14.5));
#241 = LINE('',#242,#243);
#242 = CARTESIAN_POINT('',(16.,-8.5,14.5));
#243 = VECTOR('',#244,1.);
#244 = DIRECTION('',(-1.22E-15,1.,-1.E-15));
#245 = ORIENTED_EDGE('',*,*,#246,.F.);
#246 = EDGE_CURVE('',#247,#239,#249,.T.);
#247 = VERTEX_POINT('',#248);
#248 = CARTESIAN_POINT('',(16.,8.5,-5.));
#249 = LINE('',#250,#251);
#250 = CARTESIAN_POINT('',(16.,8.5,-8.));
#251 = VECTOR('',#252,1.);
#252 = DIRECTION('',(-1.33E-15,-7.8E-16,1.));
#253 = ORIENTED_EDGE('',*,*,#254,.F.);
#254 = EDGE_CURVE('',#204,#247,#255,.T.);
#255 = LINE('',#256,#257);
#256 = CARTESIAN_POINT('',(16.,12.5,-5.));
#257 = VECTOR('',#258,1.);
#258 = DIRECTION('',(-0.,-1.,1.33E-15));
#259 = PLANE('',#260);
#260 = AXIS2_PLACEMENT_3D('',#261,#262,#263);
#261 = CARTESIAN_POINT('',(16.,-4.E-17,6.907534246575));
#262 = DIRECTION('',(1.,-5.6E-16,-4.4E-16));
#263 = DIRECTION('',(4.4E-16,-7.8E-16,1.));
#264 = ADVANCED_FACE('',(#265),#284,.F.);
#265 = FACE_BOUND('',#266,.F.);
#266 = EDGE_LOOP('',(#267,#268,#276,#283));
#267 = ORIENTED_EDGE('',*,*,#55,.F.);
#268 = ORIENTED_EDGE('',*,*,#269,.T.);
#269 = EDGE_CURVE('',#56,#270,#272,.T.);
#270 = VERTEX_POINT('',#271);
#271 = CARTESIAN_POINT('',(9.,-1.7,14.5));
#272 = LINE('',#273,#274);
#273 = CARTESIAN_POINT('',(9.,-1.7,17.5));
#274 = VECTOR('',#275,1.);
#275 = DIRECTION('',(6.7E-16,1.1E-16,-1.));
#276 = ORIENTED_EDGE('',*,*,#277,.T.);
#277 = EDGE_CURVE('',#270,#270,#278,.T.);
#278 = CIRCLE('',#279,1.7);
#279 = AXIS2_PLACEMENT_3D('',#280,#281,#282);
#280 = CARTESIAN_POINT('',(9.,4.5E-15,14.5));
#281 = DIRECTION('',(0.,5.6E-16,1.));
#282 = DIRECTION('',(5.6E-16,-1.,5.6E-16));
#283 = ORIENTED_EDGE('',*,*,#269,.F.);
#284 = CYLINDRICAL_SURFACE('',#285,1.7);
#285 = AXIS2_PLACEMENT_3D('',#286,#287,#288);
#286 = CARTESIAN_POINT('',(9.,4.83E-15,17.5));
#287 = DIRECTION('',(-4.4E-16,1.1E-16,1.));
#288 = DIRECTION('',(5.6E-16,-1.,1.1E-16));
#289 = ADVANCED_FACE('',(#290),#334,.T.);
#290 = FACE_BOUND('',#291,.T.);
#291 = EDGE_LOOP('',(#292,#293,#301,#309,#317,#325,#332,#333));
#292 = ORIENTED_EDGE('',*,*,#72,.T.);
#293 = ORIENTED_EDGE('',*,*,#294,.T.);
#294 = EDGE_CURVE('',#75,#295,#297,.T.);
#295 = VERTEX_POINT('',#296);
#296 = CARTESIAN_POINT('',(-20.,-12.5,5.));
#297 = LINE('',#298,#299);
#298 = CARTESIAN_POINT('',(2.13162820728E-14,-12.5,5.));
#299 = VECTOR('',#300,1.);
#300 = DIRECTION('',(-1.,4.4E-16,3.3E-16));
#301 = ORIENTED_EDGE('',*,*,#302,.T.);
#302 = EDGE_CURVE('',#295,#303,#305,.T.);
#303 = VERTEX_POINT('',#304);
#304 = CARTESIAN_POINT('',(-20.,-12.5,9.E-15));
#305 = LINE('',#306,#307);
#306 = CARTESIAN_POINT('',(-20.,-12.5,5.));
#307 = VECTOR('',#308,1.);
#308 = DIRECTION('',(1.E-15,5.6E-16,-1.));
#309 = ORIENTED_EDGE('',*,*,#310,.T.);
#310 = EDGE_CURVE('',#303,#311,#313,.T.);
#311 = VERTEX_POINT('',#312);
#312 = CARTESIAN_POINT('',(7.E-15,-12.5,-8.));
#313 = LINE('',#314,#315);
#314 = CARTESIAN_POINT('',(-20.,-12.5,9.21E-15));
#315 = VECTOR('',#316,1.);
#316 = DIRECTION('',(0.928476690885,-2.1E-16,-0.371390676354));
#317 = ORIENTED_EDGE('',*,*,#318,.T.);
#318 = EDGE_CURVE('',#311,#319,#321,.T.);
#319 = VERTEX_POINT('',#320);
#320 = CARTESIAN_POINT('',(13.,-12.5,-8.));
#321 = LINE('',#322,#323);
#322 = CARTESIAN_POINT('',(2.315E-14,-12.5,-8.));
#323 = VECTOR('',#324,1.);
#324 = DIRECTION('',(1.,-5.6E-16,-2.2E-16));
#325 = ORIENTED_EDGE('',*,*,#326,.F.);
#326 = EDGE_CURVE('',#215,#319,#327,.T.);
#327 = CIRCLE('',#328,3.);
#328 = AXIS2_PLACEMENT_3D('',#329,#330,#331);
#329 = CARTESIAN_POINT('',(13.,-12.5,-5.));
#330 = DIRECTION('',(0.,1.,-1.33E-15));
#331 = DIRECTION('',(-1.1E-16,1.33E-15,1.));
#332 = ORIENTED_EDGE('',*,*,#214,.F.);
#333 = ORIENTED_EDGE('',*,*,#179,.F.);
#334 = PLANE('',#335);
#335 = AXIS2_PLACEMENT_3D('',#336,#337,#338);
#336 = CARTESIAN_POINT('',(1.275034899393,-12.5,3.77625599511));
#337 = DIRECTION('',(3.8E-16,-1.,5.6E-16));
#338 = DIRECTION('',(-1.,-3.8E-16,1.1E-16));
#339 = ADVANCED_FACE('',(#340,#365,#376),#387,.T.);
#340 = FACE_BOUND('',#341,.T.);
#341 = EDGE_LOOP('',(#342,#343,#349,#350,#358,#364));
#342 = ORIENTED_EDGE('',*,*,#82,.T.);
#343 = ORIENTED_EDGE('',*,*,#344,.T.);
#344 = EDGE_CURVE('',#83,#107,#345,.T.);
#345 = LINE('',#346,#347);
#346 = CARTESIAN_POINT('',(5.6E-16,-12.5,5.));
#347 = VECTOR('',#348,1.);
#348 = DIRECTION('',(-6.7E-16,1.,-7.8E-16));
#349 = ORIENTED_EDGE('',*,*,#114,.T.);
#350 = ORIENTED_EDGE('',*,*,#351,.T.);
#351 = EDGE_CURVE('',#115,#352,#354,.T.);
#352 = VERTEX_POINT('',#353);
#353 = CARTESIAN_POINT('',(-20.,12.5,5.));
#354 = LINE('',#355,#356);
#355 = CARTESIAN_POINT('',(-3.01980662698E-14,12.5,5.));
#356 = VECTOR('',#357,1.);
#357 = DIRECTION('',(-1.,4.4E-16,3.3E-16));
#358 = ORIENTED_EDGE('',*,*,#359,.F.);
#359 = EDGE_CURVE('',#295,#352,#360,.T.);
#360 = LINE('',#361,#362);
#361 = CARTESIAN_POINT('',(-20.,-12.5,5.));
#362 = VECTOR('',#363,1.);
#363 = DIRECTION('',(-6.7E-16,1.,-7.8E-16));
#364 = ORIENTED_EDGE('',*,*,#294,.F.);
#365 = FACE_BOUND('',#366,.T.);
#366 = EDGE_LOOP('',(#367));
#367 = ORIENTED_EDGE('',*,*,#368,.F.);
#368 = EDGE_CURVE('',#369,#369,#371,.T.);
#369 = VERTEX_POINT('',#370);
#370 = CARTESIAN_POINT('',(-10.,5.9,5.));
#371 = CIRCLE('',#372,1.6);
#372 = AXIS2_PLACEMENT_3D('',#373,#374,#375);
#373 = CARTESIAN_POINT('',(-10.,7.5,5.));
#374 = DIRECTION('',(-3.3E-16,1.1E-16,1.));
#375 = DIRECTION('',(0.,-1.,1.1E-16));
#376 = FACE_BOUND('',#377,.T.);
#377 = EDGE_LOOP('',(#378));
#378 = ORIENTED_EDGE('',*,*,#379,.F.);
#379 = EDGE_CURVE('',#380,#380,#382,.T.);
#380 = VERTEX_POINT('',#381);
#381 = CARTESIAN_POINT('',(-10.,-9.1,5.));
#382 = CIRCLE('',#383,1.6);
#383 = AXIS2_PLACEMENT_3D('',#384,#385,#386);
#384 = CARTESIAN_POINT('',(-10.,-7.5,5.));
#385 = DIRECTION('',(-3.3E-16,1.1E-16,1.));
#386 = DIRECTION('',(0.,-1.,1.1E-16));
#387 = PLANE('',#388);
#388 = AXIS2_PLACEMENT_3D('',#389,#390,#391);
#389 = CARTESIAN_POINT('',(5.6E-16,-12.5,5.));
#390 = DIRECTION('',(-7.8E-16,-1.1E-16,1.));
#391 = DIRECTION('',(-1.,4.4E-16,-7.8E-16));
#392 = ADVANCED_FACE('',(#393),#426,.F.);
#393 = FACE_BOUND('',#394,.F.);
#394 = EDGE_LOOP('',(#395,#405,#412,#413,#419,#420));
#395 = ORIENTED_EDGE('',*,*,#396,.T.);
#396 = EDGE_CURVE('',#397,#399,#401,.T.);
#397 = VERTEX_POINT('',#398);
#398 = CARTESIAN_POINT('',(1.E-14,-8.5,-8.));
#399 = VERTEX_POINT('',#400);
#400 = CARTESIAN_POINT('',(13.,-8.5,-8.));
#401 = LINE('',#402,#403);
#402 = CARTESIAN_POINT('',(1.915E-14,-8.5,-8.));
#403 = VECTOR('',#404,1.);
#404 = DIRECTION('',(1.,-5.6E-16,-2.2E-16));
#405 = ORIENTED_EDGE('',*,*,#406,.F.);
#406 = EDGE_CURVE('',#223,#399,#407,.T.);
#407 = CIRCLE('',#408,3.);
#408 = AXIS2_PLACEMENT_3D('',#409,#410,#411);
#409 = CARTESIAN_POINT('',(13.,-8.5,-5.));
#410 = DIRECTION('',(0.,1.,-1.33E-15));
#411 = DIRECTION('',(-1.1E-16,1.33E-15,1.));
#412 = ORIENTED_EDGE('',*,*,#230,.T.);
#413 = ORIENTED_EDGE('',*,*,#414,.F.);
#414 = EDGE_CURVE('',#91,#231,#415,.T.);
#415 = LINE('',#416,#417);
#416 = CARTESIAN_POINT('',(-1.082E-14,-8.5,14.5));
#417 = VECTOR('',#418,1.);
#418 = DIRECTION('',(1.,-5.6E-16,-2.2E-16));
#419 = ORIENTED_EDGE('',*,*,#90,.F.);
#420 = ORIENTED_EDGE('',*,*,#421,.F.);
#421 = EDGE_CURVE('',#397,#83,#422,.T.);
#422 = LINE('',#423,#424);
#423 = CARTESIAN_POINT('',(2.104E-14,-8.5,-8.));
#424 = VECTOR('',#425,1.);
#425 = DIRECTION('',(-1.33E-15,-7.8E-16,1.));
#426 = PLANE('',#427);
#427 = AXIS2_PLACEMENT_3D('',#428,#429,#430);
#428 = CARTESIAN_POINT('',(1.915E-14,-8.5,-8.));
#429 = DIRECTION('',(7.8E-16,-1.,7.8E-16));
#430 = DIRECTION('',(-1.33E-15,7.8E-16,1.));
#431 = ADVANCED_FACE('',(#432,#443),#446,.F.);
#432 = FACE_BOUND('',#433,.F.);
#433 = EDGE_LOOP('',(#434,#435,#436,#442));
#434 = ORIENTED_EDGE('',*,*,#414,.T.);
#435 = ORIENTED_EDGE('',*,*,#238,.T.);
#436 = ORIENTED_EDGE('',*,*,#437,.F.);
#437 = EDGE_CURVE('',#99,#239,#438,.T.);
#438 = LINE('',#439,#440);
#439 = CARTESIAN_POINT('',(-2.781E-14,8.5,14.5));
#440 = VECTOR('',#441,1.);
#441 = DIRECTION('',(1.,-5.6E-16,-2.2E-16));
#442 = ORIENTED_EDGE('',*,*,#98,.F.);
#443 = FACE_BOUND('',#444,.F.);
#444 = EDGE_LOOP('',(#445));
#445 = ORIENTED_EDGE('',*,*,#277,.F.);
#446 = PLANE('',#447);
#447 = AXIS2_PLACEMENT_3D('',#448,#449,#450);
#448 = CARTESIAN_POINT('',(-1.082E-14,-8.5,14.5));
#449 = DIRECTION('',(-1.11E-15,-3.3E-16,1.));
#450 = DIRECTION('',(-1.E-15,1.,3.3E-16));
#451 = ADVANCED_FACE('',(#452),#489,.T.);
#452 = FACE_BOUND('',#453,.T.);
#453 = EDGE_LOOP('',(#454,#464,#472,#478,#479,#480,#481,#482));
#454 = ORIENTED_EDGE('',*,*,#455,.F.);
#455 = EDGE_CURVE('',#456,#458,#460,.T.);
#456 = VERTEX_POINT('',#457);
#457 = CARTESIAN_POINT('',(9.E-15,12.5,-8.));
#458 = VERTEX_POINT('',#459);
#459 = CARTESIAN_POINT('',(13.,12.5,-8.));
#460 = LINE('',#461,#462);
#461 = CARTESIAN_POINT('',(-1.83E-15,12.5,-8.));
#462 = VECTOR('',#463,1.);
#463 = DIRECTION('',(1.,-5.6E-16,-2.2E-16));
#464 = ORIENTED_EDGE('',*,*,#465,.F.);
#465 = EDGE_CURVE('',#466,#456,#468,.T.);
#466 = VERTEX_POINT('',#467);
#467 = CARTESIAN_POINT('',(-20.,12.5,-1.9E-14));
#468 = LINE('',#469,#470);
#469 = CARTESIAN_POINT('',(-20.,12.5,6.44E-15));
#470 = VECTOR('',#471,1.);
#471 = DIRECTION('',(0.928476690885,-2.1E-16,-0.371390676354));
#472 = ORIENTED_EDGE('',*,*,#473,.F.);
#473 = EDGE_CURVE('',#352,#466,#474,.T.);
#474 = LINE('',#475,#476);
#475 = CARTESIAN_POINT('',(-20.,12.5,5.));
#476 = VECTOR('',#477,1.);
#477 = DIRECTION('',(1.E-15,5.6E-16,-1.));
#478 = ORIENTED_EDGE('',*,*,#351,.F.);
#479 = ORIENTED_EDGE('',*,*,#122,.T.);
#480 = ORIENTED_EDGE('',*,*,#154,.T.);
#481 = ORIENTED_EDGE('',*,*,#203,.F.);
#482 = ORIENTED_EDGE('',*,*,#483,.T.);
#483 = EDGE_CURVE('',#204,#458,#484,.T.);
#484 = CIRCLE('',#485,3.);
#485 = AXIS2_PLACEMENT_3D('',#486,#487,#488);
#486 = CARTESIAN_POINT('',(13.,12.5,-5.));
#487 = DIRECTION('',(0.,1.,-1.33E-15));
#488 = DIRECTION('',(1.1E-16,-1.33E-15,-1.));
#489 = PLANE('',#490);
#490 = AXIS2_PLACEMENT_3D('',#491,#492,#493);
#491 = CARTESIAN_POINT('',(1.275034899393,12.5,3.77625599511));
#492 = DIRECTION('',(-6.7E-16,1.,-7.9E-16));
#493 = DIRECTION('',(-7.8E-16,7.9E-16,1.));
#494 = ADVANCED_FACE('',(#495),#523,.T.);
#495 = FACE_BOUND('',#496,.T.);
#496 = EDGE_LOOP('',(#497,#507,#514,#515,#516,#517));
#497 = ORIENTED_EDGE('',*,*,#498,.T.);
#498 = EDGE_CURVE('',#499,#501,#503,.T.);
#499 = VERTEX_POINT('',#500);
#500 = CARTESIAN_POINT('',(1.2E-14,8.5,-8.));
#501 = VERTEX_POINT('',#502);
#502 = CARTESIAN_POINT('',(13.,8.5,-8.));
#503 = LINE('',#504,#505);
#504 = CARTESIAN_POINT('',(2.16E-15,8.5,-8.));
#505 = VECTOR('',#506,1.);
#506 = DIRECTION('',(1.,-5.6E-16,-2.2E-16));
#507 = ORIENTED_EDGE('',*,*,#508,.F.);
#508 = EDGE_CURVE('',#247,#501,#509,.T.);
#509 = CIRCLE('',#510,3.);
#510 = AXIS2_PLACEMENT_3D('',#511,#512,#513);
#511 = CARTESIAN_POINT('',(13.,8.5,-5.));
#512 = DIRECTION('',(0.,1.,-1.33E-15));
#513 = DIRECTION('',(1.1E-16,-1.33E-15,-1.));
#514 = ORIENTED_EDGE('',*,*,#246,.T.);
#515 = ORIENTED_EDGE('',*,*,#437,.F.);
#516 = ORIENTED_EDGE('',*,*,#106,.F.);
#517 = ORIENTED_EDGE('',*,*,#518,.F.);
#518 = EDGE_CURVE('',#499,#107,#519,.T.);
#519 = LINE('',#520,#521);
#520 = CARTESIAN_POINT('',(2.8E-16,8.5,-8.));
#521 = VECTOR('',#522,1.);
#522 = DIRECTION('',(-1.33E-15,-7.8E-16,1.));
#523 = PLANE('',#524);
#524 = AXIS2_PLACEMENT_3D('',#525,#526,#527);
#525 = CARTESIAN_POINT('',(2.16E-15,8.5,-8.));
#526 = DIRECTION('',(7.8E-16,-1.,7.8E-16));
#527 = DIRECTION('',(-1.33E-15,7.8E-16,1.));
#528 = ADVANCED_FACE('',(#529),#540,.T.);
#529 = FACE_BOUND('',#530,.F.);
#530 = EDGE_LOOP('',(#531,#532,#538,#539));
#531 = ORIENTED_EDGE('',*,*,#483,.T.);
#532 = ORIENTED_EDGE('',*,*,#533,.T.);
#533 = EDGE_CURVE('',#458,#501,#534,.T.);
#534 = LINE('',#535,#536);
#535 = CARTESIAN_POINT('',(13.,12.5,-8.));
#536 = VECTOR('',#537,1.);
#537 = DIRECTION('',(-0.,-1.,1.33E-15));
#538 = ORIENTED_EDGE('',*,*,#508,.F.);
#539 = ORIENTED_EDGE('',*,*,#254,.F.);
#540 = CYLINDRICAL_SURFACE('',#541,3.);
#541 = AXIS2_PLACEMENT_3D('',#542,#543,#544);
#542 = CARTESIAN_POINT('',(13.,12.5,-5.));
#543 = DIRECTION('',(-0.,-1.,1.33E-15));
#544 = DIRECTION('',(1.,1.7689E-30,1.33E-15));
#545 = ADVANCED_FACE('',(#546),#557,.T.);
#546 = FACE_BOUND('',#547,.T.);
#547 = EDGE_LOOP('',(#548,#549,#555,#556));
#548 = ORIENTED_EDGE('',*,*,#326,.T.);
#549 = ORIENTED_EDGE('',*,*,#550,.T.);
#550 = EDGE_CURVE('',#319,#399,#551,.T.);
#551 = LINE('',#552,#553);
#552 = CARTESIAN_POINT('',(13.,-12.5,-8.));
#553 = VECTOR('',#554,1.);
#554 = DIRECTION('',(0.,1.,-1.33E-15));
#555 = ORIENTED_EDGE('',*,*,#406,.F.);
#556 = ORIENTED_EDGE('',*,*,#222,.F.);
#557 = CYLINDRICAL_SURFACE('',#558,3.);
#558 = AXIS2_PLACEMENT_3D('',#559,#560,#561);
#559 = CARTESIAN_POINT('',(13.,-12.5,-5.));
#560 = DIRECTION('',(0.,1.,-1.33E-15));
#561 = DIRECTION('',(1.,1.7689E-30,1.33E-15));
#562 = ADVANCED_FACE('',(#563),#574,.T.);
#563 = FACE_BOUND('',#564,.T.);
#564 = EDGE_LOOP('',(#565,#566,#567,#573));
#565 = ORIENTED_EDGE('',*,*,#359,.T.);
#566 = ORIENTED_EDGE('',*,*,#473,.T.);
#567 = ORIENTED_EDGE('',*,*,#568,.F.);
#568 = EDGE_CURVE('',#303,#466,#569,.T.);
#569 = LINE('',#570,#571);
#570 = CARTESIAN_POINT('',(-20.,-12.5,1.332E-14));
#571 = VECTOR('',#572,1.);
#572 = DIRECTION('',(-6.7E-16,1.,-7.8E-16));
#573 = ORIENTED_EDGE('',*,*,#302,.F.);
#574 = PLANE('',#575);
#575 = AXIS2_PLACEMENT_3D('',#576,#577,#578);
#576 = CARTESIAN_POINT('',(-20.,-12.5,5.));
#577 = DIRECTION('',(-1.,2.2E-16,-1.1E-16));
#578 = DIRECTION('',(1.1E-16,3.3E-16,-1.));
#579 = ADVANCED_FACE('',(#580,#603,#614),#625,.T.);
#580 = FACE_BOUND('',#581,.T.);
#581 = EDGE_LOOP('',(#582,#583,#584,#590,#596,#602));
#582 = ORIENTED_EDGE('',*,*,#568,.T.);
#583 = ORIENTED_EDGE('',*,*,#465,.T.);
#584 = ORIENTED_EDGE('',*,*,#585,.T.);
#585 = EDGE_CURVE('',#456,#499,#586,.T.);
#586 = LINE('',#587,#588);
#587 = CARTESIAN_POINT('',(-4.61E-15,12.5,-8.));
#588 = VECTOR('',#589,1.);
#589 = DIRECTION('',(1.22E-15,-1.,1.E-15));
#590 = ORIENTED_EDGE('',*,*,#591,.F.);
#591 = EDGE_CURVE('',#397,#499,#592,.T.);
#592 = LINE('',#593,#594);
#593 = CARTESIAN_POINT('',(1.354E-14,-12.5,-8.));
#594 = VECTOR('',#595,1.);
#595 = DIRECTION('',(-6.7E-16,1.,-7.8E-16));
#596 = ORIENTED_EDGE('',*,*,#597,.F.);
#597 = EDGE_CURVE('',#311,#397,#598,.T.);
#598 = LINE('',#599,#600);
#599 = CARTESIAN_POINT('',(2.592E-14,-12.5,-8.));
#600 = VECTOR('',#601,1.);
#601 = DIRECTION('',(-1.22E-15,1.,-1.E-15));
#602 = ORIENTED_EDGE('',*,*,#310,.F.);
#603 = FACE_BOUND('',#604,.T.);
#604 = EDGE_LOOP('',(#605));
#605 = ORIENTED_EDGE('',*,*,#606,.F.);
#606 = EDGE_CURVE('',#607,#607,#609,.T.);
#607 = VERTEX_POINT('',#608);
#608 = CARTESIAN_POINT('',(-10.,4.25,-4.));
#609 = ELLIPSE('',#610,3.500357124637,3.25);
#610 = AXIS2_PLACEMENT_3D('',#611,#612,#613);
#611 = CARTESIAN_POINT('',(-10.,7.5,-4.));
#612 = DIRECTION('',(-0.371390676354,-3.5E-16,-0.928476690885));
#613 = DIRECTION('',(-0.928476690885,-5.8E-16,0.371390676354));
#614 = FACE_BOUND('',#615,.T.);
#615 = EDGE_LOOP('',(#616));
#616 = ORIENTED_EDGE('',*,*,#617,.F.);
#617 = EDGE_CURVE('',#618,#618,#620,.T.);
#618 = VERTEX_POINT('',#619);
#619 = CARTESIAN_POINT('',(-10.,-10.75,-4.));
#620 = ELLIPSE('',#621,3.500357124637,3.25);
#621 = AXIS2_PLACEMENT_3D('',#622,#623,#624);
#622 = CARTESIAN_POINT('',(-10.,-7.5,-4.));
#623 = DIRECTION('',(-0.371390676354,-3.5E-16,-0.928476690885));
#624 = DIRECTION('',(-0.928476690885,-5.8E-16,0.371390676354));
#625 = PLANE('',#626);
#626 = AXIS2_PLACEMENT_3D('',#627,#628,#629);
#627 = CARTESIAN_POINT('',(-20.,-12.5,1.332E-14));
#628 = DIRECTION('',(-0.371390676354,1.9E-16,-0.928476690885));
#629 = DIRECTION('',(0.928476690885,-2.9E-16,-0.371390676354));
#630 = ADVANCED_FACE('',(#631),#637,.F.);
#631 = FACE_BOUND('',#632,.F.);
#632 = EDGE_LOOP('',(#633,#634,#635,#636));
#633 = ORIENTED_EDGE('',*,*,#318,.T.);
#634 = ORIENTED_EDGE('',*,*,#550,.T.);
#635 = ORIENTED_EDGE('',*,*,#396,.F.);
#636 = ORIENTED_EDGE('',*,*,#597,.F.);
#637 = PLANE('',#638);
#638 = AXIS2_PLACEMENT_3D('',#639,#640,#641);
#639 = CARTESIAN_POINT('',(2.315E-14,-12.5,-8.));
#640 = DIRECTION('',(-1.11E-15,-3.3E-16,1.));
#641 = DIRECTION('',(-1.E-15,1.,3.3E-16));
#642 = ADVANCED_FACE('',(#643),#649,.T.);
#643 = FACE_BOUND('',#644,.T.);
#644 = EDGE_LOOP('',(#645,#646,#647,#648));
#645 = ORIENTED_EDGE('',*,*,#421,.F.);
#646 = ORIENTED_EDGE('',*,*,#591,.T.);
#647 = ORIENTED_EDGE('',*,*,#518,.T.);
#648 = ORIENTED_EDGE('',*,*,#344,.F.);
#649 = PLANE('',#650);
#650 = AXIS2_PLACEMENT_3D('',#651,#652,#653);
#651 = CARTESIAN_POINT('',(1.354E-14,-12.5,-8.));
#652 = DIRECTION('',(1.,-2.2E-16,1.1E-16));
#653 = DIRECTION('',(-1.1E-16,-3.3E-16,1.));
#654 = ADVANCED_FACE('',(#655),#674,.F.);
#655 = FACE_BOUND('',#656,.T.);
#656 = EDGE_LOOP('',(#657,#665,#672,#673));
#657 = ORIENTED_EDGE('',*,*,#658,.F.);
#658 = EDGE_CURVE('',#659,#369,#661,.T.);
#659 = VERTEX_POINT('',#660);
#660 = CARTESIAN_POINT('',(-10.,5.9,2.));
#661 = LINE('',#662,#663);
#662 = CARTESIAN_POINT('',(-10.,5.9,2.));
#663 = VECTOR('',#664,1.);
#664 = DIRECTION('',(-3.3E-16,1.7E-16,1.));
#665 = ORIENTED_EDGE('',*,*,#666,.T.);
#666 = EDGE_CURVE('',#659,#659,#667,.T.);
#667 = CIRCLE('',#668,1.6);
#668 = AXIS2_PLACEMENT_3D('',#669,#670,#671);
#669 = CARTESIAN_POINT('',(-10.,7.5,2.));
#670 = DIRECTION('',(3.3E-16,-1.1E-16,-1.));
#671 = DIRECTION('',(0.,-1.,1.1E-16));
#672 = ORIENTED_EDGE('',*,*,#658,.T.);
#673 = ORIENTED_EDGE('',*,*,#368,.T.);
#674 = CYLINDRICAL_SURFACE('',#675,1.6);
#675 = AXIS2_PLACEMENT_3D('',#676,#677,#678);
#676 = CARTESIAN_POINT('',(-10.,7.5,2.));
#677 = DIRECTION('',(-3.3E-16,1.1E-16,1.));
#678 = DIRECTION('',(0.,-1.,1.1E-16));
#679 = ADVANCED_FACE('',(#680),#699,.F.);
#680 = FACE_BOUND('',#681,.T.);
#681 = EDGE_LOOP('',(#682,#690,#697,#698));
#682 = ORIENTED_EDGE('',*,*,#683,.F.);
#683 = EDGE_CURVE('',#684,#380,#686,.T.);
#684 = VERTEX_POINT('',#685);
#685 = CARTESIAN_POINT('',(-10.,-9.1,2.));
#686 = LINE('',#687,#688);
#687 = CARTESIAN_POINT('',(-10.,-9.1,2.));
#688 = VECTOR('',#689,1.);
#689 = DIRECTION('',(-3.3E-16,1.7E-16,1.));
#690 = ORIENTED_EDGE('',*,*,#691,.T.);
#691 = EDGE_CURVE('',#684,#684,#692,.T.);
#692 = CIRCLE('',#693,1.6);
#693 = AXIS2_PLACEMENT_3D('',#694,#695,#696);
#694 = CARTESIAN_POINT('',(-10.,-7.5,2.));
#695 = DIRECTION('',(3.3E-16,-1.1E-16,-1.));
#696 = DIRECTION('',(0.,-1.,1.1E-16));
#697 = ORIENTED_EDGE('',*,*,#683,.T.);
#698 = ORIENTED_EDGE('',*,*,#379,.T.);
#699 = CYLINDRICAL_SURFACE('',#700,1.6);
#700 = AXIS2_PLACEMENT_3D('',#701,#702,#703);
#701 = CARTESIAN_POINT('',(-10.,-7.5,2.));
#702 = DIRECTION('',(-3.3E-16,1.1E-16,1.));
#703 = DIRECTION('',(0.,-1.,1.1E-16));
#704 = ADVANCED_FACE('',(#705),#711,.T.);
#705 = FACE_BOUND('',#706,.T.);
#706 = EDGE_LOOP('',(#707,#708,#709,#710));
#707 = ORIENTED_EDGE('',*,*,#455,.T.);
#708 = ORIENTED_EDGE('',*,*,#533,.T.);
#709 = ORIENTED_EDGE('',*,*,#498,.F.);
#710 = ORIENTED_EDGE('',*,*,#585,.F.);
#711 = PLANE('',#712);
#712 = AXIS2_PLACEMENT_3D('',#713,#714,#715);
#713 = CARTESIAN_POINT('',(-1.83E-15,12.5,-8.));
#714 = DIRECTION('',(1.11E-15,3.3E-16,-1.));
#715 = DIRECTION('',(1.E-15,-1.,-3.3E-16));
#716 = ADVANCED_FACE('',(#717),#736,.F.);
#717 = FACE_BOUND('',#718,.T.);
#718 = EDGE_LOOP('',(#719,#720,#728,#735));
#719 = ORIENTED_EDGE('',*,*,#606,.T.);
#720 = ORIENTED_EDGE('',*,*,#721,.T.);
#721 = EDGE_CURVE('',#607,#722,#724,.T.);
#722 = VERTEX_POINT('',#723);
#723 = CARTESIAN_POINT('',(-10.,4.25,2.));
#724 = LINE('',#725,#726);
#725 = CARTESIAN_POINT('',(-10.,4.25,-8.));
#726 = VECTOR('',#727,1.);
#727 = DIRECTION('',(-3.3E-16,1.1E-16,1.));
#728 = ORIENTED_EDGE('',*,*,#729,.F.);
#729 = EDGE_CURVE('',#722,#722,#730,.T.);
#730 = CIRCLE('',#731,3.25);
#731 = AXIS2_PLACEMENT_3D('',#732,#733,#734);
#732 = CARTESIAN_POINT('',(-10.,7.5,2.));
#733 = DIRECTION('',(3.3E-16,-1.1E-16,-1.));
#734 = DIRECTION('',(0.,-1.,1.1E-16));
#735 = ORIENTED_EDGE('',*,*,#721,.F.);
#736 = CYLINDRICAL_SURFACE('',#737,3.25);
#737 = AXIS2_PLACEMENT_3D('',#738,#739,#740);
#738 = CARTESIAN_POINT('',(-10.,7.5,-8.));
#739 = DIRECTION('',(-3.3E-16,1.1E-16,1.));
#740 = DIRECTION('',(0.,-1.,1.1E-16));
#741 = ADVANCED_FACE('',(#742),#761,.F.);
#742 = FACE_BOUND('',#743,.T.);
#743 = EDGE_LOOP('',(#744,#745,#753,#760));
#744 = ORIENTED_EDGE('',*,*,#617,.T.);
#745 = ORIENTED_EDGE('',*,*,#746,.T.);
#746 = EDGE_CURVE('',#618,#747,#749,.T.);
#747 = VERTEX_POINT('',#748);
#748 = CARTESIAN_POINT('',(-10.,-10.75,2.));
#749 = LINE('',#750,#751);
#750 = CARTESIAN_POINT('',(-10.,-10.75,-8.));
#751 = VECTOR('',#752,1.);
#752 = DIRECTION('',(-3.3E-16,1.1E-16,1.));
#753 = ORIENTED_EDGE('',*,*,#754,.F.);
#754 = EDGE_CURVE('',#747,#747,#755,.T.);
#755 = CIRCLE('',#756,3.25);
#756 = AXIS2_PLACEMENT_3D('',#757,#758,#759);
#757 = CARTESIAN_POINT('',(-10.,-7.5,2.));
#758 = DIRECTION('',(3.3E-16,-1.1E-16,-1.));
#759 = DIRECTION('',(0.,-1.,1.1E-16));
#760 = ORIENTED_EDGE('',*,*,#746,.F.);
#761 = CYLINDRICAL_SURFACE('',#762,3.25);
#762 = AXIS2_PLACEMENT_3D('',#763,#764,#765);
#763 = CARTESIAN_POINT('',(-10.,-7.5,-8.));
#764 = DIRECTION('',(-3.3E-16,1.1E-16,1.));
#765 = DIRECTION('',(0.,-1.,1.1E-16));
#766 = ADVANCED_FACE('',(#767,#770),#773,.T.);
#767 = FACE_BOUND('',#768,.T.);
#768 = EDGE_LOOP('',(#769));
#769 = ORIENTED_EDGE('',*,*,#729,.T.);
#770 = FACE_BOUND('',#771,.T.);
#771 = EDGE_LOOP('',(#772));
#772 = ORIENTED_EDGE('',*,*,#666,.F.);
#773 = PLANE('',#774);
#774 = AXIS2_PLACEMENT_3D('',#775,#776,#777);
#775 = CARTESIAN_POINT('',(-10.,7.5,2.));
#776 = DIRECTION('',(3.3E-16,-1.1E-16,-1.));
#777 = DIRECTION('',(0.,-1.,1.1E-16));
#778 = ADVANCED_FACE('',(#779,#782),#785,.T.);
#779 = FACE_BOUND('',#780,.T.);
#780 = EDGE_LOOP('',(#781));
#781 = ORIENTED_EDGE('',*,*,#754,.T.);
#782 = FACE_BOUND('',#783,.T.);
#783 = EDGE_LOOP('',(#784));
#784 = ORIENTED_EDGE('',*,*,#691,.F.);
#785 = PLANE('',#786);
#786 = AXIS2_PLACEMENT_3D('',#787,#788,#789);
#787 = CARTESIAN_POINT('',(-10.,-7.5,2.));
#788 = DIRECTION('',(3.3E-16,-1.1E-16,-1.));
#789 = DIRECTION('',(0.,-1.,1.1E-16));
#790 = ( GEOMETRIC_REPRESENTATION_CONTEXT(3) 
GLOBAL_UNCERTAINTY_ASSIGNED_CONTEXT((#794)) GLOBAL_UNIT_ASSIGNED_CONTEXT
((#791,#792,#793)) REPRESENTATION_CONTEXT('Context #1',
  '3D Context with UNIT and UNCERTAINTY') );
#791 = ( LENGTH_UNIT() NAMED_UNIT(*) SI_UNIT(.MILLI.,.METRE.) );
#792 = ( NAMED_UNIT(*) PLANE_ANGLE_UNIT() SI_UNIT($,.RADIAN.) );
#793 = ( NAMED_UNIT(*) SI_UNIT($,.STERADIAN.) SOLID_ANGLE_UNIT() );
#794 = UNCERTAINTY_MEASURE_WITH_UNIT(LENGTH_MEASURE(1.E-07),#791,
  'distance_accuracy_value','confusion accuracy');
#795 = PRODUCT_RELATED_PRODUCT_CATEGORY('part',$,(#7));
#796 = MECHANICAL_DESIGN_GEOMETRIC_PRESENTATION_REPRESENTATION('',(#797)
  ,#790);
#797 = STYLED_ITEM('color',(#798),#15);
#798 = PRESENTATION_STYLE_ASSIGNMENT((#799,#805));
#799 = SURFACE_STYLE_USAGE(.BOTH.,#800);
#800 = SURFACE_SIDE_STYLE('',(#801));
#801 = SURFACE_STYLE_FILL_AREA(#802);
#802 = FILL_AREA_STYLE('',(#803));
#803 = FILL_AREA_STYLE_COLOUR('',#804);
#804 = COLOUR_RGB('',0.447058818107,0.474509808674,0.501960817233);
#805 = CURVE_STYLE('',#806,POSITIVE_LENGTH_MEASURE(0.1),#807);
#806 = DRAUGHTING_PRE_DEFINED_CURVE_FONT('continuous');
#807 = COLOUR_RGB('',9.803921802644E-02,9.803921802644E-02,
  9.803921802644E-02);
ENDSEC;
END-ISO-10303-21;
