ISO-10303-21;
HEADER;
FILE_DESCRIPTION(('FreeCAD Model'),'2;1');
FILE_NAME('Open CASCADE Shape Model','2025-12-08T22:41:15',(''),(''),
  'Open CASCADE STEP processor 7.9','FreeCAD','Unknown');
FILE_SCHEMA(('AUTOMOTIVE_DESIGN { 1 0 10303 214 1 1 1 1 }'));
ENDSEC;
DATA;
#1 = APPLICATION_PROTOCOL_DEFINITION('international standard',
  'automotive_design',2000,#2);
#2 = APPLICATION_CONTEXT(
  'core data for automotive mechanical design processes');
#3 = SHAPE_DEFINITION_REPRESENTATION(#4,#10);
#4 = PRODUCT_DEFINITION_SHAPE('','',#5);
#5 = PRODUCT_DEFINITION('design','',#6,#9);
#6 = PRODUCT_DEFINITION_FORMATION('','',#7);
#7 = PRODUCT('ZTensionerSlider','ZTensionerSlider','',(#8));
#8 = PRODUCT_CONTEXT('',#2,'mechanical');
#9 = PRODUCT_DEFINITION_CONTEXT('part definition',#2,'design');
#10 = ADVANCED_BREP_SHAPE_REPRESENTATION('',(#11,#15),#915);
#11 = AXIS2_PLACEMENT_3D('',#12,#13,#14);
#12 = CARTESIAN_POINT('',(0.,0.,0.));
#13 = DIRECTION('',(0.,0.,1.));
#14 = DIRECTION('',(1.,0.,-0.));
#15 = MANIFOLD_SOLID_BREP('',#16);
#16 = CLOSED_SHELL('',(#17,#89,#122,#157,#192,#243,#279,#304,#336,#371,
    #422,#447,#472,#585,#638,#663,#685,#711,#736,#748,#768,#809,#820,
    #830,#855,#867,#879,#891,#903));
#17 = ADVANCED_FACE('',(#18),#84,.T.);
#18 = FACE_BOUND('',#19,.T.);
#19 = EDGE_LOOP('',(#20,#30,#38,#46,#54,#62,#70,#78));
#20 = ORIENTED_EDGE('',*,*,#21,.F.);
#21 = EDGE_CURVE('',#22,#24,#26,.T.);
#22 = VERTEX_POINT('',#23);
#23 = CARTESIAN_POINT('',(7.88860905221E-31,8.,-4.6645352591E-15));
#24 = VERTEX_POINT('',#25);
#25 = CARTESIAN_POINT('',(3.9,8.,-5.340172748447E-15));
#26 = LINE('',#27,#28);
#27 = CARTESIAN_POINT('',(-1.7763568394E-15,8.,-8.080892098501E-15));
#28 = VECTOR('',#29,1.);
#29 = DIRECTION('',(1.,-6.640892098501E-16,-1.110223024625E-16));
#30 = ORIENTED_EDGE('',*,*,#31,.F.);
#31 = EDGE_CURVE('',#32,#22,#34,.T.);
#32 = VERTEX_POINT('',#33);
#33 = CARTESIAN_POINT('',(-3.996802888651E-15,8.,12.));
#34 = LINE('',#35,#36);
#35 = CARTESIAN_POINT('',(-8.437694987151E-15,8.,12.));
#36 = VECTOR('',#37,1.);
#37 = DIRECTION('',(5.551115123126E-16,1.110223024625E-16,-1.));
#38 = ORIENTED_EDGE('',*,*,#39,.T.);
#39 = EDGE_CURVE('',#32,#40,#42,.T.);
#40 = VERTEX_POINT('',#41);
#41 = CARTESIAN_POINT('',(16.,8.,12.));
#42 = LINE('',#43,#44);
#43 = CARTESIAN_POINT('',(-1.909769498715E-14,8.,12.));
#44 = VECTOR('',#45,1.);
#45 = DIRECTION('',(1.,-1.11408920985E-15,1.089776975375E-16));
#46 = ORIENTED_EDGE('',*,*,#47,.T.);
#47 = EDGE_CURVE('',#40,#48,#50,.T.);
#48 = VERTEX_POINT('',#49);
#49 = CARTESIAN_POINT('',(16.,8.,-8.881784197001E-16));
#50 = LINE('',#51,#52);
#51 = CARTESIAN_POINT('',(16.,8.,12.));
#52 = VECTOR('',#53,1.);
#53 = DIRECTION('',(5.551115123126E-16,1.110223024625E-16,-1.));
#54 = ORIENTED_EDGE('',*,*,#55,.F.);
#55 = EDGE_CURVE('',#56,#48,#58,.T.);
#56 = VERTEX_POINT('',#57);
#57 = CARTESIAN_POINT('',(13.9,8.,6.550315845288E-16));
#58 = LINE('',#59,#60);
#59 = CARTESIAN_POINT('',(13.,8.,-7.194182030513E-15));
#60 = VECTOR('',#61,1.);
#61 = DIRECTION('',(1.,-6.640892098501E-16,-1.110223024625E-16));
#62 = ORIENTED_EDGE('',*,*,#63,.F.);
#63 = EDGE_CURVE('',#64,#56,#66,.T.);
#64 = VERTEX_POINT('',#65);
#65 = CARTESIAN_POINT('',(13.9,8.,6.040895836088));
#66 = LINE('',#67,#68);
#67 = CARTESIAN_POINT('',(13.9,8.,2.));
#68 = VECTOR('',#69,1.);
#69 = DIRECTION('',(1.110223024625E-16,-3.330669073875E-16,-1.));
#70 = ORIENTED_EDGE('',*,*,#71,.F.);
#71 = EDGE_CURVE('',#72,#64,#74,.T.);
#72 = VERTEX_POINT('',#73);
#73 = CARTESIAN_POINT('',(3.9,8.,6.040895667501));
#74 = LINE('',#75,#76);
#75 = CARTESIAN_POINT('',(4.4,8.,6.040895836088));
#76 = VECTOR('',#77,1.);
#77 = DIRECTION('',(1.,8.628166150855E-32,3.330669073875E-16));
#78 = ORIENTED_EDGE('',*,*,#79,.T.);
#79 = EDGE_CURVE('',#72,#24,#80,.T.);
#80 = LINE('',#81,#82);
#81 = CARTESIAN_POINT('',(3.9,8.,6.040895836088));
#82 = VECTOR('',#83,1.);
#83 = DIRECTION('',(1.110223024625E-16,-3.330669073875E-16,-1.));
#84 = PLANE('',#85);
#85 = AXIS2_PLACEMENT_3D('',#86,#87,#88);
#86 = CARTESIAN_POINT('',(8.063333333333,8.,5.936666666667));
#87 = DIRECTION('',(4.87955395075E-16,1.,-5.551115123126E-16));
#88 = DIRECTION('',(1.,-1.15408920985E-15,-1.110223024625E-16));
#89 = ADVANCED_FACE('',(#90),#117,.T.);
#90 = FACE_BOUND('',#91,.F.);
#91 = EDGE_LOOP('',(#92,#93,#102,#110));
#92 = ORIENTED_EDGE('',*,*,#21,.F.);
#93 = ORIENTED_EDGE('',*,*,#94,.F.);
#94 = EDGE_CURVE('',#95,#22,#97,.T.);
#95 = VERTEX_POINT('',#96);
#96 = CARTESIAN_POINT('',(-1.972152263053E-31,-8.,2.6645352591E-15));
#97 = CIRCLE('',#98,8.);
#98 = AXIS2_PLACEMENT_3D('',#99,#100,#101);
#99 = CARTESIAN_POINT('',(0.,0.,0.));
#100 = DIRECTION('',(1.,2.22044604925E-16,5.551115123126E-16));
#101 = DIRECTION('',(-2.22044604925E-16,1.,-5.551115123126E-16));
#102 = ORIENTED_EDGE('',*,*,#103,.T.);
#103 = EDGE_CURVE('',#95,#104,#106,.T.);
#104 = VERTEX_POINT('',#105);
#105 = CARTESIAN_POINT('',(3.9,-8.,-3.932174587012E-16));
#106 = LINE('',#107,#108);
#107 = CARTESIAN_POINT('',(1.7763568394E-15,-8.,6.710892098501E-15));
#108 = VECTOR('',#109,1.);
#109 = DIRECTION('',(1.,-6.640892098501E-16,-1.110223024625E-16));
#110 = ORIENTED_EDGE('',*,*,#111,.F.);
#111 = EDGE_CURVE('',#24,#104,#112,.T.);
#112 = CIRCLE('',#113,8.);
#113 = AXIS2_PLACEMENT_3D('',#114,#115,#116);
#114 = CARTESIAN_POINT('',(3.9,3.167769572528E-31,1.298960938811E-15));
#115 = DIRECTION('',(-1.,-8.628166150855E-32,-3.330669073875E-16));
#116 = DIRECTION('',(1.798790319518E-31,1.,-7.991207999258E-16));
#117 = CYLINDRICAL_SURFACE('',#118,8.);
#118 = AXIS2_PLACEMENT_3D('',#119,#120,#121);
#119 = CARTESIAN_POINT('',(0.,0.,0.));
#120 = DIRECTION('',(-1.,4.440892098501E-16,-1.089776975375E-16));
#121 = DIRECTION('',(-2.22044604925E-16,1.,-7.751115123126E-16));
#122 = ADVANCED_FACE('',(#123,#141),#152,.F.);
#123 = FACE_BOUND('',#124,.F.);
#124 = EDGE_LOOP('',(#125,#126,#127,#135));
#125 = ORIENTED_EDGE('',*,*,#94,.T.);
#126 = ORIENTED_EDGE('',*,*,#31,.F.);
#127 = ORIENTED_EDGE('',*,*,#128,.F.);
#128 = EDGE_CURVE('',#129,#32,#131,.T.);
#129 = VERTEX_POINT('',#130);
#130 = CARTESIAN_POINT('',(-3.996802888651E-15,-8.,12.));
#131 = LINE('',#132,#133);
#132 = CARTESIAN_POINT('',(-4.884981308351E-15,-8.,12.));
#133 = VECTOR('',#134,1.);
#134 = DIRECTION('',(-2.22044604925E-16,1.,-5.551115123126E-16));
#135 = ORIENTED_EDGE('',*,*,#136,.F.);
#136 = EDGE_CURVE('',#95,#129,#137,.T.);
#137 = LINE('',#138,#139);
#138 = CARTESIAN_POINT('',(1.7763568394E-15,-8.,4.440892098501E-15));
#139 = VECTOR('',#140,1.);
#140 = DIRECTION('',(-5.551115123126E-16,-2.610223024625E-16,1.));
#141 = FACE_BOUND('',#142,.T.);
#142 = EDGE_LOOP('',(#143));
#143 = ORIENTED_EDGE('',*,*,#144,.T.);
#144 = EDGE_CURVE('',#145,#145,#147,.T.);
#145 = VERTEX_POINT('',#146);
#146 = CARTESIAN_POINT('',(4.930380657631E-32,2.5,-8.326672684689E-16));
#147 = CIRCLE('',#148,2.5);
#148 = AXIS2_PLACEMENT_3D('',#149,#150,#151);
#149 = CARTESIAN_POINT('',(0.,0.,0.));
#150 = DIRECTION('',(1.,2.22044604925E-16,5.551115123126E-16));
#151 = DIRECTION('',(-2.22044604925E-16,1.,-5.551115123126E-16));
#152 = PLANE('',#153);
#153 = AXIS2_PLACEMENT_3D('',#154,#155,#156);
#154 = CARTESIAN_POINT('',(-1.623354248378E-15,-1.434670849676E-15,
    2.924375035234));
#155 = DIRECTION('',(1.,-4.440892098501E-16,-1.110223024625E-16));
#156 = DIRECTION('',(-5.551115123126E-16,-1.110223024625E-16,1.));
#157 = ADVANCED_FACE('',(#158,#176),#187,.T.);
#158 = FACE_BOUND('',#159,.T.);
#159 = EDGE_LOOP('',(#160,#168,#174,#175));
#160 = ORIENTED_EDGE('',*,*,#161,.T.);
#161 = EDGE_CURVE('',#129,#162,#164,.T.);
#162 = VERTEX_POINT('',#163);
#163 = CARTESIAN_POINT('',(16.,-8.,12.));
#164 = LINE('',#165,#166);
#165 = CARTESIAN_POINT('',(13.,-8.,12.));
#166 = VECTOR('',#167,1.);
#167 = DIRECTION('',(1.,-6.640892098501E-16,-1.110223024625E-16));
#168 = ORIENTED_EDGE('',*,*,#169,.T.);
#169 = EDGE_CURVE('',#162,#40,#170,.T.);
#170 = LINE('',#171,#172);
#171 = CARTESIAN_POINT('',(16.,-8.,12.));
#172 = VECTOR('',#173,1.);
#173 = DIRECTION('',(-2.22044604925E-16,1.,-5.551115123126E-16));
#174 = ORIENTED_EDGE('',*,*,#39,.F.);
#175 = ORIENTED_EDGE('',*,*,#128,.F.);
#176 = FACE_BOUND('',#177,.T.);
#177 = EDGE_LOOP('',(#178));
#178 = ORIENTED_EDGE('',*,*,#179,.F.);
#179 = EDGE_CURVE('',#180,#180,#182,.T.);
#180 = VERTEX_POINT('',#181);
#181 = CARTESIAN_POINT('',(9.,-1.5,12.));
#182 = CIRCLE('',#183,1.5);
#183 = AXIS2_PLACEMENT_3D('',#184,#185,#186);
#184 = CARTESIAN_POINT('',(9.,-7.329070518201E-15,12.));
#185 = DIRECTION('',(-1.089776975375E-16,5.551115123126E-16,1.));
#186 = DIRECTION('',(2.22044604925E-16,-1.,5.551115123126E-16));
#187 = PLANE('',#188);
#188 = AXIS2_PLACEMENT_3D('',#189,#190,#191);
#189 = CARTESIAN_POINT('',(8.,-5.324981308351E-15,12.));
#190 = DIRECTION('',(-1.165111512313E-15,5.489776975375E-16,1.));
#191 = DIRECTION('',(-2.22044604925E-16,1.,-1.215111512313E-15));
#192 = ADVANCED_FACE('',(#193),#238,.T.);
#193 = FACE_BOUND('',#194,.F.);
#194 = EDGE_LOOP('',(#195,#206,#214,#223,#230,#231));
#195 = ORIENTED_EDGE('',*,*,#196,.T.);
#196 = EDGE_CURVE('',#197,#199,#201,.T.);
#197 = VERTEX_POINT('',#198);
#198 = CARTESIAN_POINT('',(4.4,7.5,5.174870432304));
#199 = VERTEX_POINT('',#200);
#200 = CARTESIAN_POINT('',(4.4,6.242933152856,5.387558412581));
#201 = CIRCLE('',#202,1.);
#202 = AXIS2_PLACEMENT_3D('',#203,#204,#205);
#203 = CARTESIAN_POINT('',(4.4,7.,6.040895836088));
#204 = DIRECTION('',(-1.,-8.628166150855E-32,-3.330669073875E-16));
#205 = DIRECTION('',(3.330669073875E-16,-1.110223024625E-16,-1.));
#206 = ORIENTED_EDGE('',*,*,#207,.T.);
#207 = EDGE_CURVE('',#199,#208,#210,.T.);
#208 = VERTEX_POINT('',#209);
#209 = CARTESIAN_POINT('',(13.4,6.242933152856,5.387558412581));
#210 = LINE('',#211,#212);
#211 = CARTESIAN_POINT('',(4.4,6.242933152856,5.387558412581));
#212 = VECTOR('',#213,1.);
#213 = DIRECTION('',(1.,8.628166150855E-32,3.330669073875E-16));
#214 = ORIENTED_EDGE('',*,*,#215,.F.);
#215 = EDGE_CURVE('',#216,#208,#218,.T.);
#216 = VERTEX_POINT('',#217);
#217 = CARTESIAN_POINT('',(13.4,7.5,5.174870432304));
#218 = CIRCLE('',#219,1.);
#219 = AXIS2_PLACEMENT_3D('',#220,#221,#222);
#220 = CARTESIAN_POINT('',(13.4,7.,6.040895836088));
#221 = DIRECTION('',(-1.,-8.628166150855E-32,-3.330669073875E-16));
#222 = DIRECTION('',(3.330669073875E-16,-1.110223024625E-16,-1.));
#223 = ORIENTED_EDGE('',*,*,#224,.T.);
#224 = EDGE_CURVE('',#216,#64,#225,.T.);
#225 = ELLIPSE('',#226,1.414213562373,1.);
#226 = AXIS2_PLACEMENT_3D('',#227,#228,#229);
#227 = CARTESIAN_POINT('',(12.9,7.,6.040895836088));
#228 = DIRECTION('',(0.707106781187,-0.707106781187,2.822211970243E-16)
  );
#229 = DIRECTION('',(0.707106781187,0.707106781187,1.888065405808E-16));
#230 = ORIENTED_EDGE('',*,*,#71,.F.);
#231 = ORIENTED_EDGE('',*,*,#232,.F.);
#232 = EDGE_CURVE('',#197,#72,#233,.T.);
#233 = ELLIPSE('',#234,1.414213562373,1.);
#234 = AXIS2_PLACEMENT_3D('',#235,#236,#237);
#235 = CARTESIAN_POINT('',(4.9,7.,6.040895836088));
#236 = DIRECTION('',(0.707106781187,0.707106781187,-2.504239023119E-16)
  );
#237 = DIRECTION('',(0.707106781187,-0.707106781187,7.214516399171E-16)
  );
#238 = CYLINDRICAL_SURFACE('',#239,1.);
#239 = AXIS2_PLACEMENT_3D('',#240,#241,#242);
#240 = CARTESIAN_POINT('',(4.4,7.,6.040895836088));
#241 = DIRECTION('',(1.,8.628166150855E-32,3.330669073875E-16));
#242 = DIRECTION('',(-4.930380657631E-32,1.,-1.110223024625E-16));
#243 = ADVANCED_FACE('',(#244,#263),#274,.T.);
#244 = FACE_BOUND('',#245,.T.);
#245 = EDGE_LOOP('',(#246,#255,#256,#257));
#246 = ORIENTED_EDGE('',*,*,#247,.T.);
#247 = EDGE_CURVE('',#248,#48,#250,.T.);
#248 = VERTEX_POINT('',#249);
#249 = CARTESIAN_POINT('',(16.,-8.,1.04408920985E-14));
#250 = CIRCLE('',#251,8.);
#251 = AXIS2_PLACEMENT_3D('',#252,#253,#254);
#252 = CARTESIAN_POINT('',(16.,-7.552713678801E-15,-7.105427357601E-15)
  );
#253 = DIRECTION('',(1.,2.22044604925E-16,5.551115123126E-16));
#254 = DIRECTION('',(-2.22044604925E-16,1.,-5.551115123126E-16));
#255 = ORIENTED_EDGE('',*,*,#47,.F.);
#256 = ORIENTED_EDGE('',*,*,#169,.F.);
#257 = ORIENTED_EDGE('',*,*,#258,.F.);
#258 = EDGE_CURVE('',#248,#162,#259,.T.);
#259 = LINE('',#260,#261);
#260 = CARTESIAN_POINT('',(16.,-8.,1.7763568394E-15));
#261 = VECTOR('',#262,1.);
#262 = DIRECTION('',(-5.551115123126E-16,7.789776975375E-16,1.));
#263 = FACE_BOUND('',#264,.F.);
#264 = EDGE_LOOP('',(#265));
#265 = ORIENTED_EDGE('',*,*,#266,.T.);
#266 = EDGE_CURVE('',#267,#267,#269,.T.);
#267 = VERTEX_POINT('',#268);
#268 = CARTESIAN_POINT('',(16.,2.5,1.943689570931E-15));
#269 = CIRCLE('',#270,2.5);
#270 = AXIS2_PLACEMENT_3D('',#271,#272,#273);
#271 = CARTESIAN_POINT('',(16.,-7.552713678801E-15,-7.105427357601E-15)
  );
#272 = DIRECTION('',(1.,2.22044604925E-16,5.551115123126E-16));
#273 = DIRECTION('',(-2.22044604925E-16,1.,-5.551115123126E-16));
#274 = PLANE('',#275);
#275 = AXIS2_PLACEMENT_3D('',#276,#277,#278);
#276 = CARTESIAN_POINT('',(16.,-8.613964392502E-15,2.924375035234));
#277 = DIRECTION('',(1.,-4.440892098501E-16,-1.110223024625E-16));
#278 = DIRECTION('',(-5.551115123126E-16,-1.110223024625E-16,1.));
#279 = ADVANCED_FACE('',(#280),#299,.T.);
#280 = FACE_BOUND('',#281,.F.);
#281 = EDGE_LOOP('',(#282,#283,#292,#298));
#282 = ORIENTED_EDGE('',*,*,#55,.F.);
#283 = ORIENTED_EDGE('',*,*,#284,.T.);
#284 = EDGE_CURVE('',#56,#285,#287,.T.);
#285 = VERTEX_POINT('',#286);
#286 = CARTESIAN_POINT('',(13.9,-8.,5.035407010249E-15));
#287 = CIRCLE('',#288,8.);
#288 = AXIS2_PLACEMENT_3D('',#289,#290,#291);
#289 = CARTESIAN_POINT('',(13.9,-8.656579864025E-15,3.183050148661E-15)
  );
#290 = DIRECTION('',(-1.,-8.628166150855E-32,-3.330669073875E-16));
#291 = DIRECTION('',(1.795385368322E-31,1.,-7.980984974633E-16));
#292 = ORIENTED_EDGE('',*,*,#293,.T.);
#293 = EDGE_CURVE('',#285,#248,#294,.T.);
#294 = LINE('',#295,#296);
#295 = CARTESIAN_POINT('',(13.,-8.,1.074760216649E-14));
#296 = VECTOR('',#297,1.);
#297 = DIRECTION('',(1.,-6.640892098501E-16,-1.110223024625E-16));
#298 = ORIENTED_EDGE('',*,*,#247,.T.);
#299 = CYLINDRICAL_SURFACE('',#300,8.);
#300 = AXIS2_PLACEMENT_3D('',#301,#302,#303);
#301 = CARTESIAN_POINT('',(13.,-1.154315972805E-14,-3.289932012699E-18)
  );
#302 = DIRECTION('',(-1.,4.440892098501E-16,-1.089776975375E-16));
#303 = DIRECTION('',(-2.22044604925E-16,1.,-7.751115123126E-16));
#304 = ADVANCED_FACE('',(#305),#331,.T.);
#305 = FACE_BOUND('',#306,.T.);
#306 = EDGE_LOOP('',(#307,#315,#324,#330));
#307 = ORIENTED_EDGE('',*,*,#308,.F.);
#308 = EDGE_CURVE('',#309,#24,#311,.T.);
#309 = VERTEX_POINT('',#310);
#310 = CARTESIAN_POINT('',(4.4,7.5,-5.673239655835E-15));
#311 = LINE('',#312,#313);
#312 = CARTESIAN_POINT('',(4.15,7.75,-5.728750807066E-15));
#313 = VECTOR('',#314,1.);
#314 = DIRECTION('',(-0.707106781187,0.707106781187,-3.140184917368E-16)
  );
#315 = ORIENTED_EDGE('',*,*,#316,.T.);
#316 = EDGE_CURVE('',#309,#317,#319,.T.);
#317 = VERTEX_POINT('',#318);
#318 = CARTESIAN_POINT('',(4.4,-7.5,-1.209228551629E-16));
#319 = CIRCLE('',#320,7.5);
#320 = AXIS2_PLACEMENT_3D('',#321,#322,#323);
#321 = CARTESIAN_POINT('',(4.4,3.599177880071E-31,1.465494392505E-15));
#322 = DIRECTION('',(-1.,-8.628166150855E-32,-3.330669073875E-16));
#323 = DIRECTION('',(1.798790319518E-31,1.,-7.991207999258E-16));
#324 = ORIENTED_EDGE('',*,*,#325,.T.);
#325 = EDGE_CURVE('',#317,#104,#326,.T.);
#326 = LINE('',#327,#328);
#327 = CARTESIAN_POINT('',(3.9,-8.,-3.932174587012E-16));
#328 = VECTOR('',#329,1.);
#329 = DIRECTION('',(-0.707106781187,-0.707106781187,-3.850827212849E-16
    ));
#330 = ORIENTED_EDGE('',*,*,#111,.F.);
#331 = CONICAL_SURFACE('',#332,8.,0.785398163397);
#332 = AXIS2_PLACEMENT_3D('',#333,#334,#335);
#333 = CARTESIAN_POINT('',(3.9,3.167769572528E-31,1.298960938811E-15));
#334 = DIRECTION('',(-1.,-8.628166150855E-32,-3.330669073875E-16));
#335 = DIRECTION('',(1.798790319518E-31,1.,-7.991207999258E-16));
#336 = ADVANCED_FACE('',(#337),#366,.T.);
#337 = FACE_BOUND('',#338,.T.);
#338 = EDGE_LOOP('',(#339,#340,#348,#356,#362,#363,#364,#365));
#339 = ORIENTED_EDGE('',*,*,#103,.T.);
#340 = ORIENTED_EDGE('',*,*,#341,.T.);
#341 = EDGE_CURVE('',#104,#342,#344,.T.);
#342 = VERTEX_POINT('',#343);
#343 = CARTESIAN_POINT('',(3.9,-8.,6.040895836088));
#344 = LINE('',#345,#346);
#345 = CARTESIAN_POINT('',(3.9,-8.,3.097522238704E-15));
#346 = VECTOR('',#347,1.);
#347 = DIRECTION('',(-1.110223024625E-16,7.430669073875E-16,1.));
#348 = ORIENTED_EDGE('',*,*,#349,.F.);
#349 = EDGE_CURVE('',#350,#342,#352,.T.);
#350 = VERTEX_POINT('',#351);
#351 = CARTESIAN_POINT('',(13.9,-8.,6.040895836088));
#352 = LINE('',#353,#354);
#353 = CARTESIAN_POINT('',(4.4,-8.,6.040895836088));
#354 = VECTOR('',#355,1.);
#355 = DIRECTION('',(-1.,-8.628166150855E-32,-3.330669073875E-16));
#356 = ORIENTED_EDGE('',*,*,#357,.F.);
#357 = EDGE_CURVE('',#285,#350,#358,.T.);
#358 = LINE('',#359,#360);
#359 = CARTESIAN_POINT('',(13.9,-8.,2.));
#360 = VECTOR('',#361,1.);
#361 = DIRECTION('',(-1.110223024625E-16,7.430669073875E-16,1.));
#362 = ORIENTED_EDGE('',*,*,#293,.T.);
#363 = ORIENTED_EDGE('',*,*,#258,.T.);
#364 = ORIENTED_EDGE('',*,*,#161,.F.);
#365 = ORIENTED_EDGE('',*,*,#136,.F.);
#366 = PLANE('',#367);
#367 = AXIS2_PLACEMENT_3D('',#368,#369,#370);
#368 = CARTESIAN_POINT('',(8.063333333333,-8.,5.936666666667));
#369 = DIRECTION('',(2.22044604925E-16,-1.,9.651115123126E-16));
#370 = DIRECTION('',(5.551115123126E-16,-2.989776975375E-16,-1.));
#371 = ADVANCED_FACE('',(#372,#406),#417,.T.);
#372 = FACE_BOUND('',#373,.T.);
#373 = EDGE_LOOP('',(#374,#375,#384,#393,#399,#400));
#374 = ORIENTED_EDGE('',*,*,#196,.T.);
#375 = ORIENTED_EDGE('',*,*,#376,.T.);
#376 = EDGE_CURVE('',#199,#377,#379,.T.);
#377 = VERTEX_POINT('',#378);
#378 = CARTESIAN_POINT('',(4.4,-6.242933152856,5.387558412581));
#379 = CIRCLE('',#380,8.246211251235);
#380 = AXIS2_PLACEMENT_3D('',#381,#382,#383);
#381 = CARTESIAN_POINT('',(4.4,-9.769962616701E-16,-2.6645352591E-15));
#382 = DIRECTION('',(1.,2.22044604925E-16,5.551115123126E-16));
#383 = DIRECTION('',(-2.22044604925E-16,1.,-5.551115123126E-16));
#384 = ORIENTED_EDGE('',*,*,#385,.F.);
#385 = EDGE_CURVE('',#386,#377,#388,.T.);
#386 = VERTEX_POINT('',#387);
#387 = CARTESIAN_POINT('',(4.4,-7.5,5.174870432304));
#388 = CIRCLE('',#389,1.);
#389 = AXIS2_PLACEMENT_3D('',#390,#391,#392);
#390 = CARTESIAN_POINT('',(4.4,-7.,6.040895836088));
#391 = DIRECTION('',(1.,8.628166150855E-32,3.330669073875E-16));
#392 = DIRECTION('',(3.330669073875E-16,-1.110223024625E-16,-1.));
#393 = ORIENTED_EDGE('',*,*,#394,.F.);
#394 = EDGE_CURVE('',#317,#386,#395,.T.);
#395 = LINE('',#396,#397);
#396 = CARTESIAN_POINT('',(4.4,-7.5,2.));
#397 = VECTOR('',#398,1.);
#398 = DIRECTION('',(-1.110223024625E-16,7.430669073875E-16,1.));
#399 = ORIENTED_EDGE('',*,*,#316,.F.);
#400 = ORIENTED_EDGE('',*,*,#401,.F.);
#401 = EDGE_CURVE('',#197,#309,#402,.T.);
#402 = LINE('',#403,#404);
#403 = CARTESIAN_POINT('',(4.4,7.5,2.));
#404 = VECTOR('',#405,1.);
#405 = DIRECTION('',(1.110223024625E-16,-3.330669073875E-16,-1.));
#406 = FACE_BOUND('',#407,.T.);
#407 = EDGE_LOOP('',(#408));
#408 = ORIENTED_EDGE('',*,*,#409,.F.);
#409 = EDGE_CURVE('',#410,#410,#412,.T.);
#410 = VERTEX_POINT('',#411);
#411 = CARTESIAN_POINT('',(4.4,4.,-8.437694987151E-16));
#412 = CIRCLE('',#413,4.);
#413 = AXIS2_PLACEMENT_3D('',#414,#415,#416);
#414 = CARTESIAN_POINT('',(4.4,-9.769962616701E-16,-2.6645352591E-15));
#415 = DIRECTION('',(1.,2.22044604925E-16,5.551115123126E-16));
#416 = DIRECTION('',(-2.22044604925E-16,1.,-5.551115123126E-16));
#417 = PLANE('',#418);
#418 = AXIS2_PLACEMENT_3D('',#419,#420,#421);
#419 = CARTESIAN_POINT('',(4.4,-3.371926875997E-15,2.6645352591E-15));
#420 = DIRECTION('',(1.,-4.440892098501E-16,-1.110223024625E-16));
#421 = DIRECTION('',(-5.551115123126E-16,-1.110223024625E-16,1.));
#422 = ADVANCED_FACE('',(#423),#442,.F.);
#423 = FACE_BOUND('',#424,.T.);
#424 = EDGE_LOOP('',(#425,#433,#440,#441));
#425 = ORIENTED_EDGE('',*,*,#426,.T.);
#426 = EDGE_CURVE('',#145,#427,#429,.T.);
#427 = VERTEX_POINT('',#428);
#428 = CARTESIAN_POINT('',(4.9,2.5,-2.886579864025E-16));
#429 = LINE('',#430,#431);
#430 = CARTESIAN_POINT('',(-5.551115123126E-16,2.5,-1.947778780781E-15)
  );
#431 = VECTOR('',#432,1.);
#432 = DIRECTION('',(1.,-6.640892098501E-16,-1.110223024625E-16));
#433 = ORIENTED_EDGE('',*,*,#434,.T.);
#434 = EDGE_CURVE('',#427,#427,#435,.T.);
#435 = CIRCLE('',#436,2.5);
#436 = AXIS2_PLACEMENT_3D('',#437,#438,#439);
#437 = CARTESIAN_POINT('',(4.9,-2.088018564133E-15,-2.6645352591E-15));
#438 = DIRECTION('',(1.,2.22044604925E-16,5.551115123126E-16));
#439 = DIRECTION('',(-2.22044604925E-16,1.,-5.551115123126E-16));
#440 = ORIENTED_EDGE('',*,*,#426,.F.);
#441 = ORIENTED_EDGE('',*,*,#144,.F.);
#442 = CYLINDRICAL_SURFACE('',#443,2.5);
#443 = AXIS2_PLACEMENT_3D('',#444,#445,#446);
#444 = CARTESIAN_POINT('',(0.,0.,0.));
#445 = DIRECTION('',(-1.,4.440892098501E-16,-1.089776975375E-16));
#446 = DIRECTION('',(-2.22044604925E-16,1.,-7.751115123126E-16));
#447 = ADVANCED_FACE('',(#448),#467,.F.);
#448 = FACE_BOUND('',#449,.T.);
#449 = EDGE_LOOP('',(#450,#458,#465,#466));
#450 = ORIENTED_EDGE('',*,*,#451,.F.);
#451 = EDGE_CURVE('',#452,#180,#454,.T.);
#452 = VERTEX_POINT('',#453);
#453 = CARTESIAN_POINT('',(9.,-1.5,10.));
#454 = LINE('',#455,#456);
#455 = CARTESIAN_POINT('',(9.,-1.5,10.));
#456 = VECTOR('',#457,1.);
#457 = DIRECTION('',(-7.751115123126E-16,-5.102230246252E-17,1.));
#458 = ORIENTED_EDGE('',*,*,#459,.T.);
#459 = EDGE_CURVE('',#452,#452,#460,.T.);
#460 = CIRCLE('',#461,1.5);
#461 = AXIS2_PLACEMENT_3D('',#462,#463,#464);
#462 = CARTESIAN_POINT('',(9.,-8.881784197001E-15,10.));
#463 = DIRECTION('',(1.089776975375E-16,-5.551115123126E-16,-1.));
#464 = DIRECTION('',(2.22044604925E-16,-1.,5.551115123126E-16));
#465 = ORIENTED_EDGE('',*,*,#451,.T.);
#466 = ORIENTED_EDGE('',*,*,#179,.T.);
#467 = CYLINDRICAL_SURFACE('',#468,1.5);
#468 = AXIS2_PLACEMENT_3D('',#469,#470,#471);
#469 = CARTESIAN_POINT('',(9.,-8.881784197001E-15,10.));
#470 = DIRECTION('',(-7.751115123126E-16,-1.110223024625E-16,1.));
#471 = DIRECTION('',(2.22044604925E-16,-1.,5.551115123126E-16));
#472 = ADVANCED_FACE('',(#473,#492),#580,.F.);
#473 = FACE_BOUND('',#474,.F.);
#474 = EDGE_LOOP('',(#475,#484,#485,#486));
#475 = ORIENTED_EDGE('',*,*,#476,.F.);
#476 = EDGE_CURVE('',#208,#477,#479,.T.);
#477 = VERTEX_POINT('',#478);
#478 = CARTESIAN_POINT('',(13.4,-6.242933152856,5.387558412581));
#479 = CIRCLE('',#480,8.246211251235);
#480 = AXIS2_PLACEMENT_3D('',#481,#482,#483);
#481 = CARTESIAN_POINT('',(13.4,-2.975397705995E-15,-8.881784197001E-15)
  );
#482 = DIRECTION('',(1.,2.22044604925E-16,5.551115123126E-16));
#483 = DIRECTION('',(-2.22044604925E-16,1.,-5.551115123126E-16));
#484 = ORIENTED_EDGE('',*,*,#207,.F.);
#485 = ORIENTED_EDGE('',*,*,#376,.T.);
#486 = ORIENTED_EDGE('',*,*,#487,.T.);
#487 = EDGE_CURVE('',#377,#477,#488,.T.);
#488 = LINE('',#489,#490);
#489 = CARTESIAN_POINT('',(4.4,-6.242933152856,5.387558412581));
#490 = VECTOR('',#491,1.);
#491 = DIRECTION('',(1.,8.628166150855E-32,3.330669073875E-16));
#492 = FACE_BOUND('',#493,.F.);
#493 = EDGE_LOOP('',(#494,#531,#539,#574));
#494 = ORIENTED_EDGE('',*,*,#495,.T.);
#495 = EDGE_CURVE('',#496,#498,#500,.T.);
#496 = VERTEX_POINT('',#497);
#497 = CARTESIAN_POINT('',(11.302715787934,2.,8.));
#498 = VERTEX_POINT('',#499);
#499 = CARTESIAN_POINT('',(11.302715787934,-2.,8.));
#500 = B_SPLINE_CURVE_WITH_KNOTS('',5,(#501,#502,#503,#504,#505,#506,
    #507,#508,#509,#510,#511,#512,#513,#514,#515,#516,#517,#518,#519,
    #520,#521,#522,#523,#524,#525,#526,#527,#528,#529,#530),
  .UNSPECIFIED.,.F.,.F.,(6,4,4,4,4,4,4,6),(0.,0.233123774877,
    0.327110055648,0.384346446264,0.50404367858,0.671141344672,
    0.766388309391,1.),.UNSPECIFIED.);
#501 = CARTESIAN_POINT('',(11.302150605488,2.000650541612,7.999837336493
    ));
#502 = CARTESIAN_POINT('',(11.421791412029,1.862979744293,8.03426693095)
  );
#503 = CARTESIAN_POINT('',(11.534138368779,1.712916738241,8.068648434872
    ));
#504 = CARTESIAN_POINT('',(11.637484054967,1.550343853489,8.101949112021
    ));
#505 = CARTESIAN_POINT('',(11.729874568843,1.375329872011,8.132908222682
    ));
#506 = CARTESIAN_POINT('',(11.840900845172,1.112873161881,8.171127251644
    ));
#507 = CARTESIAN_POINT('',(11.870628580536,1.035546631275,8.181498219633
    ));
#508 = CARTESIAN_POINT('',(11.8980017723,0.956417627427,8.191156948641)
  );
#509 = CARTESIAN_POINT('',(11.922853782917,0.875612817481,8.200008880468
    ));
#510 = CARTESIAN_POINT('',(11.958540169773,0.743126508746,8.21281321989)
  );
#511 = CARTESIAN_POINT('',(11.971053547133,0.692421156204,8.217327270779
    ));
#512 = CARTESIAN_POINT('',(11.982536716609,0.641196715506,8.221488626976
    ));
#513 = CARTESIAN_POINT('',(11.992956568477,0.589502430879,8.225278938095
    ));
#514 = CARTESIAN_POINT('',(12.021788708892,0.428425013254,8.235798515861
    ));
#515 = CARTESIAN_POINT('',(12.036523039763,0.317602232107,8.241224596879
    ));
#516 = CARTESIAN_POINT('',(12.046196053669,0.205540638839,8.244804484763
    ));
#517 = CARTESIAN_POINT('',(12.050665856225,9.287131986661E-02,
    8.246457524687));
#518 = CARTESIAN_POINT('',(12.04891703234,-0.177003220782,8.245810704467
    ));
#519 = CARTESIAN_POINT('',(12.037766089619,-0.333904285327,
    8.241687115921));
#520 = CARTESIAN_POINT('',(12.016568220597,-0.488848364241,
    8.233850208311));
#521 = CARTESIAN_POINT('',(11.985887118574,-0.640277311627,
    8.222632797926));
#522 = CARTESIAN_POINT('',(11.924500582731,-0.870207875242,8.20059576856
    ));
#523 = CARTESIAN_POINT('',(11.899465385462,-0.952118998266,
    8.191674049402));
#524 = CARTESIAN_POINT('',(11.871838736322,-1.03231689978,8.18192155226)
  );
#525 = CARTESIAN_POINT('',(11.841793607972,-1.110669024188,
    8.171436394266));
#526 = CARTESIAN_POINT('',(11.730360028207,-1.374409580059,
    8.133070912701));
#527 = CARTESIAN_POINT('',(11.637891579,-1.549702791986,8.102080445862)
  );
#528 = CARTESIAN_POINT('',(11.534433147803,-1.712523283663,
    8.068738616061));
#529 = CARTESIAN_POINT('',(11.421947445496,-1.862800196425,
    8.034311833431));
#530 = CARTESIAN_POINT('',(11.302150605488,-2.000650541612,
    7.999837336493));
#531 = ORIENTED_EDGE('',*,*,#532,.T.);
#532 = EDGE_CURVE('',#498,#533,#535,.T.);
#533 = VERTEX_POINT('',#534);
#534 = CARTESIAN_POINT('',(6.697284212066,-2.,8.));
#535 = LINE('',#536,#537);
#536 = CARTESIAN_POINT('',(4.9,-2.,8.));
#537 = VECTOR('',#538,1.);
#538 = DIRECTION('',(-1.,8.840892098501E-16,-3.289776975375E-16));
#539 = ORIENTED_EDGE('',*,*,#540,.T.);
#540 = EDGE_CURVE('',#533,#541,#543,.T.);
#541 = VERTEX_POINT('',#542);
#542 = CARTESIAN_POINT('',(6.697284212066,2.,8.));
#543 = B_SPLINE_CURVE_WITH_KNOTS('',5,(#544,#545,#546,#547,#548,#549,
    #550,#551,#552,#553,#554,#555,#556,#557,#558,#559,#560,#561,#562,
    #563,#564,#565,#566,#567,#568,#569,#570,#571,#572,#573),
  .UNSPECIFIED.,.F.,.F.,(6,4,4,4,4,4,4,6),(0.,0.233123833598,
    0.327110126798,0.384346517521,0.504043749994,0.671141416169,
    0.766388368348,1.),.UNSPECIFIED.);
#544 = CARTESIAN_POINT('',(6.697849394512,-2.000650541612,7.999837336493
    ));
#545 = CARTESIAN_POINT('',(6.578208587971,-1.862979744293,8.03426693095)
  );
#546 = CARTESIAN_POINT('',(6.465861631221,-1.71291673824,8.068648434872)
  );
#547 = CARTESIAN_POINT('',(6.362515945032,-1.550343853488,8.101949112021
    ));
#548 = CARTESIAN_POINT('',(6.270125431155,-1.375329872009,8.132908222682
    ));
#549 = CARTESIAN_POINT('',(6.159099158644,-1.1128731709,8.17112725033));
#550 = CARTESIAN_POINT('',(6.129371416871,-1.035546622642,8.181498220553
    ));
#551 = CARTESIAN_POINT('',(6.101998224645,-0.956417619651,8.191156949699
    ));
#552 = CARTESIAN_POINT('',(6.077146219973,-0.875612828213,8.20000887943)
  );
#553 = CARTESIAN_POINT('',(6.041459830225,-0.743126508741,8.212813219891
    ));
#554 = CARTESIAN_POINT('',(6.028946452866,-0.692421156198,8.21732727078)
  );
#555 = CARTESIAN_POINT('',(6.01746328339,-0.6411967155,8.221488626976));
#556 = CARTESIAN_POINT('',(6.007043431522,-0.589502430873,8.225278938095
    ));
#557 = CARTESIAN_POINT('',(5.978211291118,-0.428425013307,8.235798515858
    ));
#558 = CARTESIAN_POINT('',(5.96347696022,-0.317602232036,8.241224596886)
  );
#559 = CARTESIAN_POINT('',(5.953803946338,-0.205540638772,8.244804484761
    ));
#560 = CARTESIAN_POINT('',(5.949334143773,-9.287131993687E-02,
    8.246457524688));
#561 = CARTESIAN_POINT('',(5.951082967661,0.177003220796,8.245810704466)
  );
#562 = CARTESIAN_POINT('',(5.962233910383,0.333904285338,8.241687115921)
  );
#563 = CARTESIAN_POINT('',(5.983431779404,0.488848364248,8.233850208311)
  );
#564 = CARTESIAN_POINT('',(6.014112881427,0.64027731163,8.222632797926)
  );
#565 = CARTESIAN_POINT('',(6.075499414323,0.870207864208,8.200595769617)
  );
#566 = CARTESIAN_POINT('',(6.100534617659,0.952119006222,8.19167404832)
  );
#567 = CARTESIAN_POINT('',(6.128161266321,1.032316908637,8.181921551321)
  );
#568 = CARTESIAN_POINT('',(6.158206388127,1.110669014956,8.171436395609)
  );
#569 = CARTESIAN_POINT('',(6.269639971803,1.374409580083,8.133070912697)
  );
#570 = CARTESIAN_POINT('',(6.362108420996,1.549702791966,8.102080445863)
  );
#571 = CARTESIAN_POINT('',(6.465566852179,1.712523283647,8.068738616066)
  );
#572 = CARTESIAN_POINT('',(6.57805255452,1.862800196443,8.034311833426)
  );
#573 = CARTESIAN_POINT('',(6.697849394512,2.000650541612,7.999837336493)
  );
#574 = ORIENTED_EDGE('',*,*,#575,.F.);
#575 = EDGE_CURVE('',#496,#541,#576,.T.);
#576 = LINE('',#577,#578);
#577 = CARTESIAN_POINT('',(4.9,2.,8.));
#578 = VECTOR('',#579,1.);
#579 = DIRECTION('',(-1.,8.840892098501E-16,-3.289776975375E-16));
#580 = CYLINDRICAL_SURFACE('',#581,8.246211251235);
#581 = AXIS2_PLACEMENT_3D('',#582,#583,#584);
#582 = CARTESIAN_POINT('',(13.4,-2.975397705995E-15,1.487698852998E-15)
  );
#583 = DIRECTION('',(1.,8.628166150855E-32,3.330669073875E-16));
#584 = DIRECTION('',(2.465190328816E-32,1.,-3.330669073875E-16));
#585 = ADVANCED_FACE('',(#586,#622),#633,.F.);
#586 = FACE_BOUND('',#587,.F.);
#587 = EDGE_LOOP('',(#588,#589,#590,#599,#607,#616));
#588 = ORIENTED_EDGE('',*,*,#215,.T.);
#589 = ORIENTED_EDGE('',*,*,#476,.T.);
#590 = ORIENTED_EDGE('',*,*,#591,.F.);
#591 = EDGE_CURVE('',#592,#477,#594,.T.);
#592 = VERTEX_POINT('',#593);
#593 = CARTESIAN_POINT('',(13.4,-7.5,5.174870432304));
#594 = CIRCLE('',#595,1.);
#595 = AXIS2_PLACEMENT_3D('',#596,#597,#598);
#596 = CARTESIAN_POINT('',(13.4,-7.,6.040895836088));
#597 = DIRECTION('',(1.,8.628166150855E-32,3.330669073875E-16));
#598 = DIRECTION('',(3.330669073875E-16,-1.110223024625E-16,-1.));
#599 = ORIENTED_EDGE('',*,*,#600,.F.);
#600 = EDGE_CURVE('',#601,#592,#603,.T.);
#601 = VERTEX_POINT('',#602);
#602 = CARTESIAN_POINT('',(13.4,-7.5,4.753101252706E-15));
#603 = LINE('',#604,#605);
#604 = CARTESIAN_POINT('',(13.4,-7.5,6.001146707655E-15));
#605 = VECTOR('',#606,1.);
#606 = DIRECTION('',(-1.110223024625E-16,7.430669073875E-16,1.));
#607 = ORIENTED_EDGE('',*,*,#608,.F.);
#608 = EDGE_CURVE('',#609,#601,#611,.T.);
#609 = VERTEX_POINT('',#610);
#610 = CARTESIAN_POINT('',(13.4,7.5,2.109423746788E-16));
#611 = CIRCLE('',#612,7.5);
#612 = AXIS2_PLACEMENT_3D('',#613,#614,#615);
#613 = CARTESIAN_POINT('',(13.4,-8.656579864025E-15,3.016516694968E-15)
  );
#614 = DIRECTION('',(-1.,-8.628166150855E-32,-3.330669073875E-16));
#615 = DIRECTION('',(1.795385368322E-31,1.,-7.980984974633E-16));
#616 = ORIENTED_EDGE('',*,*,#617,.F.);
#617 = EDGE_CURVE('',#216,#609,#618,.T.);
#618 = LINE('',#619,#620);
#619 = CARTESIAN_POINT('',(13.4,7.5,6.040895836088));
#620 = VECTOR('',#621,1.);
#621 = DIRECTION('',(1.110223024625E-16,-3.330669073875E-16,-1.));
#622 = FACE_BOUND('',#623,.F.);
#623 = EDGE_LOOP('',(#624));
#624 = ORIENTED_EDGE('',*,*,#625,.F.);
#625 = EDGE_CURVE('',#626,#626,#628,.T.);
#626 = VERTEX_POINT('',#627);
#627 = CARTESIAN_POINT('',(13.4,4.,1.554312234475E-16));
#628 = CIRCLE('',#629,4.);
#629 = AXIS2_PLACEMENT_3D('',#630,#631,#632);
#630 = CARTESIAN_POINT('',(13.4,-2.975397705995E-15,-8.881784197001E-15)
  );
#631 = DIRECTION('',(1.,2.22044604925E-16,5.551115123126E-16));
#632 = DIRECTION('',(-2.22044604925E-16,1.,-5.551115123126E-16));
#633 = PLANE('',#634);
#634 = AXIS2_PLACEMENT_3D('',#635,#636,#637);
#635 = CARTESIAN_POINT('',(13.4,-5.370328320322E-15,-2.6645352591E-15));
#636 = DIRECTION('',(1.,-4.440892098501E-16,-1.110223024625E-16));
#637 = DIRECTION('',(-5.551115123126E-16,-1.110223024625E-16,1.));
#638 = ADVANCED_FACE('',(#639),#658,.F.);
#639 = FACE_BOUND('',#640,.T.);
#640 = EDGE_LOOP('',(#641,#649,#650,#651));
#641 = ORIENTED_EDGE('',*,*,#642,.T.);
#642 = EDGE_CURVE('',#643,#267,#645,.T.);
#643 = VERTEX_POINT('',#644);
#644 = CARTESIAN_POINT('',(13.,2.5,1.610622663544E-15));
#645 = LINE('',#646,#647);
#646 = CARTESIAN_POINT('',(13.,2.5,-1.941068712794E-15));
#647 = VECTOR('',#648,1.);
#648 = DIRECTION('',(1.,-6.640892098501E-16,-1.110223024625E-16));
#649 = ORIENTED_EDGE('',*,*,#266,.T.);
#650 = ORIENTED_EDGE('',*,*,#642,.F.);
#651 = ORIENTED_EDGE('',*,*,#652,.F.);
#652 = EDGE_CURVE('',#643,#643,#653,.T.);
#653 = CIRCLE('',#654,2.5);
#654 = AXIS2_PLACEMENT_3D('',#655,#656,#657);
#655 = CARTESIAN_POINT('',(13.,-5.886579864025E-15,-7.105427357601E-15)
  );
#656 = DIRECTION('',(1.,2.22044604925E-16,5.551115123126E-16));
#657 = DIRECTION('',(-2.22044604925E-16,1.,-5.551115123126E-16));
#658 = CYLINDRICAL_SURFACE('',#659,2.5);
#659 = AXIS2_PLACEMENT_3D('',#660,#661,#662);
#660 = CARTESIAN_POINT('',(13.,-1.154315972805E-14,-3.289932012699E-18)
  );
#661 = DIRECTION('',(-1.,4.440892098501E-16,-1.089776975375E-16));
#662 = DIRECTION('',(-2.22044604925E-16,1.,-7.751115123126E-16));
#663 = ADVANCED_FACE('',(#664),#680,.T.);
#664 = FACE_BOUND('',#665,.F.);
#665 = EDGE_LOOP('',(#666,#672,#673,#679));
#666 = ORIENTED_EDGE('',*,*,#667,.F.);
#667 = EDGE_CURVE('',#609,#56,#668,.T.);
#668 = LINE('',#669,#670);
#669 = CARTESIAN_POINT('',(13.65,7.75,2.109423746788E-16));
#670 = VECTOR('',#671,1.);
#671 = DIRECTION('',(0.707106781187,0.707106781187,-1.570092458684E-16)
  );
#672 = ORIENTED_EDGE('',*,*,#608,.T.);
#673 = ORIENTED_EDGE('',*,*,#674,.T.);
#674 = EDGE_CURVE('',#601,#285,#675,.T.);
#675 = LINE('',#676,#677);
#676 = CARTESIAN_POINT('',(13.9,-8.,5.035407010249E-15));
#677 = VECTOR('',#678,1.);
#678 = DIRECTION('',(0.707106781187,-0.707106781187,3.992406310533E-16)
  );
#679 = ORIENTED_EDGE('',*,*,#284,.F.);
#680 = CONICAL_SURFACE('',#681,8.,0.785398163397);
#681 = AXIS2_PLACEMENT_3D('',#682,#683,#684);
#682 = CARTESIAN_POINT('',(13.9,-8.656579864025E-15,3.183050148661E-15)
  );
#683 = DIRECTION('',(1.,8.628166150855E-32,3.330669073875E-16));
#684 = DIRECTION('',(1.795385368322E-31,1.,-7.980984974633E-16));
#685 = ADVANCED_FACE('',(#686),#706,.T.);
#686 = FACE_BOUND('',#687,.T.);
#687 = EDGE_LOOP('',(#688,#689,#690,#691,#698,#699));
#688 = ORIENTED_EDGE('',*,*,#385,.T.);
#689 = ORIENTED_EDGE('',*,*,#487,.T.);
#690 = ORIENTED_EDGE('',*,*,#591,.F.);
#691 = ORIENTED_EDGE('',*,*,#692,.T.);
#692 = EDGE_CURVE('',#592,#350,#693,.T.);
#693 = ELLIPSE('',#694,1.414213562373,1.);
#694 = AXIS2_PLACEMENT_3D('',#695,#696,#697);
#695 = CARTESIAN_POINT('',(12.9,-7.,6.040895836088));
#696 = DIRECTION('',(-0.707106781187,-0.707106781187,5.008478046239E-16)
  );
#697 = DIRECTION('',(0.707106781187,-0.707106781187,9.71875542229E-16));
#698 = ORIENTED_EDGE('',*,*,#349,.T.);
#699 = ORIENTED_EDGE('',*,*,#700,.F.);
#700 = EDGE_CURVE('',#386,#342,#701,.T.);
#701 = ELLIPSE('',#702,1.414213562373,1.);
#702 = AXIS2_PLACEMENT_3D('',#703,#704,#705);
#703 = CARTESIAN_POINT('',(4.9,-7.,6.040895836088));
#704 = DIRECTION('',(-0.707106781187,0.707106781187,-6.578570504922E-16)
  );
#705 = DIRECTION('',(0.707106781187,0.707106781187,-1.868293128871E-16)
  );
#706 = CYLINDRICAL_SURFACE('',#707,1.);
#707 = AXIS2_PLACEMENT_3D('',#708,#709,#710);
#708 = CARTESIAN_POINT('',(4.4,-7.,6.040895836088));
#709 = DIRECTION('',(1.,8.628166150855E-32,3.330669073875E-16));
#710 = DIRECTION('',(-8.725362545258E-32,-1.,5.210223024625E-16));
#711 = ADVANCED_FACE('',(#712),#731,.T.);
#712 = FACE_BOUND('',#713,.T.);
#713 = EDGE_LOOP('',(#714,#723,#729,#730));
#714 = ORIENTED_EDGE('',*,*,#715,.F.);
#715 = EDGE_CURVE('',#716,#716,#718,.T.);
#716 = VERTEX_POINT('',#717);
#717 = CARTESIAN_POINT('',(4.9,4.,-7.882583474839E-16));
#718 = CIRCLE('',#719,4.);
#719 = AXIS2_PLACEMENT_3D('',#720,#721,#722);
#720 = CARTESIAN_POINT('',(4.9,-2.975397705995E-15,-1.343369859796E-15)
  );
#721 = DIRECTION('',(1.,8.628166150855E-32,3.330669073875E-16));
#722 = DIRECTION('',(2.465190328816E-32,1.,-3.330669073875E-16));
#723 = ORIENTED_EDGE('',*,*,#724,.T.);
#724 = EDGE_CURVE('',#716,#410,#725,.T.);
#725 = LINE('',#726,#727);
#726 = CARTESIAN_POINT('',(13.4,4.,1.554312234475E-16));
#727 = VECTOR('',#728,1.);
#728 = DIRECTION('',(-1.,2.22044604925E-16,-1.110223024625E-16));
#729 = ORIENTED_EDGE('',*,*,#409,.T.);
#730 = ORIENTED_EDGE('',*,*,#724,.F.);
#731 = CYLINDRICAL_SURFACE('',#732,4.);
#732 = AXIS2_PLACEMENT_3D('',#733,#734,#735);
#733 = CARTESIAN_POINT('',(13.4,-2.975397705995E-15,1.487698852998E-15)
  );
#734 = DIRECTION('',(1.,8.628166150855E-32,3.330669073875E-16));
#735 = DIRECTION('',(2.465190328816E-32,1.,-3.330669073875E-16));
#736 = ADVANCED_FACE('',(#737,#740),#743,.T.);
#737 = FACE_BOUND('',#738,.T.);
#738 = EDGE_LOOP('',(#739));
#739 = ORIENTED_EDGE('',*,*,#715,.T.);
#740 = FACE_BOUND('',#741,.T.);
#741 = EDGE_LOOP('',(#742));
#742 = ORIENTED_EDGE('',*,*,#434,.F.);
#743 = PLANE('',#744);
#744 = AXIS2_PLACEMENT_3D('',#745,#746,#747);
#745 = CARTESIAN_POINT('',(4.9,-3.522689413808E-15,2.924375035234));
#746 = DIRECTION('',(1.,-4.440892098501E-16,-1.110223024625E-16));
#747 = DIRECTION('',(-5.551115123126E-16,-1.110223024625E-16,1.));
#748 = ADVANCED_FACE('',(#749,#760),#763,.T.);
#749 = FACE_BOUND('',#750,.T.);
#750 = EDGE_LOOP('',(#751));
#751 = ORIENTED_EDGE('',*,*,#752,.T.);
#752 = EDGE_CURVE('',#753,#753,#755,.T.);
#753 = VERTEX_POINT('',#754);
#754 = CARTESIAN_POINT('',(9.,-3.05,10.));
#755 = CIRCLE('',#756,3.05);
#756 = AXIS2_PLACEMENT_3D('',#757,#758,#759);
#757 = CARTESIAN_POINT('',(9.,-8.881784197001E-15,10.));
#758 = DIRECTION('',(1.089776975375E-16,-5.551115123126E-16,-1.));
#759 = DIRECTION('',(2.22044604925E-16,-1.,5.551115123126E-16));
#760 = FACE_BOUND('',#761,.T.);
#761 = EDGE_LOOP('',(#762));
#762 = ORIENTED_EDGE('',*,*,#459,.F.);
#763 = PLANE('',#764);
#764 = AXIS2_PLACEMENT_3D('',#765,#766,#767);
#765 = CARTESIAN_POINT('',(9.,-8.881784197001E-15,10.));
#766 = DIRECTION('',(7.751115123126E-16,1.110223024625E-16,-1.));
#767 = DIRECTION('',(2.22044604925E-16,-1.,5.551115123126E-16));
#768 = ADVANCED_FACE('',(#769),#804,.F.);
#769 = FACE_BOUND('',#770,.T.);
#770 = EDGE_LOOP('',(#771,#780,#786,#787,#788,#795,#796,#803));
#771 = ORIENTED_EDGE('',*,*,#772,.T.);
#772 = EDGE_CURVE('',#498,#773,#775,.T.);
#773 = VERTEX_POINT('',#774);
#774 = CARTESIAN_POINT('',(9.,-3.05,8.));
#775 = CIRCLE('',#776,3.05);
#776 = AXIS2_PLACEMENT_3D('',#777,#778,#779);
#777 = CARTESIAN_POINT('',(9.,-8.881784197001E-15,8.));
#778 = DIRECTION('',(1.089776975375E-16,-5.551115123126E-16,-1.));
#779 = DIRECTION('',(2.22044604925E-16,-1.,5.551115123126E-16));
#780 = ORIENTED_EDGE('',*,*,#781,.T.);
#781 = EDGE_CURVE('',#773,#753,#782,.T.);
#782 = LINE('',#783,#784);
#783 = CARTESIAN_POINT('',(9.,-3.05,8.));
#784 = VECTOR('',#785,1.);
#785 = DIRECTION('',(-7.751115123126E-16,-1.110223024625E-16,1.));
#786 = ORIENTED_EDGE('',*,*,#752,.F.);
#787 = ORIENTED_EDGE('',*,*,#781,.F.);
#788 = ORIENTED_EDGE('',*,*,#789,.T.);
#789 = EDGE_CURVE('',#773,#533,#790,.T.);
#790 = CIRCLE('',#791,3.05);
#791 = AXIS2_PLACEMENT_3D('',#792,#793,#794);
#792 = CARTESIAN_POINT('',(9.,-8.881784197001E-15,8.));
#793 = DIRECTION('',(1.089776975375E-16,-5.551115123126E-16,-1.));
#794 = DIRECTION('',(2.22044604925E-16,-1.,5.551115123126E-16));
#795 = ORIENTED_EDGE('',*,*,#540,.T.);
#796 = ORIENTED_EDGE('',*,*,#797,.T.);
#797 = EDGE_CURVE('',#541,#496,#798,.T.);
#798 = CIRCLE('',#799,3.05);
#799 = AXIS2_PLACEMENT_3D('',#800,#801,#802);
#800 = CARTESIAN_POINT('',(9.,-8.881784197001E-15,8.));
#801 = DIRECTION('',(1.089776975375E-16,-5.551115123126E-16,-1.));
#802 = DIRECTION('',(2.22044604925E-16,-1.,5.551115123126E-16));
#803 = ORIENTED_EDGE('',*,*,#495,.T.);
#804 = CYLINDRICAL_SURFACE('',#805,3.05);
#805 = AXIS2_PLACEMENT_3D('',#806,#807,#808);
#806 = CARTESIAN_POINT('',(9.,-8.881784197001E-15,8.));
#807 = DIRECTION('',(-7.751115123126E-16,-1.110223024625E-16,1.));
#808 = DIRECTION('',(2.22044604925E-16,-1.,5.551115123126E-16));
#809 = ADVANCED_FACE('',(#810),#815,.F.);
#810 = FACE_BOUND('',#811,.T.);
#811 = EDGE_LOOP('',(#812,#813,#814));
#812 = ORIENTED_EDGE('',*,*,#789,.F.);
#813 = ORIENTED_EDGE('',*,*,#772,.F.);
#814 = ORIENTED_EDGE('',*,*,#532,.T.);
#815 = PLANE('',#816);
#816 = AXIS2_PLACEMENT_3D('',#817,#818,#819);
#817 = CARTESIAN_POINT('',(9.,-8.881784197001E-15,8.));
#818 = DIRECTION('',(7.751115123126E-16,1.110223024625E-16,-1.));
#819 = DIRECTION('',(2.22044604925E-16,-1.,5.551115123126E-16));
#820 = ADVANCED_FACE('',(#821),#825,.F.);
#821 = FACE_BOUND('',#822,.T.);
#822 = EDGE_LOOP('',(#823,#824));
#823 = ORIENTED_EDGE('',*,*,#797,.F.);
#824 = ORIENTED_EDGE('',*,*,#575,.F.);
#825 = PLANE('',#826);
#826 = AXIS2_PLACEMENT_3D('',#827,#828,#829);
#827 = CARTESIAN_POINT('',(9.,-8.881784197001E-15,8.));
#828 = DIRECTION('',(7.751115123126E-16,1.110223024625E-16,-1.));
#829 = DIRECTION('',(2.22044604925E-16,-1.,5.551115123126E-16));
#830 = ADVANCED_FACE('',(#831),#850,.T.);
#831 = FACE_BOUND('',#832,.T.);
#832 = EDGE_LOOP('',(#833,#834,#842,#849));
#833 = ORIENTED_EDGE('',*,*,#625,.F.);
#834 = ORIENTED_EDGE('',*,*,#835,.T.);
#835 = EDGE_CURVE('',#626,#836,#838,.T.);
#836 = VERTEX_POINT('',#837);
#837 = CARTESIAN_POINT('',(13.,4.,1.110223024625E-16));
#838 = LINE('',#839,#840);
#839 = CARTESIAN_POINT('',(13.4,4.,1.554312234475E-16));
#840 = VECTOR('',#841,1.);
#841 = DIRECTION('',(-1.,2.22044604925E-16,-1.110223024625E-16));
#842 = ORIENTED_EDGE('',*,*,#843,.T.);
#843 = EDGE_CURVE('',#836,#836,#844,.T.);
#844 = CIRCLE('',#845,4.);
#845 = AXIS2_PLACEMENT_3D('',#846,#847,#848);
#846 = CARTESIAN_POINT('',(13.,-2.975397705995E-15,1.354472090043E-15));
#847 = DIRECTION('',(1.,8.628166150855E-32,3.330669073875E-16));
#848 = DIRECTION('',(2.465190328816E-32,1.,-3.330669073875E-16));
#849 = ORIENTED_EDGE('',*,*,#835,.F.);
#850 = CYLINDRICAL_SURFACE('',#851,4.);
#851 = AXIS2_PLACEMENT_3D('',#852,#853,#854);
#852 = CARTESIAN_POINT('',(13.4,-2.975397705995E-15,1.487698852998E-15)
  );
#853 = DIRECTION('',(1.,8.628166150855E-32,3.330669073875E-16));
#854 = DIRECTION('',(2.465190328816E-32,1.,-3.330669073875E-16));
#855 = ADVANCED_FACE('',(#856,#859),#862,.F.);
#856 = FACE_BOUND('',#857,.F.);
#857 = EDGE_LOOP('',(#858));
#858 = ORIENTED_EDGE('',*,*,#843,.T.);
#859 = FACE_BOUND('',#860,.F.);
#860 = EDGE_LOOP('',(#861));
#861 = ORIENTED_EDGE('',*,*,#652,.F.);
#862 = PLANE('',#863);
#863 = AXIS2_PLACEMENT_3D('',#864,#865,#866);
#864 = CARTESIAN_POINT('',(13.,-6.947830577726E-15,2.924375035234));
#865 = DIRECTION('',(1.,-4.440892098501E-16,-1.110223024625E-16));
#866 = DIRECTION('',(-5.551115123126E-16,-1.110223024625E-16,1.));
#867 = ADVANCED_FACE('',(#868),#874,.T.);
#868 = FACE_BOUND('',#869,.T.);
#869 = EDGE_LOOP('',(#870,#871,#872,#873));
#870 = ORIENTED_EDGE('',*,*,#401,.T.);
#871 = ORIENTED_EDGE('',*,*,#308,.T.);
#872 = ORIENTED_EDGE('',*,*,#79,.F.);
#873 = ORIENTED_EDGE('',*,*,#232,.F.);
#874 = PLANE('',#875);
#875 = AXIS2_PLACEMENT_3D('',#876,#877,#878);
#876 = CARTESIAN_POINT('',(4.128416596855,7.771583403145,2.913649458246)
  );
#877 = DIRECTION('',(0.707106781187,0.707106781187,-1.35759129941E-16));
#878 = DIRECTION('',(-0.707106781187,0.707106781187,-1.570092458684E-16)
  );
#879 = ADVANCED_FACE('',(#880),#886,.T.);
#880 = FACE_BOUND('',#881,.T.);
#881 = EDGE_LOOP('',(#882,#883,#884,#885));
#882 = ORIENTED_EDGE('',*,*,#617,.F.);
#883 = ORIENTED_EDGE('',*,*,#224,.T.);
#884 = ORIENTED_EDGE('',*,*,#63,.T.);
#885 = ORIENTED_EDGE('',*,*,#667,.F.);
#886 = PLANE('',#887);
#887 = AXIS2_PLACEMENT_3D('',#888,#889,#890);
#888 = CARTESIAN_POINT('',(13.671583408652,7.771583408652,2.913649538018
    ));
#889 = DIRECTION('',(-0.707106781187,0.707106781187,-3.164846940204E-16)
  );
#890 = DIRECTION('',(0.707106781187,0.707106781187,1.60237371373E-31));
#891 = ADVANCED_FACE('',(#892),#898,.T.);
#892 = FACE_BOUND('',#893,.T.);
#893 = EDGE_LOOP('',(#894,#895,#896,#897));
#894 = ORIENTED_EDGE('',*,*,#325,.F.);
#895 = ORIENTED_EDGE('',*,*,#394,.T.);
#896 = ORIENTED_EDGE('',*,*,#700,.T.);
#897 = ORIENTED_EDGE('',*,*,#341,.F.);
#898 = PLANE('',#899);
#899 = AXIS2_PLACEMENT_3D('',#900,#901,#902);
#900 = CARTESIAN_POINT('',(4.128416591348,-7.771583408652,2.913649538018
    ));
#901 = DIRECTION('',(0.707106781187,-0.707106781187,1.570092458684E-16)
  );
#902 = DIRECTION('',(0.707106781187,0.707106781187,0.));
#903 = ADVANCED_FACE('',(#904),#910,.T.);
#904 = FACE_BOUND('',#905,.T.);
#905 = EDGE_LOOP('',(#906,#907,#908,#909));
#906 = ORIENTED_EDGE('',*,*,#674,.T.);
#907 = ORIENTED_EDGE('',*,*,#357,.T.);
#908 = ORIENTED_EDGE('',*,*,#692,.F.);
#909 = ORIENTED_EDGE('',*,*,#600,.F.);
#910 = PLANE('',#911);
#911 = AXIS2_PLACEMENT_3D('',#912,#913,#914);
#912 = CARTESIAN_POINT('',(13.671583408652,-7.771583408652,
    2.913649538018));
#913 = DIRECTION('',(-0.707106781187,-0.707106781187,1.54496113495E-16)
  );
#914 = DIRECTION('',(0.707106781187,-0.707106781187,1.570092458684E-16)
  );
#915 = ( GEOMETRIC_REPRESENTATION_CONTEXT(3) 
GLOBAL_UNCERTAINTY_ASSIGNED_CONTEXT((#919)) GLOBAL_UNIT_ASSIGNED_CONTEXT
((#916,#917,#918)) REPRESENTATION_CONTEXT('Context #1',
  '3D Context with UNIT and UNCERTAINTY') );
#916 = ( LENGTH_UNIT() NAMED_UNIT(*) SI_UNIT(.MILLI.,.METRE.) );
#917 = ( NAMED_UNIT(*) PLANE_ANGLE_UNIT() SI_UNIT($,.RADIAN.) );
#918 = ( NAMED_UNIT(*) SI_UNIT($,.STERADIAN.) SOLID_ANGLE_UNIT() );
#919 = UNCERTAINTY_MEASURE_WITH_UNIT(LENGTH_MEASURE(1.E-06),#916,
  'distance_accuracy_value','confusion accuracy');
#920 = PRODUCT_RELATED_PRODUCT_CATEGORY('part',$,(#7));
#921 = MECHANICAL_DESIGN_GEOMETRIC_PRESENTATION_REPRESENTATION('',(#922)
  ,#915);
#922 = STYLED_ITEM('color',(#923),#15);
#923 = PRESENTATION_STYLE_ASSIGNMENT((#924,#932));
#924 = SURFACE_STYLE_USAGE(.BOTH.,#925);
#925 = SURFACE_SIDE_STYLE('',(#926,#930));
#926 = SURFACE_STYLE_FILL_AREA(#927);
#927 = FILL_AREA_STYLE('',(#928));
#928 = FILL_AREA_STYLE_COLOUR('',#929);
#929 = COLOUR_RGB('',0.447058818107,0.474509808674,0.501960817233);
#930 = SURFACE_STYLE_RENDERING_WITH_PROPERTIES(.NORMAL_SHADING.,#929,(
    #931));
#931 = SURFACE_STYLE_TRANSPARENT(0.5);
#932 = CURVE_STYLE('',#933,POSITIVE_LENGTH_MEASURE(0.1),#934);
#933 = DRAUGHTING_PRE_DEFINED_CURVE_FONT('continuous');
#934 = COLOUR_RGB('',9.803921802644E-02,9.803921802644E-02,
  9.803921802644E-02);
ENDSEC;
END-ISO-10303-21;
